<?xml version="1.0" encoding="UTF-8"?>
<svg xmlns="http://www.w3.org/2000/svg" version="1.1" viewBox="0 0 34 35">
  <defs>
    <style>
      .cls-1 {
        fill: #fff;
      }
    </style>
  </defs>
  <!-- Generator: Adobe Illustrator 28.6.0, SVG Export Plug-In . SVG Version: 1.2.0 Build 709)  -->
  <g>
    <g id="Layer_1">
      <path class="cls-1" d="M34,17.5c0-9.4-7.6-17-17-17C7.6.5,0,8.1,0,17.5c0,8.4,6.1,15.5,14.3,16.8h0c1.8.3,3.6.3,5.3,0h0c8.3-1.3,14.4-8.4,14.4-16.8ZM15.2,32.9v-10.7c0-.4-.3-.8-.8-.8h-3.3v-3.1h3.3c.4,0,.8-.3.8-.8v-3.6c0-3.5,2-5.5,5.3-5.5,1,0,1.9,0,2.9.2v2.6h-1.3c-1.7-.2-3.2,1-3.4,2.7,0,.2,0,.4,0,.6v3.1c0,.4.3.8.8.8h3.6l-.5,3.1h-3.1c-.4,0-.8.3-.8.8v10.7c-1.2.1-2.4.1-3.5,0ZM20.3,32.6v-9.6h3c.4,0,.7-.3.8-.7l.7-4.7c0-.4-.2-.8-.6-.9,0,0,0,0-.1,0h-3.7v-2.3c0-.5.2-.9.5-1.3.4-.3.9-.5,1.4-.5h2c.4,0,.8-.3.8-.8v-4c0-.4-.3-.7-.6-.8-1.2-.2-2.5-.3-3.8-.3-4.3,0-6.9,2.7-6.9,7.1v2.8h-3.3c-.4,0-.8.3-.8.8v4.7c0,.4.3.8.8.8h3.3v9.6C5.4,30.8,0,22.5,1.9,14.2,3.7,5.9,12,.6,20.3,2.4c8.3,1.8,13.6,10.1,11.8,18.4-1.3,5.9-5.9,10.5-11.8,11.8Z"/>
    </g>
  </g>
</svg>