<?xml version="1.0" encoding="UTF-8"?>
<svg xmlns="http://www.w3.org/2000/svg" version="1.1" viewBox="0 0 34 35">
  <defs>
    <style>
      .cls-1 {
        fill: #fff;
      }
    </style>
  </defs>
  <!-- Generator: Adobe Illustrator 28.6.0, SVG Export Plug-In . SVG Version: 1.2.0 Build 709)  -->
  <g>
    <g id="Layer_1">
      <path class="cls-1" d="M17,29.6c-.4,0-10.3,0-12.9-.7-1.6-.4-2.9-1.7-3.4-3.4C.2,22.9,0,20.2,0,17.5c0-2.7.2-5.4.7-8,.4-1.6,1.7-2.9,3.4-3.4,2.6-.7,12.5-.7,12.9-.7s10.3,0,12.9.7c1.6.4,2.9,1.7,3.4,3.4.5,2.6.7,5.3.7,8,0,2.7-.2,5.4-.7,8-.4,1.6-1.7,2.9-3.4,3.4-2.6.7-12.5.7-12.9.7ZM17,6.8c-.1,0-10.1,0-12.5.7-1.2.3-2.1,1.2-2.4,2.4-.5,2.5-.7,5.1-.7,7.7,0,2.6.2,5.1.7,7.7.3,1.2,1.2,2.1,2.4,2.4,2.4.6,12.4.7,12.5.7s10.1,0,12.5-.7c1.2-.3,2.1-1.2,2.4-2.4.5-2.5.7-5.1.7-7.7,0-2.6-.2-5.1-.7-7.7h0c-.3-1.2-1.2-2.1-2.4-2.4-2.4-.6-12.4-.7-12.5-.7ZM13.7,23.1c-.4,0-.7-.3-.7-.7v-9.8c0-.4.3-.7.7-.7.1,0,.2,0,.4,0l8.5,4.9c.3.2.5.6.3,1,0,.1-.2.2-.3.3l-8.5,4.9c-.1,0-.2,0-.4,0ZM14.5,13.8v7.3l6.3-3.7-6.3-3.7Z"/>
    </g>
  </g>
</svg>