<?xml version="1.0" encoding="utf-8"?>
<!-- Generator: Adobe Illustrator 24.2.1, SVG Export Plug-In . SVG Version: 6.00 Build 0)  -->
<svg version="1.1" id="Layer_1" xmlns="http://www.w3.org/2000/svg" xmlns:xlink="http://www.w3.org/1999/xlink" x="0px" y="0px"
	 viewBox="0 0 75 75" style="enable-background:new 0 0 75 75;" xml:space="preserve">
<style type="text/css">
	.st0{fill:#981E32;}
	.st1{fill:#A32035;}
</style>
<g>
	<g>
		<g>
			<polygon class="st0" points="75,63.4 6.66,63.4 6.66,58.67 9.46,58.67 9.46,60.6 72.21,60.6 72.21,22.13 71.35,22.13 
				71.35,19.45 75,19.45 			"/>
		</g>
		<g>
			<path class="st0" d="M68.34,55.55H0V11.6h68.23v43.95H68.34z M2.79,52.87h62.75V14.4H2.79V52.87z"/>
		</g>
		<g>
			<rect x="34.71" y="27.4" class="st0" width="21.81" height="4.19"/>
		</g>
		<g>
			<rect x="34.71" y="36" class="st0" width="21.81" height="4.19"/>
		</g>
	</g>
</g>
<path class="st1" d="M22.15,43.04c0,0,1.12-0.48,1.73-2.33c0.54,1.13,0.4,2.29,0.4,2.29C23.78,43.11,22.15,43.04,22.15,43.04z
	 M28.15,32.46c0,0,0.68,3.72-1.73,3.84c-2.33,0.12-3.43-3.38-3.43-3.38s0.56,6.85,3.83,6.4C30.5,38.81,28.15,32.46,28.15,32.46z
	 M10.41,42.15C10.41,42.15,10.41,42.15,10.41,42.15c2.73-0.62,4.81-3.8,5.43-5.08l0.39-0.81l0.23,0.87c0.01,0.05,0.27,1,0.27,2.26
	c0,0.14,0,0.28-0.01,0.43c0.94,0.04,1.61-0.15,2.03-0.59c0.6-0.62,0.78-1.79,0.55-3.59c-0.11-0.86-0.42-2.22-0.7-3.43
	c-0.14-0.62-0.28-1.2-0.36-1.61c-0.52-2.63,0.13-4.27,0.77-5.17c0.1-0.14,0.21-0.28,0.32-0.41c-1.88,0.63-3.46,1.62-5.1,3.25
	l1.15,1.33l0.47-0.44c0.44,1.65,0.12,3.18,0.12,3.18c-0.6-0.92-1.32-1.67-1.32-1.67l0.31-0.52l-1.03-1.2l-0.12-0.13
	C12.54,30.57,12.12,32,12.12,32l0.9,0.82l0.53,0.48l0.17-0.51c0.97,1.82,0.08,3.51,0.08,3.51c-0.16-0.62-0.8-1.53-0.8-1.53
	l0.25-0.83l-1.34-1.21c-1.39,4.36-3.26,5.77-3.26,5.77s2.02-0.37,3.14-0.74C11.81,37.76,11.77,40.06,10.41,42.15z M30.78,26.07
	l-3.27-0.1c-0.01-0.06-0.02-0.12-0.03-0.18l3.15-0.63l-0.05-0.35l-3.24,0.4c-0.02-0.06-0.04-0.13-0.07-0.19l2.96-1.15l-0.11-0.33
	L27,24.5c-0.18-0.31-0.39-0.53-0.58-0.61c-1.18,0.09-2.25,0.19-3.23,0.31l0.62-2.9h-0.34l-0.95,2.99c-0.18,0.03-0.35,0.06-0.52,0.09
	l0.74-3.25h-0.34l-1.1,3.38c-0.01,0-0.02,0.01-0.04,0.01c-0.67,0.22-1.28,0.68-1.72,1.31c-0.56,0.8-1.14,2.26-0.66,4.66
	c0.08,0.4,0.22,0.98,0.36,1.59c0.28,1.22,0.6,2.6,0.72,3.49c0.25,2.03,0.02,3.34-0.73,4.13c-0.61,0.64-1.56,0.89-2.89,0.78
	l-0.33-0.03l0.03-0.33c0.02-0.24,0.03-0.48,0.03-0.71c0-0.45-0.04-0.87-0.08-1.2c-0.74,1.22-2.08,2.94-3.78,3.94
	c2.9,0.07,5.7,0.58,6.95,0.75c0.12,0.02,0.25,0.03,0.37,0.04c0.03,0,0.06,0,0.09,0.01c0.01,0,0.02,0,0.03,0
	c0.29,0.01,0.57-0.01,0.83-0.04c0.01,0,0.02,0,0.03,0c0.04-0.01,0.07-0.01,0.11-0.02c1.61-0.27,3.01-1.47,2.63-4.23
	c-0.45-3.28-1.02-5.37-1.16-6.95c-0.18-1.92,1.49-4.89,4.44-3.58c0,0,0.41,0.35,0.95,1.6c0,0,0.21-0.71-0.09-2.03
	c0.12-0.36,0.17-0.75,0.17-1.13l3.22-0.14L30.78,26.07z M20.38,29.09c-0.03-0.03-0.2-1.28,0.83-1.98c0.64-0.44,2.45-0.57,3.23-0.17
	c0.28,0.15,0.06,0.22-0.2,0.2c-1.03-0.08-2.14,0.27-2.79,0.73C20.93,28.23,20.58,28.73,20.38,29.09z"/>
</svg>
