<?xml version="1.0" encoding="utf-8"?>
<!-- Generator: Adobe Illustrator 24.2.1, SVG Export Plug-In . SVG Version: 6.00 Build 0)  -->
<svg version="1.1" id="Layer_1" xmlns="http://www.w3.org/2000/svg" xmlns:xlink="http://www.w3.org/1999/xlink" x="0px" y="0px"
	 viewBox="0 0 75 75" style="enable-background:new 0 0 75 75;" xml:space="preserve">
<style type="text/css">
	.st0{fill:#981E32;}
</style>
<path class="st0" d="M75,29.53c0-0.02,0-0.04-0.01-0.05c0-0.06-0.01-0.11-0.02-0.17c-0.01-0.05-0.01-0.09-0.02-0.14
	c-0.01-0.05-0.03-0.1-0.05-0.15c-0.02-0.05-0.03-0.09-0.05-0.14c-0.02-0.05-0.05-0.09-0.07-0.13c-0.03-0.05-0.05-0.09-0.09-0.13
	c-0.01-0.02-0.02-0.03-0.03-0.05c-0.02-0.02-0.04-0.04-0.06-0.07c-0.04-0.04-0.07-0.08-0.11-0.11c-0.04-0.03-0.08-0.07-0.12-0.1
	c-0.04-0.03-0.08-0.06-0.12-0.09c-0.04-0.03-0.09-0.05-0.13-0.07c-0.05-0.02-0.09-0.04-0.14-0.06c-0.04-0.02-0.08-0.03-0.13-0.04
	l-8.23-6.42V9.38c0-0.86-0.7-1.56-1.56-1.56H47.89l-9.42-7.47c-0.57-0.45-1.37-0.45-1.94,0l-9.46,7.48H10.94
	c-0.86,0-1.56,0.7-1.56,1.56v12.39l-8.21,6.26c-0.05,0.01-0.1,0.03-0.14,0.05c-0.05,0.02-0.09,0.04-0.14,0.06
	c-0.05,0.02-0.09,0.05-0.14,0.07c-0.04,0.03-0.08,0.05-0.12,0.08c-0.04,0.03-0.08,0.06-0.12,0.1c-0.04,0.04-0.08,0.07-0.11,0.11
	c-0.02,0.02-0.04,0.04-0.06,0.06c-0.01,0.02-0.02,0.03-0.03,0.05c-0.03,0.04-0.06,0.09-0.09,0.14c-0.02,0.04-0.05,0.08-0.07,0.13
	c-0.02,0.05-0.04,0.09-0.05,0.14c-0.02,0.05-0.03,0.1-0.05,0.15c-0.01,0.04-0.02,0.09-0.02,0.14c-0.01,0.06-0.02,0.11-0.02,0.17
	C0,29.5,0,29.51,0,29.53v43.91c0,0.02,0,0.03,0.01,0.05c0,0.06,0.01,0.11,0.02,0.17c0.01,0.05,0.01,0.09,0.02,0.14
	c0.01,0.05,0.03,0.1,0.05,0.15c0.02,0.05,0.03,0.1,0.05,0.14c0.02,0.04,0.04,0.08,0.07,0.12c0.03,0.05,0.06,0.1,0.09,0.14
	c0.01,0.01,0.02,0.03,0.03,0.04c0.02,0.02,0.03,0.03,0.05,0.05c0.05,0.06,0.1,0.11,0.16,0.16c0.03,0.03,0.06,0.06,0.1,0.08
	c0.06,0.04,0.12,0.08,0.18,0.11c0.03,0.02,0.07,0.04,0.1,0.06c0.07,0.03,0.15,0.06,0.23,0.08c0.03,0.01,0.05,0.02,0.08,0.03
	C1.34,74.99,1.45,75,1.56,75h71.88c0.11,0,0.22-0.01,0.33-0.04c0.03-0.01,0.06-0.02,0.08-0.03c0.08-0.02,0.15-0.05,0.23-0.08
	c0.04-0.02,0.07-0.04,0.1-0.06c0.06-0.03,0.12-0.07,0.18-0.11c0.03-0.02,0.07-0.05,0.1-0.08c0.06-0.05,0.11-0.1,0.16-0.16
	c0.02-0.02,0.04-0.03,0.05-0.05c0.01-0.01,0.02-0.03,0.03-0.04c0.03-0.05,0.06-0.1,0.09-0.15c0.02-0.04,0.05-0.08,0.07-0.12
	c0.02-0.05,0.04-0.1,0.05-0.14c0.02-0.05,0.03-0.1,0.05-0.15c0.01-0.05,0.02-0.09,0.02-0.14c0.01-0.06,0.02-0.11,0.02-0.17
	c0-0.02,0.01-0.03,0.01-0.05V29.53z M3.12,32.75l23.89,18.8L3.12,70.23V32.75z M29.54,53.54l6.99,5.5c0.28,0.22,0.62,0.33,0.97,0.33
	c0.34,0,0.68-0.11,0.97-0.33l6.99-5.5L68.9,71.88H6.1L29.54,53.54z M47.99,51.55l23.89-18.8v37.48L47.99,51.55z M70.8,29.62
	l-5.18,4.08v-8.11L70.8,29.62z M37.5,3.56l5.36,4.26H32.11L37.5,3.56z M47.34,10.94C47.34,10.94,47.34,10.94,47.34,10.94
	C47.34,10.94,47.35,10.94,47.34,10.94H62.5v25.21l-25,19.67l-25-19.67V10.94H47.34z M9.38,33.69l-5.16-4.06l5.16-3.94V33.69z"/>
<g>
	<path class="st0" d="M49.99,27.57c0,1.48-0.23,2.83-0.7,4.05c-0.46,1.22-1.12,2.17-1.96,2.86c-0.84,0.68-1.81,1.02-2.92,1.02
		c-0.82,0-1.52-0.22-2.12-0.65s-1-1.02-1.21-1.76H40.9c-0.51,0.8-1.13,1.41-1.87,1.81c-0.74,0.4-1.58,0.6-2.51,0.6
		c-1.68,0-3.01-0.54-3.97-1.63c-0.96-1.08-1.45-2.55-1.45-4.4c0-2.13,0.64-3.85,1.92-5.18c1.28-1.33,3-1.99,5.15-1.99
		c0.78,0,1.65,0.07,2.61,0.21c0.95,0.14,1.8,0.33,2.55,0.58l-0.34,7.2v0.37c0,1.65,0.54,2.48,1.61,2.48c0.82,0,1.46-0.53,1.94-1.58
		c0.48-1.05,0.72-2.39,0.72-4.02c0-1.76-0.36-3.32-1.08-4.65c-0.72-1.34-1.75-2.37-3.08-3.09c-1.33-0.72-2.86-1.08-4.58-1.08
		c-2.2,0-4.11,0.45-5.74,1.36c-1.63,0.91-2.87,2.21-3.72,3.89c-0.86,1.69-1.28,3.65-1.28,5.87c0,2.99,0.8,5.29,2.4,6.9
		c1.6,1.61,3.9,2.41,6.89,2.41c2.28,0,4.66-0.46,7.14-1.39v2.54c-2.17,0.89-4.53,1.33-7.07,1.33c-3.82,0-6.8-1.03-8.93-3.09
		s-3.2-4.93-3.2-8.61c0-2.69,0.58-5.09,1.73-7.19s2.76-3.71,4.81-4.82c2.05-1.11,4.37-1.67,6.96-1.67c2.24,0,4.23,0.46,5.98,1.39
		c1.75,0.93,3.11,2.25,4.07,3.97S49.99,25.32,49.99,27.57z M34.07,29.53c0,2.4,0.94,3.61,2.83,3.61c1.99,0,3.08-1.51,3.27-4.54
		l0.19-3.7c-0.65-0.18-1.35-0.26-2.09-0.26c-1.32,0-2.35,0.44-3.09,1.32C34.44,26.83,34.07,28.03,34.07,29.53z"/>
</g>
</svg>
