<?xml version="1.0" encoding="utf-8"?>
<!-- Generator: Adobe Illustrator 24.2.1, SVG Export Plug-In . SVG Version: 6.00 Build 0)  -->
<svg version="1.1" id="Layer_1" xmlns="http://www.w3.org/2000/svg" xmlns:xlink="http://www.w3.org/1999/xlink" x="0px" y="0px"
	 viewBox="0 0 75 75" style="enable-background:new 0 0 75 75;" xml:space="preserve">
<style type="text/css">
	.st0{fill:#A32035;}
</style>
<path class="st0" d="M45.73,74.61c0,0,3.8-1.62,5.87-7.89c1.83,3.82,1.35,7.75,1.35,7.75C51.28,74.85,45.73,74.61,45.73,74.61z
	 M66.1,38.74c0,0,2.32,12.6-5.87,13.04C52.32,52.19,48.6,40.3,48.6,40.3S50.51,63.54,61.58,62C74.07,60.28,66.1,38.74,66.1,38.74z
	 M5.92,71.61c0.01,0,0.01,0,0.02,0c9.24-2.1,16.31-12.89,18.39-17.22l1.32-2.74l0.79,2.94c0.04,0.16,0.9,3.4,0.9,7.67
	c0,0.47-0.01,0.96-0.04,1.45c3.19,0.12,5.46-0.52,6.88-2c2.03-2.1,2.64-6.08,1.88-12.16c-0.37-2.91-1.44-7.54-2.39-11.62
	c-0.49-2.09-0.95-4.06-1.22-5.46c-1.78-8.93,0.43-14.48,2.6-17.55c0.34-0.49,0.71-0.94,1.1-1.38c-6.39,2.15-11.75,5.5-17.28,11.02
	l3.89,4.52l1.59-1.49c1.5,5.6,0.42,10.77,0.42,10.77c-2.04-3.12-4.46-5.65-4.46-5.65l1.06-1.78l-3.51-4.07l-0.41-0.45
	c-4.31,5.92-5.71,10.77-5.71,10.77l3.06,2.79l1.79,1.62l0.59-1.72c3.29,6.16,0.28,11.91,0.28,11.91c-0.54-2.1-2.71-5.2-2.71-5.2
	l0.86-2.82l-4.55-4.12C6.33,54.43,0,59.22,0,59.22s6.85-1.24,10.66-2.52C10.66,56.71,10.55,64.5,5.92,71.61z M75,17.05L63.9,16.7
	c-0.03-0.2-0.06-0.4-0.1-0.6l10.67-2.13l-0.18-1.18l-10.99,1.37c-0.07-0.22-0.15-0.43-0.23-0.64l10.05-3.91l-0.39-1.13l-10.52,3.24
	c-0.62-1.05-1.32-1.8-1.97-2.06c-4.01,0.3-7.63,0.63-10.95,1.06l2.1-9.83h-1.16l-3.22,10.15c-0.6,0.09-1.19,0.19-1.78,0.29
	l2.51-11.01h-1.17l-3.73,11.45c-0.04,0.01-0.08,0.02-0.12,0.02c-2.27,0.75-4.33,2.3-5.83,4.43c-1.91,2.71-3.85,7.66-2.23,15.81
	c0.27,1.36,0.73,3.32,1.21,5.39c0.96,4.14,2.05,8.83,2.43,11.85c0.86,6.89,0.07,11.34-2.49,14.01c-2.08,2.16-5.29,3.02-9.81,2.63
	l-1.13-0.1l0.1-1.13c0.07-0.82,0.1-1.63,0.1-2.4c0-1.54-0.12-2.94-0.27-4.08c-2.52,4.14-7.04,9.98-12.81,13.35
	c9.82,0.24,19.32,1.97,23.57,2.55c0.42,0.06,0.84,0.1,1.26,0.12c0.11,0.01,0.22,0.01,0.32,0.02c0.03,0,0.07,0,0.1,0
	c1,0.03,1.94-0.02,2.82-0.13c0.03,0,0.06-0.01,0.09-0.01c0.12-0.02,0.24-0.04,0.36-0.06c5.46-0.93,10.2-4.98,8.93-14.35
	c-1.51-11.13-3.45-18.22-3.95-23.58c-0.6-6.51,5.04-16.6,15.07-12.13c0,0,1.4,1.18,3.23,5.44c0,0,0.71-2.42-0.32-6.89
	c0.42-1.23,0.59-2.53,0.58-3.82l10.93-0.46L75,17.05z M39.74,27.29c-0.09-0.11-0.67-4.33,2.8-6.7c2.17-1.48,8.3-1.95,10.94-0.56
	c0.96,0.51,0.21,0.74-0.69,0.67c-3.51-0.27-7.26,0.92-9.47,2.47C41.61,24.37,40.43,26.07,39.74,27.29z"/>
</svg>
