<?xml version="1.0" encoding="UTF-8"?>
<svg xmlns="http://www.w3.org/2000/svg" version="1.1" viewBox="0 0 34 35">
  <defs>
    <style>
      .cls-1 {
        fill: #fff;
      }
    </style>
  </defs>
  <!-- Generator: Adobe Illustrator 28.6.0, SVG Export Plug-In . SVG Version: 1.2.0 Build 709)  -->
  <g>
    <g id="Layer_1">
      <path class="cls-1" d="M4,.5C1.8.5,0,2.3,0,4.5v25.9c0,2.2,1.8,4,4,4h25.9c2.2,0,4-1.8,4-4V4.5c0-2.2-1.8-4-4-4H4ZM4,2.1h25.9c1.4,0,2.4,1.1,2.4,2.4v25.9c0,1.4-1.1,2.4-2.4,2.4H4c-1.4,0-2.4-1.1-2.4-2.4V4.5c0-1.4,1.1-2.4,2.4-2.4ZM9.7,11c-3.6,0-6.5,2.9-6.5,6.5s2.9,6.5,6.5,6.5,6.5-2.9,6.5-6.5-2.9-6.5-6.5-6.5ZM24.3,11c-3.6,0-6.5,2.9-6.5,6.5s2.9,6.5,6.5,6.5,6.5-2.9,6.5-6.5-2.9-6.5-6.5-6.5ZM9.7,12.6c2.7,0,4.9,2.2,4.9,4.9s-2.2,4.9-4.9,4.9-4.9-2.2-4.9-4.9,2.2-4.9,4.9-4.9ZM24.3,12.6c2.7,0,4.9,2.2,4.9,4.9s-2.2,4.9-4.9,4.9-4.9-2.2-4.9-4.9,2.2-4.9,4.9-4.9Z"/>
    </g>
  </g>
</svg>