<?xml version="1.0" encoding="UTF-8"?>
<svg xmlns="http://www.w3.org/2000/svg" version="1.1" viewBox="0 0 34 35">
  <defs>
    <style>
      .cls-1 {
        fill: #fff;
      }
    </style>
  </defs>
  <!-- Generator: Adobe Illustrator 28.6.0, SVG Export Plug-In . SVG Version: 1.2.0 Build 709)  -->
  <g>
    <g id="Layer_1">
      <g>
        <path class="cls-1" d="M4.7.8C2.3.6.2,2.5,0,4.9c0,0,0,.2,0,.3,0,2.4,1.9,4.4,4.4,4.4,0,0,.2,0,.3,0h0c2.4.2,4.6-1.7,4.7-4.1.2-2.4-1.7-4.6-4.1-4.7-.2,0-.4,0-.6,0h0ZM4.7,8h0c-1.5.1-2.9-1-3-2.6s1-2.9,2.6-3c.2,0,.3,0,.5,0,1.5-.1,2.9,1,3.1,2.5.1,1.5-1,2.9-2.5,3.1-.2,0-.4,0-.6,0Z"/>
        <path class="cls-1" d="M8.2,11.7H1.2c-.4,0-.8.4-.8.8v20.9c0,.4.4.8.8.8h6.9c.4,0,.8-.4.8-.8V12.5c0-.4-.4-.8-.8-.8ZM7.4,32.6H2V13.3h5.3v19.3Z"/>
        <path class="cls-1" d="M25.2,11.2c-2,0-4,.6-5.4,2v-.7c0-.4-.4-.8-.8-.8h-6.9c-.4,0-.8.4-.8.8,0,0,0,0,0,0,0,1.9,0,20.7,0,20.8,0,.4.4.8.8.8h6.9c.4,0,.8-.4.8-.8v-11.7c0-.5,0-.9.2-1.4.4-1.2,1.5-2,2.8-2,.7,0,2.7,0,2.7,3.9v11.2c0,.4.4.8.8.8h6.9c.4,0,.8-.4.8-.8v-12c0-6.4-3.3-10.2-8.8-10.2ZM32.4,32.6h-5.3v-10.4c0-4.8-2.7-5.5-4.3-5.5-1.9,0-3.7,1.2-4.3,3-.2.6-.3,1.3-.3,2v10.8h-5.3c0-3.3,0-15.6,0-19.3h5.3v2.2c0,.4.4.8.8.8.3,0,.5-.1.7-.4,1.1-2,3.3-3.2,5.6-3.1,4.6,0,7.2,3.1,7.2,8.6v11.2Z"/>
      </g>
    </g>
  </g>
</svg>