<?xml version="1.0" encoding="UTF-8"?>
<svg xmlns="http://www.w3.org/2000/svg" version="1.1" viewBox="0 0 34 35">
  <defs>
    <style>
      .cls-1 {
        fill: #fff;
      }
    </style>
  </defs>
  <!-- Generator: Adobe Illustrator 28.6.0, SVG Export Plug-In . SVG Version: 1.2.0 Build 709)  -->
  <g>
    <g id="Layer_1">
      <path class="cls-1" d="M13,35c-6.3,0-11.4-5.1-11.4-11.4s5.1-11.4,11.4-11.4c.4,0,.8.3.8.8v5.8c0,.4-.4.7-.8.8-2.2,0-4.1,1.8-4.1,4,0,2.2,1.8,4.1,4,4.1,2.2,0,4.1-1.8,4.1-4,0,0,0,0,0,0,0,0,0,0,0,0V.8c0-.4.3-.8.8-.8h5.8c.4,0,.8.3.8.8,0,4,3.2,7.2,7.2,7.2.4,0,.8.3.8.8v5.7c0,.4-.3.8-.8.8-2.5,0-5-.7-7.2-1.9v10.3c0,6.3-5.1,11.4-11.4,11.4ZM12.3,13.8c-5.4.4-9.5,5.1-9.1,10.5.4,5.4,5.1,9.5,10.5,9.1,5.1-.4,9.1-4.7,9.1-9.8v-11.7c0-.4.3-.8.8-.8.2,0,.3,0,.4.1,2,1.4,4.4,2.3,6.8,2.4v-4.2c-4.2-.4-7.6-3.7-8-8h-4.3v22.1s0,0,0,0c0,3.1-2.6,5.6-5.7,5.5-3.1,0-5.6-2.6-5.5-5.7,0-2.8,2.1-5.1,4.9-5.5v-4.3Z"/>
    </g>
  </g>
</svg>