<?xml version="1.0" encoding="UTF-8"?>
<svg xmlns="http://www.w3.org/2000/svg" id="ADVANCE_Logo" data-name="ADVANCE Logo" viewBox="0 0 1920 480">
  <defs>
    <style>
      .cls-1 {
        fill: #fff;
      }

      .cls-2 {
        fill: #a60f2d;
      }

      .cls-3 {
        fill: #af0737;
      }

      .cls-4 {
        fill: #4d4d4d;
      }

      .cls-5 {
        fill: #a60f2d;
      }
    </style>
  </defs>
  <rect class="cls-1" width="1920" height="480"></rect>
  <g>
    <path class="cls-3" d="M290.82,353.35s15.68-6.69,24.27-32.62c7.57,15.8,5.59,32.04,5.59,32.04-6.94,1.56-29.87.58-29.87.58"></path>
    <path class="cls-3" d="M375.04,205.07s9.56,52.11-24.31,53.89c-32.68,1.7-48.08-47.45-48.08-47.45,0,0,7.9,96.05,53.72,89.72,51.59-7.11,18.67-96.17,18.67-96.17"></path>
    <path class="cls-3" d="M126.2,340.95s.05-.01.05-.01c38.2-8.7,67.48-53.28,76.06-71.17l5.46-11.33,3.29,12.13c.16.65,3.72,14.04,3.72,31.7,0,1.97-.05,3.97-.16,6,13.18.5,22.58-2.17,28.44-8.25,8.4-8.67,10.91-25.11,7.79-50.24-1.55-12.03-5.99-31.15-9.93-48.04-2.02-8.63-3.92-16.79-5.07-22.57-7.36-36.92,1.78-59.84,10.74-72.56,1.43-2,2.96-3.9,4.59-5.69-26.45,8.88-48.61,22.72-71.49,45.56l16.09,18.65,6.58-6.16c6.24,23.17,1.76,44.51,1.76,44.51-8.46-12.89-18.44-23.34-18.44-23.34l4.36-7.34-14.5-16.85-1.68-1.89c-17.83,24.48-23.59,44.51-23.59,44.51l12.64,11.58,7.36,6.67,2.48-7.1c13.61,25.45,1.18,49.24,1.18,49.24-2.23-8.67-11.19-21.5-11.19-21.5l3.54-11.67-18.82-17.03c-19.57,61.14-45.72,80.94-45.72,80.94,0,0,28.28-5.1,44.04-10.39,0,0-.43,32.23-19.57,61.61"></path>
    <path class="cls-3" d="M411.79,120.38l-45.19,1.91c.03,5.32-.68,10.72-2.41,15.81,4.22,18.44,1.28,28.45,1.28,28.45-7.56-17.59-13.31-22.48-13.31-22.48-41.51-18.43-64.83,23.25-62.33,50.15,2.03,22.1,10.06,51.43,16.31,97.45,5.27,38.72-14.34,55.47-36.9,59.3-.48.07-.98.16-1.48.26-.13,0-.24,0-.35.03-3.67.47-7.55.67-11.65.58-.13-.04-.3-.04-.43-.04-.46,0-.89-.07-1.35-.07-1.76-.1-3.48-.29-5.2-.5-17.55-2.42-56.85-9.56-97.45-10.55,23.88-13.94,42.56-38.08,52.99-55.18.6,4.74,1.09,10.52,1.09,16.89,0,3.17-.1,6.51-.43,9.92l-.39,4.66,4.68.39c18.68,1.62,31.92-1.94,40.58-10.86,10.58-11.03,13.85-29.41,10.26-57.92-1.55-12.5-6.09-31.89-10.06-48.98-1.98-8.55-3.85-16.68-4.99-22.28-6.72-33.68,1.31-54.13,9.24-65.34,6.17-8.78,14.72-15.22,24.1-18.31.16-.03.31-.07.48-.09l15.43-47.34h4.85l-10.36,45.5c2.4-.42,4.83-.8,7.3-1.18l13.32-41.95h4.79l-8.72,40.62c13.79-1.77,28.75-3.14,45.34-4.36,2.69,1.07,5.59,4.18,8.15,8.5l43.49-13.38,1.61,4.69-41.58,16.13c.33.85.65,1.74.92,2.65l45.46-5.65.76,4.87-44.11,8.8c.16.83.29,1.65.43,2.48l45.88,1.48-.03,4.93ZM280.84,140.7c9.12-6.39,24.63-11.31,39.18-10.19,3.68.28,6.8-.69,2.83-2.79-10.89-5.74-36.26-3.79-45.23,2.33-14.37,9.8-11.93,27.26-11.61,27.68,2.87-5,7.73-12.07,14.83-17.03"></path>
  </g>
  <g>
    <path class="cls-2" d="M616.85,274.11l-9.59-28.48h-78.11l-9.59,28.48h-52.73l70.78-188.09h60.91l71.06,188.09h-52.73ZM568.06,128.32l-26.23,76.42h52.73l-26.51-76.42Z"></path>
    <path class="cls-2" d="M683.4,274.11V86.02h78.96c59.22,0,101.8,35.53,101.8,93.91s-42.58,94.19-101.52,94.19h-79.24ZM731.9,231.81h30.46c32.99,0,52.17-23.97,52.17-51.89s-17.48-51.61-51.89-51.61h-30.74v103.49Z"></path>
    <path class="cls-2" d="M933.53,274.11l-70.78-188.09h54.99l46.25,135.64,46.53-135.64h54.99l-71.06,188.09h-60.91Z"></path>
    <path class="cls-2" d="M1196.92,274.11l-9.59-28.48h-78.11l-9.59,28.48h-52.73l70.78-188.09h60.91l71.06,188.09h-52.73ZM1148.13,128.32l-26.23,76.42h52.73l-26.51-76.42Z"></path>
    <path class="cls-2" d="M1391.5,274.11l-79.52-113.65v113.65h-48.5V86.02h49.91l76.14,108.29v-108.29h48.79v188.09h-46.81Z"></path>
    <path class="cls-2" d="M1462.56,180.21c0-58.09,43.99-97.29,100.39-97.29,46.81,0,71.06,25.66,83.47,50.48l-41.74,19.74c-6.2-14.95-22.28-27.35-41.74-27.35-29.33,0-51.04,23.69-51.04,54.43s21.71,54.43,51.04,54.43c19.46,0,35.53-12.41,41.74-27.35l41.74,19.74c-12.13,24.25-36.66,50.48-83.47,50.48-56.4,0-100.39-39.48-100.39-97.29Z"></path>
    <path class="cls-2" d="M1667.29,274.11V86.02h137.9v40.89h-89.39v31.3h87.42v41.17h-87.42v33.84h89.39v40.89h-137.9Z"></path>
  </g>
  <g>
    <path class="cls-4" d="M520.52,363.87l-14.19-50.83-14.19,50.83h-5.68l-16.94-59.16h5.68l14.28,52.07,14.55-52.07h4.61l14.46,52.07,14.28-52.07h5.68l-16.85,59.16h-5.68Z"></path>
    <path class="cls-4" d="M590.77,363.87l-5.94-14.55h-31.49l-5.94,14.55h-5.68l24.21-59.16h6.3l24.21,59.16h-5.68ZM569.03,309.67l-14.1,35.04h28.29l-14.19-35.04Z"></path>
    <path class="cls-4" d="M603.63,351.71c3.81,4.43,10.02,8.6,18.45,8.6,12.15,0,15.61-6.74,15.61-11.8,0-8.34-7.89-10.64-16.23-12.86-9.31-2.57-19.25-5.23-19.25-16.14,0-9.67,8.69-15.79,19.43-15.79,8.87,0,15.43,3.1,20.05,8.34l-3.37,3.73c-4.26-5.14-10.29-7.45-16.94-7.45-7.89,0-13.84,4.52-13.84,10.91,0,7.01,7.36,9.05,15.43,11.18,9.58,2.75,20.05,5.77,20.05,17.74,0,7.63-5.06,16.76-21.02,16.76-9.76,0-17.12-3.9-21.64-9.4l3.28-3.81Z"></path>
    <path class="cls-4" d="M697.74,363.87v-28.12h-37.52v28.12h-5.06v-59.16h5.06v26.43h37.52v-26.43h5.15v59.16h-5.15Z"></path>
    <path class="cls-4" d="M717.51,363.87v-59.16h5.06v59.16h-5.06Z"></path>
    <path class="cls-4" d="M779.6,363.87l-37.25-51.09v51.09h-5.06v-59.16h5.15l37.08,50.38v-50.38h5.06v59.16h-4.97Z"></path>
    <path class="cls-4" d="M827.06,303.73c9.76,0,16.85,3.9,22.26,10.11l-3.81,2.75c-4.17-4.97-10.91-8.25-18.45-8.25-13.93,0-24.66,10.55-24.66,25.99s10.73,26.08,24.66,26.08c7.89,0,14.1-3.9,17.38-7.18v-14.19h-22.35v-4.52h27.41v20.67c-5.23,5.85-13.13,9.85-22.44,9.85-16.59,0-29.98-12.42-29.98-30.69s13.39-30.6,29.98-30.6Z"></path>
    <path class="cls-4" d="M877.26,363.87v-54.55h-19.34v-4.61h43.82v4.61h-19.34v54.55h-5.14Z"></path>
    <path class="cls-4" d="M936.16,303.73c17.3,0,28.74,13.3,28.74,30.6s-11.44,30.6-28.74,30.6-28.74-13.3-28.74-30.6,11.35-30.6,28.74-30.6ZM936.16,308.34c-14.37,0-23.42,10.91-23.42,25.99s9.05,25.99,23.42,25.99,23.42-11.09,23.42-25.99-9.22-25.99-23.42-25.99Z"></path>
    <path class="cls-4" d="M1019.71,363.87l-37.25-51.09v51.09h-5.06v-59.16h5.14l37.08,50.38v-50.38h5.06v59.16h-4.97Z"></path>
    <path class="cls-4" d="M1062.38,351.71c3.81,4.43,10.02,8.6,18.45,8.6,12.15,0,15.61-6.74,15.61-11.8,0-8.34-7.89-10.64-16.23-12.86-9.31-2.57-19.25-5.23-19.25-16.14,0-9.67,8.69-15.79,19.43-15.79,8.87,0,15.43,3.1,20.05,8.34l-3.37,3.73c-4.26-5.14-10.29-7.45-16.94-7.45-7.89,0-13.84,4.52-13.84,10.91,0,7.01,7.36,9.05,15.43,11.18,9.58,2.75,20.05,5.77,20.05,17.74,0,7.63-5.06,16.76-21.02,16.76-9.76,0-17.12-3.9-21.64-9.4l3.28-3.81Z"></path>
    <path class="cls-4" d="M1128.72,363.87v-54.55h-19.34v-4.61h43.82v4.61h-19.34v54.55h-5.14Z"></path>
    <path class="cls-4" d="M1200.57,363.87l-5.94-14.55h-31.49l-5.94,14.55h-5.68l24.21-59.16h6.3l24.21,59.16h-5.68ZM1178.84,309.67l-14.1,35.04h28.29l-14.19-35.04Z"></path>
    <path class="cls-4" d="M1223.9,363.87v-54.55h-19.34v-4.61h43.82v4.61h-19.34v54.55h-5.14Z"></path>
    <path class="cls-4" d="M1258.85,363.87v-59.16h37.52v4.61h-32.46v21.91h31.84v4.61h-31.84v23.42h32.46v4.61h-37.52Z"></path>
    <path class="cls-4" d="M1331.85,304.7h5.14v36.37c0,11.97,6.3,19.25,17.92,19.25s17.92-7.27,17.92-19.25v-36.37h5.14v36.46c0,14.64-7.81,23.77-23.06,23.77s-23.06-9.22-23.06-23.77v-36.46Z"></path>
    <path class="cls-4" d="M1435,363.87l-37.25-51.09v51.09h-5.06v-59.16h5.14l37.08,50.38v-50.38h5.06v59.16h-4.97Z"></path>
    <path class="cls-4" d="M1454.69,363.87v-59.16h5.06v59.16h-5.06Z"></path>
    <path class="cls-4" d="M1492.66,363.87l-24.22-59.16h5.85l21.46,53.49,21.55-53.49h5.85l-24.21,59.16h-6.3Z"></path>
    <path class="cls-4" d="M1531.86,363.87v-59.16h37.52v4.61h-32.46v21.91h31.84v4.61h-31.84v23.42h32.46v4.61h-37.52Z"></path>
    <path class="cls-4" d="M1616.57,363.87l-16.59-24.48h-13.04v24.48h-5.06v-59.16h22.09c10.2,0,18.01,6.47,18.01,17.3s-7.63,16.68-16.41,17.03l17.12,24.84h-6.12ZM1603.53,309.32h-16.59v25.46h16.59c7.81,0,13.13-5.32,13.13-12.77s-5.32-12.68-13.13-12.68Z"></path>
    <path class="cls-4" d="M1634.58,351.71c3.81,4.43,10.02,8.6,18.45,8.6,12.15,0,15.61-6.74,15.61-11.8,0-8.34-7.89-10.64-16.23-12.86-9.31-2.57-19.25-5.23-19.25-16.14,0-9.67,8.69-15.79,19.43-15.79,8.87,0,15.43,3.1,20.05,8.34l-3.37,3.73c-4.26-5.14-10.29-7.45-16.94-7.45-7.89,0-13.84,4.52-13.84,10.91,0,7.01,7.36,9.05,15.43,11.18,9.58,2.75,20.05,5.77,20.05,17.74,0,7.63-5.06,16.76-21.02,16.76-9.76,0-17.12-3.9-21.64-9.4l3.28-3.81Z"></path>
    <path class="cls-4" d="M1686.11,363.87v-59.16h5.06v59.16h-5.06Z"></path>
    <path class="cls-4" d="M1720.97,363.87v-54.55h-19.34v-4.61h43.82v4.61h-19.34v54.55h-5.14Z"></path>
    <path class="cls-4" d="M1773.39,363.87v-25.28l-23.51-33.88h6.12l19.96,29.09,19.96-29.09h6.12l-23.5,33.88v25.28h-5.14Z"></path>
  </g>
  <rect class="cls-5" y="458.24" width="1920" height="21.76"></rect>
</svg>
