<svg id="Layer_1" data-name="Layer 1" xmlns="http://www.w3.org/2000/svg" viewBox="0 0 359.35 78.79"><defs><style>.cls-1{fill:#a60f2d;}.cls-2{fill:#4d4d4d;}</style></defs><path class="cls-1" d="M73.11,130s4-1.72,6.22-8.36a16.46,16.46,0,0,1,1.43,8.21c-1.78.4-7.65.15-7.65.15" transform="translate(-24.64 -51.3)"/><path class="cls-1" d="M94.69,92s2.45,13.35-6.23,13.81c-8.37.44-12.32-12.16-12.32-12.16s2,24.62,13.77,23C103.13,114.83,94.69,92,94.69,92" transform="translate(-24.64 -51.3)"/><path class="cls-1" d="M30.92,126.83h0c9.79-2.23,17.29-13.66,19.49-18.24l1.4-2.91.84,3.11a34.32,34.32,0,0,1,1,8.13c0,.5,0,1,0,1.54,3.38.12,5.79-.56,7.29-2.12,2.15-2.22,2.79-6.44,2-12.88-.39-3.08-1.53-8-2.54-12.31-.52-2.21-1-4.3-1.3-5.78-1.89-9.46.46-15.34,2.75-18.6A16.72,16.72,0,0,1,63,65.31,45.48,45.48,0,0,0,44.63,77l4.12,4.78,1.69-1.58a27.45,27.45,0,0,1,.45,11.41,47.81,47.81,0,0,0-4.73-6l1.12-1.88-3.72-4.32-.43-.48a40.78,40.78,0,0,0-6.05,11.41l3.24,3L42.21,95l.63-1.82a14.34,14.34,0,0,1,.31,12.62,22.91,22.91,0,0,0-2.87-5.5l.91-3L36.36,93c-5,15.67-11.72,20.74-11.72,20.74A104.47,104.47,0,0,0,35.93,111a33,33,0,0,1-5,15.79" transform="translate(-24.64 -51.3)"/><path class="cls-1" d="M104.11,70.3l-11.58.49a12.41,12.41,0,0,1-.62,4c1.08,4.73.33,7.3.33,7.3-1.94-4.51-3.41-5.77-3.41-5.77-10.64-4.72-16.62,6-16,12.86.52,5.66,2.58,13.18,4.18,25,1.35,9.93-3.67,14.22-9.45,15.2l-.38.07h-.09a19.29,19.29,0,0,1-3,.14h-.46c-.45,0-.89-.08-1.33-.13-4.5-.62-14.57-2.45-25-2.7,6.12-3.58,10.9-9.76,13.58-14.15a35.67,35.67,0,0,1,.27,4.33,24.56,24.56,0,0,1-.11,2.54l-.1,1.2,1.2.1c4.79.42,8.18-.5,10.4-2.78,2.72-2.83,3.55-7.54,2.63-14.85-.39-3.2-1.56-8.17-2.58-12.55-.5-2.19-1-4.27-1.28-5.71-1.72-8.63.34-13.87,2.37-16.75a12.4,12.4,0,0,1,6.18-4.69l.12,0L74,51.3h1.24L72.59,63c.61-.11,1.23-.2,1.87-.3l3.41-10.75H79.1L76.86,62.32c3.54-.45,7.37-.81,11.62-1.12a5.06,5.06,0,0,1,2.09,2.18L101.72,60l.41,1.21L91.47,65.29a6.8,6.8,0,0,1,.24.68l11.65-1.45.19,1.25L92.25,68c0,.22.07.43.11.64l11.76.38ZM70.55,75.51a16.53,16.53,0,0,1,10-2.61c1,.07,1.75-.18.73-.72-2.79-1.47-9.3-1-11.6.6a7.37,7.37,0,0,0-3,7.09,13.63,13.63,0,0,1,3.8-4.36" transform="translate(-24.64 -51.3)"/><rect class="cls-2" x="92.55" y="15.76" width="1.72" height="60.79"/><path class="cls-2" d="M142.39,115l-7.74-20h4.86l5.55,15.39L150.58,95h4.86l-7.71,20Z" transform="translate(-24.64 -51.3)"/><path class="cls-2" d="M171.19,115,170,111.59h-8.58L160.12,115h-4.86L163,95h5.34l7.71,20Zm-5.52-15.75-3.12,8.61h6.24Z" transform="translate(-24.64 -51.3)"/><path class="cls-2" d="M193.21,115l-9.54-13v13h-4.26V95h4.38l9.27,12.57V95h4.26v20Z" transform="translate(-24.64 -51.3)"/><path class="cls-2" d="M201.82,105c0-6.15,4.65-10.35,10.65-10.35a9.16,9.16,0,0,1,8.37,4.89l-3.66,1.8a5.42,5.42,0,0,0-4.71-2.91,6.58,6.58,0,0,0,0,13.14,5.37,5.37,0,0,0,4.71-2.91l3.66,1.77a9.22,9.22,0,0,1-8.37,4.92C206.47,115.34,201.82,111.14,201.82,105Z" transform="translate(-24.64 -51.3)"/><path class="cls-2" d="M223.93,105a10.46,10.46,0,1,1,10.44,10.35A10,10,0,0,1,223.93,105Zm16.53,0c0-3.75-2.4-6.57-6.09-6.57s-6.06,2.82-6.06,6.57,2.37,6.57,6.06,6.57S240.46,108.71,240.46,105Z" transform="translate(-24.64 -51.3)"/><path class="cls-2" d="M249.34,107V95h4.32v11.88a4.34,4.34,0,0,0,4.71,4.71c3.09,0,4.68-1.92,4.68-4.71V95h4.35v12c0,5-2.94,8.37-9,8.37S249.34,111.92,249.34,107Z" transform="translate(-24.64 -51.3)"/><path class="cls-2" d="M278.44,115,270.7,95h4.86l5.55,15.39L286.63,95h4.86l-7.71,20Z" transform="translate(-24.64 -51.3)"/><path class="cls-2" d="M294.85,115V95H309v3.75h-9.9V103h9.69v3.75h-9.69v4.53H309V115Z" transform="translate(-24.64 -51.3)"/><path class="cls-2" d="M325.15,115l-3.93-7.11H318.1V115h-4.26V95h9.36c4.17,0,6.72,2.73,6.72,6.45a5.74,5.74,0,0,1-4.38,5.94L330,115Zm.42-13.56a2.72,2.72,0,0,0-3-2.7H318.1v5.4h4.47A2.72,2.72,0,0,0,325.57,101.42Z" transform="translate(-24.64 -51.3)"/><path class="cls-2" d="M141.62,86.41l-1.56-5.9-1.55,5.9H137l-2.3-8h1.58l1.55,6.17,1.66-6.17h1.12l1.65,6.17,1.55-6.17h1.57l-2.28,8Z" transform="translate(-24.64 -51.3)"/><path class="cls-2" d="M153.8,86.41l-.59-1.53h-3.67L149,86.41h-1.6l3.14-8h1.75l3.15,8Zm-2.42-6.58-1.44,3.81h2.88Z" transform="translate(-24.64 -51.3)"/><path class="cls-2" d="M158,85.29l.78-1.08a3.48,3.48,0,0,0,2.53,1.1c1.15,0,1.61-.56,1.61-1.09,0-1.68-4.67-.64-4.67-3.59,0-1.32,1.17-2.34,2.92-2.34a4.19,4.19,0,0,1,3,1.12l-.81,1a3.25,3.25,0,0,0-2.31-.91c-.83,0-1.36.4-1.36,1,0,1.48,4.65.56,4.65,3.55,0,1.33-.93,2.47-3.09,2.47A4.31,4.31,0,0,1,158,85.29Z" transform="translate(-24.64 -51.3)"/><path class="cls-2" d="M173.65,86.41V82.92h-4.16v3.49h-1.41v-8h1.41v3.28h4.16V78.41h1.4v8Z" transform="translate(-24.64 -51.3)"/><path class="cls-2" d="M179.16,86.41v-8h1.4v8Z" transform="translate(-24.64 -51.3)"/><path class="cls-2" d="M190.24,86.41l-4.17-5.71v5.71h-1.4v-8h1.44L190.2,84V78.41h1.4v8Z" transform="translate(-24.64 -51.3)"/><path class="cls-2" d="M195.35,82.42a4,4,0,0,1,4.2-4.14A3.77,3.77,0,0,1,202.77,80l-1.15.65a2.54,2.54,0,0,0-2.07-1.07,2.9,2.9,0,0,0,0,5.79,2.91,2.91,0,0,0,1.89-.72V83.36h-2.39V82.12h3.79v3a4.34,4.34,0,0,1-3.29,1.45A4,4,0,0,1,195.35,82.42Z" transform="translate(-24.64 -51.3)"/><path class="cls-2" d="M208.56,86.41V79.65h-2.42V78.41h6.24v1.24H210v6.76Z" transform="translate(-24.64 -51.3)"/><path class="cls-2" d="M215.32,82.42a4.09,4.09,0,1,1,4.09,4.14A4,4,0,0,1,215.32,82.42Zm6.74,0a2.66,2.66,0,1,0-2.65,2.89A2.66,2.66,0,0,0,222.06,82.42Z" transform="translate(-24.64 -51.3)"/><path class="cls-2" d="M232.83,86.41l-4.17-5.71v5.71h-1.4v-8h1.43L232.78,84V78.41h1.41v8Z" transform="translate(-24.64 -51.3)"/><path class="cls-2" d="M243.26,85.29l.78-1.08a3.5,3.5,0,0,0,2.53,1.1c1.16,0,1.61-.56,1.61-1.09,0-1.68-4.66-.64-4.66-3.59,0-1.32,1.16-2.34,2.91-2.34a4.16,4.16,0,0,1,3,1.12l-.81,1a3.25,3.25,0,0,0-2.31-.91c-.83,0-1.35.4-1.35,1,0,1.48,4.65.56,4.65,3.55,0,1.33-.94,2.47-3.1,2.47A4.31,4.31,0,0,1,243.26,85.29Z" transform="translate(-24.64 -51.3)"/><path class="cls-2" d="M255.09,86.41V79.65h-2.42V78.41h6.25v1.24H256.5v6.76Z" transform="translate(-24.64 -51.3)"/><path class="cls-2" d="M267.33,86.41l-.58-1.53h-3.67l-.59,1.53h-1.6l3.14-8h1.76l3.14,8Zm-2.42-6.58-1.44,3.81h2.88Z" transform="translate(-24.64 -51.3)"/><path class="cls-2" d="M273.33,86.41V79.65h-2.42V78.41h6.25v1.24h-2.42v6.76Z" transform="translate(-24.64 -51.3)"/><path class="cls-2" d="M280.75,86.41v-8h5.48v1.24h-4.08v2.07h4V83h-4v2.22h4.08v1.23Z" transform="translate(-24.64 -51.3)"/><path class="cls-2" d="M295.56,83.26V78.41H297v4.8a2,2,0,1,0,4.09,0v-4.8h1.42v4.84c0,2-1.14,3.31-3.45,3.31S295.56,85.23,295.56,83.26Z" transform="translate(-24.64 -51.3)"/><path class="cls-2" d="M312.16,86.41,308,80.7v5.71h-1.4v-8H308L312.12,84V78.41h1.4v8Z" transform="translate(-24.64 -51.3)"/><path class="cls-2" d="M317.63,86.41v-8H319v8Z" transform="translate(-24.64 -51.3)"/><path class="cls-2" d="M325.44,86.41l-3.14-8h1.59l2.42,6.48,2.43-6.48h1.59l-3.14,8Z" transform="translate(-24.64 -51.3)"/><path class="cls-2" d="M333.61,86.41v-8h5.48v1.24H335v2.07h4V83h-4v2.22h4.08v1.23Z" transform="translate(-24.64 -51.3)"/><path class="cls-2" d="M347.5,86.41l-1.77-3h-1.39v3h-1.4v-8h3.51a2.43,2.43,0,0,1,2.61,2.51,2.23,2.23,0,0,1-1.89,2.35l1.95,3.14Zm.12-5.49a1.25,1.25,0,0,0-1.36-1.27h-1.92v2.54h1.92A1.25,1.25,0,0,0,347.62,80.92Z" transform="translate(-24.64 -51.3)"/><path class="cls-2" d="M352.35,85.29l.78-1.08a3.51,3.51,0,0,0,2.54,1.1c1.15,0,1.6-.56,1.6-1.09,0-1.68-4.66-.64-4.66-3.59,0-1.32,1.16-2.34,2.91-2.34a4.16,4.16,0,0,1,3,1.12l-.8,1a3.29,3.29,0,0,0-2.32-.91c-.83,0-1.35.4-1.35,1,0,1.48,4.65.56,4.65,3.55,0,1.33-.94,2.47-3.1,2.47A4.31,4.31,0,0,1,352.35,85.29Z" transform="translate(-24.64 -51.3)"/><path class="cls-2" d="M362.4,86.41v-8h1.4v8Z" transform="translate(-24.64 -51.3)"/><path class="cls-2" d="M369.81,86.41V79.65h-2.42V78.41h6.25v1.24h-2.42v6.76Z" transform="translate(-24.64 -51.3)"/><path class="cls-2" d="M379.5,86.41V83.09l-3.11-4.68H378l2.2,3.43,2.19-3.43H384l-3.09,4.68v3.32Z" transform="translate(-24.64 -51.3)"/></svg>