<?xml version="1.0" encoding="UTF-8"?>
<svg xmlns="http://www.w3.org/2000/svg" width="462" height="437" viewBox="0 0 462 437" fill="none">
  <g opacity="0.03">
    <path d="M279.97 464.123C279.97 464.123 303.18 453.5 315.91 412.362C327.114 437.43 324.19 463.204 324.19 463.204C313.912 465.674 279.97 464.123 279.97 464.123ZM404.675 228.853C404.675 228.853 418.834 311.542 368.678 314.36C320.281 317.067 297.491 239.077 297.491 239.077C297.491 239.077 309.19 391.478 377.036 381.435C453.418 370.152 404.679 228.853 404.679 228.853H404.675ZM36.2305 444.451C36.2651 444.432 36.3085 444.432 36.3085 444.432C92.8639 430.628 136.213 359.895 148.917 331.503L157.006 313.525L161.872 332.775C162.11 333.815 167.383 355.052 167.383 383.074C167.383 386.184 167.309 389.365 167.153 392.592C186.664 393.381 200.589 389.142 209.259 379.498C221.694 365.736 225.42 339.651 220.801 299.777C218.509 280.703 211.937 250.36 206.1 223.565C203.111 209.868 200.299 196.913 198.592 187.753C187.691 129.18 201.23 92.8015 214.493 72.618C216.587 69.4696 218.856 66.4586 221.287 63.6011C182.123 77.6929 149.307 99.6407 115.438 135.894L139.259 165.494L148.999 155.72C158.228 192.493 151.599 226.351 151.599 226.351C139.064 205.898 124.285 189.313 124.285 189.313L130.741 177.668L109.272 150.938L106.789 147.947C80.3942 186.796 71.8544 218.573 71.8544 218.573L90.5719 236.951L101.473 247.532L105.143 236.264C125.29 276.649 106.889 314.393 106.889 314.393C103.592 300.635 90.3206 280.285 90.3206 280.285L95.5632 261.768L67.6863 234.745C38.7088 331.749 0 363.183 0 363.183C0 363.183 41.8717 355.094 65.2079 346.7C65.2079 346.7 64.5667 397.829 36.2305 444.451Z" fill="black"></path>
    <path d="M261.392 143.778C275.354 134.069 299.11 126.604 321.405 128.298C327.044 128.711 331.818 127.244 325.74 124.057C309.065 115.343 270.204 118.304 256.452 127.6C234.444 142.489 238.173 169.017 238.676 169.657C243.068 162.055 250.513 151.323 261.387 143.783L261.392 143.778ZM461.965 112.915L392.741 115.819C392.777 123.897 391.697 132.095 389.048 139.839C395.507 167.866 391.015 183.066 391.015 183.066C379.433 156.338 370.625 148.918 370.625 148.918C307.039 120.913 271.32 184.244 275.152 225.101C278.268 258.676 290.563 303.236 300.137 373.155C308.205 431.987 278.165 457.417 243.615 463.254C242.853 463.357 242.095 463.487 241.342 463.645C241.145 463.645 240.984 463.645 240.805 463.69C234.889 464.425 228.925 464.718 222.965 464.565C222.763 464.503 222.503 464.503 222.302 464.503C221.598 464.503 220.935 464.405 220.24 464.405C217.55 464.245 214.897 463.961 212.27 463.65C185.381 459.964 125.184 449.121 63.001 447.627C99.581 426.451 128.196 389.769 144.166 363.797C145.094 370.999 145.834 379.784 145.834 389.449C145.834 394.268 145.672 399.341 145.17 404.52L144.57 411.607L151.732 412.198C180.347 414.666 200.634 409.255 213.897 395.704C230.11 378.944 235.103 351.024 229.608 307.713C227.237 288.729 220.271 259.271 214.198 233.299C211.168 220.304 208.295 207.967 206.551 199.449C196.26 148.277 208.559 117.21 220.697 100.174C230.146 86.8408 243.252 77.0511 257.618 72.3519C257.855 72.3119 258.097 72.2497 258.357 72.2141L281.997 0.2854H289.42L273.552 69.4088C277.223 68.773 280.957 68.1906 284.727 67.6171L305.13 3.89095H312.481L299.11 65.6032C320.244 62.9179 343.158 60.8284 368.559 58.9789C372.669 60.6105 377.129 65.3275 381.038 71.894L447.658 51.5767L450.123 58.6988L386.439 83.1952C386.941 84.4934 387.443 85.8449 387.842 87.2187L457.47 78.6383L458.635 86.045L391.073 99.418C391.316 100.672 391.517 101.925 391.737 103.184L462.001 105.429L461.965 112.915Z" fill="black"></path>
    <path d="M261.392 143.778C275.354 134.069 299.11 126.604 321.405 128.298C327.044 128.711 331.818 127.244 325.74 124.057C309.065 115.343 270.204 118.304 256.452 127.6C234.444 142.489 238.173 169.017 238.676 169.657C243.068 162.055 250.513 151.323 261.387 143.783L261.392 143.778ZM461.965 112.915L392.741 115.819C392.777 123.897 391.697 132.095 389.048 139.839C395.507 167.866 391.015 183.066 391.015 183.066C379.433 156.338 370.625 148.918 370.625 148.918C307.039 120.913 271.32 184.244 275.152 225.101C278.268 258.676 290.563 303.236 300.137 373.155C308.205 431.987 278.165 457.417 243.615 463.254C242.853 463.357 242.095 463.487 241.342 463.645C241.145 463.645 240.984 463.645 240.805 463.69C234.889 464.425 228.925 464.718 222.965 464.565C222.763 464.503 222.503 464.503 222.302 464.503C221.598 464.503 220.935 464.405 220.24 464.405C217.55 464.245 214.897 463.961 212.27 463.65C185.381 459.964 125.184 449.121 63.001 447.627C99.581 426.451 128.196 389.769 144.166 363.797C145.094 370.999 145.834 379.784 145.834 389.449C145.834 394.268 145.672 399.341 145.17 404.52L144.57 411.607L151.732 412.198C180.347 414.666 200.634 409.255 213.897 395.704C230.11 378.944 235.103 351.024 229.608 307.713C227.237 288.729 220.271 259.271 214.198 233.299C211.168 220.304 208.295 207.967 206.551 199.449C196.26 148.277 208.559 117.21 220.697 100.174C230.146 86.8408 243.252 77.0511 257.618 72.3519C257.855 72.3119 258.097 72.2497 258.357 72.2141L281.997 0.2854H289.42L273.552 69.4088C277.223 68.773 280.957 68.1906 284.727 67.6171L305.13 3.89095H312.481L299.11 65.6032C320.244 62.9179 343.158 60.8284 368.559 58.9789C372.669 60.6105 377.129 65.3275 381.038 71.894L447.658 51.5767L450.123 58.6988L386.439 83.1952C386.941 84.4934 387.443 85.8449 387.842 87.2187L457.47 78.6383L458.635 86.045L391.073 99.418C391.316 100.672 391.517 101.925 391.737 103.184L462.001 105.429L461.965 112.915Z" fill="black"></path>
  </g>
</svg>
