<?xml version="1.0" encoding="utf-8"?>
<!-- Generator: Adobe Illustrator 25.3.1, SVG Export Plug-In . SVG Version: 6.00 Build 0)  -->
<svg version="1.1" id="Layer_1" xmlns="http://www.w3.org/2000/svg" xmlns:xlink="http://www.w3.org/1999/xlink" x="0px" y="0px"
	 viewBox="0 0 506 94.1" style="enable-background:new 0 0 506 94.1;" xml:space="preserve">
<style type="text/css">
	.st0{fill:#FFFFFF;}
</style>
<g>
	<g>
		<g>
			<path class="st0" d="M101.2,83c0,0,4-1.7,6.2-8.4c1.9,4,1.4,8.2,1.4,8.2C107.1,83.3,101.2,83,101.2,83"/>
		</g>
		<g>
			<path class="st0" d="M122.8,45c0,0,2.5,13.4-6.2,13.8c-8.4,0.4-12.3-12.2-12.3-12.2s2,24.6,13.8,23C131.2,67.8,122.8,45,122.8,45
				"/>
		</g>
		<g>
			<path class="st0" d="M59,79.8C59,79.8,59,79.8,59,79.8c9.8-2.2,17.3-13.7,19.5-18.2l1.4-2.9l0.8,3.1c0,0.2,1,3.6,1,8.1
				c0,0.5,0,1,0,1.5c3.4,0.1,5.8-0.6,7.3-2.1c2.2-2.2,2.8-6.4,2-12.9c-0.4-3.1-1.5-8-2.5-12.3c-0.5-2.2-1-4.3-1.3-5.8
				c-1.9-9.5,0.5-15.3,2.8-18.6c0.4-0.5,0.8-1,1.2-1.5c-6.8,2.3-12.5,5.8-18.3,11.7l4.1,4.8l1.7-1.6c1.6,5.9,0.4,11.4,0.4,11.4
				c-2.2-3.3-4.7-6-4.7-6l1.1-1.9l-3.7-4.3l-0.4-0.5c-4.6,6.3-6,11.4-6,11.4l3.2,3l1.9,1.7l0.6-1.8c3.5,6.5,0.3,12.6,0.3,12.6
				c-0.6-2.2-2.9-5.5-2.9-5.5l0.9-3L64.4,46c-5,15.7-11.7,20.7-11.7,20.7S60,65.4,64,64C64,64,63.9,72.3,59,79.8"/>
		</g>
		<g>
			<path class="st0" d="M132.2,23.3l-11.6,0.5c0,1.4-0.2,2.7-0.6,4.1c1.1,4.7,0.3,7.3,0.3,7.3c-1.9-4.5-3.4-5.8-3.4-5.8
				c-10.6-4.7-16.6,6-16,12.9c0.5,5.7,2.6,13.2,4.2,25c1.3,9.9-3.7,14.2-9.5,15.2c-0.1,0-0.3,0-0.4,0.1c0,0-0.1,0-0.1,0
				c-0.9,0.1-1.9,0.2-3,0.1c0,0-0.1,0-0.1,0c-0.1,0-0.2,0-0.3,0c-0.4,0-0.9-0.1-1.3-0.1c-4.5-0.6-14.6-2.5-25-2.7
				C71.6,76.2,76.3,70,79,65.6c0.2,1.2,0.3,2.7,0.3,4.3c0,0.8,0,1.7-0.1,2.5l-0.1,1.2l1.2,0.1c4.8,0.4,8.2-0.5,10.4-2.8
				c2.7-2.8,3.5-7.5,2.6-14.8c-0.4-3.2-1.6-8.2-2.6-12.6c-0.5-2.2-1-4.3-1.3-5.7c-1.7-8.6,0.3-13.9,2.4-16.7
				c1.6-2.2,3.8-3.9,6.2-4.7c0,0,0.1,0,0.1,0l4-12.1h1.2L100.7,16c0.6-0.1,1.2-0.2,1.9-0.3l3.4-10.8h1.2l-2.2,10.4
				c3.5-0.5,7.4-0.8,11.6-1.1c0.7,0.3,1.4,1.1,2.1,2.2l11.1-3.4l0.4,1.2l-10.7,4.1c0.1,0.2,0.2,0.4,0.2,0.7l11.7-1.4l0.2,1.2
				L120.3,21c0,0.2,0.1,0.4,0.1,0.6l11.8,0.4L132.2,23.3z M98.6,28.5c2.3-1.6,6.3-2.9,10-2.6c0.9,0.1,1.7-0.2,0.7-0.7
				c-2.8-1.5-9.3-1-11.6,0.6c-3.7,2.5-3.1,7-3,7.1C95.6,31.6,96.8,29.8,98.6,28.5"/>
		</g>
	</g>
	<g>
		<g>
			<path class="st0" d="M174.8,66.1c0,2-1.1,3.3-3.2,3.3c-2.1,0-3.2-1.3-3.2-3.3v-7.4h-2.2v7.5c0,3,1.8,5.1,5.4,5.1
				c3.6,0,5.4-2,5.4-5.1v-7.5h-2.2V66.1z"/>
		</g>
		<g>
			<polygon class="st0" points="200.4,67.3 194,58.7 191.8,58.7 191.8,71.1 194,71.1 194,62.3 200.5,71.1 202.6,71.1 202.6,58.7 
				200.4,58.7 			"/>
		</g>
		<g>
			<rect x="219.9" y="58.7" class="st0" width="2.2" height="12.4"/>
		</g>
		<g>
			<polygon class="st0" points="244.9,68.8 241.1,58.7 238.7,58.7 243.5,71.1 246.2,71.1 251.1,58.7 248.6,58.7 			"/>
		</g>
		<g>
			<polygon class="st0" points="266.2,71.1 274.7,71.1 274.7,69.2 268.3,69.2 268.3,65.8 273.7,65.8 273.7,63.8 268.3,63.8 
				268.3,60.6 274.7,60.6 274.7,58.7 266.2,58.7 			"/>
		</g>
		<g>
			<path class="st0" d="M319.2,62c0-0.9,0.8-1.5,2.1-1.5c1.3,0,2.6,0.4,3.6,1.4l1.2-1.6c-1.2-1.1-2.7-1.7-4.6-1.7
				c-2.7,0-4.5,1.6-4.5,3.6c0,4.6,7.2,3,7.2,5.6c0,0.8-0.7,1.7-2.5,1.7c-1.7,0-3.1-0.8-3.9-1.7l-1.2,1.7c1.1,1.2,2.7,2,5,2
				c3.3,0,4.8-1.8,4.8-3.8C326.4,62.9,319.2,64.3,319.2,62z"/>
		</g>
		<g>
			<rect x="344.2" y="58.7" class="st0" width="2.2" height="12.4"/>
		</g>
		<g>
			<polygon class="st0" points="364.3,60.6 368.1,60.6 368.1,71.1 370.3,71.1 370.3,60.6 374,60.6 374,58.7 364.3,58.7 			"/>
		</g>
		<g>
			<polygon class="st0" points="393.9,64 390.5,58.7 388,58.7 392.8,66 392.8,71.1 395,71.1 395,66 399.8,58.7 397.3,58.7 			"/>
		</g>
		<g>
			<path class="st0" d="M301.8,71.1l-3.1-5c1.3-0.4,2.6-1.5,2.6-3.5c0-2.3-1.6-3.9-4-3.9h-5.4v12.4h2.2v-4.6h2.6l2.7,4.6H301.8z
				 M294,64.6v-3.9h3c1.2,0,2.1,0.8,2.1,2c0,1.2-0.9,2-2.1,2H294z"/>
		</g>
		<g>
			<path class="st0" d="M212,35.3c0-1.2,1-2,2.9-2c2.1,0,4.3,0.7,5.9,2.2l2.4-3.2c-2-1.9-4.7-2.8-7.9-2.8c-4.8,0-7.7,2.8-7.7,6.2
				c0,7.6,11.7,5.2,11.7,8.8c0,1.2-1.2,2.2-3.5,2.2c-2.8,0-5-1.2-6.4-2.7l-2.3,3.3c1.9,1.9,4.7,3.2,8.6,3.2c5.5,0,8.1-2.8,8.1-6.5
				C223.6,36.4,212,38.5,212,35.3z"/>
		</g>
		<g>
			<polygon class="st0" points="240.3,37.8 230.7,37.8 230.7,29.8 226.4,29.8 226.4,50.1 230.7,50.1 230.7,41.6 240.3,41.6 
				240.3,50.1 244.6,50.1 244.6,29.8 240.3,29.8 			"/>
		</g>
		<g>
			<rect x="248.5" y="29.8" class="st0" width="4.3" height="20.3"/>
		</g>
		<g>
			<polygon class="st0" points="270.9,42.5 261.5,29.8 257.1,29.8 257.1,50.1 261.4,50.1 261.4,36.8 271,50.1 275.2,50.1 
				275.2,29.8 270.9,29.8 			"/>
		</g>
		<g>
			<polygon class="st0" points="299.1,33.6 305,33.6 305,50.1 309.3,50.1 309.3,33.6 315.2,33.6 315.2,29.8 299.1,29.8 			"/>
		</g>
		<g>
			<path class="st0" d="M325.6,29.5c-6.1,0-10.6,4.4-10.6,10.5c0,6.1,4.5,10.5,10.6,10.5c6.1,0,10.6-4.4,10.6-10.5
				C336.2,33.8,331.8,29.5,325.6,29.5z M325.6,46.6c-3.7,0-6.1-2.9-6.1-6.7c0-3.8,2.4-6.7,6.1-6.7c3.7,0,6.2,2.9,6.2,6.7
				C331.8,43.7,329.4,46.6,325.6,46.6z"/>
		</g>
		<g>
			<polygon class="st0" points="356.7,50.1 356.7,29.8 352.4,29.8 352.4,42.5 343,29.8 338.6,29.8 338.6,50.1 342.9,50.1 
				342.9,36.8 352.6,50.1 			"/>
		</g>
		<g>
			<path class="st0" d="M376.9,35.3c0-1.2,1-2,2.9-2c2.1,0,4.3,0.7,5.9,2.2l2.4-3.2c-2-1.9-4.7-2.8-7.9-2.8c-4.8,0-7.7,2.8-7.7,6.2
				c0,7.6,11.7,5.2,11.7,8.8c0,1.2-1.2,2.2-3.5,2.2c-2.8,0-5-1.2-6.4-2.7l-2.3,3.3c1.9,1.9,4.7,3.2,8.6,3.2c5.5,0,8.1-2.8,8.1-6.5
				C388.6,36.4,376.9,38.5,376.9,35.3z"/>
		</g>
		<g>
			<polygon class="st0" points="405.6,29.8 389.5,29.8 389.5,33.6 395.4,33.6 395.4,50.1 399.7,50.1 399.7,33.6 405.6,33.6 			"/>
		</g>
		<g>
			<polygon class="st0" points="430.6,50.1 430.6,33.6 436.5,33.6 436.5,29.8 420.3,29.8 420.3,33.6 426.3,33.6 426.3,50.1 			"/>
		</g>
		<g>
			<polygon class="st0" points="452.7,33.6 452.7,29.8 438.4,29.8 438.4,50.1 452.7,50.1 452.7,46.3 442.7,46.3 442.7,41.7 
				451.7,41.7 451.7,37.9 442.7,37.9 442.7,33.6 			"/>
		</g>
		<g>
			<path class="st0" d="M199.4,29.8h-5.2L187,50.1h4.9l1.4-4.2h7l1.4,4.2h4.9L199.4,29.8z M194.5,41.8l2.3-6.9l2.3,6.9H194.5z"/>
		</g>
		<g>
			<path class="st0" d="M415.6,29.8h-5.2l-7.2,20.3h4.9l1.4-4.2h7l1.4,4.2h4.9L415.6,29.8z M410.7,41.8l2.3-6.9l2.3,6.9H410.7z"/>
		</g>
		<g>
			<path class="st0" d="M299.1,38h-10.1v3.8h5.7c-0.7,2.8-2.9,4.8-6,4.8c-3.7,0-6.1-2.9-6.1-6.7c0-3.8,2.4-6.7,6.1-6.7
				c2.2,0,4,1,5,2.6l3.8-2c-1.9-2.7-5-4.4-8.8-4.4c-6.1,0-10.6,4.4-10.6,10.5c0,6.1,4.5,10.5,10.6,10.5c5.5,0,9.6-3.5,10.5-8.6
				c0.1-0.6,0.2-1.2,0.2-1.8C299.2,39.3,299.2,38.6,299.1,38z"/>
		</g>
		<g>
			<polygon class="st0" points="185.3,29.8 180.6,43.1 176.3,29.8 172.6,29.8 168.4,43.1 163.7,30 163.7,29.8 159.1,29.8 
				166.3,50.1 170.7,50.1 174.5,38.4 178.2,50.1 182.6,50.1 189.9,29.8 			"/>
		</g>
		<g>
			<rect x="145.3" y="20.1" class="st0" width="1.7" height="60.8"/>
		</g>
	</g>
</g>
</svg>
