<?xml version="1.0" encoding="UTF-8"?><svg id="a" xmlns="http://www.w3.org/2000/svg" viewBox="0 0 600 242.59"><g><g><g><path d="M87.69,117.42c-1.09,5.62-2.81,10.68-5.17,15.21-2.36,4.52-5.34,8.4-8.93,11.64-3.6,3.23-7.76,5.73-12.48,7.49-4.73,1.76-9.95,2.65-15.66,2.65-6.4,0-12.39-1.08-17.95-3.25-5.57-2.16-10.38-5.41-14.43-9.74-4.06-4.33-7.25-9.66-9.57-16.01-2.34-6.34-3.5-13.74-3.5-22.2,0-8.26,1.06-15.71,3.19-22.36,2.12-6.64,5.17-12.25,9.12-16.82,3.95-4.57,8.77-8.09,14.44-10.55,5.67-2.46,11.99-3.69,18.99-3.69,6.1,0,11.64,.92,16.62,2.74,4.97,1.83,9.26,4.35,12.85,7.56,3.59,3.21,6.45,6.99,8.57,11.32s3.42,8.96,3.92,13.89h-20.55c-1.38-5.61-4.04-9.97-7.98-13.07s-8.37-4.65-13.29-4.65c-8.57,0-14.87,3.08-18.91,9.22-4.04,6.15-6.05,14.58-6.05,25.3,0,10.92,1.99,19.4,5.98,25.45,3.99,6.05,9.97,9.07,17.95,9.07,6.1,0,11-1.65,14.69-4.95s6.23-8.05,7.6-14.25h20.55Z"/><path d="M198.19,151.06V52.94h20.5v80.34h48.6v17.78h-69.1Z"/><path d="M271.41,151.06V52.94h20.5v80.34h48.6v17.78h-69.1Z"/><path d="M347.58,151.06V53.15h72.02v16.95h-52.14v20.92h48v17.37h-48v25.31h54.51v17.36h-74.39Z"/><path d="M498.53,151.06l-.45-9.86c-2.36,4.16-6.15,7.4-11.36,9.72s-11.21,3.49-17.99,3.49c-6.79,0-12.91-1.45-18.37-4.35-5.46-2.9-10.13-6.79-14.01-11.66-3.88-4.87-6.86-10.48-8.93-16.82s-3.1-12.91-3.1-19.7c0-7.18,1.03-13.94,3.1-20.29,2.07-6.34,5.11-11.88,9.15-16.6,4.03-4.72,9.05-8.44,15.05-11.14,5.99-2.7,12.98-4.06,20.94-4.06,5.8,0,11.24,.84,16.3,2.51s9.49,3.98,13.28,6.92c3.78,2.95,6.83,6.46,9.14,10.55,2.31,4.09,3.67,8.59,4.06,13.52h-20.66c-.3-2.27-1.09-4.41-2.37-6.43s-2.9-3.77-4.87-5.24c-1.97-1.48-4.26-2.66-6.86-3.54-2.61-.89-5.29-1.33-8.04-1.33-8.27,0-14.88,3.07-19.85,9.21-4.96,6.14-7.45,15.06-7.45,26.75,0,4.03,.52,8.08,1.55,12.16s2.66,7.76,4.87,11.05c2.22,3.29,5.04,5.97,8.48,8.03,3.45,2.06,7.53,3.09,12.25,3.09,3.34,0,6.46-.59,9.37-1.77,2.9-1.18,5.44-2.8,7.6-4.86s3.86-4.44,5.09-7.14,1.85-5.57,1.85-8.62h-21.72v-16.32h40.96v52.72h-17.01v.01Z"/><path d="M525.62,151.06V53.15h72.02v16.95h-52.15v20.92h48.01v17.37h-48.01v25.31h54.51v17.36h-74.38Z"/></g><g><path d="M45.61,239.87v-19.95c0-3.74-.85-6.4-2.56-8-1.71-1.59-4.89-2.39-9.53-2.39H16.32v30.34H.63v-77.42H39.73c3.56,0,6.79,.56,9.68,1.69,2.9,1.13,5.4,2.68,7.49,4.66,2.09,1.98,3.69,4.34,4.81,7.1,1.12,2.75,1.68,5.72,1.68,8.9,0,4.19-.98,7.89-2.92,11.11-1.95,3.22-4.76,5.49-8.43,6.8,3.43,1.09,5.86,2.77,7.3,5.03s2.16,5.65,2.16,10.17v21.97h-15.89v-.01Zm-29.29-64.02v20.5h20.18c4.33,0,7.38-.96,9.16-2.9,1.78-1.93,2.67-4.36,2.67-7.3,0-3.01-.87-5.48-2.61-7.41-1.74-1.93-4.62-2.9-8.64-2.9H16.32v.01Z" fill="#8b0e04"/><path d="M74.41,239.87v-77.42h56.83v13.39h-41.14v16.74h37.88v13.6h-37.88v19.88h43v13.81h-58.69Z" fill="#8b0e04"/><path d="M210.98,213.42c-.86,4.43-2.21,8.43-4.08,12-1.86,3.57-4.21,6.62-7.05,9.17s-6.12,4.52-9.85,5.91c-3.73,1.39-7.84,2.08-12.35,2.08-5.05,0-9.77-.85-14.17-2.56-4.39-1.71-8.19-4.28-11.4-7.7-3.2-3.41-5.72-7.63-7.56-12.64s-2.75-10.86-2.75-17.54c0-6.53,.84-12.41,2.52-17.65,1.68-5.24,4.08-9.68,7.21-13.29,3.12-3.61,6.92-6.39,11.4-8.33,4.47-1.94,9.46-2.92,14.98-2.92,4.82,0,9.19,.72,13.11,2.16s7.3,3.43,10.14,5.96c2.84,2.53,5.09,5.51,6.76,8.93s2.7,7.07,3.09,10.95h-16.2c-1.09-4.42-3.19-7.86-6.29-10.31-3.11-2.45-6.6-3.67-10.49-3.67-6.76,0-11.73,2.43-14.92,7.3-3.18,4.86-4.78,11.53-4.78,20.01,0,8.63,1.57,15.34,4.72,20.13,3.14,4.78,7.86,7.17,14.15,7.17,4.82,0,8.68-1.3,11.6-3.9,2.91-2.6,4.91-6.35,6-11.25h16.21v-.01Z" fill="#8b0e04"/><path d="M265.67,239.87v-19.95c0-3.74-.85-6.4-2.56-8-1.7-1.59-4.88-2.39-9.53-2.39h-17.2v30.34h-15.7v-77.42h39.1c3.56,0,6.79,.56,9.69,1.69s5.39,2.68,7.48,4.66c2.09,1.98,3.69,4.34,4.82,7.1,1.12,2.75,1.68,5.72,1.68,8.9,0,4.19-.98,7.89-2.93,11.11-1.95,3.22-4.76,5.49-8.43,6.8,3.43,1.09,5.87,2.77,7.31,5.03s2.16,5.65,2.16,10.17v21.97h-15.89v-.01Zm-29.29-64.02v20.5h20.18c4.33,0,7.38-.96,9.17-2.9,1.78-1.93,2.67-4.36,2.67-7.3,0-3.01-.88-5.48-2.61-7.41-1.74-1.93-4.62-2.9-8.64-2.9h-20.77v.01Z" fill="#8b0e04"/><path d="M340.28,162.45h16.53v51.67c0,9.41-2.76,16.51-8.27,21.29-5.52,4.78-13.37,7.17-23.54,7.17-9.4,0-16.84-2.26-22.32-6.77-5.48-4.51-8.21-11.43-8.21-20.76v-52.61h16.53v51.11c0,4.82,1.2,8.63,3.6,11.43,2.41,2.8,5.81,4.2,10.23,4.2,10.31,0,15.46-5.01,15.46-15.05v-51.68h-.01Z" fill="#8b0e04"/><path d="M369.17,239.87v-77.42h16.11v77.42h-16.11Z" fill="#8b0e04"/><path d="M418.75,239.87v-64.02h-23.31v-13.39h62.84v13.39h-23.42v64.02h-16.11Z" fill="#8b0e04"/><path d="M468.6,239.87v-77.42h56.82v13.39h-41.13v16.74h37.87v13.6h-37.87v19.88h43v13.81h-58.69Z" fill="#8b0e04"/><path d="M582,239.87v-19.95c0-3.74-.85-6.4-2.55-8-1.71-1.59-4.89-2.39-9.54-2.39h-17.2v30.34h-15.7v-77.42h39.1c3.56,0,6.79,.56,9.69,1.69s5.39,2.68,7.48,4.66c2.09,1.98,3.69,4.34,4.82,7.1,1.12,2.75,1.68,5.72,1.68,8.9,0,4.19-.98,7.89-2.93,11.11s-4.76,5.49-8.43,6.8c3.43,1.09,5.87,2.77,7.31,5.03s2.17,5.65,2.17,10.17v21.97h-15.9v-.01Zm-29.29-64.02v20.5h20.18c4.33,0,7.38-.96,9.17-2.9,1.78-1.93,2.67-4.36,2.67-7.3,0-3.01-.87-5.48-2.61-7.41-1.74-1.93-4.62-2.9-8.64-2.9h-20.77v.01Z" fill="#8b0e04"/></g></g><g><path d="M157.42,58.67c-8.22,0-15.2,3.89-18.1,9.36,.24,0,.47-.03,.71-.03,8.64,0,15.23,2.99,19.75,8.96,4.51,5.98,6.78,14.75,6.78,26.3,0,5.78-.69,10.78-2.06,14.99-1.38,4.21-3.27,7.66-5.68,10.36-2.41,2.69-5.23,4.7-8.47,6.03-3.24,1.32-6.68,1.98-10.32,1.98-8.55,0-15.16-2.67-19.83-8.01s-7-13.79-7-25.35,2.31-20.33,6.93-26.3c4.39-5.68,10.62-8.63,18.66-8.91-2.89-5.49-9.88-9.38-18.11-9.38-4.42,0-8.49,1.13-11.76,3.02v-1.47c-1.32,1.14-2.58,2.35-3.75,3.67-4.04,4.58-7.09,10.16-9.16,16.75-2.07,6.59-3.1,14.02-3.1,22.28,0,16.62,4.06,29.36,12.18,38.21,8.12,8.85,19.77,13.28,34.94,13.28,15.16,0,26.76-4.28,34.78-12.83,8.03-8.56,12.04-21.3,12.04-38.22,0-8.36-1.04-15.86-3.1-22.5-2.07-6.64-5.07-12.27-9.01-16.89-1.67-1.96-3.55-3.67-5.56-5.24v2.96c-3.28-1.89-7.33-3.02-11.76-3.02Z"/><path d="M108.93,33.78v21.22c3.27-1.89,7.34-3.02,11.76-3.02,8.45,0,15.63,4.09,18.37,9.82,2.74-5.72,9.92-9.82,18.37-9.82,4.42,0,8.48,1.13,11.76,3.02v-21.02l-29.57,10.54-.28-.1-30.4-10.84v.2h-.01Z"/></g></g><path d="M139.06,37.82l53.06-18.91L139.06,0l-53.06,18.91,9.77,3.48v11.87c-1.61,1.1-5.71,4.64-3.64,11.22,.69,2.18,2.05,4.69,4.41,7.56,2.16-2.09,3.37-4.33,3.96-6.52,1.36-5.1-.76-9.92-2.77-11.82v-11.61l41.33,14.73Zm0-24.49c2.31,0,4.18,1.12,4.18,2.51,0,1.38-1.87,2.51-4.18,2.51s-4.19-1.12-4.19-2.51c0-1.38,1.87-2.51,4.19-2.51Z"/></svg>