<?xml version="1.0" encoding="UTF-8"?>
<svg xmlns="http://www.w3.org/2000/svg" width="70" height="70" viewBox="0 0 70 70" fill="none">
  <path fill-rule="evenodd" clip-rule="evenodd" d="M51.7557 25.0648C52.7821 26.1407 52.742 27.8449 51.6661 28.8713L31.9113 47.7174C30.8704 48.7104 29.2328 48.7097 28.1928 47.7159L18.3322 38.2928C17.2572 37.2655 17.2186 35.5613 18.2459 34.4863C19.2732 33.4113 20.9774 33.3726 22.0524 34.3999L30.0545 42.0469L47.9493 24.9752C49.0251 23.9489 50.7293 23.989 51.7557 25.0648Z" fill="#A60F2D"></path>
  <path fill-rule="evenodd" clip-rule="evenodd" d="M35 5.38462C18.6439 5.38462 5.38462 18.6439 5.38462 35C5.38462 51.3561 18.6439 64.6154 35 64.6154C51.3561 64.6154 64.6154 51.3561 64.6154 35C64.6154 18.6439 51.3561 5.38462 35 5.38462ZM0 35C0 15.67 15.67 0 35 0C54.33 0 70 15.67 70 35C70 54.33 54.33 70 35 70C15.67 70 0 54.33 0 35Z" fill="#A60F2D"></path>
</svg>
