<?xml version="1.0" encoding="UTF-8"?>
<svg xmlns="http://www.w3.org/2000/svg" width="222" height="47" viewBox="0 0 222 47" fill="none">
  <path d="M29.8889 46.1158C29.8889 46.1158 32.3668 45.0596 33.7258 40.9696C34.922 43.462 34.6098 46.0244 34.6098 46.0244C33.5126 46.27 29.8889 46.1158 29.8889 46.1158ZM43.2022 22.7247C43.2022 22.7247 44.7138 30.9458 39.3593 31.226C34.1925 31.4952 31.7595 23.7412 31.7595 23.7412C31.7595 23.7412 33.0084 38.8932 40.2515 37.8947C48.4059 36.773 43.2027 22.7247 43.2027 22.7247H43.2022ZM3.86789 44.1599C3.87159 44.1581 3.87621 44.1581 3.87621 44.1581C9.91394 42.7857 14.5418 35.7532 15.898 32.9304L16.7616 31.143L17.2811 33.0569C17.3065 33.1603 17.8694 35.2718 17.8694 38.0577C17.8694 38.367 17.8616 38.6832 17.8449 39.004C19.9278 39.0825 21.4145 38.661 22.34 37.7022C23.6676 36.334 24.0654 33.7405 23.5723 29.7761C23.3276 27.8797 22.6259 24.863 22.0028 22.1989C21.6837 20.8371 21.3835 19.5492 21.2012 18.6384C20.0374 12.815 21.4829 9.1981 22.8988 7.1914C23.1224 6.87839 23.3646 6.57903 23.6241 6.29492C19.443 7.69596 15.9396 9.87808 12.3239 13.4825L14.867 16.4253L15.9068 15.4536C16.892 19.1097 16.1843 22.4759 16.1843 22.4759C14.8462 20.4424 13.2684 18.7935 13.2684 18.7935L13.9576 17.6357L11.6656 14.9781L11.4006 14.6809C8.58271 18.5433 7.67101 21.7027 7.67101 21.7027L9.66925 23.5298L10.833 24.5818L11.2248 23.4615C13.3757 27.4767 11.4112 31.2293 11.4112 31.2293C11.0592 29.8615 9.64242 27.8382 9.64242 27.8382L10.2021 25.9972L7.22604 23.3105C4.13247 32.9548 0 36.0801 0 36.0801C0 36.0801 4.47013 35.2759 6.96145 34.4413C6.96145 34.4413 6.893 39.5247 3.86789 44.1599Z" fill="#AE0C33"></path>
  <path d="M27.9059 14.2664C29.3965 13.3011 31.9326 12.5589 34.3128 12.7273C34.9148 12.7684 35.4244 12.6226 34.7755 12.3056C32.9954 11.4393 28.8467 11.7337 27.3786 12.6579C25.029 14.1382 25.4272 16.7757 25.4808 16.8394C25.9497 16.0835 26.7445 15.0165 27.9054 14.2669L27.9059 14.2664ZM49.3187 11.198L41.9284 11.4866C41.9323 12.2897 41.8169 13.1048 41.5341 13.8748C42.2237 16.6612 41.7442 18.1725 41.7442 18.1725C40.5077 15.5151 39.5674 14.7774 39.5674 14.7774C32.7791 11.9931 28.9658 18.2896 29.375 22.3517C29.7075 25.6898 31.0201 30.1201 32.0422 37.0716C32.9036 42.9208 29.6965 45.4491 26.0081 46.0295C25.9267 46.0397 25.8458 46.0527 25.7655 46.0684C25.7444 46.0684 25.7272 46.0684 25.7081 46.0728C25.0765 46.1459 24.4398 46.175 23.8035 46.1599C23.782 46.1537 23.7543 46.1537 23.7327 46.1537C23.6576 46.1537 23.5868 46.144 23.5126 46.144C23.2255 46.1281 22.9422 46.0998 22.6618 46.0688C19.7912 45.7024 13.3646 44.6243 6.72614 44.4758C10.6313 42.3705 13.6862 38.7234 15.3912 36.1412C15.4902 36.8573 15.5692 37.7307 15.5692 38.6916C15.5692 39.1708 15.552 39.6751 15.4984 40.19L15.4342 40.8946L16.1989 40.9534C19.2538 41.1987 21.4196 40.6608 22.8355 39.3135C24.5663 37.6471 25.0994 34.8713 24.5127 30.5652C24.2596 28.6778 23.516 25.749 22.8676 23.1668C22.5441 21.8748 22.2373 20.6482 22.0512 19.8013C20.9525 14.7137 22.2656 11.6249 23.5614 9.93115C24.5701 8.60555 25.9693 7.63224 27.503 7.16503C27.5283 7.16106 27.5542 7.15487 27.5819 7.15133L30.1056 0H30.8981L29.2041 6.87242C29.596 6.80921 29.9946 6.75131 30.3971 6.69429L32.5753 0.358473H33.3601L31.9326 6.49406C34.1889 6.22708 36.6351 6.01934 39.3468 5.83546C39.7856 5.99768 40.2618 6.46665 40.679 7.11951L47.7913 5.09951L48.0544 5.80761L41.2556 8.2431C41.3092 8.37217 41.3628 8.50654 41.4054 8.64313L48.8387 7.79004L48.9632 8.52643L41.7504 9.85601C41.7763 9.98066 41.7978 10.1053 41.8212 10.2304L49.3225 10.4536L49.3187 11.198Z" fill="#AE0C33"></path>
  <path d="M27.9059 14.2664C29.3965 13.3011 31.9326 12.5589 34.3128 12.7273C34.9148 12.7684 35.4244 12.6226 34.7755 12.3056C32.9954 11.4393 28.8467 11.7337 27.3786 12.6579C25.029 14.1382 25.4272 16.7757 25.4808 16.8394C25.9497 16.0835 26.7445 15.0165 27.9054 14.2669L27.9059 14.2664ZM49.3187 11.198L41.9284 11.4866C41.9323 12.2897 41.8169 13.1048 41.5341 13.8748C42.2237 16.6612 41.7442 18.1725 41.7442 18.1725C40.5077 15.5151 39.5674 14.7774 39.5674 14.7774C32.7791 11.9931 28.9658 18.2896 29.375 22.3517C29.7075 25.6898 31.0201 30.1201 32.0422 37.0716C32.9036 42.9208 29.6965 45.4491 26.0081 46.0295C25.9267 46.0397 25.8458 46.0527 25.7655 46.0684C25.7444 46.0684 25.7272 46.0684 25.7081 46.0728C25.0765 46.1459 24.4398 46.175 23.8035 46.1599C23.782 46.1537 23.7543 46.1537 23.7327 46.1537C23.6576 46.1537 23.5868 46.144 23.5126 46.144C23.2255 46.1281 22.9422 46.0998 22.6618 46.0688C19.7912 45.7024 13.3646 44.6243 6.72614 44.4758C10.6313 42.3705 13.6862 38.7234 15.3912 36.1412C15.4902 36.8573 15.5692 37.7307 15.5692 38.6916C15.5692 39.1708 15.552 39.6751 15.4984 40.19L15.4342 40.8946L16.1989 40.9534C19.2538 41.1987 21.4196 40.6608 22.8355 39.3135C24.5663 37.6471 25.0994 34.8713 24.5127 30.5652C24.2596 28.6778 23.516 25.749 22.8676 23.1668C22.5441 21.8748 22.2373 20.6482 22.0512 19.8013C20.9525 14.7137 22.2656 11.6249 23.5614 9.93115C24.5701 8.60555 25.9693 7.63224 27.503 7.16503C27.5283 7.16106 27.5542 7.15487 27.5819 7.15133L30.1056 0H30.8981L29.2041 6.87242C29.596 6.80921 29.9946 6.75131 30.3971 6.69429L32.5753 0.358473H33.3601L31.9326 6.49406C34.1889 6.22708 36.6351 6.01934 39.3468 5.83546C39.7856 5.99768 40.2618 6.46665 40.679 7.11951L47.7913 5.09951L48.0544 5.80761L41.2556 8.2431C41.3092 8.37217 41.3628 8.50654 41.4054 8.64313L48.8387 7.79004L48.9632 8.52643L41.7504 9.85601C41.7763 9.98066 41.7978 10.1053 41.8212 10.2304L49.3225 10.4536L49.3187 11.198Z" fill="#AE0C33"></path>
  <path d="M57.095 8.43115H58.2783V46.0011H57.095V8.43115Z" fill="#333333"></path>
  <path d="M73.5539 34.4615C72.6887 34.4615 71.9044 34.2755 71.2009 33.9036C70.5055 33.5235 69.9556 33.002 69.5513 32.3389C69.1551 31.6678 68.957 30.9118 68.957 30.0708C68.957 29.2299 69.1551 28.4779 69.5513 27.8149C69.9556 27.1437 70.5055 26.6222 71.2009 26.2502C71.9044 25.8702 72.6927 25.6802 73.566 25.6802C74.3018 25.6802 74.9649 25.8096 75.5551 26.0683C76.1535 26.327 76.6548 26.699 77.0591 27.1842L75.7977 28.3485C75.2236 27.6855 74.5121 27.354 73.663 27.354C73.1375 27.354 72.6685 27.4712 72.2561 27.7057C71.8437 27.9321 71.5203 28.2515 71.2858 28.6639C71.0594 29.0763 70.9462 29.5452 70.9462 30.0708C70.9462 30.5964 71.0594 31.0654 71.2858 31.4778C71.5203 31.8902 71.8437 32.2136 72.2561 32.4481C72.6685 32.6745 73.1375 32.7877 73.663 32.7877C74.5121 32.7877 75.2236 32.4521 75.7977 31.781L77.0591 32.9454C76.6548 33.4386 76.1535 33.8146 75.5551 34.0734C74.9568 34.3321 74.2897 34.4615 73.5539 34.4615Z" fill="#333333"></path>
  <path d="M80.352 27.6936C81.3628 27.6936 82.139 27.9361 82.6808 28.4213C83.2225 28.8984 83.4934 29.6221 83.4934 30.5924V34.3159H81.7226V33.5033C81.3668 34.1098 80.7038 34.413 79.7335 34.413C79.2321 34.413 78.7955 34.3281 78.4235 34.1583C78.0597 33.9885 77.7807 33.754 77.5866 33.4548C77.3926 33.1556 77.2956 32.816 77.2956 32.436C77.2956 31.8295 77.522 31.3525 77.9748 31.0048C78.4357 30.6571 79.1432 30.4832 80.0973 30.4832H81.6013C81.6013 30.0708 81.476 29.7555 81.2253 29.5372C80.9746 29.3108 80.5987 29.1976 80.0973 29.1976C79.7496 29.1976 79.406 29.2542 79.0664 29.3674C78.7348 29.4725 78.4518 29.618 78.2173 29.804L77.5381 28.4819C77.8939 28.2313 78.3184 28.0372 78.8117 27.8998C79.313 27.7623 79.8264 27.6936 80.352 27.6936ZM80.2065 33.1394C80.5299 33.1394 80.817 33.0667 81.0676 32.9211C81.3183 32.7675 81.4962 32.5451 81.6013 32.254V31.5869H80.3035C79.5273 31.5869 79.1391 31.8417 79.1391 32.3511C79.1391 32.5936 79.2321 32.7877 79.4181 32.9333C79.6122 33.0707 79.875 33.1394 80.2065 33.1394Z" fill="#333333"></path>
  <path d="M86.5279 28.6518C86.7543 28.3364 87.0575 28.0979 87.4376 27.9361C87.8257 27.7744 88.2704 27.6936 88.7718 27.6936V29.4401C88.5615 29.424 88.42 29.4159 88.3472 29.4159C87.8055 29.4159 87.381 29.5695 87.0737 29.8768C86.7664 30.176 86.6128 30.6288 86.6128 31.2352V34.3159H84.7207V27.7906H86.5279V28.6518Z" fill="#333333"></path>
  <path d="M91.6307 34.413C91.0889 34.413 90.5593 34.3483 90.0418 34.2189C89.5243 34.0815 89.1119 33.9117 88.8046 33.7095L89.4353 32.3511C89.7264 32.537 90.0782 32.6907 90.4906 32.812C90.9029 32.9252 91.3072 32.9818 91.7034 32.9818C92.504 32.9818 92.9042 32.7837 92.9042 32.3875C92.9042 32.2015 92.795 32.0681 92.5767 31.9872C92.3584 31.9063 92.0228 31.8376 91.57 31.781C91.0364 31.7001 90.5957 31.6072 90.248 31.502C89.9003 31.3969 89.5971 31.211 89.3383 30.9441C89.0876 30.6773 88.9623 30.2972 88.9623 29.804C88.9623 29.3916 89.0796 29.0277 89.3141 28.7124C89.5566 28.389 89.9043 28.1383 90.3571 27.9604C90.818 27.7825 91.3598 27.6936 91.9824 27.6936C92.4433 27.6936 92.9002 27.7461 93.353 27.8512C93.8139 27.9483 94.1939 28.0857 94.4931 28.2636L93.8624 29.6099C93.2883 29.2865 92.6616 29.1248 91.9824 29.1248C91.5781 29.1248 91.2749 29.1814 91.0727 29.2946C90.8706 29.4078 90.7695 29.5533 90.7695 29.7312C90.7695 29.9334 90.8787 30.0749 91.097 30.1557C91.3153 30.2366 91.663 30.3134 92.1401 30.3862C92.6738 30.4751 93.1104 30.5722 93.45 30.6773C93.7896 30.7743 94.0847 30.9562 94.3354 31.2231C94.5861 31.4899 94.7114 31.8619 94.7114 32.3389C94.7114 32.7432 94.5901 33.1031 94.3475 33.4184C94.105 33.7338 93.7492 33.9804 93.2802 34.1583C92.8193 34.3281 92.2695 34.413 91.6307 34.413Z" fill="#333333"></path>
  <path d="M98.4987 34.413C97.8114 34.413 97.1928 34.2715 96.6429 33.9885C96.1012 33.6974 95.6767 33.2971 95.3694 32.7877C95.0621 32.2783 94.9085 31.7001 94.9085 31.0533C94.9085 30.4064 95.0621 29.8283 95.3694 29.3188C95.6767 28.8094 96.1012 28.4132 96.6429 28.1302C97.1928 27.8391 97.8114 27.6936 98.4987 27.6936C99.186 27.6936 99.8005 27.8391 100.342 28.1302C100.884 28.4132 101.309 28.8094 101.616 29.3188C101.923 29.8283 102.077 30.4064 102.077 31.0533C102.077 31.7001 101.923 32.2783 101.616 32.7877C101.309 33.2971 100.884 33.6974 100.342 33.9885C99.8005 34.2715 99.186 34.413 98.4987 34.413ZM98.4987 32.8605C98.9838 32.8605 99.38 32.6988 99.6873 32.3753C100.003 32.0438 100.16 31.6031 100.16 31.0533C100.16 30.5034 100.003 30.0668 99.6873 29.7434C99.38 29.4118 98.9838 29.2461 98.4987 29.2461C98.0135 29.2461 97.6132 29.4118 97.2979 29.7434C96.9825 30.0668 96.8249 30.5034 96.8249 31.0533C96.8249 31.6031 96.9825 32.0438 97.2979 32.3753C97.6132 32.6988 98.0135 32.8605 98.4987 32.8605Z" fill="#333333"></path>
  <path d="M106.822 27.6936C107.631 27.6936 108.282 27.9361 108.775 28.4213C109.276 28.9065 109.527 29.6261 109.527 30.5802V34.3159H107.635V30.8713C107.635 30.3538 107.522 29.9698 107.295 29.7191C107.069 29.4603 106.742 29.331 106.313 29.331C105.836 29.331 105.456 29.4806 105.173 29.7797C104.89 30.0708 104.748 30.5075 104.748 31.0897V34.3159H102.856V27.7906H104.663V28.5547C104.914 28.2798 105.225 28.0696 105.597 27.924C105.969 27.7704 106.378 27.6936 106.822 27.6936Z" fill="#333333"></path>
  <path d="M117.903 34.4615C117.038 34.4615 116.254 34.2755 115.55 33.9036C114.855 33.5235 114.305 33.002 113.901 32.3389C113.505 31.6678 113.307 30.9118 113.307 30.0708C113.307 29.2299 113.505 28.4779 113.901 27.8149C114.305 27.1437 114.855 26.6222 115.55 26.2502C116.254 25.8702 117.042 25.6802 117.916 25.6802C118.651 25.6802 119.314 25.8096 119.905 26.0683C120.503 26.327 121.004 26.699 121.409 27.1842L120.147 28.3485C119.573 27.6855 118.862 27.354 118.013 27.354C117.487 27.354 117.018 27.4712 116.606 27.7057C116.193 27.9321 115.87 28.2515 115.635 28.6639C115.409 29.0763 115.296 29.5452 115.296 30.0708C115.296 30.5964 115.409 31.0654 115.635 31.4778C115.87 31.8902 116.193 32.2136 116.606 32.4481C117.018 32.6745 117.487 32.7877 118.013 32.7877C118.862 32.7877 119.573 32.4521 120.147 31.781L121.409 32.9454C121.004 33.4386 120.503 33.8146 119.905 34.0734C119.306 34.3321 118.639 34.4615 117.903 34.4615Z" fill="#333333"></path>
  <path d="M124.633 34.413C123.946 34.413 123.327 34.2715 122.777 33.9885C122.236 33.6974 121.811 33.2971 121.504 32.7877C121.197 32.2783 121.043 31.7001 121.043 31.0533C121.043 30.4064 121.197 29.8283 121.504 29.3188C121.811 28.8094 122.236 28.4132 122.777 28.1302C123.327 27.8391 123.946 27.6936 124.633 27.6936C125.32 27.6936 125.935 27.8391 126.477 28.1302C127.018 28.4132 127.443 28.8094 127.75 29.3188C128.057 29.8283 128.211 30.4064 128.211 31.0533C128.211 31.7001 128.057 32.2783 127.75 32.7877C127.443 33.2971 127.018 33.6974 126.477 33.9885C125.935 34.2715 125.32 34.413 124.633 34.413ZM124.633 32.8605C125.118 32.8605 125.514 32.6988 125.822 32.3753C126.137 32.0438 126.295 31.6031 126.295 31.0533C126.295 30.5034 126.137 30.0668 125.822 29.7434C125.514 29.4118 125.118 29.2461 124.633 29.2461C124.148 29.2461 123.748 29.4118 123.432 29.7434C123.117 30.0668 122.959 30.5034 122.959 31.0533C122.959 31.6031 123.117 32.0438 123.432 32.3753C123.748 32.6988 124.148 32.8605 124.633 32.8605Z" fill="#333333"></path>
  <path d="M128.627 25.3163H130.519V34.3159H128.627V25.3163Z" fill="#333333"></path>
  <path d="M131.426 25.3163H133.318V34.3159H131.426V25.3163Z" fill="#333333"></path>
  <path d="M140.617 31.0775C140.617 31.1018 140.605 31.2716 140.581 31.5869H135.644C135.733 31.9912 135.943 32.3106 136.275 32.5451C136.606 32.7796 137.019 32.8969 137.512 32.8969C137.852 32.8969 138.151 32.8484 138.41 32.7513C138.676 32.6462 138.923 32.4845 139.149 32.2662L140.156 33.3578C139.542 34.0612 138.644 34.413 137.463 34.413C136.728 34.413 136.077 34.2715 135.511 33.9885C134.945 33.6974 134.508 33.2971 134.201 32.7877C133.894 32.2783 133.74 31.7001 133.74 31.0533C133.74 30.4145 133.889 29.8404 134.189 29.331C134.496 28.8135 134.912 28.4132 135.438 28.1302C135.972 27.8391 136.566 27.6936 137.221 27.6936C137.86 27.6936 138.438 27.831 138.955 28.106C139.473 28.3809 139.877 28.7771 140.168 29.2946C140.467 29.804 140.617 30.3983 140.617 31.0775ZM137.233 29.1248C136.804 29.1248 136.445 29.2461 136.154 29.4886C135.862 29.7312 135.685 30.0627 135.62 30.4832H138.834C138.769 30.0708 138.591 29.7434 138.3 29.5008C138.009 29.2501 137.653 29.1248 137.233 29.1248Z" fill="#333333"></path>
  <path d="M147.759 27.7906V33.2243C147.759 34.4211 147.448 35.3105 146.825 35.8927C146.203 36.4749 145.293 36.766 144.096 36.766C143.466 36.766 142.867 36.6892 142.301 36.5355C141.735 36.3819 141.266 36.1595 140.894 35.8684L141.646 34.51C141.921 34.7364 142.269 34.9143 142.689 35.0437C143.11 35.1811 143.53 35.2499 143.951 35.2499C144.606 35.2499 145.087 35.1003 145.394 34.8011C145.709 34.51 145.867 34.0653 145.867 33.4669V33.188C145.374 33.7297 144.687 34.0006 143.805 34.0006C143.207 34.0006 142.657 33.8712 142.156 33.6125C141.662 33.3456 141.27 32.9737 140.979 32.4966C140.688 32.0195 140.543 31.4697 140.543 30.8471C140.543 30.2245 140.688 29.6746 140.979 29.1976C141.27 28.7205 141.662 28.3526 142.156 28.0938C142.657 27.827 143.207 27.6936 143.805 27.6936C144.751 27.6936 145.471 28.0049 145.964 28.6275V27.7906H147.759ZM144.181 32.4481C144.683 32.4481 145.091 32.3026 145.406 32.0115C145.73 31.7123 145.891 31.3242 145.891 30.8471C145.891 30.37 145.73 29.9859 145.406 29.6948C145.091 29.3957 144.683 29.2461 144.181 29.2461C143.68 29.2461 143.267 29.3957 142.944 29.6948C142.621 29.9859 142.459 30.37 142.459 30.8471C142.459 31.3242 142.621 31.7123 142.944 32.0115C143.267 32.3026 143.68 32.4481 144.181 32.4481Z" fill="#333333"></path>
  <path d="M155.063 31.0775C155.063 31.1018 155.051 31.2716 155.027 31.5869H150.09C150.179 31.9912 150.389 32.3106 150.721 32.5451C151.053 32.7796 151.465 32.8969 151.958 32.8969C152.298 32.8969 152.597 32.8484 152.856 32.7513C153.123 32.6462 153.369 32.4845 153.596 32.2662L154.602 33.3578C153.988 34.0612 153.09 34.413 151.91 34.413C151.174 34.413 150.523 34.2715 149.957 33.9885C149.391 33.6974 148.954 33.2971 148.647 32.7877C148.34 32.2783 148.186 31.7001 148.186 31.0533C148.186 30.4145 148.336 29.8404 148.635 29.331C148.942 28.8135 149.359 28.4132 149.884 28.1302C150.418 27.8391 151.012 27.6936 151.667 27.6936C152.306 27.6936 152.884 27.831 153.401 28.106C153.919 28.3809 154.323 28.7771 154.614 29.2946C154.914 29.804 155.063 30.3983 155.063 31.0775ZM151.679 29.1248C151.251 29.1248 150.891 29.2461 150.6 29.4886C150.309 29.7312 150.131 30.0627 150.066 30.4832H153.28C153.216 30.0708 153.038 29.7434 152.747 29.5008C152.455 29.2501 152.1 29.1248 151.679 29.1248Z" fill="#333333"></path>
  <path d="M161.529 34.413C160.841 34.413 160.223 34.2715 159.673 33.9885C159.131 33.6974 158.707 33.2971 158.399 32.7877C158.092 32.2783 157.938 31.7001 157.938 31.0533C157.938 30.4064 158.092 29.8283 158.399 29.3188C158.707 28.8094 159.131 28.4132 159.673 28.1302C160.223 27.8391 160.841 27.6936 161.529 27.6936C162.216 27.6936 162.83 27.8391 163.372 28.1302C163.914 28.4132 164.338 28.8094 164.646 29.3188C164.953 29.8283 165.107 30.4064 165.107 31.0533C165.107 31.7001 164.953 32.2783 164.646 32.7877C164.338 33.2971 163.914 33.6974 163.372 33.9885C162.83 34.2715 162.216 34.413 161.529 34.413ZM161.529 32.8605C162.014 32.8605 162.41 32.6988 162.717 32.3753C163.033 32.0438 163.19 31.6031 163.19 31.0533C163.19 30.5034 163.033 30.0668 162.717 29.7434C162.41 29.4118 162.014 29.2461 161.529 29.2461C161.043 29.2461 160.643 29.4118 160.328 29.7434C160.013 30.0668 159.855 30.5034 159.855 31.0533C159.855 31.6031 160.013 32.0438 160.328 32.3753C160.643 32.6988 161.043 32.8605 161.529 32.8605Z" fill="#333333"></path>
  <path d="M167.96 27.9361H169.634V29.3916H168.009V34.3159H166.117V29.3916H165.11V27.9361H166.117V27.6451C166.117 26.9012 166.335 26.3109 166.772 25.8742C167.216 25.4376 167.839 25.2193 168.639 25.2193C168.922 25.2193 169.189 25.2516 169.44 25.3163C169.699 25.3729 169.913 25.4578 170.083 25.571L169.586 26.9416C169.367 26.7879 169.112 26.7111 168.821 26.7111C168.247 26.7111 167.96 27.0265 167.96 27.6572V27.9361Z" fill="#333333"></path>
  <path d="M179.409 29.901C179.894 30.0547 180.274 30.3134 180.549 30.6773C180.824 31.0331 180.961 31.4737 180.961 31.9993C180.961 32.7432 180.67 33.3173 180.088 33.7216C179.514 34.1178 178.673 34.3159 177.565 34.3159H173.175V25.8257H177.323C178.358 25.8257 179.15 26.0238 179.7 26.42C180.258 26.8162 180.537 27.354 180.537 28.0332C180.537 28.4456 180.436 28.8135 180.234 29.1369C180.04 29.4603 179.765 29.7151 179.409 29.901ZM175.127 27.3054V29.3067H177.08C177.565 29.3067 177.933 29.2218 178.184 29.052C178.435 28.8822 178.56 28.6315 178.56 28.3C178.56 27.9685 178.435 27.7219 178.184 27.5602C177.933 27.3903 177.565 27.3054 177.08 27.3054H175.127ZM177.42 32.8362C177.937 32.8362 178.325 32.7513 178.584 32.5815C178.851 32.4117 178.984 32.1489 178.984 31.7931C178.984 31.0897 178.463 30.7379 177.42 30.7379H175.127V32.8362H177.42Z" fill="#333333"></path>
  <path d="M187.919 27.7906V34.3159H186.124V33.5397C185.873 33.8227 185.574 34.041 185.227 34.1947C184.879 34.3402 184.503 34.413 184.099 34.413C183.241 34.413 182.562 34.1664 182.061 33.6731C181.56 33.1799 181.309 32.4481 181.309 31.4778V27.7906H183.201V31.1988C183.201 32.25 183.642 32.7756 184.523 32.7756C184.976 32.7756 185.34 32.63 185.615 32.3389C185.89 32.0398 186.027 31.5991 186.027 31.0169V27.7906H187.919Z" fill="#333333"></path>
  <path d="M190.897 34.413C190.355 34.413 189.826 34.3483 189.308 34.2189C188.791 34.0815 188.378 33.9117 188.071 33.7095L188.702 32.3511C188.993 32.537 189.345 32.6907 189.757 32.812C190.169 32.9252 190.574 32.9818 190.97 32.9818C191.77 32.9818 192.171 32.7837 192.171 32.3875C192.171 32.2015 192.062 32.0681 191.843 31.9872C191.625 31.9063 191.289 31.8376 190.836 31.781C190.303 31.7001 189.862 31.6072 189.514 31.502C189.167 31.3969 188.864 31.211 188.605 30.9441C188.354 30.6773 188.229 30.2972 188.229 29.804C188.229 29.3916 188.346 29.0277 188.581 28.7124C188.823 28.389 189.171 28.1383 189.624 27.9604C190.084 27.7825 190.626 27.6936 191.249 27.6936C191.71 27.6936 192.167 27.7461 192.619 27.8512C193.08 27.9483 193.46 28.0857 193.76 28.2636L193.129 29.6099C192.555 29.2865 191.928 29.1248 191.249 29.1248C190.845 29.1248 190.541 29.1814 190.339 29.2946C190.137 29.4078 190.036 29.5533 190.036 29.7312C190.036 29.9334 190.145 30.0749 190.363 30.1557C190.582 30.2366 190.929 30.3134 191.407 30.3862C191.94 30.4751 192.377 30.5722 192.716 30.6773C193.056 30.7743 193.351 30.9562 193.602 31.2231C193.853 31.4899 193.978 31.8619 193.978 32.3389C193.978 32.7432 193.857 33.1031 193.614 33.4184C193.371 33.7338 193.016 33.9804 192.547 34.1583C192.086 34.3281 191.536 34.413 190.897 34.413Z" fill="#333333"></path>
  <path d="M194.175 27.7906H196.067V34.3159H194.175V27.7906ZM195.121 26.8809C194.773 26.8809 194.49 26.7799 194.272 26.5777C194.054 26.3756 193.945 26.1249 193.945 25.8257C193.945 25.5265 194.054 25.2759 194.272 25.0737C194.49 24.8716 194.773 24.7705 195.121 24.7705C195.469 24.7705 195.752 24.8675 195.97 25.0616C196.188 25.2557 196.298 25.4982 196.298 25.7893C196.298 26.1047 196.188 26.3675 195.97 26.5777C195.752 26.7799 195.469 26.8809 195.121 26.8809Z" fill="#333333"></path>
  <path d="M200.819 27.6936C201.628 27.6936 202.278 27.9361 202.772 28.4213C203.273 28.9065 203.524 29.6261 203.524 30.5802V34.3159H201.632V30.8713C201.632 30.3538 201.518 29.9698 201.292 29.7191C201.066 29.4603 200.738 29.331 200.31 29.331C199.832 29.331 199.452 29.4806 199.169 29.7797C198.886 30.0708 198.745 30.5075 198.745 31.0897V34.3159H196.853V27.7906H198.66V28.5547C198.911 28.2798 199.222 28.0696 199.594 27.924C199.966 27.7704 200.374 27.6936 200.819 27.6936Z" fill="#333333"></path>
  <path d="M210.731 31.0775C210.731 31.1018 210.719 31.2716 210.695 31.5869H205.759C205.848 31.9912 206.058 32.3106 206.389 32.5451C206.721 32.7796 207.133 32.8969 207.626 32.8969C207.966 32.8969 208.265 32.8484 208.524 32.7513C208.791 32.6462 209.037 32.4845 209.264 32.2662L210.271 33.3578C209.656 34.0612 208.758 34.413 207.578 34.413C206.842 34.413 206.191 34.2715 205.625 33.9885C205.059 33.6974 204.623 33.2971 204.315 32.7877C204.008 32.2783 203.854 31.7001 203.854 31.0533C203.854 30.4145 204.004 29.8404 204.303 29.331C204.61 28.8135 205.027 28.4132 205.552 28.1302C206.086 27.8391 206.68 27.6936 207.335 27.6936C207.974 27.6936 208.552 27.831 209.07 28.106C209.587 28.3809 209.992 28.7771 210.283 29.2946C210.582 29.804 210.731 30.3983 210.731 31.0775ZM207.348 29.1248C206.919 29.1248 206.559 29.2461 206.268 29.4886C205.977 29.7312 205.799 30.0627 205.734 30.4832H208.949C208.884 30.0708 208.706 29.7434 208.415 29.5008C208.124 29.2501 207.768 29.1248 207.348 29.1248Z" fill="#333333"></path>
  <path d="M213.216 34.413C212.674 34.413 212.145 34.3483 211.627 34.2189C211.11 34.0815 210.697 33.9117 210.39 33.7095L211.021 32.3511C211.312 32.537 211.664 32.6907 212.076 32.812C212.488 32.9252 212.893 32.9818 213.289 32.9818C214.089 32.9818 214.49 32.7837 214.49 32.3875C214.49 32.2015 214.381 32.0681 214.162 31.9872C213.944 31.9063 213.608 31.8376 213.156 31.781C212.622 31.7001 212.181 31.6072 211.833 31.502C211.486 31.3969 211.183 31.211 210.924 30.9441C210.673 30.6773 210.548 30.2972 210.548 29.804C210.548 29.3916 210.665 29.0277 210.9 28.7124C211.142 28.389 211.49 28.1383 211.943 27.9604C212.404 27.7825 212.945 27.6936 213.568 27.6936C214.029 27.6936 214.486 27.7461 214.938 27.8512C215.399 27.9483 215.779 28.0857 216.079 28.2636L215.448 29.6099C214.874 29.2865 214.247 29.1248 213.568 29.1248C213.164 29.1248 212.86 29.1814 212.658 29.2946C212.456 29.4078 212.355 29.5533 212.355 29.7312C212.355 29.9334 212.464 30.0749 212.683 30.1557C212.901 30.2366 213.249 30.3134 213.726 30.3862C214.259 30.4751 214.696 30.5722 215.036 30.6773C215.375 30.7743 215.67 30.9562 215.921 31.2231C216.172 31.4899 216.297 31.8619 216.297 32.3389C216.297 32.7432 216.176 33.1031 215.933 33.4184C215.69 33.7338 215.335 33.9804 214.866 34.1583C214.405 34.3281 213.855 34.413 213.216 34.413Z" fill="#333333"></path>
  <path d="M218.689 34.413C218.148 34.413 217.618 34.3483 217.1 34.2189C216.583 34.0815 216.171 33.9117 215.863 33.7095L216.494 32.3511C216.785 32.537 217.137 32.6907 217.549 32.812C217.962 32.9252 218.366 32.9818 218.762 32.9818C219.563 32.9818 219.963 32.7837 219.963 32.3875C219.963 32.2015 219.854 32.0681 219.635 31.9872C219.417 31.9063 219.082 31.8376 218.629 31.781C218.095 31.7001 217.654 31.6072 217.307 31.502C216.959 31.3969 216.656 31.211 216.397 30.9441C216.146 30.6773 216.021 30.2972 216.021 29.804C216.021 29.3916 216.138 29.0277 216.373 28.7124C216.615 28.389 216.963 28.1383 217.416 27.9604C217.877 27.7825 218.418 27.6936 219.041 27.6936C219.502 27.6936 219.959 27.7461 220.412 27.8512C220.873 27.9483 221.253 28.0857 221.552 28.2636L220.921 29.6099C220.347 29.2865 219.72 29.1248 219.041 29.1248C218.637 29.1248 218.334 29.1814 218.131 29.2946C217.929 29.4078 217.828 29.5533 217.828 29.7312C217.828 29.9334 217.937 30.0749 218.156 30.1557C218.374 30.2366 218.722 30.3134 219.199 30.3862C219.732 30.4751 220.169 30.5722 220.509 30.6773C220.848 30.7743 221.143 30.9562 221.394 31.2231C221.645 31.4899 221.77 31.8619 221.77 32.3389C221.77 32.7432 221.649 33.1031 221.406 33.4184C221.164 33.7338 220.808 33.9804 220.339 34.1583C219.878 34.3281 219.328 34.413 218.689 34.413Z" fill="#333333"></path>
  <path d="M75.8475 16.4629L74.4587 20.708H73.4035L72.4696 17.8335L71.5053 20.708H70.4562L69.0613 16.4629H70.0802L71.0383 19.4466L72.039 16.4629H72.9487L73.919 19.4709L74.9075 16.4629H75.8475Z" fill="#333333"></path>
  <path d="M79.8985 19.7984H77.9276L77.5516 20.708H76.5449L78.437 16.4629H79.4073L81.3055 20.708H80.2745L79.8985 19.7984ZM79.5892 19.0524L78.9161 17.4272L78.2429 19.0524H79.5892Z" fill="#333333"></path>
  <path d="M83.9897 20.7808C83.6542 20.7808 83.3287 20.7363 83.0134 20.6474C82.702 20.5544 82.4514 20.4351 82.2614 20.2896L82.5949 19.5497C82.7768 19.6831 82.9931 19.7903 83.2438 19.8711C83.4945 19.952 83.7451 19.9924 83.9958 19.9924C84.2748 19.9924 84.481 19.952 84.6144 19.8711C84.7478 19.7862 84.8145 19.675 84.8145 19.5376C84.8145 19.4365 84.7741 19.3536 84.6932 19.2889C84.6164 19.2202 84.5153 19.1656 84.39 19.1252C84.2687 19.0848 84.1029 19.0403 83.8927 18.9918C83.5693 18.915 83.3044 18.8382 83.0983 18.7613C82.8921 18.6845 82.7142 18.5612 82.5646 18.3914C82.419 18.2216 82.3463 17.9952 82.3463 17.7122C82.3463 17.4656 82.413 17.2432 82.5464 17.0451C82.6798 16.8429 82.8799 16.6833 83.1468 16.566C83.4177 16.4488 83.7472 16.3901 84.1353 16.3901C84.4062 16.3901 84.671 16.4225 84.9297 16.4872C85.1885 16.5519 85.4149 16.6448 85.6089 16.7661L85.3057 17.5121C84.9135 17.2897 84.5214 17.1785 84.1292 17.1785C83.8543 17.1785 83.6501 17.223 83.5167 17.3119C83.3873 17.4009 83.3226 17.5181 83.3226 17.6637C83.3226 17.8092 83.3974 17.9184 83.547 17.9912C83.7007 18.0599 83.9331 18.1286 84.2444 18.1973C84.5679 18.2742 84.8327 18.351 85.0389 18.4278C85.2451 18.5046 85.4209 18.6259 85.5665 18.7917C85.7161 18.9574 85.7909 19.1818 85.7909 19.4648C85.7909 19.7074 85.7221 19.9298 85.5847 20.1319C85.4513 20.33 85.2491 20.4877 84.9782 20.6049C84.7074 20.7222 84.3779 20.7808 83.9897 20.7808Z" fill="#333333"></path>
  <path d="M91.2046 16.4629V20.708H90.2221V18.9675H88.2936V20.708H87.3112V16.4629H88.2936V18.1367H90.2221V16.4629H91.2046Z" fill="#333333"></path>
  <path d="M93.058 16.4629H94.0404V20.708H93.058V16.4629Z" fill="#333333"></path>
  <path d="M99.7903 16.4629V20.708H98.9837L96.8672 18.1306V20.708H95.8969V16.4629H96.7095L98.82 19.0403V16.4629H99.7903Z" fill="#333333"></path>
  <path d="M104.512 18.5188H105.41V20.2411C105.179 20.4149 104.912 20.5483 104.609 20.6413C104.306 20.7343 104.001 20.7808 103.693 20.7808C103.253 20.7808 102.857 20.6878 102.505 20.5018C102.153 20.3118 101.876 20.051 101.674 19.7195C101.476 19.384 101.377 19.0059 101.377 18.5855C101.377 18.165 101.476 17.789 101.674 17.4575C101.876 17.1219 102.155 16.8611 102.511 16.6752C102.867 16.4851 103.267 16.3901 103.712 16.3901C104.084 16.3901 104.421 16.4528 104.724 16.5781C105.028 16.7035 105.282 16.8854 105.489 17.1239L104.858 17.7061C104.555 17.3867 104.189 17.227 103.76 17.227C103.489 17.227 103.249 17.2836 103.038 17.3968C102.828 17.51 102.665 17.6697 102.547 17.8759C102.43 18.0821 102.371 18.3186 102.371 18.5855C102.371 18.8483 102.43 19.0828 102.547 19.2889C102.665 19.4951 102.826 19.6569 103.032 19.7741C103.243 19.8873 103.481 19.9439 103.748 19.9439C104.031 19.9439 104.286 19.8833 104.512 19.762V18.5188Z" fill="#333333"></path>
  <path d="M108.051 17.2634H106.692V16.4629H110.392V17.2634H109.033V20.708H108.051V17.2634Z" fill="#333333"></path>
  <path d="M113.766 20.7808C113.325 20.7808 112.927 20.6858 112.571 20.4958C112.219 20.3057 111.942 20.045 111.74 19.7135C111.542 19.3779 111.443 19.0019 111.443 18.5855C111.443 18.169 111.542 17.7951 111.74 17.4635C111.942 17.128 112.219 16.8652 112.571 16.6752C112.927 16.4851 113.325 16.3901 113.766 16.3901C114.206 16.3901 114.603 16.4851 114.954 16.6752C115.306 16.8652 115.583 17.128 115.785 17.4635C115.987 17.7951 116.088 18.169 116.088 18.5855C116.088 19.0019 115.987 19.3779 115.785 19.7135C115.583 20.045 115.306 20.3057 114.954 20.4958C114.603 20.6858 114.206 20.7808 113.766 20.7808ZM113.766 19.9439C114.016 19.9439 114.243 19.8873 114.445 19.7741C114.647 19.6569 114.805 19.4951 114.918 19.2889C115.035 19.0828 115.094 18.8483 115.094 18.5855C115.094 18.3227 115.035 18.0882 114.918 17.882C114.805 17.6758 114.647 17.5161 114.445 17.4029C114.243 17.2857 114.016 17.227 113.766 17.227C113.515 17.227 113.289 17.2857 113.087 17.4029C112.884 17.5161 112.725 17.6758 112.607 17.882C112.494 18.0882 112.438 18.3227 112.438 18.5855C112.438 18.8483 112.494 19.0828 112.607 19.2889C112.725 19.4951 112.884 19.6569 113.087 19.7741C113.289 19.8873 113.515 19.9439 113.766 19.9439Z" fill="#333333"></path>
  <path d="M121.569 16.4629V20.708H120.763L118.646 18.1306V20.708H117.676V16.4629H118.488L120.599 19.0403V16.4629H121.569Z" fill="#333333"></path>
  <path d="M127.384 20.7808C127.048 20.7808 126.723 20.7363 126.408 20.6474C126.096 20.5544 125.846 20.4351 125.656 20.2896L125.989 19.5497C126.171 19.6831 126.387 19.7903 126.638 19.8711C126.889 19.952 127.139 19.9924 127.39 19.9924C127.669 19.9924 127.875 19.952 128.009 19.8711C128.142 19.7862 128.209 19.675 128.209 19.5376C128.209 19.4365 128.168 19.3536 128.087 19.2889C128.011 19.2202 127.91 19.1656 127.784 19.1252C127.663 19.0848 127.497 19.0403 127.287 18.9918C126.963 18.915 126.699 18.8382 126.492 18.7613C126.286 18.6845 126.108 18.5612 125.959 18.3914C125.813 18.2216 125.74 17.9952 125.74 17.7122C125.74 17.4656 125.807 17.2432 125.941 17.0451C126.074 16.8429 126.274 16.6833 126.541 16.566C126.812 16.4488 127.141 16.3901 127.529 16.3901C127.8 16.3901 128.065 16.4225 128.324 16.4872C128.583 16.5519 128.809 16.6448 129.003 16.7661L128.7 17.5121C128.308 17.2897 127.916 17.1785 127.523 17.1785C127.248 17.1785 127.044 17.223 126.911 17.3119C126.782 17.4009 126.717 17.5181 126.717 17.6637C126.717 17.8092 126.792 17.9184 126.941 17.9912C127.095 18.0599 127.327 18.1286 127.639 18.1973C127.962 18.2742 128.227 18.351 128.433 18.4278C128.639 18.5046 128.815 18.6259 128.961 18.7917C129.11 18.9574 129.185 19.1818 129.185 19.4648C129.185 19.7074 129.116 19.9298 128.979 20.1319C128.845 20.33 128.643 20.4877 128.372 20.6049C128.102 20.7222 127.772 20.7808 127.384 20.7808Z" fill="#333333"></path>
  <path d="M131.526 17.2634H130.167V16.4629H133.866V17.2634H132.508V20.708H131.526V17.2634Z" fill="#333333"></path>
  <path d="M137.827 19.7984H135.856L135.48 20.708H134.473L136.365 16.4629H137.335L139.233 20.708H138.203L137.827 19.7984ZM137.517 19.0524L136.844 17.4272L136.171 19.0524H137.517Z" fill="#333333"></path>
  <path d="M141.189 17.2634H139.831V16.4629H143.53V17.2634H142.172V20.708H141.189V17.2634Z" fill="#333333"></path>
  <path d="M148.194 19.9196V20.708H144.908V16.4629H148.116V17.2513H145.884V18.1731H147.855V18.9372H145.884V19.9196H148.194Z" fill="#333333"></path>
  <path d="M154.278 20.7808C153.671 20.7808 153.198 20.613 152.859 20.2774C152.523 19.9419 152.355 19.4628 152.355 18.8402V16.4629H153.338V18.8038C153.338 19.5639 153.653 19.9439 154.284 19.9439C154.591 19.9439 154.826 19.8529 154.987 19.671C155.149 19.485 155.23 19.196 155.23 18.8038V16.4629H156.2V18.8402C156.2 19.4628 156.03 19.9419 155.691 20.2774C155.355 20.613 154.884 20.7808 154.278 20.7808Z" fill="#333333"></path>
  <path d="M161.913 16.4629V20.708H161.107L158.99 18.1306V20.708H158.02V16.4629H158.833L160.943 19.0403V16.4629H161.913Z" fill="#333333"></path>
  <path d="M163.767 16.4629H164.749V20.708H163.767V16.4629Z" fill="#333333"></path>
  <path d="M170.663 16.4629L168.826 20.708H167.856L166.024 16.4629H167.085L168.377 19.4951L169.687 16.4629H170.663Z" fill="#333333"></path>
  <path d="M175.154 19.9196V20.708H171.867V16.4629H175.075V17.2513H172.843V18.1731H174.814V18.9372H172.843V19.9196H175.154Z" fill="#333333"></path>
  <path d="M179.489 20.708L178.671 19.5255H178.622H177.767V20.708H176.785V16.4629H178.622C178.998 16.4629 179.324 16.5256 179.598 16.6509C179.877 16.7762 180.092 16.9541 180.241 17.1846C180.391 17.415 180.466 17.6879 180.466 18.0033C180.466 18.3186 180.389 18.5915 180.235 18.822C180.086 19.0484 179.871 19.2222 179.592 19.3435L180.544 20.708H179.489ZM179.471 18.0033C179.471 17.7647 179.394 17.5828 179.241 17.4575C179.087 17.3281 178.863 17.2634 178.567 17.2634H177.767V18.7431H178.567C178.863 18.7431 179.087 18.6785 179.241 18.5491C179.394 18.4197 179.471 18.2378 179.471 18.0033Z" fill="#333333"></path>
  <path d="M183.488 20.7808C183.152 20.7808 182.827 20.7363 182.511 20.6474C182.2 20.5544 181.95 20.4351 181.76 20.2896L182.093 19.5497C182.275 19.6831 182.491 19.7903 182.742 19.8711C182.993 19.952 183.243 19.9924 183.494 19.9924C183.773 19.9924 183.979 19.952 184.113 19.8711C184.246 19.7862 184.313 19.675 184.313 19.5376C184.313 19.4365 184.272 19.3536 184.191 19.2889C184.115 19.2202 184.013 19.1656 183.888 19.1252C183.767 19.0848 183.601 19.0403 183.391 18.9918C183.067 18.915 182.803 18.8382 182.596 18.7613C182.39 18.6845 182.212 18.5612 182.063 18.3914C181.917 18.2216 181.844 17.9952 181.844 17.7122C181.844 17.4656 181.911 17.2432 182.045 17.0451C182.178 16.8429 182.378 16.6833 182.645 16.566C182.916 16.4488 183.245 16.3901 183.633 16.3901C183.904 16.3901 184.169 16.4225 184.428 16.4872C184.687 16.5519 184.913 16.6448 185.107 16.7661L184.804 17.5121C184.412 17.2897 184.02 17.1785 183.627 17.1785C183.352 17.1785 183.148 17.223 183.015 17.3119C182.885 17.4009 182.821 17.5181 182.821 17.6637C182.821 17.8092 182.896 17.9184 183.045 17.9912C183.199 18.0599 183.431 18.1286 183.743 18.1973C184.066 18.2742 184.331 18.351 184.537 18.4278C184.743 18.5046 184.919 18.6259 185.065 18.7917C185.214 18.9574 185.289 19.1818 185.289 19.4648C185.289 19.7074 185.22 19.9298 185.083 20.1319C184.949 20.33 184.747 20.4877 184.476 20.6049C184.205 20.7222 183.876 20.7808 183.488 20.7808Z" fill="#333333"></path>
  <path d="M186.809 16.4629H187.792V20.708H186.809V16.4629Z" fill="#333333"></path>
  <path d="M190.528 17.2634H189.169V16.4629H192.868V17.2634H191.51V20.708H190.528V17.2634Z" fill="#333333"></path>
  <path d="M196.207 19.204V20.708H195.224V19.1919L193.581 16.4629H194.624L195.758 18.349L196.892 16.4629H197.856L196.207 19.204Z" fill="#333333"></path>
</svg>
