<?xml version="1.0" encoding="utf-8"?>
<!-- Generator: Adobe Illustrator 24.3.0, SVG Export Plug-In . SVG Version: 6.00 Build 0)  -->
<svg version="1.1" id="Layer_1" xmlns="http://www.w3.org/2000/svg" xmlns:xlink="http://www.w3.org/1999/xlink" x="0px" y="0px"
	 viewBox="0 0 445 445" style="enable-background:new 0 0 445 445;" xml:space="preserve">
<style type="text/css">
	.st0{fill:#A60F2D;}
	.st1{fill:#4D4D4D;}
</style>
<path class="st0" d="M92.9,261.8c0,0,4-1.7,6.2-8.4c1.2,2.6,1.7,5.4,1.4,8.2C98.7,262.1,92.9,261.8,92.9,261.8"/>
<path class="st0" d="M114.5,223.8c0,0,2.4,13.4-6.2,13.8c-8.4,0.4-12.3-12.2-12.3-12.2s2,24.6,13.8,23
	C122.9,246.6,114.5,223.8,114.5,223.8"/>
<path class="st0" d="M50.7,258.6L50.7,258.6c9.8-2.2,17.3-13.7,19.5-18.2l1.4-2.9l0.8,3.1c0.7,2.7,1,5.4,1,8.1c0,0.5,0,1,0,1.5
	c3.4,0.1,5.8-0.6,7.3-2.1c2.2-2.2,2.8-6.4,2-12.9c-0.4-3.1-1.5-8-2.5-12.3c-0.5-2.2-1-4.3-1.3-5.8c-1.9-9.5,0.5-15.3,2.8-18.6
	c0.4-0.5,0.7-1,1.2-1.5c-7,2.4-13.3,6.4-18.4,11.7l4.1,4.8l1.7-1.6c0.9,3.7,1.1,7.6,0.5,11.4c-1.4-2.1-3-4.1-4.7-6l1.1-1.9l-3.7-4.3
	l-0.4-0.5c-2.6,3.5-4.7,7.3-6,11.4l3.2,3l1.9,1.7l0.6-1.8c2,3.9,2.2,8.6,0.3,12.6c-0.7-2-1.7-3.8-2.9-5.5l0.9-3l-4.8-4.3
	c-5,15.7-11.7,20.7-11.7,20.7c3.8-0.7,7.6-1.6,11.3-2.7C55.4,248.4,53.7,253.8,50.7,258.6"/>
<path class="st0" d="M123.9,202.1l-11.6,0.5c0,1.4-0.2,2.7-0.6,4c1.1,4.7,0.3,7.3,0.3,7.3c-1.9-4.5-3.4-5.8-3.4-5.8
	c-10.6-4.7-16.6,6-16,12.9c0.5,5.7,2.6,13.2,4.2,25c1.3,9.9-3.7,14.2-9.4,15.2l-0.4,0.1h-0.1c-1,0.1-2,0.2-3,0.1h-0.5
	c-0.5,0-0.9-0.1-1.3-0.1c-4.5-0.6-14.6-2.4-25-2.7c6.1-3.6,10.9-9.8,13.6-14.2c0.2,1.4,0.3,2.9,0.3,4.3c0,0.8,0,1.7-0.1,2.5
	l-0.1,1.2l1.2,0.1c4.8,0.4,8.2-0.5,10.4-2.8c2.7-2.8,3.6-7.5,2.6-14.9c-0.4-3.2-1.6-8.2-2.6-12.6c-0.5-2.2-1-4.3-1.3-5.7
	c-1.7-8.6,0.3-13.9,2.4-16.8c1.5-2.2,3.7-3.8,6.2-4.7h0.1l4-12.2H95l-2.7,11.7c0.6-0.1,1.2-0.2,1.9-0.3l3.4-10.8h1.2l-2.2,10.4
	c3.5-0.5,7.4-0.8,11.6-1.1c0.9,0.5,1.6,1.3,2.1,2.2l11.2-3.4l0.4,1.2l-10.7,4.1c0.1,0.2,0.2,0.4,0.2,0.7l11.7-1.4l0.2,1.2l-11.3,2.2
	c0,0.2,0.1,0.4,0.1,0.6l11.8,0.4L123.9,202.1z M90.3,207.3c3-1.9,6.5-2.8,10-2.6c1,0.1,1.8-0.2,0.7-0.7c-2.8-1.5-9.3-1-11.6,0.6
	c-2.3,1.6-3.4,4.4-3,7.1C87.4,210,88.7,208.5,90.3,207.3"/>
<rect x="137" y="198.9" class="st1" width="1.7" height="60.8"/>
<path class="st1" d="M162.2,246.8l-7.7-20h4.9l5.6,15.4l5.5-15.4h4.9l-7.7,20H162.2z"/>
<path class="st1" d="M191,246.8l-1.2-3.4h-8.6l-1.3,3.4H175l7.7-20h5.3l7.7,20H191z M185.4,231.1l-3.1,8.6h6.2L185.4,231.1z"/>
<path class="st1" d="M213,246.8l-9.5-13v13h-4.3v-20h4.4l9.3,12.6v-12.6h4.3v20H213z"/>
<path class="st1" d="M221.6,236.8c0-6.1,4.6-10.3,10.6-10.3c3.5-0.1,6.7,1.8,8.4,4.9l-3.7,1.8c-0.9-1.8-2.7-2.9-4.7-2.9
	c-3.6,0.2-6.4,3.3-6.2,6.9c0.2,3.3,2.9,6,6.2,6.2c2,0,3.8-1.1,4.7-2.9l3.7,1.8c-1.6,3.1-4.9,5-8.4,4.9
	C226.2,247.2,221.6,243,221.6,236.8z"/>
<path class="st1" d="M243.7,236.8c-0.1-5.8,4.6-10.5,10.3-10.6s10.5,4.6,10.6,10.3c0.1,5.8-4.6,10.5-10.3,10.6c0,0-0.1,0-0.1,0
	c-5.5,0.2-10.2-4-10.4-9.5C243.7,237.3,243.7,237.1,243.7,236.8z M260.2,236.8c0-3.8-2.4-6.6-6.1-6.6c-3.7,0-6.1,2.8-6.1,6.6
	s2.4,6.6,6.1,6.6C257.8,243.4,260.2,240.5,260.2,236.8L260.2,236.8z"/>
<path class="st1" d="M269.1,238.8v-12h4.3v11.9c-0.2,2.4,1.5,4.5,3.9,4.7c0.3,0,0.5,0,0.8,0c3.1,0,4.7-1.9,4.7-4.7v-11.9h4.4v12
	c0,5-2.9,8.4-9,8.4S269.1,243.7,269.1,238.8z"/>
<path class="st1" d="M298.2,246.8l-7.7-20h4.9l5.5,15.4l5.5-15.4h4.9l-7.7,20H298.2z"/>
<path class="st1" d="M314.6,246.8v-20h14.1v3.8h-9.9v4.2h9.7v3.8h-9.7v4.5h9.9v3.7H314.6z"/>
<path class="st1" d="M344.9,246.8l-3.9-7.1h-3.1v7.1h-4.3v-20h9.4c4.2,0,6.7,2.7,6.7,6.4c0.2,2.8-1.7,5.3-4.4,5.9l4.5,7.6H344.9z
	 M345.3,233.3c0-1.5-1.2-2.7-2.7-2.7c-0.1,0-0.2,0-0.3,0h-4.5v5.4h4.5c1.5,0.2,2.8-0.9,3-2.4C345.3,233.4,345.3,233.3,345.3,233.3
	L345.3,233.3z"/>
<path class="st1" d="M161.4,218.2l-1.6-5.9l-1.6,5.9h-1.5l-2.3-8h1.6l1.6,6.2l1.7-6.2h1.1l1.6,6.2l1.6-6.2h1.6l-2.3,8H161.4z"/>
<path class="st1" d="M173.6,218.2l-0.6-1.5h-3.7l-0.5,1.5h-1.6l3.1-8h1.8l3.1,8H173.6z M171.1,211.6l-1.4,3.8h2.9L171.1,211.6z"/>
<path class="st1" d="M177.8,217.1l0.8-1.1c0.7,0.7,1.6,1.1,2.5,1.1c1.1,0,1.6-0.6,1.6-1.1c0-1.7-4.7-0.6-4.7-3.6
	c0-1.3,1.2-2.3,2.9-2.3c1.1,0,2.2,0.4,3,1.1l-0.8,1c-0.6-0.6-1.4-0.9-2.3-0.9c-0.8,0-1.4,0.4-1.4,1c0,1.5,4.6,0.6,4.6,3.6
	c0,1.3-0.9,2.5-3.1,2.5C179.8,218.4,178.6,217.9,177.8,217.1z"/>
<path class="st1" d="M193.4,218.2v-3.5h-4.2v3.5h-1.4v-8h1.4v3.3h4.2v-3.3h1.4v8H193.4z"/>
<path class="st1" d="M198.9,218.2v-8h1.4v8H198.9z"/>
<path class="st1" d="M210,218.2l-4.2-5.7v5.7h-1.4v-8h1.4l4.1,5.6v-5.6h1.4v8H210z"/>
<path class="st1" d="M215.1,214.2c-0.1-2.2,1.6-4.1,3.9-4.1c0.1,0,0.2,0,0.3,0c1.3,0,2.5,0.6,3.2,1.7l-1.1,0.7
	c-0.5-0.7-1.2-1.1-2.1-1.1c-1.6,0.1-2.8,1.5-2.7,3.1c0.1,1.5,1.3,2.6,2.7,2.7c0.7,0,1.4-0.3,1.9-0.7v-1.3h-2.4v-1.2h3.8v3
	c-0.8,0.9-2,1.5-3.3,1.4c-2.2,0.1-4.1-1.6-4.2-3.8C215.1,214.5,215.1,214.4,215.1,214.2z"/>
<path class="st1" d="M228.3,218.2v-6.8h-2.4v-1.2h6.2v1.2h-2.4v6.8H228.3z"/>
<path class="st1" d="M235.1,214.2c0-2.3,1.9-4.1,4.1-4c2.3,0,4.1,1.9,4,4.1c0,2.2-1.9,4-4.1,4c-2.2,0.1-4-1.7-4.1-3.9
	C235.1,214.4,235.1,214.3,235.1,214.2z M241.8,214.2c-0.1-1.5-1.4-2.5-2.9-2.4c-1.5,0.1-2.5,1.4-2.4,2.9c0.1,1.4,1.3,2.4,2.7,2.4
	c1.5,0,2.7-1.2,2.7-2.7C241.8,214.4,241.8,214.3,241.8,214.2L241.8,214.2z"/>
<path class="st1" d="M252.6,218.2l-4.2-5.7v5.7H247v-8h1.4l4.1,5.6v-5.6h1.4v8H252.6z"/>
<path class="st1" d="M263,217.1l0.8-1.1c0.7,0.7,1.6,1.1,2.5,1.1c1.2,0,1.6-0.6,1.6-1.1c0-1.7-4.7-0.6-4.7-3.6
	c0-1.3,1.2-2.3,2.9-2.3c1.1,0,2.2,0.4,3,1.1l-0.8,1c-0.6-0.6-1.4-0.9-2.3-0.9c-0.8,0-1.4,0.4-1.4,1c0,1.5,4.6,0.6,4.6,3.6
	c0,1.3-0.9,2.5-3.1,2.5C265.1,218.4,263.9,217.9,263,217.1z"/>
<path class="st1" d="M274.9,218.2v-6.8h-2.4v-1.2h6.2v1.2h-2.4v6.8H274.9z"/>
<path class="st1" d="M287.1,218.2l-0.6-1.5h-3.7l-0.6,1.5h-1.6l3.1-8h1.8l3.1,8H287.1z M284.7,211.6l-1.4,3.8h2.9L284.7,211.6z"/>
<path class="st1" d="M293.1,218.2v-6.8h-2.4v-1.2h6.2v1.2h-2.4v6.8H293.1z"/>
<path class="st1" d="M300.5,218.2v-8h5.5v1.2h-4.1v2.1h4v1.3h-4v2.2h4.1v1.2L300.5,218.2z"/>
<path class="st1" d="M315.3,215.1v-4.9h1.4v4.8c0,1.1,0.9,2,2,2c1.1,0,2-0.9,2-2v-4.8h1.4v4.8c0,2-1.1,3.3-3.5,3.3
	S315.3,217,315.3,215.1z"/>
<path class="st1" d="M331.9,218.2l-4.2-5.7v5.7h-1.4v-8h1.4l4.1,5.6v-5.6h1.4v8H331.9z"/>
<path class="st1" d="M337.4,218.2v-8h1.4v8H337.4z"/>
<path class="st1" d="M345.2,218.2l-3.1-8h1.6l2.4,6.5l2.4-6.5h1.6l-3.1,8H345.2z"/>
<path class="st1" d="M353.4,218.2v-8h5.5v1.2h-4.1v2.1h4v1.3h-4v2.2h4.1v1.2L353.4,218.2z"/>
<path class="st1" d="M367.3,218.2l-1.8-3h-1.4v3h-1.4v-8h3.5c1.3-0.1,2.5,0.9,2.6,2.2c0,0.1,0,0.2,0,0.3c0.1,1.2-0.7,2.2-1.9,2.3
	l2,3.1H367.3z M367.4,212.7c0-0.7-0.5-1.3-1.2-1.3c0,0-0.1,0-0.1,0h-1.9v2.5h1.9c0.7,0.1,1.3-0.4,1.4-1.1
	C367.4,212.8,367.4,212.8,367.4,212.7z"/>
<path class="st1" d="M372.1,217.1l0.8-1.1c0.7,0.7,1.6,1.1,2.5,1.1c1.1,0,1.6-0.6,1.6-1.1c0-1.7-4.7-0.6-4.7-3.6
	c0-1.3,1.2-2.3,2.9-2.3c1.1,0,2.2,0.4,3,1.1l-0.8,1c-0.6-0.6-1.5-0.9-2.3-0.9c-0.8,0-1.4,0.4-1.4,1c0,1.5,4.6,0.6,4.6,3.6
	c0,1.3-0.9,2.5-3.1,2.5C374.2,218.4,373,217.9,372.1,217.1z"/>
<path class="st1" d="M382.2,218.2v-8h1.4v8H382.2z"/>
<path class="st1" d="M389.6,218.2v-6.8h-2.4v-1.2h6.2v1.2H391v6.8H389.6z"/>
<path class="st1" d="M399.3,218.2v-3.3l-3.1-4.7h1.6l2.2,3.4l2.2-3.4h1.6l-3.1,4.7v3.3H399.3z"/>
</svg>
