<?xml version="1.0" encoding="utf-8"?>
<!-- Generator: Adobe Illustrator 24.3.0, SVG Export Plug-In . SVG Version: 6.00 Build 0)  -->
<svg version="1.1" id="Layer_1" xmlns="http://www.w3.org/2000/svg" xmlns:xlink="http://www.w3.org/1999/xlink" x="0px" y="0px"
	 viewBox="0 0 445 445" style="enable-background:new 0 0 445 445;" xml:space="preserve">
<style type="text/css">
	.st0{fill:#A60F2D;}
	.st1{fill:#4D4D4D;}
</style>
<g>
	<path class="st0" d="M244.7,242c0,0,7.3-3.1,11.4-15.3c2.1,4.7,3,9.9,2.6,15C255.5,242.5,244.7,242,244.7,242"/>
	<path class="st0" d="M284.1,172.6c0,0,4.5,24.4-11.4,25.2c-15.3,0.8-22.5-22.2-22.5-22.2s3.7,44.9,25.1,42
		C299.6,214.2,284.2,172.6,284.1,172.6"/>
	<path class="st0" d="M167.7,236.2L167.7,236.2c17.9-4.1,31.6-24.9,35.6-33.3l2.6-5.3l1.5,5.7c1.2,4.9,1.7,9.8,1.7,14.8
		c0,0.9,0,1.9-0.1,2.8c6.2,0.2,10.6-1,13.3-3.9c3.9-4.1,5.1-11.7,3.7-23.5c-0.7-5.6-2.8-14.6-4.7-22.5c-0.9-4-1.8-7.9-2.4-10.6
		c-3.4-17.3,0.8-28,5-34c0.7-0.9,1.4-1.8,2.1-2.7c-12.4,4.2-22.8,10.6-33.5,21.3l7.5,8.7l3.1-2.9c1.7,6.8,2,13.9,0.8,20.8
		c-2.6-3.9-5.5-7.5-8.6-10.9l2-3.4l-6.8-7.9l-0.8-0.9c-8.3,11.5-11,20.8-11,20.8l5.9,5.4l3.4,3.1l1.1-3.4c3.7,7.2,3.9,15.7,0.6,23
		c-1-4.1-5.2-10.1-5.2-10.1l1.7-5.5l-8.8-8c-9.1,28.7-21.4,37.9-21.4,37.9s13.2-2.4,20.6-4.9C176.3,217.6,173.1,227.5,167.7,236.2"
		/>
	<path class="st0" d="M301.4,132.9l-21.1,0.9c0,2.5-0.3,5-1.1,7.4c2,8.6,0.6,13.3,0.6,13.3c-3.5-8.2-6.2-10.5-6.2-10.5
		c-19.4-8.6-30.3,10.9-29.2,23.5c1,10.3,4.7,24.1,7.6,45.6c2.5,18.1-6.7,26-17.3,27.8l-0.7,0.1h-0.2c-1.8,0.2-3.6,0.3-5.4,0.3
		c-0.1,0-0.1,0-0.2,0c-0.2,0-0.4,0-0.6,0c-0.8,0-1.6-0.1-2.4-0.2c-8.2-1.1-26.6-4.5-45.6-4.9c11.2-6.5,19.9-17.8,24.8-25.8
		c0.3,2.6,0.5,5.2,0.5,7.9c0,1.5,0,3-0.2,4.6l-0.2,2.2l2.2,0.2c8.7,0.8,14.9-0.9,19-5.1c5-5.2,6.5-13.8,4.8-27.1
		c-0.7-5.9-2.9-14.9-4.7-22.9c-0.9-4-1.8-7.9-2.3-10.4c-3.1-15.7,0.6-25.3,4.3-30.6c2.7-4,6.7-7,11.3-8.6h0.2l7.2-22.2h2.2
		l-4.9,21.3c1.1-0.2,2.2-0.4,3.4-0.6l6.2-19.6h2.2l-4,18.9c6.5-0.8,13.5-1.5,21.2-2c1.6,0.9,3,2.3,3.8,4L297,114l0.8,2.2l-19.5,7.5
		c0.2,0.4,0.3,0.8,0.4,1.2l21.3-2.6l0.4,2.2l-20.7,4.1c0.1,0.4,0.1,0.8,0.2,1.1l21.5,0.7L301.4,132.9z M240.1,142.4
		c5.4-3.5,11.9-5.2,18.3-4.8c1.7,0.1,3.2-0.3,1.3-1.3c-5.1-2.7-17-1.8-21.2,1.1c-6.7,4.6-5.6,12.8-5.4,13
		C234.9,147.3,237.2,144.6,240.1,142.4"/>
	<path class="st1" d="M88.8,274.1l-1.8-6.6l-1.7,6.6h-1.7l-2.6-9h1.8l1.8,6.9l1.9-6.9h1.3l1.9,6.9l1.7-6.9h1.8l-2.6,9H88.8z"/>
	<path class="st1" d="M102.5,274.1l-0.7-1.7h-4.1l-0.7,1.7h-1.8l3.5-9h2l3.5,9H102.5z M99.8,266.7l-1.6,4.3h3.2L99.8,266.7z"/>
	<path class="st1" d="M107.2,272.8l0.9-1.2c0.7,0.8,1.8,1.2,2.8,1.2c1.3,0,1.8-0.6,1.8-1.2c0-1.9-5.2-0.7-5.2-4
		c0-1.5,1.3-2.6,3.3-2.6c1.2,0,2.5,0.4,3.4,1.2l-0.9,1.2c-0.7-0.7-1.6-1-2.6-1c-0.9,0-1.5,0.4-1.5,1.1c0,1.7,5.2,0.6,5.2,4
		c0,1.5-1.1,2.8-3.5,2.8C109.5,274.3,108.2,273.8,107.2,272.8z"/>
	<path class="st1" d="M124.8,274.1v-3.9h-4.6v3.9h-1.6v-9h1.6v3.7h4.7v-3.7h1.6v9H124.8z"/>
	<path class="st1" d="M131,274.1v-9h1.6v9H131z"/>
	<path class="st1" d="M143.4,274.1l-4.7-6.4v6.4h-1.6v-9h1.6l4.6,6.2v-6.2h1.6v9H143.4z"/>
	<path class="st1" d="M149.1,269.6c-0.1-2.5,1.8-4.6,4.3-4.7c0.1,0,0.3,0,0.4,0c1.4,0,2.8,0.7,3.6,1.9l-1.3,0.7
		c-0.5-0.8-1.4-1.2-2.3-1.2c-1.8,0.1-3.2,1.6-3.1,3.4c0.1,1.6,1.4,3,3.1,3.1c0.8,0,1.5-0.3,2.1-0.8v-1.4h-2.7v-1.4h4.3v3.4
		c-0.9,1.1-2.3,1.7-3.7,1.6c-2.5,0.1-4.6-1.8-4.7-4.3C149.1,269.9,149.1,269.7,149.1,269.6z"/>
	<path class="st1" d="M164,274.1v-7.6h-2.7v-1.4h7v1.4h-2.7v7.6H164z"/>
	<path class="st1" d="M171.6,269.6c0-2.5,2.1-4.6,4.6-4.5c2.5,0,4.6,2.1,4.5,4.6c0,2.5-2.1,4.5-4.6,4.5c-2.5,0.1-4.5-1.9-4.6-4.4
		C171.6,269.8,171.6,269.7,171.6,269.6z M179.1,269.6c-0.1-1.6-1.6-2.9-3.2-2.7c-1.6,0.1-2.9,1.6-2.7,3.2c0.1,1.5,1.4,2.7,3,2.7
		c1.7,0,3-1.3,3-3C179.2,269.8,179.1,269.7,179.1,269.6z"/>
	<path class="st1" d="M191.2,274.1l-4.7-6.4v6.4H185v-9h1.6l4.6,6.2v-6.2h1.6v9H191.2z"/>
	<path class="st1" d="M203,272.8l0.9-1.2c0.7,0.8,1.7,1.2,2.8,1.2c1.3,0,1.8-0.6,1.8-1.2c0-1.9-5.2-0.7-5.2-4c0-1.5,1.3-2.6,3.3-2.6
		c1.2,0,2.5,0.4,3.4,1.2l-0.9,1.2c-0.7-0.7-1.6-1-2.6-1c-0.9,0-1.5,0.4-1.5,1.1c0,1.7,5.2,0.6,5.2,4c0,1.5-1.1,2.8-3.5,2.8
		C205.2,274.3,203.9,273.8,203,272.8z"/>
	<path class="st1" d="M216.3,274.1v-7.6h-2.7v-1.4h7v1.4h-2.7v7.6H216.3z"/>
	<path class="st1" d="M230,274.1l-0.7-1.7h-4.1l-0.6,1.7h-1.8l3.5-9h2l3.5,9H230z M227.3,266.7l-1.6,4.3h3.2L227.3,266.7z"/>
	<path class="st1" d="M236.7,274.1v-7.6H234v-1.4h7v1.4h-2.7v7.6H236.7z"/>
	<path class="st1" d="M245.1,274.1v-9h6.2v1.4h-4.6v2.3h4.5v1.4h-4.5v2.5h4.6v1.4L245.1,274.1z"/>
	<path class="st1" d="M261.7,270.5v-5.4h1.6v5.4c0,1.3,1,2.3,2.3,2.3s2.3-1,2.3-2.3v-5.4h1.6v5.4c0,2.2-1.3,3.7-3.9,3.7
		C263,274.2,261.7,272.8,261.7,270.5z"/>
	<path class="st1" d="M280.4,274.1l-4.7-6.4v6.4h-1.6v-9h1.6l4.6,6.2v-6.2h1.6v9H280.4z"/>
	<path class="st1" d="M286.5,274.1v-9h1.6v9H286.5z"/>
	<path class="st1" d="M295.3,274.1l-3.5-9h1.8l2.7,7.3l2.7-7.3h1.8l-3.5,9H295.3z"/>
	<path class="st1" d="M304.4,274.1v-9h6.2v1.4H306v2.3h4.5v1.4H306v2.5h4.6v1.4L304.4,274.1z"/>
	<path class="st1" d="M320.1,274.1l-2-3.4h-1.6v3.4h-1.6v-9h3.9c1.5-0.1,2.8,1,2.9,2.5c0,0.1,0,0.2,0,0.3c0.1,1.3-0.8,2.4-2.1,2.6
		l2.2,3.5H320.1z M320.2,267.9c0-0.8-0.6-1.4-1.4-1.4c0,0-0.1,0-0.1,0h-2.2v2.9h2.2c0.8,0.1,1.5-0.5,1.5-1.3
		C320.2,268,320.2,268,320.2,267.9L320.2,267.9z"/>
	<path class="st1" d="M325.5,272.8l0.9-1.2c0.7,0.8,1.8,1.2,2.8,1.2c1.3,0,1.8-0.6,1.8-1.2c0-1.9-5.2-0.7-5.2-4
		c0-1.5,1.3-2.6,3.3-2.6c1.2,0,2.5,0.4,3.4,1.2l-0.9,1.2c-0.7-0.7-1.6-1-2.6-1c-0.9,0-1.5,0.4-1.5,1.1c0,1.7,5.2,0.6,5.2,4
		c0,1.5-1,2.8-3.5,2.8C327.8,274.3,326.4,273.8,325.5,272.8z"/>
	<path class="st1" d="M336.8,274.1v-9h1.6v9H336.8z"/>
	<path class="st1" d="M345.1,274.1v-7.6h-2.7v-1.4h7v1.4h-2.7v7.6H345.1z"/>
	<path class="st1" d="M356,274.1v-3.7l-3.5-5.3h1.8l2.5,3.9l2.4-3.9h1.8l-3.5,5.3v3.7L356,274.1z"/>
	<path class="st1" d="M140.1,303l2.6-3.6c1.9,1.9,4.4,3,7.1,3c2.6,0,3.9-1.2,3.9-2.5c0-4-12.9-1.2-12.9-9.7c0-3.7,3.2-6.8,8.5-6.8
		c3.2-0.1,6.4,1,8.8,3.1l-2.7,3.5c-1.8-1.6-4.1-2.5-6.5-2.5c-2.1,0-3.2,0.9-3.2,2.2c0,3.6,12.9,1.1,12.9,9.6c0,4.1-2.9,7.2-9,7.2
		C146.1,306.7,142.7,305.4,140.1,303z"/>
	<path class="st1" d="M163.6,306.2v-22.5h10.5c4.9,0,7.5,3.3,7.5,7.2c0,3.9-2.7,7.2-7.5,7.2h-5.7v8L163.6,306.2z M176.7,291
		c0-1.7-1.3-3-3-3c-0.1,0-0.2,0-0.3,0h-5.1v6.1h5.1c1.7,0.1,3.1-1.1,3.3-2.8C176.7,291.1,176.7,291,176.7,291L176.7,291z"/>
	<path class="st1" d="M185.2,295c-0.1-6.5,5.1-11.8,11.6-11.9c6.5-0.1,11.8,5.1,11.9,11.6c0.1,6.5-5.1,11.8-11.6,11.9
		c0,0-0.1,0-0.1,0c-6.2,0.3-11.4-4.5-11.7-10.7C185.2,295.6,185.2,295.3,185.2,295z M203.8,295c0-4.2-2.7-7.4-6.8-7.4
		s-6.8,3.2-6.8,7.4c0,4.2,2.7,7.4,6.8,7.4S203.8,299.1,203.8,295z"/>
	<path class="st1" d="M227.1,306.2l-6.8-9l-1.8,2.1v6.9h-4.8v-22.5h4.8v10l8-10h5.9l-8.9,10.5l9.5,11.9H227.1z"/>
	<path class="st1" d="M252.4,306.2l-1.4-3.8h-9.6l-1.4,3.8h-5.5l8.7-22.5h6l8.7,22.5H252.4z M246.2,288.5l-3.5,9.7h7L246.2,288.5z"
		/>
	<path class="st1" d="M277.1,306.2l-10.7-14.6v14.6h-4.8v-22.5h4.9l10.4,14.1v-14.1h4.8v22.5H277.1z"/>
	<path class="st1" d="M287.8,306.2v-22.5h15.9v4.2h-11.1v4.8h10.9v4.2h-10.9v5.1h11.1v4.2H287.8z"/>
</g>
</svg>
