<svg width="920" height="550" viewBox="0 0 920 550" fill="none" xmlns="http://www.w3.org/2000/svg">
<rect width="920" height="550" fill="white"/>
<path d="M229.384 334.882C229.384 334.882 235.47 332.291 238.805 322.255C240.582 326.136 241.329 330.407 240.976 334.659C238.281 335.262 229.384 334.882 229.384 334.882Z" fill="white"/>
<path d="M262.073 277.482C262.073 277.482 265.784 297.655 252.637 298.345C239.952 299.004 233.979 279.977 233.979 279.977C233.979 279.977 237.044 317.159 254.828 314.709C274.849 311.956 262.073 277.482 262.073 277.482" fill="white"/>
<path d="M165.497 330.083C165.503 330.08 165.51 330.078 165.517 330.078C180.342 326.711 191.705 309.454 195.035 302.527L197.155 298.14L198.431 302.836C199.399 306.855 199.884 310.975 199.875 315.108C199.875 315.869 199.854 316.645 199.814 317.431C204.928 317.623 208.578 316.589 210.851 314.236C214.11 310.879 215.086 304.515 213.876 294.788C213.276 290.133 211.553 282.729 210.022 276.192C209.239 272.851 208.502 269.691 208.055 267.455C205.198 253.164 208.746 244.29 212.224 239.366C212.772 238.597 213.366 237.862 214.003 237.165C203.739 240.603 195.136 245.958 186.26 254.802L192.503 262.024L195.055 259.64C196.498 265.272 196.73 271.144 195.736 276.872C193.596 273.674 191.202 270.652 188.578 267.835L190.271 264.995L184.643 258.474L183.992 257.744C180.043 262.967 176.952 268.783 174.836 274.975L179.742 279.458L182.599 282.039L183.56 279.291C185.09 282.223 185.927 285.465 186.007 288.769C186.086 292.073 185.406 295.352 184.018 298.353C183.154 294.996 179.676 290.032 179.676 290.032L181.049 285.513L173.743 278.921C166.148 302.588 156 310.255 156 310.255C161.767 309.228 167.473 307.885 173.092 306.234C172.639 314.699 170.025 322.909 165.497 330.083" fill="white"/>
<path d="M276.334 244.697L258.794 245.438C258.824 247.516 258.508 249.584 257.859 251.559C259.496 258.699 258.357 262.573 258.357 262.573C255.423 255.763 253.192 253.871 253.192 253.871C237.08 246.736 228.031 262.872 229.002 273.283C229.79 281.838 232.906 293.192 235.332 311.007C237.375 325.998 229.765 332.478 221.01 333.964C220.822 333.99 220.629 334.025 220.435 334.066C220.389 334.064 220.343 334.067 220.298 334.076C218.799 334.263 217.289 334.338 215.779 334.299C215.724 334.286 215.667 334.281 215.611 334.284C215.433 334.284 215.265 334.258 215.087 334.258C214.406 334.218 213.735 334.147 213.069 334.066C206.256 333.128 191.004 330.364 175.249 329.984C184.517 324.588 191.767 315.242 195.814 308.624C196.092 310.792 196.232 312.975 196.236 315.161C196.236 316.388 196.195 317.681 196.068 319L195.915 320.805L197.73 320.957C204.98 321.586 210.12 320.206 213.481 316.753C217.588 312.483 218.854 305.368 217.461 294.334C216.861 289.496 215.097 281.99 213.557 275.373C212.789 272.061 212.062 268.917 211.62 266.747C209.012 253.709 212.128 245.793 215.204 241.452C217.482 238.152 220.761 235.668 224.559 234.363C224.62 234.352 224.681 234.337 224.747 234.327L230.736 216H232.617L228.595 233.612C229.526 233.45 230.471 233.303 231.427 233.156L236.597 216.918H238.458L235.072 232.643C240.426 231.959 246.232 231.426 252.668 230.955C254.032 231.706 255.135 232.854 255.83 234.246L272.709 229.068L273.334 230.884L257.198 237.126C257.325 237.456 257.452 237.801 257.554 238.151L275.195 235.965L275.49 237.851L258.372 241.259C258.433 241.579 258.484 241.898 258.54 242.218L276.344 242.791L276.334 244.697ZM225.514 252.563C230.029 249.658 235.359 248.275 240.721 248.617C242.149 248.724 243.359 248.349 241.819 247.537C237.594 245.316 227.746 246.072 224.264 248.44C222.596 249.639 221.292 251.273 220.497 253.164C219.703 255.055 219.447 257.129 219.759 259.155C221.181 256.571 223.144 254.323 225.514 252.563" fill="white"/>
<path d="M340.884 309.408C340.884 312.382 339.225 314.318 336.103 314.318C332.953 314.318 331.294 312.382 331.294 309.408V298.185H327.973V309.52C327.973 314.122 330.646 317.236 336.103 317.236C341.532 317.236 344.204 314.15 344.204 309.492V298.185H340.884V309.408Z" fill="white"/>
<path d="M379.593 311.176L370.003 298.186H366.626V316.9H369.917V303.544L379.706 316.9H382.885V298.186H379.593V311.176Z" fill="white"/>
<path d="M412.512 298.185H409.221V316.899H412.512V298.185Z" fill="white"/>
<path d="M446.977 313.337L441.295 298.186H437.554L444.924 316.9H449.029L456.399 298.186H452.659L446.977 313.337Z" fill="white"/>
<path d="M479.218 316.9H492.071V314.011H482.508V308.819H490.597V305.93H482.508V301.075H492.071V298.186H479.218V316.9Z" fill="white"/>
<path d="M559.505 303.151C559.505 301.748 560.742 300.822 562.683 300.822C564.705 300.787 566.657 301.554 568.112 302.955L569.997 300.513C569.055 299.638 567.949 298.956 566.742 298.508C565.535 298.061 564.251 297.855 562.964 297.905C558.858 297.905 556.129 300.289 556.129 303.376C556.129 310.278 567.072 307.837 567.072 311.765C567.072 312.999 566.002 314.318 563.303 314.318C562.188 314.319 561.086 314.09 560.065 313.646C559.043 313.202 558.124 312.552 557.366 311.737L555.539 314.262C556.528 315.264 557.719 316.047 559.032 316.56C560.346 317.072 561.753 317.303 563.162 317.236C568.224 317.236 570.419 314.571 570.419 311.456C570.419 304.47 559.505 306.63 559.505 303.151Z" fill="white"/>
<path d="M600.735 298.185H597.444V316.899H600.735V298.185Z" fill="white"/>
<path d="M627.872 301.075H633.554V316.9H636.845V301.075H642.527V298.186H627.872V301.075Z" fill="white"/>
<path d="M672.616 306.21L667.441 298.186H663.672L670.957 309.128V316.9H674.249V309.128L681.505 298.186H677.736L672.616 306.21Z" fill="white"/>
<path d="M533.18 316.9L528.506 309.408C529.67 309.094 530.69 308.389 531.394 307.413C532.098 306.437 532.444 305.249 532.373 304.049C532.401 303.25 532.26 302.453 531.958 301.712C531.657 300.971 531.201 300.302 530.622 299.748C530.044 299.194 529.354 298.769 528.599 298.5C527.844 298.23 527.04 298.123 526.241 298.185H518V316.9H521.29V309.913H525.22L529.382 316.9H533.18ZM521.29 307.023V301.075H525.791C526.201 301.046 526.612 301.101 527 301.237C527.387 301.373 527.743 301.587 528.044 301.866C528.344 302.145 528.584 302.483 528.748 302.859C528.912 303.234 528.997 303.64 528.997 304.049C528.997 304.459 528.912 304.865 528.748 305.24C528.584 305.616 528.344 305.954 528.044 306.233C527.743 306.512 527.387 306.726 527 306.862C526.612 306.998 526.201 307.053 525.791 307.023H521.29Z" fill="white"/>
<path d="M396.137 262.806C396.137 260.97 397.701 259.731 400.508 259.731C403.799 259.697 406.983 260.892 409.435 263.081L413.071 258.307C409.782 255.402 405.497 253.873 401.107 254.039C393.882 254.039 389.464 258.262 389.464 263.356C389.464 274.878 407.134 271.16 407.134 276.576C407.134 278.32 405.385 279.973 401.796 279.973C399.974 279.979 398.17 279.616 396.493 278.906C394.817 278.195 393.302 277.153 392.041 275.842L388.498 280.799C391.35 283.691 395.584 285.665 401.474 285.665C409.757 285.665 413.761 281.441 413.761 275.842C413.761 264.412 396.137 267.671 396.137 262.806Z" fill="white"/>
<path d="M438.993 266.524H424.499V254.498H417.965V285.114H424.499V272.261H438.993V285.114H445.575V254.498H438.993V266.524Z" fill="white"/>
<path d="M457.01 254.498H450.476V285.114H457.01V254.498Z" fill="white"/>
<path d="M482.788 273.73L468.569 254.498H461.851V285.114H468.385V265.147L483.019 285.114H489.322V254.498H482.788V273.73Z" fill="white"/>
<path d="M525.181 260.235H534.155V285.114H540.735V260.235H549.664V254.498H525.181V260.235Z" fill="white"/>
<path d="M565.413 253.993C556.164 253.993 549.399 260.603 549.399 269.829C549.399 279.055 556.164 285.665 565.413 285.665C574.709 285.665 581.473 279.055 581.473 269.829C581.473 260.603 574.709 253.993 565.413 253.993ZM565.413 279.881C559.754 279.881 556.118 275.521 556.118 269.829C556.118 264.091 559.754 259.776 565.413 259.776C571.073 259.776 574.755 264.091 574.755 269.829C574.755 275.521 571.073 279.881 565.413 279.881Z" fill="white"/>
<path d="M613.016 285.114V254.498H606.482V273.73L592.263 254.498H585.544V285.114H592.078V265.147L606.712 285.114H613.016Z" fill="white"/>
<path d="M645.148 262.806C645.148 260.97 646.712 259.731 649.518 259.731C652.809 259.697 655.994 260.892 658.446 263.081L662.082 258.307C658.793 255.402 654.508 253.873 650.118 254.039C642.893 254.039 638.475 258.262 638.475 263.356C638.475 274.878 656.145 271.16 656.145 276.576C656.145 278.32 654.396 279.973 650.807 279.973C648.985 279.979 647.181 279.616 645.504 278.906C643.827 278.195 642.313 277.153 641.051 275.842L637.508 280.799C640.361 283.691 644.595 285.665 650.485 285.665C658.768 285.665 662.772 281.441 662.772 275.842C662.772 264.412 645.148 267.671 645.148 262.806Z" fill="white"/>
<path d="M690.644 254.498H666.163V260.235H675.136V285.114H681.717V260.235H690.644V254.498Z" fill="white"/>
<path d="M728.469 285.114V260.235H737.397V254.498H712.914V260.235H721.889V285.114H728.469Z" fill="white"/>
<path d="M763.999 260.235V254.498H742.28V285.114H763.999V279.376H748.814V272.445H762.399V266.708H748.814V260.235H763.999Z" fill="white"/>
<path d="M377.604 254.541H369.772L358.836 285.161H366.23L368.403 278.83H378.982L381.102 285.161H388.498L377.604 254.541ZM370.221 272.584L373.688 262.225L377.154 272.584H370.221Z" fill="white"/>
<path d="M705.687 254.544H697.855L686.918 285.159H694.313L696.485 278.829H707.064L709.185 285.159H716.58L705.687 254.544ZM698.304 272.584L701.77 262.227L705.237 272.584H698.304Z" fill="white"/>
<path d="M525.186 266.901H509.826V272.609H518.399C517.997 274.688 516.871 276.558 515.22 277.888C513.569 279.219 511.5 279.925 509.378 279.88C503.719 279.88 500.083 275.52 500.083 269.828C500.083 264.091 503.719 259.776 509.378 259.776C510.877 259.734 512.363 260.074 513.694 260.763C515.025 261.453 516.158 262.469 516.986 263.716L522.703 260.622C521.204 258.506 519.202 256.792 516.877 255.635C514.552 254.478 511.975 253.914 509.378 253.993C500.13 253.993 493.364 260.602 493.364 269.828C493.364 279.054 500.13 285.664 509.378 285.664C517.708 285.664 523.988 280.349 525.207 272.609C525.522 270.719 525.515 268.789 525.186 266.901Z" fill="white"/>
<path d="M356.742 254.542L349.595 274.537L343.152 254.542H337.604L331.135 274.562L324.053 254.746L323.989 254.542H317.047L327.972 285.159H334.679L340.365 267.472L346.067 285.159H352.74L363.696 254.542H356.742Z" fill="white"/>
<path d="M297.443 239.809V331.621" stroke="white" stroke-miterlimit="10"/>
<path d="M485.158 394.978C485.158 394.978 497.396 389.753 504.103 369.52C507.677 377.344 509.18 385.956 508.469 394.528C503.05 395.745 485.158 394.978 485.158 394.978Z" fill="#A61D2F"/>
<path d="M550.897 279.25C550.897 279.25 558.361 319.922 531.921 321.313C506.411 322.642 494.398 284.28 494.398 284.28C494.398 284.28 500.563 359.245 536.328 354.307C576.591 348.755 550.897 279.25 550.897 279.25Z" fill="#A61D2F"/>
<path d="M356.676 385.303C356.689 385.297 356.703 385.293 356.717 385.293C386.531 378.504 409.382 343.71 416.079 329.744L420.343 320.9L422.909 330.368C424.856 338.471 425.831 346.777 425.813 355.111C425.813 356.644 425.772 358.209 425.69 359.793C435.976 360.182 443.317 358.096 447.887 353.352C454.441 346.583 456.404 333.752 453.971 314.142C452.764 304.756 449.298 289.828 446.221 276.649C444.646 269.911 443.164 263.542 442.264 259.033C436.518 230.221 443.654 212.328 450.648 202.4C451.751 200.851 452.946 199.369 454.226 197.963C433.584 204.895 416.284 215.692 398.432 233.523L410.988 248.082L416.12 243.277C419.022 254.632 419.489 266.471 417.49 278.019C413.186 271.571 408.372 265.478 403.095 259.8L406.499 254.074L395.181 240.925L393.872 239.453C379.957 258.562 375.458 274.195 375.458 274.195L385.325 283.234L391.071 288.438L393.003 282.896C403.626 302.762 393.923 321.329 393.923 321.329C392.185 314.561 385.192 304.551 385.192 304.551L387.952 295.442L373.26 282.15C357.985 329.867 337.577 345.326 337.577 345.326C337.577 345.326 359.651 341.349 371.951 337.218C371.04 354.286 365.782 370.838 356.676 385.303" fill="#A61D2F"/>
<path d="M579.578 213.149L544.304 214.642C544.364 218.831 543.728 223.002 542.423 226.983C545.715 241.379 543.425 249.19 543.425 249.19C537.525 235.459 533.037 231.645 533.037 231.645C500.636 217.259 482.437 249.793 484.39 270.784C485.974 288.032 492.242 310.924 497.119 346.842C501.229 377.065 485.923 390.132 468.317 393.128C467.939 393.179 467.55 393.25 467.162 393.332C467.069 393.329 466.977 393.335 466.886 393.353C463.871 393.73 460.833 393.881 457.796 393.803C457.686 393.777 457.572 393.767 457.459 393.772C457.101 393.772 456.764 393.721 456.406 393.721C455.036 393.639 453.686 393.496 452.347 393.332C438.646 391.441 407.973 385.869 376.288 385.102C394.927 374.223 409.507 355.38 417.645 342.037C418.204 346.408 418.488 350.81 418.494 355.216C418.494 357.69 418.412 360.298 418.157 362.956L417.85 366.596L421.5 366.902C436.08 368.17 446.417 365.389 453.175 358.427C461.436 349.818 463.982 335.473 461.181 313.225C459.974 303.471 456.426 288.339 453.328 274.996C451.784 268.32 450.322 261.981 449.433 257.605C444.188 231.318 450.455 215.358 456.641 206.606C461.223 199.953 467.816 194.943 475.454 192.312C475.576 192.292 475.699 192.261 475.832 192.241L487.876 155.29H491.659L483.572 190.799C485.443 190.472 487.345 190.175 489.267 189.879L499.665 157.141H503.407L496.598 188.846C507.364 187.466 519.04 186.392 531.984 185.441C534.08 186.28 536.35 188.703 538.343 192.077L572.288 181.638L573.546 185.298L541.094 197.884C541.349 198.549 541.605 199.244 541.81 199.95L577.288 195.543L577.881 199.347L543.456 206.217C543.578 206.861 543.681 207.505 543.793 208.15L579.599 209.305L579.578 213.149ZM477.376 229.007C486.455 223.151 497.175 220.363 507.957 221.053C510.83 221.267 513.263 220.511 510.165 218.875C501.669 214.397 481.864 215.92 474.861 220.695C463.645 228.343 465.546 241.972 465.802 242.299C468.661 237.089 472.608 232.555 477.376 229.007" fill="#A61D2F"/>
<path d="M636.098 197.962C636.098 197.962 643.561 238.634 617.121 240.025C591.612 241.354 579.598 202.992 579.598 202.992C579.598 202.992 585.763 277.957 621.528 273.019C661.791 267.467 636.098 197.962 636.098 197.962" fill="#D1D3D4"/>
<path d="M329.5 197.962C329.5 197.962 336.963 238.634 310.523 240.025C285.014 241.354 273 202.992 273 202.992C273 202.992 279.165 277.957 314.93 273.019C355.193 267.467 329.5 197.962 329.5 197.962" fill="#D1D3D4"/>
<path d="M502.293 395.435C502.293 395.435 509.757 436.107 483.317 437.497C457.807 438.827 445.793 400.465 445.793 400.465C445.793 400.465 451.959 475.43 487.723 470.491C527.987 464.939 502.293 395.435 502.293 395.435Z" fill="#D1D3D4"/>
<path d="M504.77 80.0001C504.77 80.0001 512.233 120.672 485.793 122.063C460.284 123.392 448.27 85.0304 448.27 85.0304C448.27 85.0304 454.435 159.995 490.2 155.057C530.463 149.505 504.77 80 504.77 80" fill="#D1D3D4"/>
<path d="M646.508 465.886V470.726H641.667" stroke="#D1D3D4" stroke-miterlimit="10"/>
<path d="M635.448 470.725H607.461" stroke="#D1D3D4" stroke-miterlimit="10" stroke-dasharray="5.78 3.85 5.78 3.85"/>
<path d="M604.351 470.725H280.95" stroke="#D1D3D4" stroke-miterlimit="10" stroke-dasharray="5.78 3.85 5.78 3.85 5.78 3.85"/>
<path d="M277.84 470.726H273V465.886" stroke="#D1D3D4" stroke-miterlimit="10"/>
<path d="M273 459.372V430.061" stroke="#D1D3D4" stroke-miterlimit="10" stroke-dasharray="6.06 4.04 6.06 4.04"/>
<path d="M273 426.804V88.0977" stroke="#D1D3D4" stroke-miterlimit="10" stroke-dasharray="6.06 4.04 6.06 4.04 6.06 4.04"/>
<path d="M273 84.8404V80H277.84" stroke="#D1D3D4" stroke-miterlimit="10"/>
<path d="M284.06 80H312.047" stroke="#D1D3D4" stroke-miterlimit="10" stroke-dasharray="5.78 3.85 5.78 3.85"/>
<path d="M315.156 80H638.557" stroke="#D1D3D4" stroke-miterlimit="10" stroke-dasharray="5.78 3.85 5.78 3.85 5.78 3.85"/>
<path d="M641.667 80H646.508V84.8404" stroke="#D1D3D4" stroke-miterlimit="10"/>
<path d="M646.507 91.3545V120.666" stroke="#D1D3D4" stroke-miterlimit="10" stroke-dasharray="6.06 4.04 6.06 4.04"/>
<path d="M646.507 123.922V462.628" stroke="#D1D3D4" stroke-miterlimit="10" stroke-dasharray="6.06 4.04 6.06 4.04 6.06 4.04"/>
<path d="M273 154.61H646.507" stroke="#D1D3D4" stroke-miterlimit="10" stroke-dasharray="6 4 6 4 6 4"/>
<path d="M273 395.896H646.507" stroke="#D1D3D4" stroke-miterlimit="10" stroke-dasharray="6 4 6 4 6 4"/>
<path d="M337.577 80V470.725" stroke="#D1D3D4" stroke-miterlimit="10" stroke-dasharray="6 4 6 4 6 4"/>
<path d="M579.598 80V470.725" stroke="#D1D3D4" stroke-miterlimit="10" stroke-dasharray="6 4 6 4 6 4"/>
</svg>
