<svg width="445" height="445" viewBox="0 0 445 445" fill="none" xmlns="http://www.w3.org/2000/svg">
<rect width="445" height="445" fill="#981E32"/>
<g clip-path="url(#clip0)">
<path d="M335.502 265.511L333.201 147.244L161.353 145L165.596 191.212H165.776L165.867 191.502L175.926 219.719L185.113 191.212H192.994L202.145 219.682L212.295 191.212H222.173L206.612 234.808H197.133L189.035 209.623L180.96 234.808H171.435L157.395 195.368L157.188 195.451L147.127 185.238L123.75 178.21L105.572 168.946L104 183.624L111.659 197.879L122.885 249.434L118.187 263.887L148.039 271.116L157.331 294.067L167.972 300L186.658 293.791L228.472 294.942L275.543 282.677L341.097 281.854L335.502 265.511ZM239.372 235.527C231.006 235.527 224.993 232.716 220.941 228.598L225.974 221.54C227.765 223.407 229.917 224.891 232.298 225.902C234.68 226.914 237.242 227.431 239.829 227.422C244.927 227.422 247.412 225.069 247.412 222.585C247.412 214.874 222.314 220.167 222.314 203.762C222.314 196.508 228.589 190.494 238.851 190.494C245.778 190.494 251.529 192.586 255.843 196.573L250.679 203.37C247.197 200.253 242.674 198.551 238 198.599C234.013 198.599 231.792 200.364 231.792 202.978C231.792 209.906 256.824 205.266 256.824 221.54C256.824 229.513 251.137 235.527 239.372 235.527ZM299.793 217.318C299.793 228.153 293.398 235.527 280.147 235.527C266.901 235.527 260.502 228.087 260.502 217.383V191.212H269.904V217.057C269.904 223.127 273.427 227.304 280.147 227.304C286.872 227.304 290.329 223.127 290.329 217.057V191.212H299.793L299.793 217.318Z" fill="white"/>
</g>
<defs>
<clipPath id="clip0">
<rect width="237.097" height="155" fill="white" transform="translate(104 145)"/>
</clipPath>
</defs>
</svg>
