<?xml version="1.0" encoding="UTF-8"?>
<svg xmlns="http://www.w3.org/2000/svg" width="325" height="66" viewBox="0 0 325 66" fill="none">
  <path d="M38.7836 64.9792C38.7836 64.9792 41.9989 63.5075 43.7623 57.8088C45.3145 61.2814 44.9093 64.8518 44.9093 64.8518C43.4856 65.194 38.7836 64.9792 38.7836 64.9792ZM56.0588 32.3877C56.0588 32.3877 58.0203 43.8424 51.0723 44.2328C44.368 44.6078 41.2109 33.804 41.2109 33.804C41.2109 33.804 42.8314 54.9157 52.2301 53.5245C62.8111 51.9615 56.0594 32.3877 56.0594 32.3877H56.0588ZM5.01894 62.2539C5.02374 62.2514 5.02974 62.2514 5.02974 62.2514C12.8643 60.3391 18.8693 50.5407 20.6291 46.6075L21.7497 44.117L22.4238 46.7837C22.4568 46.9278 23.1872 49.8698 23.1872 53.7515C23.1872 54.1824 23.177 54.623 23.1554 55.0701C25.8581 55.1794 27.7872 54.5922 28.9882 53.2562C30.7108 51.3498 31.227 47.7363 30.5872 42.2125C30.2697 39.5703 29.3592 35.367 28.5507 31.6551C28.1365 29.7576 27.747 27.9631 27.5105 26.6941C26.0004 18.5801 27.876 13.5407 29.7133 10.7447C30.0034 10.3086 30.3177 9.89146 30.6544 9.49561C25.2291 11.4477 20.6832 14.4881 15.9913 19.5102L19.2913 23.6106L20.6405 22.2567C21.919 27.3508 21.0007 32.041 21.0007 32.041C19.2643 29.2077 17.217 26.9102 17.217 26.9102L18.1113 25.2971L15.1372 21.5942L14.7933 21.1799C11.1369 26.5616 9.95384 30.9636 9.95384 30.9636L12.5467 33.5094L14.0569 34.9753L14.5652 33.4142C17.3562 39.0088 14.8071 44.2373 14.8071 44.2373C14.3504 42.3315 12.5119 39.5124 12.5119 39.5124L13.2382 36.9473L9.37644 33.2039C5.36225 46.6416 0 50.996 0 50.996C0 50.996 5.80041 49.8756 9.03312 48.7127C9.03312 48.7127 8.94429 55.7956 5.01894 62.2539Z" fill="#AE0C33"></path>
  <path d="M36.2102 20.6024C38.1444 19.2573 41.4353 18.2233 44.5238 18.4579C45.3049 18.5152 45.9662 18.312 45.1242 17.8704C42.8144 16.6633 37.431 17.0735 35.526 18.3612C32.4772 20.4238 32.9938 24.0987 33.0634 24.1874C33.6719 23.1342 34.7032 21.6475 36.2096 20.603L36.2102 20.6024ZM63.9953 16.327L54.4058 16.7292C54.4107 17.8482 54.2611 18.9839 53.8941 20.0567C54.7889 23.9392 54.1667 26.0448 54.1667 26.0448C52.5622 22.3422 51.3421 21.3143 51.3421 21.3143C42.5337 17.435 37.5856 26.208 38.1165 31.8679C38.548 36.5189 40.2512 42.6917 41.5775 52.3775C42.6951 60.5273 38.5337 64.0501 33.7476 64.8587C33.6421 64.873 33.5371 64.8911 33.4328 64.9129C33.4055 64.9129 33.3832 64.9129 33.3583 64.9191C32.5388 65.021 31.7127 65.0615 30.887 65.0404C30.8591 65.0318 30.8231 65.0318 30.7951 65.0318C30.6977 65.0318 30.6058 65.0182 30.5095 65.0182C30.137 64.9961 29.7694 64.9566 29.4055 64.9135C25.6806 64.403 17.3416 62.9009 8.72754 62.6939C13.7949 59.7606 17.7589 54.679 19.9712 51.0811C20.0997 52.0788 20.2022 53.2958 20.2022 54.6347C20.2022 55.3023 20.1798 56.005 20.1103 56.7225L20.0271 57.7042L21.0193 57.7861C24.9833 58.1279 27.7936 57.3784 29.6309 55.5012C31.8768 53.1794 32.5685 49.3117 31.8073 43.3119C31.4788 40.6822 30.5139 36.6014 29.6725 33.0035C29.2528 31.2033 28.8548 29.4943 28.6132 28.3143C27.1876 21.2256 28.8914 16.922 30.5729 14.5619C31.8818 12.715 33.6973 11.3588 35.6874 10.7078C35.7203 10.7023 35.7538 10.6937 35.7899 10.6887L39.0646 0.724609H40.0929L37.8948 10.3001C38.4033 10.2121 38.9206 10.1314 39.4427 10.0519L42.2692 1.22408H43.2875L41.4353 9.77295C44.3629 9.40097 47.5371 9.11151 51.0559 8.85531C51.6253 9.08133 52.2431 9.73477 52.7845 10.6444L62.0133 7.82989L62.3548 8.81651L53.5327 12.2099C53.6023 12.3898 53.6718 12.577 53.7271 12.7673L63.3725 11.5787L63.5339 12.6047L54.1748 14.4572C54.2083 14.6309 54.2362 14.8046 54.2667 14.9789L64.0003 15.2899L63.9953 16.327Z" fill="#AE0C33"></path>
  <path d="M36.2102 20.6024C38.1444 19.2573 41.4353 18.2233 44.5238 18.4579C45.3049 18.5152 45.9662 18.312 45.1242 17.8704C42.8144 16.6633 37.431 17.0735 35.526 18.3612C32.4772 20.4238 32.9938 24.0987 33.0634 24.1874C33.6719 23.1342 34.7032 21.6475 36.2096 20.603L36.2102 20.6024ZM63.9953 16.327L54.4058 16.7292C54.4107 17.8482 54.2611 18.9839 53.8941 20.0567C54.7889 23.9392 54.1667 26.0448 54.1667 26.0448C52.5622 22.3422 51.3421 21.3143 51.3421 21.3143C42.5337 17.435 37.5856 26.208 38.1165 31.8679C38.548 36.5189 40.2512 42.6917 41.5775 52.3775C42.6951 60.5273 38.5337 64.0501 33.7476 64.8587C33.6421 64.873 33.5371 64.8911 33.4328 64.9129C33.4055 64.9129 33.3832 64.9129 33.3583 64.9191C32.5388 65.021 31.7127 65.0615 30.887 65.0404C30.8591 65.0318 30.8231 65.0318 30.7951 65.0318C30.6977 65.0318 30.6058 65.0182 30.5095 65.0182C30.137 64.9961 29.7694 64.9566 29.4055 64.9135C25.6806 64.403 17.3416 62.9009 8.72754 62.6939C13.7949 59.7606 17.7589 54.679 19.9712 51.0811C20.0997 52.0788 20.2022 53.2958 20.2022 54.6347C20.2022 55.3023 20.1798 56.005 20.1103 56.7225L20.0271 57.7042L21.0193 57.7861C24.9833 58.1279 27.7936 57.3784 29.6309 55.5012C31.8768 53.1794 32.5685 49.3117 31.8073 43.3119C31.4788 40.6822 30.5139 36.6014 29.6725 33.0035C29.2528 31.2033 28.8548 29.4943 28.6132 28.3143C27.1876 21.2256 28.8914 16.922 30.5729 14.5619C31.8818 12.715 33.6973 11.3588 35.6874 10.7078C35.7203 10.7023 35.7538 10.6937 35.7899 10.6887L39.0646 0.724609H40.0929L37.8948 10.3001C38.4033 10.2121 38.9206 10.1314 39.4427 10.0519L42.2692 1.22408H43.2875L41.4353 9.77295C44.3629 9.40097 47.5371 9.11151 51.0559 8.85531C51.6253 9.08133 52.2431 9.73477 52.7845 10.6444L62.0133 7.82989L62.3548 8.81651L53.5327 12.2099C53.6023 12.3898 53.6718 12.577 53.7271 12.7673L63.3725 11.5787L63.5339 12.6047L54.1748 14.4572C54.2083 14.6309 54.2362 14.8046 54.2667 14.9789L64.0003 15.2899L63.9953 16.327Z" fill="#AE0C33"></path>
  <path d="M96.7142 51.1205C96.7142 52.7783 95.8155 53.8561 94.1247 53.8561C92.4184 53.8561 91.5198 52.7783 91.5198 51.1205V44.8693H89.7213V51.1842C89.7213 53.7463 91.1686 55.4817 94.1241 55.4817C97.0654 55.4817 98.512 53.7621 98.512 51.1678V44.8693H96.7142V51.1205ZM117.679 52.1062L112.484 44.8693H110.656V55.2943H112.438V47.8542L117.74 55.2943H119.462V44.8693H117.679V52.1062ZM133.725 55.2949H135.508V44.8693H133.725V55.2943V55.2949ZM154.174 53.3096L151.095 44.8693H149.07L153.062 55.2943H155.285L159.277 44.8693H157.251L154.174 53.3096ZM171.635 55.2949H178.597V53.6845H173.417V50.7917H177.798V49.1825H173.417V46.4785H178.597V44.8686H171.636V55.2937L171.635 55.2949ZM215.119 47.6352C215.119 46.8539 215.789 46.3384 216.84 46.3384C217.907 46.3384 218.988 46.7132 219.78 47.526L220.801 46.1661C219.857 45.2283 218.577 44.7128 216.993 44.7128C214.769 44.7128 213.29 46.0411 213.29 47.7608C213.29 51.6051 219.217 50.2458 219.217 52.4343C219.217 53.1216 218.637 53.8561 217.176 53.8561C215.759 53.8561 214.662 53.1847 213.96 52.4186L212.97 53.8252C213.869 54.8096 215.226 55.4823 217.098 55.4823C219.841 55.4823 221.029 53.9968 221.029 52.2614C221.029 48.3697 215.119 49.5731 215.119 47.6352H215.119ZM235.667 55.2949H237.449V44.8693H235.666V55.2943L235.667 55.2949ZM252.146 46.4791H255.223V55.2949H257.006V46.4791H260.084V44.8693H252.146V46.4791ZM276.379 49.339L273.577 44.8693H271.536L275.481 50.9646V55.2949H277.263V50.9646L281.194 44.8686H279.153L276.379 49.339ZM194.422 49.7928V46.4791H196.859C197.865 46.4791 198.596 47.1354 198.596 48.135C198.596 49.1365 197.865 49.7928 196.859 49.7928H194.422ZM200.862 55.2949L198.33 51.1205C199.431 50.8094 200.424 49.8357 200.424 48.1356C200.424 46.2134 199.114 44.8693 197.103 44.8693H192.64V55.2943H194.422V51.4026H196.55L198.805 55.2949H200.862ZM127.19 25.1602C127.19 24.1379 128.037 23.4462 129.556 23.4462C131.252 23.4462 133.046 24.0344 134.392 25.3129L136.36 22.6536C134.716 21.0943 132.522 20.2758 129.881 20.2758C125.967 20.2758 123.575 22.629 123.575 25.4669C123.575 31.8847 133.145 29.8142 133.145 32.8313C133.145 33.8031 132.198 34.7232 130.254 34.7232C129.267 34.7264 128.29 34.5241 127.382 34.1285C126.474 33.7329 125.654 33.1522 124.971 32.4217L123.052 35.1832C124.596 36.7949 126.889 37.8942 130.079 37.8942C134.566 37.8942 136.734 35.541 136.734 32.4217C136.734 26.0544 127.19 27.8699 127.19 25.1602ZM150.4 27.2307H142.551V20.5326H139.011V37.5875H142.551V30.4276H150.4V37.5875H153.965V20.5326H150.4V27.2313V27.2307ZM157.169 37.5869H160.708V20.5326H157.169V37.5875V37.5869ZM175.496 31.2454L167.794 20.5326H164.155V37.5875H167.695V26.4646L175.619 37.5875H179.034V20.5326H175.496V31.2461V31.2454ZM198.601 23.7277H203.462V37.5869H207.026V23.7277H211.86V20.532H198.601V23.7277ZM220.392 34.6714C217.326 34.6714 215.357 32.2431 215.357 29.0727C215.357 25.8758 217.326 23.4721 220.392 23.4721C223.457 23.4721 225.451 25.8764 225.451 29.0727C225.451 32.2431 223.457 34.6714 220.392 34.6714ZM220.392 20.2506C215.382 20.2506 211.718 23.9321 211.718 29.0727C211.718 34.2114 215.382 37.8942 220.392 37.8942C225.426 37.8942 229.09 34.2114 229.09 29.0721C229.09 23.9321 225.426 20.2506 220.392 20.2506ZM245.898 37.5869V20.5326H242.359V31.2461L234.658 20.5326H231.019V37.5875H234.559V26.4646L242.484 37.5875H245.898V37.5869ZM262.458 25.1602C262.458 24.1379 263.305 23.4462 264.826 23.4462C266.521 23.4462 268.315 24.0344 269.661 25.3129L271.63 22.6536C269.984 21.0943 267.791 20.2758 265.15 20.2758C261.237 20.2758 258.844 22.629 258.844 25.4669C258.844 31.8847 268.415 29.8142 268.415 32.8313C268.415 33.8031 267.467 34.7232 265.523 34.7232C264.536 34.7262 263.559 34.5238 262.651 34.1282C261.743 33.7326 260.923 33.1521 260.24 32.4217L258.321 35.1832C259.866 36.7949 262.159 37.8942 265.349 37.8942C269.835 37.8942 272.003 35.541 272.003 32.4217C272.003 26.0544 262.458 27.8699 262.458 25.1602ZM285.998 20.532H272.739V23.7277H277.599V37.5869H281.163V23.7277H285.999V20.532H285.998ZM306.485 37.5869V23.7277H311.319V20.532H298.06V23.7277H302.92V37.5869H306.485ZM324.627 23.7277V20.532H312.864V37.5869H324.627V34.3906H316.403V30.5292H323.76V27.3329H316.403V23.7277H324.627ZM112.877 30.6074L114.756 24.8371L116.633 30.6074H112.877ZM116.877 20.5566H112.635L106.712 37.614H110.716L111.893 34.0864H117.623L118.771 37.614H122.776L116.877 20.5566ZM290.147 30.6074L292.024 24.8377L293.902 30.6074H290.147ZM294.145 20.5572H289.904L283.981 37.6121H287.985L289.161 34.0864H294.891L296.04 37.6121H300.045L294.145 20.5572ZM198.604 27.4414H190.285V30.6213H194.929C194.386 32.9991 192.585 34.6714 190.042 34.6714C186.978 34.6714 185.008 32.2431 185.008 29.0727C185.008 25.8758 186.978 23.4721 190.042 23.4721C191.857 23.4721 193.291 24.3177 194.163 25.6675L197.26 23.9435C195.737 21.6584 193.153 20.2506 190.042 20.2506C185.034 20.2506 181.37 23.9321 181.37 29.0727C181.37 34.2114 185.034 37.8942 190.042 37.8942C194.554 37.8942 197.956 34.9333 198.616 30.6213C198.692 30.1209 198.741 29.6066 198.741 29.0727C198.741 28.5092 198.69 27.9671 198.604 27.4414ZM105.303 20.5566L101.431 31.6947L97.9425 20.5566H94.9372L91.4337 31.7092L87.598 20.6702L87.5636 20.5566H83.8042L89.7213 37.6121H93.3534L96.4331 27.7595L99.5208 37.6121H103.136L109.069 20.5566H105.303ZM73.891 63.4961H72.4824V12.3491H73.891V63.4961Z" fill="black"></path>
</svg>
