<svg id="Layer_1" data-name="Layer 1" xmlns="http://www.w3.org/2000/svg" viewBox="0 0 2601.81 591.85"><defs><style>.cls-1{fill:#f8485e;}</style></defs><path class="cls-1" d="M593.18,295.93H444.89V0L296.59,148V443.89H148.3v-148L0,443.89v148H148.3l148.29-148h148.3Z"/><path d="M739,445.08V147.53h60.44v244.8H930.64v52.72H739Zm278.85,0V230.47H959.76V445.08Zm10.34-286.32a39.39,39.39,0,1,0-39.39,39.06A39.28,39.28,0,0,0,1028.17,158.76Zm145.36,366.59c63.31,0,112.91-42.8,112.91-97.43V210.52H1233.1v32.61l-8-8.73c-15.11-16.51-42.93-28.05-67.65-28.05-62.83,0-106.73,46.9-106.73,114s45.69,112.19,108.64,112.19c21.31,0,46.16-9.36,61.84-23.28l7.67-6.82v29.57c0,39.79-22.85,47.93-57.17,47.93h-80.83l-6.66,45.34Zm55.27-225.7v37.84c0,32.58-18.85,48.39-57.64,48.39S1113,370,1113,337.49V299.65c0-32.58,19-48.39,58.13-48.39S1228.8,267.11,1228.8,299.65Zm323.84,145.43V296.41c0-51.59-35.69-90.52-83.05-90.52-28.72,0-54.6,11.24-72.85,31.68l-8,9v-99h-58.07V445.08h58.07V298.73c0-30.4,17.78-45.18,54.34-45.18s52,13.62,52,42.86V445.08h57.64Zm413.13-88.27H1905c-3.3,35-18.11,47.52-54.93,47.52s-54.81-17.86-54.81-56.26V307c0-37.74,17.41-55.34,54.81-55.34s51.63,11.88,54.93,46.6h60.77c-12.24-56.32-56.57-92.41-114.27-92.41-67.88,0-119,52.2-119,121.42s51.16,122.34,119,122.34c57.74,0,102.06-36.25,114.27-92.87ZM2157.6,426.4l7.67-6.82v28.91h57.6v-237h-53.33v32.61l-8-8.73c-15.11-16.5-42.93-28-67.64-28-60.84,0-106.74,51.63-106.74,120.09s48.74,122.27,108.64,122.27c21.31,0,46.16-9.35,61.84-23.28Zm7.67-125.79v54c0,32.58-18.85,48.39-57.64,48.39s-58.14-15.85-58.14-48.39v-54c0-32.58,19-48.39,58.14-48.39S2165.27,268.07,2165.27,300.61Zm294.59,69.19c0-35.42-27.32-59.26-73.05-63.76l-46.06-4.17c-19.52-2.15-32.52-7-32.52-23.91V271c0-26.26,33.42-26.26,44.39-26.26,27.62,0,44.33,5.13,46.53,30.46h56c-8.8-40.48-51-69.35-102.53-69.35s-98.7,35.75-98.7,78.05c0,35.85,30.16,61.42,76.82,65.16l36,3.24c23.95,2.22,37.79,6.75,37.79,23.45v8.3c0,24-28.58,26.73-50.06,26.73-32.82,0-49.57-5-52.57-32.32h-56.17c8.91,42.17,53.14,71.18,109.67,71.18,59.51,0,104.37-34.37,104.37-79.91Zm141.89,77.6V397.45h-33.29c-15.58,0-24.48-8.73-24.48-23.94V256.33h49.76V210.52H2544V130.91l-57.6,16.62V373c0,46.57,30.85,74.36,82.58,74.36h32.82Zm-891.27,0V397.45h-33.33c-15.57,0-24.48-8.73-24.48-23.94V256.33h49.77V210.52h-49.73V130.91l-57.61,16.62V373c0,46.57,30.86,74.36,82.59,74.36h32.82Z"/></svg>