<svg width="445" height="200" viewBox="0 0 445 200" fill="none" xmlns="http://www.w3.org/2000/svg">
<rect width="445" height="200" fill="#F3F3F3"/>
<path d="M71.9922 97.7422C75 97.9635 77.2331 98.7122 78.6914 99.9883C80.1497 101.264 80.8789 102.859 80.8789 104.773C80.8789 106.44 80.3841 107.879 79.3945 109.09C78.4049 110.288 77.1354 111.076 75.5859 111.453C74.0495 111.818 71.9857 112 69.3945 112H59.0039V111.102H60.0195C61.1523 111.102 61.9336 110.958 62.3633 110.672C62.806 110.385 63.0859 109.943 63.2031 109.344C63.3203 108.732 63.3789 107.319 63.3789 105.105V92.2148C63.3789 90.0664 63.3138 88.6797 63.1836 88.0547C63.0664 87.4297 62.806 87 62.4023 86.7656C62.0117 86.5312 61.1458 86.4141 59.8047 86.4141H59.2969V85.5156L63.6523 85.3984L68.6133 85.2422C75.8529 85.2422 79.4727 87.3255 79.4727 91.4922C79.4727 93.2109 78.8477 94.5911 77.5977 95.6328C76.3607 96.6745 74.4922 97.3776 71.9922 97.7422ZM67.207 97.3711C67.5326 97.3841 67.806 97.3906 68.0273 97.3906C70.8398 97.3906 72.7604 96.9479 73.7891 96.0625C74.8177 95.1771 75.332 93.7448 75.332 91.7656C75.332 90.3854 75.1302 89.3177 74.7266 88.5625C74.3229 87.8073 73.7174 87.2279 72.9102 86.8242C72.1029 86.4076 70.7227 86.1992 68.7695 86.1992C68.2617 86.1992 67.7409 86.2188 67.207 86.2578V97.3711ZM67.207 98.3281V104.227C67.207 106.74 67.2526 108.335 67.3438 109.012C67.4349 109.689 67.6758 110.203 68.0664 110.555C68.4701 110.906 69.2578 111.082 70.4297 111.082C72.513 111.082 74.0755 110.548 75.1172 109.48C76.1589 108.413 76.6797 106.811 76.6797 104.676C76.6797 102.488 76.0872 100.88 74.9023 99.8516C73.7305 98.8099 71.6602 98.2891 68.6914 98.2891C68.2227 98.2891 67.7279 98.3021 67.207 98.3281ZM100.293 109.07H101.016C100.898 111.297 99.8047 112.41 97.7344 112.41C96.849 112.41 96.1458 112.176 95.625 111.707C95.1172 111.238 94.7852 110.542 94.6289 109.617C93.3268 110.542 92.1354 111.238 91.0547 111.707C89.987 112.176 89.0299 112.41 88.1836 112.41C87.1029 112.41 86.1719 112.098 85.3906 111.473C84.6094 110.848 84.2188 110.021 84.2188 108.992C84.2188 107.651 84.8698 106.479 86.1719 105.477C87.487 104.474 89.2969 103.497 91.6016 102.547L94.6289 101.316V100.535C94.6289 99.4284 94.5573 98.6276 94.4141 98.1328C94.2708 97.638 93.8997 97.1953 93.3008 96.8047C92.7018 96.4141 91.9141 96.2188 90.9375 96.2188C88.9844 96.2188 87.8971 96.8698 87.6758 98.1719C87.4674 99.5 86.9206 100.164 86.0352 100.164C85.2409 100.164 84.8438 99.7865 84.8438 99.0312C84.8438 98.2891 85.3711 97.4948 86.4258 96.6484C87.4805 95.7891 89.1211 95.3594 91.3477 95.3594C93.0013 95.3594 94.2839 95.6198 95.1953 96.1406C96.1068 96.6615 96.7057 97.2539 96.9922 97.918C97.2917 98.582 97.4414 99.5977 97.4414 100.965V107.43C97.4414 108.94 97.5195 109.91 97.6758 110.34C97.832 110.77 98.1706 110.984 98.6914 110.984C99.5508 110.984 100.085 110.346 100.293 109.07ZM94.6289 102.234L92.5 103.094C89.1406 104.461 87.4609 106.18 87.4609 108.25C87.4609 109.07 87.6758 109.734 88.1055 110.242C88.5352 110.737 89.0951 110.984 89.7852 110.984C90.3971 110.984 91.1068 110.783 91.9141 110.379C92.7214 109.975 93.6263 109.37 94.6289 108.562V102.234ZM103.047 112.508V107.254H103.809C104.694 110.288 106.276 111.805 108.555 111.805C109.544 111.805 110.28 111.505 110.762 110.906C111.257 110.307 111.504 109.65 111.504 108.934C111.504 108.1 111.243 107.417 110.723 106.883C110.189 106.349 109.154 105.704 107.617 104.949C106.003 104.155 104.844 103.374 104.141 102.605C103.438 101.85 103.086 100.919 103.086 99.8125C103.086 98.7578 103.464 97.7552 104.219 96.8047C104.974 95.8411 106.035 95.3594 107.402 95.3594C108.796 95.3594 109.948 95.9258 110.859 97.0586C111.055 96.8633 111.309 96.388 111.621 95.6328H112.344V100.574H111.621C111.361 99.3893 110.853 98.3737 110.098 97.5273C109.355 96.668 108.477 96.2383 107.461 96.2383C106.68 96.2383 106.048 96.4792 105.566 96.9609C105.085 97.4427 104.844 98.0026 104.844 98.6406C104.844 99.3438 105.111 99.9492 105.645 100.457C106.165 100.978 107.161 101.57 108.633 102.234C110.846 103.237 112.201 104.214 112.695 105.164C113.19 106.128 113.438 107.052 113.438 107.938C113.438 109.331 112.975 110.464 112.051 111.336C111.139 112.208 109.987 112.645 108.594 112.645C107.122 112.645 105.814 112.039 104.668 110.828C104.316 111.219 104.03 111.779 103.809 112.508H103.047ZM125.352 96.0039H131.797V96.9023C130.612 96.9284 129.023 97.8138 127.031 99.5586C126.393 100.105 125.404 100.906 124.062 101.961L129.766 108.641C130.625 109.643 131.302 110.301 131.797 110.613C132.292 110.913 132.799 111.076 133.32 111.102V112H125.352V111.102C126.68 111.076 127.344 110.789 127.344 110.242C127.344 109.995 126.908 109.363 126.035 108.348L121.934 103.582L121.094 104.207V106.512C121.094 108.217 121.113 109.292 121.152 109.734C121.204 110.164 121.393 110.503 121.719 110.75C122.044 110.984 122.611 111.102 123.418 111.102V112H115.312V111.102H115.918C116.855 111.102 117.461 110.971 117.734 110.711C118.021 110.438 118.184 110.118 118.223 109.754C118.262 109.376 118.281 108.296 118.281 106.512V90.4766C118.281 88.9271 118.132 87.9375 117.832 87.5078C117.546 87.0781 116.842 86.8633 115.723 86.8633V85.9648C116.491 85.9648 117.409 85.8737 118.477 85.6914C119.557 85.5091 120.293 85.3268 120.684 85.1445H121.094V103.133L122.773 101.961C125.495 100.034 126.855 98.6471 126.855 97.8008C126.855 97.2279 126.354 96.9284 125.352 96.9023V96.0039ZM149.121 101.414H137.969C137.917 102.182 137.891 102.755 137.891 103.133C137.891 105.945 138.327 108.061 139.199 109.48C140.085 110.887 141.4 111.59 143.145 111.59C145.514 111.59 147.194 110.529 148.184 108.406H149.121C148.704 109.734 147.878 110.776 146.641 111.531C145.404 112.273 144.056 112.645 142.598 112.645C141.243 112.645 139.961 112.306 138.75 111.629C137.552 110.939 136.569 109.969 135.801 108.719C135.033 107.469 134.648 105.952 134.648 104.168C134.648 101.642 135.391 99.5456 136.875 97.8789C138.359 96.1992 140.215 95.3594 142.441 95.3594C144.538 95.3594 146.159 95.9974 147.305 97.2734C148.451 98.5495 149.056 99.9297 149.121 101.414ZM145.703 100.633C145.742 100.333 145.762 100.066 145.762 99.832C145.762 98.6862 145.423 97.8008 144.746 97.1758C144.082 96.5378 143.262 96.2188 142.285 96.2188C139.915 96.2188 138.503 97.6901 138.047 100.633H145.703ZM157.305 99.4414C157.747 98.2826 158.464 97.3125 159.453 96.5312C160.456 95.75 161.432 95.3594 162.383 95.3594C163.242 95.3594 163.919 95.6263 164.414 96.1602C164.909 96.694 165.156 97.2409 165.156 97.8008C165.156 98.1784 165.026 98.5039 164.766 98.7773C164.518 99.0508 164.212 99.1875 163.848 99.1875C163.197 99.1875 162.702 98.7057 162.363 97.7422C162.129 97.0911 161.777 96.7656 161.309 96.7656C160.749 96.7656 160.078 97.1497 159.297 97.918C158.516 98.6732 158.014 99.4609 157.793 100.281C157.572 101.102 157.461 102.228 157.461 103.66V106.512C157.461 108.217 157.48 109.292 157.52 109.734C157.572 110.177 157.76 110.516 158.086 110.75C158.411 110.984 158.991 111.102 159.824 111.102H160.371V112H151.875V111.102H152.285C153.066 111.102 153.62 110.997 153.945 110.789C154.284 110.568 154.486 110.262 154.551 109.871C154.616 109.48 154.648 108.361 154.648 106.512V102C154.648 100.281 154.622 99.207 154.57 98.7773C154.531 98.3346 154.349 97.9961 154.023 97.7617C153.698 97.5143 153.118 97.3906 152.285 97.3906H151.875V96.5117C153.099 96.3685 154.701 95.9844 156.68 95.3594C157.057 96.388 157.266 97.7487 157.305 99.4414ZM174.961 112.645H173.828L168.145 99.8125C167.585 98.5755 167.142 97.7878 166.816 97.4492C166.491 97.1107 165.957 96.9284 165.215 96.9023V96.0039H172.441V96.9023C171.647 96.9023 171.1 96.9674 170.801 97.0977C170.514 97.2279 170.371 97.4753 170.371 97.8398C170.371 98.1263 170.632 98.8229 171.152 99.9297L175.469 109.637L179.355 100.984C179.967 99.6042 180.273 98.7057 180.273 98.2891C180.273 97.4167 179.622 96.9544 178.32 96.9023V96.0039H183.711V96.9023C183.047 96.9414 182.487 97.2214 182.031 97.7422C181.589 98.25 180.964 99.4023 180.156 101.199L174.961 112.645ZM186.289 87.1953C186.289 86.6354 186.484 86.1536 186.875 85.75C187.279 85.3464 187.76 85.1445 188.32 85.1445C188.88 85.1445 189.355 85.3464 189.746 85.75C190.137 86.1536 190.332 86.6354 190.332 87.1953C190.332 87.7682 190.137 88.2565 189.746 88.6602C189.355 89.0638 188.88 89.2656 188.32 89.2656C187.76 89.2656 187.279 89.0638 186.875 88.6602C186.484 88.2565 186.289 87.7682 186.289 87.1953ZM190.059 95.3594V106.512C190.059 108.217 190.085 109.292 190.137 109.734C190.189 110.177 190.378 110.516 190.703 110.75C191.029 110.984 191.608 111.102 192.441 111.102H192.852V112H184.238V111.102H184.902C185.827 111.102 186.426 110.971 186.699 110.711C186.986 110.438 187.148 110.118 187.188 109.754C187.24 109.376 187.266 108.296 187.266 106.512V101.668C187.266 99.793 187.174 98.6471 186.992 98.2305C186.823 97.8138 186.589 97.5534 186.289 97.4492C186.003 97.3451 185.495 97.293 184.766 97.293H184.238V96.3945C186.556 96.1602 188.353 95.8151 189.629 95.3594H190.059ZM199.746 85.1445V106.512C199.746 108.217 199.766 109.292 199.805 109.734C199.857 110.177 200.046 110.516 200.371 110.75C200.697 110.984 201.276 111.102 202.109 111.102H202.578V112H194.023V111.102H194.57C195.352 111.102 195.905 110.997 196.23 110.789C196.569 110.568 196.771 110.262 196.836 109.871C196.901 109.48 196.934 108.361 196.934 106.512V90.6914C196.934 89.0117 196.784 87.957 196.484 87.5273C196.185 87.0846 195.456 86.8633 194.297 86.8633V85.9648C195.091 85.9648 196.022 85.8737 197.09 85.6914C198.171 85.5091 198.913 85.3268 199.316 85.1445H199.746ZM209.355 85.1445V106.512C209.355 108.217 209.375 109.292 209.414 109.734C209.466 110.177 209.655 110.516 209.98 110.75C210.306 110.984 210.885 111.102 211.719 111.102H212.188V112H203.633V111.102H204.18C204.961 111.102 205.514 110.997 205.84 110.789C206.178 110.568 206.38 110.262 206.445 109.871C206.51 109.48 206.543 108.361 206.543 106.512V90.6914C206.543 89.0117 206.393 87.957 206.094 87.5273C205.794 87.0846 205.065 86.8633 203.906 86.8633V85.9648C204.701 85.9648 205.632 85.8737 206.699 85.6914C207.78 85.5091 208.522 85.3268 208.926 85.1445H209.355ZM228.809 101.414H217.656C217.604 102.182 217.578 102.755 217.578 103.133C217.578 105.945 218.014 108.061 218.887 109.48C219.772 110.887 221.087 111.59 222.832 111.59C225.202 111.59 226.882 110.529 227.871 108.406H228.809C228.392 109.734 227.565 110.776 226.328 111.531C225.091 112.273 223.743 112.645 222.285 112.645C220.931 112.645 219.648 112.306 218.438 111.629C217.24 110.939 216.257 109.969 215.488 108.719C214.72 107.469 214.336 105.952 214.336 104.168C214.336 101.642 215.078 99.5456 216.562 97.8789C218.047 96.1992 219.902 95.3594 222.129 95.3594C224.225 95.3594 225.846 95.9974 226.992 97.2734C228.138 98.5495 228.743 99.9297 228.809 101.414ZM225.391 100.633C225.43 100.333 225.449 100.066 225.449 99.832C225.449 98.6862 225.111 97.8008 224.434 97.1758C223.77 96.5378 222.949 96.2188 221.973 96.2188C219.603 96.2188 218.19 97.6901 217.734 100.633H225.391ZM242.383 98.582C242.383 94.4935 243.75 91.2122 246.484 88.7383C249.219 86.2643 252.63 85.0273 256.719 85.0273C260.846 85.0273 264.29 86.2513 267.051 88.6992C269.824 91.1471 271.211 94.487 271.211 98.7188C271.211 102.82 269.883 106.141 267.227 108.68C264.583 111.219 261.1 112.488 256.777 112.488C252.572 112.488 249.121 111.219 246.426 108.68C243.73 106.141 242.383 102.775 242.383 98.582ZM246.855 98.7188C246.855 102.977 247.702 106.173 249.395 108.309C251.1 110.444 253.652 111.512 257.051 111.512C260.033 111.512 262.389 110.444 264.121 108.309C265.853 106.173 266.719 102.99 266.719 98.7578C266.719 94.6432 265.866 91.4922 264.16 89.3047C262.454 87.1042 259.98 86.0039 256.738 86.0039C253.548 86.0039 251.1 87.0781 249.395 89.2266C247.702 91.362 246.855 94.526 246.855 98.7188ZM279.395 85.1445V106.512C279.395 108.217 279.414 109.292 279.453 109.734C279.505 110.177 279.694 110.516 280.02 110.75C280.345 110.984 280.924 111.102 281.758 111.102H282.227V112H273.672V111.102H274.219C275 111.102 275.553 110.997 275.879 110.789C276.217 110.568 276.419 110.262 276.484 109.871C276.549 109.48 276.582 108.361 276.582 106.512V90.6914C276.582 89.0117 276.432 87.957 276.133 87.5273C275.833 87.0846 275.104 86.8633 273.945 86.8633V85.9648C274.74 85.9648 275.671 85.8737 276.738 85.6914C277.819 85.5091 278.561 85.3268 278.965 85.1445H279.395ZM297.891 97.7031V91.4531C297.891 89.7474 297.865 88.6732 297.812 88.2305C297.773 87.7878 297.591 87.4492 297.266 87.2148C296.94 86.9805 296.361 86.8633 295.527 86.8633H295.117V85.9648C296.693 85.9258 298.418 85.6523 300.293 85.1445H300.703V106.648C300.703 108.51 300.736 109.643 300.801 110.047C300.866 110.451 301.068 110.75 301.406 110.945C301.758 111.141 302.402 111.238 303.34 111.238V112.137C301.452 112.176 299.772 112.345 298.301 112.645C298.145 112.033 298.066 111.069 298.066 109.754C297.103 110.717 296.107 111.44 295.078 111.922C294.062 112.404 293.008 112.645 291.914 112.645C289.844 112.645 288.053 111.811 286.543 110.145C285.046 108.478 284.297 106.46 284.297 104.09C284.297 101.486 285.065 99.3828 286.602 97.7812C288.138 96.1667 289.967 95.3594 292.09 95.3594C293.171 95.3594 294.193 95.5547 295.156 95.9453C296.12 96.3359 297.031 96.9219 297.891 97.7031ZM297.891 98.8359C297.031 98.0938 296.165 97.5404 295.293 97.1758C294.434 96.7982 293.568 96.6094 292.695 96.6094C291.224 96.6094 289.993 97.1758 289.004 98.3086C288.027 99.4414 287.539 101.29 287.539 103.855C287.539 106.46 288.04 108.38 289.043 109.617C290.059 110.854 291.309 111.473 292.793 111.473C293.783 111.473 294.701 111.238 295.547 110.77C296.393 110.301 297.174 109.598 297.891 108.66V98.8359ZM335.43 85.5156L335.645 92.1172H334.727C334.544 90.6719 334.134 89.4805 333.496 88.543C332.871 87.5924 332.214 87 331.523 86.7656C330.833 86.5312 329.668 86.4141 328.027 86.4141H322.852V97.6445H325.332C326.934 97.6445 327.995 97.3776 328.516 96.8438C329.049 96.2969 329.316 95.2096 329.316 93.582H330.293V102.918H329.316C329.316 101.785 329.199 100.893 328.965 100.242C328.743 99.5781 328.405 99.1289 327.949 98.8945C327.507 98.6471 326.634 98.5234 325.332 98.5234H322.852V105.105C322.852 107.189 322.904 108.556 323.008 109.207C323.112 109.845 323.372 110.32 323.789 110.633C324.219 110.945 325.039 111.102 326.25 111.102H327.148V112H314.844V111.102H315.664C316.797 111.102 317.578 110.958 318.008 110.672C318.451 110.385 318.73 109.943 318.848 109.344C318.978 108.732 319.043 107.319 319.043 105.105V92.1172C319.043 90.0078 318.978 88.6471 318.848 88.0352C318.73 87.4232 318.47 87 318.066 86.7656C317.676 86.5312 316.81 86.4141 315.469 86.4141H315V85.5156H335.43ZM351.191 109.07H351.914C351.797 111.297 350.703 112.41 348.633 112.41C347.747 112.41 347.044 112.176 346.523 111.707C346.016 111.238 345.684 110.542 345.527 109.617C344.225 110.542 343.034 111.238 341.953 111.707C340.885 112.176 339.928 112.41 339.082 112.41C338.001 112.41 337.07 112.098 336.289 111.473C335.508 110.848 335.117 110.021 335.117 108.992C335.117 107.651 335.768 106.479 337.07 105.477C338.385 104.474 340.195 103.497 342.5 102.547L345.527 101.316V100.535C345.527 99.4284 345.456 98.6276 345.312 98.1328C345.169 97.638 344.798 97.1953 344.199 96.8047C343.6 96.4141 342.812 96.2188 341.836 96.2188C339.883 96.2188 338.796 96.8698 338.574 98.1719C338.366 99.5 337.819 100.164 336.934 100.164C336.139 100.164 335.742 99.7865 335.742 99.0312C335.742 98.2891 336.27 97.4948 337.324 96.6484C338.379 95.7891 340.02 95.3594 342.246 95.3594C343.9 95.3594 345.182 95.6198 346.094 96.1406C347.005 96.6615 347.604 97.2539 347.891 97.918C348.19 98.582 348.34 99.5977 348.34 100.965V107.43C348.34 108.94 348.418 109.91 348.574 110.34C348.73 110.77 349.069 110.984 349.59 110.984C350.449 110.984 350.983 110.346 351.191 109.07ZM345.527 102.234L343.398 103.094C340.039 104.461 338.359 106.18 338.359 108.25C338.359 109.07 338.574 109.734 339.004 110.242C339.434 110.737 339.993 110.984 340.684 110.984C341.296 110.984 342.005 110.783 342.812 110.379C343.62 109.975 344.525 109.37 345.527 108.562V102.234ZM367.617 108.094H368.477C367.591 111.128 365.378 112.645 361.836 112.645C359.557 112.645 357.637 111.87 356.074 110.32C354.525 108.771 353.75 106.72 353.75 104.168C353.75 101.551 354.59 99.4284 356.27 97.8008C357.949 96.1732 359.935 95.3594 362.227 95.3594C363.607 95.3594 364.876 95.6654 366.035 96.2773C367.194 96.8763 367.773 97.612 367.773 98.4844C367.773 98.8099 367.663 99.1159 367.441 99.4023C367.233 99.6888 366.927 99.832 366.523 99.832C365.664 99.832 365.137 99.3307 364.941 98.3281C364.785 97.5729 364.544 97.0456 364.219 96.7461C363.88 96.4466 363.223 96.2969 362.246 96.2969C360.501 96.2969 359.186 96.9023 358.301 98.1133C357.428 99.3242 356.992 101.147 356.992 103.582C356.992 106.095 357.461 108.061 358.398 109.48C359.349 110.9 360.781 111.609 362.695 111.609C365.273 111.609 366.914 110.438 367.617 108.094ZM385.41 101.414H374.258C374.206 102.182 374.18 102.755 374.18 103.133C374.18 105.945 374.616 108.061 375.488 109.48C376.374 110.887 377.689 111.59 379.434 111.59C381.803 111.59 383.483 110.529 384.473 108.406H385.41C384.993 109.734 384.167 110.776 382.93 111.531C381.693 112.273 380.345 112.645 378.887 112.645C377.533 112.645 376.25 112.306 375.039 111.629C373.841 110.939 372.858 109.969 372.09 108.719C371.322 107.469 370.938 105.952 370.938 104.168C370.938 101.642 371.68 99.5456 373.164 97.8789C374.648 96.1992 376.504 95.3594 378.73 95.3594C380.827 95.3594 382.448 95.9974 383.594 97.2734C384.74 98.5495 385.345 99.9297 385.41 101.414ZM381.992 100.633C382.031 100.333 382.051 100.066 382.051 99.832C382.051 98.6862 381.712 97.8008 381.035 97.1758C380.371 96.5378 379.551 96.2188 378.574 96.2188C376.204 96.2188 374.792 97.6901 374.336 100.633H381.992Z" fill="black"/>
</svg>
