<svg width="445" height="200" viewBox="0 0 445 200" fill="none" xmlns="http://www.w3.org/2000/svg">
<rect width="445" height="200" fill="#F3F3F3"/>
<path d="M131.426 102.961L135.215 103.918C134.421 107.03 132.988 109.406 130.918 111.047C128.861 112.674 126.341 113.488 123.359 113.488C120.273 113.488 117.76 112.863 115.82 111.613C113.893 110.35 112.422 108.527 111.406 106.145C110.404 103.762 109.902 101.203 109.902 98.4688C109.902 95.487 110.469 92.8893 111.602 90.6758C112.747 88.4492 114.368 86.763 116.465 85.6172C118.574 84.4583 120.892 83.8789 123.418 83.8789C126.283 83.8789 128.691 84.6081 130.645 86.0664C132.598 87.5247 133.958 89.5755 134.727 92.2188L130.996 93.0977C130.332 91.0143 129.368 89.4974 128.105 88.5469C126.842 87.5964 125.254 87.1211 123.34 87.1211C121.139 87.1211 119.297 87.6484 117.812 88.7031C116.341 89.7578 115.306 91.1771 114.707 92.9609C114.108 94.7318 113.809 96.5612 113.809 98.4492C113.809 100.884 114.16 103.013 114.863 104.836C115.579 106.646 116.686 108 118.184 108.898C119.681 109.797 121.302 110.246 123.047 110.246C125.169 110.246 126.966 109.634 128.438 108.41C129.909 107.186 130.905 105.37 131.426 102.961ZM138.145 102.629C138.145 98.7878 139.212 95.9427 141.348 94.0938C143.132 92.5573 145.306 91.7891 147.871 91.7891C150.723 91.7891 153.053 92.7266 154.863 94.6016C156.673 96.4635 157.578 99.0417 157.578 102.336C157.578 105.005 157.174 107.108 156.367 108.645C155.573 110.168 154.408 111.353 152.871 112.199C151.348 113.046 149.681 113.469 147.871 113.469C144.967 113.469 142.617 112.538 140.82 110.676C139.036 108.814 138.145 106.132 138.145 102.629ZM141.758 102.629C141.758 105.285 142.337 107.277 143.496 108.605C144.655 109.921 146.113 110.578 147.871 110.578C149.616 110.578 151.068 109.914 152.227 108.586C153.385 107.258 153.965 105.233 153.965 102.512C153.965 99.9466 153.379 98.0065 152.207 96.6914C151.048 95.3633 149.603 94.6992 147.871 94.6992C146.113 94.6992 144.655 95.3568 143.496 96.6719C142.337 97.987 141.758 99.9727 141.758 102.629ZM161.68 113V92.2578H164.844V95.4023C165.651 93.931 166.393 92.9609 167.07 92.4922C167.76 92.0234 168.516 91.7891 169.336 91.7891C170.521 91.7891 171.725 92.1667 172.949 92.9219L171.738 96.1836C170.879 95.6758 170.02 95.4219 169.16 95.4219C168.392 95.4219 167.702 95.6562 167.09 96.125C166.478 96.5807 166.042 97.2188 165.781 98.0391C165.391 99.2891 165.195 100.656 165.195 102.141V113H161.68ZM178.281 113H175.02V84.3672H178.535V94.582C180.02 92.7201 181.914 91.7891 184.219 91.7891C185.495 91.7891 186.699 92.0495 187.832 92.5703C188.978 93.0781 189.915 93.8008 190.645 94.7383C191.387 95.6628 191.966 96.7826 192.383 98.0977C192.799 99.4128 193.008 100.819 193.008 102.316C193.008 105.871 192.129 108.618 190.371 110.559C188.613 112.499 186.504 113.469 184.043 113.469C181.595 113.469 179.674 112.447 178.281 110.402V113ZM178.242 102.473C178.242 104.96 178.581 106.757 179.258 107.863C180.365 109.673 181.862 110.578 183.75 110.578C185.286 110.578 186.615 109.914 187.734 108.586C188.854 107.245 189.414 105.253 189.414 102.609C189.414 99.901 188.874 97.9023 187.793 96.6133C186.725 95.3242 185.43 94.6797 183.906 94.6797C182.37 94.6797 181.042 95.3503 179.922 96.6914C178.802 98.0195 178.242 99.9466 178.242 102.473ZM211.504 106.32L215.137 106.77C214.564 108.892 213.503 110.539 211.953 111.711C210.404 112.883 208.424 113.469 206.016 113.469C202.982 113.469 200.573 112.538 198.789 110.676C197.018 108.801 196.133 106.177 196.133 102.805C196.133 99.3151 197.031 96.6068 198.828 94.6797C200.625 92.7526 202.956 91.7891 205.82 91.7891C208.594 91.7891 210.859 92.7331 212.617 94.6211C214.375 96.5091 215.254 99.1654 215.254 102.59C215.254 102.798 215.247 103.111 215.234 103.527H199.766C199.896 105.806 200.54 107.551 201.699 108.762C202.858 109.973 204.303 110.578 206.035 110.578C207.324 110.578 208.424 110.24 209.336 109.562C210.247 108.885 210.97 107.805 211.504 106.32ZM199.961 100.637H211.543C211.387 98.8919 210.944 97.5833 210.215 96.7109C209.095 95.3568 207.643 94.6797 205.859 94.6797C204.245 94.6797 202.884 95.2201 201.777 96.3008C200.684 97.3815 200.078 98.8268 199.961 100.637ZM219.492 113V84.3672H223.008V113H219.492ZM236.973 113.488L245.273 83.8789H248.086L239.805 113.488H236.973ZM256.953 113L267.949 84.3672H272.031L283.75 113H279.434L276.094 104.328H264.121L260.977 113H256.953ZM265.215 101.242H274.922L271.934 93.3125C271.022 90.9036 270.345 88.9245 269.902 87.375C269.538 89.2109 269.023 91.0339 268.359 92.8438L265.215 101.242ZM286.289 113V92.2578H289.453V95.4023C290.26 93.931 291.003 92.9609 291.68 92.4922C292.37 92.0234 293.125 91.7891 293.945 91.7891C295.13 91.7891 296.335 92.1667 297.559 92.9219L296.348 96.1836C295.488 95.6758 294.629 95.4219 293.77 95.4219C293.001 95.4219 292.311 95.6562 291.699 96.125C291.087 96.5807 290.651 97.2188 290.391 98.0391C290 99.2891 289.805 100.656 289.805 102.141V113H286.289ZM299.668 88.4102V84.3672H303.184V88.4102H299.668ZM299.668 113V92.2578H303.184V113H299.668ZM322.09 110.441C320.788 111.548 319.531 112.329 318.32 112.785C317.122 113.241 315.833 113.469 314.453 113.469C312.174 113.469 310.423 112.915 309.199 111.809C307.975 110.689 307.363 109.263 307.363 107.531C307.363 106.516 307.591 105.591 308.047 104.758C308.516 103.911 309.121 103.234 309.863 102.727C310.618 102.219 311.465 101.835 312.402 101.574C313.092 101.392 314.134 101.216 315.527 101.047C318.366 100.708 320.456 100.305 321.797 99.8359C321.81 99.3542 321.816 99.0482 321.816 98.918C321.816 97.4857 321.484 96.4766 320.82 95.8906C319.922 95.0964 318.587 94.6992 316.816 94.6992C315.163 94.6992 313.939 94.9922 313.145 95.5781C312.363 96.151 311.784 97.1732 311.406 98.6445L307.969 98.1758C308.281 96.7044 308.796 95.5195 309.512 94.6211C310.228 93.7096 311.263 93.013 312.617 92.5312C313.971 92.0365 315.54 91.7891 317.324 91.7891C319.095 91.7891 320.534 91.9974 321.641 92.4141C322.747 92.8307 323.561 93.3581 324.082 93.9961C324.603 94.6211 324.967 95.4154 325.176 96.3789C325.293 96.9779 325.352 98.0586 325.352 99.6211V104.309C325.352 107.577 325.423 109.647 325.566 110.52C325.723 111.379 326.022 112.206 326.465 113H322.793C322.428 112.271 322.194 111.418 322.09 110.441ZM321.797 102.59C320.521 103.111 318.607 103.553 316.055 103.918C314.609 104.126 313.587 104.361 312.988 104.621C312.389 104.882 311.927 105.266 311.602 105.773C311.276 106.268 311.113 106.822 311.113 107.434C311.113 108.371 311.465 109.152 312.168 109.777C312.884 110.402 313.926 110.715 315.293 110.715C316.647 110.715 317.852 110.422 318.906 109.836C319.961 109.237 320.736 108.423 321.23 107.395C321.608 106.6 321.797 105.428 321.797 103.879V102.59ZM330.742 113V84.3672H334.258V113H330.742Z" fill="black"/>
</svg>
