<svg width="445" height="496" viewBox="0 0 445 496" fill="none" xmlns="http://www.w3.org/2000/svg">
<rect width="445" height="496" fill="#F3F3F3"/>
<path d="M40.768 71H54.56L56.032 65.432H55.84L55.648 65.816C54.432 68.728 53.152 70.648 50.048 70.712L45.632 70.584V51.864C45.632 51.672 46.048 51.416 47.168 51.32L49.088 51.192L49.184 51H40.8L40.896 51.192L41.696 51.288C43.36 51.416 43.552 51.48 43.552 51.704V70.2C43.552 70.392 43.136 70.584 42.016 70.68L40.864 70.808L40.768 71ZM59.9463 54.008C60.8743 54.008 61.2583 53.176 61.2583 52.664C61.2583 52.12 60.9383 51.256 59.9463 51.256C58.9863 51.256 58.5703 52.12 58.5703 52.664C58.5703 53.176 58.9863 54.008 59.9463 54.008ZM57.3223 71H63.2743L63.1783 70.808L62.7303 70.776C61.3223 70.68 61.1302 70.648 61.1302 70.392V57.112L57.3223 58.104L57.2903 58.232L58.0263 58.328C59.1143 58.424 59.3383 58.872 59.3383 60.792V70.328C59.3383 70.712 58.9863 70.712 57.9943 70.776L57.4183 70.808L57.3223 71ZM68.8775 78.968C73.4855 78.968 76.8135 76.312 76.8135 72.856C76.8135 70.808 74.9895 69.496 72.1095 69.496C70.9575 69.496 69.3255 69.592 68.4935 69.592C66.5095 69.592 65.7735 69.176 65.7735 68.12C65.7735 67.224 66.7975 66.392 68.1095 66.136C68.3975 66.2 69.1015 66.36 69.7735 66.36C72.7175 66.36 75.0855 64.376 75.0855 61.656C75.0855 60.44 74.4135 59.32 73.6135 58.584L73.6455 58.52L76.6215 58.648L76.8135 57.528L73.1975 58.168C72.3335 57.496 71.1495 57.08 69.9335 57.08C67.0855 57.08 64.7495 59.128 64.7495 61.912C64.7495 63.896 66.1575 65.464 67.7895 65.976V66.008C65.9975 66.296 64.0135 67.64 64.0135 69.272C64.0135 70.552 65.3895 71.192 67.5335 71.352V71.384C65.9015 71.992 63.6935 73.592 63.6935 75.416C63.6935 77.624 65.8055 78.968 68.8775 78.968ZM69.8695 66.104C68.0455 66.104 66.6375 64.28 66.6375 61.592C66.6375 59.128 68.1415 57.336 69.9015 57.336C71.9815 57.336 73.1975 59.128 73.1975 61.912C73.1975 64.44 71.6615 66.104 69.8695 66.104ZM70.0615 78.424C67.0215 78.424 65.0375 76.952 65.0375 75.064C65.0375 73.304 66.8295 71.864 67.9175 71.448C68.8455 71.32 70.7655 71.224 71.6935 71.256C74.4775 71.352 75.7255 72.44 75.7255 74.232C75.7255 76.632 72.8775 78.424 70.0615 78.424ZM77.2538 71H83.1738L83.0778 70.808L82.6298 70.776C81.1898 70.68 80.9978 70.648 80.9978 70.392V60.408C82.2458 59.224 83.6858 58.392 85.2858 58.392C87.0458 58.392 88.0378 59.416 88.0378 61.304V70.328C88.0378 70.584 87.8778 70.712 86.6938 70.776L86.1178 70.808L86.0218 71H91.9738L91.8778 70.808L91.3978 70.776C89.7978 70.712 89.7978 70.552 89.7978 70.36V60.856C89.7978 59.512 89.4458 58.616 88.7738 57.912C88.2298 57.368 87.4618 57.048 86.5017 57.048C84.1978 57.048 82.2458 59 80.9978 60.056V49.464L77.2218 50.36L77.1898 50.488L77.9258 50.552C79.0458 50.712 79.2057 51.096 79.2057 52.824V70.328C79.2057 70.712 78.8538 70.712 77.8938 70.776L77.3498 70.808L77.2538 71ZM97.3745 71.384C99.0705 71.384 100.062 70.232 101.343 68.952L101.151 68.888C100.351 69.528 99.6465 70.392 98.3985 70.392C97.4385 70.392 96.4465 69.848 96.5105 68.216L96.7345 58.456H100.735L101.055 57.496H96.7345L96.7665 54.712H95.0065L94.9425 57.464H92.7665L92.4465 58.424L94.9105 58.456L94.6865 68.568C94.6545 71.096 96.3825 71.384 97.3745 71.384Z" fill="black"/>
<path d="M196.32 62.232L198.944 69.688C199.232 70.488 198.272 70.712 197.376 70.776L196.352 70.808L196.256 71H203.936L203.84 70.808L202.944 70.744C201.472 70.648 201.248 70.232 200.576 68.536L194.208 50.744H193.952C193.632 51.352 193.344 51.768 192.768 51.992L193.056 52.824L188.608 65.08C186.688 70.136 186.528 70.488 184.512 70.744L184 70.808L183.904 71H190.56L190.464 70.808L189.792 70.744C187.008 70.52 187.04 70.2 188.064 67.384C188.064 67.384 189.952 62.232 189.92 62.232H196.32ZM190.016 61.944C190.048 61.944 193.152 53.336 193.152 53.336H193.184L196.224 61.944H190.016ZM213.294 71.288C214.51 71.288 215.278 70.04 215.886 69.368L215.726 69.272C215.246 69.784 214.702 70.232 214.19 70.232C213.55 70.232 213.134 70.04 213.198 69.016L213.518 61.272C213.678 57.944 212.206 57.048 209.934 57.048C207.63 57.048 204.174 58.968 204.174 60.44C204.174 61.272 204.686 61.656 205.39 61.656C206.126 61.656 206.606 61.08 206.606 60.504C206.606 59.672 205.838 59.32 205.838 59.096C205.838 58.648 207.342 57.656 208.75 57.656C210.126 57.656 211.95 58.232 211.79 61.464L211.726 63.352C205.998 64.856 204.27 66.264 204.27 68.376C204.27 69.944 205.454 71.256 207.374 71.256C208.782 71.256 210.19 70.296 211.502 69.176V69.24C211.534 70.424 212.398 71.288 213.294 71.288ZM208.398 70.232C206.926 70.232 206.126 69.368 206.126 67.896C206.126 66.328 206.734 64.92 211.726 63.672L211.566 68.792C210.766 69.496 209.614 70.232 208.398 70.232ZM216.362 71H223.946C228.778 71 231.754 68.824 231.754 65.4C231.754 62.52 229.61 60.152 224.81 59.928V59.864C229.354 59.224 230.634 57.368 230.634 55.224C230.634 52.536 228.074 51 223.85 51H216.394L216.49 51.192L217.29 51.288C218.954 51.416 219.146 51.544 219.146 51.768V70.2C219.146 70.392 218.73 70.584 217.61 70.68L216.458 70.808L216.362 71ZM223.818 70.744L221.226 70.2V60.248C221.738 60.184 222.698 60.152 223.306 60.152C227.05 60.152 229.546 62.456 229.546 65.56C229.546 67.992 228.394 70.36 224.65 70.648C224.714 70.648 223.818 70.744 223.818 70.744ZM221.226 59.864V51.352H223.242C226.602 51.352 228.362 52.696 228.362 55.544C228.362 57.88 226.602 59.768 222.954 59.832L221.226 59.864ZM234.41 71.576H234.602L235.786 70.072H235.818C236.81 70.744 238.474 71.384 240.33 71.384C243.626 71.384 246.954 68.12 246.954 63.8C246.954 59.864 244.426 57.208 241.258 57.208C239.146 57.208 237.514 58.584 236.234 60.024L236.17 59.928V49.4L232.393 50.296L232.361 50.488L233.098 50.552C234.218 50.648 234.41 51.096 234.41 52.76V71.576ZM240.394 71.064C238.57 71.064 236.938 69.912 236.17 68.504V60.44C237.258 59.32 238.442 58.328 240.202 58.328C243.018 58.328 244.906 61.048 244.906 64.568C244.906 68.408 243.114 71.064 240.394 71.064ZM259.307 71.448C261.611 71.448 263.947 70.712 265.227 70.04L266.347 69.816L267.499 65.208H267.307L266.507 66.552C264.875 69.496 263.083 71.16 259.275 71.16C254.027 71.16 250.699 67 250.699 60.888C250.699 55.032 253.995 50.808 259.435 50.808C261.579 50.808 263.435 51.544 264.267 52.216L266.603 56.664H266.795L266.378 51.192L264.811 51.928C263.499 51.16 261.707 50.52 259.403 50.52C252.939 50.52 248.427 55 248.427 61.144C248.427 67.288 252.939 71.448 259.307 71.448ZM275.536 71.384C278.096 71.384 279.76 69.88 281.072 67.608L280.784 67.512C279.632 69.368 278.416 70.136 276.336 70.136C273.488 70.136 271.216 67.384 271.216 63.544C271.216 59.896 273.648 57.304 276.272 57.304C277.712 57.304 278.832 58.36 278.832 58.776C278.832 59.032 278.192 59.256 278.192 60.248C278.192 60.92 278.704 61.4 279.44 61.4C280.048 61.4 280.72 60.76 280.72 59.992C280.72 58.328 278.864 57.048 276.304 57.048C272.272 57.048 269.264 60.312 269.264 64.504C269.264 68.28 272.08 71.384 275.536 71.384ZM318.411 71.352C322.604 71.352 325.676 68.056 325.676 63.448C325.676 59.032 322.508 55.512 318.476 55.512C314.38 55.512 311.148 59.064 311.148 63.512C311.148 67.992 314.284 71.352 318.411 71.352ZM318.508 71.16C315.18 71.16 313.132 68.12 313.132 63.032C313.132 59.096 315.5 55.832 318.38 55.832C321.548 55.832 323.692 59.064 323.692 63.704C323.692 67.928 321.42 71.16 318.508 71.16ZM328.073 71H335.081L334.985 70.744L334.025 70.712C332.521 70.648 332.297 70.488 332.297 70.232V55.672L327.401 56.44L327.305 56.6L330.633 56.984V70.168C330.633 70.552 330.281 70.68 329.257 70.712L328.169 70.744L328.073 71ZM336.733 71H347.709L348.925 65.56L348.701 65.528L348.573 65.848C347.709 68.12 346.973 69.368 346.461 69.368L338.813 69.336V69.304C344.285 64.664 346.781 62.168 346.781 59.224C346.781 57.112 345.021 55.544 342.749 55.544C340.541 55.544 338.525 57.24 337.149 59.864L337.373 59.96C338.589 57.848 339.933 56.984 341.757 56.984C343.773 56.984 344.989 58.392 344.989 60.568C344.989 63.288 343.645 64.92 336.637 70.744L336.733 71ZM352.58 77.432C357.284 77.432 360.676 74.072 360.676 70.424C360.676 67.192 358.628 65.016 354.82 65.08V65.048C357.06 63.608 359.172 61.848 359.172 59.48C359.172 57.304 357.444 55.544 355.204 55.544C352.708 55.544 350.948 56.984 349.604 59.736L349.828 59.896C350.82 57.912 352.164 56.984 353.924 56.984C356.004 56.984 357.444 58.36 357.444 60.504C357.444 63.096 355.46 64.376 351.396 67.096L351.524 67.224C352.26 66.904 353.22 66.488 354.276 66.488C357.444 66.488 358.98 68.632 358.98 71.224C358.98 75.352 356.1 76.952 353.444 76.952C352.868 76.952 352.132 76.664 352.132 76.664C352.42 75.16 351.812 73.88 350.628 73.88C349.86 73.88 349.316 74.488 349.316 75.256C349.316 76.28 350.116 77.432 352.58 77.432Z" fill="black"/>
<path d="M40.768 146H48.48C53.824 146 56.8 143.728 56.8 140.464C56.8 137.584 54.432 135.152 49.632 134.928V134.832C54.176 134.192 55.68 132.4 55.68 130.256C55.68 127.856 53.536 126 48.384 126H40.8L40.896 126.192L41.696 126.288C43.36 126.416 43.552 126.512 43.552 126.736V145.168C43.552 145.36 43.136 145.584 42.016 145.68L40.864 145.808L40.768 146ZM48.352 145.712L46.112 145.136V135.248C46.624 135.184 47.424 135.152 48.128 135.152C51.648 135.152 54.016 137.488 54.016 140.624C54.016 143.056 52.576 145.456 49.088 145.616C49.12 145.648 48.352 145.712 48.352 145.712ZM46.112 134.832V126.384H47.776C51.168 126.384 52.832 127.76 52.832 130.576C52.832 132.944 51.136 134.736 47.68 134.8L46.112 134.832ZM66.0573 146.416C70.0893 146.416 73.1933 143.248 73.1933 139.152C73.1933 135.12 70.1213 132.016 66.0573 132.016C61.9933 132.016 58.8893 135.28 58.8893 139.28C58.8893 143.312 61.9613 146.416 66.0573 146.416ZM66.0893 146.16C65.0013 146.16 64.0733 145.744 63.3693 145.04C62.1213 143.824 61.5453 141.488 61.5453 138.864C61.5453 135.44 63.2413 132.272 65.9933 132.272C67.1453 132.272 68.0413 132.784 68.7453 133.456C69.9613 134.672 70.5053 136.976 70.5053 139.44C70.5053 143.024 68.7133 146.16 66.0893 146.16ZM81.5885 146.416C85.6205 146.416 88.7245 143.248 88.7245 139.152C88.7245 135.12 85.6525 132.016 81.5885 132.016C77.5245 132.016 74.4205 135.28 74.4205 139.28C74.4205 143.312 77.4925 146.416 81.5885 146.416ZM81.6205 146.16C80.5325 146.16 79.6045 145.744 78.9005 145.04C77.6525 143.824 77.0765 141.488 77.0765 138.864C77.0765 135.44 78.7725 132.272 81.5245 132.272C82.6765 132.272 83.5725 132.784 84.2765 133.456C85.4925 134.672 86.0365 136.976 86.0365 139.44C86.0365 143.024 84.2445 146.16 81.6205 146.16ZM89.5038 146H95.8398L95.7438 145.808L95.2958 145.776C93.8878 145.68 93.6958 145.616 93.6958 145.36V140.176L95.1998 138.736L99.2958 145.616L99.4558 146H103.904L103.808 145.808L103.456 145.776C102.112 145.648 101.888 145.36 100.864 143.696L96.8638 137.104C96.8318 137.104 97.4718 136.464 97.4718 136.464C100.032 133.904 100.768 132.88 102.24 132.752L102.912 132.688L103.008 132.496H96.9598L97.0238 132.688L97.4398 132.72C98.6238 132.816 99.1358 133.104 99.1358 133.616C99.1358 134.224 98.0798 135.472 96.8638 136.688L93.6958 139.792V124.464L89.4718 125.52L89.4398 125.648L90.1758 125.776C91.2638 125.968 91.4557 126.32 91.4557 127.6V145.296C91.4557 145.68 91.1038 145.712 90.1438 145.776L89.5998 145.808L89.5038 146Z" fill="black"/>
<path d="M195.84 137.232L197.952 143.568C198.432 145.072 197.92 145.68 196.64 145.744L195.616 145.808L195.52 146H203.904L203.808 145.808L202.912 145.744C201.408 145.648 201.12 145.168 200.256 142.64L194.432 125.648H194.144C193.792 126.416 193.312 127.024 192.512 127.312L192.832 128.208L188.864 139.248C186.72 145.104 186.464 145.488 184.48 145.744L183.968 145.808L183.872 146H190.816L190.72 145.808L190.048 145.744C187.136 145.488 187.136 145.04 188.352 141.552L189.888 137.232H195.84ZM190.016 136.912L192.96 128.72H192.992C192.992 128.72 195.744 136.912 195.712 136.912H190.016ZM213.551 146.32C214.863 146.32 215.791 144.976 216.367 144.272L216.207 144.176C215.759 144.624 215.279 145.04 214.767 145.04C214.063 145.04 213.647 144.656 213.711 143.6L214.031 136.688C214.223 133.008 212.847 132.016 210.191 132.016C207.759 132.016 204.079 133.936 204.079 135.536C204.079 136.304 204.655 136.784 205.455 136.784C206.287 136.784 206.831 136.176 206.831 135.536C206.831 134.672 206.031 134.16 206.031 133.936C206.031 133.552 207.407 132.752 208.687 132.752C210.351 132.752 211.919 133.648 211.791 136.848L211.759 138.256C205.807 139.696 204.239 141.232 204.239 143.312C204.239 144.912 205.551 146.288 207.439 146.288C208.943 146.288 210.319 145.2 211.535 144.048V144.08C211.631 145.456 212.431 146.32 213.551 146.32ZM208.687 144.976C207.439 144.976 206.511 144.048 206.511 142.608C206.511 141.04 207.215 139.664 211.759 138.576L211.567 143.664C210.703 144.528 209.743 144.976 208.687 144.976ZM216.862 146H224.574C229.918 146 232.894 143.728 232.894 140.464C232.894 137.584 230.526 135.152 225.726 134.928V134.832C230.27 134.192 231.774 132.4 231.774 130.256C231.774 127.856 229.63 126 224.478 126H216.894L216.99 126.192L217.79 126.288C219.454 126.416 219.646 126.512 219.646 126.736V145.168C219.646 145.36 219.23 145.584 218.11 145.68L216.958 145.808L216.862 146ZM224.446 145.712L222.206 145.136V135.248C222.718 135.184 223.518 135.152 224.222 135.152C227.742 135.152 230.11 137.488 230.11 140.624C230.11 143.056 228.67 145.456 225.182 145.616C225.214 145.648 224.446 145.712 224.446 145.712ZM222.206 134.832V126.384H223.87C227.262 126.384 228.926 127.76 228.926 130.576C228.926 132.944 227.23 134.736 223.774 134.8L222.206 134.832ZM235.535 146.608H235.727L237.231 145.296H237.263C238.255 145.84 239.887 146.416 241.551 146.416C244.815 146.416 248.495 143.6 248.495 138.832C248.495 134.896 245.999 132.208 242.831 132.208C240.751 132.208 239.151 133.488 237.807 135.024L237.743 134.96V124.432L233.518 125.488L233.486 125.648L234.223 125.776C235.311 125.968 235.535 126.32 235.535 127.568V146.608ZM241.871 146.032C240.111 146.032 238.479 144.688 237.743 143.088V135.504C238.703 134.48 239.887 133.616 241.455 133.616C244.207 133.616 245.967 136.304 245.967 139.632C245.967 143.248 244.431 146.032 241.871 146.032ZM261.062 146.48C263.366 146.48 265.958 145.744 267.174 145.136L268.262 144.912L269.414 140.048H269.222L268.422 141.392C266.694 144.4 264.934 146.128 261.158 146.128C256.294 146.128 252.774 141.968 252.774 135.824C252.774 130.256 255.846 125.84 261.222 125.84C263.27 125.84 265.03 126.416 265.862 127.088L268.518 131.952H268.71L268.454 126.064L266.726 126.896C265.542 126.256 263.462 125.488 261.254 125.488C254.534 125.488 249.958 129.936 249.958 136.08C249.958 142.352 254.598 146.48 261.062 146.48ZM277.507 146.416C280.099 146.416 281.795 144.848 283.203 142.352L282.947 142.256C281.763 144.176 280.579 144.816 278.627 144.816C275.811 144.816 273.603 142.32 273.603 138.512C273.603 134.864 275.779 132.272 278.339 132.272C279.555 132.272 280.643 133.136 280.643 133.552C280.643 133.808 280.003 134.128 280.003 135.152C280.003 135.888 280.611 136.496 281.443 136.496C282.179 136.496 282.883 135.792 282.883 134.96C282.883 133.2 280.835 132.016 278.275 132.016C274.083 132.016 271.171 135.376 271.171 139.536C271.171 143.376 273.923 146.416 277.507 146.416ZM320.667 146.352C324.955 146.352 328.187 143.088 328.187 138.448C328.187 133.904 324.891 130.512 320.731 130.512C316.507 130.512 313.179 133.936 313.179 138.512C313.179 143.088 316.411 146.352 320.667 146.352ZM320.763 146.128C317.531 146.128 315.771 142.896 315.771 138.032C315.771 134.224 317.819 130.832 320.635 130.832C323.707 130.832 325.595 134.256 325.595 138.704C325.595 142.768 323.611 146.128 320.763 146.128ZM330.448 146H337.936L337.84 145.776L336.88 145.744C335.376 145.68 335.152 145.552 335.152 145.296V130.672L329.776 131.44L329.68 131.6L333.008 132.048V145.232C333.008 145.616 332.656 145.712 331.632 145.744L330.544 145.776L330.448 146ZM339.576 146H351.064L352.376 140.08L352.152 140.048L352.024 140.368C351.032 142.928 350.296 144.048 349.784 144.048L342.072 144.016V143.984C347.288 139.6 349.944 137.36 349.944 134.416C349.944 132.24 348.152 130.544 345.816 130.544C343.352 130.544 341.464 132.336 340.024 135.056L340.248 135.184C341.464 133.04 342.712 132.176 344.568 132.176C346.456 132.176 347.832 133.584 347.832 135.696C347.832 138.384 346.392 140.112 339.48 145.744L339.576 146ZM356.338 152.432C360.914 152.432 364.306 149.04 364.306 145.424C364.306 142.288 362.162 139.856 358.354 139.984V139.952C360.562 138.576 362.866 137.072 362.866 134.544C362.866 132.336 361.042 130.544 358.642 130.544C356.146 130.544 354.29 132.208 352.946 134.992L353.17 135.12C354.194 133.072 355.57 132.208 357.394 132.208C359.41 132.208 360.786 133.584 360.786 135.664C360.786 138.352 358.578 139.472 354.674 142.064L354.802 142.256C355.57 141.968 356.498 141.648 357.49 141.648C360.562 141.648 362.322 143.76 362.322 146.64C362.322 150.096 359.794 151.92 357.426 151.92C356.85 151.92 355.954 151.632 355.954 151.632C356.242 150.064 355.442 148.752 354.194 148.752C353.362 148.752 352.754 149.392 352.754 150.224C352.754 151.28 353.874 152.432 356.338 152.432Z" fill="black"/>
<path d="M40.64 221H48L47.904 220.808L47.328 220.776C44.832 220.648 44.192 220.136 44.192 219.592L44.512 202.056C44.672 202.28 44.96 202.76 45.12 203.208L51.808 221H52.064L59.296 202.376H59.328L59.68 220.168C59.68 220.36 59.424 220.584 58.368 220.68L56.832 220.808L56.736 221H65.472L65.376 220.808L64.448 220.712C62.848 220.552 62.656 220.488 62.656 220.264L62.336 201.832C62.336 201.64 62.784 201.416 63.84 201.32L65.44 201.192L65.536 201H59.456L53.248 216.936H53.216L47.36 201H41.44L41.536 201.192L42.4 201.256C43.264 201.32 43.84 201.416 44.256 201.704L43.808 219.528C43.808 220.168 43.52 220.648 41.344 220.776L40.736 220.808L40.64 221ZM72.415 221.416C75.039 221.416 76.895 219.848 78.431 217.128L78.207 217C76.991 219.016 75.647 219.528 73.823 219.528C71.039 219.528 68.895 217.224 68.895 213.544C68.895 213.096 68.927 212.264 68.991 211.816L78.047 211.848C78.079 211.624 78.111 211.56 78.111 211.4C78.111 208.776 76.191 207.016 72.927 207.016C68.799 207.016 65.983 210.408 65.983 214.536C65.983 218.44 68.671 221.416 72.415 221.416ZM69.055 211.528C69.439 209.384 70.911 207.336 72.671 207.336C74.559 207.336 75.199 209.416 75.199 211.464L69.055 211.528ZM90.2343 221.512L94.9062 220.52L94.9383 220.392L93.4023 220.072C93.0183 219.976 92.8903 219.88 92.8903 219.144V199.432L87.8983 200.648L87.8663 200.776L88.9223 200.968C89.9783 201.16 90.2023 201.512 90.2023 202.376V207.848C90.2023 207.816 90.1383 207.848 90.1383 207.848C89.1463 207.368 88.1223 207.208 86.7463 207.208C83.5143 207.208 79.5143 209.576 79.5143 214.76C79.5143 218.696 81.9783 221.416 85.1463 221.416C87.1943 221.416 88.7623 220.232 90.1383 218.568L90.2023 218.6L90.2343 221.512ZM86.8423 219.688C84.1543 219.688 82.4903 217.064 82.4903 213.928C82.4903 210.472 83.8023 207.592 86.2343 207.592C87.8983 207.592 89.5303 208.968 90.2023 210.792V218.024C89.4023 218.952 88.3463 219.688 86.8423 219.688ZM98.238 204.392C99.486 204.392 100.062 203.336 100.062 202.632C100.062 201.896 99.486 200.808 98.238 200.808C96.958 200.808 96.414 201.896 96.414 202.632C96.414 203.336 96.958 204.392 98.238 204.392ZM95.166 221H102.014L101.918 220.808L101.47 220.776C100.062 220.68 99.87 220.616 99.87 220.36V207.112L95.166 208.36L95.134 208.488L95.87 208.648C96.958 208.872 97.182 209.192 97.182 211.144V220.296C97.182 220.68 96.83 220.712 95.838 220.776L95.262 220.808L95.166 221ZM113.004 221.512L117.676 220.168L117.708 220.008L116.14 219.688C115.788 219.592 115.66 219.496 115.66 218.76V207.464H110.796L110.892 207.656L111.34 207.688C112.652 207.784 112.94 208.008 112.94 209.256V218.344C112.172 219.048 111.18 219.56 109.772 219.56C107.852 219.56 106.924 218.76 106.924 216.872L106.956 207.464H102.059L102.155 207.656L102.604 207.688C104.236 207.816 104.236 207.912 104.236 208.104V217.288C104.236 218.664 104.492 219.784 105.196 220.488C105.836 221.128 106.668 221.416 107.692 221.416C109.964 221.416 111.756 219.848 112.972 218.696H113.004V221.512ZM117.916 221H124.732L124.668 220.808L124.188 220.776C122.812 220.68 122.62 220.616 122.62 220.36V210.152C123.452 209.448 124.38 208.904 125.692 208.904C127.58 208.904 128.252 209.704 128.252 211.624V220.296C128.252 220.552 128.06 220.712 126.972 220.776L126.396 220.808L126.3 221H133.084L132.988 220.808L132.54 220.776C130.94 220.648 130.94 220.52 130.94 220.328V210.568L131.036 210.28C131.26 209.576 132.7 208.904 133.98 208.904C135.932 208.904 136.572 209.704 136.572 211.624V220.296C136.572 220.552 136.38 220.712 135.26 220.776L134.684 220.808L134.588 221H141.404L141.308 220.808L140.892 220.776C139.292 220.648 139.292 220.52 139.292 220.328V211.304C139.292 209.96 139.004 208.68 138.3 207.976C137.66 207.336 136.892 207.048 135.772 207.048C133.532 207.048 132.028 208.616 130.844 209.864L130.812 209.832C130.716 209.032 130.364 208.392 130.012 208.008C129.404 207.432 128.572 207.048 127.484 207.048C125.18 207.048 123.708 208.712 122.652 209.768L122.556 209.736L122.652 207.112L117.916 208.36L117.884 208.488L118.62 208.648C119.708 208.872 119.932 209.192 119.932 211.176V220.296C119.932 220.68 119.58 220.712 118.588 220.776L118.012 220.808L117.916 221Z" fill="black"/>
<path d="M195.328 212.232L196.96 217.48C197.632 219.656 197.568 220.68 195.904 220.744L194.88 220.808L194.784 221H203.872L203.776 220.808L202.88 220.744C201.344 220.648 200.992 220.104 199.936 216.776L194.656 200.552H194.336C193.952 201.448 193.28 202.248 192.256 202.632L192.608 203.592L189.12 213.416C186.752 220.104 186.4 220.488 184.448 220.744L183.936 220.808L183.84 221H191.072L190.976 220.808L190.304 220.744C187.264 220.456 187.232 219.88 188.64 215.72L189.856 212.232H195.328ZM189.984 211.912L192.768 204.104H192.832L195.232 211.912H189.984ZM213.808 221.32C215.216 221.32 216.304 219.912 216.848 219.176L216.688 219.08C216.272 219.464 215.856 219.88 215.344 219.88C214.576 219.88 214.16 219.304 214.224 218.184L214.544 212.072C214.768 208.04 213.488 207.016 210.448 207.016C207.888 207.016 203.984 208.904 203.984 210.6C203.984 211.336 204.624 211.912 205.52 211.912C206.448 211.912 207.056 211.24 207.056 210.536C207.056 209.672 206.224 209 206.224 208.776C206.224 208.456 207.472 207.816 208.624 207.816C210.576 207.816 211.888 209.032 211.792 212.2L211.76 213.192C205.648 214.568 204.208 216.232 204.208 218.248C204.208 219.912 205.648 221.288 207.504 221.288C209.104 221.288 210.448 220.104 211.568 218.92V218.952C211.728 220.488 212.464 221.32 213.808 221.32ZM208.976 219.752C207.952 219.752 206.896 218.76 206.896 217.352C206.896 215.784 207.664 214.408 211.76 213.512L211.568 218.568C210.64 219.528 209.872 219.752 208.976 219.752ZM217.331 221H225.171C231.027 221 234.003 218.664 234.003 215.496C234.003 212.616 231.411 210.152 226.611 209.928V209.832C231.155 209.192 232.883 207.432 232.883 205.288C232.883 203.176 231.155 201 225.075 201H217.363L217.459 201.192L218.259 201.288C219.923 201.416 220.115 201.512 220.115 201.736V220.168C220.115 220.36 219.699 220.584 218.579 220.68L217.427 220.808L217.331 221ZM223.155 209.8V201.384H224.467C227.891 201.384 229.459 202.792 229.459 205.608C229.459 207.976 227.827 209.736 224.562 209.8H223.155ZM225.043 220.68L223.155 220.104V210.248C223.667 210.184 224.307 210.152 225.107 210.152C228.403 210.152 230.643 212.52 230.643 215.656C230.643 218.088 228.915 220.52 225.619 220.616C225.939 220.616 225.043 220.68 225.043 220.68ZM236.66 221.608H236.852L238.676 220.488H238.708C239.7 220.904 241.3 221.416 242.772 221.416C246.004 221.416 250.036 219.048 250.036 213.832C250.036 209.928 247.572 207.208 244.404 207.208C242.356 207.208 240.788 208.392 239.38 210.024L239.316 209.96V199.432L234.643 200.648L234.611 200.776L235.348 200.968C236.404 201.256 236.66 201.512 236.66 202.376V221.608ZM243.348 221.032C241.652 221.032 240.02 219.496 239.316 217.672V210.568C240.148 209.64 241.332 208.904 242.708 208.904C245.396 208.904 247.028 211.56 247.028 214.664C247.028 218.12 245.748 221.032 243.348 221.032ZM262.848 221.48C265.152 221.48 268 220.744 269.152 220.2L270.208 219.976L271.36 214.888H271.168L270.368 216.264C268.544 219.336 266.816 221.128 263.072 221.128C258.592 221.128 254.88 216.968 254.88 210.792C254.88 205.48 257.728 200.84 263.04 200.84C264.992 200.84 266.656 201.32 267.488 201.992L270.464 207.24H270.656L270.56 200.968L268.672 201.896C267.616 201.32 265.248 200.488 263.136 200.488C256.16 200.488 251.52 204.904 251.52 211.048C251.52 217.384 256.288 221.48 262.848 221.48ZM279.508 221.416C282.132 221.416 283.86 219.848 285.364 217.128L285.108 217C283.892 219.016 282.772 219.528 280.948 219.528C278.164 219.528 276.02 217.256 276.02 213.512C276.02 209.864 277.94 207.272 280.436 207.272C281.428 207.272 282.484 207.912 282.484 208.328C282.484 208.584 281.844 209 281.844 210.056C281.844 210.856 282.548 211.592 283.476 211.592C284.34 211.592 285.076 210.824 285.076 209.928C285.076 208.072 282.836 207.016 280.276 207.016C275.924 207.016 273.108 210.44 273.108 214.536C273.108 218.44 275.796 221.416 279.508 221.416ZM322.953 221.352C327.337 221.352 330.729 218.12 330.729 213.448C330.729 208.776 327.305 205.512 323.017 205.512C318.665 205.512 315.241 208.808 315.241 213.512C315.241 218.184 318.569 221.352 322.953 221.352ZM323.049 221.096C319.913 221.096 318.441 217.672 318.441 213.032C318.441 209.32 320.169 205.832 322.921 205.832C325.897 205.832 327.529 209.416 327.529 213.704C327.529 217.608 325.833 221.096 323.049 221.096ZM332.823 221H340.791L340.695 220.808L339.735 220.776C338.231 220.712 338.007 220.584 338.007 220.328V205.672L332.151 206.44L332.055 206.6L335.383 207.112V220.264C335.383 220.648 335.031 220.744 334.007 220.776L332.919 220.808L332.823 221ZM342.42 221H354.388L355.796 214.632L355.572 214.568L355.444 214.888C354.324 217.736 353.588 218.728 353.076 218.728H345.268V218.664C350.228 214.536 353.076 212.552 353.076 209.608C353.076 207.368 351.22 205.544 348.82 205.544C346.164 205.544 344.372 207.432 342.868 210.248L343.092 210.376C344.308 208.232 345.492 207.368 347.38 207.368C349.14 207.368 350.644 208.776 350.644 210.824C350.644 213.48 349.14 215.272 342.324 220.744L342.42 221ZM360.095 227.432C364.543 227.432 367.935 224.008 367.935 220.424C367.935 217.352 365.695 214.728 361.887 214.92V214.856C364.063 213.544 366.559 212.264 366.559 209.576C366.559 207.368 364.639 205.544 362.079 205.544C359.583 205.544 357.631 207.432 356.287 210.216L356.511 210.344C357.567 208.232 358.975 207.4 360.863 207.4C362.815 207.4 364.127 208.808 364.127 210.792C364.127 213.576 361.727 214.568 357.983 217.064L358.079 217.256C358.879 217 359.775 216.776 360.703 216.776C363.679 216.776 365.663 218.856 365.663 222.056C365.663 224.872 363.487 226.888 361.407 226.888C360.831 226.888 359.775 226.632 359.775 226.632C360.063 225 359.071 223.656 357.759 223.656C356.863 223.656 356.191 224.328 356.191 225.192C356.191 226.28 357.631 227.432 360.095 227.432Z" fill="black"/>
<path d="M47.712 296.416C52.096 296.416 55.04 293.152 55.04 289.984C55.04 286.464 52.672 284.896 49.12 283.648C46.56 282.752 44.512 281.76 44.512 279.36C44.512 277.376 46.112 275.872 48.224 275.872C49.664 275.872 50.656 276.352 51.456 276.96L53.824 281.312H53.984L53.92 275.904L52.704 276.32C51.52 275.968 49.984 275.552 48.256 275.552C44.288 275.552 41.792 278.304 41.792 281.248C41.792 284.448 44.256 285.888 47.392 287.008C50.208 288 52.16 289.12 52.16 291.744C52.16 294.304 50.432 296.096 47.776 296.096C45.408 296.096 43.616 295.008 42.4 292.512L41.344 290.336H41.152L41.408 295.296C43.168 295.904 45.6 296.416 47.712 296.416ZM63.293 296.448C66.109 296.448 68.029 294.816 69.501 292L69.277 291.872C68.189 293.792 66.845 294.4 65.021 294.4C62.205 294.4 60.125 292.032 60.125 288.448C60.125 288 60.157 287.232 60.221 286.784C60.669 286.816 69.149 286.88 69.149 286.88C69.181 286.656 69.213 286.56 69.213 286.368C69.213 283.904 67.389 281.92 63.901 281.92C59.741 281.92 56.733 285.28 56.733 289.504C56.733 293.44 59.485 296.448 63.293 296.448ZM60.253 286.496C60.605 284.192 62.013 282.272 63.613 282.272C65.437 282.272 65.981 284.448 65.981 286.432L60.253 286.496ZM70.48 296H77.648L77.584 295.808L77.104 295.776C75.76 295.68 75.6 295.616 75.6 295.36V285.088C76.368 284.512 77.2 284.032 78.384 284.032C80.208 284.032 80.944 284.8 80.944 286.752V295.296C80.944 295.552 80.784 295.712 79.728 295.776L79.152 295.808L79.056 296H86.192L86.096 295.808L85.648 295.776C84.144 295.648 84.112 295.552 84.112 295.328V286.112L84.176 285.312C84.4 284.64 85.712 284.032 86.896 284.032C88.752 284.032 89.456 284.8 89.456 286.752V295.296C89.456 295.552 89.36 295.712 88.24 295.776L87.664 295.808L87.568 296H94.736L94.64 295.808L94.256 295.776C92.656 295.616 92.656 295.52 92.656 295.328V286.72C92.656 285.024 92.368 283.648 91.632 282.944C90.992 282.272 90.224 281.952 89.104 281.952C86.896 281.952 85.296 283.552 84.048 284.832L83.984 284.8C83.856 284 83.536 283.36 83.152 282.944C82.512 282.368 81.712 281.952 80.624 281.952C78.384 281.952 76.752 283.616 75.632 284.736H75.536L75.632 282.016L70.416 283.424L70.384 283.552L71.12 283.712C72.208 283.968 72.432 284.256 72.432 286.24V295.296C72.432 295.68 72.08 295.712 71.088 295.776L70.576 295.808L70.48 296ZM98.4948 279.584C99.8708 279.584 100.543 278.432 100.543 277.6C100.543 276.704 99.8708 275.552 98.4948 275.552C97.0868 275.552 96.4468 276.704 96.4468 277.6C96.4468 278.432 97.0868 279.584 98.4948 279.584ZM95.1988 296H102.431L102.335 295.808L101.919 295.776C100.511 295.648 100.319 295.616 100.319 295.36V282.016L95.1348 283.424L95.1028 283.552L95.8388 283.712C96.9268 283.968 97.1508 284.256 97.1508 286.208V295.296C97.1508 295.68 96.7988 295.712 95.8068 295.776L95.2948 295.808L95.1988 296ZM104.128 296.64H104.32L106.336 295.488H106.368C107.488 295.936 109.056 296.416 110.592 296.416C113.888 296.416 118.016 294.048 118.016 288.8C118.016 284.896 115.52 282.112 112.352 282.112C110.336 282.112 108.672 283.36 107.328 284.96L107.264 284.896V274.432L102.112 275.744L102.08 275.872L102.816 276.064C103.904 276.352 104.128 276.608 104.128 277.76V296.64ZM111.104 296.064C109.568 296.064 108 294.592 107.264 292.832V285.472C108.064 284.672 109.12 283.968 110.432 283.968C112.992 283.968 114.528 286.56 114.528 289.728C114.528 293.152 113.344 296.064 111.104 296.064ZM126.721 296.416C131.137 296.416 134.241 293.216 134.241 289.12C134.241 285.088 131.201 281.952 126.785 281.952C122.369 281.952 119.233 285.184 119.233 289.216C119.233 293.248 122.241 296.416 126.721 296.416ZM126.753 296.16C125.825 296.16 125.121 295.808 124.513 295.2C123.393 294.08 122.881 291.872 122.881 288.864C122.881 285.472 124.065 282.208 126.721 282.208C127.713 282.208 128.353 282.624 128.897 283.168C129.985 284.256 130.593 286.464 130.593 289.376C130.593 292.96 129.217 296.16 126.753 296.16ZM135.072 296H142.176L142.08 295.808L141.664 295.776C140.32 295.68 140.128 295.616 140.128 295.36V274.496L134.976 275.808L134.944 275.936L135.648 276.128C136.736 276.416 136.96 276.672 136.96 278.592V295.296C136.96 295.68 136.672 295.712 135.68 295.776L135.168 295.808L135.072 296ZM153.798 296.512L158.95 295.456L158.982 295.328L157.638 295.04C157.094 294.88 156.934 294.752 156.934 293.728V274.432L151.494 275.744L151.462 275.872L152.518 276.064C153.574 276.256 153.798 276.608 153.798 277.76V282.72H153.734C152.838 282.272 151.845 282.112 150.47 282.112C147.174 282.112 143.046 284.48 143.046 289.696C143.046 293.632 145.574 296.416 148.71 296.416C150.758 296.416 152.39 295.168 153.734 293.504L153.798 293.568V296.512ZM150.661 294.528C148.102 294.528 146.534 291.968 146.534 288.8C146.534 285.344 147.75 282.496 150.054 282.496C151.494 282.496 153.062 283.84 153.798 285.6V292.992C153.03 293.856 152.07 294.528 150.661 294.528Z" fill="black"/>
<path d="M195.168 287.328L196.864 292.64C197.536 294.752 197.472 295.648 195.84 295.744L194.912 295.808L194.816 296H204.384L204.288 295.808L203.392 295.744C201.92 295.648 201.472 295.072 200.352 291.712L194.976 275.488H194.528C194.016 276.672 193.344 277.536 192.096 277.952L192.48 278.944L188.928 288.896C186.688 295.072 186.4 295.488 184.384 295.744L183.84 295.808L183.744 296H190.88L190.784 295.808L190.144 295.744C187.072 295.424 187.168 294.976 188.608 290.656L189.792 287.328H195.168ZM189.92 287.008L192.608 279.456H192.672L195.072 287.008H189.92ZM214.596 296.32C216.132 296.32 217.316 294.752 217.956 293.952L217.764 293.856C217.38 294.272 216.932 294.72 216.42 294.72C215.684 294.72 215.204 294.144 215.268 292.992L215.588 286.944C215.78 283.104 214.5 281.952 211.236 281.952C208.644 281.952 204.548 283.68 204.548 285.568C204.548 286.432 205.252 287.008 206.212 287.008C207.204 287.008 207.908 286.272 207.908 285.472C207.908 284.608 207.012 283.872 207.012 283.648C207.012 283.296 208.036 282.752 209.188 282.752C211.204 282.752 212.484 284.096 212.388 287.04L212.356 288.096C206.244 289.536 204.644 291.136 204.644 293.28C204.644 294.88 206.084 296.288 207.94 296.288C209.572 296.288 210.916 295.072 212.164 293.728L212.196 293.792C212.388 295.392 213.188 296.32 214.596 296.32ZM209.796 294.528C208.708 294.528 207.78 293.536 207.78 292.16C207.78 290.56 208.58 289.28 212.356 288.416L212.164 293.408C211.332 294.24 210.628 294.528 209.796 294.528ZM218.265 296H226.713C232.697 296 235.609 293.664 235.609 290.4C235.609 287.488 233.017 285.152 228.409 284.896V284.8C232.697 284.192 234.521 282.528 234.521 280.384C234.521 277.952 232.569 276 226.425 276H218.297L218.393 276.224L219.225 276.32C220.857 276.448 221.049 276.512 221.049 276.736V295.168C221.049 295.36 220.665 295.552 219.545 295.68L218.361 295.808L218.265 296ZM226.425 295.68L224.665 295.104V285.28C225.049 285.216 225.593 285.184 226.265 285.184C229.433 285.184 231.769 287.424 231.769 290.56C231.769 293.152 229.945 295.456 226.937 295.616C227.161 295.616 226.425 295.68 226.425 295.68ZM224.665 284.864V276.416L225.721 276.384C228.921 276.384 230.681 277.76 230.681 280.64C230.681 283.2 228.857 284.832 225.753 284.864H224.665ZM238.128 296.64H238.32L240.336 295.488H240.368C241.488 295.936 243.056 296.416 244.592 296.416C247.888 296.416 252.016 294.048 252.016 288.8C252.016 284.896 249.52 282.112 246.352 282.112C244.336 282.112 242.672 283.36 241.328 284.96L241.264 284.896V274.432L236.112 275.744L236.08 275.872L236.816 276.064C237.904 276.352 238.128 276.608 238.128 277.76V296.64ZM245.104 296.064C243.568 296.064 242 294.592 241.264 292.832V285.472C242.064 284.672 243.12 283.968 244.432 283.968C246.992 283.968 248.528 286.56 248.528 289.728C248.528 293.152 247.344 296.064 245.104 296.064ZM264.945 296.448C267.185 296.448 270.097 295.712 271.249 295.2L272.305 294.976L273.425 289.6H273.233L272.305 291.264C270.609 294.304 268.753 296.096 265.137 296.096C260.881 296.096 257.425 292.032 257.425 285.856C257.425 280.384 260.145 275.872 265.169 275.872C267.025 275.872 268.657 276.352 269.393 276.928L272.529 282.4H272.721L272.561 276.032L270.577 276.832C269.521 276.256 267.313 275.52 265.233 275.52C258.001 275.52 253.489 280.064 253.489 286.08C253.489 292.192 258.161 296.448 264.945 296.448ZM281.48 296.448C284.232 296.448 286.088 294.816 287.528 292L287.272 291.872C286.184 293.792 285.032 294.4 283.208 294.4C280.392 294.4 278.376 292.16 278.376 288.384C278.376 284.704 280.136 282.24 282.504 282.24C283.496 282.24 284.456 282.816 284.456 283.264C284.456 283.52 283.752 284.064 283.752 285.088C283.752 285.984 284.52 286.784 285.512 286.784C286.472 286.784 287.272 285.952 287.272 284.96C287.272 283.104 285 281.952 282.312 281.952C277.896 281.952 274.952 285.344 274.952 289.536C274.952 293.472 277.704 296.448 281.48 296.448ZM325.333 296.352C329.813 296.352 333.397 293.12 333.397 288.352C333.397 283.616 329.877 280.384 325.493 280.384C321.045 280.384 317.429 283.68 317.429 288.448C317.429 293.184 320.885 296.352 325.333 296.352ZM325.429 296.096C322.485 296.096 321.045 292.896 321.045 288.032C321.045 284.096 322.741 280.672 325.365 280.672C328.245 280.672 329.781 284 329.781 288.608C329.781 292.64 328.085 296.096 325.429 296.096ZM335.007 296H343.359L343.263 295.808L342.431 295.776C341.023 295.712 340.703 295.584 340.703 295.328V280.544L334.399 281.408L334.303 281.6L337.471 282.048V295.264C337.471 295.648 337.087 295.744 336.063 295.776L335.103 295.808L335.007 296ZM344.983 296H357.239L358.743 289.28L358.519 289.184L358.359 289.536C357.175 292.448 356.471 293.472 355.959 293.472H347.927V293.376C353.175 289.28 356.023 287.424 356.023 284.48C356.023 282.208 354.103 280.416 351.543 280.416C348.727 280.416 346.711 282.304 345.271 285.216L345.495 285.344C346.615 283.328 347.831 282.496 349.687 282.496C351.511 282.496 353.015 283.904 353.015 285.952C353.015 288.704 351.383 290.336 344.855 295.424L344.983 296ZM363.416 302.432C367.992 302.432 371.448 298.944 371.448 295.296C371.448 292.224 369.272 289.632 365.432 289.664V289.6C367.672 288.384 370.072 287.104 370.072 284.448C370.072 282.208 368.184 280.416 365.464 280.416C362.744 280.416 360.696 282.304 359.416 285.216L359.64 285.312C360.568 283.328 361.976 282.496 363.768 282.496C365.752 282.496 367.128 283.904 367.128 285.952C367.128 288.64 364.92 289.632 361.016 292.032L361.112 292.256C361.944 291.968 362.84 291.712 363.8 291.712C366.68 291.712 368.6 293.824 368.6 296.96C368.6 299.84 366.648 301.92 364.504 301.92C363.96 301.92 363.128 301.696 363.096 301.696C363.384 299.968 362.392 298.368 360.888 298.368C359.928 298.368 359.224 299.072 359.224 300C359.224 301.248 360.792 302.432 363.416 302.432Z" fill="black"/>
<path d="M40.544 371H49.568C55.648 371 58.496 368.696 58.496 365.272C58.496 362.328 55.936 360.152 51.52 359.864V359.768C55.52 359.16 57.44 357.624 57.44 355.448C57.44 352.728 55.264 351 49.056 351H40.576L40.672 351.224L41.504 351.32C43.136 351.48 43.328 351.544 43.328 351.768V370.136C43.328 370.328 42.944 370.552 41.824 370.68L40.64 370.808L40.544 371ZM49.12 370.68L47.456 370.136V360.312C47.776 360.248 48.192 360.216 48.736 360.216C51.808 360.216 54.176 362.328 54.176 365.464C54.176 368.216 52.32 370.392 49.536 370.584C49.696 370.584 49.12 370.68 49.12 370.68ZM47.456 359.928V351.448L48.288 351.416C51.296 351.416 53.184 352.728 53.184 355.64C53.184 358.424 51.2 359.96 48.224 359.928H47.456ZM67.9733 371.448C72.5493 371.448 75.6853 368.184 75.6853 364.056C75.6853 360.056 72.6773 356.856 68.1013 356.856C63.5573 356.856 60.3893 360.12 60.3893 364.152C60.3893 368.184 63.3653 371.448 67.9733 371.448ZM68.0052 371.16C67.1733 371.16 66.5653 370.904 66.0213 370.36C65.0293 369.336 64.4213 367.288 64.4213 363.896C64.4213 360.216 65.5733 357.144 68.0373 357.144C68.9013 357.144 69.4773 357.464 69.9893 357.944C70.9813 358.936 71.6213 360.984 71.6213 364.312C71.6213 368.12 70.3413 371.16 68.0052 371.16ZM76.573 371H84.029L83.933 370.808L83.517 370.776C82.269 370.68 82.045 370.584 82.045 370.328V349.496L76.413 350.904L76.381 351.032L77.085 351.224C78.173 351.512 78.397 351.768 78.397 353.72V370.264C78.397 370.648 78.141 370.712 77.149 370.776L76.669 370.808L76.573 371ZM95.7045 371.48L101.337 370.36L101.369 370.232L100.217 369.976C99.4805 369.784 99.3205 369.624 99.3205 368.312V349.464L93.4005 350.872L93.3685 351L94.4245 351.192C95.4805 351.384 95.7045 351.736 95.7045 353.112V357.592H95.6405C94.8725 357.208 93.9125 357.016 92.5365 357.016C89.1445 357.016 84.9205 359.384 84.9205 364.6C84.9205 368.536 87.4805 371.448 90.6165 371.448C92.6325 371.448 94.3605 370.072 95.6405 368.44L95.7045 368.504V371.48ZM92.7925 369.368C90.3925 369.368 88.8885 366.872 88.8885 363.64C88.8885 360.216 90.0085 357.368 92.1845 357.368C93.4325 357.368 94.9365 358.68 95.7045 360.408V367.992C94.9685 368.76 94.1045 369.368 92.7925 369.368Z" fill="black"/>
<path d="M195.008 362.392L196.8 367.832C197.472 369.848 197.408 370.648 195.808 370.744L194.944 370.808L194.848 371H204.864L204.8 370.808L203.904 370.744C202.496 370.648 201.952 370.072 200.768 366.616L195.264 350.456H194.688C194.08 351.896 193.376 352.856 191.968 353.272L192.32 354.296L188.736 364.344C186.656 370.04 186.4 370.488 184.32 370.744L183.776 370.808L183.68 371H190.72L190.624 370.808L189.984 370.744C186.912 370.424 187.104 370.04 188.608 365.624L189.76 362.392H195.008ZM189.888 362.072L192.48 354.776H192.512L194.912 362.072H189.888ZM215.415 371.352C217.047 371.352 218.359 369.624 219.063 368.728L218.871 368.632C218.487 369.08 218.039 369.56 217.527 369.56C216.791 369.56 216.279 368.984 216.343 367.8L216.631 361.816C216.791 358.2 215.543 356.856 212.055 356.856C209.399 356.856 205.111 358.488 205.111 360.536C205.111 361.496 205.911 362.072 206.903 362.072C207.991 362.072 208.759 361.336 208.759 360.408C208.759 359.576 207.799 358.776 207.799 358.52C207.799 358.168 208.599 357.688 209.783 357.688C211.831 357.688 213.079 359.192 212.983 361.88L212.951 362.968C206.871 364.472 205.111 366.04 205.111 368.28C205.111 369.848 206.551 371.32 208.407 371.32C210.071 371.32 211.447 370.072 212.791 368.568L212.823 368.6C213.047 370.328 213.911 371.352 215.415 371.352ZM210.615 369.272C209.495 369.272 208.663 368.312 208.663 366.968C208.663 365.336 209.559 364.12 212.983 363.32L212.759 368.216C212.055 368.952 211.415 369.272 210.615 369.272ZM219.294 371H228.318C234.398 371 237.246 368.696 237.246 365.272C237.246 362.328 234.686 360.152 230.27 359.864V359.768C234.27 359.16 236.19 357.624 236.19 355.448C236.19 352.728 234.014 351 227.806 351H219.326L219.422 351.224L220.254 351.32C221.886 351.48 222.078 351.544 222.078 351.768V370.136C222.078 370.328 221.694 370.552 220.574 370.68L219.39 370.808L219.294 371ZM227.87 370.68L226.206 370.136V360.312C226.526 360.248 226.942 360.216 227.486 360.216C230.558 360.216 232.926 362.328 232.926 365.464C232.926 368.216 231.07 370.392 228.286 370.584C228.446 370.584 227.87 370.68 227.87 370.68ZM226.206 359.928V351.448L227.038 351.416C230.046 351.416 231.934 352.728 231.934 355.64C231.934 358.424 229.95 359.96 226.974 359.928H226.206ZM239.691 371.672H239.883L242.091 370.456H242.123C243.339 370.968 244.875 371.448 246.475 371.448C249.867 371.448 254.091 369.016 254.091 363.768C254.091 359.864 251.563 357.016 248.395 357.016C246.379 357.016 244.651 358.328 243.371 359.928L243.275 359.832V349.464L237.675 350.872L237.643 351L238.379 351.192C239.467 351.48 239.691 351.736 239.691 353.112V371.672ZM246.923 371.096C245.579 371.096 244.075 369.688 243.275 367.96V360.408C244.043 359.672 244.971 359.032 246.219 359.032C248.651 359.032 250.123 361.56 250.123 364.792C250.123 368.216 249.003 371.096 246.923 371.096ZM267.104 371.384C269.312 371.384 272.256 370.68 273.408 370.168L274.464 370.008L275.552 364.344H275.36L274.368 366.232C272.767 369.272 270.816 371.032 267.264 371.032C263.264 371.032 260.032 367.128 260.032 360.952C260.032 355.32 262.656 350.936 267.392 350.936C269.152 350.936 270.752 351.384 271.424 351.864L274.656 357.528H274.848L274.656 351.096L272.608 351.768C271.552 351.192 269.44 350.552 267.456 350.552C259.936 350.552 255.552 355.256 255.552 361.144C255.552 367 260.128 371.384 267.104 371.384ZM283.67 371.48C286.55 371.48 288.566 369.784 289.942 366.84L289.718 366.744C288.726 368.568 287.542 369.24 285.718 369.24C282.838 369.24 280.982 367.064 280.982 363.224C280.982 359.544 282.582 357.208 284.822 357.208C285.782 357.208 286.678 357.752 286.678 358.2C286.678 358.456 285.878 359.128 285.878 360.12C285.878 361.112 286.71 361.944 287.798 361.944C288.854 361.944 289.686 361.08 289.686 359.992C289.686 358.104 287.414 356.856 284.598 356.856C280.118 356.856 277.046 360.248 277.046 364.568C277.046 368.504 279.83 371.48 283.67 371.48ZM327.962 371.384C332.538 371.384 336.282 368.088 336.282 363.256C336.282 358.456 332.698 355.224 328.186 355.224C323.642 355.224 319.866 358.552 319.866 363.352C319.866 368.216 323.418 371.384 327.962 371.384ZM328.058 371.064C325.274 371.064 323.866 368.152 323.866 363.064C323.866 358.904 325.562 355.512 328.058 355.512C330.81 355.512 332.282 358.584 332.282 363.48C332.282 367.704 330.586 371.064 328.058 371.064ZM337.785 371H346.521L346.425 370.808L345.721 370.776C344.409 370.712 343.961 370.616 343.961 370.36V355.416L337.273 356.408L337.177 356.632L340.185 356.984V370.296C340.185 370.68 339.737 370.744 338.713 370.776L337.881 370.808L337.785 371ZM348.172 371H360.684L362.284 363.896L362.028 363.832L361.868 364.184C360.62 367.16 359.948 368.216 359.404 368.216L351.18 368.184V368.12C356.716 364.056 359.532 362.328 359.532 359.384C359.532 357.08 357.548 355.288 354.86 355.288C351.884 355.288 349.676 357.176 348.3 360.216L348.524 360.312C349.516 358.392 350.796 357.592 352.588 357.592C354.476 357.592 355.98 359 355.98 361.048C355.98 363.896 354.188 365.432 348.012 370.136L348.172 371ZM367.299 377.432C371.971 377.432 375.523 373.88 375.523 370.168C375.523 367.096 373.379 364.504 369.539 364.408V364.376C371.811 363.224 374.147 361.912 374.147 359.32C374.147 357.08 372.259 355.288 369.379 355.288C366.435 355.288 364.291 357.176 363.075 360.184L363.299 360.28C364.131 358.392 365.507 357.592 367.267 357.592C369.283 357.592 370.691 359 370.691 361.112C370.691 363.704 368.675 364.696 364.611 367L364.707 367.288C365.571 366.904 366.467 366.648 367.427 366.648C370.243 366.648 372.131 368.76 372.131 371.864C372.131 374.776 370.339 376.952 368.131 376.952C367.651 376.952 367.043 376.792 366.979 376.76C367.235 374.904 366.243 373.08 364.579 373.08C363.555 373.08 362.787 373.816 362.787 374.84C362.787 376.248 364.515 377.432 367.299 377.432Z" fill="black"/>
<path d="M40.32 446H50.528C56.832 446 59.552 443.696 59.552 440.08C59.552 437.072 57.024 435.152 52.992 434.8V434.736C56.448 434.16 58.56 432.816 58.56 430.608C58.56 427.28 55.936 426 49.6 426H40.352L40.448 426.256L41.312 426.352C42.912 426.544 43.104 426.544 43.104 426.768V445.136C43.104 445.328 42.752 445.52 41.632 445.68L40.416 445.808L40.32 446ZM49.76 445.68L48.32 445.136V435.344C48.416 435.312 48.64 435.28 48.896 435.28C51.776 435.28 54.272 437.136 54.272 440.304C54.272 443.312 52.288 445.296 50.016 445.584L49.76 445.68ZM48.32 435.024V426.48L48.672 426.416C51.264 426.416 53.472 427.696 53.472 430.672C53.472 433.84 51.136 435.152 48.448 435.024H48.32ZM60.8573 446H68.9533L68.8573 445.808L68.4733 445.776C67.3853 445.712 67.1293 445.584 67.1293 445.328V424.528L60.5693 426.128L60.5373 426.256L61.2413 426.448C62.3293 426.736 62.5533 426.992 62.5533 428.912V445.264C62.5533 445.648 62.3932 445.712 61.4013 445.776L60.9853 445.808L60.8573 446ZM81.0223 446.352C82.8783 446.352 84.4143 444.336 85.2783 443.28L85.0543 443.184C84.7023 443.696 84.2223 444.272 83.7103 444.272C83.0063 444.272 82.3983 443.696 82.4623 442.416L82.7183 436.592C82.8143 433.328 81.5983 431.728 77.6623 431.728C74.9103 431.728 70.2383 433.072 70.2383 435.504C70.2383 436.656 71.1983 437.232 72.2863 437.232C73.5343 437.232 74.4623 436.4 74.4623 435.312C74.4623 434.48 73.3743 433.552 73.3743 433.264C73.3743 432.88 73.7263 432.592 74.9423 432.592C77.0863 432.592 78.2703 434.32 78.1743 436.592L78.1423 437.776C72.0943 439.408 70.0143 440.88 70.0143 443.312C70.0143 444.816 71.4543 446.32 73.3103 446.32C75.0383 446.32 76.4463 445.04 78.0143 443.216L78.0783 443.28C78.3663 445.168 79.3583 446.352 81.0223 446.352ZM76.2543 443.824C75.0383 443.824 74.4303 442.896 74.4303 441.616C74.4303 439.92 75.4223 438.864 78.1743 438.128L77.9503 442.896C77.4703 443.408 76.9583 443.824 76.2543 443.824ZM92.3935 446.512C95.5295 446.512 97.8015 444.752 99.0495 441.584L98.8575 441.488C98.0895 443.152 96.8735 443.984 95.0495 443.984C92.0735 443.984 90.5055 441.872 90.5055 437.968C90.5055 434.256 91.7855 432.176 93.7695 432.176C94.6975 432.176 95.4335 432.592 95.4335 433.072C95.4335 433.328 94.4735 434.256 94.4735 435.184C94.4735 436.368 95.4335 437.296 96.6815 437.296C97.9295 437.296 98.8575 436.336 98.8575 435.056C98.8575 433.136 96.5535 431.728 93.4815 431.728C88.8735 431.728 85.5455 435.056 85.5455 439.568C85.5455 443.536 88.4255 446.512 92.3935 446.512ZM99.4785 446H107.863L107.831 445.808L107.319 445.776C105.943 445.68 105.751 445.584 105.751 445.328V439.696L106.615 438.992L109.847 445.424L110.135 446H116.887L116.791 445.808L116.311 445.776C115.383 445.712 114.999 445.328 114.039 443.472L110.039 435.856C110.007 435.824 110.199 435.632 110.199 435.632C113.015 432.816 113.975 432.688 115.639 432.432L116.087 432.368L116.183 432.176H107.991L108.119 432.368L108.535 432.4C110.743 432.56 110.903 433.008 110.903 433.648C110.903 434.384 110.167 435.408 107.639 437.712L105.751 439.312V424.528L99.1905 426.128L99.1585 426.256L99.8945 426.448C101.015 426.736 101.174 426.992 101.174 428.912V445.264C101.174 445.648 100.823 445.648 99.8625 445.776L99.5745 445.808L99.4785 446Z" fill="black"/>
<path d="M194.688 437.552L196.64 443.152C197.312 445.04 197.248 445.616 195.712 445.744L195.008 445.808L194.912 446H205.856L205.824 445.808L204.928 445.744C203.648 445.648 202.912 445.04 201.6 441.488L195.872 425.36H195.04C194.208 427.312 193.472 428.432 191.68 428.912L192.064 429.968L188.352 440.272C186.56 445.008 186.4 445.488 184.192 445.744L183.616 445.808L183.52 446H190.368L190.272 445.808L189.664 445.744C186.56 445.392 186.976 445.2 188.576 440.528L189.632 437.552H194.688ZM189.76 437.232L192.192 430.448H192.224L194.592 437.232H189.76ZM217.022 446.352C218.878 446.352 220.414 444.336 221.278 443.28L221.054 443.184C220.702 443.696 220.222 444.272 219.71 444.272C219.006 444.272 218.398 443.696 218.462 442.416L218.718 436.592C218.814 433.328 217.598 431.728 213.662 431.728C210.91 431.728 206.238 433.072 206.238 435.504C206.238 436.656 207.198 437.232 208.286 437.232C209.534 437.232 210.462 436.4 210.462 435.312C210.462 434.48 209.374 433.552 209.374 433.264C209.374 432.88 209.726 432.592 210.942 432.592C213.086 432.592 214.27 434.32 214.174 436.592L214.142 437.776C208.094 439.408 206.014 440.88 206.014 443.312C206.014 444.816 207.454 446.32 209.31 446.32C211.038 446.32 212.446 445.04 214.014 443.216L214.078 443.28C214.366 445.168 215.358 446.352 217.022 446.352ZM212.254 443.824C211.038 443.824 210.43 442.896 210.43 441.616C210.43 439.92 211.422 438.864 214.174 438.128L213.95 442.896C213.47 443.408 212.958 443.824 212.254 443.824ZM221.258 446H231.466C237.77 446 240.49 443.696 240.49 440.08C240.49 437.072 237.962 435.152 233.93 434.8V434.736C237.385 434.16 239.498 432.816 239.498 430.608C239.498 427.28 236.874 426 230.538 426H221.29L221.386 426.256L222.25 426.352C223.85 426.544 224.042 426.544 224.042 426.768V445.136C224.042 445.328 223.69 445.52 222.57 445.68L221.354 445.808L221.258 446ZM230.698 445.68L229.258 445.136V435.344C229.354 435.312 229.578 435.28 229.834 435.28C232.714 435.28 235.21 437.136 235.21 440.304C235.21 443.312 233.226 445.296 230.954 445.584L230.698 445.68ZM229.258 435.024V426.48L229.61 426.416C232.202 426.416 234.41 427.696 234.41 430.672C234.41 433.84 232.074 435.152 229.385 435.024H229.258ZM242.691 446.704H242.883L245.475 445.456H245.507C246.947 446 248.419 446.448 250.147 446.448C253.699 446.448 258.115 444.016 258.115 438.736C258.115 434.8 255.523 431.856 252.355 431.856C250.371 431.856 248.483 433.264 247.331 434.832L247.203 434.736V424.464L240.675 426.064L240.643 426.192L241.379 426.384C242.499 426.672 242.691 426.928 242.691 428.848V446.704ZM250.467 446.128C249.475 446.128 248.099 444.848 247.203 443.248V435.248C247.907 434.704 248.579 434.16 249.699 434.16C251.875 434.16 253.187 436.56 253.187 439.888C253.187 443.28 252.227 446.128 250.467 446.128ZM271.359 446.32C273.471 446.32 276.511 445.648 277.663 445.168L278.719 445.008L279.743 438.8H279.551L278.367 441.232C276.991 444.24 274.815 445.968 271.455 445.968C267.935 445.968 265.183 442.256 265.183 436.08C265.183 430.16 267.583 426 271.743 426C273.311 426 274.815 426.416 275.359 426.768L278.847 432.816H279.039L278.751 426.192L276.543 426.672C275.487 426.096 273.631 425.584 271.743 425.584C263.711 425.584 259.583 430.576 259.583 436.208C259.583 441.648 263.967 446.32 271.359 446.32ZM287.831 446.512C290.967 446.512 293.239 444.752 294.487 441.584L294.295 441.488C293.527 443.152 292.311 443.984 290.487 443.984C287.511 443.984 285.943 441.872 285.943 437.968C285.943 434.256 287.223 432.176 289.207 432.176C290.135 432.176 290.871 432.592 290.871 433.072C290.871 433.328 289.911 434.256 289.911 435.184C289.911 436.368 290.871 437.296 292.119 437.296C293.367 437.296 294.295 436.336 294.295 435.056C294.295 433.136 291.991 431.728 288.919 431.728C284.311 431.728 280.983 435.056 280.983 439.568C280.983 443.536 283.863 446.512 287.831 446.512ZM333.003 446.384C337.771 446.384 341.867 443.088 341.867 438.096C341.867 433.168 338.123 429.968 333.387 429.968C328.651 429.968 324.523 433.328 324.523 438.224C324.523 443.216 328.299 446.384 333.003 446.384ZM333.099 446.064C330.667 446.064 329.323 443.6 329.323 438.064C329.323 433.488 330.987 430.224 333.227 430.224C335.755 430.224 337.067 432.752 337.067 438.288C337.067 442.768 335.371 446.064 333.099 446.064ZM342.779 446H352.283L352.187 445.808L351.739 445.776C350.619 445.712 349.947 445.616 349.947 445.36V430.16L342.427 431.376L342.331 431.632L345.019 431.888V445.296C345.019 445.68 344.475 445.744 343.451 445.776L342.875 445.808L342.779 446ZM353.955 446H367.043L368.835 438.192L368.547 438.096L368.355 438.48C366.979 441.584 366.371 442.704 365.795 442.704L357.155 442.672V442.576C363.267 438.576 366.051 437.104 366.051 434.16C366.051 431.792 363.939 430.032 360.963 430.032C357.667 430.032 355.043 431.92 353.795 435.184L354.019 435.28C354.787 433.552 356.163 432.816 357.859 432.816C359.875 432.816 361.379 434.224 361.379 436.272C361.379 439.312 359.331 440.56 353.731 444.528L353.955 446ZM374.597 452.432C379.493 452.432 383.205 448.752 383.205 444.912C383.205 441.872 381.157 439.312 377.285 438.928V438.896C379.653 437.904 381.829 436.592 381.829 434.096C381.829 431.792 379.973 430.032 376.773 430.032C373.381 430.032 371.045 431.92 369.957 435.184L370.181 435.216C370.789 433.552 372.133 432.752 373.765 432.752C375.845 432.752 377.349 434.192 377.349 436.4C377.349 438.8 375.685 439.824 371.301 441.968L371.429 442.288C372.357 441.84 373.253 441.552 374.245 441.552C376.901 441.552 378.693 443.696 378.693 446.672C378.693 449.712 377.285 452.016 374.949 452.016C374.565 452.016 374.405 451.92 374.277 451.856C374.501 449.84 373.509 447.536 371.493 447.536C370.341 447.536 369.477 448.336 369.477 449.488C369.477 451.216 371.493 452.432 374.597 452.432Z" fill="black"/>
</svg>
