<svg width="445" height="496" viewBox="0 0 445 496" fill="none" xmlns="http://www.w3.org/2000/svg">
<rect width="445" height="496" fill="#F3F3F3"/>
<path d="M98.2334 87H111.001L110.857 86.616L108.505 86.472C106.009 86.328 105.721 86.088 105.721 85.752V71.592L109.993 71.688C114.073 71.784 114.169 72.12 114.409 75.432L114.457 75.96L114.697 76.008L115.609 66.936L115.369 66.888L115.129 67.416C114.313 70.296 114.025 70.968 110.329 71.112H105.721V57.384H112.249C117.289 57.384 118.729 59.976 120.313 64.584L120.553 65.16L120.841 65.112L119.737 57H98.2814L98.4254 57.288L99.8174 57.432C102.313 57.624 102.601 57.72 102.601 58.056V85.8C102.601 86.088 101.977 86.376 100.297 86.52L98.3774 86.712L98.2334 87ZM120.21 87H129.714L129.57 86.712L127.986 86.664C125.874 86.616 125.922 86.472 125.922 86.088V75.576C127.362 70.2 128.418 68.088 130.722 67.608C130.818 69.48 131.778 70.392 132.834 70.392C134.082 70.392 134.802 69.288 134.802 68.28C134.802 67.176 133.938 66.072 132.258 66.072C129.234 66.072 127.122 69.48 125.826 74.568H125.778L125.97 66.168L120.21 67.656L120.162 67.848L121.266 67.992C122.898 68.136 123.234 68.808 123.234 71.784V85.992C123.234 86.568 122.706 86.568 121.218 86.664L120.354 86.712L120.21 87ZM144.813 87.576C148.653 87.576 151.053 85.32 153.069 81.912L152.733 81.768C150.909 84.552 149.085 85.704 145.965 85.704C141.693 85.704 138.285 81.624 138.285 75.864C138.285 75 138.429 73.992 138.525 73.224L152.493 73.272C152.541 72.888 152.589 72.792 152.589 72.552C152.589 69.288 149.997 66.072 145.197 66.072C139.197 66.072 135.357 71.208 135.357 77.256C135.357 82.92 139.581 87.576 144.813 87.576ZM138.621 72.744C139.581 69.144 142.269 66.552 144.909 66.552C147.933 66.552 149.469 69.336 149.469 72.696L138.621 72.744ZM158.365 61.512C159.757 61.512 160.333 60.264 160.333 59.496C160.333 58.68 159.853 57.384 158.365 57.384C156.925 57.384 156.301 58.68 156.301 59.496C156.301 60.264 156.925 61.512 158.365 61.512ZM154.429 87H163.357L163.213 86.712L162.541 86.664C160.429 86.52 160.141 86.472 160.141 86.088V66.168L154.429 67.656L154.381 67.848L155.485 67.992C157.117 68.136 157.453 68.808 157.453 71.688V85.992C157.453 86.568 156.925 86.568 155.437 86.664L154.573 86.712L154.429 87ZM171.762 98.952C178.674 98.952 183.666 94.968 183.666 89.784C183.666 86.712 180.93 84.744 176.61 84.744C174.882 84.744 172.434 84.888 171.186 84.888C168.21 84.888 167.106 84.264 167.106 82.68C167.106 81.336 168.642 80.088 170.61 79.704C171.042 79.8 172.098 80.04 173.106 80.04C177.522 80.04 181.074 77.064 181.074 72.984C181.074 71.16 180.066 69.48 178.866 68.376L178.914 68.28L183.378 68.472L183.666 66.792L178.242 67.752C176.946 66.744 175.17 66.12 173.346 66.12C169.074 66.12 165.57 69.192 165.57 73.368C165.57 76.344 167.682 78.696 170.13 79.464V79.512C167.442 79.944 164.466 81.96 164.466 84.408C164.466 86.328 166.53 87.288 169.746 87.528V87.576C167.298 88.488 163.986 90.888 163.986 93.624C163.986 96.936 167.154 98.952 171.762 98.952ZM173.25 79.656C170.514 79.656 168.402 76.92 168.402 72.888C168.402 69.192 170.658 66.504 173.298 66.504C176.418 66.504 178.242 69.192 178.242 73.368C178.242 77.16 175.938 79.656 173.25 79.656ZM173.538 98.136C168.978 98.136 166.002 95.928 166.002 93.096C166.002 90.456 168.69 88.296 170.322 87.672C171.714 87.48 174.594 87.336 175.986 87.384C180.162 87.528 182.034 89.16 182.034 91.848C182.034 95.448 177.762 98.136 173.538 98.136ZM184.326 87H193.206L193.062 86.712L192.39 86.664C190.23 86.52 189.942 86.472 189.942 86.088V71.112C191.814 69.336 193.974 68.088 196.374 68.088C199.014 68.088 200.502 69.624 200.502 72.456V85.992C200.502 86.376 200.262 86.568 198.486 86.664L197.622 86.712L197.478 87H206.406L206.262 86.712L205.542 86.664C203.142 86.568 203.142 86.328 203.142 86.04V71.784C203.142 69.768 202.614 68.424 201.606 67.368C200.79 66.552 199.638 66.072 198.198 66.072C194.742 66.072 191.814 69 189.942 70.584V54.696L184.278 56.04L184.23 56.232L185.334 56.328C187.014 56.568 187.254 57.144 187.254 59.736V85.992C187.254 86.568 186.726 86.568 185.286 86.664L184.47 86.712L184.326 87ZM214.507 87.576C217.051 87.576 218.539 85.848 220.459 83.928L220.171 83.832C218.971 84.792 217.915 86.088 216.043 86.088C214.603 86.088 213.115 85.272 213.211 82.824L213.547 68.184H219.547L220.027 66.744H213.547L213.595 62.568H210.955L210.859 66.696H207.595L207.115 68.136L210.811 68.184L210.475 83.352C210.427 87.144 213.019 87.576 214.507 87.576ZM221.754 87H233.13C240.378 87 244.842 83.736 244.842 78.6C244.842 74.28 241.626 70.728 234.426 70.392V70.296C241.242 69.336 243.162 66.552 243.162 63.336C243.162 59.304 239.322 57 232.986 57H221.802L221.946 57.288L223.146 57.432C225.642 57.624 225.93 57.816 225.93 58.152V85.8C225.93 86.088 225.306 86.376 223.626 86.52L221.898 86.712L221.754 87ZM232.938 86.616L229.05 85.8V70.872C229.818 70.776 231.258 70.728 232.17 70.728C237.786 70.728 241.53 74.184 241.53 78.84C241.53 82.488 239.802 86.04 234.186 86.472C234.282 86.472 232.938 86.616 232.938 86.616ZM229.05 70.296V57.528H232.074C237.114 57.528 239.754 59.544 239.754 63.816C239.754 67.32 237.114 70.152 231.642 70.248L229.05 70.296ZM251.177 61.512C252.569 61.512 253.145 60.264 253.145 59.496C253.145 58.68 252.665 57.384 251.177 57.384C249.737 57.384 249.113 58.68 249.113 59.496C249.113 60.264 249.737 61.512 251.177 61.512ZM247.241 87H256.169L256.025 86.712L255.353 86.664C253.241 86.52 252.953 86.472 252.953 86.088V66.168L247.241 67.656L247.193 67.848L248.297 67.992C249.929 68.136 250.265 68.808 250.265 71.688V85.992C250.265 86.568 249.737 86.568 248.249 86.664L247.385 86.712L247.241 87ZM264.574 98.952C271.486 98.952 276.478 94.968 276.478 89.784C276.478 86.712 273.742 84.744 269.422 84.744C267.694 84.744 265.246 84.888 263.998 84.888C261.022 84.888 259.918 84.264 259.918 82.68C259.918 81.336 261.454 80.088 263.422 79.704C263.854 79.8 264.91 80.04 265.918 80.04C270.334 80.04 273.886 77.064 273.886 72.984C273.886 71.16 272.878 69.48 271.678 68.376L271.726 68.28L276.19 68.472L276.478 66.792L271.054 67.752C269.758 66.744 267.982 66.12 266.158 66.12C261.886 66.12 258.382 69.192 258.382 73.368C258.382 76.344 260.494 78.696 262.942 79.464V79.512C260.254 79.944 257.278 81.96 257.278 84.408C257.278 86.328 259.342 87.288 262.558 87.528V87.576C260.11 88.488 256.798 90.888 256.798 93.624C256.798 96.936 259.966 98.952 264.574 98.952ZM266.062 79.656C263.326 79.656 261.214 76.92 261.214 72.888C261.214 69.192 263.47 66.504 266.11 66.504C269.23 66.504 271.054 69.192 271.054 73.368C271.054 77.16 268.75 79.656 266.062 79.656ZM266.35 98.136C261.79 98.136 258.814 95.928 258.814 93.096C258.814 90.456 261.502 88.296 263.134 87.672C264.526 87.48 267.406 87.336 268.798 87.384C272.974 87.528 274.846 89.16 274.846 91.848C274.846 95.448 270.574 98.136 266.35 98.136ZM286.472 87H299.72L299.576 86.712L297.224 86.568C294.728 86.424 294.44 86.28 294.44 85.944V72.024C295.448 72.168 297.512 72.408 299 72.408C305.528 72.408 309.992 69.096 309.992 64.104C309.992 59.544 306.296 57 299.528 57H286.52L286.664 57.288L288.536 57.432C291.032 57.624 291.32 57.72 291.32 58.056V85.8C291.32 86.088 290.696 86.376 289.016 86.52L286.616 86.712L286.472 87ZM299 72.024C297.032 72.024 295.448 71.688 294.44 71.4V57.432L298.232 57.384C304.472 57.288 306.68 60.024 306.68 64.632C306.68 69.432 304.04 72.024 299 72.024ZM310.851 87H320.355L320.211 86.712L318.627 86.664C316.515 86.616 316.563 86.472 316.563 86.088V75.576C318.003 70.2 319.059 68.088 321.363 67.608C321.459 69.48 322.419 70.392 323.475 70.392C324.723 70.392 325.443 69.288 325.443 68.28C325.443 67.176 324.579 66.072 322.899 66.072C319.875 66.072 317.763 69.48 316.467 74.568H316.419L316.611 66.168L310.851 67.656L310.803 67.848L311.907 67.992C313.539 68.136 313.875 68.808 313.875 71.784V85.992C313.875 86.568 313.347 86.568 311.859 86.664L310.995 86.712L310.851 87ZM336.462 87.576C342.174 87.576 346.83 82.824 346.83 76.68C346.83 70.728 342.222 66.072 336.462 66.072C330.654 66.072 325.998 70.968 325.998 76.968C325.998 82.92 330.606 87.576 336.462 87.576ZM336.51 87.288C334.782 87.288 333.15 86.664 332.094 85.608C330.174 83.688 329.118 80.184 329.118 76.248C329.118 70.728 332.334 66.456 336.366 66.456C338.142 66.456 339.726 67.128 340.926 68.376C342.798 70.248 343.614 73.56 343.614 77.208C343.614 82.872 340.446 87.288 336.51 87.288Z" fill="black"/>
<path d="M93.8763 157H107.268L107.124 156.664L104.772 156.52C102.276 156.376 101.988 156.184 101.988 155.848V141.832L105.06 141.928C109.812 142.12 110.676 142.408 110.916 145.864L110.964 146.488L111.252 146.536L112.212 136.888L111.924 136.84L111.684 137.464C110.724 140.584 109.764 141.16 105.396 141.352H101.988V127.432H107.844C113.748 127.432 115.092 130.312 116.772 135.16L117.012 135.784L117.3 135.736L116.34 127H93.9243L94.0683 127.288L95.4603 127.432C97.9563 127.624 98.1483 127.768 98.1483 128.104V155.752C98.1483 156.04 97.6203 156.376 95.9403 156.52L94.0203 156.712L93.8763 157ZM116.647 157H126.967L126.823 156.712L125.287 156.664C123.175 156.616 123.031 156.424 123.031 156.04V145.48C124.375 140.584 125.383 138.424 127.447 137.992C127.543 140.008 128.743 140.92 129.943 140.92C131.383 140.92 132.247 139.672 132.247 138.52C132.247 137.272 131.095 136.072 129.415 136.072C126.343 136.072 124.279 139.192 122.983 144.136H122.935L123.079 136.168L116.647 137.848L116.599 138.04L117.703 138.232C119.335 138.472 119.671 139.048 119.671 142.024V155.944C119.671 156.52 119.143 156.568 117.655 156.664L116.791 156.712L116.647 157ZM142.284 157.624C146.172 157.624 148.764 155.272 150.924 151.528L150.588 151.384C148.764 154.264 146.844 155.224 143.916 155.224C139.692 155.224 136.38 151.48 136.38 145.816C136.38 145.096 136.476 143.944 136.572 143.224L150.348 143.272C150.396 142.936 150.444 142.84 150.444 142.6C150.444 138.952 147.708 136.024 142.86 136.024C136.764 136.024 132.732 141.16 132.732 147.304C132.732 153.064 136.86 157.624 142.284 157.624ZM136.668 142.792C137.436 139.384 139.884 136.504 142.524 136.504C145.452 136.504 146.7 139.48 146.7 142.696L136.668 142.792ZM156.544 131.8C158.176 131.8 158.896 130.408 158.896 129.448C158.896 128.488 158.224 127.048 156.544 127.048C154.864 127.048 154.144 128.488 154.144 129.448C154.144 130.408 154.864 131.8 156.544 131.8ZM152.272 157H161.872L161.728 156.712L161.056 156.664C158.944 156.52 158.656 156.424 158.656 156.04V136.168L152.272 137.848L152.224 138.04L153.328 138.232C154.96 138.472 155.296 139.048 155.296 141.976V155.944C155.296 156.52 154.768 156.568 153.28 156.664L152.416 156.712L152.272 157ZM170.262 168.904C177.462 168.904 182.406 164.872 182.406 159.592C182.406 156.28 179.814 154.312 175.35 154.312C173.622 154.312 171.27 154.456 169.974 154.456C167.19 154.456 165.942 153.928 165.942 152.392C165.942 151.048 167.286 149.992 169.11 149.656C169.59 149.752 170.79 149.992 171.798 149.992C176.358 149.992 179.91 146.968 179.91 142.936C179.91 141.256 178.998 139.624 177.894 138.616L177.942 138.472L182.454 138.904L182.838 136.84L177.222 137.896C175.83 136.84 174.054 136.12 171.99 136.12C167.574 136.12 164.07 139.192 164.07 143.32C164.07 146.296 166.182 148.6 168.486 149.368V149.464C165.942 149.896 162.966 151.816 162.966 154.312C162.966 156.232 165.078 157.432 168.294 157.72V157.816C165.798 158.728 162.486 160.984 162.486 163.72C162.486 166.984 165.51 168.904 170.262 168.904ZM171.942 149.608C169.35 149.608 167.574 146.968 167.574 142.84C167.574 139.096 169.446 136.504 171.942 136.504C175.158 136.504 176.502 139.384 176.502 143.464C176.502 147.16 174.486 149.608 171.942 149.608ZM172.47 168.04C168.15 168.04 165.126 165.832 165.126 162.856C165.126 160.552 167.238 158.536 168.87 157.912C170.262 157.72 172.854 157.576 174.198 157.624C178.518 157.768 180.342 159.352 180.342 161.896C180.342 165.304 176.694 168.04 172.47 168.04ZM183.201 157H192.753L192.609 156.712L191.937 156.664C189.777 156.52 189.489 156.424 189.489 156.04V140.968C191.025 139.528 192.945 138.472 195.249 138.472C197.985 138.472 199.425 139.864 199.425 142.696V155.944C199.425 156.328 199.137 156.568 197.409 156.664L196.545 156.712L196.401 157H206.001L205.857 156.712L205.185 156.664C202.785 156.52 202.785 156.28 202.785 155.992V142.024C202.785 140.008 202.305 138.52 201.249 137.416C200.385 136.552 199.185 136.072 197.697 136.072C194.241 136.072 191.409 138.808 189.537 140.392L189.489 140.296V124.696L183.153 126.28L183.105 126.472L184.209 126.664C185.841 127 186.129 127.48 186.129 129.4V155.944C186.129 156.52 185.601 156.568 184.161 156.664L183.345 156.712L183.201 157ZM214.326 157.624C216.822 157.624 218.742 155.848 220.662 153.928L220.422 153.784C219.318 154.696 218.118 155.656 216.294 155.656C214.422 155.656 213.174 154.648 213.222 152.584L213.558 138.376H219.27L219.942 136.696H213.558L213.606 132.424L213.174 132.376L206.55 138.04L206.406 138.424L210.15 138.472L209.862 152.968C209.814 156.568 211.974 157.624 214.326 157.624ZM221.941 157H233.509C241.525 157 245.989 153.592 245.989 148.696C245.989 144.376 242.437 140.728 235.237 140.392V140.248C242.053 139.288 244.309 136.6 244.309 133.384C244.309 129.784 241.093 127 233.365 127H221.989L222.133 127.288L223.333 127.432C225.829 127.624 226.117 127.768 226.117 128.104V155.752C226.117 156.04 225.493 156.376 223.813 156.52L222.085 156.712L221.941 157ZM233.317 156.568L229.957 155.704V140.872C230.725 140.776 231.925 140.728 232.981 140.728C238.261 140.728 241.813 144.232 241.813 148.936C241.813 152.584 239.653 156.184 234.421 156.424C234.469 156.472 233.317 156.568 233.317 156.568ZM229.957 140.248V127.576H232.453C237.541 127.576 240.037 129.64 240.037 133.864C240.037 137.416 237.493 140.104 232.309 140.2L229.957 140.248ZM252.638 131.8C254.27 131.8 254.99 130.408 254.99 129.448C254.99 128.488 254.318 127.048 252.638 127.048C250.958 127.048 250.238 128.488 250.238 129.448C250.238 130.408 250.958 131.8 252.638 131.8ZM248.366 157H257.966L257.822 156.712L257.15 156.664C255.038 156.52 254.75 156.424 254.75 156.04V136.168L248.366 137.848L248.318 138.04L249.422 138.232C251.054 138.472 251.39 139.048 251.39 141.976V155.944C251.39 156.52 250.862 156.568 249.374 156.664L248.51 156.712L248.366 157ZM266.355 168.904C273.555 168.904 278.499 164.872 278.499 159.592C278.499 156.28 275.907 154.312 271.443 154.312C269.715 154.312 267.363 154.456 266.067 154.456C263.283 154.456 262.035 153.928 262.035 152.392C262.035 151.048 263.379 149.992 265.203 149.656C265.683 149.752 266.883 149.992 267.891 149.992C272.451 149.992 276.003 146.968 276.003 142.936C276.003 141.256 275.091 139.624 273.987 138.616L274.035 138.472L278.547 138.904L278.931 136.84L273.315 137.896C271.923 136.84 270.147 136.12 268.083 136.12C263.667 136.12 260.163 139.192 260.163 143.32C260.163 146.296 262.275 148.6 264.579 149.368V149.464C262.035 149.896 259.059 151.816 259.059 154.312C259.059 156.232 261.171 157.432 264.387 157.72V157.816C261.891 158.728 258.579 160.984 258.579 163.72C258.579 166.984 261.603 168.904 266.355 168.904ZM268.035 149.608C265.443 149.608 263.667 146.968 263.667 142.84C263.667 139.096 265.539 136.504 268.035 136.504C271.251 136.504 272.595 139.384 272.595 143.464C272.595 147.16 270.579 149.608 268.035 149.608ZM268.563 168.04C264.243 168.04 261.219 165.832 261.219 162.856C261.219 160.552 263.331 158.536 264.963 157.912C266.355 157.72 268.947 157.576 270.291 157.624C274.611 157.768 276.435 159.352 276.435 161.896C276.435 165.304 272.787 168.04 268.563 168.04ZM288.628 157H302.596L302.452 156.712L300.1 156.568C297.604 156.424 297.316 156.232 297.316 155.896V142.12C298.324 142.264 300.004 142.456 301.492 142.456C308.212 142.456 312.868 139.048 312.868 134.152C312.868 129.64 309.268 127 302.02 127H288.676L288.82 127.288L290.692 127.432C293.188 127.624 293.476 127.768 293.476 128.104V155.752C293.476 156.04 292.852 156.376 291.172 156.52L288.772 156.712L288.628 157ZM301.492 141.928C299.476 141.928 298.324 141.688 297.316 141.4V127.48L300.724 127.432C306.676 127.336 308.788 130.024 308.788 134.728C308.788 139.336 306.1 141.928 301.492 141.928ZM313.71 157H324.03L323.886 156.712L322.35 156.664C320.238 156.616 320.094 156.424 320.094 156.04V145.48C321.438 140.584 322.446 138.424 324.51 137.992C324.606 140.008 325.806 140.92 327.006 140.92C328.446 140.92 329.31 139.672 329.31 138.52C329.31 137.272 328.158 136.072 326.478 136.072C323.406 136.072 321.342 139.192 320.046 144.136H319.998L320.142 136.168L313.71 137.848L313.662 138.04L314.766 138.232C316.398 138.472 316.734 139.048 316.734 142.024V155.944C316.734 156.52 316.206 156.568 314.718 156.664L313.854 156.712L313.71 157ZM340.547 157.624C346.595 157.624 351.251 152.872 351.251 146.728C351.251 140.68 346.643 136.024 340.547 136.024C334.451 136.024 329.795 140.92 329.795 146.92C329.795 152.968 334.403 157.624 340.547 157.624ZM340.595 157.24C338.963 157.24 337.571 156.616 336.515 155.56C334.643 153.736 333.779 150.232 333.779 146.296C333.779 141.16 336.323 136.408 340.451 136.408C342.179 136.408 343.523 137.176 344.579 138.184C346.403 140.008 347.219 143.464 347.219 147.16C347.219 152.536 344.531 157.24 340.595 157.24Z" fill="black"/>
<path d="M89.5192 228H103.535L103.391 227.712L101.039 227.568C98.5432 227.424 98.2552 227.232 98.2552 226.896V213.024L100.127 213.12C105.551 213.408 107.183 213.648 107.423 217.296L107.471 217.968L107.807 218.016L108.815 207.888L108.479 207.84L108.239 208.512C107.135 211.824 105.503 212.304 100.463 212.544L98.2552 212.592V198.432H103.439C110.207 198.432 111.455 201.648 113.231 206.736L113.471 207.36L113.759 207.312L112.943 198H89.5672L89.7112 198.288L91.1032 198.432C93.5992 198.624 93.6952 198.768 93.6952 199.104V226.752C93.6952 227.04 93.2632 227.376 91.5832 227.52L89.6632 227.712L89.5192 228ZM113.085 228H124.221L124.077 227.712L122.589 227.664C120.477 227.616 120.141 227.424 120.141 227.04V216.384C121.389 211.968 122.349 209.76 124.173 209.376C124.269 211.488 125.709 212.4 127.053 212.4C128.685 212.4 129.693 211.056 129.693 209.712C129.693 208.32 128.253 207.072 126.573 207.072C123.453 207.072 121.437 209.904 120.141 214.752H120.045L120.189 207.168L113.085 209.04L113.037 209.232L114.141 209.472C115.773 209.808 116.109 210.288 116.109 213.264V226.944C116.109 227.52 115.581 227.568 114.093 227.664L113.229 227.712L113.085 228ZM139.755 228.624C143.691 228.624 146.475 226.272 148.779 222.192L148.443 222C146.619 225.024 144.603 225.792 141.867 225.792C137.691 225.792 134.475 222.336 134.475 216.816C134.475 216.144 134.523 214.896 134.619 214.224L148.203 214.272C148.251 213.936 148.299 213.84 148.299 213.6C148.299 209.664 145.419 207.024 140.523 207.024C134.331 207.024 130.107 212.112 130.107 218.304C130.107 224.16 134.139 228.624 139.755 228.624ZM134.715 213.792C135.291 210.576 137.499 207.504 140.139 207.504C142.971 207.504 143.931 210.624 143.931 213.696L134.715 213.792ZM154.724 203.088C156.596 203.088 157.46 201.504 157.46 200.448C157.46 199.344 156.596 197.712 154.724 197.712C152.804 197.712 151.988 199.344 151.988 200.448C151.988 201.504 152.804 203.088 154.724 203.088ZM150.116 228H160.388L160.244 227.712L159.572 227.664C157.46 227.52 157.172 227.424 157.172 227.04V207.168L150.116 209.04L150.068 209.232L151.172 209.472C152.804 209.808 153.14 210.288 153.14 213.216V226.944C153.14 227.52 152.612 227.568 151.124 227.664L150.26 227.712L150.116 228ZM168.808 239.856C176.296 239.856 181.192 235.776 181.192 230.4C181.192 226.896 178.744 224.928 174.136 224.928C172.408 224.928 170.152 225.072 168.808 225.072C166.216 225.072 164.824 224.64 164.824 223.104C164.824 221.76 165.976 220.944 167.656 220.656C168.184 220.752 169.528 220.992 170.536 220.992C175.24 220.992 178.792 217.872 178.792 213.936C178.792 212.304 177.976 210.72 176.968 209.808L177.016 209.664L181.576 210.336L182.056 207.888L176.248 209.04C174.76 207.936 172.984 207.12 170.68 207.12C166.12 207.12 162.616 210.192 162.616 214.32C162.616 217.296 164.728 219.504 166.936 220.32V220.464C164.488 220.896 161.512 222.672 161.512 225.216C161.512 227.136 163.672 228.576 166.888 228.912V229.008C164.344 229.92 161.032 232.08 161.032 234.816C161.032 237.984 163.912 239.856 168.808 239.856ZM170.68 220.608C168.232 220.608 166.792 218.016 166.792 213.84C166.792 210 168.28 207.504 170.632 207.504C173.944 207.504 174.808 210.576 174.808 214.512C174.808 218.16 173.08 220.608 170.68 220.608ZM171.448 238.944C167.368 238.944 164.296 236.784 164.296 233.616C164.296 231.648 165.832 229.728 167.464 229.104C168.856 228.912 171.16 228.768 172.456 228.816C176.92 228.96 178.696 230.544 178.696 232.944C178.696 236.16 175.672 238.944 171.448 238.944ZM182.076 228H192.3L192.156 227.712L191.484 227.664C189.324 227.52 189.036 227.424 189.036 227.04V211.824C190.236 210.72 191.916 209.856 194.124 209.856C196.956 209.856 198.348 211.104 198.348 213.888V226.944C198.348 227.328 198.012 227.568 196.332 227.664L195.468 227.712L195.324 228H205.596L205.452 227.712L204.828 227.664C202.428 227.472 202.428 227.28 202.428 226.992V213.216C202.428 211.2 201.996 209.568 200.892 208.464C199.98 207.552 198.732 207.072 197.196 207.072C193.74 207.072 191.004 209.616 189.132 211.2L189.036 211.104V195.696L182.028 197.52L181.98 197.712L183.084 198C184.668 198.432 185.004 198.816 185.004 200.112V226.944C185.004 227.52 184.476 227.568 183.036 227.664L182.22 227.712L182.076 228ZM214.099 228.624C216.547 228.624 218.899 226.848 220.819 224.928L220.579 224.736C219.571 225.648 218.275 226.272 216.499 226.272C214.195 226.272 213.187 225.072 213.187 223.392L213.523 209.52H219.907L220.771 207.696L213.523 207.648L213.571 203.28L213.427 203.232L208.195 207.36L205.843 209.136L205.651 209.664L209.443 209.712L209.203 223.632C209.155 227.04 210.883 228.624 214.099 228.624ZM222.129 228H233.889C242.673 228 247.137 224.496 247.137 219.744C247.137 215.424 243.249 211.728 236.049 211.392V211.248C242.865 210.288 245.457 207.648 245.457 204.432C245.457 201.264 242.865 198 233.745 198H222.177L222.321 198.288L223.521 198.432C226.017 198.624 226.305 198.768 226.305 199.104V226.752C226.305 227.04 225.681 227.376 224.001 227.52L222.273 227.712L222.129 228ZM230.865 211.2V198.576H232.833C237.969 198.576 240.321 200.688 240.321 204.912C240.321 208.464 237.873 211.104 232.977 211.2H230.865ZM233.697 227.52L230.865 226.656V211.872C231.633 211.776 232.593 211.728 233.793 211.728C238.737 211.728 242.097 215.28 242.097 219.984C242.097 223.632 239.505 227.28 234.561 227.424C235.041 227.424 233.697 227.52 233.697 227.52ZM254.146 203.088C256.018 203.088 256.882 201.504 256.882 200.448C256.882 199.344 256.018 197.712 254.146 197.712C252.226 197.712 251.41 199.344 251.41 200.448C251.41 201.504 252.226 203.088 254.146 203.088ZM249.538 228H259.81L259.666 227.712L258.994 227.664C256.882 227.52 256.594 227.424 256.594 227.04V207.168L249.538 209.04L249.49 209.232L250.594 209.472C252.226 209.808 252.562 210.288 252.562 213.216V226.944C252.562 227.52 252.034 227.568 250.546 227.664L249.682 227.712L249.538 228ZM268.23 239.856C275.718 239.856 280.614 235.776 280.614 230.4C280.614 226.896 278.166 224.928 273.558 224.928C271.83 224.928 269.574 225.072 268.23 225.072C265.638 225.072 264.246 224.64 264.246 223.104C264.246 221.76 265.398 220.944 267.078 220.656C267.606 220.752 268.95 220.992 269.958 220.992C274.662 220.992 278.214 217.872 278.214 213.936C278.214 212.304 277.398 210.72 276.39 209.808L276.438 209.664L280.998 210.336L281.478 207.888L275.67 209.04C274.182 207.936 272.406 207.12 270.102 207.12C265.542 207.12 262.038 210.192 262.038 214.32C262.038 217.296 264.15 219.504 266.358 220.32V220.464C263.91 220.896 260.934 222.672 260.934 225.216C260.934 227.136 263.094 228.576 266.31 228.912V229.008C263.766 229.92 260.454 232.08 260.454 234.816C260.454 237.984 263.334 239.856 268.23 239.856ZM270.102 220.608C267.654 220.608 266.214 218.016 266.214 213.84C266.214 210 267.702 207.504 270.054 207.504C273.366 207.504 274.23 210.576 274.23 214.512C274.23 218.16 272.502 220.608 270.102 220.608ZM270.87 238.944C266.79 238.944 263.718 236.784 263.718 233.616C263.718 231.648 265.254 229.728 266.886 229.104C268.278 228.912 270.582 228.768 271.878 228.816C276.342 228.96 278.118 230.544 278.118 232.944C278.118 236.16 275.094 238.944 270.87 238.944ZM290.832 228H305.52L305.376 227.712L303.024 227.568C300.528 227.424 300.24 227.232 300.24 226.896V213.168C301.248 213.312 302.544 213.456 304.032 213.456C310.944 213.456 315.792 210 315.792 205.152C315.792 200.688 312.288 198 304.56 198H290.88L291.024 198.288L292.896 198.432C295.392 198.624 295.68 198.768 295.68 199.104V226.752C295.68 227.04 295.056 227.376 293.376 227.52L290.976 227.712L290.832 228ZM304.032 212.88C301.968 212.88 301.248 212.688 300.24 212.4V198.528L303.264 198.48C308.928 198.384 310.944 201.024 310.944 205.824C310.944 210.288 308.208 212.88 304.032 212.88ZM316.616 228H327.752L327.608 227.712L326.12 227.664C324.008 227.616 323.672 227.424 323.672 227.04V216.384C324.92 211.968 325.88 209.76 327.704 209.376C327.8 211.488 329.24 212.4 330.584 212.4C332.216 212.4 333.224 211.056 333.224 209.712C333.224 208.32 331.784 207.072 330.104 207.072C326.984 207.072 324.968 209.904 323.672 214.752H323.576L323.72 207.168L316.616 209.04L316.568 209.232L317.672 209.472C319.304 209.808 319.64 210.288 319.64 213.264V226.944C319.64 227.52 319.112 227.568 317.624 227.664L316.76 227.712L316.616 228ZM344.679 228.624C351.063 228.624 355.719 223.872 355.719 217.728C355.719 211.68 351.111 207.024 344.679 207.024C338.295 207.024 333.639 211.872 333.639 217.92C333.639 223.968 338.247 228.624 344.679 228.624ZM344.727 228.24C343.191 228.24 342.039 227.616 340.983 226.56C339.159 224.736 338.487 221.232 338.487 217.296C338.487 212.592 340.359 207.408 344.583 207.408C346.263 207.408 347.367 208.176 348.279 209.04C350.055 210.816 350.871 214.416 350.871 218.16C350.871 223.248 348.663 228.24 344.727 228.24Z" fill="black"/>
<path d="M85.5538 299H100.242L100.098 298.712L97.8898 298.568C95.3938 298.376 95.1538 298.232 95.1538 297.896V284.072L96.8818 284.12C102.066 284.312 103.554 285.032 103.794 288.632L103.842 289.352L104.178 289.4L105.33 278.6L104.994 278.552L104.706 279.32C103.65 282.584 101.922 283.304 97.2657 283.544L95.1538 283.592V269.528L99.6658 269.48C105.954 269.48 107.778 272.216 109.794 277.688L109.986 278.312L110.322 278.264L109.65 269H85.6018L85.7458 269.288L87.1378 269.432C89.5858 269.672 89.7298 269.768 89.7298 270.104V297.752C89.7298 298.04 89.2978 298.328 87.6178 298.52L85.6978 298.712L85.5538 299ZM109.783 299H121.351L121.207 298.712L119.959 298.664C117.799 298.568 117.463 298.376 117.463 297.992V287.432C118.663 283.064 119.623 280.952 121.351 280.616C121.543 282.584 122.887 283.688 124.423 283.688C126.103 283.688 127.207 282.296 127.207 280.856C127.207 279.224 125.719 277.928 123.943 277.928C120.823 277.928 118.807 280.712 117.463 285.608H117.367L117.511 278.024L109.687 280.136L109.639 280.328L110.743 280.568C112.375 280.952 112.711 281.384 112.711 284.36V297.944C112.711 298.52 112.183 298.568 110.695 298.664L109.927 298.712L109.783 299ZM137.486 299.672C141.71 299.672 144.59 297.224 146.798 293L146.462 292.808C144.83 295.688 142.814 296.6 140.078 296.6C135.854 296.6 132.734 293.048 132.734 287.672C132.734 287 132.782 285.848 132.878 285.176C133.55 285.224 146.27 285.32 146.27 285.32C146.318 284.984 146.366 284.84 146.366 284.552C146.366 280.856 143.63 277.88 138.398 277.88C132.158 277.88 127.646 282.92 127.646 289.256C127.646 295.16 131.774 299.672 137.486 299.672ZM132.926 284.744C133.454 281.288 135.566 278.408 137.966 278.408C140.702 278.408 141.518 281.672 141.518 284.648L132.926 284.744ZM153.211 274.376C155.275 274.376 156.283 272.648 156.283 271.4C156.283 270.056 155.275 268.328 153.211 268.328C151.099 268.328 150.139 270.056 150.139 271.4C150.139 272.648 151.099 274.376 153.211 274.376ZM148.267 299H159.115L158.971 298.712L158.347 298.664C156.235 298.472 155.947 298.424 155.947 298.04V278.024L148.171 280.136L148.123 280.328L149.227 280.568C150.859 280.952 151.195 281.384 151.195 284.312V297.944C151.195 298.52 150.667 298.568 149.179 298.664L148.411 298.712L148.267 299ZM167.624 310.616C175.112 310.616 180.2 306.488 180.2 301.16C180.2 297.608 177.656 295.544 173.096 295.544C171.368 295.544 168.728 295.688 167.384 295.688C164.744 295.688 163.4 295.256 163.4 293.816C163.4 292.568 164.504 291.704 166.184 291.368C166.856 291.512 168.152 291.704 169.256 291.704C174.104 291.704 177.8 288.632 177.8 284.744C177.8 283.112 176.984 281.528 175.88 280.52L175.928 280.424L180.632 281.096L181.112 278.648L175.016 279.752C173.528 278.744 171.656 277.976 169.4 277.976C164.744 277.976 161.048 281.096 161.048 285.128C161.048 288.104 163.016 290.216 165.416 291.08V291.176C162.824 291.752 159.896 293.528 159.896 296.12C159.896 298.136 162.2 299.816 165.416 300.104V300.152C162.776 301.112 159.464 303.032 159.464 305.72C159.464 308.84 162.296 310.616 167.624 310.616ZM169.4 291.32C167.096 291.32 165.8 288.92 165.8 284.744C165.8 280.76 167.096 278.408 169.352 278.408C172.328 278.408 173.24 281.24 173.24 285.224C173.24 289.064 171.704 291.32 169.4 291.32ZM170.216 309.704C166.088 309.704 163.16 307.592 163.16 304.568C163.16 302.648 164.36 300.872 166.04 300.248C167.528 300.056 169.736 299.912 171.032 299.96C175.496 300.104 177.32 301.448 177.32 303.944C177.32 307.064 174.392 309.704 170.216 309.704ZM181.069 299H191.821L191.677 298.712L191.005 298.664C188.941 298.52 188.701 298.424 188.701 298.04V282.776C189.805 281.816 191.341 281.048 193.357 281.048C196.045 281.048 197.437 282.248 197.437 285.08V297.944C197.437 298.328 197.245 298.568 195.565 298.664L194.701 298.712L194.557 299H205.357L205.213 298.712L204.637 298.664C202.237 298.424 202.189 298.28 202.189 297.992V284.408C202.189 282.344 201.757 280.52 200.653 279.416C199.693 278.456 198.493 277.928 196.909 277.928C193.549 277.928 190.765 280.472 188.797 282.152L188.701 282.056V266.744L180.973 268.712L180.925 268.904L182.029 269.192C183.661 269.624 183.949 270.008 183.949 271.688V297.944C183.949 298.52 183.421 298.568 181.933 298.664L181.213 298.712L181.069 299ZM214.273 299.576C216.913 299.576 219.217 297.8 221.281 295.736L221.041 295.544C220.081 296.456 218.833 297.08 217.009 297.08C214.609 297.08 213.601 295.88 213.601 293.672L213.889 280.664H220.321L221.137 278.6L213.937 278.552L213.985 273.848H213.793L205.969 279.752L205.393 280.808L209.233 280.856L208.993 294.104C208.945 297.848 210.721 299.576 214.273 299.576ZM222.335 299H235.007C243.983 299 248.351 295.496 248.351 290.6C248.351 286.232 244.463 282.728 237.551 282.344V282.2C243.983 281.288 246.719 278.792 246.719 275.576C246.719 271.928 243.791 269 234.575 269H222.383L222.527 269.336L223.775 269.48C226.223 269.672 226.511 269.768 226.511 270.104V297.752C226.511 298.04 225.935 298.328 224.255 298.52L222.479 298.712L222.335 299ZM234.575 298.52L231.935 297.656V282.92C232.511 282.824 233.327 282.776 234.335 282.776C239.087 282.776 242.591 286.136 242.591 290.84C242.591 294.728 239.855 298.184 235.343 298.424C235.679 298.424 234.575 298.52 234.575 298.52ZM231.935 282.296V269.624L233.519 269.576C238.319 269.576 240.959 271.64 240.959 275.96C240.959 279.8 238.223 282.248 233.567 282.296H231.935ZM255.258 274.376C257.322 274.376 258.33 272.648 258.33 271.4C258.33 270.056 257.322 268.328 255.258 268.328C253.146 268.328 252.186 270.056 252.186 271.4C252.186 272.648 253.146 274.376 255.258 274.376ZM250.314 299H261.162L261.018 298.712L260.394 298.664C258.282 298.472 257.994 298.424 257.994 298.04V278.024L250.218 280.136L250.17 280.328L251.274 280.568C252.906 280.952 253.242 281.384 253.242 284.312V297.944C253.242 298.52 252.714 298.568 251.226 298.664L250.458 298.712L250.314 299ZM269.671 310.616C277.159 310.616 282.247 306.488 282.247 301.16C282.247 297.608 279.703 295.544 275.143 295.544C273.415 295.544 270.775 295.688 269.431 295.688C266.791 295.688 265.447 295.256 265.447 293.816C265.447 292.568 266.551 291.704 268.231 291.368C268.903 291.512 270.199 291.704 271.303 291.704C276.151 291.704 279.847 288.632 279.847 284.744C279.847 283.112 279.031 281.528 277.927 280.52L277.975 280.424L282.679 281.096L283.159 278.648L277.063 279.752C275.575 278.744 273.703 277.976 271.447 277.976C266.791 277.976 263.095 281.096 263.095 285.128C263.095 288.104 265.063 290.216 267.463 291.08V291.176C264.871 291.752 261.943 293.528 261.943 296.12C261.943 298.136 264.247 299.816 267.463 300.104V300.152C264.823 301.112 261.511 303.032 261.511 305.72C261.511 308.84 264.343 310.616 269.671 310.616ZM271.447 291.32C269.143 291.32 267.847 288.92 267.847 284.744C267.847 280.76 269.143 278.408 271.399 278.408C274.375 278.408 275.287 281.24 275.287 285.224C275.287 289.064 273.751 291.32 271.447 291.32ZM272.263 309.704C268.135 309.704 265.207 307.592 265.207 304.568C265.207 302.648 266.407 300.872 268.087 300.248C269.575 300.056 271.783 299.912 273.079 299.96C277.543 300.104 279.367 301.448 279.367 303.944C279.367 307.064 276.439 309.704 272.263 309.704ZM292.402 299H307.57L307.426 298.712L305.218 298.568C302.722 298.376 302.482 298.232 302.482 297.896V284.216C303.346 284.36 304.498 284.456 305.794 284.456C313.234 284.456 318.178 281.144 318.178 276.2C318.178 271.544 314.386 269 306.226 269H292.45L292.594 269.288L294.322 269.432C296.77 269.672 297.058 269.768 297.058 270.104V297.752C297.058 298.04 296.482 298.328 294.802 298.52L292.546 298.712L292.402 299ZM305.698 283.928C304.018 283.928 303.346 283.736 302.482 283.496V269.576L305.17 269.48C310.402 269.48 312.466 272.024 312.466 276.872C312.466 281.24 309.73 283.928 305.698 283.928ZM319.126 299H330.694L330.55 298.712L329.302 298.664C327.142 298.568 326.806 298.376 326.806 297.992V287.432C328.006 283.064 328.966 280.952 330.694 280.616C330.886 282.584 332.23 283.688 333.766 283.688C335.446 283.688 336.55 282.296 336.55 280.856C336.55 279.224 335.062 277.928 333.286 277.928C330.166 277.928 328.15 280.712 326.806 285.608H326.71L326.854 278.024L319.03 280.136L318.982 280.328L320.086 280.568C321.718 280.952 322.054 281.384 322.054 284.36V297.944C322.054 298.52 321.526 298.568 320.038 298.664L319.27 298.712L319.126 299ZM348.222 299.624C354.846 299.624 359.502 294.824 359.502 288.68C359.502 282.632 354.942 277.928 348.318 277.928C341.694 277.928 336.99 282.776 336.99 288.824C336.99 294.872 341.502 299.624 348.222 299.624ZM348.27 299.24C346.878 299.24 345.822 298.712 344.91 297.8C343.23 296.12 342.462 292.808 342.462 288.296C342.462 283.208 344.238 278.312 348.222 278.312C349.71 278.312 350.67 278.936 351.486 279.752C353.118 281.384 354.03 284.696 354.03 289.064C354.03 294.44 351.966 299.24 348.27 299.24Z" fill="black"/>
<path d="M81.0973 370H96.3613L96.2173 369.712L94.1533 369.568C91.7053 369.376 91.4653 369.184 91.4653 368.848V355.12L93.0973 355.168C97.9933 355.216 99.3373 356.416 99.6253 359.92L99.6733 360.736L100.009 360.784L101.257 349.312L100.921 349.264L100.633 350.176C99.6253 353.344 97.7533 354.352 93.5293 354.496L91.4653 354.592V340.576L95.4013 340.48C101.209 340.48 103.561 342.832 105.769 348.688L106.009 349.216H106.297L105.817 340H81.1453L81.2893 340.288L82.6333 340.432C85.0813 340.672 85.2733 340.816 85.2733 341.152V368.704C85.2733 368.992 84.7933 369.328 83.1133 369.52L81.2413 369.712L81.0973 370ZM105.799 370H117.847L117.703 369.712L116.647 369.664C114.487 369.568 114.103 369.328 114.103 368.944V358.432C115.255 354.112 116.215 352.096 117.847 351.856C118.135 353.728 119.383 355.024 121.159 355.024C122.887 355.024 124.087 353.488 124.087 352.048C124.087 350.08 122.551 348.832 120.631 348.832C117.559 348.832 115.543 351.52 114.151 356.512H114.055L114.199 348.928L105.655 351.232L105.607 351.424L106.711 351.664C108.343 352.048 108.679 352.48 108.679 355.456V368.896C108.679 369.472 108.151 369.568 106.663 369.664L105.943 369.712L105.799 370ZM134.537 370.72C139.097 370.72 142.121 368.176 144.185 363.76L143.849 363.616C142.361 366.352 140.393 367.36 137.657 367.36C133.337 367.36 130.361 363.808 130.361 358.48C130.361 357.856 130.361 356.8 130.457 356.176C131.801 356.224 143.753 356.32 143.753 356.32C143.801 356.032 143.849 355.792 143.849 355.504C143.849 352.096 141.161 348.736 135.641 348.736C129.305 348.736 124.553 353.728 124.553 360.16C124.553 366.112 128.777 370.72 134.537 370.72ZM130.553 355.696C131.033 352 132.953 349.312 135.113 349.312C137.753 349.312 138.521 352.672 138.521 355.648L130.553 355.696ZM151.064 345.616C153.32 345.616 154.472 343.84 154.472 342.304C154.472 340.768 153.32 338.992 151.064 338.992C148.808 338.992 147.656 340.768 147.656 342.304C147.656 343.84 148.808 345.616 151.064 345.616ZM145.784 370H157.208L157.064 369.712L156.536 369.664C154.376 369.472 154.088 369.376 154.088 368.992V348.928L145.64 351.232L145.592 351.424L146.696 351.664C148.328 352.048 148.664 352.48 148.664 355.456V368.896C148.664 369.472 148.136 369.568 146.648 369.664L145.928 369.712L145.784 370ZM166.228 381.328C173.764 381.328 179.044 377.2 179.044 371.872C179.044 368.32 176.404 366.208 171.892 366.208C170.164 366.208 167.092 366.352 165.748 366.352C163.108 366.352 161.764 365.872 161.764 364.576C161.764 363.376 162.868 362.464 164.548 362.128C165.316 362.272 166.612 362.464 167.812 362.464C172.852 362.464 176.644 359.44 176.644 355.6C176.644 353.92 175.876 352.336 174.628 351.28L174.676 351.136L179.476 351.808L179.956 349.36L173.668 350.464C172.18 349.504 170.164 348.832 167.956 348.832C163.204 348.832 159.268 352.048 159.268 355.936C159.268 358.912 161.188 360.928 163.732 361.84V361.888C161.044 362.56 158.116 364.336 158.116 366.976C158.116 369.184 160.564 371.056 163.732 371.248V371.296C161.044 372.304 157.732 373.984 157.732 376.576C157.732 379.744 160.564 381.328 166.228 381.328ZM168.004 362.032C165.844 362.032 164.644 359.824 164.644 355.6C164.644 351.472 165.796 349.312 167.908 349.312C170.548 349.312 171.46 351.952 171.46 355.936C171.46 359.92 170.212 362.032 168.004 362.032ZM168.772 380.464C164.644 380.464 161.812 378.4 161.812 375.52C161.812 373.648 162.724 372.016 164.452 371.344C166.036 371.152 168.148 371.008 169.396 371.056C173.86 371.2 175.78 372.352 175.78 374.992C175.78 378.016 172.948 380.464 168.772 380.464ZM179.899 370H191.131L190.987 369.712L190.315 369.664C188.395 369.52 188.155 369.376 188.155 368.992V353.728C189.211 352.912 190.555 352.24 192.427 352.24C194.923 352.24 196.363 353.344 196.363 356.272V368.896C196.363 369.28 196.267 369.568 194.587 369.664L193.723 369.712L193.579 370H204.906L204.763 369.712L204.234 369.664C201.883 369.424 201.787 369.232 201.787 368.944V355.648C201.787 353.488 201.355 351.472 200.251 350.368C199.243 349.36 198.043 348.832 196.459 348.832C193.195 348.832 190.315 351.328 188.251 353.104L188.203 353.008V337.744L179.755 339.856L179.707 340.048L180.811 340.336C182.443 340.768 182.73 341.152 182.73 343.264V368.896C182.73 369.472 182.203 369.568 180.715 369.664L180.043 369.712L179.899 370ZM214.235 370.528C217.067 370.528 219.371 368.8 221.531 366.592L221.339 366.4C220.427 367.216 219.227 367.888 217.355 367.888C214.859 367.888 213.803 366.64 213.851 363.952L214.091 351.808H220.523L221.339 349.504L214.139 349.456L214.187 344.464L213.995 344.416L205.931 350.368L204.971 351.952L208.859 352L208.619 364.576C208.571 368.656 210.395 370.528 214.235 370.528ZM222.379 370H235.915C245.035 370 249.307 366.544 249.307 361.408C249.307 356.992 245.467 353.728 238.843 353.296V353.152C244.843 352.24 247.723 349.936 247.723 346.672C247.723 342.592 244.459 340 235.147 340H222.427L222.571 340.336L223.819 340.48C226.267 340.72 226.555 340.816 226.555 341.152V368.704C226.555 368.992 225.979 369.328 224.299 369.52L222.523 369.712L222.379 370ZM235.243 369.52L232.747 368.704V353.968C233.227 353.872 233.851 353.824 234.667 353.824C239.275 353.824 242.827 356.992 242.827 361.696C242.827 365.824 240.043 369.088 235.867 369.376C236.107 369.376 235.243 369.52 235.243 369.52ZM232.747 353.392V340.672L233.995 340.624C238.507 340.624 241.339 342.592 241.339 346.96C241.339 351.136 238.363 353.44 233.898 353.392H232.747ZM256.486 345.616C258.742 345.616 259.894 343.84 259.894 342.304C259.894 340.768 258.742 338.992 256.486 338.992C254.23 338.992 253.078 340.768 253.078 342.304C253.078 343.84 254.23 345.616 256.486 345.616ZM251.206 370H262.63L262.486 369.712L261.958 369.664C259.798 369.472 259.51 369.376 259.51 368.992V348.928L251.062 351.232L251.014 351.424L252.118 351.664C253.75 352.048 254.086 352.48 254.086 355.456V368.896C254.086 369.472 253.558 369.568 252.07 369.664L251.35 369.712L251.206 370ZM271.65 381.328C279.186 381.328 284.466 377.2 284.466 371.872C284.466 368.32 281.826 366.208 277.314 366.208C275.586 366.208 272.514 366.352 271.17 366.352C268.53 366.352 267.186 365.872 267.186 364.576C267.186 363.376 268.29 362.464 269.97 362.128C270.738 362.272 272.034 362.464 273.234 362.464C278.274 362.464 282.066 359.44 282.066 355.6C282.066 353.92 281.298 352.336 280.05 351.28L280.098 351.136L284.898 351.808L285.378 349.36L279.09 350.464C277.602 349.504 275.586 348.832 273.378 348.832C268.626 348.832 264.69 352.048 264.69 355.936C264.69 358.912 266.61 360.928 269.154 361.84V361.888C266.466 362.56 263.538 364.336 263.538 366.976C263.538 369.184 265.986 371.056 269.154 371.248V371.296C266.466 372.304 263.154 373.984 263.154 376.576C263.154 379.744 265.986 381.328 271.65 381.328ZM273.426 362.032C271.266 362.032 270.066 359.824 270.066 355.6C270.066 351.472 271.218 349.312 273.33 349.312C275.97 349.312 276.882 351.952 276.882 355.936C276.882 359.92 275.634 362.032 273.426 362.032ZM274.194 380.464C270.066 380.464 267.234 378.4 267.234 375.52C267.234 373.648 268.146 372.016 269.874 371.344C271.458 371.152 273.57 371.008 274.818 371.056C279.282 371.2 281.202 372.352 281.202 374.992C281.202 378.016 278.37 380.464 274.194 380.464ZM294.558 370H310.158L310.014 369.712L307.95 369.568C305.502 369.376 305.262 369.184 305.262 368.848V355.264C306.03 355.408 306.99 355.504 308.094 355.504C316.062 355.504 321.15 352.288 321.15 347.248C321.15 342.352 317.022 340 308.478 340H294.606L294.75 340.288L296.334 340.432C298.782 340.672 299.07 340.816 299.07 341.152V368.704C299.07 368.992 298.494 369.328 296.814 369.52L294.702 369.712L294.558 370ZM307.95 354.976C306.606 354.976 305.982 354.736 305.262 354.592V340.576L307.614 340.48C312.462 340.528 314.574 343.024 314.574 347.872C314.574 352.192 311.838 354.976 307.95 354.976ZM322.127 370H334.175L334.031 369.712L332.975 369.664C330.815 369.568 330.431 369.328 330.431 368.944V358.432C331.583 354.112 332.543 352.096 334.175 351.856C334.463 353.728 335.711 355.024 337.487 355.024C339.215 355.024 340.415 353.488 340.415 352.048C340.415 350.08 338.879 348.832 336.959 348.832C333.887 348.832 331.871 351.52 330.479 356.512H330.383L330.527 348.928L321.983 351.232L321.935 351.424L323.039 351.664C324.671 352.048 325.007 352.48 325.007 355.456V368.896C325.007 369.472 324.479 369.568 322.991 369.664L322.271 369.712L322.127 370ZM352.257 370.672C359.121 370.672 363.825 365.776 363.825 359.584C363.825 353.584 359.313 348.784 352.449 348.784C345.633 348.784 340.881 353.68 340.881 359.728C340.881 365.776 345.345 370.672 352.257 370.672ZM352.305 370.24C351.057 370.24 350.145 369.856 349.329 369.04C347.841 367.504 346.929 364.432 346.929 359.344C346.929 353.824 348.657 349.216 352.353 349.216C353.649 349.216 354.513 349.696 355.281 350.416C356.769 351.904 357.729 354.976 357.729 359.968C357.729 365.68 355.809 370.24 352.305 370.24Z" fill="black"/>
<path d="M72.6519 442H89.1639L89.0199 441.712L87.2439 441.568C84.8439 441.328 84.6519 441.184 84.6519 440.848V427.168H86.0439C90.4119 427.072 91.4679 429.136 91.8039 432.544L91.8519 433.456L92.1879 433.504L93.6759 420.784L93.3399 420.736L93.0039 421.84C92.0919 424.912 89.9799 426.352 86.5719 426.496L84.6519 426.592V412.72L87.2919 412.528C92.1879 412.528 95.6439 414.016 98.2839 420.64L98.4759 421.12H98.8119L98.6199 412H72.6999L72.8439 412.288L74.1399 412.432C76.5399 412.72 76.8279 412.816 76.8279 413.152V440.704C76.8279 440.992 76.2999 441.28 74.6199 441.52L72.7959 441.712L72.6519 442ZM98.4433 442H111.403L111.259 441.712L110.635 441.664C108.427 441.52 107.995 441.28 107.995 440.896V430.48C109.051 426.256 110.011 424.432 111.451 424.336C111.931 425.92 112.987 427.6 115.195 427.6C117.019 427.6 118.411 425.92 118.411 424.336C118.411 421.888 116.779 420.592 114.619 420.592C111.595 420.592 109.579 423.136 108.091 428.272H107.995L108.139 420.688L98.1553 423.424L98.1073 423.616L99.2113 423.856C100.843 424.288 101.179 424.672 101.179 427.648V440.896C101.179 441.472 100.651 441.568 99.1633 441.664L98.5873 441.712L98.4433 442ZM129.248 442.768C134.432 442.768 137.648 440.128 139.472 435.376L139.184 435.232C138.032 437.728 136.112 438.976 133.376 438.976C128.912 438.976 126.176 435.28 126.176 430.192C126.176 429.616 126.128 428.704 126.224 428.128C128.912 428.224 139.184 428.368 139.184 428.368C139.232 428.08 139.28 427.792 139.28 427.456C139.28 424.48 136.832 420.496 130.688 420.496C124.208 420.496 118.928 425.344 118.928 432.064C118.928 438.112 123.344 442.768 129.248 442.768ZM126.272 427.6C126.656 423.424 128.336 421.168 130.016 421.168C132.464 421.168 132.992 424.72 132.992 427.6H126.272ZM147.286 418.144C149.926 418.144 151.366 416.128 151.366 414.208C151.366 412.24 149.926 410.272 147.286 410.272C144.694 410.272 143.206 412.24 143.206 414.208C143.206 416.128 144.694 418.144 147.286 418.144ZM141.334 442H153.91L153.766 441.712L153.382 441.664C151.174 441.424 150.886 441.376 150.886 440.992V420.688L141.046 423.424L140.998 423.616L142.102 423.856C143.734 424.288 144.07 424.672 144.07 427.648V440.896C144.07 441.472 143.542 441.568 142.054 441.664L141.478 441.712L141.334 442ZM160.41 443.584C157.578 444.688 154.362 445.936 154.362 448.384C154.362 451.504 157.098 452.848 163.578 452.848C171.114 452.848 176.826 448.624 176.826 443.392C176.826 439.744 173.994 437.488 169.578 437.488C167.85 437.488 163.962 437.632 162.618 437.632C159.882 437.632 158.634 437.104 158.634 436.048C158.634 434.992 159.69 433.984 161.37 433.6C162.378 433.792 163.626 433.936 165.018 433.936C170.346 433.936 174.426 431.008 174.426 427.264C174.426 425.536 173.658 423.952 172.17 422.752L172.218 422.656L177.306 423.328L177.786 420.88L170.97 421.936C169.482 421.12 167.274 420.592 165.162 420.592C160.218 420.592 155.85 423.904 155.85 427.6C155.85 430.576 157.578 432.4 160.458 433.36C157.482 434.272 154.65 436.048 154.65 438.784C154.65 441.136 157.338 443.488 160.41 443.584ZM165.21 433.456C163.338 433.456 162.426 431.632 162.426 427.408C162.426 422.992 163.194 421.168 165.114 421.168C167.034 421.168 168.042 423.328 168.042 427.36C168.042 431.728 167.226 433.456 165.21 433.456ZM160.41 443.584L160.506 443.536V443.584H160.41ZM166.026 451.984C161.85 451.984 159.258 450.064 159.258 447.424C159.258 445.648 159.546 444.304 161.37 443.584C163.146 443.392 165.066 443.248 166.266 443.296C170.73 443.44 172.794 444.208 172.794 446.992C172.794 449.872 170.154 451.984 166.026 451.984ZM177.698 442H189.938L189.794 441.712L189.122 441.664C187.442 441.52 187.25 441.376 187.25 440.992V425.632C188.162 425.104 189.17 424.624 190.706 424.624C192.866 424.624 194.354 425.584 194.354 428.608V440.896C194.354 441.28 194.498 441.568 192.818 441.664L191.954 441.712L191.81 442H204.194L204.05 441.712L203.618 441.664C201.314 441.376 201.122 441.232 201.122 440.944V428.032C201.122 425.728 200.69 423.424 199.586 422.272C198.482 421.168 197.33 420.592 195.698 420.592C192.626 420.592 189.602 423.04 187.346 425.008V409.792L177.458 412.192L177.41 412.384L178.514 412.672C180.194 413.104 180.434 413.488 180.434 416.368V440.896C180.434 441.472 179.906 441.568 178.37 441.664L177.842 441.712L177.698 442ZM214.301 442.48C217.517 442.48 219.773 440.752 222.173 438.256L221.981 438.064C221.165 438.832 220.109 439.552 218.141 439.552C215.453 439.552 214.349 438.256 214.445 434.56L214.589 424.096H221.069L221.837 421.312H214.685L214.733 415.648H214.493L210.413 418.528L205.949 421.6L204.221 424.192L208.205 424.24L207.965 435.568C207.917 440.32 209.837 442.48 214.301 442.48ZM222.605 442H237.917C247.373 442 251.453 438.544 251.453 433.12C251.453 428.608 247.661 425.728 241.613 425.2V425.104C246.797 424.24 249.965 422.224 249.965 418.912C249.965 413.92 246.029 412 236.525 412H222.653L222.797 412.384L224.093 412.528C226.493 412.816 226.781 412.816 226.781 413.152V440.704C226.781 440.992 226.253 441.28 224.573 441.52L222.749 441.712L222.605 442ZM236.765 441.52L234.605 440.704V426.016C234.749 425.968 235.085 425.92 235.469 425.92C239.789 425.92 243.533 428.704 243.533 433.456C243.533 437.968 240.557 440.944 237.149 441.376L236.765 441.52ZM234.605 425.536V412.72L235.133 412.624C239.021 412.624 242.333 414.544 242.333 419.008C242.333 423.76 238.829 425.728 234.797 425.536H234.605ZM258.708 418.144C261.348 418.144 262.788 416.128 262.788 414.208C262.788 412.24 261.348 410.272 258.708 410.272C256.116 410.272 254.628 412.24 254.628 414.208C254.628 416.128 256.116 418.144 258.708 418.144ZM252.756 442H265.332L265.188 441.712L264.804 441.664C262.596 441.424 262.308 441.376 262.308 440.992V420.688L252.468 423.424L252.42 423.616L253.524 423.856C255.156 424.288 255.492 424.672 255.492 427.648V440.896C255.492 441.472 254.964 441.568 253.476 441.664L252.9 441.712L252.756 442ZM271.832 443.584C269 444.688 265.784 445.936 265.784 448.384C265.784 451.504 268.52 452.848 275 452.848C282.536 452.848 288.248 448.624 288.248 443.392C288.248 439.744 285.416 437.488 281 437.488C279.272 437.488 275.384 437.632 274.04 437.632C271.304 437.632 270.056 437.104 270.056 436.048C270.056 434.992 271.112 433.984 272.792 433.6C273.8 433.792 275.048 433.936 276.44 433.936C281.768 433.936 285.848 431.008 285.848 427.264C285.848 425.536 285.08 423.952 283.592 422.752L283.64 422.656L288.728 423.328L289.208 420.88L282.392 421.936C280.904 421.12 278.696 420.592 276.584 420.592C271.64 420.592 267.272 423.904 267.272 427.6C267.272 430.576 269 432.4 271.88 433.36C268.904 434.272 266.072 436.048 266.072 438.784C266.072 441.136 268.76 443.488 271.832 443.584ZM276.632 433.456C274.76 433.456 273.848 431.632 273.848 427.408C273.848 422.992 274.616 421.168 276.536 421.168C278.456 421.168 279.464 423.328 279.464 427.36C279.464 431.728 278.648 433.456 276.632 433.456ZM271.832 443.584L271.928 443.536V443.584H271.832ZM277.448 451.984C273.272 451.984 270.68 450.064 270.68 447.424C270.68 445.648 270.968 444.304 272.792 443.584C274.568 443.392 276.488 443.248 277.688 443.296C282.152 443.44 284.216 444.208 284.216 446.992C284.216 449.872 281.576 451.984 277.448 451.984ZM298.261 442H314.773L314.629 441.712L312.853 441.568C310.453 441.328 310.261 441.184 310.261 440.848V427.312C310.789 427.456 311.413 427.504 312.133 427.504C321.157 427.504 326.485 424.576 326.485 419.296C326.485 414.064 321.733 412 312.373 412H298.309L298.453 412.288L299.749 412.432C302.149 412.72 302.437 412.816 302.437 413.152V440.704C302.437 440.992 301.909 441.28 300.229 441.52L298.405 441.712L298.261 442ZM311.845 427.024C311.221 427.024 310.693 426.784 310.261 426.784V412.624L311.941 412.48C315.973 412.672 318.181 415.024 318.181 419.92C318.181 424.144 315.445 427.024 311.845 427.024ZM327.615 442H340.575L340.431 441.712L339.807 441.664C337.599 441.52 337.167 441.28 337.167 440.896V430.48C338.223 426.256 339.183 424.432 340.623 424.336C341.103 425.92 342.159 427.6 344.367 427.6C346.191 427.6 347.583 425.92 347.583 424.336C347.583 421.888 345.951 420.592 343.791 420.592C340.767 420.592 338.751 423.136 337.263 428.272H337.167L337.311 420.688L327.327 423.424L327.279 423.616L328.383 423.856C330.015 424.288 330.351 424.672 330.351 427.648V440.896C330.351 441.472 329.823 441.568 328.335 441.664L327.759 441.712L327.615 442ZM359.812 442.672C367.156 442.672 371.908 437.728 371.908 431.488C371.908 425.536 367.492 420.592 360.196 420.592C352.948 420.592 348.1 425.488 348.1 431.584C348.1 437.632 352.42 442.672 359.812 442.672ZM359.859 442.24C358.9 442.24 358.228 442.048 357.652 441.472C356.5 440.224 355.348 437.584 355.348 431.344C355.348 425.056 356.932 421.072 360.1 421.072C361.012 421.072 361.636 421.264 362.26 421.84C363.46 423.04 364.564 425.584 364.564 431.824C364.564 438.064 362.932 442.24 359.859 442.24Z" fill="black"/>
</svg>
