<svg width="445" height="496" viewBox="0 0 445 496" fill="none" xmlns="http://www.w3.org/2000/svg">
<rect width="445" height="496" fill="#F3F3F3"/>
<path d="M43.928 85.2H45.152V100.896H54.824V102H43.928V85.2ZM57.5831 89.472H58.7831V102H57.5831V89.472ZM58.1831 86.424C57.9111 86.424 57.6791 86.336 57.4871 86.16C57.2951 85.968 57.1991 85.736 57.1991 85.464C57.1991 85.192 57.2951 84.96 57.4871 84.768C57.6791 84.576 57.9111 84.48 58.1831 84.48C58.4551 84.48 58.6871 84.576 58.8791 84.768C59.0711 84.944 59.1671 85.168 59.1671 85.44C59.1671 85.712 59.0711 85.944 58.8791 86.136C58.6871 86.328 58.4551 86.424 58.1831 86.424ZM75.1209 89.472V100.656C75.1209 102.736 74.6169 104.272 73.6089 105.264C72.6009 106.256 71.0809 106.752 69.0489 106.752C67.8969 106.752 66.8089 106.576 65.7849 106.224C64.7609 105.872 63.9369 105.384 63.3129 104.76L63.9609 103.848C64.5849 104.424 65.3369 104.872 66.2169 105.192C67.0969 105.512 68.0329 105.672 69.0249 105.672C70.6889 105.672 71.9209 105.272 72.7209 104.472C73.5209 103.688 73.9209 102.464 73.9209 100.8V98.688C73.4089 99.6 72.6969 100.304 71.7849 100.8C70.8729 101.296 69.8489 101.544 68.7129 101.544C67.5449 101.544 66.4809 101.288 65.5209 100.776C64.5769 100.248 63.8329 99.52 63.2889 98.592C62.7449 97.664 62.4729 96.616 62.4729 95.448C62.4729 94.28 62.7449 93.232 63.2889 92.304C63.8329 91.376 64.5769 90.656 65.5209 90.144C66.4809 89.632 67.5449 89.376 68.7129 89.376C69.8649 89.376 70.9049 89.632 71.8329 90.144C72.7609 90.656 73.4729 91.376 73.9689 92.304V89.472H75.1209ZM68.8089 100.464C69.7849 100.464 70.6649 100.256 71.4489 99.84C72.2329 99.408 72.8409 98.816 73.2729 98.064C73.7209 97.296 73.9449 96.424 73.9449 95.448C73.9449 94.472 73.7209 93.608 73.2729 92.856C72.8409 92.104 72.2329 91.52 71.4489 91.104C70.6649 90.672 69.7849 90.456 68.8089 90.456C67.8329 90.456 66.9529 90.672 66.1689 91.104C65.4009 91.52 64.7929 92.104 64.3449 92.856C63.9129 93.608 63.6969 94.472 63.6969 95.448C63.6969 96.424 63.9129 97.296 64.3449 98.064C64.7929 98.816 65.4009 99.408 66.1689 99.84C66.9529 100.256 67.8329 100.464 68.8089 100.464ZM86.3203 89.376C87.8883 89.376 89.1283 89.832 90.0403 90.744C90.9523 91.656 91.4083 92.968 91.4083 94.68V102H90.2083V94.776C90.2083 93.368 89.8483 92.296 89.1283 91.56C88.4243 90.824 87.4323 90.456 86.1523 90.456C84.6803 90.456 83.5203 90.896 82.6723 91.776C81.8243 92.656 81.4003 93.84 81.4003 95.328V102H80.2003V84.192H81.4003V92.088C81.8323 91.224 82.4723 90.56 83.3203 90.096C84.1683 89.616 85.1683 89.376 86.3203 89.376ZM102.565 101.208C102.261 101.496 101.877 101.72 101.413 101.88C100.965 102.024 100.493 102.096 99.9967 102.096C98.9087 102.096 98.0687 101.8 97.4767 101.208C96.8847 100.6 96.5887 99.76 96.5887 98.688V90.504H94.2847V89.472H96.5887V86.736H97.7887V89.472H101.773V90.504H97.7887V98.568C97.7887 99.384 97.9807 100.008 98.3647 100.44C98.7647 100.856 99.3487 101.064 100.117 101.064C100.901 101.064 101.549 100.832 102.061 100.368L102.565 101.208Z" fill="black"/>
<path d="M214.32 97.272H204.576L202.44 102H201.12L208.848 85.2H210.072L217.8 102H216.48L214.32 97.272ZM213.864 96.24L209.448 86.544L205.056 96.24H213.864ZM224.69 89.376C226.242 89.376 227.434 89.776 228.266 90.576C229.098 91.36 229.514 92.52 229.514 94.056V102H228.362V99.768C227.962 100.504 227.378 101.08 226.61 101.496C225.842 101.896 224.922 102.096 223.85 102.096C222.458 102.096 221.354 101.768 220.538 101.112C219.738 100.456 219.338 99.592 219.338 98.52C219.338 97.48 219.706 96.64 220.442 96C221.194 95.344 222.386 95.016 224.018 95.016H228.314V94.008C228.314 92.84 227.994 91.952 227.354 91.344C226.73 90.736 225.81 90.432 224.594 90.432C223.762 90.432 222.962 90.576 222.194 90.864C221.442 91.152 220.802 91.536 220.274 92.016L219.674 91.152C220.298 90.592 221.05 90.16 221.93 89.856C222.81 89.536 223.73 89.376 224.69 89.376ZM224.018 101.112C225.058 101.112 225.938 100.872 226.658 100.392C227.394 99.912 227.946 99.216 228.314 98.304V95.952H224.042C222.81 95.952 221.914 96.176 221.354 96.624C220.81 97.072 220.538 97.688 220.538 98.472C220.538 99.288 220.842 99.936 221.45 100.416C222.058 100.88 222.914 101.112 224.018 101.112ZM244.826 93.336C246.026 93.56 246.938 94.032 247.562 94.752C248.202 95.472 248.522 96.408 248.522 97.56C248.522 98.984 248.002 100.08 246.962 100.848C245.922 101.616 244.378 102 242.33 102H234.842V85.2H241.85C243.674 85.2 245.09 85.576 246.098 86.328C247.122 87.064 247.634 88.12 247.634 89.496C247.634 90.456 247.378 91.264 246.866 91.92C246.37 92.576 245.69 93.048 244.826 93.336ZM236.066 86.256V92.952H241.802C243.274 92.952 244.402 92.672 245.186 92.112C245.986 91.536 246.386 90.696 246.386 89.592C246.386 88.504 245.986 87.68 245.186 87.12C244.402 86.544 243.274 86.256 241.802 86.256H236.066ZM242.33 100.944C243.962 100.944 245.194 100.664 246.026 100.104C246.874 99.528 247.298 98.648 247.298 97.464C247.298 96.28 246.874 95.408 246.026 94.848C245.194 94.288 243.962 94.008 242.33 94.008H236.066V100.944H242.33ZM258.793 89.376C259.961 89.376 261.017 89.648 261.961 90.192C262.905 90.72 263.641 91.472 264.169 92.448C264.713 93.408 264.985 94.504 264.985 95.736C264.985 96.968 264.713 98.064 264.169 99.024C263.641 99.984 262.905 100.736 261.961 101.28C261.017 101.824 259.961 102.096 258.793 102.096C257.673 102.096 256.657 101.832 255.745 101.304C254.849 100.76 254.153 100.008 253.657 99.048V102H252.505V84.192H253.705V92.328C254.201 91.4 254.897 90.68 255.793 90.168C256.689 89.64 257.689 89.376 258.793 89.376ZM258.721 101.016C259.681 101.016 260.545 100.792 261.313 100.344C262.081 99.896 262.681 99.272 263.113 98.472C263.561 97.672 263.785 96.76 263.785 95.736C263.785 94.712 263.561 93.8 263.113 93C262.681 92.2 262.081 91.576 261.313 91.128C260.545 90.68 259.681 90.456 258.721 90.456C257.761 90.456 256.897 90.68 256.129 91.128C255.377 91.576 254.777 92.2 254.329 93C253.897 93.8 253.681 94.712 253.681 95.736C253.681 96.76 253.897 97.672 254.329 98.472C254.777 99.272 255.377 99.896 256.129 100.344C256.897 100.792 257.761 101.016 258.721 101.016ZM276.188 102.12C274.54 102.12 273.052 101.752 271.724 101.016C270.412 100.28 269.372 99.264 268.604 97.968C267.852 96.672 267.476 95.216 267.476 93.6C267.476 91.984 267.852 90.528 268.604 89.232C269.372 87.936 270.412 86.92 271.724 86.184C273.052 85.448 274.54 85.08 276.188 85.08C277.404 85.08 278.524 85.28 279.548 85.68C280.572 86.064 281.444 86.64 282.164 87.408L281.396 88.2C280.052 86.872 278.332 86.208 276.236 86.208C274.828 86.208 273.548 86.528 272.396 87.168C271.244 87.808 270.34 88.696 269.684 89.832C269.028 90.952 268.7 92.208 268.7 93.6C268.7 94.992 269.028 96.256 269.684 97.392C270.34 98.512 271.244 99.392 272.396 100.032C273.548 100.672 274.828 100.992 276.236 100.992C278.316 100.992 280.036 100.32 281.396 98.976L282.164 99.768C281.444 100.536 280.564 101.12 279.524 101.52C278.5 101.92 277.388 102.12 276.188 102.12ZM290.262 102.096C289.046 102.096 287.958 101.824 286.998 101.28C286.038 100.736 285.286 99.984 284.742 99.024C284.198 98.048 283.926 96.952 283.926 95.736C283.926 94.504 284.198 93.408 284.742 92.448C285.286 91.472 286.038 90.72 286.998 90.192C287.958 89.648 289.046 89.376 290.262 89.376C291.27 89.376 292.182 89.576 292.998 89.976C293.83 90.36 294.502 90.928 295.014 91.68L294.126 92.328C293.678 91.704 293.118 91.24 292.446 90.936C291.79 90.616 291.062 90.456 290.262 90.456C289.286 90.456 288.406 90.68 287.622 91.128C286.854 91.56 286.246 92.176 285.798 92.976C285.366 93.776 285.15 94.696 285.15 95.736C285.15 96.776 285.366 97.696 285.798 98.496C286.246 99.296 286.854 99.92 287.622 100.368C288.406 100.8 289.286 101.016 290.262 101.016C291.062 101.016 291.79 100.864 292.446 100.56C293.118 100.24 293.678 99.768 294.126 99.144L295.014 99.792C294.502 100.544 293.83 101.12 292.998 101.52C292.182 101.904 291.27 102.096 290.262 102.096ZM322.451 102.12C321.171 102.12 320.027 101.776 319.019 101.088C318.027 100.384 317.251 99.392 316.691 98.112C316.147 96.832 315.875 95.328 315.875 93.6C315.875 91.872 316.147 90.368 316.691 89.088C317.251 87.808 318.027 86.824 319.019 86.136C320.027 85.432 321.171 85.08 322.451 85.08C323.731 85.08 324.867 85.432 325.859 86.136C326.867 86.824 327.643 87.808 328.187 89.088C328.747 90.368 329.027 91.872 329.027 93.6C329.027 95.328 328.747 96.832 328.187 98.112C327.643 99.392 326.867 100.384 325.859 101.088C324.867 101.776 323.731 102.12 322.451 102.12ZM322.451 100.992C323.507 100.992 324.435 100.704 325.235 100.128C326.051 99.536 326.683 98.688 327.131 97.584C327.579 96.464 327.803 95.136 327.803 93.6C327.803 92.064 327.579 90.744 327.131 89.64C326.683 88.52 326.051 87.672 325.235 87.096C324.435 86.504 323.507 86.208 322.451 86.208C321.395 86.208 320.459 86.504 319.643 87.096C318.843 87.672 318.219 88.52 317.771 89.64C317.323 90.744 317.099 92.064 317.099 93.6C317.099 95.136 317.323 96.464 317.771 97.584C318.219 98.688 318.843 99.536 319.643 100.128C320.459 100.704 321.395 100.992 322.451 100.992ZM335.872 85.2V102H334.648V86.304H330.544V85.2H335.872ZM351.317 100.896V102H339.773V101.136L346.877 94.08C347.805 93.152 348.429 92.36 348.749 91.704C349.085 91.032 349.253 90.344 349.253 89.64C349.253 88.568 348.885 87.728 348.149 87.12C347.429 86.512 346.381 86.208 345.005 86.208C343.949 86.208 343.021 86.368 342.221 86.688C341.437 87.008 340.757 87.496 340.181 88.152L339.317 87.384C339.957 86.648 340.765 86.08 341.741 85.68C342.733 85.28 343.853 85.08 345.101 85.08C346.749 85.08 348.061 85.48 349.037 86.28C350.013 87.08 350.501 88.16 350.501 89.52C350.501 90.384 350.309 91.208 349.925 91.992C349.541 92.776 348.821 93.688 347.765 94.728L341.573 100.896H351.317ZM358.745 92.52C360.601 92.568 362.009 93.024 362.969 93.888C363.945 94.736 364.432 95.864 364.432 97.272C364.432 98.216 364.209 99.056 363.761 99.792C363.313 100.512 362.641 101.08 361.745 101.496C360.865 101.912 359.801 102.12 358.553 102.12C357.337 102.12 356.193 101.92 355.121 101.52C354.049 101.104 353.217 100.552 352.625 99.864L353.249 98.928C353.793 99.536 354.529 100.032 355.457 100.416C356.401 100.8 357.433 100.992 358.553 100.992C360.041 100.992 361.185 100.664 361.985 100.008C362.785 99.336 363.185 98.424 363.185 97.272C363.185 96.104 362.777 95.192 361.961 94.536C361.145 93.88 359.921 93.552 358.289 93.552H357.233V92.664L362.201 86.304H353.249V85.2H363.785V86.064L358.745 92.52Z" fill="black"/>
<path d="M55.208 165L51.368 159.6C50.936 159.648 50.488 159.672 50.024 159.672H45.512V165H43.736V148.2H50.024C52.168 148.2 53.848 148.712 55.064 149.736C56.28 150.76 56.888 152.168 56.888 153.96C56.888 155.272 56.552 156.384 55.88 157.296C55.224 158.192 54.28 158.84 53.048 159.24L57.152 165H55.208ZM49.976 158.16C51.64 158.16 52.912 157.792 53.792 157.056C54.672 156.32 55.112 155.288 55.112 153.96C55.112 152.6 54.672 151.56 53.792 150.84C52.912 150.104 51.64 149.736 49.976 149.736H45.512V158.16H49.976ZM71.7118 159.216H61.1518C61.2478 160.528 61.7518 161.592 62.6638 162.408C63.5758 163.208 64.7278 163.608 66.1198 163.608C66.9038 163.608 67.6238 163.472 68.2798 163.2C68.9358 162.912 69.5038 162.496 69.9838 161.952L70.9438 163.056C70.3838 163.728 69.6798 164.24 68.8318 164.592C67.9998 164.944 67.0798 165.12 66.0718 165.12C64.7758 165.12 63.6238 164.848 62.6158 164.304C61.6238 163.744 60.8478 162.976 60.2878 162C59.7278 161.024 59.4478 159.92 59.4478 158.688C59.4478 157.456 59.7118 156.352 60.2398 155.376C60.7838 154.4 61.5198 153.64 62.4478 153.096C63.3918 152.552 64.4478 152.28 65.6158 152.28C66.7838 152.28 67.8318 152.552 68.7598 153.096C69.6878 153.64 70.4158 154.4 70.9438 155.376C71.4718 156.336 71.7358 157.44 71.7358 158.688L71.7118 159.216ZM65.6158 153.744C64.3998 153.744 63.3758 154.136 62.5438 154.92C61.7278 155.688 61.2638 156.696 61.1518 157.944H70.1038C69.9918 156.696 69.5198 155.688 68.6878 154.92C67.8718 154.136 66.8478 153.744 65.6158 153.744ZM86.8921 152.376V163.464C86.8921 165.608 86.3641 167.192 85.3081 168.216C84.2681 169.256 82.6921 169.776 80.5801 169.776C79.4121 169.776 78.3001 169.6 77.2441 169.248C76.2041 168.912 75.3561 168.44 74.7001 167.832L75.5641 166.536C76.1721 167.08 76.9081 167.504 77.7721 167.808C78.6521 168.112 79.5721 168.264 80.5321 168.264C82.1321 168.264 83.3081 167.888 84.0601 167.136C84.8121 166.4 85.1881 165.248 85.1881 163.68V162.072C84.6601 162.872 83.9641 163.48 83.1001 163.896C82.2521 164.312 81.3081 164.52 80.2681 164.52C79.0841 164.52 78.0041 164.264 77.0281 163.752C76.0681 163.224 75.3081 162.496 74.7481 161.568C74.2041 160.624 73.9321 159.56 73.9321 158.376C73.9321 157.192 74.2041 156.136 74.7481 155.208C75.3081 154.28 76.0681 153.56 77.0281 153.048C77.9881 152.536 79.0681 152.28 80.2681 152.28C81.3401 152.28 82.3081 152.496 83.1721 152.928C84.0361 153.36 84.7321 153.984 85.2601 154.8V152.376H86.8921ZM80.4361 163.008C81.3481 163.008 82.1721 162.816 82.9081 162.432C83.6441 162.032 84.2121 161.48 84.6121 160.776C85.0281 160.072 85.2361 159.272 85.2361 158.376C85.2361 157.48 85.0281 156.688 84.6121 156C84.2121 155.296 83.6441 154.752 82.9081 154.368C82.1881 153.968 81.3641 153.768 80.4361 153.768C79.5241 153.768 78.7001 153.96 77.9641 154.344C77.2441 154.728 76.6761 155.272 76.2601 155.976C75.8601 156.68 75.6601 157.48 75.6601 158.376C75.6601 159.272 75.8601 160.072 76.2601 160.776C76.6761 161.48 77.2441 162.032 77.9641 162.432C78.7001 162.816 79.5241 163.008 80.4361 163.008ZM103.033 152.376V165H101.401V162.696C100.953 163.464 100.337 164.064 99.5533 164.496C98.7693 164.912 97.8733 165.12 96.8653 165.12C95.2173 165.12 93.9133 164.664 92.9533 163.752C92.0093 162.824 91.5373 161.472 91.5373 159.696V152.376H93.2413V159.528C93.2413 160.856 93.5693 161.864 94.2253 162.552C94.8813 163.24 95.8173 163.584 97.0333 163.584C98.3613 163.584 99.4093 163.184 100.177 162.384C100.945 161.568 101.329 160.44 101.329 159V152.376H103.033ZM107.806 147.192H109.51V165H107.806V147.192ZM118.667 152.28C120.315 152.28 121.579 152.696 122.459 153.528C123.339 154.344 123.779 155.56 123.779 157.176V165H122.147V163.032C121.763 163.688 121.195 164.2 120.443 164.568C119.707 164.936 118.827 165.12 117.803 165.12C116.395 165.12 115.275 164.784 114.443 164.112C113.611 163.44 113.195 162.552 113.195 161.448C113.195 160.376 113.579 159.512 114.347 158.856C115.131 158.2 116.371 157.872 118.067 157.872H122.075V157.104C122.075 156.016 121.771 155.192 121.163 154.632C120.555 154.056 119.667 153.768 118.499 153.768C117.699 153.768 116.931 153.904 116.195 154.176C115.459 154.432 114.827 154.792 114.299 155.256L113.531 153.984C114.171 153.44 114.939 153.024 115.835 152.736C116.731 152.432 117.675 152.28 118.667 152.28ZM118.067 163.776C119.027 163.776 119.851 163.56 120.539 163.128C121.227 162.68 121.739 162.04 122.075 161.208V159.144H118.115C115.955 159.144 114.875 159.896 114.875 161.4C114.875 162.136 115.155 162.72 115.715 163.152C116.275 163.568 117.059 163.776 118.067 163.776ZM130.039 154.848C130.439 154 131.031 153.36 131.815 152.928C132.615 152.496 133.599 152.28 134.767 152.28V153.936L134.359 153.912C133.031 153.912 131.991 154.32 131.239 155.136C130.487 155.952 130.111 157.096 130.111 158.568V165H128.407V152.376H130.039V154.848Z" fill="black"/>
<path d="M214.272 160.512H204.912L202.896 165H201.048L208.728 148.2H210.48L218.16 165H216.288L214.272 160.512ZM213.624 159.072L209.592 150.048L205.56 159.072H213.624ZM224.995 152.28C226.643 152.28 227.907 152.696 228.787 153.528C229.667 154.344 230.107 155.56 230.107 157.176V165H228.475V163.032C228.091 163.688 227.523 164.2 226.771 164.568C226.035 164.936 225.155 165.12 224.131 165.12C222.723 165.12 221.603 164.784 220.771 164.112C219.939 163.44 219.523 162.552 219.523 161.448C219.523 160.376 219.907 159.512 220.675 158.856C221.459 158.2 222.699 157.872 224.395 157.872H228.403V157.104C228.403 156.016 228.099 155.192 227.491 154.632C226.883 154.056 225.995 153.768 224.827 153.768C224.027 153.768 223.259 153.904 222.523 154.176C221.787 154.432 221.155 154.792 220.627 155.256L219.859 153.984C220.499 153.44 221.267 153.024 222.163 152.736C223.059 152.432 224.003 152.28 224.995 152.28ZM224.395 163.776C225.355 163.776 226.179 163.56 226.867 163.128C227.555 162.68 228.067 162.04 228.403 161.208V159.144H224.443C222.283 159.144 221.203 159.896 221.203 161.4C221.203 162.136 221.483 162.72 222.043 163.152C222.603 163.568 223.387 163.776 224.395 163.776ZM245.679 156.336C246.783 156.576 247.631 157.056 248.223 157.776C248.831 158.48 249.135 159.392 249.135 160.512C249.135 161.952 248.599 163.064 247.527 163.848C246.471 164.616 244.903 165 242.823 165H235.095V148.2H242.343C244.215 148.2 245.663 148.576 246.687 149.328C247.727 150.08 248.247 151.144 248.247 152.52C248.247 153.448 248.015 154.24 247.551 154.896C247.103 155.536 246.479 156.016 245.679 156.336ZM236.871 149.664V155.76H242.223C243.583 155.76 244.631 155.504 245.367 154.992C246.103 154.464 246.471 153.704 246.471 152.712C246.471 151.72 246.103 150.968 245.367 150.456C244.631 149.928 243.583 149.664 242.223 149.664H236.871ZM242.799 163.536C244.303 163.536 245.439 163.28 246.207 162.768C246.975 162.256 247.359 161.456 247.359 160.368C247.359 158.272 245.839 157.224 242.799 157.224H236.871V163.536H242.799ZM259.333 152.28C260.517 152.28 261.589 152.552 262.549 153.096C263.509 153.624 264.261 154.376 264.805 155.352C265.349 156.328 265.621 157.44 265.621 158.688C265.621 159.936 265.349 161.048 264.805 162.024C264.261 163 263.509 163.76 262.549 164.304C261.589 164.848 260.517 165.12 259.333 165.12C258.277 165.12 257.325 164.896 256.477 164.448C255.645 164 254.973 163.352 254.461 162.504V165H252.829V147.192H254.533V154.776C255.061 153.96 255.733 153.344 256.549 152.928C257.381 152.496 258.309 152.28 259.333 152.28ZM259.213 163.608C260.093 163.608 260.893 163.408 261.613 163.008C262.333 162.592 262.893 162.008 263.293 161.256C263.709 160.504 263.917 159.648 263.917 158.688C263.917 157.728 263.709 156.872 263.293 156.12C262.893 155.368 262.333 154.792 261.613 154.392C260.893 153.976 260.093 153.768 259.213 153.768C258.317 153.768 257.509 153.976 256.789 154.392C256.085 154.792 255.525 155.368 255.109 156.12C254.709 156.872 254.509 157.728 254.509 158.688C254.509 159.648 254.709 160.504 255.109 161.256C255.525 162.008 256.085 162.592 256.789 163.008C257.509 163.408 258.317 163.608 259.213 163.608ZM276.751 165.144C275.087 165.144 273.583 164.776 272.239 164.04C270.911 163.304 269.863 162.288 269.095 160.992C268.343 159.68 267.967 158.216 267.967 156.6C267.967 154.984 268.343 153.528 269.095 152.232C269.863 150.92 270.919 149.896 272.263 149.16C273.607 148.424 275.111 148.056 276.775 148.056C278.023 148.056 279.175 148.264 280.231 148.68C281.287 149.096 282.183 149.704 282.919 150.504L281.791 151.632C280.479 150.304 278.823 149.64 276.823 149.64C275.495 149.64 274.287 149.944 273.199 150.552C272.111 151.16 271.255 151.992 270.631 153.048C270.023 154.104 269.719 155.288 269.719 156.6C269.719 157.912 270.023 159.096 270.631 160.152C271.255 161.208 272.111 162.04 273.199 162.648C274.287 163.256 275.495 163.56 276.823 163.56C278.839 163.56 280.495 162.888 281.791 161.544L282.919 162.672C282.183 163.472 281.279 164.088 280.207 164.52C279.151 164.936 277.999 165.144 276.751 165.144ZM291.014 165.12C289.766 165.12 288.646 164.848 287.654 164.304C286.678 163.76 285.91 163 285.35 162.024C284.79 161.032 284.51 159.92 284.51 158.688C284.51 157.456 284.79 156.352 285.35 155.376C285.91 154.4 286.678 153.64 287.654 153.096C288.646 152.552 289.766 152.28 291.014 152.28C292.102 152.28 293.07 152.496 293.918 152.928C294.782 153.344 295.462 153.96 295.958 154.776L294.686 155.64C294.27 155.016 293.742 154.552 293.102 154.248C292.462 153.928 291.766 153.768 291.014 153.768C290.102 153.768 289.278 153.976 288.542 154.392C287.822 154.792 287.254 155.368 286.838 156.12C286.438 156.872 286.238 157.728 286.238 158.688C286.238 159.664 286.438 160.528 286.838 161.28C287.254 162.016 287.822 162.592 288.542 163.008C289.278 163.408 290.102 163.608 291.014 163.608C291.766 163.608 292.462 163.456 293.102 163.152C293.742 162.848 294.27 162.384 294.686 161.76L295.958 162.624C295.462 163.44 294.782 164.064 293.918 164.496C293.054 164.912 292.086 165.12 291.014 165.12ZM323.717 165.144C322.421 165.144 321.261 164.8 320.237 164.112C319.229 163.424 318.437 162.44 317.861 161.16C317.301 159.864 317.021 158.344 317.021 156.6C317.021 154.856 317.301 153.344 317.861 152.064C318.437 150.768 319.229 149.776 320.237 149.088C321.261 148.4 322.421 148.056 323.717 148.056C325.013 148.056 326.165 148.4 327.173 149.088C328.197 149.776 328.997 150.768 329.573 152.064C330.149 153.344 330.437 154.856 330.437 156.6C330.437 158.344 330.149 159.864 329.573 161.16C328.997 162.44 328.197 163.424 327.173 164.112C326.165 164.8 325.013 165.144 323.717 165.144ZM323.717 163.56C324.693 163.56 325.549 163.288 326.285 162.744C327.037 162.2 327.621 161.408 328.037 160.368C328.453 159.328 328.661 158.072 328.661 156.6C328.661 155.128 328.453 153.872 328.037 152.832C327.621 151.792 327.037 151 326.285 150.456C325.549 149.912 324.693 149.64 323.717 149.64C322.741 149.64 321.877 149.912 321.125 150.456C320.389 151 319.813 151.792 319.397 152.832C318.981 153.872 318.773 155.128 318.773 156.6C318.773 158.072 318.981 159.328 319.397 160.368C319.813 161.408 320.389 162.2 321.125 162.744C321.877 163.288 322.741 163.56 323.717 163.56ZM337.521 148.2V165H335.793V149.736H331.833V148.2H337.521ZM353.009 163.464V165H341.225V163.776L348.209 156.936C349.089 156.072 349.681 155.328 349.985 154.704C350.305 154.064 350.465 153.424 350.465 152.784C350.465 151.792 350.121 151.024 349.433 150.48C348.761 149.92 347.793 149.64 346.529 149.64C344.561 149.64 343.033 150.264 341.945 151.512L340.721 150.456C341.377 149.688 342.209 149.096 343.217 148.68C344.241 148.264 345.393 148.056 346.673 148.056C348.385 148.056 349.737 148.464 350.729 149.28C351.737 150.08 352.241 151.184 352.241 152.592C352.241 153.456 352.049 154.288 351.665 155.088C351.281 155.888 350.553 156.808 349.481 157.848L343.769 163.464H353.009ZM360.89 155.4C362.65 155.496 363.986 155.976 364.898 156.84C365.826 157.688 366.29 158.8 366.29 160.176C366.29 161.136 366.058 161.992 365.594 162.744C365.13 163.48 364.442 164.064 363.53 164.496C362.618 164.928 361.506 165.144 360.194 165.144C358.978 165.144 357.826 164.952 356.738 164.568C355.666 164.168 354.802 163.64 354.146 162.984L354.986 161.616C355.546 162.192 356.29 162.664 357.218 163.032C358.146 163.384 359.138 163.56 360.194 163.56C361.57 163.56 362.634 163.264 363.386 162.672C364.138 162.064 364.514 161.232 364.514 160.176C364.514 159.136 364.138 158.32 363.386 157.728C362.634 157.136 361.498 156.84 359.978 156.84H358.778V155.568L363.434 149.736H354.842V148.2H365.642V149.424L360.89 155.4Z" fill="black"/>
<path d="M59.096 228L59.072 215.76L53 225.96H51.896L45.824 215.832V228H43.52V211.2H45.488L52.496 223.008L59.408 211.2H61.376L61.4 228H59.096ZM77.6019 221.712C77.6019 221.888 77.5859 222.12 77.5539 222.408H67.2339C67.3779 223.528 67.8659 224.432 68.6979 225.12C69.5459 225.792 70.5939 226.128 71.8419 226.128C73.3619 226.128 74.5859 225.616 75.5139 224.592L76.7859 226.08C76.2099 226.752 75.4899 227.264 74.6259 227.616C73.7779 227.968 72.8259 228.144 71.7699 228.144C70.4259 228.144 69.2339 227.872 68.1939 227.328C67.1539 226.768 66.3459 225.992 65.7699 225C65.2099 224.008 64.9299 222.888 64.9299 221.64C64.9299 220.408 65.2019 219.296 65.7459 218.304C66.3059 217.312 67.0659 216.544 68.0259 216C69.0019 215.44 70.0979 215.16 71.3139 215.16C72.5299 215.16 73.6099 215.44 74.5539 216C75.5139 216.544 76.2579 217.312 76.7859 218.304C77.3299 219.296 77.6019 220.432 77.6019 221.712ZM71.3139 217.104C70.2099 217.104 69.2819 217.44 68.5299 218.112C67.7939 218.784 67.3619 219.664 67.2339 220.752H75.3939C75.2659 219.68 74.8259 218.808 74.0739 218.136C73.3379 217.448 72.4179 217.104 71.3139 217.104ZM92.8012 210.192V228H90.5932V225.984C90.0812 226.688 89.4332 227.224 88.6492 227.592C87.8652 227.96 87.0012 228.144 86.0572 228.144C84.8252 228.144 83.7212 227.872 82.7452 227.328C81.7692 226.784 81.0012 226.024 80.4412 225.048C79.8972 224.056 79.6252 222.92 79.6252 221.64C79.6252 220.36 79.8972 219.232 80.4412 218.256C81.0012 217.28 81.7692 216.52 82.7452 215.976C83.7212 215.432 84.8252 215.16 86.0572 215.16C86.9692 215.16 87.8092 215.336 88.5772 215.688C89.3452 216.024 89.9852 216.528 90.4972 217.2V210.192H92.8012ZM86.2492 226.128C87.0492 226.128 87.7772 225.944 88.4332 225.576C89.0892 225.192 89.6012 224.664 89.9692 223.992C90.3372 223.304 90.5212 222.52 90.5212 221.64C90.5212 220.76 90.3372 219.984 89.9692 219.312C89.6012 218.624 89.0892 218.096 88.4332 217.728C87.7772 217.36 87.0492 217.176 86.2492 217.176C85.4332 217.176 84.6972 217.36 84.0412 217.728C83.4012 218.096 82.8892 218.624 82.5052 219.312C82.1372 219.984 81.9532 220.76 81.9532 221.64C81.9532 222.52 82.1372 223.304 82.5052 223.992C82.8892 224.664 83.4012 225.192 84.0412 225.576C84.6972 225.944 85.4332 226.128 86.2492 226.128ZM97.1606 215.28H99.4646V228H97.1606V215.28ZM98.3126 212.832C97.8646 212.832 97.4886 212.688 97.1846 212.4C96.8966 212.112 96.7526 211.76 96.7526 211.344C96.7526 210.928 96.8966 210.576 97.1846 210.288C97.4886 209.984 97.8646 209.832 98.3126 209.832C98.7606 209.832 99.1286 209.976 99.4166 210.264C99.7206 210.536 99.8726 210.88 99.8726 211.296C99.8726 211.728 99.7206 212.096 99.4166 212.4C99.1286 212.688 98.7606 212.832 98.3126 212.832ZM115.72 215.28V228H113.536V226.08C113.072 226.736 112.456 227.248 111.688 227.616C110.936 227.968 110.112 228.144 109.216 228.144C107.52 228.144 106.184 227.68 105.208 226.752C104.232 225.808 103.744 224.424 103.744 222.6V215.28H106.048V222.336C106.048 223.568 106.344 224.504 106.936 225.144C107.528 225.768 108.376 226.08 109.48 226.08C110.696 226.08 111.656 225.712 112.36 224.976C113.064 224.24 113.416 223.2 113.416 221.856V215.28H115.72ZM136.018 215.16C137.618 215.16 138.882 215.624 139.81 216.552C140.754 217.48 141.226 218.856 141.226 220.68V228H138.922V220.944C138.922 219.712 138.634 218.784 138.058 218.16C137.498 217.536 136.69 217.224 135.634 217.224C134.466 217.224 133.538 217.592 132.85 218.328C132.162 219.048 131.818 220.088 131.818 221.448V228H129.514V220.944C129.514 219.712 129.226 218.784 128.65 218.16C128.09 217.536 127.282 217.224 126.226 217.224C125.058 217.224 124.13 217.592 123.442 218.328C122.754 219.048 122.41 220.088 122.41 221.448V228H120.106V215.28H122.314V217.176C122.778 216.52 123.386 216.024 124.138 215.688C124.89 215.336 125.746 215.16 126.706 215.16C127.698 215.16 128.578 215.36 129.346 215.76C130.114 216.16 130.706 216.744 131.122 217.512C131.602 216.776 132.266 216.2 133.114 215.784C133.978 215.368 134.946 215.16 136.018 215.16Z" fill="black"/>
<path d="M214.224 223.8H205.296L203.448 228H200.976L208.584 211.2H210.96L218.592 228H216.072L214.224 223.8ZM213.384 221.88L209.76 213.648L206.136 221.88H213.384ZM225.394 215.16C227.154 215.16 228.498 215.592 229.426 216.456C230.37 217.32 230.842 218.608 230.842 220.32V228H228.658V226.32C228.274 226.912 227.722 227.368 227.002 227.688C226.298 227.992 225.458 228.144 224.482 228.144C223.058 228.144 221.914 227.8 221.05 227.112C220.202 226.424 219.778 225.52 219.778 224.4C219.778 223.28 220.186 222.384 221.002 221.712C221.818 221.024 223.114 220.68 224.89 220.68H228.538V220.224C228.538 219.232 228.25 218.472 227.674 217.944C227.098 217.416 226.25 217.152 225.13 217.152C224.378 217.152 223.642 217.28 222.922 217.536C222.202 217.776 221.594 218.104 221.098 218.52L220.138 216.792C220.794 216.264 221.578 215.864 222.49 215.592C223.402 215.304 224.37 215.16 225.394 215.16ZM224.866 226.368C225.746 226.368 226.506 226.176 227.146 225.792C227.786 225.392 228.25 224.832 228.538 224.112V222.336H224.986C223.034 222.336 222.058 222.992 222.058 224.304C222.058 224.944 222.306 225.448 222.802 225.816C223.298 226.184 223.986 226.368 224.866 226.368ZM246.746 219.288C247.722 219.56 248.49 220.056 249.05 220.776C249.61 221.48 249.89 222.376 249.89 223.464C249.89 224.92 249.338 226.04 248.234 226.824C247.146 227.608 245.554 228 243.458 228H235.442V211.2H242.978C244.898 211.2 246.378 211.584 247.418 212.352C248.474 213.12 249.002 214.184 249.002 215.544C249.002 216.424 248.794 217.184 248.378 217.824C247.978 218.464 247.434 218.952 246.746 219.288ZM237.842 213.144V218.52H242.762C243.994 218.52 244.938 218.296 245.594 217.848C246.266 217.384 246.602 216.712 246.602 215.832C246.602 214.952 246.266 214.288 245.594 213.84C244.938 213.376 243.994 213.144 242.762 213.144H237.842ZM243.362 226.056C244.722 226.056 245.746 225.832 246.434 225.384C247.122 224.936 247.466 224.232 247.466 223.272C247.466 221.4 246.098 220.464 243.362 220.464H237.842V226.056H243.362ZM260.014 215.16C261.246 215.16 262.35 215.432 263.326 215.976C264.302 216.52 265.062 217.28 265.606 218.256C266.166 219.232 266.446 220.36 266.446 221.64C266.446 222.92 266.166 224.056 265.606 225.048C265.062 226.024 264.302 226.784 263.326 227.328C262.35 227.872 261.246 228.144 260.014 228.144C259.07 228.144 258.206 227.96 257.422 227.592C256.638 227.224 255.99 226.688 255.478 225.984V228H253.27V210.192H255.574V217.2C256.086 216.528 256.726 216.024 257.494 215.688C258.262 215.336 259.102 215.16 260.014 215.16ZM259.822 226.128C260.638 226.128 261.366 225.944 262.006 225.576C262.662 225.192 263.174 224.664 263.542 223.992C263.926 223.304 264.118 222.52 264.118 221.64C264.118 220.76 263.926 219.984 263.542 219.312C263.174 218.624 262.662 218.096 262.006 217.728C261.366 217.36 260.638 217.176 259.822 217.176C259.022 217.176 258.294 217.36 257.638 217.728C256.982 218.096 256.47 218.624 256.102 219.312C255.734 219.984 255.55 220.76 255.55 221.64C255.55 222.52 255.734 223.304 256.102 223.992C256.47 224.664 256.982 225.192 257.638 225.576C258.294 225.944 259.022 226.128 259.822 226.128ZM277.477 228.192C275.797 228.192 274.277 227.824 272.917 227.088C271.573 226.336 270.517 225.312 269.749 224.016C268.981 222.704 268.597 221.232 268.597 219.6C268.597 217.968 268.981 216.504 269.749 215.208C270.517 213.896 271.581 212.872 272.941 212.136C274.301 211.384 275.821 211.008 277.501 211.008C278.813 211.008 280.013 211.232 281.101 211.68C282.189 212.112 283.117 212.76 283.885 213.624L282.325 215.136C281.061 213.808 279.485 213.144 277.597 213.144C276.349 213.144 275.221 213.424 274.213 213.984C273.205 214.544 272.413 215.32 271.837 216.312C271.277 217.288 270.997 218.384 270.997 219.6C270.997 220.816 271.277 221.92 271.837 222.912C272.413 223.888 273.205 224.656 274.213 225.216C275.221 225.776 276.349 226.056 277.597 226.056C279.469 226.056 281.045 225.384 282.325 224.04L283.885 225.552C283.117 226.416 282.181 227.072 281.077 227.52C279.989 227.968 278.789 228.192 277.477 228.192ZM291.978 228.144C290.682 228.144 289.522 227.864 288.498 227.304C287.49 226.744 286.698 225.976 286.122 225C285.546 224.008 285.258 222.888 285.258 221.64C285.258 220.392 285.546 219.28 286.122 218.304C286.698 217.312 287.49 216.544 288.498 216C289.522 215.44 290.682 215.16 291.978 215.16C293.13 215.16 294.154 215.392 295.05 215.856C295.962 216.32 296.666 216.992 297.162 217.872L295.41 219C295.01 218.392 294.514 217.936 293.922 217.632C293.33 217.328 292.674 217.176 291.954 217.176C291.122 217.176 290.37 217.36 289.698 217.728C289.042 218.096 288.522 218.624 288.138 219.312C287.77 219.984 287.586 220.76 287.586 221.64C287.586 222.536 287.77 223.328 288.138 224.016C288.522 224.688 289.042 225.208 289.698 225.576C290.37 225.944 291.122 226.128 291.954 226.128C292.674 226.128 293.33 225.976 293.922 225.672C294.514 225.368 295.01 224.912 295.41 224.304L297.162 225.408C296.666 226.288 295.962 226.968 295.05 227.448C294.154 227.912 293.13 228.144 291.978 228.144ZM325.313 228.192C323.985 228.192 322.801 227.856 321.761 227.184C320.737 226.496 319.929 225.504 319.337 224.208C318.745 222.912 318.449 221.376 318.449 219.6C318.449 217.824 318.745 216.288 319.337 214.992C319.929 213.696 320.737 212.712 321.761 212.04C322.801 211.352 323.985 211.008 325.313 211.008C326.625 211.008 327.793 211.352 328.817 212.04C329.857 212.712 330.673 213.696 331.265 214.992C331.857 216.288 332.153 217.824 332.153 219.6C332.153 221.376 331.857 222.912 331.265 224.208C330.673 225.504 329.857 226.496 328.817 227.184C327.793 227.856 326.625 228.192 325.313 228.192ZM325.313 226.056C326.657 226.056 327.729 225.504 328.529 224.4C329.345 223.296 329.753 221.696 329.753 219.6C329.753 217.504 329.345 215.904 328.529 214.8C327.729 213.696 326.657 213.144 325.313 213.144C323.953 213.144 322.865 213.696 322.049 214.8C321.249 215.904 320.849 217.504 320.849 219.6C320.849 221.696 321.249 223.296 322.049 224.4C322.865 225.504 323.953 226.056 325.313 226.056ZM339.594 211.2V228H337.218V213.288H333.426V211.2H339.594ZM355.077 225.912V228H343.005V226.368L349.845 219.768C350.677 218.968 351.237 218.28 351.525 217.704C351.813 217.112 351.957 216.52 351.957 215.928C351.957 215.048 351.645 214.368 351.021 213.888C350.413 213.392 349.533 213.144 348.381 213.144C346.525 213.144 345.093 213.752 344.085 214.968L342.453 213.552C343.109 212.752 343.965 212.128 345.021 211.68C346.093 211.232 347.285 211.008 348.597 211.008C350.357 211.008 351.757 211.432 352.797 212.28C353.837 213.112 354.357 214.248 354.357 215.688C354.357 216.584 354.165 217.432 353.781 218.232C353.397 219.032 352.669 219.944 351.597 220.968L346.461 225.912H355.077ZM363.482 218.256C365.13 218.416 366.386 218.928 367.25 219.792C368.114 220.64 368.546 221.728 368.546 223.056C368.546 224.016 368.306 224.888 367.826 225.672C367.346 226.44 366.626 227.056 365.666 227.52C364.722 227.968 363.562 228.192 362.186 228.192C360.986 228.192 359.834 228.016 358.73 227.664C357.626 227.296 356.722 226.792 356.018 226.152L357.122 224.256C357.698 224.8 358.434 225.24 359.33 225.576C360.226 225.896 361.178 226.056 362.186 226.056C363.434 226.056 364.402 225.792 365.09 225.264C365.794 224.736 366.146 224.008 366.146 223.08C366.146 222.152 365.802 221.432 365.114 220.92C364.426 220.408 363.386 220.152 361.994 220.152H360.65V218.472L364.874 213.288H356.786V211.2H367.874V212.832L363.482 218.256Z" fill="black"/>
<path d="M48.464 291.24C47.168 291.24 45.912 291.056 44.696 290.688C43.496 290.32 42.544 289.832 41.84 289.224L42.92 286.8C43.608 287.344 44.448 287.792 45.44 288.144C46.448 288.48 47.456 288.648 48.464 288.648C49.712 288.648 50.64 288.448 51.248 288.048C51.872 287.648 52.184 287.12 52.184 286.464C52.184 285.984 52.008 285.592 51.656 285.288C51.32 284.968 50.888 284.72 50.36 284.544C49.832 284.368 49.112 284.168 48.2 283.944C46.92 283.64 45.88 283.336 45.08 283.032C44.296 282.728 43.616 282.256 43.04 281.616C42.48 280.96 42.2 280.08 42.2 278.976C42.2 278.048 42.448 277.208 42.944 276.456C43.456 275.688 44.216 275.08 45.224 274.632C46.248 274.184 47.496 273.96 48.968 273.96C49.992 273.96 51 274.088 51.992 274.344C52.984 274.6 53.84 274.968 54.56 275.448L53.576 277.872C52.84 277.44 52.072 277.112 51.272 276.888C50.472 276.664 49.696 276.552 48.944 276.552C47.712 276.552 46.792 276.76 46.184 277.176C45.592 277.592 45.296 278.144 45.296 278.832C45.296 279.312 45.464 279.704 45.8 280.008C46.152 280.312 46.592 280.552 47.12 280.728C47.648 280.904 48.368 281.104 49.28 281.328C50.528 281.616 51.552 281.92 52.352 282.24C53.152 282.544 53.832 283.016 54.392 283.656C54.968 284.296 55.256 285.16 55.256 286.248C55.256 287.176 55 288.016 54.488 288.768C53.992 289.52 53.232 290.12 52.208 290.568C51.184 291.016 49.936 291.24 48.464 291.24ZM70.1098 284.664C70.1098 284.872 70.0938 285.168 70.0618 285.552H60.0058C60.1818 286.496 60.6378 287.248 61.3738 287.808C62.1258 288.352 63.0538 288.624 64.1578 288.624C65.5658 288.624 66.7258 288.16 67.6378 287.232L69.2458 289.08C68.6698 289.768 67.9418 290.288 67.0618 290.64C66.1818 290.992 65.1898 291.168 64.0858 291.168C62.6778 291.168 61.4378 290.888 60.3658 290.328C59.2938 289.768 58.4618 288.992 57.8698 288C57.2938 286.992 57.0058 285.856 57.0058 284.592C57.0058 283.344 57.2858 282.224 57.8458 281.232C58.4218 280.224 59.2138 279.44 60.2218 278.88C61.2298 278.32 62.3658 278.04 63.6298 278.04C64.8778 278.04 65.9898 278.32 66.9658 278.88C67.9578 279.424 68.7258 280.2 69.2698 281.208C69.8298 282.2 70.1098 283.352 70.1098 284.664ZM63.6298 280.44C62.6698 280.44 61.8538 280.728 61.1818 281.304C60.5258 281.864 60.1258 282.616 59.9818 283.56H67.2538C67.1258 282.632 66.7338 281.88 66.0778 281.304C65.4218 280.728 64.6058 280.44 63.6298 280.44ZM89.1674 278.04C90.7834 278.04 92.0634 278.512 93.0074 279.456C93.9514 280.384 94.4234 281.784 94.4234 283.656V291H91.4234V284.04C91.4234 282.92 91.1754 282.08 90.6794 281.52C90.1834 280.944 89.4714 280.656 88.5434 280.656C87.5354 280.656 86.7274 280.992 86.1194 281.664C85.5114 282.32 85.2074 283.264 85.2074 284.496V291H82.2074V284.04C82.2074 282.92 81.9594 282.08 81.4634 281.52C80.9674 280.944 80.2554 280.656 79.3274 280.656C78.3034 280.656 77.4874 280.984 76.8794 281.64C76.2874 282.296 75.9914 283.248 75.9914 284.496V291H72.9914V278.184H75.8474V279.816C76.3274 279.24 76.9274 278.8 77.6474 278.496C78.3674 278.192 79.1674 278.04 80.0474 278.04C81.0074 278.04 81.8554 278.224 82.5914 278.592C83.3434 278.944 83.9354 279.472 84.3674 280.176C84.8954 279.504 85.5754 278.984 86.4074 278.616C87.2394 278.232 88.1594 278.04 89.1674 278.04ZM98.2571 278.184H101.257V291H98.2571V278.184ZM99.7691 276.072C99.2251 276.072 98.7691 275.904 98.4011 275.568C98.0331 275.216 97.8491 274.784 97.8491 274.272C97.8491 273.76 98.0331 273.336 98.4011 273C98.7691 272.648 99.2251 272.472 99.7691 272.472C100.313 272.472 100.769 272.64 101.137 272.976C101.505 273.296 101.689 273.704 101.689 274.2C101.689 274.728 101.505 275.176 101.137 275.544C100.785 275.896 100.329 276.072 99.7691 276.072ZM112.299 278.04C113.547 278.04 114.659 278.312 115.635 278.856C116.627 279.4 117.403 280.168 117.963 281.16C118.523 282.152 118.803 283.296 118.803 284.592C118.803 285.888 118.523 287.04 117.963 288.048C117.403 289.04 116.627 289.808 115.635 290.352C114.659 290.896 113.547 291.168 112.299 291.168C111.419 291.168 110.611 291.016 109.875 290.712C109.155 290.408 108.547 289.952 108.051 289.344V291H105.195V273.192H108.195V279.744C108.707 279.184 109.307 278.76 109.995 278.472C110.699 278.184 111.467 278.04 112.299 278.04ZM111.963 288.6C113.067 288.6 113.971 288.232 114.675 287.496C115.395 286.76 115.755 285.792 115.755 284.592C115.755 283.392 115.395 282.424 114.675 281.688C113.971 280.952 113.067 280.584 111.963 280.584C111.243 280.584 110.595 280.752 110.019 281.088C109.443 281.408 108.987 281.872 108.651 282.48C108.315 283.088 108.147 283.792 108.147 284.592C108.147 285.392 108.315 286.096 108.651 286.704C108.987 287.312 109.443 287.784 110.019 288.12C110.595 288.44 111.243 288.6 111.963 288.6ZM127.408 291.168C126.112 291.168 124.944 290.888 123.904 290.328C122.864 289.768 122.048 288.992 121.456 288C120.88 286.992 120.592 285.856 120.592 284.592C120.592 283.328 120.88 282.2 121.456 281.208C122.048 280.216 122.864 279.44 123.904 278.88C124.944 278.32 126.112 278.04 127.408 278.04C128.72 278.04 129.896 278.32 130.936 278.88C131.976 279.44 132.784 280.216 133.36 281.208C133.952 282.2 134.248 283.328 134.248 284.592C134.248 285.856 133.952 286.992 133.36 288C132.784 288.992 131.976 289.768 130.936 290.328C129.896 290.888 128.72 291.168 127.408 291.168ZM127.408 288.6C128.512 288.6 129.424 288.232 130.144 287.496C130.864 286.76 131.224 285.792 131.224 284.592C131.224 283.392 130.864 282.424 130.144 281.688C129.424 280.952 128.512 280.584 127.408 280.584C126.304 280.584 125.392 280.952 124.672 281.688C123.968 282.424 123.616 283.392 123.616 284.592C123.616 285.792 123.968 286.76 124.672 287.496C125.392 288.232 126.304 288.6 127.408 288.6ZM137.116 273.192H140.116V291H137.116V273.192ZM156.606 273.192V291H153.726V289.344C153.23 289.952 152.614 290.408 151.878 290.712C151.158 291.016 150.358 291.168 149.478 291.168C148.246 291.168 147.134 290.896 146.142 290.352C145.166 289.808 144.398 289.04 143.838 288.048C143.278 287.04 142.998 285.888 142.998 284.592C142.998 283.296 143.278 282.152 143.838 281.16C144.398 280.168 145.166 279.4 146.142 278.856C147.134 278.312 148.246 278.04 149.478 278.04C150.326 278.04 151.102 278.184 151.806 278.472C152.51 278.76 153.11 279.192 153.606 279.768V273.192H156.606ZM149.838 288.6C150.558 288.6 151.206 288.44 151.782 288.12C152.358 287.784 152.814 287.312 153.15 286.704C153.486 286.096 153.654 285.392 153.654 284.592C153.654 283.792 153.486 283.088 153.15 282.48C152.814 281.872 152.358 281.408 151.782 281.088C151.206 280.752 150.558 280.584 149.838 280.584C149.118 280.584 148.47 280.752 147.894 281.088C147.318 281.408 146.862 281.872 146.526 282.48C146.19 283.088 146.022 283.792 146.022 284.592C146.022 285.392 146.19 286.096 146.526 286.704C146.862 287.312 147.318 287.784 147.894 288.12C148.47 288.44 149.118 288.6 149.838 288.6Z" fill="black"/>
<path d="M214.152 287.112H205.752L204.096 291H200.88L208.44 274.2H211.512L219.096 291H215.832L214.152 287.112ZM213.12 284.664L209.952 277.32L206.808 284.664H213.12ZM225.841 278.04C227.729 278.04 229.169 278.496 230.161 279.408C231.169 280.304 231.673 281.664 231.673 283.488V291H228.841V289.44C228.473 290 227.945 290.432 227.257 290.736C226.585 291.024 225.769 291.168 224.809 291.168C223.849 291.168 223.009 291.008 222.289 290.688C221.569 290.352 221.009 289.896 220.609 289.32C220.225 288.728 220.033 288.064 220.033 287.328C220.033 286.176 220.457 285.256 221.305 284.568C222.169 283.864 223.521 283.512 225.361 283.512H228.673V283.32C228.673 282.424 228.401 281.736 227.857 281.256C227.329 280.776 226.537 280.536 225.481 280.536C224.761 280.536 224.049 280.648 223.345 280.872C222.657 281.096 222.073 281.408 221.593 281.808L220.417 279.624C221.089 279.112 221.897 278.72 222.841 278.448C223.785 278.176 224.785 278.04 225.841 278.04ZM225.433 288.984C226.185 288.984 226.849 288.816 227.425 288.48C228.017 288.128 228.433 287.632 228.673 286.992V285.504H225.577C223.849 285.504 222.985 286.072 222.985 287.208C222.985 287.752 223.201 288.184 223.633 288.504C224.065 288.824 224.665 288.984 225.433 288.984ZM247.715 282.264C248.643 282.568 249.379 283.08 249.923 283.8C250.467 284.504 250.739 285.384 250.739 286.44C250.739 287.896 250.179 289.024 249.059 289.824C247.939 290.608 246.307 291 244.163 291H235.811V274.2H243.683C245.667 274.2 247.195 274.592 248.267 275.376C249.339 276.144 249.875 277.208 249.875 278.568C249.875 279.4 249.683 280.136 249.299 280.776C248.915 281.416 248.387 281.912 247.715 282.264ZM238.931 276.648V281.28H243.347C244.435 281.28 245.267 281.088 245.843 280.704C246.435 280.304 246.731 279.728 246.731 278.976C246.731 278.208 246.435 277.632 245.843 277.248C245.267 276.848 244.435 276.648 243.347 276.648H238.931ZM243.971 288.552C246.387 288.552 247.595 287.744 247.595 286.128C247.595 284.512 246.387 283.704 243.971 283.704H238.931V288.552H243.971ZM260.885 278.04C262.133 278.04 263.245 278.312 264.221 278.856C265.213 279.4 265.989 280.168 266.549 281.16C267.109 282.152 267.389 283.296 267.389 284.592C267.389 285.888 267.109 287.04 266.549 288.048C265.989 289.04 265.213 289.808 264.221 290.352C263.245 290.896 262.133 291.168 260.885 291.168C260.005 291.168 259.197 291.016 258.461 290.712C257.741 290.408 257.133 289.952 256.637 289.344V291H253.781V273.192H256.781V279.744C257.293 279.184 257.893 278.76 258.581 278.472C259.285 278.184 260.053 278.04 260.885 278.04ZM260.549 288.6C261.653 288.6 262.557 288.232 263.261 287.496C263.981 286.76 264.341 285.792 264.341 284.592C264.341 283.392 263.981 282.424 263.261 281.688C262.557 280.952 261.653 280.584 260.549 280.584C259.829 280.584 259.181 280.752 258.605 281.088C258.029 281.408 257.573 281.872 257.237 282.48C256.901 283.088 256.733 283.792 256.733 284.592C256.733 285.392 256.901 286.096 257.237 286.704C257.573 287.312 258.029 287.784 258.605 288.12C259.181 288.44 259.829 288.6 260.549 288.6ZM278.298 291.24C276.602 291.24 275.066 290.872 273.69 290.136C272.33 289.384 271.258 288.352 270.474 287.04C269.706 285.728 269.322 284.248 269.322 282.6C269.322 280.952 269.714 279.472 270.498 278.16C271.282 276.848 272.354 275.824 273.714 275.088C275.09 274.336 276.626 273.96 278.322 273.96C279.698 273.96 280.954 274.2 282.09 274.68C283.226 275.16 284.186 275.856 284.97 276.768L282.954 278.664C281.738 277.352 280.242 276.696 278.466 276.696C277.314 276.696 276.282 276.952 275.37 277.464C274.458 277.96 273.746 278.656 273.234 279.552C272.722 280.448 272.466 281.464 272.466 282.6C272.466 283.736 272.722 284.752 273.234 285.648C273.746 286.544 274.458 287.248 275.37 287.76C276.282 288.256 277.314 288.504 278.466 288.504C280.242 288.504 281.738 287.84 282.954 286.512L284.97 288.432C284.186 289.344 283.218 290.04 282.066 290.52C280.93 291 279.674 291.24 278.298 291.24ZM293.082 291.168C291.754 291.168 290.562 290.888 289.506 290.328C288.45 289.768 287.626 288.992 287.034 288C286.442 286.992 286.146 285.856 286.146 284.592C286.146 283.328 286.442 282.2 287.034 281.208C287.626 280.216 288.442 279.44 289.482 278.88C290.538 278.32 291.738 278.04 293.082 278.04C294.346 278.04 295.45 278.296 296.394 278.808C297.354 279.32 298.074 280.056 298.554 281.016L296.25 282.36C295.882 281.768 295.418 281.328 294.858 281.04C294.314 280.736 293.714 280.584 293.058 280.584C291.938 280.584 291.01 280.952 290.274 281.688C289.538 282.408 289.17 283.376 289.17 284.592C289.17 285.808 289.53 286.784 290.25 287.52C290.986 288.24 291.922 288.6 293.058 288.6C293.714 288.6 294.314 288.456 294.858 288.168C295.418 287.864 295.882 287.416 296.25 286.824L298.554 288.168C298.058 289.128 297.33 289.872 296.37 290.4C295.426 290.912 294.33 291.168 293.082 291.168ZM327.142 291.24C325.798 291.24 324.598 290.904 323.542 290.232C322.486 289.544 321.654 288.552 321.046 287.256C320.438 285.944 320.134 284.392 320.134 282.6C320.134 280.808 320.438 279.264 321.046 277.968C321.654 276.656 322.486 275.664 323.542 274.992C324.598 274.304 325.798 273.96 327.142 273.96C328.486 273.96 329.686 274.304 330.742 274.992C331.814 275.664 332.654 276.656 333.262 277.968C333.87 279.264 334.174 280.808 334.174 282.6C334.174 284.392 333.87 285.944 333.262 287.256C332.654 288.552 331.814 289.544 330.742 290.232C329.686 290.904 328.486 291.24 327.142 291.24ZM327.142 288.528C328.342 288.528 329.286 288.032 329.974 287.04C330.678 286.048 331.03 284.568 331.03 282.6C331.03 280.632 330.678 279.152 329.974 278.16C329.286 277.168 328.342 276.672 327.142 276.672C325.958 276.672 325.014 277.168 324.31 278.16C323.622 279.152 323.278 280.632 323.278 282.6C323.278 284.568 323.622 286.048 324.31 287.04C325.014 288.032 325.958 288.528 327.142 288.528ZM341.973 274.2V291H338.853V276.816H335.301V274.2H341.973ZM357.474 288.36V291H345.09V288.912L351.762 282.576C352.514 281.856 353.018 281.232 353.274 280.704C353.546 280.16 353.682 279.624 353.682 279.096C353.682 278.312 353.418 277.712 352.89 277.296C352.362 276.88 351.586 276.672 350.562 276.672C348.85 276.672 347.538 277.256 346.626 278.424L344.442 276.744C345.098 275.864 345.978 275.184 347.082 274.704C348.202 274.208 349.45 273.96 350.826 273.96C352.65 273.96 354.106 274.392 355.194 275.256C356.282 276.12 356.826 277.296 356.826 278.784C356.826 279.696 356.634 280.552 356.25 281.352C355.866 282.152 355.13 283.064 354.042 284.088L349.554 288.36H357.474ZM366.427 281.136C367.979 281.328 369.163 281.856 369.979 282.72C370.795 283.584 371.203 284.664 371.203 285.96C371.203 286.936 370.955 287.824 370.459 288.624C369.963 289.424 369.211 290.064 368.203 290.544C367.211 291.008 365.995 291.24 364.555 291.24C363.355 291.24 362.195 291.072 361.075 290.736C359.971 290.384 359.027 289.904 358.243 289.296L359.587 286.872C360.195 287.384 360.931 287.792 361.795 288.096C362.675 288.384 363.579 288.528 364.507 288.528C365.611 288.528 366.475 288.304 367.099 287.856C367.739 287.392 368.059 286.768 368.059 285.984C368.059 285.2 367.755 284.592 367.147 284.16C366.555 283.712 365.643 283.488 364.411 283.488H362.875V281.352L366.691 276.816H359.059V274.2H370.507V276.288L366.427 281.136Z" fill="black"/>
<path d="M55.328 345.264C56.288 345.568 57.04 346.08 57.584 346.8C58.128 347.504 58.4 348.376 58.4 349.416C58.4 350.888 57.824 352.024 56.672 352.824C55.536 353.608 53.872 354 51.68 354H42.992V337.2H51.2C53.248 337.2 54.816 337.592 55.904 338.376C57.008 339.16 57.56 340.224 57.56 341.568C57.56 342.384 57.36 343.112 56.96 343.752C56.576 344.392 56.032 344.896 55.328 345.264ZM46.856 340.128V344.088H50.72C51.68 344.088 52.408 343.92 52.904 343.584C53.4 343.248 53.648 342.752 53.648 342.096C53.648 341.44 53.4 340.952 52.904 340.632C52.408 340.296 51.68 340.128 50.72 340.128H46.856ZM51.392 351.072C52.416 351.072 53.184 350.904 53.696 350.568C54.224 350.232 54.488 349.712 54.488 349.008C54.488 347.616 53.456 346.92 51.392 346.92H46.856V351.072H51.392ZM67.2236 354.192C65.8636 354.192 64.6396 353.912 63.5516 353.352C62.4796 352.776 61.6396 351.984 61.0316 350.976C60.4236 349.968 60.1196 348.824 60.1196 347.544C60.1196 346.264 60.4236 345.12 61.0316 344.112C61.6396 343.104 62.4796 342.32 63.5516 341.76C64.6396 341.184 65.8636 340.896 67.2236 340.896C68.5836 340.896 69.7996 341.184 70.8716 341.76C71.9436 342.32 72.7836 343.104 73.3916 344.112C73.9996 345.12 74.3036 346.264 74.3036 347.544C74.3036 348.824 73.9996 349.968 73.3916 350.976C72.7836 351.984 71.9436 352.776 70.8716 353.352C69.7996 353.912 68.5836 354.192 67.2236 354.192ZM67.2236 351.12C68.1836 351.12 68.9676 350.8 69.5756 350.16C70.1996 349.504 70.5116 348.632 70.5116 347.544C70.5116 346.456 70.1996 345.592 69.5756 344.952C68.9676 344.296 68.1836 343.968 67.2236 343.968C66.2636 343.968 65.4716 344.296 64.8476 344.952C64.2236 345.592 63.9116 346.456 63.9116 347.544C63.9116 348.632 64.2236 349.504 64.8476 350.16C65.4716 350.8 66.2636 351.12 67.2236 351.12ZM76.8061 336.192H80.5501V354H76.8061V336.192ZM97.1769 336.192V354H93.6009V352.512C92.6729 353.632 91.3289 354.192 89.5689 354.192C88.3529 354.192 87.2489 353.92 86.2569 353.376C85.2809 352.832 84.5129 352.056 83.9529 351.048C83.3929 350.04 83.1129 348.872 83.1129 347.544C83.1129 346.216 83.3929 345.048 83.9529 344.04C84.5129 343.032 85.2809 342.256 86.2569 341.712C87.2489 341.168 88.3529 340.896 89.5689 340.896C91.2169 340.896 92.5049 341.416 93.4329 342.456V336.192H97.1769ZM90.2169 351.12C91.1609 351.12 91.9449 350.8 92.5689 350.16C93.1929 349.504 93.5049 348.632 93.5049 347.544C93.5049 346.456 93.1929 345.592 92.5689 344.952C91.9449 344.296 91.1609 343.968 90.2169 343.968C89.2569 343.968 88.4649 344.296 87.8409 344.952C87.2169 345.592 86.9049 346.456 86.9049 347.544C86.9049 348.632 87.2169 349.504 87.8409 350.16C88.4649 350.8 89.2569 351.12 90.2169 351.12Z" fill="black"/>
<path d="M214.056 350.4H206.256L204.768 354H200.784L208.272 337.2H212.112L219.624 354H215.544L214.056 350.4ZM212.832 347.448L210.168 341.016L207.504 347.448H212.832ZM226.311 340.896C228.311 340.896 229.847 341.376 230.919 342.336C231.991 343.28 232.527 344.712 232.527 346.632V354H229.023V352.392C228.319 353.592 227.007 354.192 225.087 354.192C224.095 354.192 223.231 354.024 222.495 353.688C221.775 353.352 221.223 352.888 220.839 352.296C220.455 351.704 220.263 351.032 220.263 350.28C220.263 349.08 220.711 348.136 221.607 347.448C222.519 346.76 223.919 346.416 225.807 346.416H228.783C228.783 345.6 228.535 344.976 228.039 344.544C227.543 344.096 226.799 343.872 225.807 343.872C225.119 343.872 224.439 343.984 223.767 344.208C223.111 344.416 222.551 344.704 222.087 345.072L220.743 342.456C221.447 341.96 222.287 341.576 223.263 341.304C224.255 341.032 225.271 340.896 226.311 340.896ZM226.023 351.672C226.663 351.672 227.231 351.528 227.727 351.24C228.223 350.936 228.575 350.496 228.783 349.92V348.6H226.215C224.679 348.6 223.911 349.104 223.911 350.112C223.911 350.592 224.095 350.976 224.463 351.264C224.847 351.536 225.367 351.672 226.023 351.672ZM248.516 345.264C249.476 345.568 250.228 346.08 250.772 346.8C251.316 347.504 251.588 348.376 251.588 349.416C251.588 350.888 251.012 352.024 249.86 352.824C248.724 353.608 247.06 354 244.868 354H236.18V337.2H244.388C246.436 337.2 248.004 337.592 249.092 338.376C250.196 339.16 250.748 340.224 250.748 341.568C250.748 342.384 250.548 343.112 250.148 343.752C249.764 344.392 249.22 344.896 248.516 345.264ZM240.044 340.128V344.088H243.908C244.868 344.088 245.596 343.92 246.092 343.584C246.588 343.248 246.836 342.752 246.836 342.096C246.836 341.44 246.588 340.952 246.092 340.632C245.596 340.296 244.868 340.128 243.908 340.128H240.044ZM244.58 351.072C245.604 351.072 246.372 350.904 246.884 350.568C247.412 350.232 247.676 349.712 247.676 349.008C247.676 347.616 246.644 346.92 244.58 346.92H240.044V351.072H244.58ZM261.899 340.896C263.099 340.896 264.187 341.176 265.163 341.736C266.155 342.28 266.931 343.056 267.491 344.064C268.051 345.056 268.331 346.216 268.331 347.544C268.331 348.872 268.051 350.04 267.491 351.048C266.931 352.04 266.155 352.816 265.163 353.376C264.187 353.92 263.099 354.192 261.899 354.192C260.123 354.192 258.771 353.632 257.843 352.512V354H254.267V336.192H258.011V342.456C258.955 341.416 260.251 340.896 261.899 340.896ZM261.251 351.12C262.211 351.12 262.995 350.8 263.603 350.16C264.227 349.504 264.539 348.632 264.539 347.544C264.539 346.456 264.227 345.592 263.603 344.952C262.995 344.296 262.211 343.968 261.251 343.968C260.291 343.968 259.499 344.296 258.875 344.952C258.267 345.592 257.963 346.456 257.963 347.544C257.963 348.632 258.267 349.504 258.875 350.16C259.499 350.8 260.291 351.12 261.251 351.12ZM279.141 354.288C277.429 354.288 275.877 353.92 274.485 353.184C273.109 352.432 272.021 351.4 271.221 350.088C270.437 348.76 270.045 347.264 270.045 345.6C270.045 343.936 270.437 342.448 271.221 341.136C272.021 339.808 273.109 338.776 274.485 338.04C275.877 337.288 277.437 336.912 279.165 336.912C280.621 336.912 281.933 337.168 283.101 337.68C284.285 338.192 285.277 338.928 286.077 339.888L283.581 342.192C282.445 340.88 281.037 340.224 279.357 340.224C278.317 340.224 277.389 340.456 276.573 340.92C275.757 341.368 275.117 342 274.653 342.816C274.205 343.632 273.981 344.56 273.981 345.6C273.981 346.64 274.205 347.568 274.653 348.384C275.117 349.2 275.757 349.84 276.573 350.304C277.389 350.752 278.317 350.976 279.357 350.976C281.037 350.976 282.445 350.312 283.581 348.984L286.077 351.288C285.277 352.264 284.285 353.008 283.101 353.52C281.917 354.032 280.597 354.288 279.141 354.288ZM294.234 354.192C292.858 354.192 291.618 353.912 290.514 353.352C289.426 352.776 288.57 351.984 287.946 350.976C287.338 349.968 287.034 348.824 287.034 347.544C287.034 346.264 287.338 345.12 287.946 344.112C288.57 343.104 289.426 342.32 290.514 341.76C291.618 341.184 292.858 340.896 294.234 340.896C295.594 340.896 296.778 341.184 297.786 341.76C298.81 342.32 299.554 343.128 300.018 344.184L297.114 345.744C296.442 344.56 295.474 343.968 294.21 343.968C293.234 343.968 292.426 344.288 291.786 344.928C291.146 345.568 290.826 346.44 290.826 347.544C290.826 348.648 291.146 349.52 291.786 350.16C292.426 350.8 293.234 351.12 294.21 351.12C295.49 351.12 296.458 350.528 297.114 349.344L300.018 350.928C299.554 351.952 298.81 352.752 297.786 353.328C296.778 353.904 295.594 354.192 294.234 354.192ZM328.972 354.288C327.58 354.288 326.34 353.944 325.252 353.256C324.164 352.568 323.308 351.576 322.684 350.28C322.076 348.968 321.772 347.408 321.772 345.6C321.772 343.792 322.076 342.24 322.684 340.944C323.308 339.632 324.164 338.632 325.252 337.944C326.34 337.256 327.58 336.912 328.972 336.912C330.364 336.912 331.604 337.256 332.692 337.944C333.78 338.632 334.628 339.632 335.236 340.944C335.86 342.24 336.172 343.792 336.172 345.6C336.172 347.408 335.86 348.968 335.236 350.28C334.628 351.576 333.78 352.568 332.692 353.256C331.604 353.944 330.364 354.288 328.972 354.288ZM328.972 351C329.996 351 330.796 350.56 331.372 349.68C331.964 348.8 332.26 347.44 332.26 345.6C332.26 343.76 331.964 342.4 331.372 341.52C330.796 340.64 329.996 340.2 328.972 340.2C327.964 340.2 327.164 340.64 326.572 341.52C325.996 342.4 325.708 343.76 325.708 345.6C325.708 347.44 325.996 348.8 326.572 349.68C327.164 350.56 327.964 351 328.972 351ZM344.4 337.2V354H340.512V340.32H337.152V337.2H344.4ZM359.871 350.832V354H347.175V351.48L353.655 345.36C354.343 344.704 354.807 344.144 355.047 343.68C355.287 343.2 355.407 342.728 355.407 342.264C355.407 341.592 355.175 341.08 354.711 340.728C354.263 340.36 353.599 340.176 352.719 340.176C351.983 340.176 351.319 340.32 350.727 340.608C350.135 340.88 349.639 341.296 349.239 341.856L346.407 340.032C347.063 339.056 347.967 338.296 349.119 337.752C350.271 337.192 351.591 336.912 353.079 336.912C354.327 336.912 355.415 337.12 356.343 337.536C357.287 337.936 358.015 338.512 358.527 339.264C359.055 340 359.319 340.872 359.319 341.88C359.319 342.792 359.127 343.648 358.743 344.448C358.359 345.248 357.615 346.16 356.511 347.184L352.647 350.832H359.871ZM369.323 344.04C370.795 344.28 371.923 344.832 372.707 345.696C373.491 346.544 373.883 347.6 373.883 348.864C373.883 349.84 373.627 350.744 373.115 351.576C372.603 352.392 371.819 353.048 370.763 353.544C369.723 354.04 368.443 354.288 366.923 354.288C365.739 354.288 364.571 354.136 363.419 353.832C362.283 353.512 361.315 353.064 360.515 352.488L362.027 349.512C362.667 349.992 363.403 350.368 364.235 350.64C365.083 350.896 365.947 351.024 366.827 351.024C367.803 351.024 368.571 350.84 369.131 350.472C369.691 350.088 369.971 349.552 369.971 348.864C369.971 347.488 368.923 346.8 366.827 346.8H365.051V344.232L368.507 340.32H361.355V337.2H373.115V339.72L369.323 344.04Z" fill="black"/>
<path d="M56.168 413.328V417H42.68V400.2H55.856V403.872H47.384V406.704H54.848V410.256H47.384V413.328H56.168ZM66.7747 417L64.4467 413.592L61.9507 417H57.0067L61.9507 410.496L57.1507 403.992H62.2867L64.5907 407.28L66.9907 403.992H71.8147L67.0147 410.328L71.9827 417H66.7747ZM82.3541 416.472C81.9701 416.712 81.4981 416.896 80.9381 417.024C80.3941 417.152 79.8101 417.216 79.1861 417.216C77.4901 417.216 76.1861 416.8 75.2741 415.968C74.3621 415.136 73.9061 413.896 73.9061 412.248V407.88H72.0101V404.472H73.9061V401.088H78.4661V404.472H81.4421V407.88H78.4661V412.2C78.4661 412.664 78.5861 413.032 78.8261 413.304C79.0821 413.56 79.4181 413.688 79.8341 413.688C80.3621 413.688 80.8261 413.552 81.2261 413.28L82.3541 416.472ZM88.4564 405.552C88.9204 404.96 89.5204 404.52 90.2564 404.232C91.0084 403.928 91.8644 403.776 92.8244 403.776V407.88C92.4084 407.832 92.0644 407.808 91.7924 407.808C90.8164 407.808 90.0484 408.072 89.4884 408.6C88.9444 409.128 88.6724 409.936 88.6724 411.024V417H84.1124V403.992H88.4564V405.552ZM100.156 403.776C102.316 403.776 103.964 404.272 105.1 405.264C106.236 406.24 106.804 407.744 106.804 409.776V417H102.556V415.32C101.9 416.584 100.62 417.216 98.7164 417.216C97.7084 417.216 96.8364 417.04 96.1004 416.688C95.3644 416.336 94.8044 415.864 94.4204 415.272C94.0524 414.664 93.8684 413.976 93.8684 413.208C93.8684 411.976 94.3404 411.024 95.2844 410.352C96.2284 409.664 97.6844 409.32 99.6524 409.32H102.244C102.164 407.944 101.244 407.256 99.4844 407.256C98.8604 407.256 98.2284 407.36 97.5884 407.568C96.9484 407.76 96.4044 408.032 95.9564 408.384L94.4204 405.288C95.1404 404.808 96.0124 404.44 97.0364 404.184C98.0764 403.912 99.1164 403.776 100.156 403.776ZM99.9884 414.336C100.516 414.336 100.98 414.208 101.38 413.952C101.78 413.696 102.068 413.32 102.244 412.824V411.696H100.276C98.9484 411.696 98.2844 412.136 98.2844 413.016C98.2844 413.416 98.4364 413.736 98.7404 413.976C99.0444 414.216 99.4604 414.336 99.9884 414.336ZM129.795 408.24C130.755 408.576 131.507 409.104 132.051 409.824C132.595 410.528 132.867 411.384 132.867 412.392C132.867 413.864 132.275 415 131.091 415.8C129.907 416.6 128.195 417 125.955 417H116.883V400.2H125.475C127.619 400.2 129.251 400.6 130.371 401.4C131.491 402.184 132.051 403.248 132.051 404.592C132.051 405.392 131.851 406.112 131.451 406.752C131.067 407.376 130.515 407.872 129.795 408.24ZM121.587 403.632V406.872H124.851C126.451 406.872 127.251 406.328 127.251 405.24C127.251 404.168 126.451 403.632 124.851 403.632H121.587ZM125.571 413.568C127.235 413.568 128.067 413 128.067 411.864C128.067 410.728 127.235 410.16 125.571 410.16H121.587V413.568H125.571ZM141.64 417.216C140.248 417.216 138.992 416.928 137.872 416.352C136.752 415.776 135.872 414.976 135.232 413.952C134.608 412.928 134.296 411.768 134.296 410.472C134.296 409.192 134.608 408.04 135.232 407.016C135.872 405.992 136.744 405.2 137.848 404.64C138.968 404.064 140.232 403.776 141.64 403.776C143.048 403.776 144.312 404.064 145.432 404.64C146.552 405.2 147.424 405.992 148.048 407.016C148.672 408.024 148.984 409.176 148.984 410.472C148.984 411.768 148.672 412.928 148.048 413.952C147.424 414.976 146.552 415.776 145.432 416.352C144.312 416.928 143.048 417.216 141.64 417.216ZM141.64 413.592C142.44 413.592 143.096 413.32 143.608 412.776C144.12 412.216 144.376 411.448 144.376 410.472C144.376 409.512 144.12 408.76 143.608 408.216C143.096 407.672 142.44 407.4 141.64 407.4C140.84 407.4 140.184 407.672 139.672 408.216C139.16 408.76 138.904 409.512 138.904 410.472C138.904 411.448 139.16 412.216 139.672 412.776C140.184 413.32 140.84 413.592 141.64 413.592ZM151.097 399.192H155.657V417H151.097V399.192ZM172.444 399.192V417H168.1V415.704C167.252 416.712 165.98 417.216 164.284 417.216C163.1 417.216 162.02 416.944 161.044 416.4C160.068 415.84 159.292 415.048 158.716 414.024C158.156 413 157.876 411.816 157.876 410.472C157.876 409.128 158.156 407.952 158.716 406.944C159.292 405.92 160.068 405.136 161.044 404.592C162.02 404.048 163.1 403.776 164.284 403.776C165.836 403.776 167.036 404.224 167.884 405.12V399.192H172.444ZM165.244 413.592C166.028 413.592 166.676 413.32 167.188 412.776C167.7 412.216 167.956 411.448 167.956 410.472C167.956 409.512 167.7 408.76 167.188 408.216C166.692 407.672 166.044 407.4 165.244 407.4C164.444 407.4 163.788 407.672 163.276 408.216C162.764 408.76 162.508 409.512 162.508 410.472C162.508 411.448 162.764 412.216 163.276 412.776C163.788 413.32 164.444 413.592 165.244 413.592Z" fill="black"/>
<path d="M213.936 413.736H206.832L205.512 417H200.664L208.08 400.2H212.76L220.2 417H215.256L213.936 413.736ZM212.544 410.232L210.384 404.856L208.224 410.232H212.544ZM226.875 403.776C229.035 403.776 230.683 404.272 231.819 405.264C232.955 406.24 233.523 407.744 233.523 409.776V417H229.275V415.32C228.619 416.584 227.339 417.216 225.435 417.216C224.427 417.216 223.555 417.04 222.819 416.688C222.083 416.336 221.523 415.864 221.139 415.272C220.771 414.664 220.587 413.976 220.587 413.208C220.587 411.976 221.059 411.024 222.003 410.352C222.947 409.664 224.403 409.32 226.371 409.32H228.963C228.883 407.944 227.963 407.256 226.203 407.256C225.579 407.256 224.947 407.36 224.307 407.568C223.667 407.76 223.123 408.032 222.675 408.384L221.139 405.288C221.859 404.808 222.731 404.44 223.755 404.184C224.795 403.912 225.835 403.776 226.875 403.776ZM226.707 414.336C227.235 414.336 227.699 414.208 228.099 413.952C228.499 413.696 228.787 413.32 228.963 412.824V411.696H226.995C225.667 411.696 225.003 412.136 225.003 413.016C225.003 413.416 225.155 413.736 225.459 413.976C225.763 414.216 226.179 414.336 226.707 414.336ZM249.53 408.24C250.49 408.576 251.242 409.104 251.786 409.824C252.33 410.528 252.602 411.384 252.602 412.392C252.602 413.864 252.01 415 250.826 415.8C249.642 416.6 247.93 417 245.69 417H236.618V400.2H245.21C247.354 400.2 248.986 400.6 250.106 401.4C251.226 402.184 251.786 403.248 251.786 404.592C251.786 405.392 251.586 406.112 251.186 406.752C250.802 407.376 250.25 407.872 249.53 408.24ZM241.322 403.632V406.872H244.586C246.186 406.872 246.986 406.328 246.986 405.24C246.986 404.168 246.186 403.632 244.586 403.632H241.322ZM245.306 413.568C246.97 413.568 247.802 413 247.802 411.864C247.802 410.728 246.97 410.16 245.306 410.16H241.322V413.568H245.306ZM263.031 403.776C264.215 403.776 265.287 404.048 266.247 404.592C267.223 405.136 267.991 405.92 268.551 406.944C269.127 407.952 269.415 409.128 269.415 410.472C269.415 411.816 269.127 413 268.551 414.024C267.991 415.048 267.223 415.84 266.247 416.4C265.287 416.944 264.215 417.216 263.031 417.216C261.319 417.216 260.039 416.712 259.191 415.704V417H254.847V399.192H259.407V405.12C260.287 404.224 261.495 403.776 263.031 403.776ZM262.071 413.592C262.871 413.592 263.527 413.32 264.039 412.776C264.551 412.216 264.807 411.448 264.807 410.472C264.807 409.512 264.551 408.76 264.039 408.216C263.527 407.672 262.871 407.4 262.071 407.4C261.271 407.4 260.615 407.672 260.103 408.216C259.591 408.76 259.335 409.512 259.335 410.472C259.335 411.448 259.591 412.216 260.103 412.776C260.615 413.32 261.271 413.592 262.071 413.592ZM280.126 417.336C278.366 417.336 276.782 416.968 275.374 416.232C273.982 415.48 272.886 414.44 272.086 413.112C271.286 411.784 270.886 410.28 270.886 408.6C270.886 406.92 271.286 405.416 272.086 404.088C272.886 402.76 273.982 401.728 275.374 400.992C276.782 400.24 278.366 399.864 280.126 399.864C281.662 399.864 283.046 400.136 284.278 400.68C285.51 401.224 286.534 402.008 287.35 403.032L284.326 405.768C283.238 404.456 281.918 403.8 280.366 403.8C279.454 403.8 278.638 404 277.918 404.4C277.214 404.8 276.662 405.368 276.262 406.104C275.878 406.824 275.686 407.656 275.686 408.6C275.686 409.544 275.878 410.384 276.262 411.12C276.662 411.84 277.214 412.4 277.918 412.8C278.638 413.2 279.454 413.4 280.366 413.4C281.918 413.4 283.238 412.744 284.326 411.432L287.35 414.168C286.534 415.192 285.51 415.976 284.278 416.52C283.046 417.064 281.662 417.336 280.126 417.336ZM295.503 417.216C294.063 417.216 292.775 416.928 291.639 416.352C290.503 415.776 289.615 414.976 288.975 413.952C288.351 412.928 288.039 411.768 288.039 410.472C288.039 409.176 288.351 408.024 288.975 407.016C289.615 405.992 290.503 405.2 291.639 404.64C292.775 404.064 294.063 403.776 295.503 403.776C296.975 403.776 298.247 404.096 299.319 404.736C300.391 405.36 301.151 406.232 301.599 407.352L298.071 409.152C297.479 407.984 296.615 407.4 295.479 407.4C294.663 407.4 293.983 407.672 293.439 408.216C292.911 408.76 292.647 409.512 292.647 410.472C292.647 411.448 292.911 412.216 293.439 412.776C293.983 413.32 294.663 413.592 295.479 413.592C296.615 413.592 297.479 413.008 298.071 411.84L301.599 413.64C301.151 414.76 300.391 415.64 299.319 416.28C298.247 416.904 296.975 417.216 295.503 417.216ZM331.037 417.336C329.597 417.336 328.317 416.992 327.197 416.304C326.077 415.616 325.197 414.616 324.557 413.304C323.933 411.976 323.621 410.408 323.621 408.6C323.621 406.792 323.933 405.232 324.557 403.92C325.197 402.592 326.077 401.584 327.197 400.896C328.317 400.208 329.597 399.864 331.037 399.864C332.461 399.864 333.733 400.208 334.853 400.896C335.973 401.584 336.845 402.592 337.469 403.92C338.109 405.232 338.429 406.792 338.429 408.6C338.429 410.408 338.109 411.976 337.469 413.304C336.845 414.616 335.973 415.616 334.853 416.304C333.733 416.992 332.461 417.336 331.037 417.336ZM331.037 413.448C331.837 413.448 332.469 413.064 332.933 412.296C333.413 411.512 333.653 410.28 333.653 408.6C333.653 406.92 333.413 405.696 332.933 404.928C332.469 404.144 331.837 403.752 331.037 403.752C330.221 403.752 329.573 404.144 329.093 404.928C328.629 405.696 328.397 406.92 328.397 408.6C328.397 410.28 328.629 411.512 329.093 412.296C329.573 413.064 330.221 413.448 331.037 413.448ZM347.063 400.2V417H342.311V403.872H339.191V400.2H347.063ZM362.573 413.232V417H349.493V414.024L355.781 408.144C356.389 407.568 356.797 407.08 357.005 406.68C357.213 406.264 357.317 405.848 357.317 405.432C357.317 404.888 357.133 404.464 356.765 404.16C356.397 403.856 355.861 403.704 355.157 403.704C354.533 403.704 353.957 403.848 353.429 404.136C352.917 404.408 352.493 404.808 352.157 405.336L348.629 403.368C349.285 402.28 350.205 401.424 351.389 400.8C352.573 400.176 353.973 399.864 355.589 399.864C356.869 399.864 357.997 400.072 358.973 400.488C359.965 400.904 360.733 401.504 361.277 402.288C361.837 403.056 362.117 403.952 362.117 404.976C362.117 405.888 361.917 406.752 361.517 407.568C361.133 408.368 360.381 409.28 359.261 410.304L356.093 413.232H362.573ZM372.573 406.92C373.965 407.208 375.029 407.784 375.765 408.648C376.517 409.496 376.893 410.528 376.893 411.744C376.893 412.736 376.621 413.656 376.077 414.504C375.549 415.352 374.733 416.04 373.629 416.568C372.541 417.08 371.189 417.336 369.573 417.336C368.389 417.336 367.213 417.192 366.045 416.904C364.893 416.616 363.893 416.208 363.045 415.68L364.773 412.104C365.429 412.552 366.165 412.896 366.981 413.136C367.813 413.376 368.629 413.496 369.429 413.496C370.245 413.496 370.893 413.344 371.373 413.04C371.853 412.736 372.093 412.304 372.093 411.744C372.093 410.656 371.237 410.112 369.525 410.112H367.533V407.112L370.533 403.872H363.909V400.2H376.053V403.176L372.573 406.92Z" fill="black"/>
</svg>
