<svg width="445" height="496" viewBox="0 0 445 496" fill="none" xmlns="http://www.w3.org/2000/svg">
<rect width="445" height="496" fill="#F3F3F3"/>
<path d="M144.407 115L144.367 91.04L132.647 111.28H131.647L119.927 91.12V115H117.927V87H119.647L132.167 108.64L144.687 87H146.367L146.407 115H144.407ZM163.689 115.16C161.716 115.16 159.929 114.707 158.329 113.8C156.756 112.893 155.516 111.64 154.609 110.04C153.702 108.413 153.249 106.587 153.249 104.56C153.249 102.533 153.702 100.72 154.609 99.12C155.516 97.4933 156.756 96.2267 158.329 95.32C159.929 94.4133 161.716 93.96 163.689 93.96C165.662 93.96 167.436 94.4133 169.009 95.32C170.609 96.2267 171.862 97.4933 172.769 99.12C173.676 100.72 174.129 102.533 174.129 104.56C174.129 106.587 173.676 108.413 172.769 110.04C171.862 111.64 170.609 112.893 169.009 113.8C167.436 114.707 165.662 115.16 163.689 115.16ZM163.689 113.36C165.289 113.36 166.716 112.987 167.969 112.24C169.249 111.493 170.249 110.453 170.969 109.12C171.716 107.787 172.089 106.267 172.089 104.56C172.089 102.853 171.716 101.333 170.969 100C170.249 98.6667 169.249 97.6267 167.969 96.88C166.716 96.1333 165.289 95.76 163.689 95.76C162.089 95.76 160.649 96.1333 159.369 96.88C158.116 97.6267 157.116 98.6667 156.369 100C155.649 101.333 155.289 102.853 155.289 104.56C155.289 106.267 155.649 107.787 156.369 109.12C157.116 110.453 158.116 111.493 159.369 112.24C160.649 112.987 162.089 113.36 163.689 113.36ZM190.534 93.96C193.147 93.96 195.214 94.72 196.734 96.24C198.254 97.76 199.014 99.9467 199.014 102.8V115H197.014V102.96C197.014 100.613 196.414 98.8267 195.214 97.6C194.04 96.3733 192.387 95.76 190.254 95.76C187.8 95.76 185.867 96.4933 184.454 97.96C183.04 99.4267 182.334 101.4 182.334 103.88V115H180.334V94.12H182.254V98.64C182.974 97.1733 184.04 96.0267 185.454 95.2C186.894 94.3733 188.587 93.96 190.534 93.96ZM217.608 113.68C217.101 114.16 216.461 114.533 215.688 114.8C214.941 115.04 214.154 115.16 213.328 115.16C211.514 115.16 210.114 114.667 209.128 113.68C208.141 112.667 207.648 111.267 207.648 109.48V95.84H203.808V94.12H207.648V89.56H209.648V94.12H216.288V95.84H209.648V109.28C209.648 110.64 209.968 111.68 210.608 112.4C211.274 113.093 212.248 113.44 213.528 113.44C214.834 113.44 215.914 113.053 216.768 112.28L217.608 113.68ZM228.465 115.16C226.785 115.16 225.185 114.907 223.665 114.4C222.145 113.893 220.959 113.253 220.105 112.48L221.025 110.88C221.879 111.6 222.972 112.2 224.305 112.68C225.665 113.16 227.079 113.4 228.545 113.4C230.652 113.4 232.199 113.053 233.185 112.36C234.199 111.667 234.705 110.707 234.705 109.48C234.705 108.6 234.425 107.907 233.865 107.4C233.332 106.893 232.665 106.52 231.865 106.28C231.065 106.04 229.959 105.787 228.545 105.52C226.892 105.227 225.559 104.907 224.545 104.56C223.532 104.213 222.665 103.653 221.945 102.88C221.225 102.107 220.865 101.04 220.865 99.68C220.865 98.0267 221.545 96.6667 222.905 95.6C224.292 94.5067 226.252 93.96 228.785 93.96C230.119 93.96 231.439 94.1467 232.745 94.52C234.052 94.8933 235.119 95.3867 235.945 96L235.025 97.6C234.172 96.9867 233.199 96.52 232.105 96.2C231.012 95.88 229.892 95.72 228.745 95.72C226.799 95.72 225.332 96.08 224.345 96.8C223.359 97.52 222.865 98.4667 222.865 99.64C222.865 100.573 223.145 101.307 223.705 101.84C224.265 102.347 224.945 102.733 225.745 103C226.572 103.24 227.719 103.507 229.185 103.8C230.812 104.093 232.119 104.413 233.105 104.76C234.119 105.08 234.972 105.613 235.665 106.36C236.359 107.107 236.705 108.133 236.705 109.44C236.705 111.173 235.985 112.56 234.545 113.6C233.105 114.64 231.079 115.16 228.465 115.16ZM259.927 105.04H241.967C242.02 106.667 242.434 108.12 243.207 109.4C243.98 110.653 245.02 111.627 246.327 112.32C247.66 113.013 249.154 113.36 250.807 113.36C252.167 113.36 253.42 113.12 254.567 112.64C255.74 112.133 256.714 111.4 257.487 110.44L258.647 111.76C257.74 112.853 256.594 113.693 255.207 114.28C253.847 114.867 252.367 115.16 250.767 115.16C248.687 115.16 246.834 114.707 245.207 113.8C243.58 112.893 242.3 111.64 241.367 110.04C240.46 108.44 240.007 106.613 240.007 104.56C240.007 102.533 240.434 100.72 241.287 99.12C242.167 97.4933 243.367 96.2267 244.887 95.32C246.407 94.4133 248.114 93.96 250.007 93.96C251.9 93.96 253.594 94.4133 255.087 95.32C256.607 96.2 257.794 97.44 258.647 99.04C259.527 100.64 259.967 102.453 259.967 104.48L259.927 105.04ZM250.007 95.72C248.54 95.72 247.22 96.0533 246.047 96.72C244.874 97.36 243.927 98.28 243.207 99.48C242.514 100.653 242.114 101.987 242.007 103.48H258.007C257.927 101.987 257.527 100.653 256.807 99.48C256.087 98.3067 255.14 97.3867 253.967 96.72C252.794 96.0533 251.474 95.72 250.007 95.72ZM268.074 98.68C268.714 97.16 269.714 96 271.074 95.2C272.434 94.3733 274.087 93.96 276.034 93.96V95.92L275.554 95.88C273.234 95.88 271.421 96.6133 270.114 98.08C268.807 99.52 268.154 101.533 268.154 104.12V115H266.154V94.12H268.074V98.68ZM283.465 98.68C284.105 97.16 285.105 96 286.465 95.2C287.825 94.3733 289.478 93.96 291.425 93.96V95.92L290.945 95.88C288.625 95.88 286.811 96.6133 285.505 98.08C284.198 99.52 283.545 101.533 283.545 104.12V115H281.545V94.12H283.465V98.68ZM303.975 93.96C306.562 93.96 308.549 94.6267 309.935 95.96C311.322 97.2667 312.015 99.2 312.015 101.76V115H310.095V111.28C309.429 112.507 308.455 113.467 307.175 114.16C305.895 114.827 304.362 115.16 302.575 115.16C300.255 115.16 298.415 114.613 297.055 113.52C295.722 112.427 295.055 110.987 295.055 109.2C295.055 107.467 295.669 106.067 296.895 105C298.149 103.907 300.135 103.36 302.855 103.36H310.015V101.68C310.015 99.7333 309.482 98.2533 308.415 97.24C307.375 96.2267 305.842 95.72 303.815 95.72C302.429 95.72 301.095 95.96 299.815 96.44C298.562 96.92 297.495 97.56 296.615 98.36L295.615 96.92C296.655 95.9867 297.909 95.2667 299.375 94.76C300.842 94.2267 302.375 93.96 303.975 93.96ZM302.855 113.52C304.589 113.52 306.055 113.12 307.255 112.32C308.482 111.52 309.402 110.36 310.015 108.84V104.92H302.895C300.842 104.92 299.349 105.293 298.415 106.04C297.509 106.787 297.055 107.813 297.055 109.12C297.055 110.48 297.562 111.56 298.575 112.36C299.589 113.133 301.015 113.52 302.855 113.52ZM330.616 113.68C330.109 114.16 329.469 114.533 328.696 114.8C327.949 115.04 327.162 115.16 326.336 115.16C324.522 115.16 323.122 114.667 322.136 113.68C321.149 112.667 320.656 111.267 320.656 109.48V95.84H316.816V94.12H320.656V89.56H322.656V94.12H329.296V95.84H322.656V109.28C322.656 110.64 322.976 111.68 323.616 112.4C324.282 113.093 325.256 113.44 326.536 113.44C327.842 113.44 328.922 113.053 329.776 112.28L330.616 113.68Z" fill="black"/>
<path d="M145.339 146V174H142.499V151.6L131.499 170.44H130.099L119.099 151.72V174H116.259V146H118.699L130.859 166.76L142.899 146H145.339ZM162.462 174.2C160.436 174.2 158.609 173.747 156.982 172.84C155.356 171.907 154.076 170.627 153.142 169C152.209 167.373 151.742 165.533 151.742 163.48C151.742 161.427 152.209 159.587 153.142 157.96C154.076 156.333 155.356 155.067 156.982 154.16C158.609 153.253 160.436 152.8 162.462 152.8C164.489 152.8 166.316 153.253 167.942 154.16C169.569 155.067 170.836 156.333 171.742 157.96C172.676 159.587 173.142 161.427 173.142 163.48C173.142 165.533 172.676 167.373 171.742 169C170.836 170.627 169.569 171.907 167.942 172.84C166.316 173.747 164.489 174.2 162.462 174.2ZM162.462 171.68C163.956 171.68 165.289 171.347 166.462 170.68C167.662 169.987 168.596 169.013 169.262 167.76C169.929 166.507 170.262 165.08 170.262 163.48C170.262 161.88 169.929 160.453 169.262 159.2C168.596 157.947 167.662 156.987 166.462 156.32C165.289 155.627 163.956 155.28 162.462 155.28C160.969 155.28 159.622 155.627 158.422 156.32C157.249 156.987 156.316 157.947 155.622 159.2C154.956 160.453 154.622 161.88 154.622 163.48C154.622 165.08 154.956 166.507 155.622 167.76C156.316 169.013 157.249 169.987 158.422 170.68C159.622 171.347 160.969 171.68 162.462 171.68ZM189.66 152.8C192.3 152.8 194.394 153.573 195.94 155.12C197.514 156.64 198.3 158.867 198.3 161.8V174H195.46V162.08C195.46 159.893 194.914 158.227 193.82 157.08C192.727 155.933 191.167 155.36 189.14 155.36C186.874 155.36 185.074 156.04 183.74 157.4C182.434 158.733 181.78 160.587 181.78 162.96V174H178.94V152.96H181.66V156.84C182.434 155.56 183.5 154.573 184.86 153.88C186.247 153.16 187.847 152.8 189.66 152.8ZM217.091 172.72C216.557 173.2 215.891 173.573 215.091 173.84C214.317 174.08 213.504 174.2 212.651 174.2C210.677 174.2 209.157 173.667 208.091 172.6C207.024 171.533 206.491 170.027 206.491 168.08V155.36H202.731V152.96H206.491V148.36H209.331V152.96H215.731V155.36H209.331V167.92C209.331 169.173 209.637 170.133 210.251 170.8C210.891 171.44 211.797 171.76 212.971 171.76C213.557 171.76 214.117 171.667 214.651 171.48C215.211 171.293 215.691 171.027 216.091 170.68L217.091 172.72ZM227.901 174.2C226.194 174.2 224.554 173.96 222.981 173.48C221.434 172.973 220.221 172.347 219.341 171.6L220.621 169.36C221.501 170.053 222.607 170.627 223.941 171.08C225.274 171.507 226.661 171.72 228.101 171.72C230.021 171.72 231.434 171.427 232.341 170.84C233.274 170.227 233.741 169.373 233.741 168.28C233.741 167.507 233.487 166.907 232.981 166.48C232.474 166.027 231.834 165.693 231.061 165.48C230.287 165.24 229.261 165.013 227.981 164.8C226.274 164.48 224.901 164.16 223.861 163.84C222.821 163.493 221.927 162.92 221.181 162.12C220.461 161.32 220.101 160.213 220.101 158.8C220.101 157.04 220.834 155.6 222.301 154.48C223.767 153.36 225.807 152.8 228.421 152.8C229.781 152.8 231.141 152.987 232.501 153.36C233.861 153.707 234.981 154.173 235.861 154.76L234.621 157.04C232.887 155.84 230.821 155.24 228.421 155.24C226.607 155.24 225.234 155.56 224.301 156.2C223.394 156.84 222.941 157.68 222.941 158.72C222.941 159.52 223.194 160.16 223.701 160.64C224.234 161.12 224.887 161.48 225.661 161.72C226.434 161.933 227.501 162.16 228.861 162.4C230.541 162.72 231.887 163.04 232.901 163.36C233.914 163.68 234.781 164.227 235.501 165C236.221 165.773 236.581 166.84 236.581 168.2C236.581 170.04 235.807 171.507 234.261 172.6C232.741 173.667 230.621 174.2 227.901 174.2ZM260.151 164.36H242.551C242.711 166.547 243.551 168.32 245.071 169.68C246.591 171.013 248.511 171.68 250.831 171.68C252.138 171.68 253.338 171.453 254.431 171C255.524 170.52 256.471 169.827 257.271 168.92L258.871 170.76C257.938 171.88 256.764 172.733 255.351 173.32C253.964 173.907 252.431 174.2 250.751 174.2C248.591 174.2 246.671 173.747 244.991 172.84C243.338 171.907 242.044 170.627 241.111 169C240.178 167.373 239.711 165.533 239.711 163.48C239.711 161.427 240.151 159.587 241.031 157.96C241.938 156.333 243.164 155.067 244.711 154.16C246.284 153.253 248.044 152.8 249.991 152.8C251.938 152.8 253.684 153.253 255.231 154.16C256.778 155.067 257.991 156.333 258.871 157.96C259.751 159.56 260.191 161.4 260.191 163.48L260.151 164.36ZM249.991 155.24C247.964 155.24 246.258 155.893 244.871 157.2C243.511 158.48 242.738 160.16 242.551 162.24H257.471C257.284 160.16 256.498 158.48 255.111 157.2C253.751 155.893 252.044 155.24 249.991 155.24ZM268.692 157.08C269.358 155.667 270.345 154.6 271.652 153.88C272.985 153.16 274.625 152.8 276.572 152.8V155.56L275.892 155.52C273.678 155.52 271.945 156.2 270.692 157.56C269.438 158.92 268.812 160.827 268.812 163.28V174H265.972V152.96H268.692V157.08ZM284.434 157.08C285.101 155.667 286.087 154.6 287.394 153.88C288.727 153.16 290.367 152.8 292.314 152.8V155.56L291.634 155.52C289.421 155.52 287.687 156.2 286.434 157.56C285.181 158.92 284.554 160.827 284.554 163.28V174H281.714V152.96H284.434V157.08ZM304.777 152.8C307.524 152.8 309.63 153.493 311.097 154.88C312.564 156.24 313.297 158.267 313.297 160.96V174H310.577V170.72C309.937 171.813 308.99 172.667 307.737 173.28C306.51 173.893 305.044 174.2 303.337 174.2C300.99 174.2 299.124 173.64 297.737 172.52C296.35 171.4 295.657 169.92 295.657 168.08C295.657 166.293 296.297 164.853 297.577 163.76C298.884 162.667 300.95 162.12 303.777 162.12H310.457V160.84C310.457 159.027 309.95 157.653 308.937 156.72C307.924 155.76 306.444 155.28 304.497 155.28C303.164 155.28 301.884 155.507 300.657 155.96C299.43 156.387 298.377 156.987 297.497 157.76L296.217 155.64C297.284 154.733 298.564 154.04 300.057 153.56C301.55 153.053 303.124 152.8 304.777 152.8ZM303.777 171.96C305.377 171.96 306.75 171.6 307.897 170.88C309.044 170.133 309.897 169.067 310.457 167.68V164.24H303.857C300.257 164.24 298.457 165.493 298.457 168C298.457 169.227 298.924 170.2 299.857 170.92C300.79 171.613 302.097 171.96 303.777 171.96ZM332.091 172.72C331.557 173.2 330.891 173.573 330.091 173.84C329.317 174.08 328.504 174.2 327.651 174.2C325.677 174.2 324.157 173.667 323.091 172.6C322.024 171.533 321.491 170.027 321.491 168.08V155.36H317.731V152.96H321.491V148.36H324.331V152.96H330.731V155.36H324.331V167.92C324.331 169.173 324.637 170.133 325.251 170.8C325.891 171.44 326.797 171.76 327.971 171.76C328.557 171.76 329.117 171.667 329.651 171.48C330.211 171.293 330.691 171.027 331.091 170.68L332.091 172.72Z" fill="black"/>
<path d="M140.355 233L140.315 212.6L130.195 229.6H128.355L118.235 212.72V233H114.395V205H117.675L129.355 224.68L140.875 205H144.155L144.195 233H140.355ZM161.118 233.24C159.012 233.24 157.118 232.773 155.438 231.84C153.758 230.907 152.438 229.627 151.478 228C150.545 226.347 150.078 224.48 150.078 222.4C150.078 220.32 150.545 218.467 151.478 216.84C152.438 215.187 153.758 213.907 155.438 213C157.118 212.067 159.012 211.6 161.118 211.6C163.225 211.6 165.105 212.067 166.758 213C168.438 213.907 169.745 215.187 170.678 216.84C171.638 218.467 172.118 220.32 172.118 222.4C172.118 224.48 171.638 226.347 170.678 228C169.745 229.627 168.438 230.907 166.758 231.84C165.105 232.773 163.225 233.24 161.118 233.24ZM161.118 229.88C162.478 229.88 163.692 229.573 164.758 228.96C165.852 228.32 166.705 227.44 167.318 226.32C167.932 225.173 168.238 223.867 168.238 222.4C168.238 220.933 167.932 219.64 167.318 218.52C166.705 217.373 165.852 216.493 164.758 215.88C163.692 215.267 162.478 214.96 161.118 214.96C159.758 214.96 158.532 215.267 157.438 215.88C156.372 216.493 155.518 217.373 154.878 218.52C154.265 219.64 153.958 220.933 153.958 222.4C153.958 223.867 154.265 225.173 154.878 226.32C155.518 227.44 156.372 228.32 157.438 228.96C158.532 229.573 159.758 229.88 161.118 229.88ZM188.749 211.6C191.442 211.6 193.576 212.387 195.149 213.96C196.749 215.507 197.549 217.787 197.549 220.8V233H193.709V221.24C193.709 219.187 193.216 217.64 192.229 216.6C191.242 215.56 189.829 215.04 187.989 215.04C185.909 215.04 184.269 215.653 183.069 216.88C181.869 218.08 181.269 219.813 181.269 222.08V233H177.429V211.8H181.109V215C181.882 213.907 182.922 213.067 184.229 212.48C185.562 211.893 187.069 211.6 188.749 211.6ZM216.576 231.76C216.016 232.24 215.322 232.613 214.496 232.88C213.669 233.12 212.816 233.24 211.936 233.24C209.802 233.24 208.149 232.667 206.976 231.52C205.802 230.373 205.216 228.733 205.216 226.6V214.96H201.616V211.8H205.216V207.16H209.056V211.8H215.136V214.96H209.056V226.44C209.056 227.587 209.336 228.467 209.896 229.08C210.482 229.693 211.309 230 212.376 230C213.549 230 214.549 229.667 215.376 229L216.576 231.76ZM227.298 233.24C225.565 233.24 223.898 233.013 222.298 232.56C220.698 232.08 219.445 231.48 218.538 230.76L220.138 227.72C221.071 228.387 222.205 228.92 223.538 229.32C224.871 229.72 226.218 229.92 227.578 229.92C230.938 229.92 232.618 228.96 232.618 227.04C232.618 226.4 232.391 225.893 231.938 225.52C231.485 225.147 230.911 224.88 230.218 224.72C229.551 224.533 228.591 224.333 227.338 224.12C225.631 223.853 224.231 223.547 223.138 223.2C222.071 222.853 221.151 222.267 220.378 221.44C219.605 220.613 219.218 219.453 219.218 217.96C219.218 216.04 220.018 214.507 221.618 213.36C223.218 212.187 225.365 211.6 228.058 211.6C229.471 211.6 230.885 211.773 232.298 212.12C233.711 212.467 234.871 212.933 235.778 213.52L234.138 216.56C232.405 215.44 230.365 214.88 228.018 214.88C226.391 214.88 225.151 215.147 224.298 215.68C223.445 216.213 223.018 216.92 223.018 217.8C223.018 218.493 223.258 219.04 223.738 219.44C224.218 219.84 224.805 220.133 225.498 220.32C226.218 220.507 227.218 220.72 228.498 220.96C230.205 221.253 231.578 221.573 232.618 221.92C233.685 222.24 234.591 222.8 235.338 223.6C236.085 224.4 236.458 225.52 236.458 226.96C236.458 228.88 235.631 230.413 233.978 231.56C232.351 232.68 230.125 233.24 227.298 233.24ZM260.417 222.52C260.417 222.813 260.391 223.2 260.337 223.68H243.137C243.377 225.547 244.191 227.053 245.577 228.2C246.991 229.32 248.737 229.88 250.817 229.88C253.351 229.88 255.391 229.027 256.937 227.32L259.057 229.8C258.097 230.92 256.897 231.773 255.457 232.36C254.044 232.947 252.457 233.24 250.697 233.24C248.457 233.24 246.471 232.787 244.737 231.88C243.004 230.947 241.657 229.653 240.697 228C239.764 226.347 239.297 224.48 239.297 222.4C239.297 220.347 239.751 218.493 240.657 216.84C241.591 215.187 242.857 213.907 244.457 213C246.084 212.067 247.911 211.6 249.937 211.6C251.964 211.6 253.764 212.067 255.337 213C256.937 213.907 258.177 215.187 259.057 216.84C259.964 218.493 260.417 220.387 260.417 222.52ZM249.937 214.84C248.097 214.84 246.551 215.4 245.297 216.52C244.071 217.64 243.351 219.107 243.137 220.92H256.737C256.524 219.133 255.791 217.68 254.537 216.56C253.311 215.413 251.777 214.84 249.937 214.84ZM269.429 215.36C270.096 214.133 271.083 213.2 272.389 212.56C273.696 211.92 275.283 211.6 277.149 211.6V215.32C276.936 215.293 276.643 215.28 276.269 215.28C274.189 215.28 272.549 215.907 271.349 217.16C270.176 218.387 269.589 220.147 269.589 222.44V233H265.749V211.8H269.429V215.36ZM285.562 215.36C286.229 214.133 287.216 213.2 288.522 212.56C289.829 211.92 291.416 211.6 293.282 211.6V215.32C293.069 215.293 292.776 215.28 292.402 215.28C290.322 215.28 288.682 215.907 287.482 217.16C286.309 218.387 285.722 220.147 285.722 222.44V233H281.882V211.8H285.562V215.36ZM305.696 211.6C308.629 211.6 310.869 212.32 312.416 213.76C313.989 215.2 314.776 217.347 314.776 220.2V233H311.136V230.2C310.496 231.187 309.576 231.947 308.376 232.48C307.203 232.987 305.803 233.24 304.176 233.24C301.803 233.24 299.896 232.667 298.456 231.52C297.043 230.373 296.336 228.867 296.336 227C296.336 225.133 297.016 223.64 298.376 222.52C299.736 221.373 301.896 220.8 304.856 220.8H310.936V220.04C310.936 218.387 310.456 217.12 309.496 216.24C308.536 215.36 307.123 214.92 305.256 214.92C304.003 214.92 302.776 215.133 301.576 215.56C300.376 215.96 299.363 216.507 298.536 217.2L296.936 214.32C298.029 213.44 299.336 212.773 300.856 212.32C302.376 211.84 303.989 211.6 305.696 211.6ZM304.816 230.28C306.283 230.28 307.549 229.96 308.616 229.32C309.683 228.653 310.456 227.72 310.936 226.52V223.56H305.016C301.763 223.56 300.136 224.653 300.136 226.84C300.136 227.907 300.549 228.747 301.376 229.36C302.203 229.973 303.349 230.28 304.816 230.28ZM333.802 231.76C333.242 232.24 332.549 232.613 331.722 232.88C330.896 233.12 330.042 233.24 329.162 233.24C327.029 233.24 325.376 232.667 324.202 231.52C323.029 230.373 322.442 228.733 322.442 226.6V214.96H318.842V211.8H322.442V207.16H326.282V211.8H332.362V214.96H326.282V226.44C326.282 227.587 326.562 228.467 327.122 229.08C327.709 229.693 328.536 230 329.602 230C330.776 230 331.776 229.667 332.602 229L333.802 231.76Z" fill="black"/>
<path d="M137.918 292L137.878 273.44L128.678 288.8H126.358L117.158 273.68V292H112.198V264H116.478L127.598 282.56L138.518 264H142.798L142.838 292H137.918ZM159.521 292.28C157.361 292.28 155.414 291.813 153.681 290.88C151.947 289.947 150.587 288.653 149.601 287C148.641 285.32 148.161 283.427 148.161 281.32C148.161 279.213 148.641 277.333 149.601 275.68C150.587 274.027 151.947 272.733 153.681 271.8C155.414 270.867 157.361 270.4 159.521 270.4C161.707 270.4 163.667 270.867 165.401 271.8C167.134 272.733 168.481 274.027 169.441 275.68C170.427 277.333 170.921 279.213 170.921 281.32C170.921 283.427 170.427 285.32 169.441 287C168.481 288.653 167.134 289.947 165.401 290.88C163.667 291.813 161.707 292.28 159.521 292.28ZM159.521 288C161.361 288 162.881 287.387 164.081 286.16C165.281 284.933 165.881 283.32 165.881 281.32C165.881 279.32 165.281 277.707 164.081 276.48C162.881 275.253 161.361 274.64 159.521 274.64C157.681 274.64 156.161 275.253 154.961 276.48C153.787 277.707 153.201 279.32 153.201 281.32C153.201 283.32 153.787 284.933 154.961 286.16C156.161 287.387 157.681 288 159.521 288ZM187.822 270.4C190.515 270.4 192.675 271.187 194.302 272.76C195.929 274.333 196.742 276.667 196.742 279.76V292H191.742V280.4C191.742 278.533 191.302 277.133 190.422 276.2C189.542 275.24 188.289 274.76 186.662 274.76C184.822 274.76 183.369 275.32 182.302 276.44C181.235 277.533 180.702 279.12 180.702 281.2V292H175.702V270.64H180.462V273.4C181.289 272.413 182.329 271.667 183.582 271.16C184.835 270.653 186.249 270.4 187.822 270.4ZM215.925 290.84C215.338 291.32 214.618 291.68 213.765 291.92C212.938 292.16 212.058 292.28 211.125 292.28C208.778 292.28 206.965 291.667 205.685 290.44C204.405 289.213 203.765 287.427 203.765 285.08V274.8H200.245V270.8H203.765V265.92H208.765V270.8H214.485V274.8H208.765V284.96C208.765 286 209.018 286.8 209.525 287.36C210.031 287.893 210.765 288.16 211.725 288.16C212.845 288.16 213.778 287.867 214.525 287.28L215.925 290.84ZM226.638 292.28C224.904 292.28 223.211 292.053 221.558 291.6C219.904 291.147 218.584 290.573 217.598 289.88L219.518 286.08C220.478 286.72 221.624 287.24 222.958 287.64C224.318 288.013 225.651 288.2 226.958 288.2C229.944 288.2 231.438 287.413 231.438 285.84C231.438 285.093 231.051 284.573 230.278 284.28C229.531 283.987 228.318 283.707 226.638 283.44C224.878 283.173 223.438 282.867 222.318 282.52C221.224 282.173 220.264 281.573 219.438 280.72C218.638 279.84 218.238 278.627 218.238 277.08C218.238 275.053 219.078 273.44 220.758 272.24C222.464 271.013 224.758 270.4 227.638 270.4C229.104 270.4 230.571 270.573 232.038 270.92C233.504 271.24 234.704 271.68 235.638 272.24L233.718 276.04C231.904 274.973 229.864 274.44 227.598 274.44C226.131 274.44 225.011 274.667 224.238 275.12C223.491 275.547 223.118 276.12 223.118 276.84C223.118 277.64 223.518 278.213 224.318 278.56C225.144 278.88 226.411 279.187 228.118 279.48C229.824 279.747 231.224 280.053 232.318 280.4C233.411 280.747 234.344 281.333 235.118 282.16C235.918 282.987 236.318 284.16 236.318 285.68C236.318 287.68 235.451 289.28 233.718 290.48C231.984 291.68 229.624 292.28 226.638 292.28ZM260.704 281.44C260.704 281.787 260.677 282.28 260.624 282.92H243.864C244.157 284.493 244.917 285.747 246.144 286.68C247.397 287.587 248.944 288.04 250.784 288.04C253.13 288.04 255.064 287.267 256.584 285.72L259.264 288.8C258.304 289.947 257.09 290.813 255.624 291.4C254.157 291.987 252.504 292.28 250.664 292.28C248.317 292.28 246.25 291.813 244.464 290.88C242.677 289.947 241.29 288.653 240.304 287C239.344 285.32 238.864 283.427 238.864 281.32C238.864 279.24 239.33 277.373 240.264 275.72C241.224 274.04 242.544 272.733 244.224 271.8C245.904 270.867 247.797 270.4 249.904 270.4C251.984 270.4 253.837 270.867 255.464 271.8C257.117 272.707 258.397 274 259.304 275.68C260.237 277.333 260.704 279.253 260.704 281.44ZM249.904 274.4C248.304 274.4 246.944 274.88 245.824 275.84C244.73 276.773 244.064 278.027 243.824 279.6H255.944C255.73 278.053 255.077 276.8 253.984 275.84C252.89 274.88 251.53 274.4 249.904 274.4ZM270.267 273.76C271.707 271.52 274.24 270.4 277.867 270.4V275.16C277.44 275.08 277.053 275.04 276.707 275.04C274.76 275.04 273.24 275.613 272.147 276.76C271.053 277.88 270.507 279.507 270.507 281.64V292H265.507V270.64H270.267V273.76ZM286.868 273.76C288.308 271.52 290.841 270.4 294.468 270.4V275.16C294.041 275.08 293.655 275.04 293.308 275.04C291.361 275.04 289.841 275.613 288.748 276.76C287.655 277.88 287.108 279.507 287.108 281.64V292H282.108V270.64H286.868V273.76ZM306.753 270.4C309.899 270.4 312.299 271.16 313.953 272.68C315.633 274.173 316.473 276.44 316.473 279.48V292H311.753V289.4C311.139 290.333 310.259 291.053 309.113 291.56C307.993 292.04 306.633 292.28 305.033 292.28C303.433 292.28 302.033 292.013 300.833 291.48C299.633 290.92 298.699 290.16 298.033 289.2C297.393 288.213 297.073 287.107 297.073 285.88C297.073 283.96 297.779 282.427 299.193 281.28C300.633 280.107 302.886 279.52 305.953 279.52H311.473V279.2C311.473 277.707 311.019 276.56 310.113 275.76C309.233 274.96 307.913 274.56 306.153 274.56C304.953 274.56 303.766 274.747 302.593 275.12C301.446 275.493 300.473 276.013 299.673 276.68L297.713 273.04C298.833 272.187 300.179 271.533 301.753 271.08C303.326 270.627 304.993 270.4 306.753 270.4ZM306.073 288.64C307.326 288.64 308.433 288.36 309.393 287.8C310.379 287.213 311.073 286.387 311.473 285.32V282.84H306.313C303.433 282.84 301.993 283.787 301.993 285.68C301.993 286.587 302.353 287.307 303.073 287.84C303.793 288.373 304.793 288.64 306.073 288.64ZM335.729 290.84C335.143 291.32 334.423 291.68 333.569 291.92C332.743 292.16 331.863 292.28 330.929 292.28C328.583 292.28 326.769 291.667 325.489 290.44C324.209 289.213 323.569 287.427 323.569 285.08V274.8H320.049V270.8H323.569V265.92H328.569V270.8H334.289V274.8H328.569V284.96C328.569 286 328.823 286.8 329.329 287.36C329.836 287.893 330.569 288.16 331.529 288.16C332.649 288.16 333.583 287.867 334.329 287.28L335.729 290.84Z" fill="black"/>
<path d="M135.284 351L135.244 334.2L127.004 348.04H124.084L115.884 334.56V351H109.804V323H115.164L125.644 340.4L135.964 323H141.284L141.364 351H135.284ZM157.808 351.32C155.541 351.32 153.501 350.853 151.688 349.92C149.901 348.96 148.501 347.64 147.488 345.96C146.474 344.28 145.968 342.373 145.968 340.24C145.968 338.107 146.474 336.2 147.488 334.52C148.501 332.84 149.901 331.533 151.688 330.6C153.501 329.64 155.541 329.16 157.808 329.16C160.074 329.16 162.101 329.64 163.888 330.6C165.674 331.533 167.074 332.84 168.088 334.52C169.101 336.2 169.608 338.107 169.608 340.24C169.608 342.373 169.101 344.28 168.088 345.96C167.074 347.64 165.674 348.96 163.888 349.92C162.101 350.853 160.074 351.32 157.808 351.32ZM157.808 346.2C159.408 346.2 160.714 345.667 161.728 344.6C162.768 343.507 163.288 342.053 163.288 340.24C163.288 338.427 162.768 336.987 161.728 335.92C160.714 334.827 159.408 334.28 157.808 334.28C156.208 334.28 154.888 334.827 153.848 335.92C152.808 336.987 152.288 338.427 152.288 340.24C152.288 342.053 152.808 343.507 153.848 344.6C154.888 345.667 156.208 346.2 157.808 346.2ZM186.858 329.16C189.525 329.16 191.672 329.96 193.298 331.56C194.952 333.16 195.778 335.533 195.778 338.68V351H189.538V339.64C189.538 337.933 189.165 336.667 188.418 335.84C187.672 334.987 186.592 334.56 185.178 334.56C183.605 334.56 182.352 335.053 181.418 336.04C180.485 337 180.018 338.44 180.018 340.36V351H173.778V329.48H179.738V332C180.565 331.093 181.592 330.4 182.818 329.92C184.045 329.413 185.392 329.16 186.858 329.16ZM215.315 349.96C214.701 350.413 213.941 350.76 213.035 351C212.155 351.213 211.221 351.32 210.235 351.32C207.675 351.32 205.688 350.667 204.275 349.36C202.888 348.053 202.195 346.133 202.195 343.6V334.76H198.875V329.96H202.195V324.72H208.435V329.96H213.795V334.76H208.435V343.52C208.435 344.427 208.661 345.133 209.115 345.64C209.595 346.12 210.261 346.36 211.115 346.36C212.101 346.36 212.941 346.093 213.635 345.56L215.315 349.96ZM226.058 351.32C224.271 351.32 222.524 351.107 220.818 350.68C219.111 350.227 217.751 349.667 216.738 349L218.818 344.52C219.778 345.133 220.938 345.64 222.298 346.04C223.658 346.413 224.991 346.6 226.298 346.6C228.938 346.6 230.258 345.947 230.258 344.64C230.258 344.027 229.898 343.587 229.178 343.32C228.458 343.053 227.351 342.827 225.858 342.64C224.098 342.373 222.644 342.067 221.498 341.72C220.351 341.373 219.351 340.76 218.498 339.88C217.671 339 217.257 337.747 217.257 336.12C217.257 334.76 217.644 333.56 218.418 332.52C219.218 331.453 220.364 330.627 221.858 330.04C223.378 329.453 225.164 329.16 227.218 329.16C228.738 329.16 230.244 329.333 231.738 329.68C233.258 330 234.511 330.453 235.498 331.04L233.418 335.48C231.524 334.413 229.458 333.88 227.218 333.88C225.884 333.88 224.884 334.067 224.218 334.44C223.551 334.813 223.218 335.293 223.218 335.88C223.218 336.547 223.578 337.013 224.298 337.28C225.018 337.547 226.164 337.8 227.738 338.04C229.498 338.333 230.938 338.653 232.058 339C233.178 339.32 234.151 339.92 234.978 340.8C235.804 341.68 236.218 342.907 236.218 344.48C236.218 345.813 235.818 347 235.018 348.04C234.218 349.08 233.044 349.893 231.498 350.48C229.978 351.04 228.164 351.32 226.058 351.32ZM261.148 340.32C261.148 340.4 261.108 340.96 261.028 342H244.748C245.041 343.333 245.734 344.387 246.828 345.16C247.921 345.933 249.281 346.32 250.908 346.32C252.028 346.32 253.014 346.16 253.868 345.84C254.748 345.493 255.561 344.96 256.308 344.24L259.628 347.84C257.601 350.16 254.641 351.32 250.748 351.32C248.321 351.32 246.174 350.853 244.308 349.92C242.441 348.96 241.001 347.64 239.988 345.96C238.974 344.28 238.468 342.373 238.468 340.24C238.468 338.133 238.961 336.24 239.948 334.56C240.961 332.853 242.334 331.533 244.068 330.6C245.828 329.64 247.788 329.16 249.948 329.16C252.054 329.16 253.961 329.613 255.668 330.52C257.374 331.427 258.708 332.733 259.668 334.44C260.654 336.12 261.148 338.08 261.148 340.32ZM249.988 333.88C248.574 333.88 247.388 334.28 246.428 335.08C245.468 335.88 244.881 336.973 244.668 338.36H255.268C255.054 337 254.468 335.92 253.508 335.12C252.548 334.293 251.374 333.88 249.988 333.88ZM271.262 332.32C272.009 331.28 273.009 330.493 274.262 329.96C275.542 329.427 277.009 329.16 278.662 329.16V334.92C277.969 334.867 277.502 334.84 277.262 334.84C275.475 334.84 274.075 335.347 273.062 336.36C272.049 337.347 271.542 338.84 271.542 340.84V351H265.302V329.48H271.262V332.32ZM288.332 332.32C289.079 331.28 290.079 330.493 291.332 329.96C292.612 329.427 294.079 329.16 295.732 329.16V334.92C295.039 334.867 294.572 334.84 294.332 334.84C292.546 334.84 291.146 335.347 290.132 336.36C289.119 337.347 288.612 338.84 288.612 340.84V351H282.372V329.48H288.332V332.32ZM308.005 329.16C311.339 329.16 313.899 329.96 315.685 331.56C317.472 333.133 318.365 335.52 318.365 338.72V351H312.525V348.32C311.352 350.32 309.165 351.32 305.965 351.32C304.312 351.32 302.872 351.04 301.645 350.48C300.445 349.92 299.525 349.147 298.885 348.16C298.245 347.173 297.925 346.053 297.925 344.8C297.925 342.8 298.672 341.227 300.165 340.08C301.685 338.933 304.019 338.36 307.165 338.36H312.125C312.125 337 311.712 335.96 310.885 335.24C310.059 334.493 308.819 334.12 307.165 334.12C306.019 334.12 304.885 334.307 303.765 334.68C302.672 335.027 301.739 335.507 300.965 336.12L298.725 331.76C299.899 330.933 301.299 330.293 302.925 329.84C304.579 329.387 306.272 329.16 308.005 329.16ZM307.525 347.12C308.592 347.12 309.539 346.88 310.365 346.4C311.192 345.893 311.779 345.16 312.125 344.2V342H307.845C305.285 342 304.005 342.84 304.005 344.52C304.005 345.32 304.312 345.96 304.925 346.44C305.565 346.893 306.432 347.12 307.525 347.12ZM337.893 349.96C337.279 350.413 336.519 350.76 335.613 351C334.733 351.213 333.799 351.32 332.813 351.32C330.253 351.32 328.266 350.667 326.853 349.36C325.466 348.053 324.773 346.133 324.773 343.6V334.76H321.453V329.96H324.773V324.72H331.013V329.96H336.373V334.76H331.013V343.52C331.013 344.427 331.239 345.133 331.693 345.64C332.173 346.12 332.839 346.36 333.693 346.36C334.679 346.36 335.519 346.093 336.213 345.56L337.893 349.96Z" fill="black"/>
<path d="M132.455 410L132.375 395.16L125.175 407.24H121.655L114.495 395.56V410H107.175V382H113.695L123.535 398.16L133.135 382H139.655L139.735 410H132.455ZM155.859 410.36C153.539 410.36 151.446 409.88 149.579 408.92C147.712 407.96 146.246 406.627 145.179 404.92C144.139 403.213 143.619 401.28 143.619 399.12C143.619 396.987 144.139 395.067 145.179 393.36C146.246 391.653 147.699 390.333 149.539 389.4C151.406 388.44 153.512 387.96 155.859 387.96C158.206 387.96 160.312 388.44 162.179 389.4C164.046 390.333 165.499 391.653 166.539 393.36C167.579 395.04 168.099 396.96 168.099 399.12C168.099 401.28 167.579 403.213 166.539 404.92C165.499 406.627 164.046 407.96 162.179 408.92C160.312 409.88 158.206 410.36 155.859 410.36ZM155.859 404.32C157.192 404.32 158.286 403.867 159.139 402.96C159.992 402.027 160.419 400.747 160.419 399.12C160.419 397.52 159.992 396.267 159.139 395.36C158.286 394.453 157.192 394 155.859 394C154.526 394 153.432 394.453 152.579 395.36C151.726 396.267 151.299 397.52 151.299 399.12C151.299 400.747 151.726 402.027 152.579 402.96C153.432 403.867 154.526 404.32 155.859 404.32ZM185.74 387.96C188.433 387.96 190.593 388.76 192.22 390.36C193.873 391.96 194.7 394.373 194.7 397.6V410H187.1V398.84C187.1 395.88 185.913 394.4 183.54 394.4C182.233 394.4 181.18 394.827 180.38 395.68C179.606 396.533 179.22 397.813 179.22 399.52V410H171.62V388.32H178.86V390.68C179.713 389.8 180.726 389.133 181.9 388.68C183.073 388.2 184.353 387.96 185.74 387.96ZM214.431 409.12C213.791 409.52 213.005 409.827 212.071 410.04C211.165 410.253 210.191 410.36 209.151 410.36C206.325 410.36 204.151 409.667 202.631 408.28C201.111 406.893 200.351 404.827 200.351 402.08V394.8H197.191V389.12H200.351V383.48H207.951V389.12H212.911V394.8H207.951V402C207.951 402.773 208.151 403.387 208.551 403.84C208.978 404.267 209.538 404.48 210.231 404.48C211.111 404.48 211.885 404.253 212.551 403.8L214.431 409.12ZM225.242 410.36C223.429 410.36 221.642 410.16 219.882 409.76C218.122 409.333 216.709 408.787 215.642 408.12L217.922 402.92C218.909 403.533 220.082 404.027 221.442 404.4C222.802 404.747 224.149 404.92 225.482 404.92C226.709 404.92 227.575 404.8 228.082 404.56C228.615 404.293 228.882 403.92 228.882 403.44C228.882 402.96 228.562 402.627 227.922 402.44C227.309 402.227 226.322 402.027 224.962 401.84C223.229 401.627 221.749 401.347 220.522 401C219.322 400.653 218.282 400.013 217.402 399.08C216.522 398.147 216.082 396.84 216.082 395.16C216.082 393.773 216.495 392.547 217.322 391.48C218.149 390.387 219.349 389.533 220.922 388.92C222.522 388.28 224.429 387.96 226.642 387.96C228.215 387.96 229.775 388.12 231.322 388.44C232.869 388.76 234.162 389.213 235.202 389.8L232.922 394.96C231.002 393.893 228.922 393.36 226.682 393.36C225.482 393.36 224.602 393.507 224.042 393.8C223.482 394.067 223.202 394.427 223.202 394.88C223.202 395.387 223.509 395.747 224.122 395.96C224.735 396.147 225.749 396.347 227.162 396.56C228.949 396.827 230.429 397.133 231.602 397.48C232.775 397.827 233.789 398.467 234.642 399.4C235.522 400.307 235.962 401.587 235.962 403.24C235.962 404.6 235.549 405.827 234.722 406.92C233.895 407.987 232.669 408.827 231.042 409.44C229.442 410.053 227.509 410.36 225.242 410.36ZM261.397 399.2C261.397 399.253 261.357 399.88 261.277 401.08H245.517C245.837 402.2 246.45 403.067 247.357 403.68C248.29 404.267 249.45 404.56 250.837 404.56C251.877 404.56 252.77 404.413 253.517 404.12C254.29 403.827 255.064 403.347 255.837 402.68L259.837 406.84C257.73 409.187 254.65 410.36 250.597 410.36C248.064 410.36 245.837 409.88 243.917 408.92C241.997 407.96 240.504 406.627 239.437 404.92C238.397 403.213 237.877 401.28 237.877 399.12C237.877 396.987 238.384 395.08 239.397 393.4C240.437 391.693 241.864 390.36 243.677 389.4C245.49 388.44 247.53 387.96 249.797 387.96C251.957 387.96 253.917 388.413 255.677 389.32C257.437 390.2 258.824 391.493 259.837 393.2C260.877 394.88 261.397 396.88 261.397 399.2ZM249.837 393.36C248.664 393.36 247.677 393.693 246.877 394.36C246.104 395.027 245.61 395.933 245.397 397.08H254.277C254.064 395.933 253.557 395.027 252.757 394.36C251.984 393.693 251.01 393.36 249.837 393.36ZM272.141 390.92C272.914 389.933 273.914 389.2 275.141 388.72C276.394 388.213 277.821 387.96 279.421 387.96V394.8C278.728 394.72 278.154 394.68 277.701 394.68C276.074 394.68 274.794 395.12 273.861 396C272.954 396.88 272.501 398.227 272.501 400.04V410H264.901V388.32H272.141V390.92ZM289.797 390.92C290.571 389.933 291.571 389.2 292.797 388.72C294.051 388.213 295.477 387.96 297.077 387.96V394.8C296.384 394.72 295.811 394.68 295.357 394.68C293.731 394.68 292.451 395.12 291.517 396C290.611 396.88 290.157 398.227 290.157 400.04V410H282.557V388.32H289.797V390.92ZM309.297 387.96C312.897 387.96 315.644 388.787 317.537 390.44C319.431 392.067 320.377 394.573 320.377 397.96V410H313.297V407.2C312.204 409.307 310.071 410.36 306.897 410.36C305.217 410.36 303.764 410.067 302.537 409.48C301.311 408.893 300.377 408.107 299.737 407.12C299.124 406.107 298.817 404.96 298.817 403.68C298.817 401.627 299.604 400.04 301.177 398.92C302.751 397.773 305.177 397.2 308.457 397.2H312.777C312.644 394.907 311.111 393.76 308.177 393.76C307.137 393.76 306.084 393.933 305.017 394.28C303.951 394.6 303.044 395.053 302.297 395.64L299.737 390.48C300.937 389.68 302.391 389.067 304.097 388.64C305.831 388.187 307.564 387.96 309.297 387.96ZM309.017 405.56C309.897 405.56 310.671 405.347 311.337 404.92C312.004 404.493 312.484 403.867 312.777 403.04V401.16H309.497C307.284 401.16 306.177 401.893 306.177 403.36C306.177 404.027 306.431 404.56 306.937 404.96C307.444 405.36 308.137 405.56 309.017 405.56ZM340.134 409.12C339.494 409.52 338.708 409.827 337.774 410.04C336.868 410.253 335.894 410.36 334.854 410.36C332.028 410.36 329.854 409.667 328.334 408.28C326.814 406.893 326.054 404.827 326.054 402.08V394.8H322.894V389.12H326.054V383.48H333.654V389.12H338.614V394.8H333.654V402C333.654 402.773 333.854 403.387 334.254 403.84C334.681 404.267 335.241 404.48 335.934 404.48C336.814 404.48 337.588 404.253 338.254 403.8L340.134 409.12Z" fill="black"/>
</svg>
