<svg width="445" height="614" viewBox="0 0 445 614" fill="none" xmlns="http://www.w3.org/2000/svg">
<rect width="445" height="614" fill="#F3F5F7"/>
<path d="M86.3099 84H87.8459V70.128H97.3979C103.254 70.128 106.758 65.952 106.758 61.056C106.758 56.16 103.35 51.984 97.3979 51.984H86.3099V84ZM105.078 61.056C105.078 65.472 102.054 68.688 97.3499 68.688H87.8459V53.424H97.3499C102.054 53.424 105.078 56.64 105.078 61.056ZM112.839 84H114.279V66.624C115.335 64.464 118.647 62.064 121.095 62.064C121.527 62.064 121.815 62.064 122.247 62.112V60.384C118.887 60.384 116.343 62.304 114.279 65.04V60.816H112.839V84ZM136.969 84.576C143.545 84.576 147.769 79.2 147.769 72.384C147.769 65.568 143.545 60.24 136.969 60.24C130.441 60.24 126.169 65.568 126.169 72.384C126.169 79.2 130.441 84.576 136.969 84.576ZM136.969 83.28C131.065 83.28 127.753 78.048 127.753 72.384C127.753 66.768 131.065 61.536 136.969 61.536C142.921 61.536 146.185 66.768 146.185 72.384C146.185 78.048 142.921 83.28 136.969 83.28ZM168.47 84H170.342L160.886 72.096L169.814 60.816H167.942L160.07 71.088L152.198 60.816H150.326L159.254 72.096L149.798 84H151.67L160.07 73.056L168.47 84ZM176.231 56.832C176.999 56.832 177.623 56.208 177.623 55.44C177.623 54.672 176.999 54.048 176.231 54.048C175.511 54.048 174.839 54.672 174.839 55.44C174.839 56.208 175.511 56.832 176.231 56.832ZM175.511 84H176.951V60.816H175.511V84ZM212.478 84H213.918V67.296C213.918 62.688 211.95 60.24 207.726 60.24C204.51 60.24 201.39 62.496 200.094 64.656C199.614 62.496 197.742 60.24 194.094 60.24C190.782 60.24 187.614 62.928 186.654 64.464V60.816H185.214V84H186.654V65.904C188.19 63.552 191.262 61.536 193.854 61.536C197.358 61.536 198.846 63.696 198.846 67.296V84H200.286V65.856C201.726 63.504 204.894 61.536 207.486 61.536C210.99 61.536 212.478 63.696 212.478 67.296V84ZM237.127 84H238.567V67.248C238.567 62.544 235.159 60.24 230.599 60.24C226.711 60.24 224.311 61.584 222.055 64.224L223.159 65.184C225.319 62.592 227.575 61.536 230.599 61.536C234.151 61.536 237.127 63.552 237.127 67.296V72.528C234.967 70.176 232.375 69.12 229.111 69.12C224.983 69.12 220.999 71.904 220.999 76.848C220.999 81.792 225.031 84.576 229.111 84.576C232.375 84.576 234.967 83.52 237.127 81.168V84ZM237.127 79.728C235.351 82.08 232.519 83.28 229.495 83.28C225.271 83.28 222.583 80.448 222.583 76.848C222.583 73.248 225.271 70.416 229.495 70.416C232.519 70.416 235.351 71.616 237.127 73.968V79.728ZM282.508 84H284.044V51.984H282.508V81.216L260.908 51.984H259.372V84H260.908V54.48L282.508 84ZM301.969 84.576C308.545 84.576 312.769 79.2 312.769 72.384C312.769 65.568 308.545 60.24 301.969 60.24C295.441 60.24 291.169 65.568 291.169 72.384C291.169 79.2 295.441 84.576 301.969 84.576ZM301.969 83.28C296.065 83.28 292.753 78.048 292.753 72.384C292.753 66.768 296.065 61.536 301.969 61.536C307.921 61.536 311.185 66.768 311.185 72.384C311.185 78.048 307.921 83.28 301.969 83.28ZM326.128 84H327.808L337.744 60.816H336.064L326.992 82.32L317.872 60.816H316.192L326.128 84ZM357.362 84H358.802V67.248C358.802 62.544 355.394 60.24 350.834 60.24C346.946 60.24 344.546 61.584 342.29 64.224L343.394 65.184C345.554 62.592 347.81 61.536 350.834 61.536C354.386 61.536 357.362 63.552 357.362 67.296V72.528C355.202 70.176 352.61 69.12 349.346 69.12C345.218 69.12 341.234 71.904 341.234 76.848C341.234 81.792 345.266 84.576 349.346 84.576C352.61 84.576 355.202 83.52 357.362 81.168V84ZM357.362 79.728C355.586 82.08 352.754 83.28 349.73 83.28C345.506 83.28 342.818 80.448 342.818 76.848C342.818 73.248 345.506 70.416 349.73 70.416C352.754 70.416 355.586 71.616 357.362 73.968V79.728Z" fill="black"/>
<path d="M83.4684 152H86.2044V138.704H95.4684C101.564 138.704 105.116 134.384 105.116 129.344C105.116 124.304 101.612 119.984 95.4684 119.984H83.4684V152ZM102.236 129.344C102.236 133.376 99.4044 136.208 95.1804 136.208H86.2044V122.48H95.1804C99.4044 122.48 102.236 125.312 102.236 129.344ZM110.794 152H113.29V135.104C114.346 133.088 117.514 130.976 119.866 130.976C120.346 130.976 120.682 131.024 121.114 131.072V128.336C117.898 128.336 115.258 130.208 113.29 132.8V128.816H110.794V152ZM135.821 152.576C142.685 152.576 147.005 147.152 147.005 140.384C147.005 133.616 142.685 128.24 135.821 128.24C129.053 128.24 124.685 133.616 124.685 140.384C124.685 147.152 129.053 152.576 135.821 152.576ZM135.821 150.32C130.445 150.32 127.373 145.568 127.373 140.384C127.373 135.248 130.445 130.496 135.821 130.496C141.293 130.496 144.317 135.248 144.317 140.384C144.317 145.568 141.293 150.32 135.821 150.32ZM167.028 152H170.004L160.836 140.096L169.476 128.816H166.5L159.348 138.368L152.148 128.816H149.172L157.812 140.096L148.644 152H151.62L159.348 141.776L167.028 152ZM175.933 124.88C176.989 124.88 177.853 124.016 177.853 122.96C177.853 121.904 176.989 121.04 175.933 121.04C174.925 121.04 174.013 121.904 174.013 122.96C174.013 124.016 174.925 124.88 175.933 124.88ZM174.685 152H177.181V128.816H174.685V152ZM212.551 152H215.047V135.296C215.047 130.64 212.983 128.24 208.711 128.24C205.447 128.24 202.327 130.448 201.031 132.608C200.455 130.352 198.535 128.24 194.935 128.24C191.575 128.24 188.407 130.832 187.447 132.32V128.816H184.951V152H187.447V134.48C188.839 132.368 191.623 130.496 194.071 130.496C197.383 130.496 198.727 132.512 198.727 135.776V152H201.271V134.432C202.567 132.32 205.399 130.496 207.895 130.496C211.159 130.496 212.551 132.512 212.551 135.776V152ZM237.562 152H240.058V135.68C240.058 130.496 236.314 128.24 231.562 128.24C227.77 128.24 225.082 129.536 222.682 132.176L224.074 133.856C226.186 131.456 228.442 130.448 231.322 130.448C234.778 130.448 237.562 132.368 237.562 135.776V140.48C235.498 138.224 232.906 137.216 229.69 137.216C225.658 137.216 221.578 139.808 221.578 144.848C221.578 149.84 225.706 152.576 229.69 152.576C232.906 152.576 235.498 151.52 237.562 149.264V152ZM237.562 147.44C235.93 149.552 233.338 150.608 230.554 150.608C226.714 150.608 224.218 148.16 224.218 144.896C224.218 141.632 226.714 139.136 230.554 139.136C233.338 139.136 235.93 140.24 237.562 142.352V147.44ZM283.271 152H285.959V119.984H283.223V147.248L263.159 119.984H260.375V152H263.111V124.352L283.271 152ZM303.633 152.576C310.497 152.576 314.817 147.152 314.817 140.384C314.817 133.616 310.497 128.24 303.633 128.24C296.865 128.24 292.497 133.616 292.497 140.384C292.497 147.152 296.865 152.576 303.633 152.576ZM303.633 150.32C298.257 150.32 295.185 145.568 295.185 140.384C295.185 135.248 298.257 130.496 303.633 130.496C309.105 130.496 312.129 135.248 312.129 140.384C312.129 145.568 309.105 150.32 303.633 150.32ZM327.503 152H330.335L340.127 128.816H337.295L328.895 149.072L320.495 128.816H317.711L327.503 152ZM359.108 152H361.604V135.68C361.604 130.496 357.86 128.24 353.108 128.24C349.316 128.24 346.628 129.536 344.228 132.176L345.62 133.856C347.732 131.456 349.988 130.448 352.868 130.448C356.324 130.448 359.108 132.368 359.108 135.776V140.48C357.044 138.224 354.452 137.216 351.236 137.216C347.204 137.216 343.124 139.808 343.124 144.848C343.124 149.84 347.252 152.576 351.236 152.576C354.452 152.576 357.044 151.52 359.108 149.264V152ZM359.108 147.44C357.476 149.552 354.884 150.608 352.1 150.608C348.26 150.608 345.764 148.16 345.764 144.896C345.764 141.632 348.26 139.136 352.1 139.136C354.884 139.136 357.476 140.24 359.108 142.352V147.44Z" fill="black"/>
<path d="M80.8143 220H84.7983V207.28H93.6783C100.014 207.28 103.71 202.864 103.71 197.632C103.71 192.4 100.11 187.984 93.6783 187.984H80.8143V220ZM99.5823 197.632C99.5823 201.232 96.9903 203.728 93.1983 203.728H84.7983V191.536H93.1983C96.9903 191.536 99.5823 194.032 99.5823 197.632ZM108.842 220H112.442V203.584C113.498 201.712 116.522 199.888 118.73 199.888C119.306 199.888 119.738 199.936 120.17 200.032V196.336C117.002 196.336 114.314 198.112 112.442 200.56V196.816H108.842V220ZM134.814 220.576C141.87 220.576 146.286 215.104 146.286 208.384C146.286 201.664 141.87 196.24 134.814 196.24C127.758 196.24 123.342 201.664 123.342 208.384C123.342 215.104 127.758 220.576 134.814 220.576ZM134.814 217.36C129.87 217.36 127.086 213.136 127.086 208.384C127.086 203.68 129.87 199.456 134.814 199.456C139.758 199.456 142.494 203.68 142.494 208.384C142.494 213.136 139.758 217.36 134.814 217.36ZM165.679 220H169.855L160.927 208.096L169.327 196.816H165.151L158.719 205.648L152.287 196.816H148.111L156.511 208.096L147.631 220H151.759L158.719 210.496L165.679 220ZM175.774 192.928C177.118 192.928 178.222 191.824 178.222 190.48C178.222 189.136 177.118 188.08 175.774 188.08C174.478 188.08 173.374 189.136 173.374 190.48C173.374 191.824 174.478 192.928 175.774 192.928ZM173.998 220H177.598V196.816H173.998V220ZM212.764 220H216.364V203.248C216.364 198.592 214.108 196.24 209.884 196.24C206.524 196.24 203.404 198.448 202.108 200.56C201.436 198.16 199.42 196.24 195.868 196.24C192.46 196.24 189.34 198.688 188.38 200.176V196.816H184.78V220H188.38V203.056C189.628 201.184 192.124 199.456 194.476 199.456C197.5 199.456 198.748 201.328 198.748 204.256V220H202.348V203.008C203.548 201.184 206.092 199.456 208.492 199.456C211.468 199.456 212.764 201.328 212.764 204.256V220ZM238.041 220H241.641V204.064C241.641 198.448 237.561 196.24 232.665 196.24C228.873 196.24 225.897 197.488 223.401 200.08L225.081 202.576C227.145 200.368 229.401 199.36 232.185 199.36C235.545 199.36 238.041 201.136 238.041 204.256V208.432C236.169 206.272 233.529 205.264 230.361 205.264C226.425 205.264 222.249 207.712 222.249 212.896C222.249 217.936 226.425 220.576 230.361 220.576C233.481 220.576 236.121 219.472 238.041 217.36V220ZM238.041 215.104C236.649 217.024 234.201 217.984 231.657 217.984C228.297 217.984 225.945 215.872 225.945 212.944C225.945 209.968 228.297 207.856 231.657 207.856C234.201 207.856 236.649 208.816 238.041 210.736V215.104ZM284.033 220H287.873V187.984H283.889V213.28L265.457 187.984H261.377V220H265.361V194.176L284.033 220ZM305.345 220.576C312.401 220.576 316.817 215.104 316.817 208.384C316.817 201.664 312.401 196.24 305.345 196.24C298.289 196.24 293.873 201.664 293.873 208.384C293.873 215.104 298.289 220.576 305.345 220.576ZM305.345 217.36C300.401 217.36 297.617 213.136 297.617 208.384C297.617 203.68 300.401 199.456 305.345 199.456C310.289 199.456 313.025 203.68 313.025 208.384C313.025 213.136 310.289 217.36 305.345 217.36ZM328.878 220H332.814L342.462 196.816H338.526L330.846 215.824L323.118 196.816H319.23L328.878 220ZM360.713 220H364.313V204.064C364.313 198.448 360.233 196.24 355.337 196.24C351.545 196.24 348.569 197.488 346.073 200.08L347.753 202.576C349.817 200.368 352.073 199.36 354.857 199.36C358.217 199.36 360.713 201.136 360.713 204.256V208.432C358.841 206.272 356.201 205.264 353.033 205.264C349.097 205.264 344.921 207.712 344.921 212.896C344.921 217.936 349.097 220.576 353.033 220.576C356.153 220.576 358.793 219.472 360.713 217.36V220ZM360.713 215.104C359.321 217.024 356.873 217.984 354.329 217.984C350.969 217.984 348.617 215.872 348.617 212.944C348.617 209.968 350.969 207.856 354.329 207.856C356.873 207.856 359.321 208.816 360.713 210.736V215.104Z" fill="black"/>
<path d="M78.9583 288H83.7583V275.664H92.4463C98.9743 275.664 102.67 271.152 102.67 265.824C102.67 260.496 99.0223 255.984 92.4463 255.984H78.9583V288ZM97.7263 265.824C97.7263 269.184 95.2783 271.44 91.8223 271.44H83.7583V260.208H91.8223C95.2783 260.208 97.7263 262.464 97.7263 265.824ZM107.503 288H111.823V271.872C112.831 270.144 115.759 268.512 117.919 268.512C118.495 268.512 118.975 268.56 119.407 268.656V264.288C116.335 264.288 113.599 266.064 111.823 268.368V264.816H107.503V288ZM133.994 288.576C141.242 288.576 145.706 283.104 145.706 276.384C145.706 269.712 141.242 264.24 133.994 264.24C126.794 264.24 122.282 269.712 122.282 276.384C122.282 283.104 126.794 288.576 133.994 288.576ZM133.994 284.736C129.386 284.736 126.794 280.8 126.794 276.384C126.794 272.016 129.386 268.08 133.994 268.08C138.65 268.08 141.194 272.016 141.194 276.384C141.194 280.8 138.65 284.736 133.994 284.736ZM164.663 288H169.559L160.823 276.096L169.031 264.816H164.135L158.183 273.168L152.183 264.816H147.287L155.447 276.096L146.759 288H151.655L158.183 278.976L164.663 288ZM175.521 260.928C177.057 260.928 178.305 259.728 178.305 258.192C178.305 256.656 177.057 255.408 175.521 255.408C174.033 255.408 172.737 256.656 172.737 258.192C172.737 259.728 174.033 260.928 175.521 260.928ZM173.409 288H177.729V264.816H173.409V288ZM212.788 288H217.108V271.248C217.108 266.592 214.804 264.24 210.532 264.24C207.124 264.24 204.052 266.4 202.708 268.56C201.988 266.064 199.924 264.24 196.42 264.24C192.964 264.24 189.892 266.64 188.932 268.08V264.816H184.612V288H188.932V271.44C190.084 269.76 192.34 268.08 194.596 268.08C197.524 268.08 198.676 269.856 198.676 272.544V288H202.996V271.392C204.1 269.712 206.404 268.08 208.756 268.08C211.588 268.08 212.788 269.856 212.788 272.544V288ZM238.291 288H242.611V272.352C242.611 266.448 238.339 264.24 233.299 264.24C229.555 264.24 226.387 265.488 223.795 268.032L225.667 271.008C227.731 268.944 229.987 267.936 232.627 267.936C235.939 267.936 238.291 269.664 238.291 272.544V276.384C236.515 274.32 233.827 273.312 230.707 273.312C226.819 273.312 222.643 275.616 222.643 280.896C222.643 285.984 226.867 288.576 230.707 288.576C233.827 288.576 236.467 287.472 238.291 285.456V288ZM238.291 282.912C236.995 284.64 234.739 285.552 232.339 285.552C229.219 285.552 227.011 283.68 227.011 280.944C227.011 278.208 229.219 276.336 232.339 276.336C234.739 276.336 236.995 277.248 238.291 278.976V282.912ZM284.517 288H289.173V255.984H284.373V279.984L266.949 255.984H262.005V288H266.805V263.424L284.517 288ZM306.447 288.576C313.695 288.576 318.159 283.104 318.159 276.384C318.159 269.712 313.695 264.24 306.447 264.24C299.247 264.24 294.735 269.712 294.735 276.384C294.735 283.104 299.247 288.576 306.447 288.576ZM306.447 284.736C301.839 284.736 299.247 280.8 299.247 276.384C299.247 272.016 301.839 268.08 306.447 268.08C311.103 268.08 313.647 272.016 313.647 276.384C313.647 280.8 311.103 284.736 306.447 284.736ZM329.788 288H334.444L343.996 264.816H339.34L332.092 283.008L324.844 264.816H320.236L329.788 288ZM361.807 288H366.127V272.352C366.127 266.448 361.855 264.24 356.815 264.24C353.071 264.24 349.903 265.488 347.311 268.032L349.183 271.008C351.247 268.944 353.503 267.936 356.143 267.936C359.455 267.936 361.807 269.664 361.807 272.544V276.384C360.031 274.32 357.343 273.312 354.223 273.312C350.335 273.312 346.159 275.616 346.159 280.896C346.159 285.984 350.383 288.576 354.223 288.576C357.343 288.576 359.983 287.472 361.807 285.456V288ZM361.807 282.912C360.511 284.64 358.255 285.552 355.855 285.552C352.735 285.552 350.527 283.68 350.527 280.944C350.527 278.208 352.735 276.336 355.855 276.336C358.255 276.336 360.511 277.248 361.807 278.976V282.912Z" fill="black"/>
<path d="M77.1502 356H82.7662V344.048H91.2142C97.8862 344.048 101.678 339.44 101.678 334.016C101.678 328.592 97.9342 323.984 91.2142 323.984H77.1502V356ZM95.9182 334.016C95.9182 337.088 93.6142 339.104 90.4462 339.104H82.7662V328.928H90.4462C93.6142 328.928 95.9182 330.944 95.9182 334.016ZM106.209 356H111.249V340.208C112.257 338.576 115.089 337.136 117.201 337.136C117.825 337.136 118.353 337.184 118.785 337.28V332.288C115.761 332.288 112.977 334.016 111.249 336.224V332.816H106.209V356ZM133.314 356.576C140.754 356.576 145.266 351.056 145.266 344.384C145.266 337.76 140.754 332.24 133.314 332.24C125.97 332.24 121.41 337.76 121.41 344.384C121.41 351.056 125.97 356.576 133.314 356.576ZM133.314 352.112C129.042 352.112 126.642 348.512 126.642 344.384C126.642 340.304 129.042 336.704 133.314 336.704C137.634 336.704 140.034 340.304 140.034 344.384C140.034 348.512 137.634 352.112 133.314 352.112ZM163.787 356H169.451L160.907 344.096L168.923 332.816H163.259L157.787 340.688L152.267 332.816H146.603L154.619 344.096L146.123 356H151.739L157.787 347.456L163.787 356ZM175.455 328.976C177.183 328.976 178.575 327.584 178.575 325.856C178.575 324.128 177.183 322.736 175.455 322.736C173.775 322.736 172.335 324.128 172.335 325.856C172.335 327.584 173.775 328.976 175.455 328.976ZM172.959 356H177.999V332.816H172.959V356ZM212.953 356H217.993V339.248C217.993 334.544 215.593 332.24 211.321 332.24C207.865 332.24 204.793 334.4 203.449 336.512C202.681 333.968 200.569 332.24 197.113 332.24C193.609 332.24 190.537 334.544 189.577 335.984V332.816H184.537V356H189.577V339.824C190.633 338.288 192.697 336.704 194.905 336.704C197.641 336.704 198.745 338.384 198.745 340.88V356H203.785V339.776C204.793 338.288 206.905 336.704 209.161 336.704C211.849 336.704 212.953 338.384 212.953 340.88V356ZM238.682 356H243.722V340.64C243.722 334.4 239.21 332.24 234.074 332.24C230.378 332.24 227.018 333.44 224.33 335.984L226.394 339.488C228.41 337.52 230.666 336.56 233.258 336.56C236.474 336.56 238.682 338.192 238.682 340.88V344.336C237.002 342.368 234.314 341.36 231.194 341.36C227.402 341.36 223.13 343.568 223.13 348.896C223.13 354.032 227.402 356.576 231.194 356.576C234.266 356.576 236.954 355.472 238.682 353.504V356ZM238.682 350.72C237.53 352.304 235.37 353.12 233.162 353.12C230.33 353.12 228.218 351.488 228.218 348.992C228.218 346.448 230.33 344.816 233.162 344.816C235.37 344.816 237.53 345.632 238.682 347.216V350.72ZM285.048 356H290.472V323.984H284.856V346.688L268.488 323.984H262.728V356H268.344V332.672L285.048 356ZM307.595 356.576C315.035 356.576 319.547 351.056 319.547 344.384C319.547 337.76 315.035 332.24 307.595 332.24C300.251 332.24 295.691 337.76 295.691 344.384C295.691 351.056 300.251 356.576 307.595 356.576ZM307.595 352.112C303.323 352.112 300.923 348.512 300.923 344.384C300.923 340.304 303.323 336.704 307.595 336.704C311.915 336.704 314.315 340.304 314.315 344.384C314.315 348.512 311.915 352.112 307.595 352.112ZM330.743 356H336.167L345.623 332.816H340.199L333.431 350.192L326.663 332.816H321.287L330.743 356ZM362.947 356H367.987V340.64C367.987 334.4 363.475 332.24 358.339 332.24C354.643 332.24 351.283 333.44 348.595 335.984L350.659 339.488C352.675 337.52 354.931 336.56 357.523 336.56C360.739 336.56 362.947 338.192 362.947 340.88V344.336C361.267 342.368 358.579 341.36 355.459 341.36C351.667 341.36 347.395 343.568 347.395 348.896C347.395 354.032 351.667 356.576 355.459 356.576C358.531 356.576 361.219 355.472 362.947 353.504V356ZM362.947 350.72C361.795 352.304 359.635 353.12 357.427 353.12C354.595 353.12 352.483 351.488 352.483 348.992C352.483 346.448 354.595 344.816 357.427 344.816C359.635 344.816 361.795 345.632 362.947 347.216V350.72Z" fill="black"/>
<path d="M74.4727 424H81.2887V412.528H89.4487C96.3607 412.528 100.201 407.872 100.201 402.304C100.201 396.688 96.4087 391.984 89.4487 391.984H74.4727V424ZM93.2407 402.256C93.2407 404.944 91.2247 406.672 88.5367 406.672H81.2887V397.84H88.5367C91.2247 397.84 93.2407 399.616 93.2407 402.256ZM104.282 424H110.378V408.688C111.386 407.2 114.074 406.048 116.09 406.048C116.762 406.048 117.338 406.144 117.77 406.24V400.288C114.89 400.288 112.01 401.92 110.378 403.984V400.816H104.282V424ZM132.331 424.576C140.011 424.576 144.619 419.008 144.619 412.384C144.619 405.808 140.011 400.24 132.331 400.24C124.699 400.24 120.091 405.808 120.091 412.384C120.091 419.008 124.699 424.576 132.331 424.576ZM132.331 419.152C128.539 419.152 126.427 416.032 126.427 412.384C126.427 408.784 128.539 405.664 132.331 405.664C136.123 405.664 138.283 408.784 138.283 412.384C138.283 416.032 136.123 419.152 132.331 419.152ZM162.321 424H169.137L160.833 412.096L168.609 400.816H161.793L157.041 407.968L152.241 400.816H145.425L153.153 412.096L144.945 424H151.713L157.041 416.176L162.321 424ZM175.181 397.408C177.197 397.408 178.829 395.776 178.829 393.76C178.829 391.744 177.197 390.112 175.181 390.112C173.213 390.112 171.533 391.744 171.533 393.76C171.533 395.776 173.213 397.408 175.181 397.408ZM172.157 424H178.253V400.816H172.157V424ZM213.049 424H219.193V407.248C219.193 402.496 216.649 400.24 212.377 400.24C208.825 400.24 205.753 402.352 204.409 404.464C203.545 401.824 201.385 400.24 197.977 400.24C194.425 400.24 191.353 402.448 190.393 403.84V400.816H184.297V424H190.393V408.4C191.305 407.104 193.081 405.664 195.193 405.664C197.689 405.664 198.649 407.2 198.649 409.36V424H204.793V408.352C205.657 407.104 207.433 405.664 209.593 405.664C212.089 405.664 213.049 407.2 213.049 409.36V424ZM239.092 424H245.188V409.024C245.188 402.352 240.34 400.24 235.06 400.24C231.412 400.24 227.764 401.392 224.932 403.888L227.236 407.968C229.204 406.144 231.508 405.232 234.004 405.232C237.076 405.232 239.092 406.768 239.092 409.12V412.336C237.556 410.464 234.82 409.504 231.748 409.504C228.052 409.504 223.684 411.472 223.684 416.896C223.684 422.08 228.052 424.576 231.748 424.576C234.772 424.576 237.508 423.472 239.092 421.6V424ZM239.092 418.432C238.084 419.776 236.164 420.448 234.196 420.448C231.796 420.448 229.828 419.2 229.828 417.04C229.828 414.784 231.796 413.536 234.196 413.536C236.164 413.536 238.084 414.208 239.092 415.552V418.432ZM285.74 424H292.316V391.984H285.5V412.72L270.668 391.984H263.66V424H270.476V402.496L285.74 424ZM309.237 424.576C316.917 424.576 321.525 419.008 321.525 412.384C321.525 405.808 316.917 400.24 309.237 400.24C301.605 400.24 296.997 405.808 296.997 412.384C296.997 419.008 301.605 424.576 309.237 424.576ZM309.237 419.152C305.445 419.152 303.333 416.032 303.333 412.384C303.333 408.784 305.445 405.664 309.237 405.664C313.029 405.664 315.189 408.784 315.189 412.384C315.189 416.032 313.029 419.152 309.237 419.152ZM332.047 424H338.623L347.935 400.816H341.359L335.311 416.944L329.263 400.816H322.735L332.047 424ZM364.577 424H370.673V409.024C370.673 402.352 365.825 400.24 360.545 400.24C356.897 400.24 353.249 401.392 350.417 403.888L352.721 407.968C354.689 406.144 356.993 405.232 359.489 405.232C362.561 405.232 364.577 406.768 364.577 409.12V412.336C363.041 410.464 360.305 409.504 357.233 409.504C353.537 409.504 349.169 411.472 349.169 416.896C349.169 422.08 353.537 424.576 357.233 424.576C360.257 424.576 362.993 423.472 364.577 421.6V424ZM364.577 418.432C363.569 419.776 361.649 420.448 359.681 420.448C357.281 420.448 355.313 419.2 355.313 417.04C355.313 414.784 357.281 413.536 359.681 413.536C361.649 413.536 363.569 414.208 364.577 415.552V418.432Z" fill="black"/>
<path d="M71.255 492H79.511V481.152H87.287C94.487 481.152 98.423 476.4 98.423 470.64C98.423 464.832 94.487 459.984 87.287 459.984H71.255V492ZM90.023 470.592C90.023 472.752 88.391 474.144 86.183 474.144H79.511V466.944H86.183C88.391 466.944 90.023 468.384 90.023 470.592ZM101.907 492H109.299V477.312C110.259 475.968 112.803 475.152 114.723 475.152C115.491 475.152 116.115 475.248 116.547 475.392V468.24C113.763 468.24 110.835 469.872 109.299 471.744V468.816H101.907V492ZM130.995 492.576C138.963 492.576 143.667 486.912 143.667 480.384C143.667 473.856 138.963 468.24 130.995 468.24C123.123 468.24 118.371 473.856 118.371 480.384C118.371 486.912 123.123 492.576 130.995 492.576ZM130.995 486.048C127.779 486.048 126.003 483.504 126.003 480.384C126.003 477.312 127.779 474.768 130.995 474.768C134.259 474.768 136.083 477.312 136.083 480.384C136.083 483.504 134.259 486.048 130.995 486.048ZM160.549 492H168.661L160.741 480.096L168.133 468.816H160.021L156.085 475.104L152.101 468.816H143.989L151.429 480.096L143.509 492H151.573L156.085 484.992L160.549 492ZM174.743 465.888C177.095 465.888 178.967 464.016 178.967 461.664C178.967 459.312 177.095 457.44 174.743 457.44C172.391 457.44 170.519 459.312 170.519 461.664C170.519 464.016 172.391 465.888 174.743 465.888ZM171.047 492H178.439V468.816H171.047V492ZM213.029 492H220.373V475.2C220.373 470.448 217.685 468.24 213.413 468.24C209.765 468.24 206.741 470.352 205.397 472.368C204.437 469.632 202.133 468.24 198.821 468.24C195.173 468.24 192.197 470.304 191.189 471.648V468.816H183.797V492H191.189V477.024C191.957 476.064 193.349 474.768 195.317 474.768C197.573 474.768 198.389 476.112 198.389 477.888V492H205.781V477.024C206.501 476.064 207.941 474.768 209.957 474.768C212.165 474.768 213.029 476.112 213.029 477.888V492ZM239.477 492H246.869V477.504C246.869 470.304 241.637 468.24 236.069 468.24C232.517 468.24 228.533 469.296 225.557 471.84L228.197 476.496C230.069 474.912 232.469 474.048 234.773 474.048C237.749 474.048 239.477 475.392 239.477 477.408V480.336C238.085 478.608 235.349 477.648 232.277 477.648C228.725 477.648 224.309 479.328 224.309 484.944C224.309 490.176 228.725 492.576 232.277 492.576C235.253 492.576 238.037 491.424 239.477 489.696V492ZM239.477 486.048C238.709 487.152 236.981 487.728 235.349 487.728C233.381 487.728 231.653 486.864 231.653 485.04C231.653 483.216 233.381 482.352 235.349 482.352C236.981 482.352 238.709 482.928 239.477 483.984V486.048ZM286.5 492H294.468V459.984H286.164V478.416L273.204 459.984H264.708V492H272.964V472.656L286.5 492ZM311.135 492.576C319.103 492.576 323.807 486.912 323.807 480.384C323.807 473.856 319.103 468.24 311.135 468.24C303.263 468.24 298.511 473.856 298.511 480.384C298.511 486.912 303.263 492.576 311.135 492.576ZM311.135 486.048C307.919 486.048 306.143 483.504 306.143 480.384C306.143 477.312 307.919 474.768 311.135 474.768C314.399 474.768 316.223 477.312 316.223 480.384C316.223 483.504 314.399 486.048 311.135 486.048ZM333.656 492H341.528L350.648 468.816H342.824L337.544 483.504L332.312 468.816H324.536L333.656 492ZM366.556 492H373.948V477.504C373.948 470.304 368.716 468.24 363.148 468.24C359.596 468.24 355.612 469.296 352.636 471.84L355.276 476.496C357.148 474.912 359.548 474.048 361.852 474.048C364.828 474.048 366.556 475.392 366.556 477.408V480.336C365.164 478.608 362.428 477.648 359.356 477.648C355.804 477.648 351.388 479.328 351.388 484.944C351.388 490.176 355.804 492.576 359.356 492.576C362.332 492.576 365.116 491.424 366.556 489.696V492ZM366.556 486.048C365.788 487.152 364.06 487.728 362.428 487.728C360.46 487.728 358.732 486.864 358.732 485.04C358.732 483.216 360.46 482.352 362.428 482.352C364.06 482.352 365.788 482.928 366.556 483.984V486.048Z" fill="black"/>
<path d="M68.0608 560H77.7568V549.728H85.1488C92.6368 549.728 96.6688 544.928 96.6688 538.976C96.6688 532.976 92.6368 527.984 85.1488 527.984H68.0608V560ZM86.8288 538.88C86.8288 540.56 85.5328 541.664 83.9008 541.664H77.7568V536.048H83.9008C85.5328 536.048 86.8288 537.152 86.8288 538.88ZM99.65 560H108.29V545.888C109.25 544.736 111.602 544.256 113.426 544.256C114.242 544.256 114.962 544.352 115.394 544.496V536.24C112.754 536.24 109.73 537.776 108.29 539.456V536.816H99.65V560ZM129.777 560.576C138.033 560.576 142.833 554.864 142.833 548.384C142.833 541.904 138.033 536.24 129.777 536.24C121.569 536.24 116.769 541.904 116.769 548.384C116.769 554.864 121.569 560.576 129.777 560.576ZM129.777 552.944C127.137 552.944 125.649 550.976 125.649 548.384C125.649 545.84 127.137 543.872 129.777 543.872C132.465 543.872 133.953 545.84 133.953 548.384C133.953 550.976 132.465 552.944 129.777 552.944ZM158.847 560H168.303L160.671 548.096L167.775 536.816H158.319L155.199 542.24L152.079 536.816H142.623L149.727 548.096L142.143 560H151.551L155.247 553.856L158.847 560ZM174.47 534.416C177.158 534.416 179.318 532.256 179.318 529.568C179.318 526.88 177.158 524.72 174.47 524.72C171.782 524.72 169.622 526.88 169.622 529.568C169.622 532.256 171.782 534.416 174.47 534.416ZM170.15 560H178.79V536.816H170.15V560ZM213.219 560H221.859V543.2C221.859 538.4 218.979 536.24 214.707 536.24C210.963 536.24 207.939 538.304 206.595 540.32C205.539 537.44 203.187 536.24 199.923 536.24C196.179 536.24 193.251 538.16 192.243 539.456V536.816H183.603V560H192.243V545.696C192.819 545.024 193.875 543.872 195.747 543.872C197.715 543.872 198.387 545.072 198.387 546.464V560H207.027V545.696C207.603 545.024 208.659 543.872 210.579 543.872C212.499 543.872 213.219 545.072 213.219 546.464V560ZM240.073 560H248.713V545.984C248.713 538.256 243.097 536.24 237.337 536.24C233.833 536.24 229.513 537.248 226.393 539.744L229.321 545.072C231.145 543.68 233.593 542.816 235.753 542.816C238.585 542.816 240.073 544.064 240.073 545.696V548.336C238.825 546.752 236.089 545.792 233.065 545.792C229.609 545.792 225.097 547.184 225.097 552.944C225.097 558.224 229.609 560.576 233.065 560.576C235.945 560.576 238.777 559.424 240.073 557.792V560ZM240.073 553.712C239.497 554.528 238.009 554.96 236.665 554.96C235.225 554.96 233.641 554.528 233.641 553.088C233.641 551.648 235.225 551.168 236.665 551.168C238.009 551.168 239.497 551.6 240.073 552.416V553.712ZM287.424 560H296.736V527.984H287.04V544.112L275.904 527.984H265.92V560H275.616V542.816L287.424 560ZM313.152 560.576C321.408 560.576 326.208 554.864 326.208 548.384C326.208 541.904 321.408 536.24 313.152 536.24C304.944 536.24 300.144 541.904 300.144 548.384C300.144 554.864 304.944 560.576 313.152 560.576ZM313.152 552.944C310.512 552.944 309.024 550.976 309.024 548.384C309.024 545.84 310.512 543.872 313.152 543.872C315.84 543.872 317.328 545.84 317.328 548.384C317.328 550.976 315.84 552.944 313.152 552.944ZM335.287 560H344.455L353.431 536.816H344.311L339.847 550.064L335.431 536.816H326.311L335.287 560ZM368.511 560H377.151V545.984C377.151 538.256 371.535 536.24 365.775 536.24C362.271 536.24 357.951 537.248 354.831 539.744L357.759 545.072C359.583 543.68 362.031 542.816 364.191 542.816C367.023 542.816 368.511 544.064 368.511 545.696V548.336C367.263 546.752 364.527 545.792 361.503 545.792C358.047 545.792 353.535 547.184 353.535 552.944C353.535 558.224 358.047 560.576 361.503 560.576C364.383 560.576 367.215 559.424 368.511 557.792V560ZM368.511 553.712C367.935 554.528 366.447 554.96 365.103 554.96C363.663 554.96 362.079 554.528 362.079 553.088C362.079 551.648 363.663 551.168 365.103 551.168C366.447 551.168 367.935 551.6 368.511 552.416V553.712Z" fill="black"/>
</svg>
