<svg width="445" height="614" viewBox="0 0 445 614" fill="none" xmlns="http://www.w3.org/2000/svg">
<rect width="445" height="614" fill="#F3F5F7"/>
<path d="M38.416 69H39.44V48.616H46.672V47.656H31.216V48.616H38.416V69ZM61.059 69H62.019V58.152C62.019 54.504 60.259 53.16 57.187 53.16C55.043 53.16 52.739 54.568 51.587 55.976V47.656H50.627V69H51.587V56.936C52.675 55.4 54.947 54.024 57.059 54.024C59.459 54.024 61.059 54.92 61.059 58.152V69ZM68.0133 50.888C68.5253 50.888 68.9413 50.472 68.9413 49.96C68.9413 49.448 68.5253 49.032 68.0133 49.032C67.5333 49.032 67.0853 49.448 67.0853 49.96C67.0853 50.472 67.5333 50.888 68.0133 50.888ZM67.5333 69H68.4933V53.544H67.5333V69ZM84.434 69H85.394V58.216C85.394 54.568 83.634 53.16 80.562 53.16C78.418 53.16 76.114 54.568 74.962 55.976V53.544H74.002V69H74.962V56.936C76.05 55.4 78.322 54.024 80.434 54.024C82.834 54.024 84.434 54.984 84.434 58.216V69Z" fill="black"/>
<path d="M212.496 69H213.68L204.784 47.656H203.568L194.672 69H195.856L198.224 63.272H210.128L212.496 69ZM204.176 48.84L209.744 62.312H198.608L204.176 48.84ZM227.08 69H228.04V57.832C228.04 54.696 225.768 53.16 222.728 53.16C220.136 53.16 218.536 54.056 217.032 55.816L217.768 56.456C219.208 54.728 220.712 54.024 222.728 54.024C225.096 54.024 227.08 55.368 227.08 57.864V61.352C225.64 59.784 223.912 59.08 221.736 59.08C218.984 59.08 216.328 60.936 216.328 64.232C216.328 67.528 219.016 69.384 221.736 69.384C223.912 69.384 225.64 68.68 227.08 67.112V69ZM227.08 66.152C225.896 67.72 224.008 68.52 221.992 68.52C219.176 68.52 217.384 66.632 217.384 64.232C217.384 61.832 219.176 59.944 221.992 59.944C224.008 59.944 225.896 60.744 227.08 62.312V66.152ZM233.597 69H241.757C245.501 69 247.869 66.888 247.869 63.24C247.869 60.776 245.949 58.344 243.677 57.992C245.565 57.608 247.453 55.784 247.453 53.096C247.453 49.576 245.053 47.656 241.629 47.656H233.597V69ZM234.621 57.544V48.616H241.629C244.765 48.616 246.333 50.664 246.333 53.096C246.333 55.56 244.765 57.544 241.629 57.544H234.621ZM234.621 68.04V58.504H241.757C245.085 58.504 246.749 60.84 246.749 63.272C246.749 66.184 244.893 68.04 241.757 68.04H234.621ZM252.721 69H253.681V66.408C254.737 68.008 256.817 69.384 259.249 69.384C263.409 69.384 266.161 66.184 266.161 61.288C266.161 56.424 263.409 53.16 259.249 53.16C256.945 53.16 254.929 54.376 253.681 56.2V47.656H252.721V69ZM253.681 65.448V57.16C254.641 55.528 256.849 54.024 259.249 54.024C263.025 54.024 265.105 57.224 265.105 61.288C265.105 65.352 263.025 68.52 259.249 68.52C256.849 68.52 254.641 67.08 253.681 65.448ZM280.83 69.384C283.838 69.384 286.27 68.264 288.286 65.992L287.454 65.32C285.95 67.208 283.486 68.424 280.83 68.424C275.486 68.424 271.294 64.296 271.294 58.344C271.294 52.328 275.486 48.264 280.83 48.264C283.486 48.264 285.95 49.48 287.454 51.368L288.254 50.664C286.366 48.488 283.838 47.304 280.83 47.304C274.91 47.304 270.174 51.784 270.174 58.344C270.174 64.904 274.91 69.384 280.83 69.384ZM291.358 61.256C291.358 65.704 294.174 69.384 298.654 69.384C301.182 69.384 302.622 68.424 303.934 66.792L303.23 66.184C301.982 67.88 300.51 68.52 298.718 68.52C294.75 68.52 292.414 65.288 292.414 61.256C292.414 57.224 294.75 54.024 298.718 54.024C300.51 54.024 301.982 54.632 303.23 56.328L303.934 55.752C302.622 54.12 301.182 53.16 298.654 53.16C294.174 53.16 291.358 56.808 291.358 61.256ZM332.236 58.344C332.236 63.272 334.22 69.384 339.852 69.384C345.452 69.384 347.436 63.272 347.436 58.344C347.436 53.384 345.452 47.336 339.852 47.336C334.22 47.336 332.236 53.384 332.236 58.344ZM346.316 58.344C346.316 62.856 344.748 68.424 339.852 68.424C334.924 68.424 333.356 62.856 333.356 58.344C333.356 53.8 334.924 48.296 339.852 48.296C344.78 48.296 346.316 53.8 346.316 58.344ZM354.555 69H355.579V47.656H354.619L350.491 52.072L351.195 52.808L354.555 49.128V69ZM360.294 69H373.766V68.04H361.798C368.134 62.76 373.702 58.12 373.702 53.128C373.702 48.904 370.118 47.336 367.398 47.336C364.39 47.336 361.958 48.616 360.646 50.568L361.478 51.176C362.566 49.48 364.646 48.296 367.366 48.296C369.894 48.296 372.678 49.672 372.678 53.128C372.678 57.704 367.11 62.44 360.294 68.104V69ZM378.027 65.8C379.147 67.72 381.579 69.384 384.939 69.384C389.291 69.384 391.755 66.792 391.755 63.336C391.755 59.688 388.651 58.12 386.891 57.96C388.555 57.672 391.435 56.36 391.435 52.904C391.435 49.288 388.267 47.336 384.939 47.336C381.995 47.336 379.723 48.744 378.315 50.536L379.115 51.176C380.715 49.288 382.379 48.296 384.939 48.296C387.851 48.296 390.411 49.96 390.411 52.904C390.411 56.136 387.531 57.48 384.555 57.48C383.659 57.48 383.083 57.48 382.763 57.448V58.472C383.083 58.44 383.691 58.44 384.555 58.44C387.819 58.44 390.731 59.848 390.731 63.336C390.731 66.504 388.459 68.424 384.939 68.424C382.027 68.424 380.011 67.048 378.923 65.288L378.027 65.8Z" fill="black"/>
<path d="M32.656 140H44.816V138.336H34.48V118.656H32.656V140ZM49.549 121.92C50.253 121.92 50.829 121.344 50.829 120.64C50.829 119.936 50.253 119.36 49.549 119.36C48.877 119.36 48.269 119.936 48.269 120.64C48.269 121.344 48.877 121.92 49.549 121.92ZM48.717 140H50.381V124.544H48.717V140ZM55.5928 143.936C57.4168 145.792 59.0808 146.272 61.6728 146.272C65.4488 146.272 68.6488 144.576 68.6488 139.84V124.544H66.9528V127.04C65.7048 125.28 63.7528 124.16 61.5768 124.16C57.4808 124.16 54.6648 127.36 54.6648 132.256C54.6648 137.216 57.4808 140.32 61.5768 140.32C63.8808 140.32 65.8648 139.008 66.9528 137.44V139.872C66.9528 143.424 64.4888 144.832 61.6728 144.832C59.3688 144.832 57.8648 144.256 56.5528 142.656L55.5928 143.936ZM66.9528 136C66.0568 137.504 64.0088 138.816 61.8648 138.816C58.4408 138.816 56.4568 136 56.4568 132.256C56.4568 128.512 58.4408 125.664 61.8648 125.664C64.0088 125.664 66.0568 126.976 66.9528 128.48V136ZM84.2428 140H85.9068V129.12C85.9068 125.632 84.1788 124.16 81.0428 124.16C78.8028 124.16 76.5948 125.536 75.4748 126.88V118.656H73.8108V140H75.4748V128.32C76.4668 126.944 78.5148 125.664 80.4988 125.664C82.7388 125.664 84.2428 126.496 84.2428 129.472V140ZM94.452 140.384C95.732 140.384 96.468 140 97.076 139.424L96.436 138.144C96.084 138.528 95.444 138.88 94.708 138.88C93.62 138.88 93.108 138.016 93.108 136.768V126.048H96.244V124.544H93.108V120.32H91.412V124.544H88.852V126.048H91.412V137.024C91.412 139.136 92.404 140.384 94.452 140.384Z" fill="black"/>
<path d="M212.176 140H214.224L205.488 118.656H203.216L194.48 140H196.528L198.672 134.752H210.032L212.176 140ZM204.336 120.448L209.456 133.088H199.248L204.336 120.448ZM227.135 140H228.799V129.12C228.799 125.664 226.303 124.16 223.135 124.16C220.607 124.16 218.815 125.024 217.215 126.784L218.143 127.904C219.551 126.304 221.055 125.632 222.975 125.632C225.279 125.632 227.135 126.912 227.135 129.184V132.32C225.759 130.816 224.031 130.144 221.887 130.144C219.199 130.144 216.479 131.872 216.479 135.232C216.479 138.56 219.231 140.384 221.887 140.384C224.031 140.384 225.759 139.68 227.135 138.176V140ZM227.135 136.96C226.047 138.368 224.319 139.072 222.463 139.072C219.903 139.072 218.239 137.44 218.239 135.264C218.239 133.088 219.903 131.424 222.463 131.424C224.319 131.424 226.047 132.16 227.135 133.568V136.96ZM234.062 140H242.99C246.83 140 249.134 137.792 249.134 134.24C249.134 131.744 247.246 129.344 244.974 128.992C246.894 128.608 248.718 126.784 248.718 124.096C248.718 120.736 246.382 118.656 242.83 118.656H234.062V140ZM235.886 128.224V120.32H242.606C245.358 120.32 246.798 122.112 246.798 124.288C246.798 126.496 245.358 128.224 242.606 128.224H235.886ZM235.886 138.336V129.888H242.734C245.71 129.888 247.214 131.936 247.214 134.112C247.214 136.704 245.55 138.336 242.734 138.336H235.886ZM253.655 140H255.319V137.536C256.407 139.136 258.391 140.384 260.695 140.384C264.791 140.384 267.607 137.248 267.607 132.288C267.607 127.392 264.823 124.16 260.695 124.16C258.519 124.16 256.567 125.28 255.319 127.04V118.656H253.655V140ZM255.319 136.128V128.48C256.215 127.008 258.263 125.664 260.407 125.664C263.863 125.664 265.815 128.544 265.815 132.288C265.815 136.032 263.863 138.88 260.407 138.88C258.263 138.88 256.215 137.6 255.319 136.128ZM281.952 140.384C285.408 140.384 287.904 138.912 289.792 136.576L288.256 135.616C286.912 137.472 284.576 138.72 281.952 138.72C276.992 138.72 273.12 134.848 273.12 129.344C273.12 123.776 276.992 119.968 281.952 119.968C284.576 119.968 286.912 121.216 288.256 123.072L289.792 122.08C287.968 119.808 285.408 118.304 281.952 118.304C275.968 118.304 271.2 122.784 271.2 129.344C271.2 135.904 275.968 140.384 281.952 140.384ZM292.54 132.256C292.54 136.768 295.516 140.384 300.06 140.384C302.716 140.384 304.284 139.328 305.532 137.728L304.38 136.704C303.228 138.24 301.852 138.88 300.156 138.88C296.54 138.88 294.332 135.968 294.332 132.256C294.332 128.544 296.54 125.664 300.156 125.664C301.852 125.664 303.228 126.272 304.38 127.808L305.532 126.784C304.284 125.216 302.716 124.16 300.06 124.16C295.516 124.16 292.54 127.744 292.54 132.256ZM333.356 129.344C333.356 134.4 335.5 140.384 341.26 140.384C346.956 140.384 349.132 134.4 349.132 129.344C349.132 124.256 346.956 118.336 341.26 118.336C335.5 118.336 333.356 124.256 333.356 129.344ZM347.18 129.344C347.18 133.728 345.708 138.72 341.26 138.72C336.748 138.72 335.276 133.728 335.276 129.344C335.276 124.928 336.748 120 341.26 120C345.74 120 347.18 124.928 347.18 129.344ZM356.345 140H358.169V118.656H356.505L351.769 123.616L352.921 124.8L356.345 121.152V140ZM362.605 140H376.685V138.336H365.453C371.629 133.344 376.589 129.056 376.589 124.384C376.589 120.128 373.005 118.336 369.869 118.336C366.861 118.336 364.269 119.584 362.765 121.632L364.013 122.784C365.165 121.152 367.213 120 369.869 120C372.205 120 374.733 121.28 374.733 124.384C374.733 128.48 369.869 132.64 362.605 138.496V140ZM380.462 136.832C381.678 138.752 384.238 140.384 387.726 140.384C392.27 140.384 394.926 137.792 394.926 134.272C394.926 130.752 391.886 129.152 390.03 128.96C391.854 128.64 394.606 127.232 394.606 123.968C394.606 120.352 391.438 118.336 387.726 118.336C384.59 118.336 382.222 119.744 380.75 121.568L381.902 122.72C383.47 120.96 385.198 120 387.63 120C390.382 120 392.75 121.472 392.75 124.128C392.75 126.976 390.158 128.192 387.342 128.192C386.478 128.192 385.678 128.192 385.358 128.16V129.888C385.678 129.856 386.478 129.856 387.342 129.856C390.542 129.856 393.07 131.104 393.07 134.176C393.07 136.992 390.99 138.72 387.694 138.72C384.974 138.72 382.894 137.44 381.71 135.744L380.462 136.832Z" fill="black"/>
<path d="M44.848 211H47.984L42.224 202.296C45.136 202.04 47.76 199.928 47.76 196.088C47.76 192.152 44.976 189.656 41.072 189.656H32.496V211H35.152V202.52H39.408L44.848 211ZM45.008 196.088C45.008 198.488 43.28 200.184 40.752 200.184H35.152V192.024H40.752C43.28 192.024 45.008 193.688 45.008 196.088ZM50.004 203.256C50.004 208.088 53.3 211.384 57.876 211.384C60.404 211.384 62.484 210.552 64.02 209.016L62.868 207.448C61.652 208.696 59.86 209.4 58.1 209.4C54.772 209.4 52.724 206.968 52.532 204.056H65.044V203.448C65.044 198.808 62.292 195.16 57.62 195.16C53.204 195.16 50.004 198.776 50.004 203.256ZM57.588 197.144C61.108 197.144 62.644 199.992 62.676 202.296H52.532C52.66 199.928 54.292 197.144 57.588 197.144ZM68.8993 214.968C70.7233 216.76 72.5153 217.272 75.1393 217.272C78.9153 217.272 82.4993 215.672 82.4993 210.552V195.544H80.0993V197.88C78.8513 196.184 76.9953 195.16 74.9153 195.16C70.8513 195.16 68.0353 198.232 68.0353 203.192C68.0353 208.184 70.8833 211.192 74.9153 211.192C77.0913 211.192 78.9793 210.008 80.0993 208.44V210.648C80.0993 214.04 77.6993 215.288 75.1393 215.288C72.9313 215.288 71.3953 214.712 70.1153 213.176L68.8993 214.968ZM80.0993 206.552C79.2673 207.896 77.4113 209.08 75.4913 209.08C72.3873 209.08 70.5312 206.584 70.5312 203.192C70.5312 199.768 72.3873 197.304 75.4913 197.304C77.4113 197.304 79.2673 198.456 80.0993 199.8V206.552ZM97.7383 211H100.138V195.544H97.7383V206.904C96.8423 208.152 95.0503 209.24 93.1623 209.24C91.0823 209.24 89.7063 208.44 89.7063 205.72V195.544H87.3063V206.456C87.3063 209.816 89.0023 211.384 92.2343 211.384C94.5383 211.384 96.5543 210.168 97.7383 208.824V211ZM104.931 211H107.331V189.656H104.931V211ZM121.783 211H124.183V200.376C124.183 196.632 121.463 195.16 118.199 195.16C115.671 195.16 113.687 195.992 112.023 197.72L113.143 199.384C114.519 197.912 116.023 197.24 117.879 197.24C120.119 197.24 121.783 198.424 121.783 200.504V203.288C120.535 201.848 118.775 201.176 116.663 201.176C114.039 201.176 111.255 202.808 111.255 206.264C111.255 209.624 114.039 211.384 116.663 211.384C118.743 211.384 120.503 210.648 121.783 209.24V211ZM121.783 207.736C120.855 209.016 119.223 209.656 117.527 209.656C115.287 209.656 113.719 208.248 113.719 206.296C113.719 204.312 115.287 202.904 117.527 202.904C119.223 202.904 120.855 203.544 121.783 204.824V207.736ZM128.994 211H131.394V200.056C132.098 198.808 134.114 197.592 135.586 197.592C135.97 197.592 136.258 197.624 136.546 197.688V195.224C134.434 195.224 132.642 196.408 131.394 198.04V195.544H128.994V211Z" fill="black"/>
<path d="M211.824 211H214.768L206.16 189.656H202.864L194.288 211H197.232L199.12 206.264H209.936L211.824 211ZM204.528 192.024L209.136 203.896H199.888L204.528 192.024ZM227.127 211H229.527V200.376C229.527 196.632 226.807 195.16 223.543 195.16C221.015 195.16 219.031 195.992 217.367 197.72L218.487 199.384C219.863 197.912 221.367 197.24 223.223 197.24C225.463 197.24 227.127 198.424 227.127 200.504V203.288C225.879 201.848 224.119 201.176 222.007 201.176C219.383 201.176 216.599 202.808 216.599 206.264C216.599 209.624 219.383 211.384 222.007 211.384C224.087 211.384 225.847 210.648 227.127 209.24V211ZM227.127 207.736C226.199 209.016 224.567 209.656 222.871 209.656C220.631 209.656 219.062 208.248 219.062 206.296C219.062 204.312 220.631 202.904 222.871 202.904C224.567 202.904 226.199 203.544 227.127 204.824V207.736ZM234.434 211H244.162C248.066 211 250.338 208.664 250.338 205.24C250.338 202.68 248.45 200.344 246.178 199.992C248.13 199.576 249.922 197.784 249.922 195.096C249.922 191.896 247.65 189.656 243.938 189.656H234.434V211ZM237.09 198.904V192.024H243.49C245.89 192.024 247.17 193.56 247.17 195.48C247.17 197.432 245.89 198.904 243.49 198.904H237.09ZM237.09 208.632V201.272H243.618C246.242 201.272 247.586 203 247.586 204.952C247.586 207.224 246.114 208.632 243.618 208.632H237.09ZM254.463 211H256.863V208.696C258.015 210.264 259.903 211.384 262.079 211.384C266.111 211.384 268.958 208.312 268.958 203.288C268.958 198.36 266.111 195.16 262.079 195.16C259.967 195.16 258.111 196.184 256.863 197.88V189.656H254.463V211ZM256.863 206.808V199.8C257.695 198.456 259.583 197.304 261.47 197.304C264.607 197.304 266.463 199.864 266.463 203.288C266.463 206.712 264.607 209.24 261.47 209.24C259.583 209.24 257.695 208.152 256.863 206.808ZM282.981 211.384C286.853 211.384 289.413 209.592 291.205 207.16L288.933 205.912C287.717 207.736 285.509 209.016 282.981 209.016C278.405 209.016 274.853 205.4 274.853 200.344C274.853 195.256 278.405 191.672 282.981 191.672C285.509 191.672 287.717 192.984 288.933 194.776L291.173 193.528C289.477 191.128 286.853 189.304 282.981 189.304C276.933 189.304 272.101 193.784 272.101 200.344C272.101 206.904 276.933 211.384 282.981 211.384ZM293.598 203.256C293.598 207.864 296.702 211.384 301.31 211.384C304.126 211.384 305.79 210.232 306.974 208.696L305.374 207.224C304.35 208.6 303.038 209.24 301.438 209.24C298.142 209.24 296.094 206.68 296.094 203.256C296.094 199.832 298.142 197.304 301.438 197.304C303.038 197.304 304.35 197.912 305.374 199.32L306.974 197.848C305.79 196.312 304.126 195.16 301.31 195.16C296.702 195.16 293.598 198.68 293.598 203.256ZM334.32 200.344C334.32 205.528 336.624 211.384 342.48 211.384C348.304 211.384 350.64 205.528 350.64 200.344C350.64 195.128 348.304 189.336 342.48 189.336C336.624 189.336 334.32 195.128 334.32 200.344ZM347.92 200.344C347.92 204.6 346.544 209.016 342.48 209.016C338.416 209.016 337.04 204.6 337.04 200.344C337.04 196.088 338.416 191.704 342.48 191.704C346.544 191.704 347.92 196.088 347.92 200.344ZM357.977 211H360.633V189.656H358.297L352.953 195.16L354.553 196.792L357.977 193.176V211ZM364.853 211H379.509V208.632H369.045C374.997 203.928 379.413 199.96 379.413 195.608C379.413 191.352 375.797 189.336 372.245 189.336C369.237 189.336 366.453 190.552 364.821 192.696L366.453 194.392C367.701 192.792 369.685 191.704 372.245 191.704C374.453 191.704 376.693 192.888 376.693 195.608C376.693 199.288 372.533 202.84 364.853 208.888V211ZM382.866 207.864C384.178 209.784 386.834 211.384 390.45 211.384C395.154 211.384 398.002 208.792 398.002 205.24C398.002 201.816 395.026 200.152 393.074 199.992C395.09 199.64 397.682 198.104 397.682 195.032C397.682 191.416 394.546 189.336 390.45 189.336C387.154 189.336 384.69 190.776 383.154 192.632L384.626 194.296C386.194 192.6 387.922 191.704 390.258 191.704C392.85 191.704 395.026 192.984 395.026 195.352C395.026 197.816 392.754 198.872 390.066 198.872C389.202 198.872 388.21 198.872 387.858 198.84V201.272C388.178 201.24 389.17 201.24 390.066 201.24C393.202 201.24 395.378 202.36 395.378 205.016C395.378 207.48 393.49 209.016 390.385 209.016C387.858 209.016 385.682 207.864 384.434 206.2L382.866 207.864Z" fill="black"/>
<path d="M50.736 282H53.936V260.656H49.36L43.152 275.984L36.944 260.656H32.368V282H35.568V265.04L42.48 282H43.824L50.736 265.04V282ZM57.6565 274.256C57.6565 279.12 61.0485 282.384 65.6565 282.384C68.1525 282.384 70.3285 281.584 71.8645 280.08L70.5205 278.192C69.3685 279.376 67.5765 280.016 65.9445 280.016C62.8405 280.016 60.9205 277.84 60.6965 275.216H72.9205V274.512C72.9205 269.776 70.0405 266.16 65.4005 266.16C60.8885 266.16 57.6565 269.776 57.6565 274.256ZM65.4005 268.528C68.6645 268.528 70.0405 271.088 70.1045 273.136H60.6645C60.8245 271.024 62.2965 268.528 65.4005 268.528ZM87.5308 282H90.4108V260.656H87.5308V268.784C86.2828 267.12 84.4588 266.16 82.4748 266.16C78.4427 266.16 75.5628 269.328 75.5628 274.288C75.5628 279.344 78.4427 282.384 82.4748 282.384C84.5228 282.384 86.3788 281.328 87.5308 279.792V282ZM87.5308 277.584C86.7308 278.832 85.0028 279.824 83.2428 279.824C80.3628 279.824 78.5708 277.488 78.5708 274.288C78.5708 271.056 80.3628 268.72 83.2428 268.72C85.0028 268.72 86.7308 269.744 87.5308 270.992V277.584ZM96.4308 263.952C97.4548 263.952 98.2868 263.152 98.2868 262.128C98.2868 261.104 97.4548 260.272 96.4308 260.272C95.4388 260.272 94.5748 261.104 94.5748 262.128C94.5748 263.152 95.4388 263.952 96.4308 263.952ZM95.0228 282H97.9028V266.544H95.0228V282ZM112.924 282H115.804V266.544H112.924V277.648C112.06 278.8 110.428 279.824 108.635 279.824C106.652 279.824 105.372 279.056 105.372 276.496V266.544H102.492V277.456C102.492 280.72 104.124 282.384 107.42 282.384C109.788 282.384 111.74 281.168 112.924 279.888V282ZM139.151 282H142.031V270.832C142.031 267.728 140.495 266.16 137.647 266.16C135.375 266.16 133.327 267.6 132.431 269.04C131.951 267.376 130.575 266.16 128.239 266.16C125.935 266.16 123.887 267.76 123.247 268.72V266.544H120.367V282H123.247V270.96C124.015 269.84 125.519 268.72 127.023 268.72C128.975 268.72 129.743 269.904 129.743 271.696V282H132.623V270.928C133.359 269.808 134.895 268.72 136.463 268.72C138.351 268.72 139.151 269.904 139.151 271.696V282Z" fill="black"/>
<path d="M211.6 282H215.12L206.64 260.656H202.64L194.16 282H197.68L199.408 277.584H209.872L211.6 282ZM204.624 263.44L208.944 274.736H200.336L204.624 263.44ZM227.153 282H230.033V271.568C230.033 267.632 227.185 266.16 223.825 266.16C221.329 266.16 219.217 266.992 217.489 268.688L218.737 270.672C220.113 269.296 221.617 268.624 223.377 268.624C225.585 268.624 227.153 269.776 227.153 271.696V274.256C225.969 272.88 224.177 272.208 222.097 272.208C219.505 272.208 216.721 273.744 216.721 277.264C216.721 280.656 219.536 282.384 222.097 282.384C224.177 282.384 225.937 281.648 227.153 280.304V282ZM227.153 278.608C226.289 279.76 224.785 280.368 223.185 280.368C221.105 280.368 219.633 279.12 219.633 277.296C219.633 275.472 221.105 274.224 223.185 274.224C224.785 274.224 226.289 274.832 227.153 275.984V278.608ZM234.712 282H244.984C248.92 282 251.16 279.6 251.16 276.24C251.16 273.648 249.304 271.344 247.032 270.992C248.984 270.576 250.744 268.784 250.744 266.096C250.744 262.992 248.536 260.656 244.728 260.656H234.712V282ZM237.912 269.712V263.472H244.12C246.264 263.472 247.448 264.848 247.448 266.608C247.448 268.368 246.264 269.712 244.12 269.712H237.912ZM237.912 279.184V272.528H244.28C246.648 272.528 247.864 274.064 247.864 275.824C247.864 277.904 246.52 279.184 244.28 279.184H237.912ZM255.054 282H257.934V279.792C259.086 281.328 260.91 282.384 262.99 282.384C266.99 282.384 269.87 279.344 269.87 274.288C269.87 269.328 267.022 266.16 262.99 266.16C260.974 266.16 259.15 267.12 257.934 268.784V260.656H255.054V282ZM257.934 277.584V271.024C258.702 269.776 260.462 268.72 262.222 268.72C265.102 268.72 266.894 271.056 266.894 274.288C266.894 277.52 265.102 279.824 262.222 279.824C260.462 279.824 258.702 278.832 257.934 277.584ZM283.666 282.384C287.858 282.384 290.45 280.368 292.146 277.872L289.426 276.432C288.306 278.224 286.194 279.536 283.666 279.536C279.346 279.536 276.018 276.112 276.018 271.344C276.018 266.544 279.346 263.152 283.666 263.152C286.194 263.152 288.306 264.464 289.426 266.256L292.146 264.816C290.482 262.32 287.858 260.304 283.666 260.304C277.586 260.304 272.722 264.784 272.722 271.344C272.722 277.904 277.586 282.384 283.666 282.384ZM294.313 274.256C294.313 278.896 297.513 282.384 302.185 282.384C305.097 282.384 306.857 281.168 307.977 279.664L306.057 277.904C305.129 279.184 303.881 279.824 302.313 279.824C299.273 279.824 297.321 277.456 297.321 274.256C297.321 271.056 299.273 268.72 302.313 268.72C303.881 268.72 305.129 269.328 306.057 270.64L307.977 268.88C306.857 267.376 305.097 266.16 302.185 266.16C297.513 266.16 294.313 269.616 294.313 274.256ZM335.066 271.344C335.066 276.624 337.498 282.384 343.418 282.384C349.338 282.384 351.77 276.624 351.77 271.344C351.77 266.064 349.338 260.336 343.418 260.336C337.498 260.336 335.066 266.064 335.066 271.344ZM348.506 271.344C348.506 275.504 347.194 279.536 343.418 279.536C339.642 279.536 338.33 275.504 338.33 271.344C338.33 267.184 339.642 263.184 343.418 263.184C347.194 263.184 348.506 267.184 348.506 271.344ZM359.17 282H362.37V260.656H359.554L353.826 266.512L355.714 268.464L359.17 264.848V282ZM366.414 282H381.454V279.184H371.502C377.358 274.672 381.358 270.928 381.358 266.768C381.358 262.512 377.742 260.336 373.902 260.336C370.926 260.336 368.014 261.52 366.254 263.728L368.142 265.808C369.454 264.24 371.406 263.184 373.934 263.184C376.014 263.184 378.094 264.272 378.094 266.768C378.094 270.128 374.414 273.328 366.414 279.472V282ZM384.488 278.896C385.864 280.816 388.616 282.384 392.328 282.384C397.16 282.384 400.136 279.792 400.136 276.208C400.136 272.848 397.192 271.184 395.176 270.992C397.288 270.608 399.816 269.04 399.816 266.064C399.816 262.48 396.68 260.336 392.328 260.336C388.904 260.336 386.376 261.776 384.776 263.664L386.472 265.648C388.04 264.048 389.8 263.184 392.04 263.184C394.568 263.184 396.616 264.336 396.616 266.512C396.616 268.72 394.504 269.68 391.912 269.68C391.08 269.68 389.96 269.68 389.608 269.648V272.56C389.928 272.528 391.048 272.528 391.912 272.528C395.016 272.528 396.936 273.52 396.936 275.888C396.936 278.128 395.176 279.536 392.232 279.536C389.832 279.536 387.624 278.448 386.28 276.816L384.488 278.896Z" fill="black"/>
<path d="M30.896 349.992C32.784 352.008 35.632 353.384 39.568 353.384C45.328 353.384 47.824 350.344 47.824 346.792C47.824 342.152 43.632 341.064 40.112 340.168C37.584 339.528 35.408 338.984 35.408 337.32C35.408 335.72 36.816 334.664 39.024 334.664C41.264 334.664 43.536 335.432 45.2 337.096L47.344 334.312C45.36 332.392 42.672 331.336 39.344 331.336C34.672 331.336 31.568 334.056 31.568 337.576C31.568 342.088 35.664 343.112 39.152 343.976C41.744 344.648 44.016 345.224 44.016 347.144C44.016 348.552 42.8 350.056 39.728 350.056C36.752 350.056 34.448 348.68 32.976 347.112L30.896 349.992ZM50.216 345.256C50.216 350.152 53.672 353.384 58.312 353.384C60.776 353.384 63.048 352.616 64.584 351.144L63.048 348.936C61.96 350.024 60.168 350.632 58.664 350.632C55.752 350.632 53.992 348.712 53.736 346.376H65.672V345.576C65.672 340.712 62.696 337.16 58.056 337.16C53.48 337.16 50.216 340.776 50.216 345.256ZM58.056 339.912C61.096 339.912 62.344 342.184 62.408 344.008H53.704C53.864 342.12 55.176 339.912 58.056 339.912ZM87.9325 353H91.2925V341.832C91.2925 338.696 89.6925 337.16 86.8445 337.16C84.5405 337.16 82.4925 338.6 81.5965 340.008C81.0845 338.312 79.6765 337.16 77.3725 337.16C75.0365 337.16 72.9885 338.696 72.3485 339.656V337.544H68.9885V353H72.3485V342.216C73.0525 341.192 74.4285 340.136 75.9005 340.136C77.7245 340.136 78.4605 341.256 78.4605 342.92V353H81.8205V342.184C82.4925 341.192 83.9005 340.136 85.4045 340.136C87.1965 340.136 87.9325 341.256 87.9325 342.92V353ZM97.3088 334.984C98.4608 334.984 99.3888 334.056 99.3888 332.904C99.3888 331.752 98.4608 330.824 97.3088 330.824C96.1888 330.824 95.2288 331.752 95.2288 332.904C95.2288 334.056 96.1888 334.984 97.3088 334.984ZM95.6448 353H99.0048V337.544H95.6448V353ZM103.364 353H106.724V350.888C107.908 352.424 109.668 353.384 111.684 353.384C115.62 353.384 118.532 350.376 118.532 345.288C118.532 340.296 115.652 337.16 111.684 337.16C109.732 337.16 107.94 338.056 106.724 339.688V331.656H103.364V353ZM106.724 348.36V342.248C107.46 341.096 109.124 340.136 110.692 340.136C113.38 340.136 115.076 342.28 115.076 345.288C115.076 348.296 113.38 350.408 110.692 350.408C109.124 350.408 107.46 349.512 106.724 348.36ZM128.933 353.384C133.893 353.384 136.901 349.704 136.901 345.256C136.901 340.84 133.893 337.16 128.933 337.16C124.037 337.16 120.997 340.84 120.997 345.256C120.997 349.704 124.037 353.384 128.933 353.384ZM128.933 350.408C126.085 350.408 124.485 348.008 124.485 345.256C124.485 342.536 126.085 340.136 128.933 340.136C131.813 340.136 133.413 342.536 133.413 345.256C133.413 348.008 131.813 350.408 128.933 350.408ZM140.301 353H143.661V331.656H140.301V353ZM158.9 353H162.26V331.656H158.9V339.688C157.652 338.056 155.86 337.16 153.94 337.16C149.94 337.16 147.06 340.296 147.06 345.288C147.06 350.376 149.972 353.384 153.94 353.384C155.924 353.384 157.716 352.424 158.9 350.888V353ZM158.9 348.36C158.132 349.512 156.5 350.408 154.9 350.408C152.244 350.408 150.548 348.264 150.548 345.288C150.548 342.28 152.244 340.136 154.9 340.136C156.5 340.136 158.132 341.064 158.9 342.216V348.36Z" fill="black"/>
<path d="M211.376 353H215.472L207.088 331.656H202.416L194.032 353H198.128L199.696 348.904H209.808L211.376 353ZM204.752 334.824L208.752 345.608H200.752L204.752 334.824ZM227.147 353H230.507V342.76C230.507 338.6 227.499 337.16 224.075 337.16C221.611 337.16 219.371 337.96 217.579 339.656L218.955 341.992C220.299 340.68 221.803 340.04 223.531 340.04C225.675 340.04 227.147 341.128 227.147 342.92V345.224C226.027 343.912 224.235 343.24 222.155 343.24C219.627 343.24 216.779 344.712 216.779 348.264C216.779 351.688 219.627 353.384 222.155 353.384C224.203 353.384 225.995 352.648 227.147 351.336V353ZM227.147 349.48C226.379 350.536 224.939 351.08 223.467 351.08C221.579 351.08 220.171 349.992 220.171 348.328C220.171 346.632 221.579 345.544 223.467 345.544C224.939 345.544 226.379 346.088 227.147 347.144V349.48ZM234.96 353H245.744C249.744 353 251.952 350.536 251.952 347.24C251.952 344.616 250.096 342.344 247.824 341.992C249.808 341.576 251.536 339.784 251.536 337.096C251.536 334.088 249.36 331.656 245.456 331.656H234.96V353ZM238.704 340.488V334.952H244.688C246.608 334.952 247.696 336.136 247.696 337.736C247.696 339.336 246.608 340.488 244.688 340.488H238.704ZM238.704 349.704V343.784H244.848C246.992 343.784 248.112 345.128 248.112 346.728C248.112 348.584 246.896 349.704 244.848 349.704H238.704ZM255.614 353H258.974V350.888C260.158 352.424 261.918 353.384 263.934 353.384C267.87 353.384 270.782 350.376 270.782 345.288C270.782 340.296 267.902 337.16 263.934 337.16C261.982 337.16 260.19 338.056 258.974 339.688V331.656H255.614V353ZM258.974 348.36V342.248C259.71 341.096 261.374 340.136 262.942 340.136C265.63 340.136 267.326 342.28 267.326 345.288C267.326 348.296 265.63 350.408 262.942 350.408C261.374 350.408 259.71 349.512 258.974 348.36ZM284.383 353.384C288.863 353.384 291.487 351.144 293.119 348.584L289.919 346.952C288.895 348.744 286.847 350.056 284.383 350.056C280.319 350.056 277.183 346.824 277.183 342.344C277.183 337.864 280.319 334.632 284.383 334.632C286.847 334.632 288.895 335.976 289.919 337.736L293.119 336.104C291.519 333.544 288.863 331.304 284.383 331.304C278.239 331.304 273.343 335.784 273.343 342.344C273.343 348.904 278.239 353.384 284.383 353.384ZM295.06 345.256C295.06 349.96 298.356 353.384 303.06 353.384C306.068 353.384 307.892 352.104 308.98 350.632L306.772 348.584C305.908 349.768 304.724 350.408 303.22 350.408C300.404 350.408 298.548 348.264 298.548 345.256C298.548 342.248 300.404 340.136 303.22 340.136C304.724 340.136 305.908 340.744 306.772 341.96L308.98 339.912C307.892 338.44 306.068 337.16 303.06 337.16C298.356 337.16 295.06 340.584 295.06 345.256ZM335.718 342.344C335.718 347.72 338.278 353.384 344.262 353.384C350.246 353.384 352.806 347.72 352.806 342.344C352.806 336.968 350.246 331.336 344.262 331.336C338.278 331.336 335.718 336.968 335.718 342.344ZM348.998 342.344C348.998 346.408 347.75 350.056 344.262 350.056C340.774 350.056 339.526 346.408 339.526 342.344C339.526 338.28 340.774 334.664 344.262 334.664C347.75 334.664 348.998 338.28 348.998 342.344ZM360.269 353H364.013V331.656H360.749L354.605 337.864L356.781 340.136L360.269 336.52V353ZM367.881 353H383.337V349.704H373.865C379.593 345.384 383.209 341.864 383.209 337.928C383.209 333.672 379.593 331.336 375.465 331.336C372.489 331.336 369.481 332.488 367.593 334.76L369.769 337.224C371.113 335.688 373.033 334.664 375.529 334.664C377.481 334.664 379.401 335.688 379.401 337.928C379.401 341 376.169 343.784 367.881 350.056V353ZM386.081 349.928C387.521 351.848 390.337 353.384 394.145 353.384C399.073 353.384 402.177 350.792 402.177 347.176C402.177 343.88 399.297 342.184 397.217 341.992C399.425 341.608 401.857 339.944 401.857 337.096C401.857 333.512 398.753 331.336 394.145 331.336C390.593 331.336 388.001 332.776 386.368 334.696L388.289 337.032C389.825 335.496 391.617 334.664 393.793 334.664C396.193 334.664 398.113 335.688 398.113 337.672C398.113 339.624 396.225 340.488 393.729 340.488C392.897 340.488 391.649 340.488 391.265 340.456V343.816C391.585 343.784 392.833 343.784 393.729 343.784C396.769 343.784 398.465 344.68 398.465 346.792C398.465 348.776 396.833 350.056 394.017 350.056C391.745 350.056 389.473 349.064 388.097 347.464L386.081 349.928Z" fill="black"/>
<path d="M32.112 424H43.696C47.76 424 49.904 421.44 49.904 418.24C49.904 415.552 48.08 413.344 45.808 412.992C47.824 412.576 49.488 410.784 49.488 408.096C49.488 405.248 47.408 402.656 43.344 402.656H32.112V424ZM36.656 411.232V406.528H42.352C43.888 406.528 44.848 407.552 44.848 408.864C44.848 410.24 43.888 411.232 42.352 411.232H36.656ZM36.656 420.128V415.104H42.512C44.304 415.104 45.264 416.256 45.264 417.6C45.264 419.136 44.24 420.128 42.512 420.128H36.656ZM60.4028 424.384C65.5228 424.384 68.5948 420.672 68.5948 416.256C68.5948 411.872 65.5228 408.16 60.4028 408.16C55.3148 408.16 52.2428 411.872 52.2428 416.256C52.2428 420.672 55.3148 424.384 60.4028 424.384ZM60.4028 420.768C57.8748 420.768 56.4668 418.688 56.4668 416.256C56.4668 413.856 57.8748 411.776 60.4028 411.776C62.9308 411.776 64.3708 413.856 64.3708 416.256C64.3708 418.688 62.9308 420.768 60.4028 420.768ZM71.6098 424H75.6738V402.656H71.6098V424ZM90.3275 424H94.4235V402.656H90.3275V410.528C89.1115 408.96 87.3835 408.16 85.5595 408.16C81.6235 408.16 78.7115 411.232 78.7115 416.288C78.7115 421.44 81.6555 424.384 85.5595 424.384C87.4155 424.384 89.1115 423.552 90.3275 422.016V424ZM90.3275 419.008C89.6555 420.032 88.1835 420.768 86.8075 420.768C84.5035 420.768 82.9035 418.944 82.9035 416.288C82.9035 413.6 84.5035 411.776 86.8075 411.776C88.1835 411.776 89.6555 412.512 90.3275 413.536V419.008Z" fill="black"/>
<path d="M211.056 424H216.016L207.792 402.656H202.096L193.84 424H198.832L200.176 420.32H209.712L211.056 424ZM204.944 406.592L208.464 416.384H201.392L204.944 406.592ZM227.171 424H231.235V414.016C231.235 409.568 228.003 408.16 224.483 408.16C222.051 408.16 219.619 408.928 217.731 410.592L219.267 413.312C220.579 412.096 222.115 411.488 223.779 411.488C225.827 411.488 227.171 412.512 227.171 414.08V416.224C226.147 414.976 224.323 414.336 222.275 414.336C219.811 414.336 216.899 415.648 216.899 419.264C216.899 422.72 219.811 424.384 222.275 424.384C224.291 424.384 226.115 423.648 227.171 422.4V424ZM227.171 420.288C226.499 421.184 225.219 421.632 223.907 421.632C222.307 421.632 220.995 420.8 220.995 419.36C220.995 417.856 222.307 417.024 223.907 417.024C225.219 417.024 226.499 417.472 227.171 418.368V420.288ZM235.362 424H246.946C251.01 424 253.154 421.44 253.154 418.24C253.154 415.552 251.33 413.344 249.058 412.992C251.074 412.576 252.738 410.784 252.738 408.096C252.738 405.248 250.658 402.656 246.594 402.656H235.362V424ZM239.906 411.232V406.528H245.602C247.138 406.528 248.098 407.552 248.098 408.864C248.098 410.24 247.138 411.232 245.602 411.232H239.906ZM239.906 420.128V415.104H245.762C247.554 415.104 248.514 416.256 248.514 417.6C248.514 419.136 247.49 420.128 245.762 420.128H239.906ZM256.485 424H260.549V422.016C261.765 423.552 263.461 424.384 265.317 424.384C269.221 424.384 272.165 421.44 272.165 416.288C272.165 411.232 269.253 408.16 265.317 408.16C263.493 408.16 261.765 408.96 260.549 410.528V402.656H256.485V424ZM260.549 419.04V413.568C261.221 412.544 262.725 411.776 264.037 411.776C266.405 411.776 267.973 413.6 267.973 416.288C267.973 418.976 266.405 420.768 264.037 420.768C262.725 420.768 261.221 420.032 260.549 419.04ZM285.507 424.384C290.371 424.384 293.059 421.792 294.595 419.136L290.691 417.248C289.795 419.008 287.875 420.352 285.507 420.352C281.795 420.352 278.979 417.376 278.979 413.344C278.979 409.312 281.795 406.336 285.507 406.336C287.875 406.336 289.795 407.712 290.691 409.44L294.595 407.52C293.091 404.864 290.371 402.304 285.507 402.304C279.267 402.304 274.307 406.784 274.307 413.344C274.307 419.904 279.267 424.384 285.507 424.384ZM296.212 416.256C296.212 421.024 299.636 424.384 304.404 424.384C307.572 424.384 309.492 423.008 310.516 421.568L307.86 419.104C307.124 420.128 306.004 420.768 304.595 420.768C302.132 420.768 300.404 418.944 300.404 416.256C300.404 413.568 302.132 411.776 304.595 411.776C306.004 411.776 307.124 412.352 307.86 413.44L310.516 410.944C309.492 409.536 307.572 408.16 304.404 408.16C299.636 408.16 296.212 411.52 296.212 416.256ZM336.807 413.344C336.807 418.848 339.527 424.384 345.639 424.384C351.719 424.384 354.471 418.848 354.471 413.344C354.471 407.84 351.719 402.336 345.639 402.336C339.527 402.336 336.807 407.84 336.807 413.344ZM349.831 413.344C349.831 417.28 348.679 420.352 345.639 420.352C342.567 420.352 341.415 417.28 341.415 413.344C341.415 409.408 342.567 406.368 345.639 406.368C348.679 406.368 349.831 409.408 349.831 413.344ZM362.059 424H366.603V402.656H362.635L355.915 409.408L358.507 412.128L362.059 408.512V424ZM370.223 424H386.287V420H377.391C383.119 415.968 386.127 412.8 386.127 409.152C386.127 404.896 382.511 402.336 377.967 402.336C374.991 402.336 371.823 403.424 369.743 405.824L372.335 408.832C373.775 407.328 375.631 406.368 378.031 406.368C379.823 406.368 381.519 407.296 381.519 409.152C381.519 411.776 378.959 413.984 370.223 420.416V424ZM388.546 420.96C390.114 422.88 393.026 424.384 396.962 424.384C402.082 424.384 405.378 421.792 405.378 418.112C405.378 414.912 402.562 413.216 400.386 412.992C402.754 412.576 405.058 410.816 405.058 408.128C405.058 404.576 401.986 402.336 396.994 402.336C393.25 402.336 390.562 403.776 388.834 405.728L391.074 408.544C392.578 407.104 394.466 406.304 396.514 406.304C398.754 406.304 400.482 407.168 400.482 408.864C400.482 410.464 398.914 411.232 396.546 411.232C395.746 411.232 394.274 411.232 393.89 411.2V415.168C394.21 415.136 395.65 415.136 396.546 415.136C399.522 415.136 400.834 415.936 400.834 417.664C400.834 419.296 399.394 420.416 396.802 420.416C394.722 420.416 392.386 419.52 390.914 417.984L388.546 420.96Z" fill="black"/>
<path d="M31.92 495H47.568V490.36H37.424V486.52H47.344V481.848H37.424V478.296H47.568V473.656H31.92V495ZM60.0118 495H65.4198L60.1398 487.064L65.0678 479.544H59.6598L57.0358 483.736L54.3798 479.544H48.9718L53.9318 487.064L48.6517 495H54.0278L57.0358 490.328L60.0118 495ZM72.8668 495.384C74.6908 495.384 75.9068 494.936 76.5148 494.36L75.5548 490.648C75.3948 490.84 74.8508 491.032 74.3068 491.032C73.4427 491.032 72.9308 490.36 72.9308 489.464V483.832H76.0668V479.544H72.9308V475.32H68.0348V479.544H65.4748V483.832H68.0348V490.84C68.0348 493.816 69.7308 495.384 72.8668 495.384ZM78.542 495H83.47V485.208C84.11 484.312 85.806 483.768 87.086 483.768C87.598 483.768 88.014 483.832 88.302 483.928V479.16C86.446 479.16 84.494 480.248 83.47 481.496V479.544H78.542V495ZM99.662 495H104.59V485.336C104.59 480.536 101.102 479.16 97.39 479.16C95.022 479.16 92.366 479.864 90.382 481.56L92.142 484.664C93.39 483.608 94.99 483.032 96.526 483.032C98.51 483.032 99.662 483.928 99.662 485.272V487.224C98.734 486.072 96.91 485.432 94.862 485.432C92.494 485.432 89.55 486.552 89.55 490.296C89.55 493.784 92.494 495.384 94.862 495.384C96.846 495.384 98.702 494.616 99.662 493.464V495ZM99.662 491.032C99.15 491.768 97.998 492.152 96.91 492.152C95.598 492.152 94.446 491.576 94.446 490.36C94.446 489.144 95.598 488.568 96.91 488.568C97.998 488.568 99.15 488.952 99.662 489.656V491.032ZM108.167 495H113.095V493.208C114.375 494.68 115.943 495.384 117.671 495.384C121.479 495.384 124.487 492.504 124.487 487.256C124.487 482.2 121.511 479.16 117.671 479.16C115.975 479.16 114.311 479.832 113.095 481.368V473.656H108.167V495ZM113.095 489.656V484.92C113.703 484.088 114.983 483.512 116.039 483.512C117.991 483.512 119.463 484.952 119.463 487.256C119.463 489.592 117.991 491.032 116.039 491.032C114.983 491.032 113.703 490.488 113.095 489.656ZM134.465 495.384C139.777 495.384 142.913 491.608 142.913 487.256C142.913 482.904 139.777 479.16 134.465 479.16C129.217 479.16 126.049 482.904 126.049 487.256C126.049 491.608 129.217 495.384 134.465 495.384ZM134.465 491.032C132.321 491.032 131.137 489.336 131.137 487.256C131.137 485.208 132.321 483.512 134.465 483.512C136.641 483.512 137.857 485.208 137.857 487.256C137.857 489.336 136.641 491.032 134.465 491.032ZM145.511 495H150.439V473.656H145.511V495ZM164.411 495H169.307V473.656H164.411V481.368C163.163 479.832 161.531 479.16 159.835 479.16C155.963 479.16 152.987 482.2 152.987 487.256C152.987 492.504 156.027 495.384 159.835 495.384C161.563 495.384 163.131 494.68 164.411 493.208V495ZM164.411 489.624C163.771 490.456 162.491 491.032 161.435 491.032C159.483 491.032 158.043 489.56 158.043 487.256C158.043 484.952 159.483 483.512 161.435 483.512C162.491 483.512 163.771 484.056 164.411 484.888V489.624Z" fill="black"/>
<path d="M210.672 495H216.656L208.592 473.656H201.68L193.648 495H199.632L200.72 491.768H209.584L210.672 495ZM205.136 478.456L208.144 487.128H202.16L205.136 478.456ZM227.225 495H232.153V485.336C232.153 480.536 228.665 479.16 224.953 479.16C222.585 479.16 219.929 479.864 217.945 481.56L219.705 484.664C220.953 483.608 222.553 483.032 224.089 483.032C226.073 483.032 227.225 483.928 227.225 485.272V487.224C226.297 486.072 224.473 485.432 222.425 485.432C220.057 485.432 217.113 486.552 217.113 490.296C217.113 493.784 220.057 495.384 222.425 495.384C224.409 495.384 226.265 494.616 227.225 493.464V495ZM227.225 491.032C226.713 491.768 225.561 492.152 224.473 492.152C223.161 492.152 222.009 491.576 222.009 490.36C222.009 489.144 223.161 488.568 224.473 488.568C225.561 488.568 226.713 488.952 227.225 489.656V491.032ZM235.858 495H248.338C252.53 495 254.61 492.312 254.61 489.208C254.61 486.52 252.818 484.344 250.546 483.992C252.562 483.544 254.194 481.752 254.194 479.096C254.194 476.408 252.178 473.656 247.954 473.656H235.858V495ZM241.362 481.912V478.232H246.706C247.826 478.232 248.594 479 248.594 480.056C248.594 481.112 247.826 481.912 246.706 481.912H241.362ZM241.362 490.424V486.456H246.898C248.242 486.456 249.01 487.384 249.01 488.472C249.01 489.624 248.21 490.424 246.898 490.424H241.362ZM257.48 495H262.408V493.208C263.688 494.68 265.256 495.384 266.984 495.384C270.792 495.384 273.8 492.504 273.8 487.256C273.8 482.2 270.824 479.16 266.984 479.16C265.288 479.16 263.624 479.832 262.408 481.368V473.656H257.48V495ZM262.408 489.656V484.92C263.016 484.088 264.296 483.512 265.352 483.512C267.304 483.512 268.776 484.952 268.776 487.256C268.776 489.592 267.304 491.032 265.352 491.032C264.296 491.032 263.016 490.488 262.408 489.656ZM286.818 495.384C292.13 495.384 294.914 492.408 296.29 489.656L291.554 487.416C290.85 489.112 289.026 490.52 286.818 490.52C283.49 490.52 281.026 487.832 281.026 484.344C281.026 480.856 283.49 478.168 286.818 478.168C289.026 478.168 290.85 479.576 291.554 481.272L296.29 479.032C294.882 476.216 292.13 473.304 286.818 473.304C280.418 473.304 275.426 477.752 275.426 484.344C275.426 490.904 280.418 495.384 286.818 495.384ZM297.518 487.256C297.518 492.12 301.134 495.384 305.966 495.384C309.294 495.384 311.374 493.88 312.302 492.536L309.102 489.528C308.494 490.392 307.502 491.032 306.19 491.032C304.142 491.032 302.574 489.592 302.574 487.256C302.574 484.92 304.142 483.512 306.19 483.512C307.502 483.512 308.494 484.088 309.102 484.984L312.302 482.008C311.374 480.632 309.294 479.16 305.966 479.16C301.134 479.16 297.518 482.424 297.518 487.256ZM338.145 484.344C338.145 489.976 341.057 495.384 347.297 495.384C353.537 495.384 356.449 489.976 356.449 484.344C356.449 478.712 353.537 473.336 347.297 473.336C341.057 473.336 338.145 478.712 338.145 484.344ZM350.881 484.344C350.881 488.12 349.857 490.52 347.297 490.52C344.737 490.52 343.713 488.12 343.713 484.344C343.713 480.568 344.737 478.2 347.297 478.2C349.857 478.2 350.881 480.568 350.881 484.344ZM364.161 495H369.665V473.656H364.897L357.441 481.016L360.577 484.312L364.161 480.696V495ZM373.002 495H389.738V490.2H381.514C387.242 486.488 389.578 483.704 389.578 480.44C389.578 476.152 385.962 473.336 380.938 473.336C377.962 473.336 374.57 474.392 372.298 476.888L375.338 480.536C376.874 479.096 378.666 478.2 380.938 478.2C382.602 478.2 383.978 478.968 383.978 480.44C383.978 482.552 382.25 484.024 373.002 490.712V495ZM391.543 492.024C393.207 493.944 396.279 495.384 400.375 495.384C405.687 495.384 409.207 492.792 409.207 489.048C409.207 485.976 406.455 484.216 404.183 483.992C406.711 483.576 408.855 481.688 408.855 479.192C408.855 475.672 405.815 473.336 400.375 473.336C396.439 473.336 393.623 474.776 391.831 476.792L394.423 480.152C395.927 478.84 397.847 478.04 399.799 478.04C401.847 478.04 403.383 478.744 403.383 480.088C403.383 481.272 402.135 481.912 399.927 481.912C399.127 481.912 397.463 481.912 397.047 481.88V486.616C397.367 486.584 398.999 486.552 399.927 486.552C402.839 486.552 403.735 487.256 403.735 488.504C403.735 489.752 402.519 490.712 400.151 490.712C398.295 490.712 395.863 489.912 394.327 488.408L391.543 492.024Z" fill="black"/>
<path d="M31.728 566H45.136C49.424 566 51.44 563.184 51.44 560.208C51.44 557.456 49.68 555.344 47.376 554.992C49.456 554.544 51.024 552.752 51.024 550.096C51.024 547.6 49.104 544.656 44.688 544.656H31.728V566ZM38.192 552.592V549.904H43.184C43.856 549.904 44.464 550.48 44.464 551.216C44.464 551.984 43.856 552.592 43.184 552.592H38.192ZM38.192 560.752V557.84H43.376C44.304 557.84 44.88 558.544 44.88 559.312C44.88 560.112 44.304 560.752 43.376 560.752H38.192ZM53.9125 566H59.6725V544.656H53.9125V566ZM71.8093 566H77.5693V556.656C77.5693 551.504 73.8253 550.16 69.9853 550.16C67.6493 550.16 64.7693 550.832 62.6893 552.496L64.6413 556.048C65.8573 555.12 67.4893 554.544 68.9293 554.544C70.8173 554.544 71.8093 555.376 71.8093 556.464V558.224C70.9773 557.168 69.1533 556.528 67.1373 556.528C64.8333 556.528 61.8253 557.456 61.8253 561.296C61.8253 564.816 64.8333 566.384 67.1373 566.384C69.0573 566.384 70.9453 565.616 71.8093 564.528V566ZM71.8093 561.808C71.4253 562.352 70.4333 562.64 69.5373 562.64C68.5773 562.64 67.5213 562.352 67.5213 561.392C67.5213 560.432 68.5773 560.112 69.5373 560.112C70.4333 560.112 71.4253 560.4 71.8093 560.944V561.808ZM79.7003 558.256C79.7003 563.184 83.4763 566.384 88.3723 566.384C91.8923 566.384 94.0683 564.752 94.9323 563.472L91.2203 559.952C90.7403 560.656 89.8443 561.296 88.6283 561.296C86.9963 561.296 85.5883 560.24 85.5883 558.256C85.5883 556.272 86.9963 555.248 88.6283 555.248C89.8443 555.248 90.7403 555.824 91.2203 556.56L94.9323 553.072C94.0683 551.76 91.8923 550.16 88.3723 550.16C83.4763 550.16 79.7003 553.36 79.7003 558.256ZM106.355 566H113.427L107.763 557.584L113.075 550.544H106.131L102.579 556.048V544.656H96.8188V566H102.579V562.512L103.699 561.008L106.355 566Z" fill="black"/>
<path d="M210.288 566H217.296L209.424 544.656H201.296L193.424 566H200.432L201.264 563.248H209.456L210.288 566ZM205.36 550.352L207.792 557.872H202.928L205.36 550.352ZM227.247 566H233.007V556.656C233.007 551.504 229.263 550.16 225.423 550.16C223.087 550.16 220.207 550.832 218.127 552.496L220.079 556.048C221.295 555.12 222.927 554.544 224.367 554.544C226.255 554.544 227.247 555.376 227.247 556.464V558.224C226.415 557.168 224.591 556.528 222.575 556.528C220.271 556.528 217.263 557.456 217.263 561.296C217.263 564.816 220.271 566.384 222.575 566.384C224.495 566.384 226.383 565.616 227.247 564.528V566ZM227.247 561.808C226.863 562.352 225.871 562.64 224.975 562.64C224.015 562.64 222.959 562.352 222.959 561.392C222.959 560.432 224.015 560.112 224.975 560.112C225.871 560.112 226.863 560.4 227.247 560.944V561.808ZM236.322 566H249.73C254.018 566 256.034 563.184 256.034 560.208C256.034 557.456 254.274 555.344 251.97 554.992C254.05 554.544 255.618 552.752 255.618 550.096C255.618 547.6 253.698 544.656 249.282 544.656H236.322V566ZM242.786 552.592V549.904H247.778C248.45 549.904 249.058 550.48 249.058 551.216C249.058 551.984 248.45 552.592 247.778 552.592H242.786ZM242.786 560.752V557.84H247.97C248.898 557.84 249.474 558.544 249.474 559.312C249.474 560.112 248.898 560.752 247.97 560.752H242.786ZM258.506 566H264.266V564.368C265.578 565.84 267.05 566.384 268.618 566.384C272.362 566.384 275.434 563.568 275.434 558.256C275.434 553.136 272.426 550.16 268.618 550.16C267.05 550.16 265.482 550.704 264.266 552.176V544.656H258.506V566ZM264.266 560.272V556.304C264.81 555.632 265.898 555.248 266.666 555.248C268.234 555.248 269.546 556.336 269.546 558.256C269.546 560.208 268.234 561.296 266.666 561.296C265.898 561.296 264.81 560.944 264.266 560.272ZM288.129 566.384C293.889 566.384 296.737 562.992 297.985 560.144L292.417 557.584C291.873 559.248 290.209 560.688 288.129 560.688C285.185 560.688 283.105 558.32 283.105 555.344C283.105 552.368 285.185 550 288.129 550C290.209 550 291.873 551.44 292.417 553.104L297.985 550.512C296.705 547.568 293.889 544.304 288.129 544.304C281.601 544.304 276.545 548.752 276.545 555.344C276.545 561.904 281.601 566.384 288.129 566.384ZM298.825 558.256C298.825 563.184 302.601 566.384 307.497 566.384C311.017 566.384 313.193 564.752 314.057 563.472L310.345 559.952C309.865 560.656 308.969 561.296 307.753 561.296C306.121 561.296 304.713 560.24 304.713 558.256C304.713 556.272 306.121 555.248 307.753 555.248C308.969 555.248 309.865 555.824 310.345 556.56L314.057 553.072C313.193 551.76 311.017 550.16 307.497 550.16C302.601 550.16 298.825 553.36 298.825 558.256ZM339.389 555.344C339.389 561.136 342.493 566.384 348.861 566.384C355.229 566.384 358.333 561.136 358.333 555.344C358.333 549.552 355.229 544.336 348.861 544.336C342.493 544.336 339.389 549.552 339.389 555.344ZM351.837 555.344C351.837 558.96 350.909 560.688 348.861 560.688C346.812 560.688 345.885 558.96 345.885 555.344C345.885 551.728 346.812 550.032 348.861 550.032C350.909 550.032 351.837 551.728 351.837 555.344ZM366.17 566H372.634V544.656H367.066L358.906 552.656L362.554 556.464L366.17 552.88V566ZM375.687 566H393.127V560.368H385.543C391.271 557.008 392.935 554.608 392.935 551.696C392.935 547.408 389.319 544.336 383.783 544.336C380.807 544.336 377.223 545.328 374.759 547.952L378.279 552.24C379.911 550.864 381.639 550.032 383.783 550.032C385.287 550.032 386.375 550.672 386.375 551.696C386.375 553.296 385.447 554.096 375.687 560.976V566ZM394.384 563.056C396.176 564.976 399.376 566.384 403.6 566.384C409.136 566.384 412.88 563.792 412.88 559.984C412.88 557.04 410.192 555.248 407.824 554.992C410.544 554.544 412.528 552.528 412.528 550.256C412.528 546.736 409.52 544.336 403.632 544.336C399.472 544.336 396.56 545.776 394.672 547.856L397.616 551.76C399.088 550.544 401.104 549.776 402.928 549.776C404.784 549.776 406.096 550.32 406.096 551.312C406.096 552.08 405.2 552.592 403.152 552.592C402.384 552.592 400.464 552.592 400.048 552.56V558.032C400.368 558 402.224 557.968 403.152 557.968C406 557.968 406.448 558.576 406.448 559.344C406.448 560.208 405.456 560.976 403.344 560.976C401.712 560.976 399.216 560.304 397.552 558.864L394.384 563.056Z" fill="black"/>
</svg>
