<svg width="1110" height="234" viewBox="0 0 1110 234" fill="none" xmlns="http://www.w3.org/2000/svg">
<rect width="1110" height="234" rx="6" fill="white"/>
<path d="M38.531 122.21C37.397 122.21 36.298 122.049 35.234 121.727C34.184 121.405 33.351 120.978 32.735 120.446L33.68 118.325C34.282 118.801 35.017 119.193 35.885 119.501C36.767 119.795 37.649 119.942 38.531 119.942C39.623 119.942 40.435 119.767 40.967 119.417C41.513 119.067 41.786 118.605 41.786 118.031C41.786 117.611 41.632 117.268 41.324 117.002C41.03 116.722 40.652 116.505 40.19 116.351C39.728 116.197 39.098 116.022 38.3 115.826C37.18 115.56 36.27 115.294 35.57 115.028C34.884 114.762 34.289 114.349 33.785 113.789C33.295 113.215 33.05 112.445 33.05 111.479C33.05 110.667 33.267 109.932 33.701 109.274C34.149 108.602 34.814 108.07 35.696 107.678C36.592 107.286 37.684 107.09 38.972 107.09C39.868 107.09 40.75 107.202 41.618 107.426C42.486 107.65 43.235 107.972 43.865 108.392L43.004 110.513C42.36 110.135 41.688 109.848 40.988 109.652C40.288 109.456 39.609 109.358 38.951 109.358C37.873 109.358 37.068 109.54 36.536 109.904C36.018 110.268 35.759 110.751 35.759 111.353C35.759 111.773 35.906 112.116 36.2 112.382C36.508 112.648 36.893 112.858 37.355 113.012C37.817 113.166 38.447 113.341 39.245 113.537C40.337 113.789 41.233 114.055 41.933 114.335C42.633 114.601 43.228 115.014 43.718 115.574C44.222 116.134 44.474 116.89 44.474 117.842C44.474 118.654 44.25 119.389 43.802 120.047C43.368 120.705 42.703 121.23 41.807 121.622C40.911 122.014 39.819 122.21 38.531 122.21ZM51.213 110.66C52.865 110.66 54.125 111.059 54.993 111.857C55.875 112.641 56.316 113.831 56.316 115.427V122H53.838V120.635C53.516 121.125 53.054 121.503 52.452 121.769C51.864 122.021 51.15 122.147 50.31 122.147C49.47 122.147 48.735 122.007 48.105 121.727C47.475 121.433 46.985 121.034 46.635 120.53C46.299 120.012 46.131 119.431 46.131 118.787C46.131 117.779 46.502 116.974 47.244 116.372C48 115.756 49.183 115.448 50.793 115.448H53.691V115.28C53.691 114.496 53.453 113.894 52.977 113.474C52.515 113.054 51.822 112.844 50.898 112.844C50.268 112.844 49.645 112.942 49.029 113.138C48.427 113.334 47.916 113.607 47.496 113.957L46.467 112.046C47.055 111.598 47.762 111.255 48.588 111.017C49.414 110.779 50.289 110.66 51.213 110.66ZM50.856 120.236C51.514 120.236 52.095 120.089 52.599 119.795C53.117 119.487 53.481 119.053 53.691 118.493V117.191H50.982C49.47 117.191 48.714 117.688 48.714 118.682C48.714 119.158 48.903 119.536 49.281 119.816C49.659 120.096 50.184 120.236 50.856 120.236ZM66.0479 110.66C67.4619 110.66 68.5959 111.073 69.4499 111.899C70.3039 112.725 70.7309 113.95 70.7309 115.574V122H68.1059V115.91C68.1059 114.93 67.8749 114.195 67.4129 113.705C66.9509 113.201 66.2929 112.949 65.4389 112.949C64.4729 112.949 63.7099 113.243 63.1499 113.831C62.5899 114.405 62.3099 115.238 62.3099 116.33V122H59.6849V110.786H62.1839V112.235C62.6179 111.717 63.1639 111.325 63.8219 111.059C64.4799 110.793 65.2219 110.66 66.0479 110.66ZM77.5259 122.147C76.6159 122.147 75.7269 122.028 74.8589 121.79C73.9909 121.552 73.2979 121.251 72.7799 120.887L73.7879 118.892C74.2919 119.228 74.8939 119.501 75.5939 119.711C76.3079 119.907 77.0079 120.005 77.6939 120.005C79.2619 120.005 80.0459 119.592 80.0459 118.766C80.0459 118.374 79.8429 118.101 79.4369 117.947C79.0449 117.793 78.4079 117.646 77.5259 117.506C76.6019 117.366 75.8459 117.205 75.2579 117.023C74.6839 116.841 74.1799 116.526 73.7459 116.078C73.3259 115.616 73.1159 114.979 73.1159 114.167C73.1159 113.103 73.5569 112.256 74.4389 111.626C75.3349 110.982 76.5389 110.66 78.0509 110.66C78.8209 110.66 79.5909 110.751 80.3609 110.933C81.1309 111.101 81.7609 111.332 82.2509 111.626L81.2429 113.621C80.2909 113.061 79.2199 112.781 78.0299 112.781C77.2599 112.781 76.6719 112.9 76.2659 113.138C75.8739 113.362 75.6779 113.663 75.6779 114.041C75.6779 114.461 75.8879 114.762 76.3079 114.944C76.7419 115.112 77.4069 115.273 78.3029 115.427C79.1989 115.567 79.9339 115.728 80.5079 115.91C81.0819 116.092 81.5719 116.4 81.9779 116.834C82.3979 117.268 82.6079 117.884 82.6079 118.682C82.6079 119.732 82.1529 120.572 81.2429 121.202C80.3329 121.832 79.0939 122.147 77.5259 122.147ZM95.4812 122.21C94.3472 122.21 93.2482 122.049 92.1842 121.727C91.1342 121.405 90.3012 120.978 89.6852 120.446L90.6302 118.325C91.2322 118.801 91.9672 119.193 92.8352 119.501C93.7172 119.795 94.5992 119.942 95.4812 119.942C96.5732 119.942 97.3852 119.767 97.9172 119.417C98.4632 119.067 98.7362 118.605 98.7362 118.031C98.7362 117.611 98.5822 117.268 98.2742 117.002C97.9802 116.722 97.6022 116.505 97.1402 116.351C96.6782 116.197 96.0482 116.022 95.2502 115.826C94.1302 115.56 93.2202 115.294 92.5202 115.028C91.8342 114.762 91.2392 114.349 90.7352 113.789C90.2452 113.215 90.0002 112.445 90.0002 111.479C90.0002 110.667 90.2172 109.932 90.6512 109.274C91.0992 108.602 91.7642 108.07 92.6462 107.678C93.5422 107.286 94.6342 107.09 95.9222 107.09C96.8182 107.09 97.7002 107.202 98.5682 107.426C99.4362 107.65 100.185 107.972 100.815 108.392L99.9542 110.513C99.3102 110.135 98.6382 109.848 97.9382 109.652C97.2382 109.456 96.5592 109.358 95.9012 109.358C94.8232 109.358 94.0182 109.54 93.4862 109.904C92.9682 110.268 92.7092 110.751 92.7092 111.353C92.7092 111.773 92.8562 112.116 93.1502 112.382C93.4582 112.648 93.8432 112.858 94.3052 113.012C94.7672 113.166 95.3972 113.341 96.1952 113.537C97.2872 113.789 98.1832 114.055 98.8832 114.335C99.5832 114.601 100.178 115.014 100.668 115.574C101.172 116.134 101.424 116.89 101.424 117.842C101.424 118.654 101.2 119.389 100.752 120.047C100.318 120.705 99.6532 121.23 98.7572 121.622C97.8612 122.014 96.7692 122.21 95.4812 122.21ZM114.421 116.456C114.421 116.638 114.407 116.897 114.379 117.233H105.58C105.734 118.059 106.133 118.717 106.777 119.207C107.435 119.683 108.247 119.921 109.213 119.921C110.445 119.921 111.46 119.515 112.258 118.703L113.665 120.32C113.161 120.922 112.524 121.377 111.754 121.685C110.984 121.993 110.116 122.147 109.15 122.147C107.918 122.147 106.833 121.902 105.895 121.412C104.957 120.922 104.229 120.243 103.711 119.375C103.207 118.493 102.955 117.499 102.955 116.393C102.955 115.301 103.2 114.321 103.69 113.453C104.194 112.571 104.887 111.885 105.769 111.395C106.651 110.905 107.645 110.66 108.751 110.66C109.843 110.66 110.816 110.905 111.67 111.395C112.538 111.871 113.21 112.55 113.686 113.432C114.176 114.3 114.421 115.308 114.421 116.456ZM108.751 112.76C107.911 112.76 107.197 113.012 106.609 113.516C106.035 114.006 105.685 114.664 105.559 115.49H111.922C111.81 114.678 111.467 114.02 110.893 113.516C110.319 113.012 109.605 112.76 108.751 112.76ZM119.442 112.424C120.198 111.248 121.528 110.66 123.432 110.66V113.159C123.208 113.117 123.005 113.096 122.823 113.096C121.801 113.096 121.003 113.397 120.429 113.999C119.855 114.587 119.568 115.441 119.568 116.561V122H116.943V110.786H119.442V112.424ZM125.659 110.786H128.284V122H125.659V110.786ZM126.982 108.938C126.506 108.938 126.107 108.791 125.785 108.497C125.463 108.189 125.302 107.811 125.302 107.363C125.302 106.915 125.463 106.544 125.785 106.25C126.107 105.942 126.506 105.788 126.982 105.788C127.458 105.788 127.857 105.935 128.179 106.229C128.501 106.509 128.662 106.866 128.662 107.3C128.662 107.762 128.501 108.154 128.179 108.476C127.871 108.784 127.472 108.938 126.982 108.938ZM136.286 108.392C135.18 108.392 134.627 108.994 134.627 110.198V110.87H137.714V112.97H134.711V122H132.086V112.97H130.238V110.87H132.086V110.156C132.086 108.952 132.436 108.007 133.136 107.321C133.836 106.621 134.823 106.271 136.097 106.271C137.105 106.271 137.896 106.474 138.47 106.88L137.735 108.854C137.287 108.546 136.804 108.392 136.286 108.392Z" fill="#4D4D4D"/>
<path d="M38.531 192.21C37.397 192.21 36.298 192.049 35.234 191.727C34.184 191.405 33.351 190.978 32.735 190.446L33.68 188.325C34.282 188.801 35.017 189.193 35.885 189.501C36.767 189.795 37.649 189.942 38.531 189.942C39.623 189.942 40.435 189.767 40.967 189.417C41.513 189.067 41.786 188.605 41.786 188.031C41.786 187.611 41.632 187.268 41.324 187.002C41.03 186.722 40.652 186.505 40.19 186.351C39.728 186.197 39.098 186.022 38.3 185.826C37.18 185.56 36.27 185.294 35.57 185.028C34.884 184.762 34.289 184.349 33.785 183.789C33.295 183.215 33.05 182.445 33.05 181.479C33.05 180.667 33.267 179.932 33.701 179.274C34.149 178.602 34.814 178.07 35.696 177.678C36.592 177.286 37.684 177.09 38.972 177.09C39.868 177.09 40.75 177.202 41.618 177.426C42.486 177.65 43.235 177.972 43.865 178.392L43.004 180.513C42.36 180.135 41.688 179.848 40.988 179.652C40.288 179.456 39.609 179.358 38.951 179.358C37.873 179.358 37.068 179.54 36.536 179.904C36.018 180.268 35.759 180.751 35.759 181.353C35.759 181.773 35.906 182.116 36.2 182.382C36.508 182.648 36.893 182.858 37.355 183.012C37.817 183.166 38.447 183.341 39.245 183.537C40.337 183.789 41.233 184.055 41.933 184.335C42.633 184.601 43.228 185.014 43.718 185.574C44.222 186.134 44.474 186.89 44.474 187.842C44.474 188.654 44.25 189.389 43.802 190.047C43.368 190.705 42.703 191.23 41.807 191.622C40.911 192.014 39.819 192.21 38.531 192.21ZM57.471 186.456C57.471 186.638 57.457 186.897 57.429 187.233H48.63C48.784 188.059 49.183 188.717 49.827 189.207C50.485 189.683 51.297 189.921 52.263 189.921C53.495 189.921 54.51 189.515 55.308 188.703L56.715 190.32C56.211 190.922 55.574 191.377 54.804 191.685C54.034 191.993 53.166 192.147 52.2 192.147C50.968 192.147 49.883 191.902 48.945 191.412C48.007 190.922 47.279 190.243 46.761 189.375C46.257 188.493 46.005 187.499 46.005 186.393C46.005 185.301 46.25 184.321 46.74 183.453C47.244 182.571 47.937 181.885 48.819 181.395C49.701 180.905 50.695 180.66 51.801 180.66C52.893 180.66 53.866 180.905 54.72 181.395C55.588 181.871 56.26 182.55 56.736 183.432C57.226 184.3 57.471 185.308 57.471 186.456ZM51.801 182.76C50.961 182.76 50.247 183.012 49.659 183.516C49.085 184.006 48.735 184.664 48.609 185.49H54.972C54.86 184.678 54.517 184.02 53.943 183.516C53.369 183.012 52.655 182.76 51.801 182.76ZM62.4915 182.424C63.2475 181.248 64.5775 180.66 66.4815 180.66V183.159C66.2575 183.117 66.0545 183.096 65.8725 183.096C64.8505 183.096 64.0525 183.397 63.4785 183.999C62.9045 184.587 62.6175 185.441 62.6175 186.561V192H59.9925V180.786H62.4915V182.424ZM68.7083 180.786H71.3333V192H68.7083V180.786ZM70.0313 178.938C69.5553 178.938 69.1563 178.791 68.8343 178.497C68.5123 178.189 68.3513 177.811 68.3513 177.363C68.3513 176.915 68.5123 176.544 68.8343 176.25C69.1563 175.942 69.5553 175.788 70.0313 175.788C70.5073 175.788 70.9063 175.935 71.2283 176.229C71.5503 176.509 71.7113 176.866 71.7113 177.3C71.7113 177.762 71.5503 178.154 71.2283 178.476C70.9203 178.784 70.5213 178.938 70.0313 178.938ZM79.3356 178.392C78.2296 178.392 77.6766 178.994 77.6766 180.198V180.87H80.7636V182.97H77.7606V192H75.1356V182.97H73.2876V180.87H75.1356V180.156C75.1356 178.952 75.4856 178.007 76.1856 177.321C76.8856 176.621 77.8726 176.271 79.1466 176.271C80.1546 176.271 80.9456 176.474 81.5196 176.88L80.7846 178.854C80.3366 178.546 79.8536 178.392 79.3356 178.392Z" fill="#4D4D4D"/>
<path d="M234.502 40.3L229.63 55H226.732L223.099 44.122L219.403 55H216.484L211.612 40.3H214.447L218.101 51.472L221.902 40.3H224.422L228.139 51.535L231.898 40.3H234.502ZM246.175 49.456C246.175 49.638 246.161 49.897 246.133 50.233H237.334C237.488 51.059 237.887 51.717 238.531 52.207C239.189 52.683 240.001 52.921 240.967 52.921C242.199 52.921 243.214 52.515 244.012 51.703L245.419 53.32C244.915 53.922 244.278 54.377 243.508 54.685C242.738 54.993 241.87 55.147 240.904 55.147C239.672 55.147 238.587 54.902 237.649 54.412C236.711 53.922 235.983 53.243 235.465 52.375C234.961 51.493 234.709 50.499 234.709 49.393C234.709 48.301 234.954 47.321 235.444 46.453C235.948 45.571 236.641 44.885 237.523 44.395C238.405 43.905 239.399 43.66 240.505 43.66C241.597 43.66 242.57 43.905 243.424 44.395C244.292 44.871 244.964 45.55 245.44 46.432C245.93 47.3 246.175 48.308 246.175 49.456ZM240.505 45.76C239.665 45.76 238.951 46.012 238.363 46.516C237.789 47.006 237.439 47.664 237.313 48.49H243.676C243.564 47.678 243.221 47.02 242.647 46.516C242.073 46.012 241.359 45.76 240.505 45.76ZM254.913 43.66C256.005 43.66 256.978 43.898 257.832 44.374C258.7 44.85 259.379 45.522 259.869 46.39C260.359 47.258 260.604 48.259 260.604 49.393C260.604 50.527 260.359 51.535 259.869 52.417C259.379 53.285 258.7 53.957 257.832 54.433C256.978 54.909 256.005 55.147 254.913 55.147C254.143 55.147 253.436 55.014 252.792 54.748C252.162 54.482 251.63 54.083 251.196 53.551V55H248.697V39.418H251.322V45.151C251.77 44.661 252.295 44.29 252.897 44.038C253.513 43.786 254.185 43.66 254.913 43.66ZM254.619 52.9C255.585 52.9 256.376 52.578 256.992 51.934C257.622 51.29 257.937 50.443 257.937 49.393C257.937 48.343 257.622 47.496 256.992 46.852C256.376 46.208 255.585 45.886 254.619 45.886C253.989 45.886 253.422 46.033 252.918 46.327C252.414 46.607 252.015 47.013 251.721 47.545C251.427 48.077 251.28 48.693 251.28 49.393C251.28 50.093 251.427 50.709 251.721 51.241C252.015 51.773 252.414 52.186 252.918 52.48C253.422 52.76 253.989 52.9 254.619 52.9Z" fill="black"/>
<path d="M228.733 126L228.709 114.864L223.189 124.08H221.797L216.277 115.008V126H213.301V109.2H215.869L222.541 120.336L229.093 109.2H231.661L231.685 126H228.733ZM241.695 126.168C240.399 126.168 239.231 125.888 238.191 125.328C237.151 124.768 236.335 123.992 235.743 123C235.167 121.992 234.879 120.856 234.879 119.592C234.879 118.328 235.167 117.2 235.743 116.208C236.335 115.216 237.151 114.44 238.191 113.88C239.231 113.32 240.399 113.04 241.695 113.04C243.007 113.04 244.183 113.32 245.223 113.88C246.263 114.44 247.071 115.216 247.647 116.208C248.239 117.2 248.535 118.328 248.535 119.592C248.535 120.856 248.239 121.992 247.647 123C247.071 123.992 246.263 124.768 245.223 125.328C244.183 125.888 243.007 126.168 241.695 126.168ZM241.695 123.6C242.799 123.6 243.711 123.232 244.431 122.496C245.151 121.76 245.511 120.792 245.511 119.592C245.511 118.392 245.151 117.424 244.431 116.688C243.711 115.952 242.799 115.584 241.695 115.584C240.591 115.584 239.679 115.952 238.959 116.688C238.255 117.424 237.903 118.392 237.903 119.592C237.903 120.792 238.255 121.76 238.959 122.496C239.679 123.232 240.591 123.6 241.695 123.6ZM258.676 113.04C260.292 113.04 261.588 113.512 262.564 114.456C263.54 115.4 264.028 116.8 264.028 118.656V126H261.028V119.04C261.028 117.92 260.764 117.08 260.236 116.52C259.708 115.944 258.956 115.656 257.98 115.656C256.876 115.656 256.004 115.992 255.364 116.664C254.724 117.32 254.404 118.272 254.404 119.52V126H251.404V113.184H254.26V114.84C254.756 114.248 255.38 113.8 256.132 113.496C256.884 113.192 257.732 113.04 258.676 113.04ZM275.537 125.304C275.185 125.592 274.753 125.808 274.241 125.952C273.745 126.096 273.217 126.168 272.657 126.168C271.249 126.168 270.161 125.8 269.393 125.064C268.625 124.328 268.241 123.256 268.241 121.848V115.68H266.129V113.28H268.241V110.352H271.241V113.28H274.673V115.68H271.241V121.776C271.241 122.4 271.393 122.88 271.697 123.216C272.001 123.536 272.441 123.696 273.017 123.696C273.689 123.696 274.249 123.52 274.697 123.168L275.537 125.304ZM281.965 126.168C280.925 126.168 279.909 126.032 278.917 125.76C277.925 125.488 277.133 125.144 276.541 124.728L277.693 122.448C278.269 122.832 278.957 123.144 279.757 123.384C280.573 123.608 281.373 123.72 282.157 123.72C283.949 123.72 284.845 123.248 284.845 122.304C284.845 121.856 284.613 121.544 284.149 121.368C283.701 121.192 282.973 121.024 281.965 120.864C280.909 120.704 280.045 120.52 279.373 120.312C278.717 120.104 278.141 119.744 277.645 119.232C277.165 118.704 276.925 117.976 276.925 117.048C276.925 115.832 277.429 114.864 278.437 114.144C279.461 113.408 280.837 113.04 282.565 113.04C283.445 113.04 284.325 113.144 285.205 113.352C286.085 113.544 286.805 113.808 287.365 114.144L286.213 116.424C285.125 115.784 283.901 115.464 282.541 115.464C281.661 115.464 280.989 115.6 280.525 115.872C280.077 116.128 279.853 116.472 279.853 116.904C279.853 117.384 280.093 117.728 280.573 117.936C281.069 118.128 281.829 118.312 282.853 118.488C283.877 118.648 284.717 118.832 285.373 119.04C286.029 119.248 286.589 119.6 287.053 120.096C287.533 120.592 287.773 121.296 287.773 122.208C287.773 123.408 287.253 124.368 286.213 125.088C285.173 125.808 283.757 126.168 281.965 126.168ZM302.405 119.664C302.405 119.872 302.389 120.168 302.357 120.552H292.301C292.477 121.496 292.933 122.248 293.669 122.808C294.421 123.352 295.349 123.624 296.453 123.624C297.861 123.624 299.021 123.16 299.933 122.232L301.541 124.08C300.965 124.768 300.237 125.288 299.357 125.64C298.477 125.992 297.485 126.168 296.381 126.168C294.973 126.168 293.733 125.888 292.661 125.328C291.589 124.768 290.757 123.992 290.165 123C289.589 121.992 289.301 120.856 289.301 119.592C289.301 118.344 289.581 117.224 290.141 116.232C290.717 115.224 291.509 114.44 292.517 113.88C293.525 113.32 294.661 113.04 295.925 113.04C297.173 113.04 298.285 113.32 299.261 113.88C300.253 114.424 301.021 115.2 301.565 116.208C302.125 117.2 302.405 118.352 302.405 119.664ZM295.925 115.44C294.965 115.44 294.149 115.728 293.477 116.304C292.821 116.864 292.421 117.616 292.277 118.56H299.549C299.421 117.632 299.029 116.88 298.373 116.304C297.717 115.728 296.901 115.44 295.925 115.44ZM308.142 115.056C309.006 113.712 310.526 113.04 312.702 113.04V115.896C312.446 115.848 312.214 115.824 312.006 115.824C310.838 115.824 309.926 116.168 309.27 116.856C308.614 117.528 308.286 118.504 308.286 119.784V126H305.286V113.184H308.142V115.056ZM318.103 115.056C318.967 113.712 320.487 113.04 322.663 113.04V115.896C322.407 115.848 322.175 115.824 321.967 115.824C320.799 115.824 319.887 116.168 319.231 116.856C318.575 117.528 318.247 118.504 318.247 119.784V126H315.247V113.184H318.103V115.056ZM330.034 113.04C331.922 113.04 333.362 113.496 334.354 114.408C335.362 115.304 335.866 116.664 335.866 118.488V126H333.034V124.44C332.666 125 332.138 125.432 331.45 125.736C330.778 126.024 329.962 126.168 329.002 126.168C328.042 126.168 327.202 126.008 326.482 125.688C325.762 125.352 325.202 124.896 324.802 124.32C324.418 123.728 324.226 123.064 324.226 122.328C324.226 121.176 324.65 120.256 325.498 119.568C326.362 118.864 327.714 118.512 329.554 118.512H332.866V118.32C332.866 117.424 332.594 116.736 332.05 116.256C331.522 115.776 330.73 115.536 329.674 115.536C328.954 115.536 328.242 115.648 327.538 115.872C326.85 116.096 326.266 116.408 325.786 116.808L324.61 114.624C325.282 114.112 326.09 113.72 327.034 113.448C327.978 113.176 328.978 113.04 330.034 113.04ZM329.626 123.984C330.378 123.984 331.042 123.816 331.618 123.48C332.21 123.128 332.626 122.632 332.866 121.992V120.504H329.77C328.042 120.504 327.178 121.072 327.178 122.208C327.178 122.752 327.394 123.184 327.826 123.504C328.258 123.824 328.858 123.984 329.626 123.984ZM347.42 125.304C347.068 125.592 346.636 125.808 346.124 125.952C345.628 126.096 345.1 126.168 344.54 126.168C343.132 126.168 342.044 125.8 341.276 125.064C340.508 124.328 340.124 123.256 340.124 121.848V115.68H338.012V113.28H340.124V110.352H343.124V113.28H346.556V115.68H343.124V121.776C343.124 122.4 343.276 122.88 343.58 123.216C343.884 123.536 344.324 123.696 344.9 123.696C345.572 123.696 346.132 123.52 346.58 123.168L347.42 125.304Z" fill="black"/>
<path d="M267.545 188.344H291.545V190.312H267.545V188.344Z" fill="black"/>
<line x1="435.048" y1="32" x2="435.048" y2="206" stroke="#F3F3F3"/>
<path d="M529.073 40.3C530.347 40.3 531.453 40.51 532.391 40.93C533.343 41.35 534.071 41.952 534.575 42.736C535.079 43.52 535.331 44.451 535.331 45.529C535.331 46.593 535.079 47.524 534.575 48.322C534.071 49.106 533.343 49.708 532.391 50.128C531.453 50.548 530.347 50.758 529.073 50.758H525.755V55H523.025V40.3H529.073ZM528.947 48.448C530.137 48.448 531.04 48.196 531.656 47.692C532.272 47.188 532.58 46.467 532.58 45.529C532.58 44.591 532.272 43.87 531.656 43.366C531.04 42.862 530.137 42.61 528.947 42.61H525.755V48.448H528.947ZM540.201 45.424C540.957 44.248 542.287 43.66 544.191 43.66V46.159C543.967 46.117 543.764 46.096 543.582 46.096C542.56 46.096 541.762 46.397 541.188 46.999C540.614 47.587 540.327 48.441 540.327 49.561V55H537.702V43.786H540.201V45.424ZM546.418 43.786H549.043V55H546.418V43.786ZM547.741 41.938C547.265 41.938 546.866 41.791 546.544 41.497C546.222 41.189 546.061 40.811 546.061 40.363C546.061 39.915 546.222 39.544 546.544 39.25C546.866 38.942 547.265 38.788 547.741 38.788C548.217 38.788 548.616 38.935 548.938 39.229C549.26 39.509 549.421 39.866 549.421 40.3C549.421 40.762 549.26 41.154 548.938 41.476C548.63 41.784 548.231 41.938 547.741 41.938ZM558.852 43.66C560.266 43.66 561.4 44.073 562.254 44.899C563.108 45.725 563.535 46.95 563.535 48.574V55H560.91V48.91C560.91 47.93 560.679 47.195 560.217 46.705C559.755 46.201 559.097 45.949 558.243 45.949C557.277 45.949 556.514 46.243 555.954 46.831C555.394 47.405 555.114 48.238 555.114 49.33V55H552.489V43.786H554.988V45.235C555.422 44.717 555.968 44.325 556.626 44.059C557.284 43.793 558.026 43.66 558.852 43.66ZM573.606 54.391C573.298 54.643 572.92 54.832 572.472 54.958C572.038 55.084 571.576 55.147 571.086 55.147C569.854 55.147 568.902 54.825 568.23 54.181C567.558 53.537 567.222 52.599 567.222 51.367V45.97H565.374V43.87H567.222V41.308H569.847V43.87H572.85V45.97H569.847V51.304C569.847 51.85 569.98 52.27 570.246 52.564C570.512 52.844 570.897 52.984 571.401 52.984C571.989 52.984 572.479 52.83 572.871 52.522L573.606 54.391Z" fill="black"/>
<path d="M522.755 124H525.563V118.024H529.787C533.123 118.024 535.019 115.72 535.019 113.008C535.019 110.296 533.147 107.992 529.787 107.992H522.755V124ZM532.139 113.008C532.139 114.544 530.987 115.552 529.403 115.552H525.563V110.464H529.403C530.987 110.464 532.139 111.472 532.139 113.008ZM537.284 124H539.804V116.104C540.308 115.288 541.724 114.568 542.78 114.568C543.092 114.568 543.356 114.592 543.572 114.64V112.144C542.06 112.144 540.668 113.008 539.804 114.112V112.408H537.284V124ZM550.837 124.288C554.557 124.288 556.813 121.528 556.813 118.192C556.813 114.88 554.557 112.12 550.837 112.12C547.165 112.12 544.885 114.88 544.885 118.192C544.885 121.528 547.165 124.288 550.837 124.288ZM550.837 122.056C548.701 122.056 547.501 120.256 547.501 118.192C547.501 116.152 548.701 114.352 550.837 114.352C552.997 114.352 554.197 116.152 554.197 118.192C554.197 120.256 552.997 122.056 550.837 122.056ZM566.073 124H568.905L564.633 118.048L568.641 112.408H565.809L563.073 116.344L560.313 112.408H557.481L561.489 118.048L557.241 124H560.049L563.073 119.728L566.073 124ZM571.907 110.488C572.771 110.488 573.467 109.792 573.467 108.928C573.467 108.064 572.771 107.368 571.907 107.368C571.067 107.368 570.347 108.064 570.347 108.928C570.347 109.792 571.067 110.488 571.907 110.488ZM570.659 124H573.179V112.408H570.659V124ZM590.656 124H593.176V115.624C593.176 113.272 591.976 112.12 589.84 112.12C588.112 112.12 586.576 113.2 585.904 114.256C585.52 112.984 584.464 112.12 582.736 112.12C580.984 112.12 579.448 113.272 578.968 113.992V112.408H576.448V124H578.968V115.912C579.496 115.144 580.528 114.352 581.632 114.352C583 114.352 583.552 115.192 583.552 116.44V124H586.072V115.888C586.576 115.144 587.632 114.352 588.76 114.352C590.104 114.352 590.656 115.192 590.656 116.44V124ZM603.521 124H606.041V116.32C606.041 113.2 603.785 112.12 601.217 112.12C599.369 112.12 597.689 112.72 596.345 113.992L597.377 115.744C598.385 114.76 599.513 114.28 600.809 114.28C602.417 114.28 603.521 115.096 603.521 116.44V118.168C602.681 117.184 601.337 116.68 599.777 116.68C597.881 116.68 595.745 117.784 595.745 120.448C595.745 123.016 597.881 124.288 599.777 124.288C601.313 124.288 602.657 123.736 603.521 122.752V124ZM603.521 121.36C602.945 122.152 601.865 122.56 600.761 122.56C599.345 122.56 598.289 121.744 598.289 120.496C598.289 119.224 599.345 118.408 600.761 118.408C601.865 118.408 602.945 118.816 603.521 119.608V121.36ZM626.704 124H629.416V107.992H626.608V119.344L618.424 107.992H615.544V124H618.352V112.336L626.704 124ZM637.977 124.288C641.697 124.288 643.953 121.528 643.953 118.192C643.953 114.88 641.697 112.12 637.977 112.12C634.305 112.12 632.025 114.88 632.025 118.192C632.025 121.528 634.305 124.288 637.977 124.288ZM637.977 122.056C635.841 122.056 634.641 120.256 634.641 118.192C634.641 116.152 635.841 114.352 637.977 114.352C640.137 114.352 641.337 116.152 641.337 118.192C641.337 120.256 640.137 122.056 637.977 122.056ZM649.551 124H652.263L656.991 112.408H654.279L650.895 121.096L647.511 112.408H644.823L649.551 124ZM665.653 124H668.173V116.32C668.173 113.2 665.917 112.12 663.349 112.12C661.501 112.12 659.821 112.72 658.477 113.992L659.509 115.744C660.517 114.76 661.645 114.28 662.941 114.28C664.549 114.28 665.653 115.096 665.653 116.44V118.168C664.813 117.184 663.469 116.68 661.909 116.68C660.013 116.68 657.877 117.784 657.877 120.448C657.877 123.016 660.013 124.288 661.909 124.288C663.445 124.288 664.789 123.736 665.653 122.752V124ZM665.653 121.36C665.077 122.152 663.997 122.56 662.893 122.56C661.477 122.56 660.421 121.744 660.421 120.496C660.421 119.224 661.477 118.408 662.893 118.408C663.997 118.408 665.077 118.816 665.653 119.608V121.36Z" fill="black"/>
<path d="M521.711 197H530.081L529.991 196.79L528.521 196.7C526.961 196.61 526.781 196.49 526.781 196.28V187.52L528.701 187.58C531.671 187.7 532.211 187.88 532.361 190.04L532.391 190.43L532.571 190.46L533.171 184.43L532.991 184.4L532.841 184.79C532.241 186.74 531.641 187.1 528.911 187.22H526.781V178.52H530.441C534.131 178.52 534.971 180.32 536.021 183.35L536.171 183.74L536.351 183.71L535.751 178.25H521.741L521.831 178.43L522.701 178.52C524.261 178.64 524.381 178.73 524.381 178.94V196.22C524.381 196.4 524.051 196.61 523.001 196.7L521.801 196.82L521.711 197ZM535.943 197H542.393L542.303 196.82L541.343 196.79C540.023 196.76 539.933 196.64 539.933 196.4V189.8C540.773 186.74 541.403 185.39 542.693 185.12C542.753 186.38 543.503 186.95 544.253 186.95C545.153 186.95 545.693 186.17 545.693 185.45C545.693 184.67 544.973 183.92 543.923 183.92C542.003 183.92 540.713 185.87 539.903 188.96H539.873L539.963 183.98L535.943 185.03L535.913 185.15L536.603 185.27C537.623 185.42 537.833 185.78 537.833 187.64V196.34C537.833 196.7 537.503 196.73 536.573 196.79L536.033 196.82L535.943 197ZM551.966 197.39C554.396 197.39 556.016 195.92 557.366 193.58L557.156 193.49C556.016 195.29 554.816 195.89 552.986 195.89C550.346 195.89 548.276 193.55 548.276 190.01C548.276 189.56 548.336 188.84 548.396 188.39L557.006 188.42C557.036 188.21 557.066 188.15 557.066 188C557.066 185.72 555.356 183.89 552.326 183.89C548.516 183.89 545.996 187.1 545.996 190.94C545.996 194.54 548.576 197.39 551.966 197.39ZM548.456 188.12C548.936 185.99 550.466 184.19 552.116 184.19C553.946 184.19 554.726 186.05 554.726 188.06L548.456 188.12ZM560.878 181.25C561.898 181.25 562.348 180.38 562.348 179.78C562.348 179.18 561.928 178.28 560.878 178.28C559.828 178.28 559.378 179.18 559.378 179.78C559.378 180.38 559.828 181.25 560.878 181.25ZM558.208 197H564.208L564.118 196.82L563.698 196.79C562.378 196.7 562.198 196.64 562.198 196.4V183.98L558.208 185.03L558.178 185.15L558.868 185.27C559.888 185.42 560.098 185.78 560.098 187.61V196.34C560.098 196.7 559.768 196.73 558.838 196.79L558.298 196.82L558.208 197ZM569.452 204.44C573.952 204.44 577.042 201.92 577.042 198.62C577.042 196.55 575.422 195.32 572.632 195.32C571.552 195.32 570.082 195.41 569.272 195.41C567.532 195.41 566.752 195.08 566.752 194.12C566.752 193.28 567.592 192.62 568.732 192.41C569.032 192.47 569.782 192.62 570.412 192.62C573.262 192.62 575.482 190.73 575.482 188.21C575.482 187.16 574.912 186.14 574.222 185.51L574.252 185.42L577.072 185.69L577.312 184.4L573.802 185.06C572.932 184.4 571.822 183.95 570.532 183.95C567.772 183.95 565.582 185.87 565.582 188.45C565.582 190.31 566.902 191.75 568.342 192.23V192.29C566.752 192.56 564.892 193.76 564.892 195.32C564.892 196.52 566.212 197.27 568.222 197.45V197.51C566.662 198.08 564.592 199.49 564.592 201.2C564.592 203.24 566.482 204.44 569.452 204.44ZM570.502 192.38C568.882 192.38 567.772 190.73 567.772 188.15C567.772 185.81 568.942 184.19 570.502 184.19C572.512 184.19 573.352 185.99 573.352 188.54C573.352 190.85 572.092 192.38 570.502 192.38ZM570.832 203.9C568.132 203.9 566.242 202.52 566.242 200.66C566.242 199.22 567.562 197.96 568.582 197.57C569.452 197.45 571.072 197.36 571.912 197.39C574.612 197.48 575.752 198.47 575.752 200.06C575.752 202.19 573.472 203.9 570.832 203.9ZM577.539 197H583.509L583.419 196.82L582.999 196.79C581.649 196.7 581.469 196.64 581.469 196.4V186.98C582.429 186.08 583.629 185.42 585.069 185.42C586.779 185.42 587.679 186.29 587.679 188.06V196.34C587.679 196.58 587.499 196.73 586.419 196.79L585.879 196.82L585.789 197H591.789L591.699 196.82L591.279 196.79C589.779 196.7 589.779 196.55 589.779 196.37V187.64C589.779 186.38 589.479 185.45 588.819 184.76C588.279 184.22 587.529 183.92 586.599 183.92C584.439 183.92 582.669 185.63 581.499 186.62L581.469 186.56V176.81L577.509 177.8L577.479 177.92L578.169 178.04C579.189 178.25 579.369 178.55 579.369 179.75V196.34C579.369 196.7 579.039 196.73 578.139 196.79L577.629 196.82L577.539 197ZM596.992 197.39C598.552 197.39 599.752 196.28 600.952 195.08L600.802 194.99C600.112 195.56 599.362 196.16 598.222 196.16C597.052 196.16 596.272 195.53 596.302 194.24L596.512 185.36H600.082L600.502 184.31H596.512L596.542 181.64L596.272 181.61L592.132 185.15L592.042 185.39L594.382 185.42L594.202 194.48C594.172 196.73 595.522 197.39 596.992 197.39ZM601.751 197H608.981C613.991 197 616.781 194.87 616.781 191.81C616.781 189.11 614.561 186.83 610.061 186.62V186.53C614.321 185.93 615.731 184.25 615.731 182.24C615.731 179.99 613.721 178.25 608.891 178.25H601.781L601.871 178.43L602.621 178.52C604.181 178.64 604.361 178.73 604.361 178.94V196.22C604.361 196.4 603.971 196.61 602.921 196.7L601.841 196.82L601.751 197ZM608.861 196.73L606.761 196.19V186.92C607.241 186.86 607.991 186.83 608.651 186.83C611.951 186.83 614.171 189.02 614.171 191.96C614.171 194.24 612.821 196.49 609.551 196.64C609.581 196.67 608.861 196.73 608.861 196.73ZM606.761 186.53V178.61H608.321C611.501 178.61 613.061 179.9 613.061 182.54C613.061 184.76 611.471 186.44 608.231 186.5L606.761 186.53ZM620.937 181.25C621.957 181.25 622.407 180.38 622.407 179.78C622.407 179.18 621.987 178.28 620.937 178.28C619.887 178.28 619.437 179.18 619.437 179.78C619.437 180.38 619.887 181.25 620.937 181.25ZM618.267 197H624.267L624.177 196.82L623.757 196.79C622.437 196.7 622.257 196.64 622.257 196.4V183.98L618.267 185.03L618.237 185.15L618.927 185.27C619.947 185.42 620.157 185.78 620.157 187.61V196.34C620.157 196.7 619.827 196.73 618.897 196.79L618.357 196.82L618.267 197ZM629.51 204.44C634.01 204.44 637.1 201.92 637.1 198.62C637.1 196.55 635.48 195.32 632.69 195.32C631.61 195.32 630.14 195.41 629.33 195.41C627.59 195.41 626.81 195.08 626.81 194.12C626.81 193.28 627.65 192.62 628.79 192.41C629.09 192.47 629.84 192.62 630.47 192.62C633.32 192.62 635.54 190.73 635.54 188.21C635.54 187.16 634.97 186.14 634.28 185.51L634.31 185.42L637.13 185.69L637.37 184.4L633.86 185.06C632.99 184.4 631.88 183.95 630.59 183.95C627.83 183.95 625.64 185.87 625.64 188.45C625.64 190.31 626.96 191.75 628.4 192.23V192.29C626.81 192.56 624.95 193.76 624.95 195.32C624.95 196.52 626.27 197.27 628.28 197.45V197.51C626.72 198.08 624.65 199.49 624.65 201.2C624.65 203.24 626.54 204.44 629.51 204.44ZM630.56 192.38C628.94 192.38 627.83 190.73 627.83 188.15C627.83 185.81 629 184.19 630.56 184.19C632.57 184.19 633.41 185.99 633.41 188.54C633.41 190.85 632.15 192.38 630.56 192.38ZM630.89 203.9C628.19 203.9 626.3 202.52 626.3 200.66C626.3 199.22 627.62 197.96 628.64 197.57C629.51 197.45 631.13 197.36 631.97 197.39C634.67 197.48 635.81 198.47 635.81 200.06C635.81 202.19 633.53 203.9 630.89 203.9ZM643.431 197H652.161L652.071 196.82L650.601 196.73C649.041 196.64 648.861 196.52 648.861 196.31V187.7C649.491 187.79 650.541 187.91 651.471 187.91C655.671 187.91 658.581 185.78 658.581 182.72C658.581 179.9 656.331 178.25 651.801 178.25H643.461L643.551 178.43L644.721 178.52C646.281 178.64 646.461 178.73 646.461 178.94V196.22C646.461 196.4 646.071 196.61 645.021 196.7L643.521 196.82L643.431 197ZM651.471 187.58C650.211 187.58 649.491 187.43 648.861 187.25V178.55L650.991 178.52C654.711 178.46 656.031 180.14 656.031 183.08C656.031 185.96 654.351 187.58 651.471 187.58ZM659.107 197H665.557L665.467 196.82L664.507 196.79C663.187 196.76 663.097 196.64 663.097 196.4V189.8C663.937 186.74 664.567 185.39 665.857 185.12C665.917 186.38 666.667 186.95 667.417 186.95C668.317 186.95 668.857 186.17 668.857 185.45C668.857 184.67 668.137 183.92 667.087 183.92C665.167 183.92 663.877 185.87 663.067 188.96H663.037L663.127 183.98L659.107 185.03L659.077 185.15L659.767 185.27C660.787 185.42 660.997 185.78 660.997 187.64V196.34C660.997 196.7 660.667 196.73 659.737 196.79L659.197 196.82L659.107 197ZM675.88 197.39C679.66 197.39 682.57 194.42 682.57 190.58C682.57 186.8 679.69 183.89 675.88 183.89C672.07 183.89 669.16 186.95 669.16 190.7C669.16 194.48 672.04 197.39 675.88 197.39ZM675.91 197.15C674.89 197.15 674.02 196.76 673.36 196.1C672.19 194.96 671.65 192.77 671.65 190.31C671.65 187.1 673.24 184.13 675.82 184.13C676.9 184.13 677.74 184.61 678.4 185.24C679.54 186.38 680.05 188.54 680.05 190.85C680.05 194.21 678.37 197.15 675.91 197.15Z" fill="black"/>
<line x1="771.055" y1="32" x2="771.055" y2="206" stroke="#F3F3F3"/>
<path d="M872.535 55L872.514 45.256L867.684 53.32H866.466L861.636 45.382V55H859.032V40.3H861.279L867.117 50.044L872.85 40.3H875.097L875.118 55H872.535ZM878.836 43.786H881.461V55H878.836V43.786ZM880.159 41.938C879.683 41.938 879.284 41.791 878.962 41.497C878.64 41.189 878.479 40.811 878.479 40.363C878.479 39.915 878.64 39.544 878.962 39.25C879.284 38.942 879.683 38.788 880.159 38.788C880.635 38.788 881.034 38.935 881.356 39.229C881.678 39.509 881.839 39.866 881.839 40.3C881.839 40.762 881.678 41.154 881.356 41.476C881.048 41.784 880.649 41.938 880.159 41.938ZM890.052 55.147C888.89 55.147 887.847 54.902 886.923 54.412C885.999 53.922 885.278 53.243 884.76 52.375C884.242 51.493 883.983 50.499 883.983 49.393C883.983 48.287 884.242 47.3 884.76 46.432C885.278 45.564 885.992 44.885 886.902 44.395C887.826 43.905 888.876 43.66 890.052 43.66C891.158 43.66 892.124 43.884 892.95 44.332C893.79 44.78 894.42 45.424 894.84 46.264L892.824 47.44C892.502 46.922 892.096 46.537 891.606 46.285C891.13 46.019 890.605 45.886 890.031 45.886C889.051 45.886 888.239 46.208 887.595 46.852C886.951 47.482 886.629 48.329 886.629 49.393C886.629 50.457 886.944 51.311 887.574 51.955C888.218 52.585 889.037 52.9 890.031 52.9C890.605 52.9 891.13 52.774 891.606 52.522C892.096 52.256 892.502 51.864 892.824 51.346L894.84 52.522C894.406 53.362 893.769 54.013 892.929 54.475C892.103 54.923 891.144 55.147 890.052 55.147ZM899.608 45.424C900.364 44.248 901.694 43.66 903.598 43.66V46.159C903.374 46.117 903.171 46.096 902.989 46.096C901.967 46.096 901.169 46.397 900.595 46.999C900.021 47.587 899.734 48.441 899.734 49.561V55H897.109V43.786H899.608V45.424ZM910.762 55.147C909.628 55.147 908.606 54.902 907.696 54.412C906.786 53.922 906.072 53.243 905.554 52.375C905.05 51.493 904.798 50.499 904.798 49.393C904.798 48.287 905.05 47.3 905.554 46.432C906.072 45.564 906.786 44.885 907.696 44.395C908.606 43.905 909.628 43.66 910.762 43.66C911.91 43.66 912.939 43.905 913.849 44.395C914.759 44.885 915.466 45.564 915.97 46.432C916.488 47.3 916.747 48.287 916.747 49.393C916.747 50.499 916.488 51.493 915.97 52.375C915.466 53.243 914.759 53.922 913.849 54.412C912.939 54.902 911.91 55.147 910.762 55.147ZM910.762 52.9C911.728 52.9 912.526 52.578 913.156 51.934C913.786 51.29 914.101 50.443 914.101 49.393C914.101 48.343 913.786 47.496 913.156 46.852C912.526 46.208 911.728 45.886 910.762 45.886C909.796 45.886 908.998 46.208 908.368 46.852C907.752 47.496 907.444 48.343 907.444 49.393C907.444 50.443 907.752 51.29 908.368 51.934C908.998 52.578 909.796 52.9 910.762 52.9ZM922.722 55.147C921.812 55.147 920.923 55.028 920.055 54.79C919.187 54.552 918.494 54.251 917.976 53.887L918.984 51.892C919.488 52.228 920.09 52.501 920.79 52.711C921.504 52.907 922.204 53.005 922.89 53.005C924.458 53.005 925.242 52.592 925.242 51.766C925.242 51.374 925.039 51.101 924.633 50.947C924.241 50.793 923.604 50.646 922.722 50.506C921.798 50.366 921.042 50.205 920.454 50.023C919.88 49.841 919.376 49.526 918.942 49.078C918.522 48.616 918.312 47.979 918.312 47.167C918.312 46.103 918.753 45.256 919.635 44.626C920.531 43.982 921.735 43.66 923.247 43.66C924.017 43.66 924.787 43.751 925.557 43.933C926.327 44.101 926.957 44.332 927.447 44.626L926.439 46.621C925.487 46.061 924.416 45.781 923.226 45.781C922.456 45.781 921.868 45.9 921.462 46.138C921.07 46.362 920.874 46.663 920.874 47.041C920.874 47.461 921.084 47.762 921.504 47.944C921.938 48.112 922.603 48.273 923.499 48.427C924.395 48.567 925.13 48.728 925.704 48.91C926.278 49.092 926.768 49.4 927.174 49.834C927.594 50.268 927.804 50.884 927.804 51.682C927.804 52.732 927.349 53.572 926.439 54.202C925.529 54.832 924.29 55.147 922.722 55.147ZM935.105 55.147C933.971 55.147 932.949 54.902 932.039 54.412C931.129 53.922 930.415 53.243 929.897 52.375C929.393 51.493 929.141 50.499 929.141 49.393C929.141 48.287 929.393 47.3 929.897 46.432C930.415 45.564 931.129 44.885 932.039 44.395C932.949 43.905 933.971 43.66 935.105 43.66C936.253 43.66 937.282 43.905 938.192 44.395C939.102 44.885 939.809 45.564 940.313 46.432C940.831 47.3 941.09 48.287 941.09 49.393C941.09 50.499 940.831 51.493 940.313 52.375C939.809 53.243 939.102 53.922 938.192 54.412C937.282 54.902 936.253 55.147 935.105 55.147ZM935.105 52.9C936.071 52.9 936.869 52.578 937.499 51.934C938.129 51.29 938.444 50.443 938.444 49.393C938.444 48.343 938.129 47.496 937.499 46.852C936.869 46.208 936.071 45.886 935.105 45.886C934.139 45.886 933.341 46.208 932.711 46.852C932.095 47.496 931.787 48.343 931.787 49.393C931.787 50.443 932.095 51.29 932.711 51.934C933.341 52.578 934.139 52.9 935.105 52.9ZM948.157 41.392C947.051 41.392 946.498 41.994 946.498 43.198V43.87H949.585V45.97H946.582V55H943.957V45.97H942.109V43.87H943.957V43.156C943.957 41.952 944.307 41.007 945.007 40.321C945.707 39.621 946.694 39.271 947.968 39.271C948.976 39.271 949.767 39.474 950.341 39.88L949.606 41.854C949.158 41.546 948.675 41.392 948.157 41.392ZM958.093 54.391C957.785 54.643 957.407 54.832 956.959 54.958C956.525 55.084 956.063 55.147 955.573 55.147C954.341 55.147 953.389 54.825 952.717 54.181C952.045 53.537 951.709 52.599 951.709 51.367V45.97H949.861V43.87H951.709V41.308H954.334V43.87H957.337V45.97H954.334V51.304C954.334 51.85 954.467 52.27 954.733 52.564C954.999 52.844 955.384 52.984 955.888 52.984C956.476 52.984 956.966 52.83 957.358 52.522L958.093 54.391ZM970.865 55.21C969.731 55.21 968.632 55.049 967.568 54.727C966.518 54.405 965.685 53.978 965.069 53.446L966.014 51.325C966.616 51.801 967.351 52.193 968.219 52.501C969.101 52.795 969.983 52.942 970.865 52.942C971.957 52.942 972.769 52.767 973.301 52.417C973.847 52.067 974.12 51.605 974.12 51.031C974.12 50.611 973.966 50.268 973.658 50.002C973.364 49.722 972.986 49.505 972.524 49.351C972.062 49.197 971.432 49.022 970.634 48.826C969.514 48.56 968.604 48.294 967.904 48.028C967.218 47.762 966.623 47.349 966.119 46.789C965.629 46.215 965.384 45.445 965.384 44.479C965.384 43.667 965.601 42.932 966.035 42.274C966.483 41.602 967.148 41.07 968.03 40.678C968.926 40.286 970.018 40.09 971.306 40.09C972.202 40.09 973.084 40.202 973.952 40.426C974.82 40.65 975.569 40.972 976.199 41.392L975.338 43.513C974.694 43.135 974.022 42.848 973.322 42.652C972.622 42.456 971.943 42.358 971.285 42.358C970.207 42.358 969.402 42.54 968.87 42.904C968.352 43.268 968.093 43.751 968.093 44.353C968.093 44.773 968.24 45.116 968.534 45.382C968.842 45.648 969.227 45.858 969.689 46.012C970.151 46.166 970.781 46.341 971.579 46.537C972.671 46.789 973.567 47.055 974.267 47.335C974.967 47.601 975.562 48.014 976.052 48.574C976.556 49.134 976.808 49.89 976.808 50.842C976.808 51.654 976.584 52.389 976.136 53.047C975.702 53.705 975.037 54.23 974.141 54.622C973.245 55.014 972.153 55.21 970.865 55.21ZM990.12 43.786V55H987.621V53.572C987.201 54.076 986.676 54.468 986.046 54.748C985.416 55.014 984.737 55.147 984.009 55.147C982.511 55.147 981.328 54.734 980.46 53.908C979.606 53.068 979.179 51.829 979.179 50.191V43.786H981.804V49.834C981.804 50.842 982.028 51.598 982.476 52.102C982.938 52.592 983.589 52.837 984.429 52.837C985.367 52.837 986.109 52.55 986.655 51.976C987.215 51.388 987.495 50.548 987.495 49.456V43.786H990.12ZM999.773 43.66C1000.86 43.66 1001.84 43.898 1002.69 44.374C1003.56 44.85 1004.24 45.522 1004.73 46.39C1005.22 47.258 1005.46 48.259 1005.46 49.393C1005.46 50.527 1005.22 51.535 1004.73 52.417C1004.24 53.285 1003.56 53.957 1002.69 54.433C1001.84 54.909 1000.86 55.147 999.773 55.147C999.003 55.147 998.296 55.014 997.652 54.748C997.022 54.482 996.49 54.083 996.056 53.551V55H993.557V39.418H996.182V45.151C996.63 44.661 997.155 44.29 997.757 44.038C998.373 43.786 999.045 43.66 999.773 43.66ZM999.479 52.9C1000.44 52.9 1001.24 52.578 1001.85 51.934C1002.48 51.29 1002.8 50.443 1002.8 49.393C1002.8 48.343 1002.48 47.496 1001.85 46.852C1001.24 46.208 1000.44 45.886 999.479 45.886C998.849 45.886 998.282 46.033 997.778 46.327C997.274 46.607 996.875 47.013 996.581 47.545C996.287 48.077 996.14 48.693 996.14 49.393C996.14 50.093 996.287 50.709 996.581 51.241C996.875 51.773 997.274 52.186 997.778 52.48C998.282 52.76 998.849 52.9 999.479 52.9ZM1011.42 55.147C1010.51 55.147 1009.62 55.028 1008.75 54.79C1007.88 54.552 1007.19 54.251 1006.67 53.887L1007.68 51.892C1008.18 52.228 1008.79 52.501 1009.49 52.711C1010.2 52.907 1010.9 53.005 1011.59 53.005C1013.15 53.005 1013.94 52.592 1013.94 51.766C1013.94 51.374 1013.74 51.101 1013.33 50.947C1012.94 50.793 1012.3 50.646 1011.42 50.506C1010.49 50.366 1009.74 50.205 1009.15 50.023C1008.58 49.841 1008.07 49.526 1007.64 49.078C1007.22 48.616 1007.01 47.979 1007.01 47.167C1007.01 46.103 1007.45 45.256 1008.33 44.626C1009.23 43.982 1010.43 43.66 1011.94 43.66C1012.71 43.66 1013.48 43.751 1014.25 43.933C1015.02 44.101 1015.65 44.332 1016.14 44.626L1015.14 46.621C1014.18 46.061 1013.11 45.781 1011.92 45.781C1011.15 45.781 1010.56 45.9 1010.16 46.138C1009.77 46.362 1009.57 46.663 1009.57 47.041C1009.57 47.461 1009.78 47.762 1010.2 47.944C1010.63 48.112 1011.3 48.273 1012.2 48.427C1013.09 48.567 1013.83 48.728 1014.4 48.91C1014.97 49.092 1015.46 49.4 1015.87 49.834C1016.29 50.268 1016.5 50.884 1016.5 51.682C1016.5 52.732 1016.05 53.572 1015.14 54.202C1014.23 54.832 1012.99 55.147 1011.42 55.147ZM1025.5 54.391C1025.19 54.643 1024.82 54.832 1024.37 54.958C1023.93 55.084 1023.47 55.147 1022.98 55.147C1021.75 55.147 1020.8 54.825 1020.13 54.181C1019.45 53.537 1019.12 52.599 1019.12 51.367V45.97H1017.27V43.87H1019.12V41.308H1021.74V43.87H1024.75V45.97H1021.74V51.304C1021.74 51.85 1021.88 52.27 1022.14 52.564C1022.41 52.844 1022.79 52.984 1023.3 52.984C1023.89 52.984 1024.38 52.83 1024.77 52.522L1025.5 54.391ZM1027.66 43.786H1030.29V55H1027.66V43.786ZM1028.98 41.938C1028.51 41.938 1028.11 41.791 1027.79 41.497C1027.47 41.189 1027.3 40.811 1027.3 40.363C1027.3 39.915 1027.47 39.544 1027.79 39.25C1028.11 38.942 1028.51 38.788 1028.98 38.788C1029.46 38.788 1029.86 38.935 1030.18 39.229C1030.5 39.509 1030.66 39.866 1030.66 40.3C1030.66 40.762 1030.5 41.154 1030.18 41.476C1029.87 41.784 1029.47 41.938 1028.98 41.938ZM1040.47 54.391C1040.16 54.643 1039.79 54.832 1039.34 54.958C1038.9 55.084 1038.44 55.147 1037.95 55.147C1036.72 55.147 1035.77 54.825 1035.1 54.181C1034.42 53.537 1034.09 52.599 1034.09 51.367V45.97H1032.24V43.87H1034.09V41.308H1036.71V43.87H1039.72V45.97H1036.71V51.304C1036.71 51.85 1036.85 52.27 1037.11 52.564C1037.38 52.844 1037.76 52.984 1038.27 52.984C1038.86 52.984 1039.35 52.83 1039.74 52.522L1040.47 54.391ZM1053.49 43.786V55H1050.99V53.572C1050.57 54.076 1050.05 54.468 1049.42 54.748C1048.79 55.014 1048.11 55.147 1047.38 55.147C1045.88 55.147 1044.7 54.734 1043.83 53.908C1042.98 53.068 1042.55 51.829 1042.55 50.191V43.786H1045.17V49.834C1045.17 50.842 1045.4 51.598 1045.85 52.102C1046.31 52.592 1046.96 52.837 1047.8 52.837C1048.74 52.837 1049.48 52.55 1050.02 51.976C1050.58 51.388 1050.86 50.548 1050.86 49.456V43.786H1053.49ZM1063.67 54.391C1063.36 54.643 1062.98 54.832 1062.53 54.958C1062.1 55.084 1061.64 55.147 1061.15 55.147C1059.92 55.147 1058.96 54.825 1058.29 54.181C1057.62 53.537 1057.28 52.599 1057.28 51.367V45.97H1055.44V43.87H1057.28V41.308H1059.91V43.87H1062.91V45.97H1059.91V51.304C1059.91 51.85 1060.04 52.27 1060.31 52.564C1060.57 52.844 1060.96 52.984 1061.46 52.984C1062.05 52.984 1062.54 52.83 1062.93 52.522L1063.67 54.391ZM1076 49.456C1076 49.638 1075.99 49.897 1075.96 50.233H1067.16C1067.31 51.059 1067.71 51.717 1068.36 52.207C1069.01 52.683 1069.83 52.921 1070.79 52.921C1072.02 52.921 1073.04 52.515 1073.84 51.703L1075.24 53.32C1074.74 53.922 1074.1 54.377 1073.33 54.685C1072.56 54.993 1071.69 55.147 1070.73 55.147C1069.5 55.147 1068.41 54.902 1067.47 54.412C1066.54 53.922 1065.81 53.243 1065.29 52.375C1064.79 51.493 1064.53 50.499 1064.53 49.393C1064.53 48.301 1064.78 47.321 1065.27 46.453C1065.77 45.571 1066.47 44.885 1067.35 44.395C1068.23 43.905 1069.22 43.66 1070.33 43.66C1071.42 43.66 1072.39 43.905 1073.25 44.395C1074.12 44.871 1074.79 45.55 1075.26 46.432C1075.75 47.3 1076 48.308 1076 49.456ZM1070.33 45.76C1069.49 45.76 1068.78 46.012 1068.19 46.516C1067.61 47.006 1067.26 47.664 1067.14 48.49H1073.5C1073.39 47.678 1073.05 47.02 1072.47 46.516C1071.9 46.012 1071.18 45.76 1070.33 45.76Z" fill="black"/>
<path d="M866.862 110.227C865.995 110.227 865.183 110.367 864.425 110.648C863.675 110.922 863.022 111.336 862.468 111.891C861.913 112.438 861.476 113.121 861.155 113.941C860.835 114.754 860.675 115.703 860.675 116.789C860.675 117.867 860.823 118.805 861.12 119.602C861.417 120.391 861.839 121.047 862.386 121.57C862.933 122.086 863.589 122.469 864.354 122.719C865.128 122.969 865.987 123.094 866.933 123.094C867.19 123.094 867.464 123.082 867.753 123.059C868.042 123.027 868.331 122.988 868.62 122.941C868.917 122.887 869.202 122.828 869.476 122.766C869.757 122.695 870.007 122.621 870.226 122.543V124.23C869.765 124.41 869.229 124.547 868.62 124.641C868.011 124.742 867.386 124.793 866.745 124.793C865.44 124.793 864.284 124.613 863.276 124.254C862.269 123.887 861.421 123.363 860.733 122.684C860.054 122.004 859.538 121.176 859.187 120.199C858.835 119.215 858.659 118.102 858.659 116.859C858.659 115.641 858.843 114.52 859.21 113.496C859.585 112.473 860.12 111.594 860.815 110.859C861.519 110.125 862.366 109.555 863.358 109.148C864.358 108.734 865.479 108.527 866.722 108.527C867.05 108.527 867.374 108.543 867.694 108.574C868.015 108.598 868.319 108.637 868.608 108.691C868.905 108.738 869.179 108.797 869.429 108.867C869.679 108.938 869.894 109.012 870.073 109.09V110.777C869.604 110.621 869.093 110.492 868.538 110.391C867.983 110.281 867.425 110.227 866.862 110.227ZM881.194 118.945C881.194 118.258 881.108 117.648 880.937 117.117C880.772 116.578 880.538 116.125 880.233 115.758C879.937 115.383 879.581 115.102 879.167 114.914C878.753 114.719 878.3 114.621 877.808 114.621C877.315 114.621 876.862 114.719 876.448 114.914C876.034 115.102 875.675 115.383 875.37 115.758C875.073 116.125 874.839 116.578 874.667 117.117C874.503 117.648 874.421 118.258 874.421 118.945C874.421 119.625 874.503 120.234 874.667 120.773C874.839 121.305 875.077 121.754 875.382 122.121C875.687 122.488 876.046 122.77 876.46 122.965C876.874 123.152 877.327 123.246 877.819 123.246C878.312 123.246 878.761 123.152 879.167 122.965C879.581 122.77 879.937 122.488 880.233 122.121C880.538 121.754 880.772 121.305 880.937 120.773C881.108 120.234 881.194 119.625 881.194 118.945ZM883.093 118.945C883.093 119.82 882.968 120.617 882.718 121.336C882.468 122.055 882.112 122.672 881.651 123.188C881.198 123.695 880.647 124.09 879.999 124.371C879.351 124.652 878.624 124.793 877.819 124.793C876.991 124.793 876.249 124.652 875.593 124.371C874.944 124.09 874.39 123.695 873.929 123.188C873.476 122.672 873.128 122.055 872.886 121.336C872.644 120.617 872.522 119.82 872.522 118.945C872.522 118.062 872.647 117.262 872.897 116.543C873.147 115.824 873.499 115.207 873.952 114.691C874.413 114.176 874.968 113.777 875.616 113.496C876.272 113.215 877.003 113.074 877.808 113.074C878.628 113.074 879.366 113.215 880.022 113.496C880.679 113.777 881.233 114.176 881.687 114.691C882.14 115.207 882.487 115.824 882.729 116.543C882.972 117.262 883.093 118.062 883.093 118.945ZM892.069 114.844H891.929C891.499 114.844 891.077 114.883 890.663 114.961C890.249 115.039 889.858 115.16 889.491 115.324C889.132 115.48 888.804 115.676 888.507 115.91C888.218 116.145 887.976 116.422 887.78 116.742V124.5H885.964V113.367H887.37L887.722 115.137H887.757C887.937 114.848 888.155 114.578 888.413 114.328C888.679 114.078 888.976 113.859 889.304 113.672C889.632 113.484 889.991 113.34 890.382 113.238C890.772 113.129 891.183 113.074 891.612 113.074C891.69 113.074 891.769 113.078 891.847 113.086C891.933 113.086 892.007 113.09 892.069 113.098V114.844ZM902.089 118.887C902.089 118.004 901.983 117.289 901.772 116.742C901.569 116.188 901.304 115.758 900.976 115.453C900.655 115.141 900.312 114.926 899.944 114.809C899.577 114.691 899.21 114.633 898.843 114.633C898.28 114.633 897.749 114.75 897.249 114.984C896.757 115.219 896.319 115.523 895.937 115.898V121.723C896.046 121.871 896.187 122.035 896.358 122.215C896.538 122.387 896.749 122.551 896.991 122.707C897.233 122.855 897.503 122.984 897.8 123.094C898.104 123.195 898.437 123.246 898.796 123.246C899.335 123.246 899.808 123.141 900.214 122.93C900.628 122.719 900.972 122.422 901.245 122.039C901.526 121.648 901.737 121.188 901.878 120.656C902.019 120.117 902.089 119.527 902.089 118.887ZM903.987 118.746C903.987 119.785 903.847 120.684 903.565 121.441C903.284 122.199 902.913 122.828 902.452 123.328C901.991 123.82 901.464 124.188 900.87 124.43C900.276 124.672 899.663 124.793 899.03 124.793C898.554 124.793 898.132 124.73 897.765 124.605C897.405 124.488 897.097 124.348 896.839 124.184C896.589 124.012 896.386 123.84 896.229 123.668C896.081 123.496 895.976 123.359 895.913 123.258H895.878L895.491 124.5H894.12V107.531H895.937V114.41H895.972C896.37 113.988 896.835 113.66 897.366 113.426C897.897 113.191 898.503 113.074 899.183 113.074C899.495 113.074 899.831 113.109 900.19 113.18C900.558 113.25 900.917 113.371 901.269 113.543C901.628 113.715 901.972 113.941 902.3 114.223C902.628 114.504 902.917 114.855 903.167 115.277C903.417 115.691 903.616 116.188 903.765 116.766C903.913 117.336 903.987 117.996 903.987 118.746ZM911.229 114.633C910.815 114.633 910.429 114.715 910.069 114.879C909.718 115.043 909.409 115.266 909.144 115.547C908.878 115.828 908.663 116.16 908.499 116.543C908.335 116.918 908.233 117.32 908.194 117.75H913.819C913.819 117.312 913.761 116.906 913.644 116.531C913.534 116.148 913.37 115.816 913.151 115.535C912.933 115.254 912.663 115.035 912.343 114.879C912.022 114.715 911.651 114.633 911.229 114.633ZM912.226 123.211C912.827 123.211 913.374 123.164 913.866 123.07C914.366 122.969 914.862 122.828 915.354 122.648V124.16C914.956 124.355 914.464 124.508 913.878 124.617C913.292 124.734 912.663 124.793 911.991 124.793C911.194 124.793 910.444 124.691 909.741 124.488C909.046 124.285 908.437 123.957 907.913 123.504C907.39 123.051 906.976 122.461 906.671 121.734C906.374 121 906.226 120.117 906.226 119.086C906.226 118.07 906.366 117.191 906.647 116.449C906.929 115.699 907.304 115.074 907.772 114.574C908.241 114.074 908.78 113.699 909.39 113.449C909.999 113.199 910.636 113.074 911.3 113.074C911.925 113.074 912.507 113.18 913.046 113.391C913.593 113.594 914.065 113.918 914.464 114.363C914.862 114.809 915.175 115.383 915.401 116.086C915.636 116.789 915.753 117.633 915.753 118.617C915.753 118.711 915.753 118.793 915.753 118.863C915.753 118.926 915.749 119.074 915.741 119.309H908.101C908.101 120.02 908.206 120.625 908.417 121.125C908.636 121.617 908.929 122.02 909.296 122.332C909.671 122.637 910.108 122.859 910.608 123C911.108 123.141 911.647 123.211 912.226 123.211ZM918.94 124.5V107.531H920.757V124.5H918.94ZM927.659 127.418L932.112 108.82H933.847L929.394 127.418H927.659Z" fill="black"/>
<path d="M939.366 124L945.964 106.82H948.413L955.444 124H952.854L950.851 118.797H943.667L941.78 124H939.366ZM944.323 116.945H950.147L948.354 112.188C947.808 110.742 947.401 109.555 947.136 108.625C946.917 109.727 946.608 110.82 946.21 111.906L944.323 116.945ZM956.968 124V111.555H958.866V113.441C959.351 112.559 959.796 111.977 960.202 111.695C960.616 111.414 961.069 111.273 961.562 111.273C962.272 111.273 962.995 111.5 963.729 111.953L963.003 113.91C962.487 113.605 961.972 113.453 961.456 113.453C960.995 113.453 960.581 113.594 960.214 113.875C959.847 114.148 959.585 114.531 959.429 115.023C959.194 115.773 959.077 116.594 959.077 117.484V124H956.968ZM964.995 109.246V106.82H967.104V109.246H964.995ZM964.995 124V111.555H967.104V124H964.995ZM978.448 122.465C977.667 123.129 976.913 123.598 976.187 123.871C975.468 124.145 974.694 124.281 973.866 124.281C972.499 124.281 971.448 123.949 970.714 123.285C969.979 122.613 969.612 121.758 969.612 120.719C969.612 120.109 969.749 119.555 970.022 119.055C970.304 118.547 970.667 118.141 971.112 117.836C971.565 117.531 972.073 117.301 972.636 117.145C973.05 117.035 973.675 116.93 974.511 116.828C976.214 116.625 977.468 116.383 978.272 116.102C978.28 115.812 978.284 115.629 978.284 115.551C978.284 114.691 978.085 114.086 977.687 113.734C977.147 113.258 976.347 113.02 975.284 113.02C974.292 113.02 973.558 113.195 973.081 113.547C972.612 113.891 972.265 114.504 972.038 115.387L969.976 115.105C970.163 114.223 970.472 113.512 970.901 112.973C971.331 112.426 971.952 112.008 972.765 111.719C973.577 111.422 974.519 111.273 975.589 111.273C976.651 111.273 977.515 111.398 978.179 111.648C978.843 111.898 979.331 112.215 979.644 112.598C979.956 112.973 980.175 113.449 980.3 114.027C980.37 114.387 980.405 115.035 980.405 115.973V118.785C980.405 120.746 980.448 121.988 980.534 122.512C980.628 123.027 980.808 123.523 981.073 124H978.87C978.651 123.562 978.511 123.051 978.448 122.465ZM978.272 117.754C977.507 118.066 976.358 118.332 974.827 118.551C973.96 118.676 973.347 118.816 972.987 118.973C972.628 119.129 972.351 119.359 972.155 119.664C971.96 119.961 971.862 120.293 971.862 120.66C971.862 121.223 972.073 121.691 972.495 122.066C972.925 122.441 973.55 122.629 974.37 122.629C975.183 122.629 975.905 122.453 976.538 122.102C977.171 121.742 977.636 121.254 977.933 120.637C978.159 120.16 978.272 119.457 978.272 118.527V117.754ZM983.64 124V106.82H985.749V124H983.64Z" fill="black"/>
<path d="M857.632 197V196.73C858.085 196.707 858.448 196.645 858.722 196.543C859.003 196.434 859.249 196.27 859.46 196.051C859.71 195.801 859.878 195.484 859.964 195.102C860.05 194.719 860.093 194.125 860.093 193.32V184.684C860.093 183.879 860.05 183.285 859.964 182.902C859.878 182.52 859.71 182.203 859.46 181.953C859.249 181.727 859.003 181.562 858.722 181.461C858.44 181.359 858.077 181.297 857.632 181.273V181.004H865.331C866.112 181.004 866.624 181.012 866.866 181.027C867.757 181.098 868.495 181.309 869.081 181.66C869.589 181.973 869.979 182.383 870.253 182.891C870.534 183.398 870.675 183.969 870.675 184.602C870.675 185.625 870.358 186.465 869.726 187.121C869.499 187.363 869.241 187.566 868.952 187.73C868.663 187.887 868.245 188.062 867.698 188.258C868.448 188.383 869.03 188.52 869.444 188.668C869.858 188.816 870.233 189.023 870.569 189.289C871.069 189.695 871.456 190.203 871.729 190.812C872.011 191.414 872.151 192.066 872.151 192.77C872.151 193.48 872.007 194.133 871.718 194.727C871.437 195.312 871.042 195.785 870.534 196.145C870.073 196.465 869.522 196.688 868.882 196.812C868.249 196.938 867.354 197 866.198 197H857.632ZM862.659 181.367V188.328H863.608C864.054 188.328 864.515 188.297 864.991 188.234C865.405 188.172 865.737 188.098 865.987 188.012C866.245 187.926 866.479 187.809 866.69 187.66C867.089 187.363 867.394 186.984 867.604 186.523C867.823 186.055 867.933 185.539 867.933 184.977C867.933 184.383 867.819 183.82 867.593 183.289C867.374 182.75 867.081 182.332 866.714 182.035C866.394 181.777 866.026 181.602 865.612 181.508C865.206 181.414 864.585 181.367 863.749 181.367H862.659ZM862.659 188.691V193.52C862.659 194.105 862.698 194.578 862.776 194.938C862.862 195.297 862.999 195.602 863.187 195.852C863.585 196.375 864.269 196.637 865.237 196.637C866.495 196.637 867.487 196.293 868.214 195.605C868.948 194.918 869.315 193.98 869.315 192.793C869.315 192.113 869.202 191.484 868.976 190.906C868.749 190.32 868.444 189.871 868.062 189.559C867.358 188.98 866.257 188.691 864.757 188.691H862.659ZM883.542 195.863L883.741 195.98C883.46 196.801 882.815 197.211 881.808 197.211C881.253 197.211 880.792 197.074 880.425 196.801C880.183 196.621 879.933 196.309 879.675 195.863C879.151 196.332 878.757 196.641 878.491 196.789C877.983 197.07 877.394 197.211 876.722 197.211C875.862 197.211 875.179 197.004 874.671 196.59C874.171 196.176 873.921 195.617 873.921 194.914C873.921 194.266 874.128 193.723 874.542 193.285C874.776 193.043 875.046 192.852 875.351 192.711C875.655 192.562 876.097 192.414 876.675 192.266C877.354 192.094 877.854 191.949 878.175 191.832C878.503 191.715 878.776 191.574 878.995 191.41C879.245 191.23 879.417 191.02 879.511 190.777C879.604 190.535 879.651 190.199 879.651 189.77C879.651 188.855 879.479 188.188 879.136 187.766C878.979 187.57 878.776 187.414 878.526 187.297C878.284 187.18 878.03 187.121 877.765 187.121C877.444 187.121 877.159 187.203 876.909 187.367C876.659 187.531 876.472 187.758 876.347 188.047L876.054 188.727C875.897 189.094 875.616 189.277 875.21 189.277C874.944 189.277 874.722 189.191 874.542 189.02C874.362 188.84 874.272 188.617 874.272 188.352C874.272 187.953 874.554 187.617 875.116 187.344C875.421 187.203 875.796 187.09 876.241 187.004C876.694 186.91 877.136 186.863 877.565 186.863C878.05 186.863 878.554 186.926 879.077 187.051C879.601 187.176 880.038 187.336 880.39 187.531C880.897 187.82 881.214 188.195 881.339 188.656C881.401 188.891 881.433 189.285 881.433 189.84V194.176C881.433 194.91 881.464 195.41 881.526 195.676C881.659 196.23 881.979 196.508 882.487 196.508C882.729 196.508 882.917 196.465 883.05 196.379C883.19 196.293 883.354 196.121 883.542 195.863ZM879.675 191.246C879.253 191.598 878.788 191.906 878.28 192.172C877.71 192.477 877.315 192.707 877.097 192.863C876.878 193.02 876.679 193.207 876.499 193.426C876.132 193.879 875.948 194.406 875.948 195.008C875.948 195.523 876.089 195.949 876.37 196.285C876.659 196.621 877.022 196.789 877.46 196.789C877.843 196.789 878.202 196.672 878.538 196.438C878.882 196.195 879.14 195.875 879.312 195.477C879.554 194.953 879.675 194.195 879.675 193.203V191.246ZM884.573 197V193.684H884.761C884.979 194.496 885.253 195.145 885.581 195.629C886.183 196.512 886.886 196.953 887.69 196.953C888.183 196.953 888.608 196.805 888.968 196.508C889.358 196.18 889.554 195.715 889.554 195.113C889.554 194.621 889.413 194.191 889.132 193.824C888.976 193.629 888.776 193.449 888.534 193.285C888.3 193.121 887.901 192.891 887.339 192.594C886.354 192.07 885.698 191.633 885.37 191.281C884.901 190.781 884.667 190.203 884.667 189.547C884.667 188.844 884.901 188.238 885.37 187.73C885.909 187.152 886.624 186.863 887.515 186.863C887.913 186.863 888.284 186.934 888.628 187.074L889.026 187.25C889.151 187.297 889.261 187.32 889.354 187.32C889.503 187.32 889.644 187.203 889.776 186.969H890.011L890.14 189.629H889.894C889.808 189.254 889.714 188.953 889.612 188.727C889.519 188.5 889.382 188.281 889.202 188.07C888.96 187.773 888.679 187.543 888.358 187.379C888.038 187.207 887.722 187.121 887.409 187.121C886.972 187.121 886.597 187.281 886.284 187.602C885.979 187.914 885.827 188.301 885.827 188.762C885.827 189.145 885.964 189.492 886.237 189.805C886.519 190.109 886.948 190.391 887.526 190.648L888.769 191.211C889.511 191.547 890.065 191.965 890.433 192.465C890.8 192.965 890.983 193.555 890.983 194.234C890.983 195.055 890.718 195.734 890.187 196.273C889.577 196.898 888.796 197.211 887.843 197.211C887.327 197.211 886.804 197.109 886.272 196.906C885.929 196.773 885.722 196.699 885.651 196.684C885.581 196.66 885.491 196.648 885.382 196.648C885.108 196.648 884.901 196.766 884.761 197H884.573ZM895.741 192.266L897.874 189.934C898.312 189.441 898.604 189.078 898.753 188.844C898.901 188.602 898.976 188.359 898.976 188.117C898.976 187.781 898.804 187.547 898.46 187.414C898.312 187.352 898.034 187.309 897.628 187.285V187.039H902.14V187.285C901.569 187.285 901.108 187.383 900.757 187.578C900.405 187.773 899.944 188.18 899.374 188.797L898.905 189.324L897.628 190.695L900.651 194.094C900.901 194.367 901.065 194.543 901.144 194.621L901.671 195.16C902.093 195.582 902.397 195.871 902.585 196.027C902.772 196.184 902.995 196.332 903.253 196.473C903.55 196.629 903.933 196.727 904.401 196.766V197H898.905V196.766C899.233 196.734 899.464 196.68 899.597 196.602C899.784 196.484 899.878 196.32 899.878 196.109C899.878 195.883 899.765 195.645 899.538 195.395L899.292 195.113L896.456 191.973L895.741 192.758V193.613L895.753 194.504C895.753 195.035 895.784 195.426 895.847 195.676C895.909 195.918 896.03 196.121 896.21 196.285C896.429 196.496 896.831 196.656 897.417 196.766V197H892.249V196.766C892.718 196.703 893.054 196.617 893.257 196.508C893.46 196.391 893.624 196.195 893.749 195.922C893.835 195.742 893.894 195.473 893.925 195.113C893.964 194.746 893.983 194.219 893.983 193.531V184.332C893.983 183.535 893.964 182.973 893.925 182.645C893.886 182.316 893.8 182.051 893.667 181.848C893.534 181.629 893.374 181.473 893.187 181.379C892.999 181.285 892.729 181.227 892.378 181.203V180.957L895.741 180.535V192.266ZM906.722 190.625C906.69 191.008 906.675 191.285 906.675 191.457C906.675 192.137 906.772 192.801 906.968 193.449C907.171 194.098 907.444 194.637 907.788 195.066C908.14 195.504 908.573 195.848 909.089 196.098C909.612 196.348 910.159 196.473 910.729 196.473C911.151 196.473 911.55 196.402 911.925 196.262C912.308 196.121 912.624 195.926 912.874 195.676C913.155 195.402 913.397 194.965 913.601 194.363L913.835 194.445C913.632 195.359 913.194 196.051 912.522 196.52C911.858 196.98 910.972 197.211 909.862 197.211C908.901 197.211 908.077 197.059 907.39 196.754C906.702 196.449 906.12 195.98 905.644 195.348C904.979 194.465 904.647 193.379 904.647 192.09C904.647 190.332 905.276 188.953 906.534 187.953C907.448 187.227 908.491 186.863 909.663 186.863C910.288 186.863 910.866 186.977 911.397 187.203C911.929 187.422 912.378 187.742 912.745 188.164C913.315 188.82 913.601 189.641 913.601 190.625H906.722ZM911.854 190.168C911.8 189.387 911.655 188.785 911.421 188.363C911.21 187.98 910.929 187.68 910.577 187.461C910.226 187.234 909.851 187.121 909.452 187.121C908.78 187.121 908.19 187.41 907.683 187.988C907.183 188.566 906.886 189.293 906.792 190.168H911.854ZM918.417 188.668C918.698 188.176 919.015 187.805 919.366 187.555C920.015 187.094 920.753 186.863 921.581 186.863C922.089 186.863 922.476 186.977 922.741 187.203C922.983 187.406 923.104 187.656 923.104 187.953C923.104 188.172 923.03 188.352 922.882 188.492C922.741 188.633 922.558 188.703 922.331 188.703C922.065 188.703 921.835 188.594 921.64 188.375L921.276 187.977C920.987 187.672 920.647 187.52 920.257 187.52C919.726 187.52 919.312 187.863 919.015 188.551C918.718 189.238 918.569 190.195 918.569 191.422V193.613L918.581 194.504C918.581 195.035 918.612 195.426 918.675 195.676C918.737 195.918 918.858 196.121 919.038 196.285C919.257 196.496 919.659 196.656 920.245 196.766V197H915.077V196.766C915.546 196.703 915.882 196.617 916.085 196.508C916.288 196.391 916.452 196.195 916.577 195.922C916.663 195.742 916.722 195.473 916.753 195.113C916.792 194.746 916.812 194.219 916.812 193.531V190.637C916.812 189.832 916.792 189.27 916.753 188.949C916.714 188.621 916.628 188.355 916.495 188.152C916.362 187.934 916.202 187.777 916.015 187.684C915.827 187.582 915.558 187.52 915.206 187.496V187.262L918.218 186.84C918.351 187.551 918.417 188.16 918.417 188.668ZM922.94 187.039H927.476V187.285C927.132 187.355 926.897 187.434 926.772 187.52C926.522 187.676 926.397 187.926 926.397 188.27C926.397 188.48 926.437 188.727 926.515 189.008C926.593 189.289 926.737 189.699 926.948 190.238L928.847 195.055L930.757 190.039C931.038 189.297 931.179 188.746 931.179 188.387C931.179 187.996 931.058 187.711 930.815 187.531C930.69 187.438 930.46 187.355 930.124 187.285V187.039H933.358V187.285C932.921 187.395 932.569 187.59 932.304 187.871C931.968 188.223 931.581 188.961 931.144 190.086L928.437 197H927.804L924.862 189.734C924.409 188.617 924.085 187.941 923.89 187.707C923.78 187.582 923.659 187.492 923.526 187.438C923.394 187.375 923.198 187.324 922.94 187.285V187.039ZM933.487 187.262L936.851 186.84V193.613L936.862 194.504C936.862 195.035 936.894 195.426 936.956 195.676C937.019 195.918 937.14 196.121 937.319 196.285C937.538 196.496 937.94 196.656 938.526 196.766V197H933.358V196.766C933.827 196.703 934.163 196.617 934.366 196.508C934.569 196.391 934.733 196.195 934.858 195.922C934.944 195.742 935.003 195.473 935.034 195.113C935.073 194.746 935.093 194.219 935.093 193.531V190.637C935.093 189.832 935.073 189.27 935.034 188.949C934.995 188.621 934.909 188.355 934.776 188.152C934.644 187.934 934.483 187.777 934.296 187.684C934.108 187.582 933.839 187.52 933.487 187.496V187.262ZM935.925 182.656C935.62 182.656 935.366 182.559 935.163 182.363C934.968 182.168 934.87 181.922 934.87 181.625C934.87 181.336 934.972 181.094 935.175 180.898C935.378 180.695 935.628 180.594 935.925 180.594C936.222 180.594 936.472 180.695 936.675 180.898C936.878 181.094 936.979 181.336 936.979 181.625C936.979 181.922 936.878 182.168 936.675 182.363C936.479 182.559 936.229 182.656 935.925 182.656ZM939.3 180.957L942.663 180.535V193.613L942.675 194.504C942.675 195.035 942.706 195.426 942.769 195.676C942.831 195.918 942.952 196.121 943.132 196.285C943.351 196.496 943.753 196.656 944.339 196.766V197H939.171V196.766C939.64 196.703 939.976 196.617 940.179 196.508C940.382 196.391 940.546 196.195 940.671 195.922C940.757 195.742 940.815 195.473 940.847 195.113C940.886 194.746 940.905 194.219 940.905 193.531V184.332C940.905 183.535 940.886 182.973 940.847 182.645C940.808 182.316 940.722 182.051 940.589 181.848C940.456 181.629 940.296 181.473 940.108 181.379C939.921 181.285 939.651 181.227 939.3 181.203V180.957ZM945.112 180.957L948.476 180.535V193.613L948.487 194.504C948.487 195.035 948.519 195.426 948.581 195.676C948.644 195.918 948.765 196.121 948.944 196.285C949.163 196.496 949.565 196.656 950.151 196.766V197H944.983V196.766C945.452 196.703 945.788 196.617 945.991 196.508C946.194 196.391 946.358 196.195 946.483 195.922C946.569 195.742 946.628 195.473 946.659 195.113C946.698 194.746 946.718 194.219 946.718 193.531V184.332C946.718 183.535 946.698 182.973 946.659 182.645C946.62 182.316 946.534 182.051 946.401 181.848C946.269 181.629 946.108 181.473 945.921 181.379C945.733 181.285 945.464 181.227 945.112 181.203V180.957ZM953.269 190.625C953.237 191.008 953.222 191.285 953.222 191.457C953.222 192.137 953.319 192.801 953.515 193.449C953.718 194.098 953.991 194.637 954.335 195.066C954.687 195.504 955.12 195.848 955.636 196.098C956.159 196.348 956.706 196.473 957.276 196.473C957.698 196.473 958.097 196.402 958.472 196.262C958.854 196.121 959.171 195.926 959.421 195.676C959.702 195.402 959.944 194.965 960.147 194.363L960.382 194.445C960.179 195.359 959.741 196.051 959.069 196.52C958.405 196.98 957.519 197.211 956.409 197.211C955.448 197.211 954.624 197.059 953.937 196.754C953.249 196.449 952.667 195.98 952.19 195.348C951.526 194.465 951.194 193.379 951.194 192.09C951.194 190.332 951.823 188.953 953.081 187.953C953.995 187.227 955.038 186.863 956.21 186.863C956.835 186.863 957.413 186.977 957.944 187.203C958.476 187.422 958.925 187.742 959.292 188.164C959.862 188.82 960.147 189.641 960.147 190.625H953.269ZM958.401 190.168C958.347 189.387 958.202 188.785 957.968 188.363C957.757 187.98 957.476 187.68 957.124 187.461C956.772 187.234 956.397 187.121 955.999 187.121C955.327 187.121 954.737 187.41 954.229 187.988C953.729 188.566 953.433 189.293 953.339 190.168H958.401ZM968.433 189.113C968.433 187.801 968.714 186.586 969.276 185.469C969.839 184.344 970.659 183.363 971.737 182.527C972.542 181.91 973.409 181.438 974.339 181.109C975.269 180.773 976.206 180.605 977.151 180.605C978.354 180.605 979.519 180.871 980.644 181.402C981.769 181.926 982.753 182.668 983.597 183.629C984.972 185.191 985.659 186.969 985.659 188.961C985.659 189.961 985.479 190.926 985.12 191.855C984.761 192.785 984.237 193.633 983.55 194.398C982.706 195.352 981.706 196.09 980.55 196.613C979.401 197.137 978.198 197.398 976.94 197.398C975.698 197.398 974.511 197.145 973.378 196.637C972.245 196.129 971.269 195.41 970.448 194.48C969.8 193.754 969.3 192.93 968.948 192.008C968.604 191.078 968.433 190.113 968.433 189.113ZM971.269 189.289C971.269 191.555 971.886 193.465 973.12 195.02C973.675 195.715 974.261 196.223 974.878 196.543C975.503 196.855 976.222 197.012 977.034 197.012C977.854 197.012 978.573 196.855 979.19 196.543C979.815 196.23 980.409 195.723 980.972 195.02C982.206 193.457 982.823 191.531 982.823 189.242C982.823 187.984 982.651 186.797 982.308 185.68C981.972 184.555 981.495 183.602 980.878 182.82C980.378 182.18 979.819 181.715 979.202 181.426C978.593 181.129 977.87 180.98 977.034 180.98C976.206 180.98 975.487 181.125 974.878 181.414C974.276 181.703 973.718 182.172 973.202 182.82C972.585 183.594 972.108 184.543 971.772 185.668C971.437 186.793 971.269 188 971.269 189.289ZM987.229 180.957L990.593 180.535V193.613L990.604 194.504C990.604 195.035 990.636 195.426 990.698 195.676C990.761 195.918 990.882 196.121 991.062 196.285C991.28 196.496 991.683 196.656 992.269 196.766V197H987.101V196.766C987.569 196.703 987.905 196.617 988.108 196.508C988.312 196.391 988.476 196.195 988.601 195.922C988.687 195.742 988.745 195.473 988.776 195.113C988.815 194.746 988.835 194.219 988.835 193.531V184.332C988.835 183.535 988.815 182.973 988.776 182.645C988.737 182.316 988.651 182.051 988.519 181.848C988.386 181.629 988.226 181.473 988.038 181.379C987.851 181.285 987.581 181.227 987.229 181.203V180.957ZM1001.43 197.375C1001.35 196.992 1001.32 196.586 1001.32 196.156C1000.74 196.531 1000.19 196.801 999.675 196.965C999.167 197.129 998.62 197.211 998.034 197.211C996.847 197.211 995.831 196.855 994.987 196.145C994.448 195.691 994.034 195.125 993.745 194.445C993.456 193.758 993.312 193.008 993.312 192.195C993.312 191.336 993.468 190.543 993.78 189.816C994.093 189.082 994.53 188.473 995.093 187.988C995.983 187.238 997.042 186.863 998.269 186.863C998.862 186.863 999.37 186.949 999.792 187.121C1000.21 187.293 1000.71 187.605 1001.27 188.059V183.711C1001.27 182.859 1001.13 182.246 1000.85 181.871C1000.57 181.496 1000.1 181.309 999.452 181.309V181.027L1003.03 180.57V194.152C1003.03 195.035 1003.17 195.664 1003.45 196.039C1003.73 196.414 1004.19 196.602 1004.84 196.602V196.895L1001.43 197.375ZM1001.27 191.938C1001.27 190.852 1001.22 190.039 1001.13 189.5C1001.03 188.953 1000.87 188.508 1000.62 188.164C1000.41 187.867 1000.13 187.629 999.769 187.449C999.417 187.27 999.054 187.18 998.679 187.18C997.843 187.18 997.12 187.57 996.511 188.352C996.144 188.82 995.854 189.379 995.644 190.027C995.44 190.676 995.339 191.344 995.339 192.031C995.339 192.703 995.437 193.363 995.632 194.012C995.827 194.652 996.093 195.203 996.429 195.664C997.015 196.461 997.733 196.859 998.585 196.859C998.991 196.859 999.378 196.758 999.745 196.555C1000.11 196.352 1000.41 196.07 1000.64 195.711C1000.87 195.336 1001.03 194.875 1001.13 194.328C1001.22 193.773 1001.27 192.977 1001.27 191.938ZM1016.78 188.645V193.32C1016.78 194.117 1016.83 194.707 1016.91 195.09C1017 195.465 1017.16 195.781 1017.41 196.039C1017.62 196.266 1017.86 196.434 1018.14 196.543C1018.43 196.645 1018.8 196.707 1019.25 196.73V197H1011.76V196.73C1012.13 196.73 1012.49 196.672 1012.82 196.555C1013.16 196.43 1013.42 196.266 1013.61 196.062C1013.83 195.82 1013.98 195.488 1014.08 195.066C1014.17 194.645 1014.22 194.062 1014.22 193.32V184.684C1014.22 184.184 1014.19 183.664 1014.14 183.125C1014.06 182.438 1013.72 181.926 1013.13 181.59C1012.8 181.41 1012.34 181.305 1011.76 181.273V181.004H1024L1024.34 184.812L1024.07 184.871C1023.88 184.277 1023.7 183.832 1023.53 183.535C1023.17 182.855 1022.65 182.328 1021.99 181.953C1021.6 181.734 1021.16 181.582 1020.66 181.496C1020.16 181.41 1019.48 181.367 1018.6 181.367H1016.78V188.281H1017.25C1018.64 188.281 1019.64 187.973 1020.26 187.355C1020.54 187.09 1020.75 186.777 1020.89 186.418C1021.03 186.051 1021.12 185.574 1021.17 184.988L1021.44 185L1021.37 192.102H1021.08C1021 191.305 1020.85 190.691 1020.64 190.262C1020.44 189.824 1020.12 189.473 1019.7 189.207C1019.39 189.012 1019 188.871 1018.54 188.785C1018.09 188.691 1017.5 188.645 1016.78 188.645ZM1034.6 195.863L1034.8 195.98C1034.51 196.801 1033.87 197.211 1032.86 197.211C1032.31 197.211 1031.85 197.074 1031.48 196.801C1031.24 196.621 1030.99 196.309 1030.73 195.863C1030.21 196.332 1029.81 196.641 1029.55 196.789C1029.04 197.07 1028.45 197.211 1027.78 197.211C1026.92 197.211 1026.23 197.004 1025.73 196.59C1025.23 196.176 1024.98 195.617 1024.98 194.914C1024.98 194.266 1025.18 193.723 1025.6 193.285C1025.83 193.043 1026.1 192.852 1026.41 192.711C1026.71 192.562 1027.15 192.414 1027.73 192.266C1028.41 192.094 1028.91 191.949 1029.23 191.832C1029.56 191.715 1029.83 191.574 1030.05 191.41C1030.3 191.23 1030.47 191.02 1030.57 190.777C1030.66 190.535 1030.71 190.199 1030.71 189.77C1030.71 188.855 1030.53 188.188 1030.19 187.766C1030.03 187.57 1029.83 187.414 1029.58 187.297C1029.34 187.18 1029.08 187.121 1028.82 187.121C1028.5 187.121 1028.21 187.203 1027.96 187.367C1027.71 187.531 1027.53 187.758 1027.4 188.047L1027.11 188.727C1026.95 189.094 1026.67 189.277 1026.26 189.277C1026 189.277 1025.78 189.191 1025.6 189.02C1025.42 188.84 1025.33 188.617 1025.33 188.352C1025.33 187.953 1025.61 187.617 1026.17 187.344C1026.48 187.203 1026.85 187.09 1027.3 187.004C1027.75 186.91 1028.19 186.863 1028.62 186.863C1029.1 186.863 1029.61 186.926 1030.13 187.051C1030.66 187.176 1031.09 187.336 1031.44 187.531C1031.95 187.82 1032.27 188.195 1032.39 188.656C1032.46 188.891 1032.49 189.285 1032.49 189.84V194.176C1032.49 194.91 1032.52 195.41 1032.58 195.676C1032.71 196.23 1033.03 196.508 1033.54 196.508C1033.78 196.508 1033.97 196.465 1034.1 196.379C1034.25 196.293 1034.41 196.121 1034.6 195.863ZM1030.73 191.246C1030.31 191.598 1029.84 191.906 1029.33 192.172C1028.76 192.477 1028.37 192.707 1028.15 192.863C1027.93 193.02 1027.73 193.207 1027.55 193.426C1027.19 193.879 1027 194.406 1027 195.008C1027 195.523 1027.14 195.949 1027.42 196.285C1027.71 196.621 1028.08 196.789 1028.51 196.789C1028.9 196.789 1029.26 196.672 1029.59 196.438C1029.94 196.195 1030.19 195.875 1030.37 195.477C1030.61 194.953 1030.73 194.195 1030.73 193.203V191.246ZM1043.58 194.785L1043.82 194.867C1043.55 195.695 1043.13 196.293 1042.57 196.66C1042 197.027 1041.23 197.211 1040.25 197.211C1038.67 197.211 1037.43 196.742 1036.53 195.805C1035.66 194.883 1035.22 193.719 1035.22 192.312C1035.22 191.625 1035.34 190.945 1035.58 190.273C1035.82 189.602 1036.16 189.027 1036.58 188.551C1037.05 188.004 1037.64 187.586 1038.32 187.297C1039.02 187.008 1039.78 186.863 1040.6 186.863C1041.73 186.863 1042.62 187.117 1043.26 187.625C1043.65 187.938 1043.84 188.281 1043.84 188.656C1043.84 188.906 1043.76 189.117 1043.6 189.289C1043.43 189.453 1043.23 189.535 1043 189.535C1042.49 189.535 1042.12 189.164 1041.87 188.422C1041.76 188.078 1041.67 187.844 1041.6 187.719C1041.54 187.594 1041.45 187.484 1041.32 187.391C1041.08 187.211 1040.78 187.121 1040.43 187.121C1039.97 187.121 1039.55 187.25 1039.16 187.508C1038.81 187.734 1038.52 188.02 1038.28 188.363C1038.04 188.699 1037.83 189.125 1037.66 189.641C1037.38 190.43 1037.25 191.203 1037.25 191.961C1037.25 192.656 1037.37 193.336 1037.62 194C1037.87 194.664 1038.21 195.219 1038.64 195.664C1039.31 196.367 1040.1 196.719 1041.01 196.719C1041.76 196.719 1042.38 196.48 1042.87 196.004C1043.12 195.754 1043.36 195.348 1043.58 194.785ZM1047.28 190.625C1047.25 191.008 1047.23 191.285 1047.23 191.457C1047.23 192.137 1047.33 192.801 1047.52 193.449C1047.73 194.098 1048 194.637 1048.34 195.066C1048.69 195.504 1049.13 195.848 1049.64 196.098C1050.17 196.348 1050.71 196.473 1051.28 196.473C1051.71 196.473 1052.1 196.402 1052.48 196.262C1052.86 196.121 1053.18 195.926 1053.43 195.676C1053.71 195.402 1053.95 194.965 1054.16 194.363L1054.39 194.445C1054.19 195.359 1053.75 196.051 1053.08 196.52C1052.41 196.98 1051.53 197.211 1050.42 197.211C1049.46 197.211 1048.63 197.059 1047.94 196.754C1047.26 196.449 1046.67 195.98 1046.2 195.348C1045.53 194.465 1045.2 193.379 1045.2 192.09C1045.2 190.332 1045.83 188.953 1047.09 187.953C1048 187.227 1049.05 186.863 1050.22 186.863C1050.84 186.863 1051.42 186.977 1051.95 187.203C1052.48 187.422 1052.93 187.742 1053.3 188.164C1053.87 188.82 1054.16 189.641 1054.16 190.625H1047.28ZM1052.41 190.168C1052.35 189.387 1052.21 188.785 1051.98 188.363C1051.76 187.98 1051.48 187.68 1051.13 187.461C1050.78 187.234 1050.41 187.121 1050.01 187.121C1049.33 187.121 1048.75 187.41 1048.24 187.988C1047.74 188.566 1047.44 189.293 1047.35 190.168H1052.41Z" fill="black"/>
<line x1="178.564" y1="32" x2="178.564" y2="202" stroke="#F3F3F3"/>
<line x1="1078" y1="154.5" x2="32" y2="154.5" stroke="#F3F3F3"/>
<line x1="1078" y1="83.5" x2="32" y2="83.5" stroke="#F3F3F3"/>
<rect width="1110" height="4" fill="#CA1237"/>
</svg>
