<?xml version="1.0" encoding="utf-8"?>
<!-- Generator: Adobe Illustrator 21.1.0, SVG Export Plug-In . SVG Version: 6.00 Build 0)  -->
<svg version="1.1" id="Layer_1" xmlns="http://www.w3.org/2000/svg" xmlns:xlink="http://www.w3.org/1999/xlink" x="0px" y="0px"
	 viewBox="0 0 612 439" style="enable-background:new 0 0 612 439;" xml:space="preserve">
<style type="text/css">
	.st0{enable-background:new    ;}
	.st1{fill:#5C6670;}
	.st2{fill:none;stroke:#5C6670;stroke-width:1.6698;stroke-miterlimit:10;}
	.st3{fill:none;stroke:#5C6670;stroke-width:1.6698;stroke-linejoin:round;stroke-miterlimit:10;}
	.st4{fill:none;stroke:#5C6670;stroke-width:1.9468;stroke-miterlimit:10;}
	.st5{fill:none;stroke:#A41F35;stroke-width:1.6698;stroke-miterlimit:10;}
	.st6{fill:none;stroke:#5C6670;stroke-width:3.3397;stroke-miterlimit:10;}
	.st7{fill:none;stroke:#5C6670;stroke-width:1.836;stroke-linejoin:round;stroke-miterlimit:10;}
</style>
<g class="st0">
	<path class="st1" d="M81.5,71.1h1.3l0,1.3h-1.3v2.8l-2.1,0v-2.8h-4.9l0-1l5.4-6.9l1.5,0L81.5,71.1z M79.4,71.1l0-3.9h0l-3,3.9H79.4
		z"/>
</g>
<g>
	<path class="st2" d="M380.8,201.9c23.3-48.7,39.3-77.3,39.3-77.3c19.2-22.3,39.8,0,39.8,0l37.9,77.2"/>
	<line class="st2" x1="433.3" y1="115.8" x2="417.6" y2="201.9"/>
	<line class="st2" x1="445.7" y1="115.8" x2="462.4" y2="202"/>
	<path class="st2" d="M411.4,140.9c24.2-16.5,56.5,0,56.5,0"/>
	<path class="st2" d="M400.3,162.5c39.1-25.3,79.1,1.8,79.1,1.8"/>
	<path class="st2" d="M387.9,187.4C431,158,489.5,185,489.5,185"/>
</g>
<g class="st0">
	<path class="st1" d="M74.6,295.9v-0.8c0.9,0,1.3-0.1,1.5-0.2c0.1-0.1,0.2-0.2,0.2-0.5c0.1-0.4,0.1-1.3,0.1-2.7l0-5.4
		c0-1.8,0-2.8-0.1-3c0-0.1-0.1-0.2-0.2-0.2c-0.1-0.1-0.6-0.2-1.5-0.2v-0.8c1.3,0,2.3,0.1,3.1,0.1c1.2,0,2.3,0,3.3-0.1v0.8
		c-0.8,0.1-1.3,0.1-1.4,0.2c-0.1,0-0.1,0.1-0.2,0.2c-0.1,0.1-0.1,0.5-0.1,1.1c0,0.9,0,1.9,0,2.9v0.8c0.7,0,1.8,0,3.2,0
		c1.3,0,2.3,0,2.9,0c0-2.1,0-3.5-0.1-4.2c0-0.4-0.1-0.6-0.2-0.7c-0.1-0.1-0.7-0.2-1.5-0.2v-0.8c1.6,0,2.7,0.1,3.3,0.1
		c1,0,2,0,3.1-0.1v0.8c-0.8,0.1-1.3,0.1-1.5,0.2c-0.1,0-0.1,0.1-0.2,0.2c-0.1,0.1-0.1,0.7-0.1,1.6c0,1.4-0.1,2.6-0.1,3.5l0.1,4.4
		c0,1,0,1.6,0.1,1.7c0,0.1,0.1,0.3,0.2,0.3c0.1,0.1,0.6,0.1,1.5,0.2v0.8l-1.1,0c-0.8,0-1.5,0-1.9,0c-1,0-2.1,0-3.4,0.1v-0.8
		c0.9,0,1.4-0.1,1.5-0.2s0.2-0.4,0.2-0.8c0-0.7,0.1-2.3,0.1-4.7c-0.7,0-1.5,0-2.4,0c-1.4,0-2.6,0-3.7,0v0.6c0,1.7,0,3,0.1,3.8
		c0,0.6,0.1,0.9,0.2,1c0.1,0.1,0.6,0.2,1.5,0.2v0.8l-1.2,0c-0.7,0-1.4,0-2,0L74.6,295.9z"/>
	<path class="st1" d="M99.8,296.1c-2.4,0-4.2-0.6-5.5-1.9c-1.3-1.2-1.9-2.9-1.9-5.1c0-1.5,0.3-2.8,0.9-3.9c0.6-1.1,1.5-1.9,2.6-2.4
		s2.5-0.9,4.2-0.9c1.7,0,3,0.3,4.1,0.8s1.9,1.3,2.4,2.3s0.9,2.2,0.9,3.6c0,1.5-0.3,2.8-0.9,4s-1.5,2-2.6,2.6S101.4,296.1,99.8,296.1
		z M100.2,295.1c1.3,0,2.4-0.5,3.1-1.5c0.8-1,1.2-2.4,1.2-4.4c0-2.1-0.4-3.7-1.3-4.8c-0.7-0.9-1.8-1.3-3.3-1.3
		c-1.4,0-2.5,0.5-3.3,1.4s-1.2,2.4-1.2,4.3c0,1.4,0.2,2.6,0.6,3.5c0.4,1,1,1.7,1.6,2.1C98.3,294.8,99.1,295.1,100.2,295.1z"/>
</g>
<g class="st0">
	<path class="st1" d="M112.5,295.9v-0.5c0.4-0.2,0.7-0.4,1-0.6c0.1-1.8,0.1-3.6,0.1-5.5c0-1.5,0-2.9,0-4.3c0-1-0.1-1.5-0.1-1.6
		c0-0.1-0.1-0.1-0.2-0.2c-0.1,0-0.6-0.1-1.4-0.2v-0.8c1.3,0,2.4,0,3.5,0.1c1,0,2,0,3,0v0.8c-0.9,0.1-1.4,0.1-1.5,0.2
		c-0.1,0.1-0.1,0.2-0.2,0.4c0,0.2-0.1,1.2-0.1,3.2l-0.1,4.8c0,0.9,0,1.9,0.1,3.1c0.9,0,1.5,0.1,1.9,0.1c1.2,0,2.3-0.1,3.1-0.3
		c0.2-0.6,0.3-1.3,0.5-2.1h0.9c-0.1,1-0.3,2.1-0.4,3.5c-0.6,0-1.2,0.1-1.7,0.1l-3.5,0l-1.6,0C114.9,295.8,113.9,295.9,112.5,295.9z"
		/>
	<path class="st1" d="M126.8,295.9v-0.5c0.4-0.2,0.7-0.4,1-0.6c0.1-1.8,0.1-3.6,0.1-5.5c0-1.5,0-2.9,0-4.3c0-1-0.1-1.5-0.1-1.6
		c0-0.1-0.1-0.1-0.2-0.2c-0.1,0-0.6-0.1-1.4-0.2v-0.8c1.3,0,2.4,0.1,3.5,0.1c1,0,2,0,3,0v0.8c-0.9,0.1-1.4,0.1-1.5,0.2
		c-0.1,0.1-0.1,0.2-0.2,0.4c0,0.2-0.1,1.2-0.1,3.2l-0.1,4.8c0,0.9,0,1.9,0.1,3.1c0.9,0,1.5,0.1,1.9,0.1c1.2,0,2.3-0.1,3.1-0.3
		c0.2-0.6,0.3-1.3,0.5-2.1h0.9c-0.1,1-0.3,2.1-0.4,3.5c-0.6,0-1.2,0.1-1.7,0.1l-3.5,0l-1.6,0C129.2,295.8,128.1,295.9,126.8,295.9z"
		/>
	<path class="st1" d="M140.3,295c0.6,0,1-0.1,1.1-0.2c0.1-0.1,0.3-0.3,0.5-0.7c0.4-0.8,0.9-2,1.5-3.5l3.5-8.5h1.4l4.4,10.5
		c0.6,1.3,0.9,2.1,1.1,2.2c0.1,0.1,0.5,0.2,1.2,0.3v0.9c-1.1,0-2.1-0.1-3-0.1c-1.1,0-2.2,0-3.2,0.1V295c0.8,0,1.2-0.1,1.3-0.1
		c0.1-0.1,0.2-0.2,0.2-0.3c0-0.1-0.1-0.5-0.4-1.2l-0.6-1.6c-0.8,0-1.7,0-2.7,0c-0.9,0-1.7,0-2.4,0l-0.4,1.1
		c-0.1,0.3-0.3,0.7-0.4,1.3c0,0.1-0.1,0.3-0.1,0.4c0,0.1,0.1,0.3,0.2,0.3c0.1,0.1,0.6,0.1,1.4,0.2v0.9c-0.6,0-1.4-0.1-2.4-0.1
		c-0.9,0-1.6,0-2.2,0.1V295z M146.7,285.5l-2.1,5c0.6,0,1.3,0,2,0c0.8,0,1.5,0,2.2,0L146.7,285.5z"/>
</g>
<g class="st0">
	<path class="st1" d="M158,295.9v-0.8c0.8,0,1.3-0.1,1.4-0.2c0.1-0.1,0.2-0.1,0.2-0.3c0.1-0.2,0.1-0.7,0.1-1.7
		c0-1.6,0.1-2.7,0.1-3.5l0-4.1c0-1.1,0-1.7-0.1-1.9c0-0.1-0.1-0.2-0.2-0.2c-0.1-0.1-0.6-0.2-1.5-0.2v-0.8c1,0,1.8,0,2.3,0
		c0.5,0,1.2,0,1.8,0c1.5,1.9,3.2,4,5.1,6.3c1.3,1.5,2.4,2.7,3.3,3.7l0-3.9c0-1.5,0-2.7,0-3.8c0-0.6-0.1-1-0.2-1.2
		c0-0.1-0.1-0.1-0.2-0.2c-0.1,0-0.6-0.1-1.4-0.1v-0.8c0.7,0,1.4,0,2.1,0c1,0,1.8,0,2.6,0v0.8c-0.7,0-1.2,0.1-1.3,0.2
		c-0.1,0-0.2,0.1-0.2,0.1c-0.1,0.1-0.1,0.1-0.1,0.2c0,0.2-0.1,0.7-0.1,1.5l0,3.9l0,3.9c0,1.1,0,2.1,0.1,3.2l-0.1,0.1
		c-0.8-0.1-1.4-0.2-1.7-0.3c-1.7-1.9-3.7-4.2-6.1-7c-1.2-1.4-2.2-2.6-2.9-3.6l0,3.8c0,1,0,2.3,0,3.7c0,1.1,0.1,1.7,0.1,1.9
		c0,0.1,0.1,0.1,0.1,0.2c0.1,0.1,0.6,0.1,1.4,0.2v0.8c-1.1,0-1.8-0.1-2.3-0.1C160,295.9,159.2,295.9,158,295.9z"/>
</g>
<g class="st0">
	<path class="st1" d="M177.4,295.9v-0.5c0.5-0.3,0.8-0.5,1-0.6c0.1-1.1,0.1-3.3,0.1-6.4c0-1.4,0-2.5,0-3.4s-0.1-1.4-0.1-1.6
		c0-0.1-0.1-0.1-0.1-0.1c-0.1-0.1-0.6-0.1-1.4-0.2v-0.8c1,0,2.1,0,3.4,0.1l4.8,0c1.8,0,3.1,0.2,4,0.7c0.9,0.4,1.6,1.1,2.2,2
		c0.5,0.9,0.8,2,0.8,3.3c0,1.7-0.4,3.1-1.3,4.3s-1.9,2.1-3.1,2.6c-1.2,0.5-2.5,0.8-3.8,0.8l-3.7-0.1
		C179.5,295.9,178.6,295.9,177.4,295.9z M181.3,294.7c0.5,0.1,1.1,0.1,1.7,0.1c1.5,0,2.6-0.2,3.3-0.6c0.8-0.4,1.4-1.1,1.9-2
		c0.5-0.9,0.7-2.1,0.7-3.5c0-1.8-0.5-3.2-1.4-4.2c-0.8-0.8-2.2-1.3-4.1-1.3c-0.4,0-1.1,0-2.1,0.1l-0.1,6.1
		C181.3,292,181.3,293.8,181.3,294.7z"/>
</g>
<g>
	<rect x="297.7" y="107.1" class="st3" width="24.9" height="19.1"/>
	<path class="st1" d="M315.3,113.2c0-0.7,0.6-1.3,1.3-1.3c0.7,0,1.3,0.6,1.3,1.3c0,0.7-0.6,1.3-1.3,1.3S315.3,113.9,315.3,113.2"/>
	<rect x="315.9" y="115.7" class="st1" width="1.5" height="7.2"/>
	<rect x="315.9" y="115.7" class="st3" width="1.5" height="7.2"/>
	<path class="st1" d="M313.9,116.7c0-1.8,1.7-1.8,1.7-1.8h2c1.9,0,1.5,1.8,1.5,1.8v2.2c-0.4,1.1-1.3,1-1.3,1H315
		c-0.9,0-1.2-1.1-1.2-1.1L313.9,116.7z"/>
	<polyline class="st3" points="311.9,103.2 315.6,99.3 319.6,103.2 	"/>
	<polyline class="st3" points="308.7,130.5 305,134.3 301,130.5 	"/>
	<rect x="65.4" y="28" class="st4" width="227.1" height="231.7"/>
	<line class="st2" x1="292.4" y1="202.2" x2="65.3" y2="202.2"/>
	<line class="st2" x1="292.4" y1="146" x2="65.4" y2="146"/>
	<rect x="327.5" y="202" class="st2" width="227.1" height="170.6"/>
	<line class="st2" x1="554.5" y1="316.2" x2="327.5" y2="316.1"/>
	<line class="st5" x1="554.6" y1="260" x2="327.5" y2="259.9"/>
	<line class="st6" x1="27.6" y1="260.3" x2="584" y2="260.4"/>
</g>
<g class="st0">
	<path class="st1" d="M445.7,403.6v-0.8c0.4,0,0.8,0,1.2-0.1c0.2,0,0.3-0.1,0.4-0.2c0.1-0.1,0.1-0.2,0.2-0.4c0-0.3,0.1-1.3,0.1-3.1
		c0-1.3,0-2.6,0-3.9c0-2.6,0-3.9,0-4s-0.2-0.1-0.7-0.1c-0.9,0-1.7,0-2.3,0.1c-0.4,0-0.6,0.1-0.6,0.1c0,0-0.1,0.1-0.1,0.2
		c0,0.1-0.1,0.7-0.2,1.7h-0.8c0-1.3,0-2.3-0.1-3.2l0.1-0.1c2.1,0.1,4.1,0.1,6,0.1c1.9,0,4.1,0,6.5-0.1l0.1,0.2
		c-0.1,0.9-0.2,1.9-0.3,3.2h-0.8c-0.1-1.1-0.1-1.7-0.2-1.8c0-0.1-0.1-0.1-0.3-0.1c-0.5-0.1-1.6-0.1-3.1-0.1c-0.1,0-0.2,0-0.2,0.1
		c0,0,0,0.2,0,0.5l-0.1,6.6c0,1.9,0,3.1,0,3.5s0.1,0.7,0.2,0.8c0.1,0.1,0.6,0.1,1.5,0.2v0.8c-1,0-2-0.1-3.1-0.1
		C447.7,403.5,446.6,403.6,445.7,403.6z"/>
	<path class="st1" d="M459,403.6v-0.5c0.3-0.2,0.7-0.3,0.9-0.5c0.1-1,0.2-3.2,0.2-6.4c0-2.2,0-3.7-0.1-4.4c0-0.4-0.1-0.6-0.2-0.7
		c-0.1-0.1-0.6-0.2-1.5-0.3v-0.8c1.5,0.1,2.8,0.1,3.6,0.1l5.4-0.1c0.6,0,1.1,0,1.5,0.1l0.1,0.1c-0.1,0.7-0.2,1.7-0.3,2.9H468
		c0-1-0.1-1.5-0.1-1.5c0-0.1-0.2-0.1-0.4-0.2c-0.5-0.1-1.4-0.2-2.5-0.2c-0.5,0-1.2,0-1.9,0.1c-0.1,2-0.1,3.6-0.1,4.8
		c0.7,0,1.4,0.1,2,0.1c0.9,0,1.5,0,1.6-0.1c0.1,0,0.2-0.1,0.2-0.3c0-0.1,0.1-0.5,0.1-1.2h0.8c0,1.1,0,1.8,0,2.2l0,2.2h-0.8
		c0-0.9-0.1-1.4-0.2-1.5c0-0.1-0.1-0.1-0.3-0.2c-0.3-0.1-1.1-0.1-2.2-0.1c-0.4,0-0.8,0-1.3,0.1c0,0.3,0,0.7,0,1.1
		c0,1.9,0,3.3,0.1,4.3l1.9,0c1.1,0,2.1-0.1,3-0.2c0.2-0.6,0.3-1.3,0.5-2.1h0.8c-0.1,1.2-0.2,2.3-0.3,3.3c-0.6,0-1.2,0.1-1.7,0.1
		c-0.4,0-1.1,0-2.1,0c-1,0-1.9,0-2.7,0C461.4,403.5,460.2,403.6,459,403.6z"/>
</g>
<g class="st0">
	<path class="st1" d="M472.6,403.6v-0.8c0.8-0.1,1.2-0.1,1.3-0.2c0.1,0,0.1-0.1,0.2-0.2c0.1-0.2,0.1-0.7,0.1-1.6c0-1.4,0-2.5,0-3.3
		c0-1.1,0-2.5,0-4.1c0-1.2-0.1-2-0.2-2.3c0-0.1-0.1-0.2-0.2-0.2c-0.1-0.1-0.5-0.1-1.3-0.2v-0.8c1.4,0,2.2,0.1,2.6,0.1l4.9-0.1
		c1.1,0,1.8,0.1,2.3,0.3c0.5,0.2,0.9,0.5,1.2,1c0.3,0.5,0.4,1,0.4,1.6c0,0.8-0.2,1.5-0.7,2.1c-0.5,0.6-1.2,1.1-2.4,1.6l2.1,3.1
		l1.6,2.4c0.3,0.4,0.5,0.6,0.7,0.7c0.2,0.1,0.4,0.1,0.7,0.1v0.8l-0.6,0c-1.7,0-2.7,0-3.2,0.1c-0.6-0.9-1.4-2.2-2.5-3.9l-2-3.1
		c0.1-0.1,0.1-0.2,0.1-0.4c0.3,0,0.5,0,0.6,0c0.6,0,1.2-0.2,1.8-0.7c0.6-0.5,0.9-1.2,0.9-2.1c0-0.8-0.2-1.4-0.7-1.8
		s-1.2-0.7-2.1-0.7c-0.3,0-0.7,0-1.2,0.1l-0.1,2.9l-0.1,3.7c0,0.8,0,1.9,0.1,3.2c0.1,1,0.1,1.5,0.2,1.6c0,0.1,0.1,0.2,0.2,0.2
		c0.1,0.1,0.6,0.1,1.3,0.2v0.8c-1.2,0-2.2-0.1-3.1-0.1C474.8,403.5,473.7,403.6,472.6,403.6z"/>
	<path class="st1" d="M488.1,403.6v-0.8c0.8-0.1,1.2-0.1,1.3-0.2c0.1,0,0.1-0.1,0.2-0.2c0.1-0.2,0.1-0.7,0.1-1.6c0-1.4,0-2.5,0-3.3
		c0-1.1,0-2.5,0-4.1c0-1.2-0.1-2-0.2-2.3c0-0.1-0.1-0.2-0.2-0.2c-0.1-0.1-0.5-0.1-1.3-0.2v-0.8c1.3,0,2.2,0.1,2.6,0.1l4.9-0.1
		c1.1,0,1.8,0.1,2.3,0.3c0.5,0.2,0.9,0.5,1.2,1s0.4,1,0.4,1.6c0,0.8-0.2,1.5-0.7,2.1c-0.5,0.6-1.2,1.1-2.4,1.6l2.1,3.1l1.6,2.4
		c0.3,0.4,0.5,0.6,0.7,0.7c0.2,0.1,0.4,0.1,0.7,0.1v0.8l-0.6,0c-1.7,0-2.7,0-3.2,0.1c-0.6-0.9-1.4-2.2-2.5-3.9l-2-3.1
		c0.1-0.1,0.1-0.2,0.1-0.4c0.3,0,0.5,0,0.6,0c0.6,0,1.2-0.2,1.8-0.7c0.6-0.5,0.9-1.2,0.9-2.1c0-0.8-0.2-1.4-0.7-1.8
		c-0.5-0.4-1.2-0.7-2.1-0.7c-0.3,0-0.7,0-1.2,0.1l-0.1,2.9l-0.1,3.7c0,0.8,0,1.9,0.1,3.2c0.1,1,0.1,1.5,0.2,1.6
		c0,0.1,0.1,0.2,0.2,0.2c0.1,0.1,0.6,0.1,1.3,0.2v0.8c-1.2,0-2.2-0.1-3.1-0.1C490.2,403.5,489.2,403.6,488.1,403.6z"/>
</g>
<g class="st0">
	<path class="st1" d="M506.2,403.6v-0.5c0.3-0.2,0.7-0.3,0.9-0.5c0.1-1,0.2-3.2,0.2-6.4c0-2.2,0-3.7-0.1-4.4c0-0.4-0.1-0.6-0.2-0.7
		c-0.1-0.1-0.6-0.2-1.5-0.3v-0.8c1.5,0.1,2.8,0.1,3.6,0.1l5.4-0.1c0.6,0,1.1,0,1.5,0.1l0.1,0.1c-0.1,0.7-0.2,1.7-0.3,2.9h-0.8
		c0-1-0.1-1.5-0.1-1.5c0-0.1-0.2-0.1-0.4-0.2c-0.5-0.1-1.4-0.2-2.5-0.2c-0.5,0-1.2,0-1.9,0.1c-0.1,2-0.1,3.6-0.1,4.8
		c0.7,0,1.4,0.1,2,0.1c0.9,0,1.5,0,1.6-0.1c0.1,0,0.2-0.1,0.2-0.3c0-0.1,0.1-0.5,0.1-1.2h0.8c0,1.1,0,1.8,0,2.2l0,2.2H514
		c0-0.9-0.1-1.4-0.2-1.5c0-0.1-0.1-0.1-0.3-0.2c-0.3-0.1-1.1-0.1-2.2-0.1c-0.4,0-0.8,0-1.3,0.1c0,0.3,0,0.7,0,1.1
		c0,1.9,0,3.3,0.1,4.3l1.9,0c1.1,0,2.1-0.1,3-0.2c0.2-0.6,0.3-1.3,0.5-2.1h0.8c-0.1,1.2-0.2,2.3-0.3,3.3c-0.6,0-1.2,0.1-1.7,0.1
		c-0.4,0-1.1,0-2.1,0c-1,0-1.9,0-2.7,0C508.5,403.5,507.4,403.6,506.2,403.6z"/>
	<path class="st1" d="M520.4,403.6v-0.5c0.4-0.2,0.7-0.4,1-0.6c0.1-1.8,0.1-3.6,0.1-5.5c0-1.5,0-2.9,0-4.3c0-1-0.1-1.5-0.1-1.6
		c0-0.1-0.1-0.1-0.2-0.2c-0.1,0-0.6-0.1-1.4-0.2v-0.8c1.3,0,2.4,0.1,3.5,0.1c1,0,2,0,3,0v0.8c-0.9,0.1-1.4,0.1-1.5,0.2
		c-0.1,0.1-0.1,0.2-0.2,0.4c0,0.2-0.1,1.2-0.1,3.2l-0.1,4.8c0,0.9,0,1.9,0.1,3.1c0.9,0,1.5,0.1,1.9,0.1c1.2,0,2.3-0.1,3.1-0.3
		c0.2-0.6,0.3-1.3,0.5-2.1h0.9c-0.1,1-0.3,2.1-0.4,3.5c-0.6,0-1.2,0.1-1.7,0.1l-3.5,0l-1.6,0C522.8,403.5,521.7,403.6,520.4,403.6z"
		/>
</g>
<g class="st0">
	<path class="st1" d="M534.7,403.6v-0.5c0.4-0.2,0.7-0.4,1-0.6c0.1-1.8,0.1-3.6,0.1-5.5c0-1.5,0-2.9,0-4.3c0-1-0.1-1.5-0.1-1.6
		c0-0.1-0.1-0.1-0.2-0.2c-0.1,0-0.6-0.1-1.4-0.2v-0.8c1.3,0,2.4,0,3.5,0.1c1,0,2,0,3,0v0.8c-0.9,0.1-1.4,0.1-1.5,0.2
		c-0.1,0.1-0.1,0.2-0.2,0.4c0,0.2-0.1,1.2-0.1,3.2l-0.1,4.8c0,0.9,0,1.9,0.1,3.1c0.9,0,1.5,0.1,1.9,0.1c1.2,0,2.3-0.1,3.1-0.3
		c0.2-0.6,0.3-1.3,0.5-2.1h0.9c-0.1,1-0.3,2.1-0.4,3.5c-0.6,0-1.2,0.1-1.7,0.1l-3.5,0l-1.6,0C537.1,403.5,536,403.6,534.7,403.6z"/>
</g>
<g class="st0">
	<path class="st1" d="M546.9,303.9v4.4c-1.1,0.4-2.3,0.7-3.5,0.7c-3.7,0-6-2.4-6-5.6c0-2.9,2.3-5.4,6.1-5.4c1.2,0,2.3,0.4,3,0.8
		l-0.7,1.3c-0.6-0.3-1.5-0.6-2.3-0.6c-2.3,0-3.8,1.5-3.8,3.9c0,2.5,1.8,4,3.6,4c0.6,0,1-0.1,1.5-0.3v-3.3H546.9z"/>
</g>
<g class="st0">
	<path class="st1" d="M538,363.9l0-10.6h3.8c1.8,0,3,0.8,3,2.3c0,1.7-1.4,2.4-2.1,2.6v0c1.3,0.1,2.8,1,2.8,2.6c0,1.8-1.5,3.1-4,3.1
		H538z M540.1,362.6h1.1c1.2,0,2.1-0.6,2.1-1.8c0-1.2-0.9-1.8-2.1-1.8h-1.1L540.1,362.6z M540.1,357.7h0.7c1.2,0,2.1-0.8,2.1-1.8
		c0-0.9-0.7-1.3-1.6-1.3h-1.1V357.7z"/>
</g>
<g class="st0">
	<path class="st1" d="M542.7,251.7h-2.2l0-9.3l-2.1,0.8l-0.4-1.2l2.9-1.2h1.7L542.7,251.7z"/>
</g>
<g class="st0">
	<path class="st1" d="M79.9,251.6h-2.2l0-9.3l-2.1,0.8l-0.4-1.2l2.9-1.2h1.7L79.9,251.6z"/>
</g>
<g class="st0">
	<path class="st1" d="M74.6,186.3l1.9-1.9c2.6-2.6,3.3-3.8,3.3-4.9c0-0.7-0.6-1.5-1.5-1.5c-0.9,0-1.7,0.5-2.4,1.1l-0.8-1
		c0.7-0.8,1.9-1.5,3.6-1.5c1.8,0,3.4,1,3.4,2.8c0,1.2-0.5,2.1-2.6,4.3l-2.1,2.2l4.7,0v1.6l-7.7,0V186.3z"/>
</g>
<g class="st0">
	<path class="st1" d="M76,128.2c1.5,0,2.8-0.6,2.8-2c0-1.1-0.8-1.4-1.5-1.4c-0.8,0-1.5,0.3-1.9,0.6l-0.6-1.1c0.8-0.5,1.8-0.8,3-0.8
		c1,0,3.2,0.3,3.2,2.4c0,1.5-1.5,2.3-2.2,2.6v0c0.7,0.1,2.7,0.7,2.8,2.8c0,1-0.8,3.2-4,3.2c-1.3,0-2.3-0.3-3-0.6l0.6-1.2
		c0.4,0.2,1.2,0.5,2,0.5c1.1,0,2.1-0.7,2.1-2c0-1.6-1.9-2-3.4-2V128.2z"/>
</g>
<g>
	<rect x="292.4" y="28.4" class="st7" width="35.1" height="344.2"/>
	<path class="st1" d="M308.7,113.2c0-0.7,0.6-1.3,1.3-1.3c0.7,0,1.3,0.6,1.3,1.3c0,0.7-0.6,1.3-1.3,1.3
		C309.3,114.5,308.7,113.9,308.7,113.2"/>
	<rect x="309.3" y="115.7" class="st1" width="1.5" height="7.2"/>
	<rect x="309.3" y="115.7" class="st3" width="1.5" height="7.2"/>
	<path class="st1" d="M307.3,116.7c0-1.8,1.7-1.8,1.7-1.8h2c1.9,0,1.5,1.8,1.5,1.8v2.2c-0.4,1.1-1.3,1-1.3,1h-2.8
		c-0.9,0-1.2-1.1-1.2-1.1L307.3,116.7L307.3,116.7z"/>
	<path class="st1" d="M302.4,113.2c0-0.7,0.6-1.3,1.3-1.3c0.7,0,1.3,0.6,1.3,1.3c0,0.7-0.6,1.3-1.3,1.3S302.4,113.9,302.4,113.2"/>
	<rect x="303" y="115.7" class="st1" width="1.5" height="7.2"/>
	<rect x="303" y="115.7" class="st3" width="1.5" height="7.2"/>
	<path class="st1" d="M301,116.7c0-1.8,1.7-1.8,1.7-1.8h2c1.9,0,1.5,1.8,1.5,1.8v2.2c-0.4,1.1-1.3,1-1.3,1h-2.8
		c-0.9,0-1.2-1.1-1.2-1.1L301,116.7z"/>
	<line class="st2" x1="291.3" y1="87.7" x2="64.2" y2="87.7"/>
</g>
<g class="st0">
	<path d="M141.3,234.3h-2.1v-5.1h-4.4v5.1h-2.1v-10.6h2.1v4.1h4.4v-4h2.1V234.3z"/>
	<path d="M146.5,234.3l-3.9-10.5l2.3-0.3c0.9,2.7,1.9,5.4,2.8,8.5h0c1-3.1,2-5.8,2.9-8.5l1.8,0.3l-4.2,10.5H146.5z"/>
	<path d="M164.3,224.7c-2.1,0.3-3.9,1.8-4.5,3.4c0.5-0.2,1.1-0.4,1.9-0.4c1.7,0,3.4,1,3.4,3.2c0,1.7-1.6,3.5-3.9,3.5
		c-3,0-4-2.2-4-3.9c0-3.8,3.3-6.8,7.1-7.1V224.7z M161.2,233.3c1,0,1.7-1,1.7-2.3c0-1.1-0.6-2.1-1.7-2.1c-1.2,0-1.8,0.7-1.8,2.2
		C159.3,232.5,160.3,233.3,161.2,233.3z"/>
	<path d="M166,228.8c0-2.4,1.2-5.3,3.9-5.3s3.9,2.9,3.9,5.3c0,3.5-1.6,5.7-3.9,5.7S166,232.3,166,228.8z M171.6,228.8
		c0-2.5-0.7-3.9-1.7-3.9s-1.7,1.4-1.7,3.9c0,2.9,0.7,4.2,1.7,4.2S171.6,231.7,171.6,228.8z"/>
	<path d="M174.7,228.8c0-2.4,1.2-5.3,3.9-5.3s3.9,2.9,3.9,5.3c0,3.5-1.6,5.7-3.9,5.7S174.7,232.3,174.7,228.8z M180.3,228.8
		c0-2.5-0.7-3.9-1.7-3.9s-1.7,1.4-1.7,3.9c0,2.9,0.7,4.2,1.7,4.2S180.3,231.7,180.3,228.8z"/>
	<path d="M183.4,228.8c0-2.4,1.2-5.3,3.9-5.3s3.9,2.9,3.9,5.3c0,3.5-1.6,5.7-3.9,5.7S183.4,232.3,183.4,228.8z M189,228.8
		c0-2.5-0.7-3.9-1.7-3.9s-1.7,1.4-1.7,3.9c0,2.9,0.7,4.2,1.7,4.2S189,231.7,189,228.8z"/>
	<path d="M196,231.3v-1.2h7.6v1.2H196z"/>
	<path d="M211.4,228.3L211.4,228.3l3.8-4.7l1.7,0.6l-3.6,4.3l4.3,5.4l-2.2,0.6l-4-5.5h0v5.4h-2.1v-10.6h2.1V228.3z"/>
	<path d="M226.5,224.4l-5.6,8.6h5.8v1.4h-8.6v-0.7l5.6-8.5H219v-1.4h7.6V224.4z"/>
</g>
<g class="st0">
	<path d="M421,226.4l4,10.6h-2.4l-1-2.9h-3.8l-1.1,2.9h-1.9l4.3-10.6H421z M421.3,232.8c-0.5-1.4-0.9-2.7-1.4-4.3h0
		c-0.4,1.6-0.9,2.9-1.4,4.3H421.3z"/>
	<path d="M429.4,233.9v-1.2h7.6v1.2H429.4z"/>
	<path d="M446.2,226.4c4.3,0,5.8,2.4,5.8,5c0,3.5-2.2,5.6-6,5.6h-3.5v-10.6H446.2z M444.7,235.6h1.3c2.4,0,3.8-1.2,3.8-4.2
		c0-2.2-1.3-3.6-3.5-3.6h-1.5V235.6z"/>
	<path d="M461.6,228.3c-0.5-0.3-1.4-0.6-2.2-0.6c-2.2,0-3.8,1.5-3.8,3.9c0,2.5,1.7,4,3.8,4c0.8,0,1.6-0.2,2.1-0.5l0.6,1.3
		c-0.7,0.4-1.8,0.7-2.8,0.7c-3.7,0-6-2.4-6-5.6c0-2.9,2.3-5.4,6-5.4c1.1,0,2.1,0.4,2.9,0.8L461.6,228.3z"/>
</g>
<g class="st0">
	<path d="M387.7,282.7c4.3,0,5.8,2.4,5.8,5c0,3.5-2.2,5.6-6,5.6H384v-10.6H387.7z M386.2,291.9h1.3c2.4,0,3.8-1.2,3.8-4.2
		c0-2.2-1.3-3.6-3.5-3.6h-1.5V291.9z"/>
	<path d="M399.1,282.7c4.3,0,5.8,2.4,5.8,5c0,3.5-2.2,5.6-6,5.6h-3.5v-10.6H399.1z M397.6,291.9h1.3c2.4,0,3.8-1.2,3.8-4.2
		c0-2.2-1.3-3.6-3.5-3.6h-1.5V291.9z"/>
	<path d="M410,290.3v-1.2h7.6v1.2H410z"/>
	<path d="M431.9,293.4h-2.1v-5.1h-4.4v5.1h-2.1v-10.6h2.1v4.1h4.4v-4h2.1V293.4z"/>
	<path d="M434.4,293.4v-10.6h3.8c1.8,0,3,0.8,3,2.3c0,1.7-1.4,2.4-2.1,2.6v0c1.3,0.1,2.8,1,2.8,2.6c0,1.8-1.5,3.1-4,3.1H434.4z
		 M436.6,287.2h0.7c1.2,0,2.1-0.8,2.1-1.8c0-0.9-0.7-1.3-1.6-1.3h-1.1V287.2z M436.6,292h1.1c1.2,0,2.1-0.6,2.1-1.8
		c0-1.2-0.9-1.8-2.1-1.8h-1.1V292z"/>
	<path d="M453,293.4h-2.2V284l-2.1,0.8l-0.4-1.2l2.9-1.2h1.7V293.4z"/>
	<path d="M463.1,289.2h1.3v1.3h-1.3v2.8H461v-2.8h-4.9v-1l5.4-6.9h1.5V289.2z M461,289.2v-3.9h0l-3,3.9H461z"/>
	<path d="M465.6,292.3c2.1-0.3,3.9-1.8,4.5-3.4c-0.5,0.2-1.1,0.4-1.9,0.4c-2.1,0-3.4-1.5-3.4-3.2c0-1.5,1.3-3.5,4-3.5
		c2.5,0,3.9,1.6,3.9,3.9c0,3.7-3.3,6.8-7.1,7.1V292.3z M468.8,283.7c-1.1,0-1.8,1-1.8,2.3c0,1.1,0.6,2.1,1.7,2.1
		c1.1,0,1.8-0.7,1.8-2.2C470.7,284.5,469.8,283.7,468.8,283.7z"/>
	<path d="M486.2,283.4l-5.6,8.6h5.8v1.4h-8.6v-0.7l5.6-8.5h-4.7v-1.4h7.6V283.4z"/>
	<path d="M487.9,292.3c2.1-0.3,3.9-1.8,4.5-3.4c-0.5,0.2-1.1,0.4-1.9,0.4c-2.1,0-3.4-1.5-3.4-3.2c0-1.5,1.3-3.5,4-3.5
		c2.5,0,3.9,1.6,3.9,3.9c0,3.7-3.3,6.8-7.1,7.1V292.3z M491.1,283.7c-1.1,0-1.8,1-1.8,2.3c0,1.1,0.6,2.1,1.7,2.1
		c1.1,0,1.8-0.7,1.8-2.2C493,284.5,492.1,283.7,491.1,283.7z"/>
</g>
<g class="st0">
	<path d="M384.1,343.7H382v-5.1h-4.4v5.1h-2.1v-10.6h2.1v4.1h4.4v-4h2.1V343.7z"/>
	<path d="M386.7,343.7v-10.6h3.8c1.8,0,3,0.8,3,2.3c0,1.7-1.4,2.4-2.1,2.6v0c1.3,0.1,2.8,1,2.8,2.6c0,1.8-1.5,3.1-4,3.1H386.7z
		 M388.8,337.5h0.7c1.2,0,2.1-0.8,2.1-1.8c0-0.9-0.7-1.3-1.6-1.3h-1.1V337.5z M388.8,342.4h1.1c1.2,0,2.1-0.6,2.1-1.8
		c0-1.2-0.9-1.8-2.1-1.8h-1.1V342.4z"/>
	<path d="M405.3,343.7h-2.2v-9.3l-2.1,0.8l-0.4-1.2l2.9-1.2h1.7V343.7z"/>
	<path d="M409.1,341.6c0.7,0.5,1.5,0.9,2.4,0.9c1.5,0,2.2-1,2.2-2c0-1.5-1.8-2.6-4.4-2.6l1.2-4.8h5l-0.4,1.5h-3.2l-0.5,2
		c3.6,0.6,4.4,2.4,4.4,3.9c0,1.9-1.8,3.5-4.3,3.5c-1,0-2.1-0.2-3.2-1L409.1,341.6z"/>
	<path d="M417.1,338.2c0-2.4,1.2-5.3,3.9-5.3c2.7,0,3.9,2.9,3.9,5.3c0,3.5-1.6,5.7-3.9,5.7C418.7,343.9,417.1,341.7,417.1,338.2z
		 M422.7,338.2c0-2.5-0.7-3.9-1.7-3.9s-1.7,1.4-1.7,3.9c0,2.9,0.7,4.2,1.7,4.2S422.7,341.1,422.7,338.2z"/>
	<path d="M429.7,340.7v-1.2h7.6v1.2H429.7z"/>
	<path d="M451.6,343.7h-2.1v-5.1h-4.4v5.1h-2.1v-10.6h2.1v4.1h4.4v-4h2.1V343.7z"/>
	<path d="M456.9,343.7l-3.9-10.5l2.3-0.3c0.9,2.7,1.9,5.4,2.8,8.5h0c1-3.1,2-5.8,2.9-8.5l1.8,0.3l-4.2,10.5H456.9z"/>
	<path d="M468.4,341.6c0.7,0.5,1.5,0.9,2.4,0.9c1.5,0,2.2-1,2.2-2c0-1.5-1.8-2.6-4.4-2.6l1.2-4.8h5l-0.4,1.5h-3.2l-0.5,2
		c3.6,0.6,4.4,2.4,4.4,3.9c0,1.9-1.8,3.5-4.3,3.5c-1,0-2.1-0.2-3.2-1L468.4,341.6z"/>
	<path d="M477.2,342.7c2.1-0.3,3.9-1.8,4.5-3.4c-0.5,0.2-1.1,0.4-1.9,0.4c-2.1,0-3.4-1.5-3.4-3.2c0-1.5,1.3-3.5,4-3.5
		c2.5,0,3.9,1.6,3.9,3.9c0,3.7-3.3,6.8-7.1,7.1V342.7z M480.3,334.1c-1.1,0-1.8,1-1.8,2.3c0,1.1,0.6,2.1,1.7,2.1
		c1.1,0,1.8-0.7,1.8-2.2C482.2,334.9,481.3,334.1,480.3,334.1z"/>
	<path d="M485.9,342.7c2.1-0.3,3.9-1.8,4.5-3.4c-0.5,0.2-1.1,0.4-1.9,0.4c-2.1,0-3.4-1.5-3.4-3.2c0-1.5,1.3-3.5,4-3.5
		c2.5,0,3.9,1.6,3.9,3.9c0,3.7-3.3,6.8-7.1,7.1V342.7z M489,334.1c-1.1,0-1.8,1-1.8,2.3c0,1.1,0.6,2.1,1.7,2.1
		c1.1,0,1.8-0.7,1.8-2.2C490.9,334.9,490.1,334.1,489,334.1z"/>
	<path d="M494.6,342.7c2.1-0.3,3.9-1.8,4.5-3.4c-0.5,0.2-1.1,0.4-1.9,0.4c-2.1,0-3.4-1.5-3.4-3.2c0-1.5,1.3-3.5,4-3.5
		c2.5,0,3.9,1.6,3.9,3.9c0,3.7-3.3,6.8-7.1,7.1V342.7z M497.7,334.1c-1.1,0-1.8,1-1.8,2.3c0,1.1,0.6,2.1,1.7,2.1
		c1.1,0,1.8-0.7,1.8-2.2C499.6,334.9,498.8,334.1,497.7,334.1z"/>
</g>
<g class="st0">
	<path d="M352.8,349.9c3.5,0,4.7,2,4.7,4.1c0,2.8-1.8,4.6-4.9,4.6h-2.8v-8.6H352.8z M351.5,357.3h1.1c2,0,3.1-1,3.1-3.4
		c0-1.8-1-2.9-2.9-2.9h-1.3V357.3z"/>
	<path d="M363.7,351h-2.9v2.4h2.8v1.2h-2.8v2.8h3.4v1.2h-5.2v-8.6h4.6V351z"/>
	<path d="M371.7,349.9c0.7,2.2,1.4,4.4,2.1,6.9h0c0.6-2.5,1.2-4.8,1.8-7.1l1.4,0.2l-2.4,8.5h-1.8c-0.6-2-1.3-4.1-1.9-6.4h0
		c-0.6,2.3-1.2,4.4-1.9,6.4h-1.8l-2.4-8.5l1.7-0.2c0.6,2.3,1.1,4.5,1.7,7.1h0c0.7-2.5,1.4-4.7,2.1-6.9H371.7z"/>
	<path d="M382.6,351h-2.9v2.4h2.8v1.2h-2.8v2.8h3.4v1.2H378v-8.6h4.6V351z"/>
	<path d="M386.6,358.5v-3.6l-2.6-4.9l1.9-0.2c0.6,1.2,1.2,2.5,1.8,4c0.7-1.5,1.3-2.7,2-4l1.4,0.2l-2.8,4.9v3.6H386.6z"/>
	<path d="M396.7,351.4c-0.4-0.3-0.9-0.5-1.4-0.5c-0.7,0-1.1,0.4-1.1,0.9c0,0.6,0.6,1,1.6,1.8c1.2,0.9,1.8,1.7,1.8,2.7
		c0,1.1-1,2.3-3,2.3c-0.9,0-1.9-0.3-2.5-0.9l0.6-1c0.5,0.3,1,0.7,1.8,0.7c0.7,0,1.3-0.4,1.3-1.2c0-0.9-1.2-1.6-1.8-2.1
		c-0.8-0.7-1.5-1.2-1.5-2.4c0-1.2,1.2-2.1,2.7-2.1c1,0,1.8,0.4,2.2,0.8L396.7,351.4z"/>
	<path d="M402.9,349.2h1v12.3h-1V349.2z"/>
	<path d="M415.7,351.4c-0.4-0.2-1.1-0.5-1.8-0.5c-1.8,0-3.1,1.2-3.1,3.2c0,2,1.4,3.3,3.1,3.3c0.7,0,1.3-0.2,1.7-0.4l0.5,1.1
		c-0.5,0.3-1.5,0.6-2.3,0.6c-3,0-4.9-2-4.9-4.5c0-2.4,1.9-4.4,4.9-4.4c0.9,0,1.7,0.3,2.3,0.7L415.7,351.4z"/>
	<path d="M417.3,354c0-2.4,1.8-4.3,4.3-4.3c2.5,0,4.3,1.9,4.3,4.3c0,2.6-1.7,4.6-4.3,4.6S417.3,356.6,417.3,354z M424,354
		c0-1.6-0.7-3.1-2.5-3.1s-2.5,1.5-2.5,3.1c0,1.6,0.6,3.3,2.5,3.3C423.4,357.4,424,355.7,424,354z"/>
	<path d="M437.2,358.5h-1.7v-6.7h0c-0.9,2.4-1.9,4.6-2.9,6.7h-0.9c-0.9-2.2-1.9-4.3-2.8-6.7h0v6.7h-1.4v-8.6h2.1
		c0.9,2.1,2.3,5.5,2.6,6.6h0c0.4-1.2,2-4.5,2.9-6.6h2V358.5z"/>
	<path d="M441,358.5h-1.7v-8.6h2.7c1.9,0,3.1,0.8,3.1,2.5c0,1.5-1.3,2.9-3.3,2.9h-0.4v-1.1l0.4,0c0.8,0,1.6-0.6,1.6-1.7
		c0-0.9-0.6-1.4-1.6-1.4H441V358.5z"/>
	<path d="M449.8,349.9l3.2,8.6h-1.9l-0.8-2.4h-3.1l-0.9,2.4h-1.5l3.5-8.6H449.8z M450.1,355.1c-0.4-1.1-0.7-2.2-1.1-3.5h0
		c-0.4,1.3-0.8,2.4-1.2,3.5H450.1z"/>
	<path d="M460.3,351.4c-0.4-0.2-1.1-0.5-1.8-0.5c-1.8,0-3.1,1.2-3.1,3.2c0,2,1.4,3.3,3.1,3.3c0.7,0,1.3-0.2,1.7-0.4l0.5,1.1
		c-0.5,0.3-1.5,0.6-2.3,0.6c-3,0-4.9-2-4.9-4.5c0-2.4,1.9-4.4,4.9-4.4c0.9,0,1.7,0.3,2.3,0.7L460.3,351.4z"/>
	<path d="M464.1,358.5V351h-2.7v-1.2h7.1v1.2h-2.7v7.5H464.1z"/>
	<path d="M477.5,351.4c-0.4-0.3-0.9-0.5-1.4-0.5c-0.7,0-1.1,0.4-1.1,0.9c0,0.6,0.6,1,1.6,1.8c1.2,0.9,1.8,1.7,1.8,2.7
		c0,1.1-1,2.3-3,2.3c-0.9,0-1.9-0.3-2.5-0.9l0.6-1c0.5,0.3,1,0.7,1.8,0.7c0.7,0,1.3-0.4,1.3-1.2c0-0.9-1.2-1.6-1.8-2.1
		c-0.8-0.7-1.5-1.2-1.5-2.4c0-1.2,1.2-2.1,2.7-2.1c1,0,1.8,0.4,2.2,0.8L477.5,351.4z"/>
	<path d="M481.8,358.5V351h-2.7v-1.2h7.1v1.2h-2.7v7.5H481.8z"/>
	<path d="M486.9,354c0-2.4,1.8-4.3,4.3-4.3c2.5,0,4.3,1.9,4.3,4.3c0,2.6-1.7,4.6-4.3,4.6S486.9,356.6,486.9,354z M493.6,354
		c0-1.6-0.7-3.1-2.5-3.1s-2.5,1.5-2.5,3.1c0,1.6,0.6,3.3,2.5,3.3C493,357.4,493.6,355.7,493.6,354z"/>
	<path d="M497,349.9h3c1.7,0,2.8,0.8,2.8,2.3c0,1.3-0.6,2-1.5,2.5l2,3.7l-1.8,0.3l-1.7-3.6h-1v3.4H497V349.9z M498.8,353.9h0.7
		c1.2,0,1.6-0.9,1.6-1.6c0-1-0.7-1.3-1.4-1.3h-0.9V353.9z"/>
	<path d="M508.5,349.9l3.2,8.6h-1.9l-0.8-2.4h-3.1l-0.9,2.4h-1.5l3.5-8.6H508.5z M508.7,355.1c-0.4-1.1-0.7-2.2-1.1-3.5h0
		c-0.4,1.3-0.8,2.4-1.2,3.5H508.7z"/>
	<path d="M520.1,354.5v3.6c-0.9,0.3-1.9,0.5-2.9,0.5c-3,0-4.9-2-4.9-4.5c0-2.4,1.9-4.4,4.9-4.4c0.9,0,1.9,0.3,2.5,0.7l-0.6,1
		c-0.5-0.2-1.2-0.5-1.9-0.5c-1.8,0-3.1,1.2-3.1,3.2c0,2,1.5,3.3,2.9,3.3c0.5,0,0.8,0,1.2-0.2v-2.6H520.1z"/>
	<path d="M526.8,351h-2.9v2.4h2.8v1.2h-2.8v2.8h3.4v1.2h-5.2v-8.6h4.6V351z"/>
</g>
<g class="st0">
	<path d="M132.6,168.6h2.1v9.2h4.2v1.4h-6.4V168.6z"/>
	<path d="M143.6,176.2V175h7.6v1.2H143.6z"/>
	<path d="M158.9,179.2h-2.1v-10.6h3.3c2.4,0,3.9,1,3.9,3.1c0,1.8-1.5,3.5-4.1,3.5h-0.5v-1.3l0.5,0c1-0.1,2-0.7,2-2.1
		c0-1.1-0.7-1.7-2-1.7h-1V179.2z"/>
	<path d="M171.1,170.4c-0.5-0.3-1.1-0.6-1.7-0.6c-0.9,0-1.4,0.5-1.4,1.1c0,0.7,0.7,1.2,2,2.2c1.4,1.1,2.2,2,2.2,3.3
		c0,1.3-1.3,2.9-3.7,2.9c-1.1,0-2.3-0.3-3.1-1.1l0.8-1.2c0.6,0.4,1.2,0.8,2.2,0.8c0.9,0,1.7-0.5,1.7-1.5c0-1.2-1.4-1.9-2.3-2.6
		c-1-0.8-1.9-1.5-1.9-2.9c0-1.4,1.4-2.6,3.4-2.6c1.2,0,2.2,0.4,2.7,0.9L171.1,170.4z"/>
	<path d="M178.5,177c0.7,0.5,1.5,0.9,2.4,0.9c1.5,0,2.2-1,2.2-2c0-1.5-1.8-2.6-4.4-2.6l1.2-4.8h5l-0.4,1.5h-3.2l-0.5,2
		c3.6,0.6,4.4,2.4,4.4,3.9c0,1.9-1.8,3.5-4.3,3.5c-1,0-2.1-0.2-3.2-1L178.5,177z"/>
	<path d="M186.7,178.1l1.9-1.9c2.6-2.6,3.3-3.8,3.3-4.9c0-0.7-0.6-1.5-1.5-1.5c-0.9,0-1.7,0.5-2.4,1.1l-0.8-1
		c0.7-0.8,1.9-1.5,3.6-1.5c1.8,0,3.4,1,3.4,2.8c0,1.2-0.5,2.1-2.6,4.3l-2.1,2.2h4.7v1.6h-7.7V178.1z"/>
	<path d="M196,178.2c2.1-0.3,3.9-1.8,4.5-3.4c-0.5,0.2-1.1,0.4-1.9,0.4c-2.1,0-3.4-1.5-3.4-3.2c0-1.5,1.3-3.5,4-3.5
		c2.5,0,3.9,1.6,3.9,3.9c0,3.7-3.3,6.8-7.1,7.1V178.2z M199.1,169.6c-1.1,0-1.8,1-1.8,2.3c0,1.1,0.6,2.1,1.7,2.1
		c1.1,0,1.8-0.7,1.8-2.2C201,170.3,200.2,169.6,199.1,169.6z"/>
	<path d="M216.5,169.2l-5.6,8.6h5.8v1.4h-8.6v-0.7l5.6-8.5H209v-1.4h7.6V169.2z"/>
	<path d="M218.3,178.2c2.1-0.3,3.9-1.8,4.5-3.4c-0.5,0.2-1.1,0.4-1.9,0.4c-2.1,0-3.4-1.5-3.4-3.2c0-1.5,1.3-3.5,4-3.5
		c2.5,0,3.9,1.6,3.9,3.9c0,3.7-3.3,6.8-7.1,7.1V178.2z M221.4,169.6c-1.1,0-1.8,1-1.8,2.3c0,1.1,0.6,2.1,1.7,2.1
		c1.1,0,1.8-0.7,1.8-2.2C223.3,170.3,222.5,169.6,221.4,169.6z"/>
</g>
<g class="st0">
	<path d="M134.1,115h-2.1v-10.6h3.3c2.4,0,3.9,1,3.9,3.1c0,1.8-1.5,3.5-4.1,3.5h-0.5v-1.3l0.5,0c1-0.1,2-0.7,2-2.1
		c0-1.1-0.7-1.7-2-1.7h-1V115z"/>
	<path d="M146.2,106.2c-0.5-0.3-1.1-0.6-1.7-0.6c-0.9,0-1.4,0.5-1.4,1.1c0,0.7,0.7,1.2,2,2.2c1.4,1.1,2.2,2,2.2,3.3
		c0,1.3-1.3,2.9-3.7,2.9c-1.1,0-2.3-0.3-3.1-1.1l0.8-1.2c0.6,0.4,1.2,0.8,2.2,0.8c0.9,0,1.7-0.5,1.7-1.5c0-1.2-1.4-1.9-2.3-2.6
		c-1-0.8-1.9-1.5-1.9-2.9c0-1.4,1.4-2.6,3.4-2.6c1.2,0,2.2,0.4,2.7,0.9L146.2,106.2z"/>
	<path d="M153.6,112.9c0.7,0.5,1.5,0.9,2.4,0.9c1.5,0,2.2-1,2.2-2c0-1.5-1.8-2.6-4.4-2.6l1.2-4.8h5l-0.4,1.5h-3.2l-0.5,2
		c3.6,0.6,4.4,2.4,4.4,3.9c0,1.9-1.8,3.5-4.3,3.5c-1,0-2.1-0.2-3.2-1L153.6,112.9z"/>
	<path d="M163.2,108.9c1.5,0,2.8-0.6,2.8-2c0-1.1-0.8-1.4-1.5-1.4c-0.8,0-1.5,0.3-1.9,0.6L162,105c0.8-0.5,1.8-0.8,3-0.8
		c1,0,3.2,0.3,3.2,2.4c0,1.5-1.5,2.3-2.2,2.6v0c0.7,0.1,2.7,0.7,2.8,2.8c0,1-0.8,3.2-4,3.2c-1.3,0-2.3-0.3-3-0.6l0.6-1.2
		c0.4,0.2,1.2,0.5,2,0.5c1.1,0,2.1-0.7,2.1-2c0-1.6-1.9-2-3.4-2V108.9z"/>
	<path d="M170.3,109.5c0-2.4,1.2-5.3,3.9-5.3s3.9,2.9,3.9,5.3c0,3.5-1.6,5.7-3.9,5.7S170.3,113,170.3,109.5z M175.9,109.5
		c0-2.5-0.7-3.9-1.7-3.9s-1.7,1.4-1.7,3.9c0,2.9,0.7,4.2,1.7,4.2S175.9,112.4,175.9,109.5z"/>
	<path d="M189,104.4l4,10.6h-2.4l-1-2.9h-3.8l-1.1,2.9h-1.9l4.3-10.6H189z M189.3,110.8c-0.5-1.4-0.9-2.7-1.4-4.3h0
		c-0.4,1.6-0.9,2.9-1.4,4.3H189.3z"/>
	<path d="M199.1,115h-2.2v-9.3l-2.1,0.8l-0.4-1.2l2.9-1.2h1.7V115z"/>
	<path d="M206.1,112v-1.2h7.6v1.2H206.1z"/>
	<path d="M226.8,105.1l-5.6,8.6h5.8v1.4h-8.6v-0.7l5.6-8.5h-4.7v-1.4h7.6V105.1z"/>
</g>
<g class="st0">
	<path d="M103.7,121.2v8.1c0,1.9-1.1,2.9-2.6,2.9v-1c0.3-0.1,0.5-0.2,0.6-0.4c0.1-0.3,0.3-0.8,0.3-1.5v-8H103.7z"/>
	<path d="M109.6,121.2l3.2,8.6h-1.9l-0.8-2.4h-3.1l-0.9,2.4h-1.5l3.5-8.6H109.6z M109.9,126.4c-0.4-1.1-0.7-2.2-1.1-3.5h0
		c-0.4,1.3-0.8,2.4-1.2,3.5H109.9z"/>
	<path d="M120.1,122.7c-0.4-0.2-1.1-0.5-1.8-0.5c-1.8,0-3.1,1.2-3.1,3.2c0,2,1.4,3.3,3.1,3.3c0.7,0,1.3-0.2,1.7-0.4l0.5,1.1
		c-0.5,0.3-1.5,0.6-2.3,0.6c-3,0-4.9-2-4.9-4.5c0-2.4,1.9-4.4,4.9-4.4c0.9,0,1.7,0.3,2.3,0.7L120.1,122.7z"/>
	<path d="M123.9,124.9L123.9,124.9l3.1-3.9l1.4,0.5l-2.9,3.5l3.5,4.4l-1.8,0.5l-3.3-4.5h0v4.4h-1.7v-8.6h1.7V124.9z"/>
	<path d="M134.4,122.7c-0.4-0.3-0.9-0.5-1.4-0.5c-0.7,0-1.1,0.4-1.1,0.9c0,0.6,0.6,1,1.6,1.8c1.2,0.9,1.8,1.7,1.8,2.7
		c0,1.1-1,2.3-3,2.3c-0.9,0-1.9-0.3-2.5-0.9l0.6-1c0.5,0.3,1,0.7,1.8,0.7c0.7,0,1.3-0.4,1.3-1.2c0-0.9-1.2-1.6-1.8-2.1
		c-0.8-0.7-1.5-1.2-1.5-2.4c0-1.2,1.2-2.1,2.7-2.1c1,0,1.8,0.4,2.2,0.8L134.4,122.7z"/>
	<path d="M136.5,125.3c0-2.4,1.8-4.3,4.3-4.3s4.3,1.9,4.3,4.3c0,2.6-1.7,4.6-4.3,4.6S136.5,127.9,136.5,125.3z M143.3,125.3
		c0-1.6-0.7-3.1-2.5-3.1c-1.7,0-2.5,1.5-2.5,3.1c0,1.6,0.6,3.3,2.5,3.3S143.3,127,143.3,125.3z"/>
	<path d="M154.3,129.8H153c-1.7-2-3.3-4-4.9-6.2h0v6.2h-1.4v-8.6h1.3c1.6,2,3.3,3.9,4.9,6.1h0v-6.1h1.4V129.8z"/>
	<path d="M165.4,123.5h1v2.6h2.6v1h-2.6v2.6h-1v-2.6h-2.6v-1h2.6V123.5z"/>
	<path d="M175.7,121.2v5c0,1.7,0.5,2.6,1.9,2.6c1.3,0,1.8-1.1,1.8-2.5v-5h1.6v5.4c0,2.2-1.4,3.4-3.4,3.4c-2.3,0-3.6-1.1-3.6-3.5
		v-5.3H175.7z"/>
	<path d="M187.2,122.7c-0.4-0.3-0.9-0.5-1.4-0.5c-0.7,0-1.1,0.4-1.1,0.9c0,0.6,0.6,1,1.6,1.8c1.2,0.9,1.8,1.7,1.8,2.7
		c0,1.1-1,2.3-3,2.3c-0.9,0-1.9-0.3-2.5-0.9l0.6-1c0.5,0.3,1,0.7,1.8,0.7c0.7,0,1.3-0.4,1.3-1.2c0-0.9-1.2-1.6-1.8-2.1
		c-0.8-0.7-1.5-1.2-1.5-2.4c0-1.2,1.2-2.1,2.7-2.1c1,0,1.8,0.4,2.2,0.8L187.2,122.7z"/>
	<path d="M200.5,125.8v3.6c-0.9,0.3-1.9,0.5-2.9,0.5c-3,0-4.9-2-4.9-4.5c0-2.4,1.9-4.4,4.9-4.4c0.9,0,1.9,0.3,2.5,0.7l-0.6,1
		c-0.5-0.2-1.2-0.5-1.9-0.5c-1.8,0-3.1,1.2-3.1,3.2c0,2,1.5,3.3,2.9,3.3c0.5,0,0.8,0,1.2-0.2v-2.6H200.5z"/>
	<path d="M202.2,125.3c0-2.4,1.8-4.3,4.3-4.3s4.3,1.9,4.3,4.3c0,2.6-1.7,4.6-4.3,4.6S202.2,127.9,202.2,125.3z M208.9,125.3
		c0-1.6-0.7-3.1-2.5-3.1c-1.7,0-2.5,1.5-2.5,3.1c0,1.6,0.6,3.3,2.5,3.3S208.9,127,208.9,125.3z"/>
	<path d="M214.6,129.8l-3.2-8.5l1.8-0.2c0.8,2.2,1.5,4.4,2.3,6.9h0c0.8-2.5,1.6-4.7,2.4-6.9l1.5,0.2l-3.4,8.5H214.6z"/>
	<path d="M227,121.2c3.5,0,4.7,2,4.7,4.1c0,2.8-1.8,4.6-4.9,4.6H224v-8.6H227z M225.7,128.6h1.1c2,0,3.1-1,3.1-3.4
		c0-1.8-1-2.9-2.9-2.9h-1.3V128.6z"/>
	<path d="M232.8,125.3c0-2.4,1.8-4.3,4.3-4.3s4.3,1.9,4.3,4.3c0,2.6-1.7,4.6-4.3,4.6S232.8,127.9,232.8,125.3z M239.5,125.3
		c0-1.6-0.7-3.1-2.5-3.1c-1.7,0-2.5,1.5-2.5,3.1c0,1.6,0.6,3.3,2.5,3.3S239.5,127,239.5,125.3z"/>
	<path d="M249.2,122.7c-0.4-0.2-1.1-0.5-1.8-0.5c-1.8,0-3.1,1.2-3.1,3.2c0,2,1.4,3.3,3.1,3.3c0.7,0,1.3-0.2,1.7-0.4l0.5,1.1
		c-0.5,0.3-1.5,0.6-2.3,0.6c-3,0-4.9-2-4.9-4.5c0-2.4,1.9-4.4,4.9-4.4c0.9,0,1.7,0.3,2.3,0.7L249.2,122.7z"/>
	<path d="M255.5,122.7c-0.4-0.3-0.9-0.5-1.4-0.5c-0.7,0-1.1,0.4-1.1,0.9c0,0.6,0.6,1,1.6,1.8c1.2,0.9,1.8,1.7,1.8,2.7
		c0,1.1-1,2.3-3,2.3c-0.9,0-1.9-0.3-2.5-0.9l0.6-1c0.5,0.3,1,0.7,1.8,0.7c0.7,0,1.3-0.4,1.3-1.2c0-0.9-1.2-1.6-1.8-2.1
		c-0.8-0.7-1.5-1.2-1.5-2.4c0-1.2,1.2-2.1,2.7-2.1c1,0,1.8,0.4,2.2,0.8L255.5,122.7z"/>
</g>
<g>
	<path d="M375.2,38.1c-0.6-0.3-1.7-0.7-2.8-0.7c-2.8,0-4.7,1.9-4.7,5c0,3.2,2.2,5,4.8,5c1,0,2-0.3,2.7-0.7l0.7,1.7
		c-0.8,0.5-2.3,0.9-3.6,0.9c-4.6,0-7.6-3.1-7.6-7c0-3.6,2.9-6.8,7.6-6.8c1.4,0,2.7,0.5,3.6,1L375.2,38.1z"/>
	<path d="M386.4,35.7l5,13.4h-3l-1.2-3.6h-4.7l-1.4,3.6h-2.3l5.4-13.4H386.4z M386.8,43.8c-0.6-1.8-1.1-3.4-1.8-5.4h0
		c-0.6,2.1-1.2,3.7-1.8,5.4H386.8z"/>
	<path d="M395,35.7h2.7v11.6h5.3V49h-8V35.7z"/>
	<path d="M406.8,35.7h2.7v11.6h5.3V49h-8V35.7z"/>
	<path d="M437.8,49h-1.9c-2.6-3.1-5.1-6.1-7.6-9.6h0V49H426V35.7h2c2.6,3.1,5.1,6.1,7.6,9.5h0v-9.5h2.2V49z"/>
	<path d="M445.5,35.7v7.7c0,2.6,0.8,4,2.9,4c2,0,2.9-1.7,2.9-3.9v-7.8h2.4V44c0,3.4-2.2,5.3-5.3,5.3c-3.6,0-5.5-1.8-5.5-5.4v-8.2
		H445.5z"/>
	<path d="M473.8,49h-2.7V38.6h0c-1.5,3.7-3,7.1-4.5,10.4h-1.5c-1.4-3.3-2.9-6.7-4.3-10.4h0V49h-2.2V35.7h3.3
		c1.4,3.3,3.6,8.5,4.1,10.2h0c0.6-1.8,3-7,4.6-10.2h3.1V49z"/>
	<path d="M478.9,49V35.7h4.8c2.3,0,3.8,1,3.8,2.8c0,2.1-1.7,3-2.7,3.3v0c1.7,0.1,3.5,1.2,3.5,3.3c0,2.3-1.9,4-5.1,4H478.9z
		 M481.6,41.2h0.8c1.5,0,2.6-1,2.6-2.2c0-1.2-0.9-1.7-2-1.7h-1.4V41.2z M481.6,47.4h1.4c1.5,0,2.6-0.8,2.6-2.3
		c0-1.6-1.2-2.2-2.6-2.2h-1.4V47.4z"/>
	<path d="M499.9,37.5h-4.5v3.7h4.4v1.8h-4.4v4.3h5.3V49h-8V35.7h7.2V37.5z"/>
	<path d="M505,35.7h4.6c2.6,0,4.3,1.2,4.3,3.5c0,2-1,3.1-2.3,3.9l3.2,5.7l-2.8,0.5l-2.7-5.6h-1.6V49H505V35.7z M507.7,41.9h1.1
		c1.9,0,2.4-1.4,2.4-2.4c0-1.5-1.1-2-2.1-2h-1.4V41.9z"/>
	<path d="M365.6,58.6h2.7v11.6h5.3V72h-8V58.6z"/>
	<path d="M376.7,65.1c0-3.7,2.8-6.7,6.7-6.7s6.7,3,6.7,6.7c0,4-2.6,7.1-6.7,7.1S376.7,69.1,376.7,65.1z M387.2,65.1
		c0-2.5-1.1-4.8-3.8-4.8c-2.7,0-3.8,2.3-3.8,4.8c0,2.6,1,5.2,3.8,5.2C386.2,70.3,387.2,67.7,387.2,65.1z"/>
	<path d="M404,61c-0.6-0.3-1.7-0.7-2.8-0.7c-2.8,0-4.7,1.9-4.7,5c0,3.2,2.2,5,4.8,5c1,0,2-0.3,2.7-0.7l0.7,1.7
		c-0.8,0.5-2.3,0.9-3.6,0.9c-4.6,0-7.6-3.1-7.6-7c0-3.6,2.9-6.8,7.6-6.8c1.4,0,2.7,0.5,3.6,1L404,61z"/>
	<path d="M415.2,58.6l5,13.4h-3l-1.2-3.6h-4.7l-1.4,3.6h-2.3l5.4-13.4H415.2z M415.6,66.7c-0.6-1.8-1.1-3.4-1.8-5.4h0
		c-0.6,2.1-1.2,3.7-1.8,5.4H415.6z"/>
	<path d="M425.5,72V60.4h-4.1v-1.8h10.9v1.8h-4.1V72H425.5z"/>
	<path d="M436,72V58.6h2.7V72H436z"/>
	<path d="M443,65.1c0-3.7,2.8-6.7,6.7-6.7s6.7,3,6.7,6.7c0,4-2.6,7.1-6.7,7.1S443,69.1,443,65.1z M453.5,65.1c0-2.5-1.1-4.8-3.8-4.8
		c-2.7,0-3.8,2.3-3.8,4.8c0,2.6,1,5.2,3.8,5.2C452.5,70.3,453.5,67.7,453.5,65.1z"/>
	<path d="M472.5,72h-1.9c-2.6-3.1-5.1-6.1-7.6-9.6h0V72h-2.2V58.6h2c2.6,3.1,5.1,6.1,7.6,9.5h0v-9.5h2.2V72z"/>
	<path d="M484.2,60.9c-0.6-0.4-1.4-0.8-2.2-0.8c-1.1,0-1.7,0.6-1.7,1.4c0,0.9,0.9,1.5,2.5,2.8c1.8,1.4,2.8,2.6,2.8,4.2
		c0,1.7-1.6,3.6-4.6,3.6c-1.4,0-2.9-0.4-3.9-1.3l1-1.5c0.7,0.5,1.5,1.1,2.7,1.1c1.1,0,2.1-0.6,2.1-1.9c0-1.5-1.8-2.4-2.9-3.3
		c-1.3-1.1-2.4-1.9-2.4-3.6c0-1.8,1.8-3.2,4.2-3.2c1.5,0,2.8,0.6,3.4,1.2L484.2,60.9z"/>
</g>
</svg>
