<?xml version="1.0" encoding="utf-8"?>
<!-- Generator: Adobe Illustrator 28.3.0, SVG Export Plug-In . SVG Version: 6.00 Build 0)  -->
<svg version="1.1" id="Layer_1" xmlns="http://www.w3.org/2000/svg" xmlns:xlink="http://www.w3.org/1999/xlink" x="0px" y="0px"
	 viewBox="0 0 301.5 164" style="enable-background:new 0 0 301.5 164;" xml:space="preserve">
<style type="text/css">
	.st0{fill:#A7A9AC;}
	.st1{fill:none;stroke:#75777A;stroke-width:1.4876;stroke-linecap:round;stroke-linejoin:round;stroke-miterlimit:10;}
	.st2{fill:#58595B;}
	.st3{fill:none;stroke:#58595B;stroke-width:1.0774;stroke-linecap:round;stroke-linejoin:round;stroke-miterlimit:10;}
	.st4{fill:none;stroke:#FFFFFF;stroke-width:0.4312;stroke-miterlimit:10;}
	.st5{fill:none;stroke:#58595B;stroke-width:1.181;stroke-linecap:round;stroke-linejoin:round;stroke-miterlimit:10;}
	.st6{fill:none;stroke:#FFFFFF;stroke-width:0.472;stroke-linecap:round;stroke-linejoin:round;stroke-miterlimit:10;}
	.st7{fill:none;stroke:#75777A;stroke-width:1.181;stroke-linecap:round;stroke-linejoin:round;stroke-miterlimit:10;}
	.st8{fill:none;stroke:#75777A;stroke-width:1.181;stroke-linejoin:round;stroke-miterlimit:10;}
	.st9{fill:#FFFFFF;}
	.st10{fill:none;stroke:#FFFFFF;stroke-width:0.4282;stroke-linecap:round;stroke-linejoin:round;stroke-miterlimit:10;}
	.st11{fill:none;stroke:#FFFFFF;stroke-width:0.5905;stroke-linecap:round;stroke-linejoin:round;stroke-miterlimit:10;}
	.st12{fill:none;stroke:#FFFFFF;stroke-width:0.5188;stroke-linecap:round;stroke-linejoin:round;stroke-miterlimit:10;}
	.st13{fill:none;stroke:#58595B;stroke-width:0.9002;stroke-linecap:round;stroke-linejoin:round;stroke-miterlimit:10;}
	.st14{fill:none;stroke:#FFFFFF;stroke-width:0.3605;stroke-linecap:round;stroke-linejoin:round;stroke-miterlimit:10;}
	.st15{fill:none;stroke:#FFFFFF;stroke-width:0.2947;stroke-linecap:round;stroke-linejoin:round;stroke-miterlimit:10;}
	.st16{fill:none;stroke:#FFFFFF;stroke-width:0.2081;stroke-linecap:round;stroke-linejoin:round;stroke-miterlimit:10;}
	.st17{fill:none;stroke:#58595B;stroke-width:1.3313;stroke-linecap:round;stroke-linejoin:round;stroke-miterlimit:10;}
	.st18{fill:none;stroke:#FFFFFF;stroke-width:0.5327;stroke-linecap:round;stroke-linejoin:round;stroke-miterlimit:10;}
	.st19{fill:none;stroke:#FFFFFF;stroke-width:0.4371;stroke-linecap:round;stroke-linejoin:round;stroke-miterlimit:10;}
	.st20{fill:none;stroke:#FFFFFF;stroke-width:0.3087;stroke-linecap:round;stroke-linejoin:round;stroke-miterlimit:10;}
	.st21{enable-background:new    ;}
	.st22{fill:none;stroke:#75777A;stroke-width:1.4976;stroke-linecap:round;stroke-linejoin:round;stroke-miterlimit:10;}
	.st23{fill:none;stroke:#58595B;stroke-width:3.5429;stroke-miterlimit:10;}
	.st24{fill:none;stroke:#75777A;stroke-width:1.4342;stroke-linecap:round;stroke-linejoin:round;stroke-miterlimit:10;}
</style>
<g>
	<rect x="66" y="117" class="st0" width="8.2" height="7.5"/>
	<rect x="135.7" y="131.4" class="st0" width="13.8" height="7.5"/>
	<rect x="127.8" y="139.7" class="st0" width="7" height="8"/>
	<rect x="213.6" y="72.5" class="st0" width="3.5" height="2"/>
	<rect x="213.7" y="70.8" class="st0" width="8.1" height="2.7"/>
	<rect x="195.7" y="71.6" class="st0" width="13.3" height="5.4"/>
	<polygon class="st0" points="73,45.2 48.9,45 48.8,36.3 38,36.3 37.9,14.1 105.8,14.2 105.6,36.2 73,36.3 	"/>
	<polyline class="st1" points="284.1,138.2 256.1,138.2 256.1,148 	"/>
	<rect x="267.3" y="140" class="st2" width="6.4" height="6.4"/>
	<rect x="267.3" y="140" class="st3" width="6.4" height="6.4"/>
	<polyline class="st4" points="273,140.9 272,140.9 272,141.9 271,141.9 271,142.9 269.9,142.9 269.9,143.9 268.9,143.9 
		268.9,144.9 267.9,144.9 	"/>
	<rect x="141.5" y="140.5" class="st2" width="7.1" height="7.1"/>
	<rect x="141.5" y="140.5" class="st5" width="7.1" height="7.1"/>
	<polyline class="st6" points="147.8,141.5 146.7,141.5 146.7,142.6 145.6,142.6 145.6,143.8 144.4,143.8 144.4,144.9 143.3,144.9 
		143.3,146 142.2,146 	"/>
	<rect x="225.7" y="86.6" class="st2" width="7.1" height="7.1"/>
	<rect x="225.7" y="86.6" class="st5" width="7.1" height="7.1"/>
	<polyline class="st6" points="226.4,92.6 227.5,92.6 227.5,91.5 228.7,91.5 228.7,90.4 229.9,90.4 229.9,89.3 231,89.3 231,88.2 
		232.1,88.2 	"/>
	<rect x="90.6" y="44.7" class="st2" width="7.1" height="7.1"/>
	<rect x="90.6" y="44.7" class="st5" width="7.1" height="7.1"/>
	<polyline class="st6" points="91.3,50.8 92.4,50.8 92.4,49.7 93.6,49.7 93.6,48.6 94.8,48.6 94.8,47.4 95.9,47.4 95.9,46.3 
		97,46.3 	"/>
	<polyline class="st7" points="180.4,148.5 180.4,131.1 166,131.1 	"/>
	<polyline class="st7" points="153.9,131.1 135.1,131.1 135.1,148.2 	"/>
	<polyline class="st7" points="154.3,139.3 127.3,139.3 127.3,148.2 	"/>
	<line class="st7" x1="154.8" y1="143.2" x2="154.8" y2="148"/>
	<line class="st7" x1="173.1" y1="131.5" x2="173.1" y2="149.1"/>
	<line class="st8" x1="173.3" y1="140.2" x2="180.8" y2="140.2"/>
	<polyline class="st7" points="70.4,60.7 111.1,60.7 111.1,54.5 106.1,54.5 	"/>
	<line class="st7" x1="105.9" y1="60.5" x2="105.9" y2="13.4"/>
	<polyline class="st7" points="105.6,36.2 72.9,36.2 73,45.4 63.8,45.4 	"/>
	<polyline class="st7" points="59.5,61.1 59.5,45.1 48.5,45.1 48.5,36.7 38,36.7 38,13.4 	"/>
	<rect x="118.1" y="108" class="st0" width="8.8" height="18.1"/>
	<rect x="118.1" y="108" class="st7" width="8.8" height="18.1"/>
	<rect x="77.7" y="98.9" class="st0" width="7.5" height="5.3"/>
	<rect x="77.7" y="98.9" class="st7" width="7.5" height="5.3"/>
	<rect x="30.2" y="79.7" class="st0" width="7.3" height="7.1"/>
	<rect x="30.2" y="79.7" class="st7" width="7.3" height="7.1"/>
	<rect x="110.2" y="80.3" class="st0" width="17.1" height="8.2"/>
	<rect x="110.2" y="80.3" class="st7" width="17.1" height="8.2"/>
	<polygon class="st0" points="64.5,96.6 64.5,85.8 60.1,85.8 60.1,79.9 52.6,79.9 52.6,96.3 	"/>
	<polygon class="st7" points="64.5,96.6 64.5,85.8 60.1,85.8 60.1,79.9 52.6,79.9 52.6,96.3 	"/>
	<polygon class="st0" points="104.3,92 92.1,92 92.1,100.2 100.1,100.2 100.1,104.1 104.5,104.1 	"/>
	<polygon class="st7" points="104.3,92 92.1,92 92.1,100.2 100.1,100.2 100.1,104.1 104.5,104.1 	"/>
	<rect x="195.7" y="87.3" class="st2" width="7.1" height="7.1"/>
	<rect x="195.7" y="87.3" class="st5" width="7.1" height="7.1"/>
	<path class="st9" d="M199.8,88.8c0,0.3-0.3,0.6-0.6,0.6s-0.6-0.3-0.6-0.6c0-0.3,0.3-0.6,0.6-0.6C199.5,88.1,199.8,88.4,199.8,88.8"
		/>
	<rect x="199" y="89.7" class="st9" width="0.5" height="4"/>
	<rect x="199" y="89.7" class="st10" width="0.5" height="4"/>
	<polyline class="st9" points="199,89.8 198.4,92.2 200.2,92.1 199.5,89.8 	"/>
	<polyline class="st11" points="199,89.8 198.4,92.2 200.2,92.1 199.5,89.8 	"/>
	<line class="st11" x1="197.8" y1="91.1" x2="198.9" y2="89.9"/>
	<line class="st11" x1="199.6" y1="89.9" x2="200.7" y2="91"/>
	<rect x="208.2" y="87.1" class="st2" width="7.1" height="7.1"/>
	<rect x="208.2" y="87.1" class="st5" width="7.1" height="7.1"/>
	<path class="st9" d="M212.4,88.4c0,0.3-0.3,0.6-0.6,0.6s-0.6-0.3-0.6-0.6c0-0.3,0.3-0.6,0.6-0.6C212.1,87.8,212.4,88.1,212.4,88.4"
		/>
	<rect x="211.6" y="89.4" class="st9" width="0.5" height="4"/>
	<rect x="211.6" y="89.4" class="st10" width="0.5" height="4"/>
	<line class="st11" x1="210.2" y1="90.7" x2="211.3" y2="89.5"/>
	<line class="st11" x1="212.5" y1="89.5" x2="213.6" y2="90.6"/>
	<rect x="211.3" y="89.4" class="st9" width="1.2" height="2.1"/>
	<rect x="211.3" y="89.4" class="st12" width="1.2" height="2.1"/>
	<polyline class="st7" points="119.1,103.5 127.1,103.5 127.3,88.6 	"/>
	<line class="st7" x1="119.3" y1="99.9" x2="119.3" y2="88.7"/>
	<line class="st7" x1="110.2" y1="103.7" x2="110.2" y2="88.8"/>
	<line class="st7" x1="119.2" y1="96.5" x2="110.2" y2="96.5"/>
	<rect x="120.6" y="94" class="st2" width="5.4" height="5.4"/>
	<rect x="120.6" y="94" class="st13" width="5.4" height="5.4"/>
	<polyline class="st14" points="125.4,94.7 124.6,94.7 124.6,95.6 123.7,95.6 123.7,96.4 122.8,96.4 122.8,97.3 121.9,97.3 
		121.9,98.1 121.1,98.1 	"/>
	<polygon class="st0" points="191.3,80.6 191.3,70.9 146.4,70.9 146.4,83 196.1,83 196.2,80.5 	"/>
	<polygon class="st7" points="191.3,80.6 191.3,70.9 146.4,70.9 146.4,83 196.1,83 196.2,80.5 	"/>
	<rect x="240.6" y="73" class="st0" width="9.5" height="10.7"/>
	<rect x="240.6" y="73" class="st7" width="9.5" height="10.7"/>
	<line class="st7" x1="240.6" y1="73" x2="233.8" y2="73"/>
	<polyline class="st7" points="223.5,73.3 217.1,73.3 217.1,105.2 240.7,105.2 240.7,83.5 	"/>
	<polyline class="st7" points="217.4,105.2 206.7,105.2 206.7,77.3 212,77.3 	"/>
	<polyline class="st7" points="206.7,105.2 194.2,105.2 194.2,83.7 	"/>
	<polyline class="st7" points="204.2,105 204.2,77.3 195.3,77.3 195.3,71.1 209.6,71.1 209.6,76.8 	"/>
	<polyline class="st7" points="217,74.5 213.5,74.5 213.5,70.9 222.1,70.9 222.1,72.7 	"/>
	<rect x="112.1" y="89.9" class="st2" width="5.4" height="5.4"/>
	<rect x="112.1" y="89.9" class="st13" width="5.4" height="5.4"/>
	<rect x="113" y="91.8" class="st14" width="3.7" height="2.7"/>
	<path class="st9" d="M114.1,92.5c0,0.1-0.1,0.2-0.2,0.2s-0.2-0.1-0.2-0.2s0.1-0.2,0.2-0.2S114.1,92.4,114.1,92.5"/>
	<path class="st9" d="M115,92.6c0,0.1-0.1,0.2-0.2,0.2s-0.2-0.1-0.2-0.2s0.1-0.2,0.2-0.2C114.9,92.3,115,92.4,115,92.6"/>
	<path class="st9" d="M115.9,92.6c0,0.1-0.1,0.2-0.2,0.2s-0.2-0.1-0.2-0.2s0.1-0.2,0.2-0.2C115.8,92.3,115.9,92.4,115.9,92.6"/>
	<polyline class="st15" points="113.1,90.5 113.9,91.1 114.6,90.5 	"/>
	<polyline class="st15" points="116.6,91.1 115.9,90.5 115.2,91.1 	"/>
	<rect x="113.8" y="93" class="st16" width="0.1" height="0.8"/>
	<rect x="114.7" y="93" class="st16" width="0.1" height="0.8"/>
	<rect x="115.6" y="93" class="st16" width="0.1" height="0.8"/>
	<rect x="160.6" y="136.4" class="st2" width="8" height="8"/>
	<rect x="160.6" y="136.4" class="st17" width="8" height="8"/>
	<rect x="161.9" y="139.3" class="st18" width="5.5" height="3.9"/>
	<path class="st9" d="M163.5,140.4c0,0.2-0.1,0.3-0.3,0.3s-0.3-0.1-0.3-0.3s0.1-0.3,0.3-0.3C163.4,140.1,163.5,140.2,163.5,140.4"/>
	<path class="st9" d="M164.9,140.4c0,0.2-0.1,0.3-0.3,0.3s-0.3-0.1-0.3-0.3s0.1-0.3,0.3-0.3C164.8,140.1,164.9,140.3,164.9,140.4"/>
	<path class="st9" d="M166.2,140.4c0,0.2-0.1,0.3-0.3,0.3s-0.3-0.1-0.3-0.3s0.1-0.3,0.3-0.3C166,140.1,166.2,140.3,166.2,140.4"/>
	<polyline class="st19" points="162.1,137.4 163.2,138.3 164.2,137.4 	"/>
	<polyline class="st19" points="167.2,138.2 166.2,137.4 165.1,138.2 	"/>
	<rect x="163.2" y="141.1" class="st20" width="0.2" height="1.2"/>
	<rect x="164.5" y="141.1" class="st20" width="0.2" height="1.2"/>
	<rect x="165.8" y="141.1" class="st20" width="0.2" height="1.2"/>
	<rect x="106.4" y="55" class="st0" width="4.3" height="5"/>
	<rect x="204.6" y="75.7" class="st0" width="1.4" height="28.9"/>
	<line class="st7" x1="149.9" y1="139.1" x2="149.9" y2="131.3"/>
	<g>
		<g class="st21">
			<path d="M196.7,120.4c0-0.9,0.6-1.4,1.4-1.4c0.5,0,0.9,0.3,1.1,0.6l-0.4,0.2c-0.1-0.2-0.4-0.4-0.7-0.4c-0.6,0-1,0.4-1,1.1
				c0,0.6,0.4,1.1,1,1.1c0.3,0,0.6-0.2,0.7-0.4l0.4,0.2c-0.2,0.3-0.6,0.6-1.1,0.6C197.3,121.9,196.7,121.3,196.7,120.4z"/>
			<path d="M199.6,121.8v-2.8h1.9v0.4h-1.4v0.8h1.4v0.4h-1.4v0.9h1.4v0.4H199.6z"/>
			<path d="M204,121.8l-1.5-2.1v2.1H202v-2.8h0.4l1.5,2.1v-2.1h0.4v2.8H204z"/>
			<path d="M205.7,121.8v-2.4h-0.9v-0.4h2.1v0.4h-0.9v2.4H205.7z"/>
			<path d="M207.4,121.8v-2.8h1.9v0.4h-1.4v0.8h1.4v0.4h-1.4v0.9h1.4v0.4H207.4z"/>
			<path d="M211.3,121.8l-0.7-1.1h-0.5v1.1h-0.4v-2.8h1.2c0.5,0,0.9,0.3,0.9,0.9c0,0.5-0.3,0.8-0.7,0.8l0.7,1.1H211.3z M210.9,119.4
				h-0.7v1h0.7c0.3,0,0.5-0.2,0.5-0.5C211.4,119.6,211.2,119.4,210.9,119.4z"/>
			<path d="M213.4,121.8v-2.8h1.9v0.4h-1.4v0.8h1.4v0.4h-1.4v1.2H213.4z"/>
			<path d="M217,119c0.8,0,1.4,0.6,1.4,1.4c0,0.8-0.6,1.4-1.4,1.4s-1.4-0.6-1.4-1.4C215.6,119.6,216.1,119,217,119z M217,119.4
				c-0.6,0-1,0.5-1,1.1c0,0.6,0.4,1.1,1,1.1c0.6,0,1-0.5,1-1.1C217.9,119.8,217.5,119.4,217,119.4z"/>
			<path d="M220.5,121.8l-0.7-1.1h-0.5v1.1h-0.4v-2.8h1.2c0.5,0,0.9,0.3,0.9,0.9c0,0.5-0.3,0.8-0.7,0.8l0.7,1.1H220.5z M220,119.4
				h-0.7v1h0.7c0.3,0,0.5-0.2,0.5-0.5C220.5,119.6,220.3,119.4,220,119.4z"/>
			<path d="M222.5,121.8v-2.8h1c0.9,0,1.4,0.6,1.4,1.4c0,0.8-0.6,1.4-1.4,1.4H222.5z M222.9,121.5h0.6c0.6,0,1-0.5,1-1
				c0-0.6-0.4-1-1-1h-0.6V121.5z"/>
			<path d="M225.4,121.8v-2.8h0.4v2.8H225.4z"/>
			<path d="M227.8,119c0.5,0,0.9,0.2,1.1,0.5l-0.3,0.2c-0.2-0.2-0.4-0.4-0.8-0.4c-0.6,0-1,0.4-1,1.1c0,0.6,0.4,1.1,1,1.1
				c0.3,0,0.6-0.1,0.7-0.3v-0.5h-0.9v-0.4h1.3v1c-0.3,0.3-0.6,0.5-1.1,0.5c-0.8,0-1.4-0.6-1.4-1.4S227,119,227.8,119z"/>
			<path d="M229.4,121.8v-2.8h0.4v2.8H229.4z"/>
		</g>
		<g class="st21">
			<path d="M231.4,121.8v-2.4h-0.9v-0.4h2.1v0.4h-0.9v2.4H231.4z"/>
		</g>
		<g class="st21">
			<path d="M235.2,121.8l-0.2-0.6h-1.4l-0.2,0.6h-0.5l1.1-2.8h0.5l1.1,2.8H235.2z M234.3,119.4l-0.6,1.5h1.1L234.3,119.4z"/>
		</g>
		<g class="st21">
			<path d="M236.4,121.8v-2.8h0.4v2.4h1.3v0.4H236.4z"/>
		</g>
		<g class="st21">
			<path d="M189.7,126.1c0.2,0.2,0.5,0.4,0.9,0.4c0.4,0,0.6-0.2,0.6-0.4c0-0.3-0.3-0.4-0.7-0.5c-0.4-0.1-1-0.2-1-0.8
				c0-0.5,0.4-0.8,1-0.8c0.4,0,0.8,0.1,1,0.4l-0.2,0.3c-0.2-0.2-0.5-0.3-0.8-0.3c-0.3,0-0.5,0.2-0.5,0.4c0,0.2,0.3,0.3,0.6,0.4
				c0.5,0.1,1,0.3,1,0.9c0,0.4-0.3,0.8-1,0.8c-0.5,0-0.9-0.2-1.1-0.4L189.7,126.1z"/>
			<path d="M191.9,125.4c0-0.9,0.6-1.4,1.4-1.4c0.5,0,0.9,0.3,1.1,0.6l-0.4,0.2c-0.1-0.2-0.4-0.4-0.7-0.4c-0.6,0-1,0.4-1,1.1
				c0,0.6,0.4,1.1,1,1.1c0.3,0,0.6-0.2,0.7-0.4l0.4,0.2c-0.2,0.3-0.6,0.6-1.1,0.6C192.6,126.9,191.9,126.3,191.9,125.4z"/>
			<path d="M196.8,126.8v-1.2h-1.5v1.2h-0.4V124h0.4v1.2h1.5V124h0.4v2.8H196.8z"/>
			<path d="M199.1,124c0.8,0,1.4,0.6,1.4,1.4c0,0.8-0.6,1.4-1.4,1.4c-0.8,0-1.4-0.6-1.4-1.4C197.7,124.6,198.3,124,199.1,124z
				 M199.1,124.4c-0.6,0-1,0.5-1,1.1c0,0.6,0.4,1.1,1,1.1c0.6,0,1-0.5,1-1.1C200.1,124.8,199.7,124.4,199.1,124.4z"/>
			<path d="M201,126.8V124h0.4v2.4h1.3v0.4H201z"/>
			<path d="M205.1,126.8l-0.2-0.6h-1.4l-0.2,0.6h-0.5l1.1-2.8h0.5l1.1,2.8H205.1z M204.2,124.4l-0.6,1.5h1.1L204.2,124.4z"/>
			<path d="M207.5,126.8l-0.7-1.1h-0.5v1.1h-0.4V124h1.2c0.5,0,0.9,0.3,0.9,0.9c0,0.5-0.3,0.8-0.7,0.8l0.7,1.1H207.5z M207,124.4
				h-0.7v1h0.7c0.3,0,0.5-0.2,0.5-0.5C207.5,124.6,207.3,124.4,207,124.4z"/>
			<path d="M208.6,126.1c0.2,0.2,0.5,0.4,0.9,0.4c0.4,0,0.6-0.2,0.6-0.4c0-0.3-0.3-0.4-0.7-0.5c-0.4-0.1-1-0.2-1-0.8
				c0-0.5,0.4-0.8,1-0.8c0.4,0,0.8,0.1,1,0.4l-0.2,0.3c-0.2-0.2-0.5-0.3-0.8-0.3c-0.3,0-0.5,0.2-0.5,0.4c0,0.2,0.3,0.3,0.6,0.4
				c0.5,0.1,1,0.3,1,0.9c0,0.4-0.3,0.8-1,0.8c-0.5,0-0.9-0.2-1.1-0.4L208.6,126.1z"/>
			<path d="M212.9,126.8v-1.2h-1.5v1.2h-0.4V124h0.4v1.2h1.5V124h0.4v2.8H212.9z"/>
			<path d="M213.9,126.8V124h0.4v2.8H213.9z"/>
			<path d="M214.9,126.8V124h1.2c0.6,0,0.9,0.4,0.9,0.9c0,0.5-0.3,0.9-0.9,0.9h-0.8v1.1H214.9z M216.1,124.4h-0.7v1h0.7
				c0.3,0,0.5-0.2,0.5-0.5C216.6,124.6,216.4,124.4,216.1,124.4z"/>
			<path d="M220.8,126.8h-0.5c-0.1-0.1-0.2-0.2-0.3-0.3c-0.2,0.2-0.5,0.3-0.8,0.3c-0.5,0-0.9-0.3-0.9-0.8c0-0.4,0.3-0.7,0.6-0.8
				c-0.1-0.2-0.2-0.4-0.2-0.6c0-0.4,0.3-0.6,0.7-0.6c0.4,0,0.7,0.2,0.7,0.6c0,0.4-0.3,0.6-0.7,0.8c0.1,0.1,0.2,0.3,0.3,0.4
				c0.1,0.1,0.2,0.2,0.3,0.3c0.1-0.2,0.2-0.4,0.3-0.6l0.3,0.1c-0.1,0.2-0.2,0.5-0.4,0.7C220.4,126.4,220.6,126.6,220.8,126.8z
				 M219.8,126.3c-0.1-0.2-0.3-0.3-0.4-0.4c-0.1-0.1-0.2-0.3-0.3-0.4c-0.2,0.1-0.4,0.3-0.4,0.5c0,0.3,0.2,0.5,0.5,0.5
				C219.4,126.6,219.6,126.5,219.8,126.3z M219.3,125.1c0.3-0.1,0.5-0.3,0.5-0.5c0-0.2-0.1-0.3-0.3-0.3c-0.2,0-0.4,0.2-0.4,0.4
				C219.1,124.8,219.2,124.9,219.3,125.1z"/>
			<path d="M222.1,125.4c0-0.9,0.6-1.4,1.4-1.4c0.5,0,0.9,0.3,1.1,0.6l-0.4,0.2c-0.1-0.2-0.4-0.4-0.7-0.4c-0.6,0-1,0.4-1,1.1
				c0,0.6,0.4,1.1,1,1.1c0.3,0,0.6-0.2,0.7-0.4l0.4,0.2c-0.2,0.3-0.6,0.6-1.1,0.6C222.7,126.9,222.1,126.3,222.1,125.4z"/>
			<path d="M225,124h0.4v1.7c0,0.5,0.3,0.8,0.7,0.8c0.5,0,0.7-0.3,0.7-0.8V124h0.4v1.7c0,0.7-0.4,1.1-1.2,1.1
				c-0.8,0-1.2-0.5-1.2-1.1V124z"/>
			<path d="M229.6,126.8l-0.7-1.1h-0.5v1.1H228V124h1.2c0.5,0,0.9,0.3,0.9,0.9c0,0.5-0.3,0.8-0.7,0.8l0.7,1.1H229.6z M229.1,124.4
				h-0.7v1h0.7c0.3,0,0.5-0.2,0.5-0.5C229.6,124.6,229.4,124.4,229.1,124.4z"/>
		</g>
		<g class="st21">
			<path d="M232.6,126.8l-0.2-0.6H231l-0.2,0.6h-0.5l1.1-2.8h0.5l1.1,2.8H232.6z M231.7,124.4l-0.6,1.5h1.1L231.7,124.4z"/>
		</g>
		<g class="st21">
			<path d="M234.3,126.8v-2.4h-0.9V124h2.1v0.4h-0.9v2.4H234.3z"/>
			<path d="M236,126.8V124h0.4v2.8H236z"/>
			<path d="M238.3,124c0.8,0,1.4,0.6,1.4,1.4c0,0.8-0.6,1.4-1.4,1.4c-0.8,0-1.4-0.6-1.4-1.4C236.9,124.6,237.5,124,238.3,124z
				 M238.3,124.4c-0.6,0-1,0.5-1,1.1c0,0.6,0.4,1.1,1,1.1c0.6,0,1-0.5,1-1.1C239.3,124.8,238.9,124.4,238.3,124.4z"/>
		</g>
		<g class="st21">
			<path d="M242.4,126.8l-1.5-2.1v2.1h-0.4V124h0.4l1.5,2.1V124h0.4v2.8H242.4z"/>
		</g>
		<g class="st21">
			<path d="M212.2,132.6V129h0.8v0.3h-0.5v3.1h0.5v0.3H212.2z"/>
			<path d="M213.3,130.4c0-0.9,0.6-1.4,1.4-1.4c0.5,0,0.9,0.3,1.1,0.6l-0.4,0.2c-0.1-0.2-0.4-0.4-0.7-0.4c-0.6,0-1,0.4-1,1.1
				c0,0.6,0.4,1.1,1,1.1c0.3,0,0.6-0.2,0.7-0.4l0.4,0.2c-0.2,0.3-0.6,0.6-1.1,0.6C213.9,131.8,213.3,131.3,213.3,130.4z"/>
			<path d="M216.2,131.8V129h1c0.9,0,1.4,0.6,1.4,1.4c0,0.8-0.6,1.4-1.4,1.4H216.2z M216.6,131.4h0.6c0.6,0,1-0.5,1-1
				c0-0.6-0.4-1-1-1h-0.6V131.4z"/>
			<path d="M219.2,131.1c0.2,0.2,0.5,0.4,0.9,0.4c0.4,0,0.6-0.2,0.6-0.4c0-0.3-0.3-0.4-0.7-0.5c-0.4-0.1-1-0.2-1-0.8
				c0-0.5,0.4-0.8,1-0.8c0.4,0,0.8,0.1,1,0.4l-0.2,0.3c-0.2-0.2-0.5-0.3-0.8-0.3c-0.3,0-0.5,0.2-0.5,0.4c0,0.2,0.3,0.3,0.6,0.4
				c0.5,0.1,1,0.3,1,0.9c0,0.4-0.3,0.8-1,0.8c-0.5,0-0.9-0.2-1.1-0.4L219.2,131.1z"/>
			<path d="M221.5,130.4c0-0.9,0.6-1.4,1.4-1.4c0.5,0,0.9,0.3,1.1,0.6l-0.4,0.2c-0.1-0.2-0.4-0.4-0.7-0.4c-0.6,0-1,0.4-1,1.1
				c0,0.6,0.4,1.1,1,1.1c0.3,0,0.6-0.2,0.7-0.4l0.4,0.2c-0.2,0.3-0.6,0.6-1.1,0.6C222.1,131.8,221.5,131.3,221.5,130.4z"/>
		</g>
		<g class="st21">
			<path d="M224.2,132.6v-0.3h0.5v-3.1h-0.5V129h0.8v3.6H224.2z"/>
		</g>
	</g>
	<g class="st21">
		<path d="M85.2,122.9v-2.4h-0.9v-0.4h2.1v0.4h-0.9v2.4H85.2z"/>
		<path d="M86.9,122.9v-2.8h1.9v0.4h-1.4v0.8h1.4v0.4h-1.4v0.9h1.4v0.4H86.9z"/>
		<path d="M89.2,121.5c0-0.9,0.6-1.4,1.4-1.4c0.5,0,0.9,0.3,1.1,0.6l-0.4,0.2c-0.1-0.2-0.4-0.4-0.7-0.4c-0.6,0-1,0.4-1,1.1
			c0,0.6,0.4,1.1,1,1.1c0.3,0,0.6-0.2,0.7-0.4l0.4,0.2c-0.2,0.3-0.6,0.6-1.1,0.6C89.8,122.9,89.2,122.3,89.2,121.5z"/>
		<path d="M94.1,122.9v-1.2h-1.5v1.2h-0.4v-2.8h0.4v1.2h1.5v-1.2h0.4v2.8H94.1z"/>
		<path d="M97,122.9l-1.5-2.1v2.1h-0.4v-2.8h0.4l1.5,2.1v-2.1h0.4v2.8H97z"/>
		<path d="M98.1,122.9v-2.8h0.4v2.8H98.1z"/>
		<path d="M99,121.5c0-0.9,0.6-1.4,1.4-1.4c0.5,0,0.9,0.3,1.1,0.6l-0.4,0.2c-0.1-0.2-0.4-0.4-0.7-0.4c-0.6,0-1,0.4-1,1.1
			c0,0.6,0.4,1.1,1,1.1c0.3,0,0.6-0.2,0.7-0.4l0.4,0.2c-0.2,0.3-0.6,0.6-1.1,0.6C99.6,122.9,99,122.3,99,121.5z"/>
		<path d="M103.9,122.9l-0.2-0.6h-1.4l-0.2,0.6h-0.5l1.1-2.8h0.5l1.1,2.8H103.9z M103,120.5l-0.6,1.5h1.1L103,120.5z"/>
		<path d="M104.7,122.9v-2.8h0.4v2.4h1.3v0.4H104.7z"/>
	</g>
	<g class="st21">
		<path d="M86.5,127.2c0.2,0.2,0.5,0.4,0.9,0.4c0.4,0,0.6-0.2,0.6-0.4c0-0.3-0.3-0.4-0.7-0.5c-0.4-0.1-1-0.2-1-0.8
			c0-0.5,0.4-0.8,1-0.8c0.4,0,0.8,0.1,1,0.4l-0.2,0.3c-0.2-0.2-0.5-0.3-0.8-0.3c-0.3,0-0.5,0.2-0.5,0.4c0,0.2,0.3,0.3,0.6,0.4
			c0.5,0.1,1,0.3,1,0.9c0,0.4-0.3,0.8-1,0.8c-0.5,0-0.9-0.2-1.1-0.4L86.5,127.2z"/>
		<path d="M88.9,127.9v-2.8h1.9v0.4h-1.4v0.8h1.4v0.4h-1.4v0.9h1.4v0.4H88.9z"/>
		<path d="M92.9,127.9l-0.7-1.1h-0.5v1.1h-0.4v-2.8h1.2c0.5,0,0.9,0.3,0.9,0.9c0,0.5-0.3,0.8-0.7,0.8l0.7,1.1H92.9z M92.4,125.5
			h-0.7v1h0.7c0.3,0,0.5-0.2,0.5-0.5C92.9,125.7,92.7,125.5,92.4,125.5z"/>
		<path d="M94.6,127.9l-1.1-2.8H94l0.9,2.3l0.9-2.3h0.5l-1.1,2.8H94.6z"/>
		<path d="M96.6,127.9v-2.8H97v2.8H96.6z"/>
		<path d="M97.5,126.5c0-0.9,0.6-1.4,1.4-1.4c0.5,0,0.9,0.3,1.1,0.6l-0.4,0.2c-0.1-0.2-0.4-0.4-0.7-0.4c-0.6,0-1,0.4-1,1.1
			c0,0.6,0.4,1.1,1,1.1c0.3,0,0.6-0.2,0.7-0.4l0.4,0.2c-0.2,0.3-0.6,0.6-1.1,0.6C98.1,127.9,97.5,127.3,97.5,126.5z"/>
		<path d="M100.4,127.9v-2.8h1.9v0.4h-1.4v0.8h1.4v0.4h-1.4v0.9h1.4v0.4H100.4z"/>
	</g>
	<g class="st21">
		<path d="M102.8,127.2c0.2,0.2,0.5,0.4,0.9,0.4c0.4,0,0.6-0.2,0.6-0.4c0-0.3-0.3-0.4-0.7-0.5c-0.4-0.1-1-0.2-1-0.8
			c0-0.5,0.4-0.8,1-0.8c0.4,0,0.8,0.1,1,0.4l-0.2,0.3c-0.2-0.2-0.5-0.3-0.8-0.3c-0.3,0-0.5,0.2-0.5,0.4c0,0.2,0.3,0.3,0.6,0.4
			c0.5,0.1,1,0.3,1,0.9c0,0.4-0.3,0.8-1,0.8c-0.5,0-0.9-0.2-1.1-0.4L102.8,127.2z"/>
	</g>
	<rect x="228" y="13.8" class="st7" width="56.6" height="33.5"/>
	<rect x="267.9" y="111" class="st22" width="16.6" height="27.1"/>
	<line class="st22" x1="268.5" y1="125" x2="284.4" y2="125"/>
	<rect x="15" y="12.9" class="st23" width="270.7" height="136.7"/>
	<rect x="266.1" y="129.4" class="st9" width="3.8" height="4.7"/>
	<rect x="265.9" y="115.6" class="st9" width="3.8" height="4.7"/>
	<rect x="239.1" y="45.2" class="st9" width="7.8" height="4.7"/>
	<g class="st21">
		<path d="M245.6,23.4l-1-1.2l-0.3,0.3v0.9h-0.4v-2.8h0.4V22l1.2-1.4h0.5l-1.1,1.3l1.2,1.5H245.6z"/>
		<path d="M248.5,23.4l-0.2-0.6h-1.4l-0.2,0.6h-0.5l1.1-2.8h0.5l1.1,2.8H248.5z M247.5,21l-0.6,1.5h1.1L247.5,21z"/>
		<path d="M251.6,23.4v-2.2l-0.9,2.2h-0.2l-0.9-2.2v2.2h-0.4v-2.8h0.6l0.8,2l0.8-2h0.6v2.8H251.6z"/>
		<path d="M252.7,23.4v-2.8h0.4v2.8H252.7z"/>
		<path d="M255.7,23.4l-0.2-0.6h-1.4l-0.2,0.6h-0.5l1.1-2.8h0.5l1.1,2.8H255.7z M254.8,21l-0.6,1.5h1.1L254.8,21z"/>
		<path d="M258.1,23.4l-1-1.2l-0.3,0.3v0.9h-0.4v-2.8h0.4V22l1.2-1.4h0.5l-1.1,1.3l1.2,1.5H258.1z"/>
	</g>
	<g class="st21">
		<path d="M247.3,28.4l-0.7-1.1h-0.5v1.1h-0.4v-2.8h1.2c0.5,0,0.9,0.3,0.9,0.9c0,0.5-0.3,0.8-0.7,0.8l0.7,1.1H247.3z M246.9,26h-0.7
			v1h0.7c0.3,0,0.5-0.2,0.5-0.5C247.4,26.2,247.2,26,246.9,26z"/>
		<path d="M249.6,25.6c0.8,0,1.4,0.6,1.4,1.4c0,0.8-0.6,1.4-1.4,1.4c-0.8,0-1.4-0.6-1.4-1.4C248.2,26.2,248.8,25.6,249.6,25.6z
			 M249.6,26c-0.6,0-1,0.5-1,1.1c0,0.6,0.4,1.1,1,1.1c0.6,0,1-0.5,1-1.1C250.5,26.4,250.2,26,249.6,26z"/>
		<path d="M252.8,25.6c0.8,0,1.4,0.6,1.4,1.4c0,0.8-0.6,1.4-1.4,1.4c-0.8,0-1.4-0.6-1.4-1.4C251.4,26.2,251.9,25.6,252.8,25.6z
			 M252.8,26c-0.6,0-1,0.5-1,1.1c0,0.6,0.4,1.1,1,1.1c0.6,0,1-0.5,1-1.1C253.7,26.4,253.3,26,252.8,26z"/>
	</g>
	<g class="st21">
		<path d="M257.2,28.4v-2.2l-0.9,2.2h-0.2l-0.9-2.2v2.2h-0.4v-2.8h0.6l0.8,2l0.8-2h0.6v2.8H257.2z"/>
	</g>
	<rect x="66.7" y="116.8" class="st24" width="7.5" height="7.8"/>
	<rect x="41.8" y="117" class="st0" width="8.2" height="7.5"/>
	<rect x="42.4" y="116.8" class="st24" width="7.5" height="7.8"/>
	<line class="st7" x1="106.1" y1="47.3" x2="228.2" y2="47.3"/>
	<line class="st7" x1="238.4" y1="37.3" x2="238.4" y2="47.4"/>
	<line class="st7" x1="246.9" y1="37.3" x2="246.9" y2="47.4"/>
	<line class="st7" x1="238.5" y1="36.9" x2="228.4" y2="36.9"/>
	<line class="st7" x1="283.6" y1="36.9" x2="246.9" y2="36.9"/>
</g>
</svg>
