<?xml version="1.0" encoding="utf-8"?>
<!-- Generator: Adobe Illustrator 28.3.0, SVG Export Plug-In . SVG Version: 6.00 Build 0)  -->
<svg version="1.1" id="Layer_1" xmlns="http://www.w3.org/2000/svg" xmlns:xlink="http://www.w3.org/1999/xlink" x="0px" y="0px"
	 viewBox="0 0 425.4 262" style="enable-background:new 0 0 425.4 262;" xml:space="preserve">
<style type="text/css">
	.st0{fill:#D1D3D4;}
	.st1{fill:#231F20;}
	.st2{fill:#FFFFFF;}
	.st3{fill:none;stroke:#FFFFFF;stroke-width:0.79;stroke-linecap:round;stroke-linejoin:round;}
	.st4{fill:#58595B;stroke:#58595B;stroke-width:2;stroke-linecap:round;stroke-linejoin:round;}
	.st5{fill:none;stroke:#FFFFFF;stroke-width:0.65;stroke-linecap:round;stroke-linejoin:round;}
	.st6{fill:none;stroke:#FFFFFF;stroke-width:0.46;stroke-linecap:round;stroke-linejoin:round;}
	.st7{fill:#58595B;stroke:#FFFFFF;stroke-linecap:round;stroke-linejoin:round;}
	
		.st8{opacity:0.5;fill:#231F20;stroke:#231F20;stroke-width:2.38;stroke-linecap:round;stroke-linejoin:round;enable-background:new    ;}
	.st9{fill:#FFFFFF;stroke:#FFFFFF;stroke-width:0.73;stroke-linecap:round;stroke-linejoin:round;}
	.st10{fill:#FFFFFF;stroke:#FFFFFF;stroke-linecap:round;stroke-linejoin:round;}
	.st11{fill:none;stroke:#FFFFFF;stroke-linecap:round;stroke-linejoin:round;}
	.st12{fill:#FFFFFF;stroke:#FFFFFF;stroke-width:0.83;stroke-linecap:round;stroke-linejoin:round;}
	
		.st13{opacity:0.5;fill:#231F20;stroke:#231F20;stroke-width:1.03;stroke-linecap:round;stroke-linejoin:round;enable-background:new    ;}
	
		.st14{opacity:0.5;fill:#231F20;stroke:#231F20;stroke-width:0.95;stroke-linecap:round;stroke-linejoin:round;enable-background:new    ;}
	.st15{enable-background:new    ;}
	.st16{fill:#595A5C;}
	.st17{fill:none;stroke:#595A5C;stroke-width:1.88;stroke-linecap:round;stroke-linejoin:round;}
	.st18{fill:none;stroke:#FFFFFF;stroke-width:0.63;stroke-linecap:round;stroke-linejoin:round;}
	.st19{fill:none;stroke:#FFFFFF;stroke-width:1.31;stroke-linecap:round;stroke-linejoin:round;}
	.st20{fill:none;stroke:#FFFFFF;stroke-width:0.49;stroke-linecap:round;stroke-linejoin:round;}
	.st21{fill:none;stroke:#231F20;stroke-width:0.5;stroke-miterlimit:10;}
</style>
<rect x="81.4" y="145.7" class="st0" width="4.8" height="56"/>
<rect x="130.3" y="145.5" class="st0" width="4.8" height="56"/>
<rect x="331" y="145.3" class="st0" width="4.8" height="73.7"/>
<rect x="328.7" y="55.8" class="st0" width="4.8" height="59.3"/>
<rect x="379.2" y="55" class="st0" width="4.8" height="59.3"/>
<rect x="279" y="40.9" class="st0" width="4.8" height="73.7"/>
<rect x="229.5" y="40.6" class="st0" width="4.8" height="73.7"/>
<rect x="179.7" y="44.9" class="st0" width="4.8" height="68.8"/>
<rect x="81.4" y="83.7" class="st0" width="4.8" height="30.9"/>
<rect x="130.2" y="40.9" class="st0" width="4.8" height="73.7"/>
<rect x="108.6" y="13" class="st1" width="70.2" height="2.3"/>
<rect x="185.7" y="13" class="st1" width="70.2" height="2.3"/>
<rect x="130.2" y="40.5" class="st1" width="4.9" height="5"/>
<rect x="179.8" y="40.5" class="st1" width="4.9" height="5"/>
<rect x="229.6" y="40.8" class="st1" width="4.9" height="5"/>
<rect x="278.8" y="40.8" class="st1" width="5" height="5"/>
<rect x="130.1" y="84.2" class="st1" width="4.9" height="4.9"/>
<rect x="179.6" y="84.2" class="st1" width="4.9" height="4.9"/>
<rect x="229.4" y="84.5" class="st1" width="4.9" height="4.9"/>
<rect x="130.1" y="127.4" class="st1" width="4.9" height="4.9"/>
<rect x="179.9" y="127.7" class="st1" width="4.9" height="4.9"/>
<rect x="81.3" y="170.6" class="st1" width="4.9" height="4.9"/>
<rect x="130.1" y="170.9" class="st1" width="4.9" height="4.9"/>
<rect x="176.5" y="13" class="st1" width="2.3" height="21.2"/>
<rect x="185.7" y="13" class="st1" width="2.3" height="21.2"/>
<rect x="176.5" y="31.9" class="st1" width="11.2" height="2.3"/>
<rect x="100.8" y="13" class="st1" width="2.2" height="2.3"/>
<rect x="93.6" y="13" class="st1" width="2.2" height="2.3"/>
<rect x="86.6" y="13" class="st1" width="2.2" height="2.3"/>
<rect x="79.5" y="13" class="st1" width="2.3" height="28"/>
<rect x="14.6" y="65.4" class="st1" width="71.2" height="2.3"/>
<rect x="79.5" y="40.5" class="st1" width="6.3" height="7.4"/>
<rect x="81.3" y="84.2" class="st1" width="4.9" height="4.9"/>
<rect x="14" y="123.3" class="st1" width="43.5" height="2.3"/>
<rect x="81.3" y="127.7" class="st1" width="4.9" height="4.9"/>
<rect x="55.2" y="124.2" class="st1" width="2.3" height="11.2"/>
<rect x="51" y="218.9" class="st1" width="30.1" height="2.3"/>
<rect x="80.7" y="214.8" class="st1" width="7.4" height="6.3"/>
<rect x="51" y="133.2" class="st1" width="4.2" height="2.3"/>
<rect x="51" y="140.3" class="st1" width="2.5" height="2.3"/>
<rect x="51" y="147.1" class="st1" width="2.5" height="2.3"/>
<rect x="51" y="154.1" class="st1" width="2.5" height="2.3"/>
<rect x="51" y="160.8" class="st1" width="2.5" height="2.3"/>
<rect x="51" y="167.8" class="st1" width="2.5" height="2.3"/>
<rect x="51" y="174.6" class="st1" width="2.5" height="2.3"/>
<rect x="51" y="181.3" class="st1" width="2.5" height="2.3"/>
<rect x="51" y="188.1" class="st1" width="2.5" height="2.3"/>
<rect x="51" y="196.7" class="st1" width="2.5" height="2.3"/>
<rect x="51" y="203.5" class="st1" width="2.5" height="2.3"/>
<rect x="51" y="210.2" class="st1" width="2.5" height="2.3"/>
<rect x="135.9" y="244.8" class="st1" width="135.2" height="2.3"/>
<rect x="100.6" y="214.8" class="st1" width="19.2" height="2.3"/>
<rect x="125.7" y="214.8" class="st1" width="12.5" height="13"/>
<rect x="100.4" y="214.8" class="st1" width="2.3" height="32.2"/>
<rect x="135.9" y="215.9" class="st1" width="2.3" height="31.2"/>
<rect x="125.7" y="216" class="st1" width="2.3" height="31.2"/>
<rect x="100.6" y="244.8" class="st1" width="26.2" height="2.3"/>
<rect x="408.9" y="44.2" class="st1" width="3.2" height="2.3"/>
<rect x="408.9" y="51" class="st1" width="3.2" height="2.3"/>
<rect x="408.9" y="58" class="st1" width="3.2" height="2.3"/>
<rect x="408.9" y="64.7" class="st1" width="3.2" height="2.3"/>
<rect x="408.9" y="71.7" class="st1" width="3.2" height="2.3"/>
<rect x="408.9" y="78.5" class="st1" width="3.2" height="2.3"/>
<rect x="408.9" y="85.2" class="st1" width="3.2" height="2.3"/>
<rect x="408.9" y="92" class="st1" width="3.2" height="2.3"/>
<rect x="408.9" y="99.7" class="st1" width="3.2" height="2.3"/>
<rect x="408.9" y="107.4" class="st1" width="3.2" height="2.3"/>
<rect x="408.9" y="114" class="st1" width="3.2" height="2.3"/>
<rect x="261.7" y="13" class="st1" width="2.3" height="2.3"/>
<rect x="268.5" y="13" class="st1" width="2.3" height="2.3"/>
<rect x="275.5" y="13" class="st1" width="2.3" height="2.3"/>
<rect x="282.2" y="13" class="st1" width="2.3" height="2.3"/>
<rect x="289.2" y="13" class="st1" width="2.3" height="2.3"/>
<rect x="296" y="13" class="st1" width="2.3" height="2.3"/>
<rect x="302.7" y="13" class="st1" width="2.3" height="2.3"/>
<rect x="309.5" y="13" class="st1" width="2.3" height="2.3"/>
<rect x="318.1" y="13" class="st1" width="2.3" height="2.3"/>
<rect x="324.9" y="13" class="st1" width="2.3" height="21.2"/>
<rect x="335" y="13" class="st1" width="2.3" height="21.2"/>
<rect x="336.1" y="13" class="st1" width="26.2" height="2.3"/>
<rect x="360.1" y="13.9" class="st1" width="2.3" height="31.2"/>
<rect x="324.9" y="30.4" class="st1" width="12.4" height="14.7"/>
<rect x="344.6" y="43.1" class="st1" width="40.2" height="2.3"/>
<rect x="376.3" y="36.6" class="st1" width="36.2" height="2.3"/>
<rect x="376.3" y="37.8" class="st1" width="8.5" height="5.3"/>
<rect x="379.1" y="83.9" class="st1" width="5" height="4.9"/>
<rect x="278.6" y="83.7" class="st1" width="5" height="4.9"/>
<rect x="328.5" y="84" class="st1" width="5" height="4.9"/>
<rect x="229.3" y="127.4" class="st1" width="4.9" height="4.9"/>
<rect x="279.1" y="127.7" class="st1" width="5" height="4.9"/>
<rect x="329.7" y="127.2" class="st1" width="5" height="4.9"/>
<rect x="379.5" y="127.5" class="st1" width="5" height="4.1"/>
<rect x="330.7" y="170.4" class="st1" width="5" height="4.9"/>
<rect x="380.5" y="170.7" class="st1" width="5" height="4.9"/>
<rect x="330.7" y="213.6" class="st1" width="5" height="4.9"/>
<rect x="381.5" y="210" class="st1" width="8" height="7.9"/>
<rect x="336.6" y="244.7" class="st1" width="52.8" height="2.3"/>
<rect x="387.1" y="210" class="st1" width="2.3" height="36.2"/>
<rect x="318.8" y="244.2" class="st1" width="2.3" height="3.2"/>
<rect x="312.1" y="244.2" class="st1" width="2.3" height="3.2"/>
<rect x="305.3" y="244.2" class="st1" width="2.3" height="3.2"/>
<rect x="298.6" y="244.2" class="st1" width="2.3" height="3.2"/>
<rect x="290" y="244.2" class="st1" width="2.3" height="3.2"/>
<rect x="283.2" y="244.2" class="st1" width="2.3" height="3.2"/>
<rect x="276.5" y="244.2" class="st1" width="2.3" height="3.2"/>
<rect x="326.2" y="225" class="st1" width="2.3" height="22.4"/>
<rect x="336.6" y="225.5" class="st1" width="2.3" height="21.4"/>
<rect x="326.6" y="225" class="st1" width="12.4" height="2.3"/>
<rect x="391.1" y="133.2" class="st1" width="21.4" height="2.3"/>
<rect x="391.7" y="122.8" class="st1" width="21.1" height="2.3"/>
<rect x="391.1" y="122.7" class="st1" width="2.3" height="12.4"/>
<rect x="409.5" y="139.6" class="st1" width="3.2" height="2.3"/>
<rect x="409.5" y="146.3" class="st1" width="3.2" height="2.3"/>
<rect x="409.5" y="153.3" class="st1" width="3.2" height="2.3"/>
<rect x="409.5" y="160.1" class="st1" width="3.2" height="2.3"/>
<rect x="409.5" y="167.1" class="st1" width="3.2" height="2.3"/>
<rect x="409.5" y="173.8" class="st1" width="3.2" height="2.3"/>
<rect x="409.5" y="180.6" class="st1" width="3.2" height="2.3"/>
<rect x="380.5" y="189.8" class="st1" width="32.1" height="2.3"/>
<rect x="301.8" y="81.7" class="st2" width="4.7" height="4.7"/>
<rect x="181.8" y="141.4" class="st1" width="100.4" height="1.1"/>
<rect x="231.9" y="164.9" class="st1" width="50.4" height="1.1"/>
<rect x="281.3" y="141.6" class="st1" width="1.1" height="24.4"/>
<rect x="182.3" y="215.5" class="st1" width="100.4" height="1.1"/>
<rect x="181.8" y="141.3" class="st1" width="1.1" height="75.4"/>
<rect x="183.6" y="139.7" class="st2" width="9.9" height="3.5"/>
<rect x="220.7" y="140.1" class="st2" width="9.9" height="3.5"/>
<rect x="208.2" y="140.1" class="st2" width="9.9" height="3.5"/>
<rect x="195.9" y="139.7" class="st2" width="9.9" height="3.5"/>
<rect x="231.8" y="141.2" class="st1" width="1.1" height="24.4"/>
<rect x="231.8" y="179.8" class="st1" width="1.1" height="36.4"/>
<polyline class="st1" points="233,199.2 182.6,199.2 182.6,198.1 233,198.1 "/>
<polyline class="st1" points="214.7,198.4 214.7,215.9 213.5,215.9 213.5,198.4 "/>
<polyline class="st1" points="196.9,199 196.9,216.4 195.7,216.4 195.7,199 "/>
<rect x="192.4" y="152.7" class="st1" width="1.1" height="31"/>
<rect x="180.4" y="181.5" class="st2" width="4.2" height="12.1"/>
<rect x="220.1" y="152.7" class="st1" width="1.1" height="30.4"/>
<rect x="192.5" y="182.6" class="st1" width="28.8" height="1.1"/>
<polyline class="st1" points="276.4,208.8 232.9,208.8 232.9,207.7 276.4,207.7 "/>
<polyline class="st1" points="275,216.3 275,179.9 276.2,179.9 276.2,216.3 "/>
<polyline class="st1" points="283.4,180.5 231.9,180.5 231.9,179.3 283.4,179.3 "/>
<polyline class="st1" points="281.9,216.7 281.9,180.2 283.1,180.2 283.1,216.7 "/>
<rect x="230.5" y="116.4" class="st2" width="6.3" height="6.3"/>
<rect x="297.1" y="86.3" class="st2" width="4.7" height="4.7"/>
<rect x="296.7" y="101.1" class="st2" width="4.7" height="4.7"/>
<rect x="297.1" y="118.7" class="st2" width="4.7" height="4.7"/>
<rect x="307.1" y="91.9" class="st2" width="4.7" height="4.7"/>
<rect x="306.5" y="108.5" class="st2" width="4.7" height="4.7"/>
<rect x="306.5" y="124.9" class="st2" width="4.7" height="4.7"/>
<rect x="382" y="191.9" class="st1" width="0.5" height="18.8"/>
<rect x="181.7" y="224.4" class="st1" width="96.4" height="1.1"/>
<polyline class="st1" points="251.9,247.1 251.9,215.7 253.1,215.7 253.1,247.1 "/>
<polyline class="st1" points="211.1,246.3 211.1,215.9 212.3,215.9 212.3,246.3 "/>
<rect x="209.3" y="218.2" class="st2" width="4.7" height="4.7"/>
<rect x="250.1" y="218.2" class="st2" width="4.7" height="4.7"/>
<rect x="267.5" y="214.4" class="st2" width="4.7" height="4.7"/>
<rect x="269.1" y="222.9" class="st2" width="6.4" height="4.7"/>
<rect x="183.6" y="223.2" class="st2" width="6.4" height="4.7"/>
<rect x="83" y="46.8" class="st1" width="0.5" height="18.8"/>
<polyline class="st1" points="182.7,225.3 182.7,245.7 181.6,245.7 181.6,225.3 "/>
<polyline class="st1" points="278.5,224.7 278.5,245.1 277.3,245.1 277.3,224.7 "/>
<polyline class="st3" points="211.3,161.8 209.5,161.8 209.5,163.7 207.6,163.7 207.6,165.5 205.6,165.5 205.6,167.4 203.7,167.4 
	203.7,169.3 201.8,169.3 "/>
<rect x="217.3" y="201.4" class="st4" width="11.9" height="11.9"/>
<rect x="219.2" y="205.7" class="st3" width="8.1" height="5.9"/>
<path class="st2" d="M221.7,207.3c0,0.2-0.2,0.4-0.4,0.4s-0.4-0.2-0.4-0.4s0.2-0.4,0.4-0.4S221.7,207.1,221.7,207.3z"/>
<path class="st2" d="M223.7,207.4c0,0.2-0.2,0.4-0.4,0.4s-0.4-0.2-0.4-0.4s0.2-0.4,0.4-0.4S223.7,207.1,223.7,207.4z"/>
<path class="st2" d="M225.6,207.4c0,0.2-0.2,0.4-0.4,0.4s-0.4-0.2-0.4-0.4s0.2-0.4,0.4-0.4S225.6,207.1,225.6,207.4z"/>
<polyline class="st5" points="219.6,202.9 221.1,204.2 222.7,202.9 "/>
<polyline class="st5" points="227.2,204.1 225.6,202.9 224,204.1 "/>
<rect x="221.1" y="208.4" class="st6" width="0.3" height="1.8"/>
<rect x="223.1" y="208.4" class="st6" width="0.3" height="1.8"/>
<rect x="225" y="208.4" class="st6" width="0.3" height="1.8"/>
<g>
	<rect x="107.9" y="225.1" class="st4" width="11.8" height="11.8"/>
	<polyline class="st7" points="118.4,226.7 116.5,226.7 116.5,228.6 114.7,228.6 114.7,230.4 112.6,230.4 112.6,232.3 110.8,232.3 
		110.8,234.2 108.9,234.2 	"/>
</g>
<rect x="199.3" y="201.4" class="st4" width="11.9" height="11.9"/>
<rect x="201.2" y="205.7" class="st3" width="8.1" height="5.9"/>
<path class="st2" d="M203.6,207.3c0,0.2-0.2,0.4-0.4,0.4s-0.4-0.2-0.4-0.4s0.2-0.4,0.4-0.4S203.6,207.1,203.6,207.3z"/>
<path class="st2" d="M205.6,207.4c0,0.2-0.2,0.4-0.4,0.4s-0.4-0.2-0.4-0.4s0.2-0.4,0.4-0.4S205.6,207.1,205.6,207.4z"/>
<path class="st2" d="M207.5,207.4c0,0.2-0.2,0.4-0.4,0.4s-0.4-0.2-0.4-0.4s0.2-0.4,0.4-0.4S207.5,207.1,207.5,207.4z"/>
<polyline class="st5" points="201.5,202.9 203.1,204.2 204.7,202.9 "/>
<polyline class="st5" points="209.1,204.1 207.5,202.9 205.9,204.1 "/>
<rect x="203" y="208.4" class="st6" width="0.3" height="1.8"/>
<rect x="205" y="208.4" class="st6" width="0.3" height="1.8"/>
<rect x="206.9" y="208.4" class="st6" width="0.3" height="1.8"/>
<rect x="232.9" y="142.5" class="st8" width="49" height="22.4"/>
<g>
	<rect x="237.2" y="188.3" class="st4" width="12" height="12"/>
	<path class="st2" d="M244.1,190.8c0,0.6-0.5,1.1-1.1,1.1s-1.1-0.5-1.1-1.1s0.5-1.1,1.1-1.1S244.1,190.2,244.1,190.8z"/>
	<rect x="242.7" y="192.4" class="st9" width="0.9" height="6.8"/>
	<polyline class="st10" points="242.8,192.6 241.7,196.6 244.8,196.5 243.7,192.6 	"/>
	<line class="st11" x1="240.7" y1="194.7" x2="242.6" y2="192.7"/>
	<line class="st11" x1="243.8" y1="192.7" x2="245.6" y2="194.6"/>
</g>
<g>
	<rect x="200.8" y="160.2" class="st4" width="11.8" height="11.8"/>
	<polyline class="st7" points="211.3,161.8 209.5,161.8 209.5,163.7 207.6,163.7 207.6,165.5 205.6,165.5 205.6,167.4 203.7,167.4 
		203.7,169.3 201.8,169.3 	"/>
</g>
<g>
	<rect x="343.4" y="23.6" class="st4" width="11.8" height="11.8"/>
	<polyline class="st7" points="353.9,25.2 352,25.2 352,27.1 350.2,27.1 350.2,29 348.1,29 348.1,30.8 346.2,30.8 346.2,32.7 
		344.4,32.7 	"/>
</g>
<rect x="14.6" y="73.6" class="st1" width="2.5" height="2.3"/>
<rect x="14.6" y="80.4" class="st1" width="2.5" height="2.3"/>
<rect x="14.6" y="87.4" class="st1" width="2.5" height="2.3"/>
<rect x="14.6" y="94.1" class="st1" width="2.5" height="2.3"/>
<rect x="14.6" y="101.1" class="st1" width="2.5" height="2.3"/>
<rect x="14.6" y="107.9" class="st1" width="2.5" height="2.3"/>
<rect x="14.6" y="114.6" class="st1" width="2.5" height="2.3"/>
<rect x="81.3" y="219.8" class="st1" width="18.8" height="0.5"/>
<rect x="216" y="222.9" class="st2" width="6.4" height="4.7"/>
<rect x="258.5" y="187.7" class="st4" width="12" height="12"/>
<path class="st2" d="M265.4,190.3c0,0.6-0.5,1.1-1.1,1.1s-1.1-0.5-1.1-1.1s0.5-1.1,1.1-1.1S265.4,189.7,265.4,190.3z"/>
<rect x="263.9" y="192.1" class="st12" width="1.2" height="6.3"/>
<line class="st11" x1="262" y1="194.2" x2="263.9" y2="192.1"/>
<line class="st11" x1="265.1" y1="192.1" x2="266.9" y2="194"/>
<polyline class="st1" points="253.3,207.9 253.3,180.4 254.4,180.4 254.4,207.9 "/>
<rect x="246" y="177" class="st2" width="6.4" height="4.7"/>
<rect x="255.3" y="177.5" class="st2" width="6.4" height="4.7"/>
<rect x="118.6" y="23.9" class="st0" width="4.8" height="90.7"/>
<rect x="106.2" y="40.9" class="st0" width="4.8" height="73.7"/>
<rect x="93.8" y="40.7" class="st0" width="4.8" height="73.9"/>
<rect x="142.9" y="23.9" class="st0" width="4.8" height="90.7"/>
<rect x="154.4" y="23.9" class="st0" width="4.8" height="90.7"/>
<rect x="167" y="40.6" class="st0" width="4.8" height="73.7"/>
<rect x="192.7" y="23.9" class="st0" width="4.8" height="90.7"/>
<rect x="204.5" y="23.6" class="st0" width="4.8" height="90.7"/>
<rect x="217.5" y="23.9" class="st0" width="4.8" height="90.7"/>
<rect x="242.7" y="25.2" class="st0" width="4.8" height="89.1"/>
<rect x="255.1" y="40.9" class="st0" width="4.8" height="73.7"/>
<rect x="266.9" y="40.9" class="st0" width="4.8" height="73.7"/>
<rect x="290.6" y="40.8" class="st0" width="4.8" height="73.7"/>
<rect x="303" y="41" class="st0" width="4.8" height="73.7"/>
<rect x="366.8" y="55" class="st0" width="4.8" height="59.3"/>
<rect x="354.7" y="55" class="st0" width="4.8" height="59.3"/>
<rect x="342.3" y="55" class="st0" width="4.8" height="59.3"/>
<rect x="315.7" y="55.8" class="st0" width="4.8" height="59.3"/>
<rect x="367.8" y="145.3" class="st0" width="4.8" height="84.2"/>
<rect x="355.8" y="145.3" class="st0" width="4.8" height="84.2"/>
<rect x="343.4" y="145.3" class="st0" width="4.8" height="73.7"/>
<rect x="318.1" y="145.6" class="st0" width="4.8" height="73.7"/>
<rect x="305.7" y="145" class="st0" width="4.8" height="74.1"/>
<rect x="165.4" y="145.5" class="st0" width="4.8" height="56.2"/>
<rect x="154.3" y="145.5" class="st0" width="4.8" height="56.2"/>
<rect x="93" y="145.5" class="st0" width="4.8" height="56"/>
<rect x="104.1" y="145.7" class="st0" width="4.8" height="56"/>
<rect x="116" y="146" class="st0" width="4.8" height="56"/>
<rect x="142.8" y="146" class="st0" width="4.8" height="56"/>
<rect x="177" y="145.3" class="st0" width="4.8" height="34.2"/>
<rect x="294" y="145.2" class="st0" width="4.8" height="74.1"/>
<rect x="183.2" y="199.9" class="st13" width="12.5" height="16.5"/>
<rect x="275.9" y="181" class="st14" width="5.2" height="33.9"/>
<g class="st15">
	<path class="st1" d="M259.5,218.7c0.5,0,0.9,0.2,1.1,0.5l-0.3,0.4c-0.2-0.2-0.4-0.4-0.9-0.4c-0.8,0-1.1,0.8-1.1,1.6
		c0,0.1,0,0.1,0,0.2c0.2-0.3,0.6-0.6,1.1-0.6c0.7,0,1.3,0.4,1.3,1.3c0,0.7-0.5,1.3-1.4,1.3c-1.1,0-1.5-1-1.5-2.1
		C257.9,219.7,258.4,218.7,259.5,218.7z M259.4,220.7c-0.4,0-0.8,0.2-1,0.6c0,0.5,0.3,1.1,1,1.1c0.6,0,0.9-0.5,0.9-0.8
		C260.3,221,259.9,220.7,259.4,220.7z"/>
	<path class="st1" d="M261.6,221.9c0.2,0.3,0.6,0.5,1.1,0.5c0.6,0,0.9-0.3,0.9-0.7c0-0.5-0.4-0.7-1-0.7c-0.2,0-0.4,0-0.4,0v-0.5
		c0.1,0,0.3,0,0.4,0c0.5,0,0.9-0.2,0.9-0.7c0-0.4-0.4-0.7-0.9-0.7c-0.4,0-0.8,0.2-1.1,0.5l-0.3-0.3c0.3-0.3,0.7-0.6,1.4-0.6
		c0.8,0,1.4,0.4,1.4,1.1c0,0.6-0.5,0.9-0.9,0.9c0.4,0,0.9,0.3,0.9,1s-0.5,1.2-1.4,1.2c-0.7,0-1.2-0.3-1.4-0.7L261.6,221.9z"/>
	<path class="st1" d="M265.2,221.9c0.3,0.3,0.6,0.5,1.1,0.5s0.9-0.4,0.9-0.9s-0.4-0.9-0.9-0.9c-0.4,0-0.7,0.1-0.9,0.4l-0.4-0.1v-2.2
		h2.4v0.4h-1.9v1.4c0.2-0.2,0.5-0.4,0.9-0.4c0.7,0,1.3,0.5,1.3,1.3s-0.6,1.3-1.4,1.3c-0.7,0-1.1-0.2-1.4-0.6L265.2,221.9z"/>
</g>
<g class="st15">
	<path class="st1" d="M233.1,218.7c0.5,0,0.9,0.2,1.1,0.5l-0.3,0.4c-0.2-0.2-0.4-0.4-0.9-0.4c-0.8,0-1.1,0.8-1.1,1.6
		c0,0.1,0,0.1,0,0.2c0.2-0.3,0.6-0.6,1.1-0.6c0.7,0,1.3,0.4,1.3,1.3c0,0.7-0.5,1.3-1.4,1.3c-1.1,0-1.5-1-1.5-2.1
		C231.5,219.7,232,218.7,233.1,218.7z M233,220.7c-0.4,0-0.8,0.2-1,0.6c0,0.5,0.3,1.1,1,1.1c0.6,0,0.9-0.5,0.9-0.8
		C234,221,233.5,220.7,233,220.7z"/>
	<path class="st1" d="M235.2,221.9c0.2,0.3,0.6,0.5,1.1,0.5c0.6,0,0.9-0.3,0.9-0.7c0-0.5-0.4-0.7-1-0.7c-0.2,0-0.4,0-0.4,0v-0.5
		c0.1,0,0.3,0,0.4,0c0.5,0,0.9-0.2,0.9-0.7c0-0.4-0.4-0.7-0.9-0.7c-0.4,0-0.8,0.2-1.1,0.5l-0.3-0.3c0.3-0.3,0.7-0.6,1.4-0.6
		c0.8,0,1.4,0.4,1.4,1.1c0,0.6-0.5,0.9-0.9,0.9c0.4,0,0.9,0.3,0.9,1s-0.5,1.2-1.4,1.2c-0.7,0-1.2-0.3-1.4-0.7L235.2,221.9z"/>
	<path class="st1" d="M238.9,222c0.2,0.2,0.4,0.4,0.9,0.4c0.8,0,1.1-0.8,1.1-1.6c0-0.1,0-0.1,0-0.2c-0.2,0.3-0.6,0.6-1.1,0.6
		c-0.7,0-1.3-0.4-1.3-1.3c0-0.7,0.5-1.3,1.4-1.3c1.1,0,1.5,1,1.5,2.1s-0.5,2.1-1.6,2.1c-0.5,0-0.9-0.2-1.1-0.5L238.9,222z
		 M239.8,219.1c-0.6,0-0.9,0.5-0.9,0.8c0,0.6,0.4,0.9,0.9,0.9c0.4,0,0.8-0.2,1-0.6C240.8,219.8,240.5,219.1,239.8,219.1z"/>
</g>
<g class="st15">
	<path class="st1" d="M197.2,218.7c0.5,0,0.9,0.2,1.1,0.5l-0.3,0.4c-0.2-0.2-0.4-0.4-0.9-0.4c-0.8,0-1.1,0.8-1.1,1.6
		c0,0.1,0,0.1,0,0.2c0.2-0.3,0.6-0.6,1.1-0.6c0.7,0,1.3,0.4,1.3,1.3c0,0.7-0.5,1.3-1.4,1.3c-1.1,0-1.5-1-1.5-2.1
		C195.6,219.7,196.1,218.7,197.2,218.7z M197.1,220.7c-0.4,0-0.8,0.2-1,0.6c0,0.5,0.3,1.1,1,1.1c0.6,0,0.9-0.5,0.9-0.8
		C198,221,197.6,220.7,197.1,220.7z"/>
	<path class="st1" d="M200.9,222.8v-1H199v-0.4l1.7-2.6h0.7v2.5h0.6v0.4h-0.6v1h-0.5V222.8z M200.9,219.2l-1.4,2.1h1.4V219.2z"/>
	<path class="st1" d="M202.6,221.9c0.2,0.3,0.6,0.5,1.1,0.5c0.6,0,0.9-0.3,0.9-0.7c0-0.5-0.4-0.7-1-0.7c-0.2,0-0.4,0-0.4,0v-0.5
		c0.1,0,0.3,0,0.4,0c0.5,0,0.9-0.2,0.9-0.7c0-0.4-0.4-0.7-0.9-0.7c-0.4,0-0.8,0.2-1.1,0.5l-0.3-0.3c0.3-0.3,0.8-0.6,1.4-0.6
		c0.8,0,1.4,0.4,1.4,1.1c0,0.6-0.5,0.9-0.9,0.9c0.4,0,0.9,0.3,0.9,1s-0.5,1.2-1.4,1.2c-0.7,0-1.2-0.3-1.4-0.7L202.6,221.9z"/>
</g>
<g>
	<rect x="230.6" y="229.2" class="st16" width="11.2" height="11.2"/>
	<rect x="230.6" y="229.2" class="st17" width="11.2" height="11.2"/>
	<path class="st2" d="M232.8,231.4c0,0.6-0.4,1-1,1s-1-0.4-1-1s0.4-1,1-1S232.8,230.8,232.8,231.4"/>
	<rect x="233.5" y="234.3" class="st2" width="5.5" height="0.8"/>
	<rect x="233.5" y="234.3" class="st18" width="5.5" height="0.8"/>
	<path class="st2" d="M241.6,231.4c0,0.6-0.4,1-1,1s-1-0.4-1-1s0.4-1,1-1S241.6,230.9,241.6,231.4"/>
	<polyline class="st19" points="240.6,233.4 240.6,236.7 238.8,236.7 238.8,239 	"/>
	<polyline class="st19" points="231.9,233.4 231.9,236.6 233.8,236.6 233.8,238.9 	"/>
	<rect x="235.9" y="236.1" class="st2" width="0.7" height="3.3"/>
	<rect x="235.9" y="236.1" class="st20" width="0.7" height="3.3"/>
</g>
<g>
	<rect x="258.2" y="229.1" class="st16" width="11.2" height="11.2"/>
	<rect x="258.2" y="229.1" class="st17" width="11.2" height="11.2"/>
	<path class="st2" d="M260.4,231.3c0,0.6-0.4,1-1,1s-1-0.4-1-1s0.4-1,1-1S260.4,230.8,260.4,231.3"/>
	<rect x="261.1" y="234.2" class="st2" width="5.5" height="0.8"/>
	<rect x="261.1" y="234.2" class="st18" width="5.5" height="0.8"/>
	<path class="st2" d="M269.2,231.3c0,0.6-0.4,1-1,1s-1-0.4-1-1s0.4-1,1-1C268.8,230.3,269.2,230.8,269.2,231.3"/>
	<polyline class="st19" points="268.2,233.4 268.2,236.6 266.4,236.6 266.4,238.9 	"/>
	<polyline class="st19" points="259.5,233.3 259.5,236.6 261.4,236.6 261.4,238.9 	"/>
	<rect x="263.4" y="236" class="st2" width="0.7" height="3.3"/>
	<rect x="263.4" y="236" class="st20" width="0.7" height="3.3"/>
</g>
<g>
	<rect x="195.4" y="229" class="st16" width="11.2" height="11.2"/>
	<rect x="195.4" y="229" class="st17" width="11.2" height="11.2"/>
	<path class="st2" d="M197.6,231.2c0,0.6-0.4,1-1,1s-1-0.4-1-1s0.4-1,1-1S197.6,230.7,197.6,231.2"/>
	<rect x="198.3" y="234.1" class="st2" width="5.5" height="0.8"/>
	<rect x="198.3" y="234.1" class="st18" width="5.5" height="0.8"/>
	<path class="st2" d="M206.4,231.2c0,0.6-0.4,1-1,1s-1-0.4-1-1s0.4-1,1-1S206.4,230.7,206.4,231.2"/>
	<polyline class="st19" points="205.4,233.3 205.4,236.6 203.5,236.6 203.5,238.9 	"/>
	<polyline class="st19" points="196.7,233.2 196.7,236.5 198.5,236.5 198.5,238.8 	"/>
	<rect x="200.6" y="235.9" class="st2" width="0.7" height="3.3"/>
	<rect x="200.6" y="235.9" class="st20" width="0.7" height="3.3"/>
</g>
<g class="st15">
	<path class="st1" d="M80.7,154.6c0.5,0,0.9,0.2,1.2,0.5l-0.3,0.6c-0.2-0.2-0.5-0.4-0.8-0.4c-0.7,0-1.1,0.6-1.1,1.4v0.1
		c0.2-0.3,0.6-0.6,1.1-0.6c0.7,0,1.4,0.5,1.4,1.3s-0.6,1.4-1.5,1.4c-1.2,0-1.7-1-1.7-2.1C78.8,155.5,79.5,154.6,80.7,154.6z
		 M80.5,156.8c-0.4,0-0.7,0.2-0.9,0.5c0,0.4,0.3,1,0.9,1c0.5,0,0.8-0.4,0.8-0.7C81.3,157,80.9,156.8,80.5,156.8z"/>
	<path class="st1" d="M82.8,157.7c0.3,0.3,0.7,0.5,1.1,0.5c0.5,0,0.9-0.2,0.9-0.6c0-0.4-0.3-0.6-0.9-0.6c-0.2,0-0.4,0-0.5,0v-0.7
		c0.1,0,0.3,0,0.5,0c0.5,0,0.8-0.2,0.8-0.5c0-0.4-0.4-0.6-0.8-0.6s-0.8,0.2-1.1,0.5l-0.4-0.5c0.3-0.4,0.8-0.7,1.5-0.7
		c0.9,0,1.5,0.4,1.5,1.1c0,0.6-0.5,0.9-0.9,0.9c0.4,0,1,0.4,1,1c0,0.7-0.6,1.2-1.6,1.2c-0.7,0-1.3-0.3-1.6-0.7L82.8,157.7z"/>
	<path class="st1" d="M86.4,157.7c0.3,0.3,0.7,0.5,1.1,0.5c0.5,0,0.9-0.2,0.9-0.6c0-0.4-0.3-0.6-0.9-0.6c-0.2,0-0.4,0-0.5,0v-0.7
		c0.1,0,0.3,0,0.5,0c0.5,0,0.8-0.2,0.8-0.5c0-0.4-0.4-0.6-0.8-0.6s-0.8,0.2-1.1,0.5l-0.4-0.5c0.3-0.4,0.8-0.7,1.5-0.7
		c0.9,0,1.5,0.4,1.5,1.1c0,0.6-0.5,0.9-0.9,0.9c0.4,0,1,0.4,1,1c0,0.7-0.6,1.2-1.6,1.2c-0.7,0-1.3-0.3-1.6-0.7L86.4,157.7z"/>
</g>
<line class="st21" x1="90.5" y1="156.6" x2="167.9" y2="156.6"/>
<g class="st15">
	<path class="st1" d="M172.3,154.6c0.5,0,0.9,0.2,1.2,0.5l-0.3,0.6c-0.2-0.2-0.5-0.4-0.8-0.4c-0.7,0-1.1,0.6-1.1,1.4v0.1
		c0.2-0.3,0.6-0.6,1.1-0.6c0.7,0,1.4,0.5,1.4,1.3s-0.6,1.4-1.5,1.4c-1.2,0-1.7-1-1.7-2.1C170.5,155.5,171.1,154.6,172.3,154.6z
		 M172.2,156.8c-0.4,0-0.7,0.2-0.9,0.5c0,0.4,0.3,1,0.9,1c0.5,0,0.8-0.4,0.8-0.7C173,157,172.6,156.8,172.2,156.8z"/>
	<path class="st1" d="M176.1,158.8v-0.9h-2v-0.6l1.7-2.6h1v2.6h0.6v0.6h-0.6v0.9H176.1z M176.1,155.3l-1.3,1.9h1.3V155.3z"/>
	<path class="st1" d="M178.8,158.8v-3.2l-0.7,0.7l-0.4-0.4l1.2-1.2h0.6v4.1L178.8,158.8L178.8,158.8z"/>
</g>
<g class="st15">
	<path class="st1" d="M80.6,101.2c0.5,0,0.9,0.2,1.2,0.5l-0.3,0.6c-0.2-0.2-0.5-0.4-0.8-0.4c-0.7,0-1.1,0.6-1.1,1.4v0.1
		c0.2-0.3,0.6-0.6,1.1-0.6c0.7,0,1.4,0.5,1.4,1.3s-0.6,1.4-1.5,1.4c-1.2,0-1.7-1-1.7-2.1C78.8,102.1,79.4,101.2,80.6,101.2z
		 M80.4,103.3c-0.4,0-0.7,0.2-0.9,0.5c0,0.4,0.3,1,0.9,1c0.5,0,0.8-0.4,0.8-0.7C81.3,103.6,80.9,103.3,80.4,103.3z"/>
	<path class="st1" d="M82.8,104.3c0.3,0.3,0.7,0.5,1.1,0.5c0.5,0,0.9-0.2,0.9-0.6s-0.3-0.6-0.9-0.6c-0.2,0-0.4,0-0.5,0v-0.7
		c0.1,0,0.3,0,0.5,0c0.5,0,0.8-0.2,0.8-0.5c0-0.4-0.4-0.6-0.8-0.6s-0.8,0.2-1.1,0.5l-0.4-0.5c0.3-0.4,0.8-0.7,1.5-0.7
		c0.9,0,1.5,0.4,1.5,1.1c0,0.6-0.5,0.9-0.9,0.9c0.4,0,1,0.4,1,1c0,0.7-0.6,1.2-1.6,1.2c-0.7,0-1.3-0.3-1.6-0.7L82.8,104.3z"/>
	<path class="st1" d="M86.1,105.4v-0.6c1.6-1.2,2.2-1.8,2.2-2.3c0-0.4-0.4-0.6-0.7-0.6c-0.5,0-0.9,0.2-1.1,0.5l-0.4-0.5
		c0.4-0.4,0.9-0.7,1.5-0.7c0.8,0,1.5,0.5,1.5,1.3s-0.7,1.4-1.8,2.3h1.8v0.6C89.1,105.4,86.1,105.4,86.1,105.4z"/>
</g>
<g class="st15">
	<path class="st1" d="M380.3,101.2c0.5,0,0.9,0.2,1.2,0.5l-0.3,0.6c-0.2-0.2-0.5-0.4-0.8-0.4c-0.7,0-1.1,0.6-1.1,1.4v0.1
		c0.2-0.3,0.6-0.6,1.1-0.6c0.7,0,1.4,0.5,1.4,1.3s-0.6,1.4-1.5,1.4c-1.2,0-1.7-1-1.7-2.1C378.5,102.1,379.1,101.2,380.3,101.2z
		 M380.1,103.3c-0.4,0-0.7,0.2-0.9,0.5c0,0.4,0.3,1,0.9,1c0.5,0,0.8-0.4,0.8-0.7C381,103.6,380.6,103.3,380.1,103.3z"/>
	<path class="st1" d="M383.8,101.2c1.2,0,1.7,1.1,1.7,2.1s-0.5,2.1-1.7,2.1s-1.7-1.1-1.7-2.1C382.2,102.3,382.7,101.2,383.8,101.2z
		 M383.8,101.8c-0.7,0-0.9,0.7-0.9,1.5s0.2,1.5,0.9,1.5c0.7,0,0.9-0.7,0.9-1.5C384.8,102.5,384.5,101.8,383.8,101.8z"/>
	<path class="st1" d="M386.9,103.2c-0.5-0.1-0.9-0.5-0.9-1c0-0.8,0.8-1.1,1.5-1.1s1.5,0.3,1.5,1.1c0,0.5-0.4,0.8-0.9,1
		c0.5,0.2,0.9,0.5,0.9,1.1c0,0.7-0.7,1.1-1.6,1.1c-0.8,0-1.6-0.4-1.6-1.1C386,103.8,386.4,103.4,386.9,103.2z M387.6,103.6
		c-0.3,0-0.9,0.2-0.9,0.7c0,0.4,0.4,0.6,0.9,0.6s0.8-0.2,0.8-0.6C388.4,103.8,387.8,103.6,387.6,103.6z M387.6,101.8
		c-0.5,0-0.8,0.2-0.8,0.6s0.5,0.5,0.8,0.6c0.3,0,0.8-0.2,0.8-0.6S388,101.8,387.6,101.8z"/>
</g>
<line class="st21" x1="91.1" y1="103.6" x2="375.6" y2="103.6"/>
<g class="st15">
	<path class="st1" d="M295,156.6c0.5,0,0.9,0.2,1.2,0.5l-0.3,0.6c-0.2-0.2-0.5-0.4-0.8-0.4c-0.7,0-1.1,0.6-1.1,1.4v0.1
		c0.2-0.3,0.6-0.6,1.1-0.6c0.7,0,1.4,0.5,1.4,1.3s-0.6,1.4-1.5,1.4c-1.2,0-1.7-1-1.7-2.1C293.2,157.6,293.8,156.6,295,156.6z
		 M294.8,158.8c-0.4,0-0.7,0.2-0.9,0.5c0,0.4,0.3,1,0.9,1c0.5,0,0.8-0.4,0.8-0.7C295.7,159,295.3,158.8,294.8,158.8z"/>
	<path class="st1" d="M298.5,156.6c1.2,0,1.7,1.1,1.7,2.1s-0.5,2.1-1.7,2.1s-1.7-1.1-1.7-2.1C296.9,157.7,297.4,156.6,298.5,156.6z
		 M298.5,157.3c-0.7,0-0.9,0.7-0.9,1.5s0.2,1.5,0.9,1.5c0.7,0,0.9-0.7,0.9-1.5C299.5,158,299.2,157.3,298.5,157.3z"/>
	<path class="st1" d="M301.6,160.8v-3.2l-0.7,0.7l-0.4-0.4l1.2-1.2h0.6v4.1L301.6,160.8L301.6,160.8z"/>
</g>
<line class="st21" x1="308.5" y1="158.7" x2="360.6" y2="158.7"/>
<g class="st15">
	<path class="st1" d="M368.6,156.7c0.5,0,0.9,0.2,1.2,0.5l-0.3,0.6c-0.2-0.2-0.5-0.4-0.8-0.4c-0.7,0-1.1,0.6-1.1,1.4v0.1
		c0.2-0.3,0.6-0.6,1.1-0.6c0.7,0,1.4,0.5,1.4,1.3s-0.6,1.4-1.5,1.4c-1.2,0-1.7-1-1.7-2.1C366.8,157.7,367.4,156.7,368.6,156.7z
		 M368.4,158.9c-0.4,0-0.7,0.2-0.9,0.5c0,0.4,0.3,1,0.9,1c0.5,0,0.8-0.4,0.8-0.7C369.3,159.1,368.9,158.9,368.4,158.9z"/>
	<path class="st1" d="M372.2,156.7c1.2,0,1.7,1.1,1.7,2.1s-0.5,2.1-1.7,2.1s-1.7-1.1-1.7-2.1S371,156.7,372.2,156.7z M372.2,157.4
		c-0.7,0-0.9,0.7-0.9,1.5s0.2,1.5,0.9,1.5c0.7,0,0.9-0.7,0.9-1.5C373.1,158.1,372.8,157.4,372.2,157.4z"/>
	<path class="st1" d="M374.8,160.9l1.6-3.5h-2.1v-0.6h3v0.5l-1.6,3.6H374.8z"/>
</g>
</svg>
