<?xml version="1.0" encoding="utf-8"?>
<!-- Generator: Adobe Illustrator 28.3.0, SVG Export Plug-In . SVG Version: 6.00 Build 0)  -->
<svg version="1.1" id="Layer_1" xmlns="http://www.w3.org/2000/svg" xmlns:xlink="http://www.w3.org/1999/xlink" x="0px" y="0px"
	 viewBox="0 0 413.2 256" style="enable-background:new 0 0 413.2 256;" xml:space="preserve">
<style type="text/css">
	.st0{fill:#D1D3D4;}
	.st1{fill:#231F20;}
	.st2{fill:#FFFFFF;}
	.st3{fill:#808285;}
	.st4{fill:none;stroke:#FFFFFF;stroke-width:0.79;stroke-linecap:round;stroke-linejoin:round;}
	.st5{fill:#58595B;stroke:#58595B;stroke-width:2;stroke-linecap:round;stroke-linejoin:round;}
	.st6{fill:none;stroke:#FFFFFF;stroke-width:0.65;stroke-linecap:round;stroke-linejoin:round;}
	.st7{fill:none;stroke:#FFFFFF;stroke-width:0.46;stroke-linecap:round;stroke-linejoin:round;}
	.st8{fill:#58595B;stroke:#FFFFFF;stroke-linecap:round;stroke-linejoin:round;}
	
		.st9{opacity:0.5;fill:#231F20;stroke:#231F20;stroke-width:1.97;stroke-linecap:round;stroke-linejoin:round;enable-background:new    ;}
	.st10{fill:#FFFFFF;stroke:#FFFFFF;stroke-width:0.73;stroke-linecap:round;stroke-linejoin:round;}
	.st11{fill:#FFFFFF;stroke:#FFFFFF;stroke-linecap:round;stroke-linejoin:round;}
	.st12{fill:none;stroke:#FFFFFF;stroke-linecap:round;stroke-linejoin:round;}
	.st13{enable-background:new    ;}
	.st14{fill:none;stroke:#231F20;stroke-width:0.5;stroke-miterlimit:10;}
</style>
<rect x="328.6" y="175.6" class="st0" width="4.8" height="39.2"/>
<polygon class="st0" points="375.2,114.3 370.3,114.3 369.5,59.2 374.3,59.2 "/>
<polygon class="st0" points="325.4,114.6 320.6,114.6 319.7,59.2 324.6,59.2 "/>
<rect x="269.6" y="38" class="st0" width="4.8" height="76.6"/>
<rect x="220.3" y="38" class="st0" width="4.8" height="76.9"/>
<rect x="99.4" y="10.2" class="st1" width="70.2" height="2.3"/>
<rect x="176.5" y="10.2" class="st1" width="70.2" height="2.3"/>
<rect x="121" y="37.8" class="st1" width="4.9" height="5"/>
<rect x="170.6" y="37.8" class="st1" width="4.9" height="5"/>
<rect x="220.4" y="38" class="st1" width="4.9" height="5"/>
<rect x="269.6" y="38" class="st1" width="5" height="5"/>
<rect x="120.9" y="81.4" class="st1" width="4.9" height="4.9"/>
<rect x="170.4" y="81.4" class="st1" width="4.9" height="4.9"/>
<rect x="220.2" y="81.8" class="st1" width="4.9" height="4.9"/>
<rect x="120.9" y="124.7" class="st1" width="4.9" height="4.9"/>
<rect x="170.7" y="124.9" class="st1" width="4.9" height="4.9"/>
<rect x="71.1" y="167.9" class="st1" width="4.9" height="4.9"/>
<rect x="120.9" y="168.1" class="st1" width="4.9" height="4.9"/>
<rect x="167.3" y="10.2" class="st1" width="2.3" height="21.2"/>
<rect x="176.5" y="10.2" class="st1" width="2.3" height="21.2"/>
<rect x="167.3" y="29.1" class="st1" width="11.2" height="2.3"/>
<rect x="91.6" y="10.2" class="st1" width="2.2" height="2.3"/>
<rect x="84.4" y="10.2" class="st1" width="2.2" height="2.3"/>
<rect x="77.4" y="10.2" class="st1" width="2.2" height="2.3"/>
<rect x="70.3" y="10.2" class="st1" width="2.3" height="28"/>
<rect x="5.4" y="62.7" class="st1" width="71.2" height="2.3"/>
<rect x="70.3" y="37.8" class="st1" width="6.3" height="7.4"/>
<rect x="71.1" y="81.4" class="st1" width="4.9" height="4.9"/>
<rect x="4.8" y="120.6" class="st1" width="69.2" height="2.3"/>
<rect x="72.1" y="124.9" class="st1" width="4.9" height="4.9"/>
<rect x="46" y="121.4" class="st1" width="2.3" height="11.2"/>
<rect x="72.1" y="120.6" class="st1" width="2.3" height="9.2"/>
<rect x="41.8" y="216.1" class="st1" width="30.1" height="2.3"/>
<rect x="71.5" y="212.1" class="st1" width="7.4" height="6.3"/>
<rect x="41.8" y="130.4" class="st1" width="4.2" height="2.3"/>
<rect x="41.8" y="137.6" class="st1" width="2.5" height="2.3"/>
<rect x="41.8" y="144.4" class="st1" width="2.5" height="2.3"/>
<rect x="41.8" y="151.4" class="st1" width="2.5" height="2.3"/>
<rect x="41.8" y="158.1" class="st1" width="2.5" height="2.3"/>
<rect x="41.8" y="165.1" class="st1" width="2.5" height="2.3"/>
<rect x="41.8" y="171.9" class="st1" width="2.5" height="2.3"/>
<rect x="41.8" y="178.6" class="st1" width="2.5" height="2.3"/>
<rect x="41.8" y="185.4" class="st1" width="2.5" height="2.3"/>
<rect x="41.8" y="193.9" class="st1" width="2.5" height="2.3"/>
<rect x="41.8" y="200.8" class="st1" width="2.5" height="2.3"/>
<rect x="41.8" y="207.4" class="st1" width="2.5" height="2.3"/>
<rect x="126.7" y="242.1" class="st1" width="135.2" height="2.3"/>
<rect x="91.4" y="212.1" class="st1" width="19.2" height="2.3"/>
<rect x="116.5" y="212.1" class="st1" width="12.5" height="13"/>
<rect x="91.2" y="212.1" class="st1" width="2.3" height="32.2"/>
<rect x="126.7" y="213.1" class="st1" width="2.3" height="31.2"/>
<rect x="116.5" y="213.2" class="st1" width="2.3" height="31.1"/>
<rect x="91.4" y="242.1" class="st1" width="26.2" height="2.3"/>
<rect x="399.7" y="41.5" class="st1" width="3.2" height="2.3"/>
<rect x="399.7" y="48.2" class="st1" width="3.2" height="2.3"/>
<rect x="399.7" y="55.2" class="st1" width="3.2" height="2.3"/>
<rect x="399.7" y="62" class="st1" width="3.2" height="2.3"/>
<rect x="399.7" y="68.9" class="st1" width="3.2" height="2.3"/>
<rect x="399.7" y="75.8" class="st1" width="3.2" height="2.3"/>
<rect x="399.7" y="82.4" class="st1" width="3.2" height="2.3"/>
<rect x="399.7" y="89.2" class="st1" width="3.2" height="2.3"/>
<rect x="399.7" y="96.9" class="st1" width="3.2" height="2.3"/>
<rect x="399.7" y="104.7" class="st1" width="3.2" height="2.3"/>
<rect x="399.7" y="111.2" class="st1" width="3.2" height="2.3"/>
<rect x="252.5" y="10.2" class="st1" width="2.3" height="2.3"/>
<rect x="259.3" y="10.2" class="st1" width="2.3" height="2.3"/>
<rect x="266.3" y="10.2" class="st1" width="2.3" height="2.3"/>
<rect x="273" y="10.2" class="st1" width="2.3" height="2.3"/>
<rect x="280" y="10.2" class="st1" width="2.3" height="2.3"/>
<rect x="286.8" y="10.2" class="st1" width="2.3" height="2.3"/>
<rect x="293.5" y="10.2" class="st1" width="2.3" height="2.3"/>
<rect x="300.3" y="10.2" class="st1" width="2.3" height="2.3"/>
<rect x="308.9" y="10.2" class="st1" width="2.3" height="2.3"/>
<rect x="315.7" y="10.2" class="st1" width="2.3" height="21.2"/>
<rect x="325.8" y="10.2" class="st1" width="2.3" height="21.2"/>
<rect x="326.9" y="10.2" class="st1" width="26.2" height="2.3"/>
<rect x="350.9" y="11.2" class="st1" width="2.3" height="31.2"/>
<rect x="315.7" y="27.6" class="st1" width="12.4" height="14.7"/>
<rect x="335.4" y="40.3" class="st1" width="40.2" height="2.3"/>
<rect x="367.1" y="33.9" class="st1" width="36.2" height="2.3"/>
<rect x="367.1" y="35" class="st1" width="8.5" height="5.3"/>
<rect x="270.2" y="80.9" class="st1" width="5" height="4.9"/>
<rect x="319.7" y="80.9" class="st1" width="5" height="4.9"/>
<rect x="220.1" y="124.7" class="st1" width="4.9" height="4.9"/>
<rect x="269.9" y="124.9" class="st1" width="5" height="4.9"/>
<rect x="320.5" y="124.4" class="st1" width="5" height="4.9"/>
<rect x="320.1" y="167.9" class="st1" width="5" height="4.9"/>
<rect x="371.3" y="167.9" class="st1" width="5" height="4.9"/>
<rect x="320.5" y="210.8" class="st1" width="5" height="4.9"/>
<rect x="372.3" y="207.2" class="st1" width="8" height="7.9"/>
<rect x="327.4" y="241.9" class="st1" width="52.8" height="2.3"/>
<rect x="377.9" y="207.2" class="st1" width="2.3" height="36.2"/>
<rect x="309.6" y="241.4" class="st1" width="2.3" height="3.2"/>
<rect x="302.9" y="241.4" class="st1" width="2.3" height="3.2"/>
<rect x="296.1" y="241.4" class="st1" width="2.3" height="3.2"/>
<rect x="289.4" y="241.4" class="st1" width="2.3" height="3.2"/>
<rect x="280.8" y="241.4" class="st1" width="2.3" height="3.2"/>
<rect x="274" y="241.4" class="st1" width="2.3" height="3.2"/>
<rect x="267.3" y="241.4" class="st1" width="2.3" height="3.2"/>
<rect x="317" y="222.2" class="st1" width="2.3" height="22.4"/>
<rect x="327.4" y="222.8" class="st1" width="2.3" height="21.4"/>
<rect x="317.4" y="222.2" class="st1" width="12.4" height="2.3"/>
<rect x="381.9" y="130.4" class="st1" width="21.4" height="2.3"/>
<rect x="382.5" y="120.1" class="st1" width="21.1" height="2.3"/>
<rect x="381.9" y="119.9" class="st1" width="2.3" height="12.4"/>
<rect x="400.3" y="136.9" class="st1" width="3.2" height="2.3"/>
<rect x="400.3" y="143.6" class="st1" width="3.2" height="2.3"/>
<rect x="400.3" y="150.6" class="st1" width="3.2" height="2.3"/>
<rect x="400.3" y="157.4" class="st1" width="3.2" height="2.3"/>
<rect x="400.3" y="164.4" class="st1" width="3.2" height="2.3"/>
<rect x="400.3" y="171.1" class="st1" width="3.2" height="2.3"/>
<rect x="400.3" y="177.9" class="st1" width="3.2" height="2.3"/>
<rect x="371.3" y="187.1" class="st1" width="32.1" height="2.3"/>
<rect x="292.6" y="78.9" class="st2" width="4.7" height="4.7"/>
<rect x="172.6" y="138.6" class="st1" width="100.4" height="1.1"/>
<rect x="222.7" y="162.1" class="st1" width="50.4" height="1.1"/>
<rect x="260.7" y="160.4" class="st2" width="4.7" height="4.7"/>
<rect x="272.1" y="129.8" class="st1" width="1.1" height="33.4"/>
<rect x="173.1" y="212.8" class="st1" width="100.4" height="1.1"/>
<rect x="172.6" y="31.1" class="st1" width="1.2" height="182.8"/>
<rect x="174.4" y="136.9" class="st2" width="9.9" height="3.5"/>
<rect x="211.5" y="137.4" class="st2" width="9.9" height="3.5"/>
<rect x="199" y="137.4" class="st2" width="9.9" height="3.5"/>
<rect x="186.7" y="136.9" class="st2" width="9.9" height="3.5"/>
<rect x="222.6" y="138.8" class="st1" width="1.1" height="24.1"/>
<rect x="222.6" y="177.1" class="st1" width="1.1" height="36.4"/>
<polyline class="st1" points="223.8,196.4 173.4,196.4 173.4,195.4 223.8,195.4 "/>
<rect x="257.4" y="138.8" class="st1" width="1.1" height="24.4"/>
<polyline class="st1" points="205.5,195.6 205.5,213.1 204.3,213.1 204.3,195.6 "/>
<polyline class="st1" points="187.7,196.2 187.7,213.6 186.5,213.6 186.5,196.2 "/>
<rect x="183.2" y="149.9" class="st1" width="1.1" height="31"/>
<rect x="171.2" y="178.8" class="st2" width="4.2" height="12.1"/>
<rect x="210.9" y="149.9" class="st1" width="1.1" height="30.4"/>
<rect x="183.3" y="179.9" class="st1" width="28.8" height="1.1"/>
<polyline class="st1" points="266.2,206.1 222.7,206.1 222.7,204.9 266.2,204.9 "/>
<polyline class="st1" points="265.8,213.6 265.8,177.1 267,177.1 267,213.6 "/>
<polyline class="st1" points="273.9,177.8 222.6,177.8 222.6,176.6 273.9,176.6 "/>
<polyline class="st1" points="272.7,213.9 272.7,177.4 273.9,177.4 273.9,213.9 "/>
<rect x="270.6" y="180.4" class="st2" width="4.2" height="12.1"/>
<rect x="272.4" y="197.4" class="st2" width="4.2" height="12.1"/>
<rect x="247.9" y="175.4" class="st2" width="4.7" height="4.7"/>
<rect x="245.4" y="177.4" class="st1" width="1.1" height="10.4"/>
<rect x="245.4" y="186.9" class="st1" width="10.4" height="1.1"/>
<rect x="269.8" y="131.3" class="st2" width="4.7" height="4.7"/>
<rect x="287.9" y="83.6" class="st2" width="4.7" height="4.7"/>
<rect x="287.5" y="98.3" class="st2" width="4.7" height="4.7"/>
<rect x="287.9" y="113.2" class="st2" width="4.7" height="4.5"/>
<rect x="297.9" y="89.2" class="st2" width="4.7" height="4.7"/>
<rect x="297.3" y="105.8" class="st2" width="4.7" height="4.7"/>
<rect x="297.3" y="122.2" class="st2" width="4.7" height="4.7"/>
<rect x="372.8" y="189.1" class="st1" width="0.5" height="18.8"/>
<rect x="172.5" y="221.6" class="st1" width="88.4" height="1.1"/>
<polyline class="st1" points="242.7,244.4 242.7,212.9 243.9,212.9 243.9,244.4 "/>
<polyline class="st1" points="201.9,243.6 201.9,213.1 203.1,213.1 203.1,243.6 "/>
<rect x="200.1" y="215.4" class="st3" width="4.7" height="4.7"/>
<rect x="240.9" y="215.4" class="st3" width="4.7" height="4.7"/>
<rect x="253.4" y="219.9" class="st3" width="6.4" height="4.7"/>
<rect x="175.4" y="220.1" class="st3" width="6.4" height="4.7"/>
<rect x="203.2" y="220.1" class="st3" width="39.5" height="4.7"/>
<rect x="73.8" y="44" class="st1" width="0.5" height="18.8"/>
<polyline class="st1" points="173.5,222.6 173.5,242.9 172.4,242.9 172.4,222.6 "/>
<polyline class="st1" points="261.3,221.9 261.3,242.4 260.1,242.4 260.1,221.9 "/>
<polyline class="st4" points="202.1,159.1 200.3,159.1 200.3,160.9 198.4,160.9 198.4,162.8 196.4,162.8 196.4,164.6 194.5,164.6 
	194.5,166.6 192.6,166.6 "/>
<rect x="208.1" y="198.6" class="st5" width="11.9" height="11.9"/>
<rect x="210" y="202.9" class="st4" width="8.1" height="5.9"/>
<path class="st2" d="M212.5,204.6c0,0.2-0.2,0.4-0.4,0.4s-0.4-0.2-0.4-0.4s0.2-0.4,0.4-0.4S212.5,204.4,212.5,204.6z"/>
<path class="st2" d="M214.5,204.6c0,0.2-0.2,0.4-0.4,0.4s-0.4-0.2-0.4-0.4s0.2-0.4,0.4-0.4S214.5,204.4,214.5,204.6z"/>
<path class="st2" d="M216.4,204.6c0,0.2-0.2,0.4-0.4,0.4s-0.4-0.2-0.4-0.4s0.2-0.4,0.4-0.4S216.4,204.4,216.4,204.6z"/>
<polyline class="st6" points="210.4,200.1 211.9,201.4 213.5,200.1 "/>
<polyline class="st6" points="218,201.4 216.4,200.1 214.8,201.4 "/>
<rect x="211.9" y="205.6" class="st7" width="0.3" height="1.8"/>
<rect x="213.9" y="205.6" class="st7" width="0.3" height="1.8"/>
<rect x="215.8" y="205.6" class="st7" width="0.3" height="1.8"/>
<g>
	<rect x="98.7" y="222.4" class="st5" width="11.8" height="11.8"/>
	<polyline class="st8" points="109.2,223.9 107.3,223.9 107.3,225.9 105.5,225.9 105.5,227.6 103.4,227.6 103.4,229.6 101.6,229.6 
		101.6,231.4 99.7,231.4 	"/>
</g>
<rect x="190.1" y="198.6" class="st5" width="11.9" height="11.9"/>
<rect x="192" y="202.9" class="st4" width="8.1" height="5.9"/>
<path class="st2" d="M194.4,204.6c0,0.2-0.2,0.4-0.4,0.4s-0.4-0.2-0.4-0.4s0.2-0.4,0.4-0.4S194.4,204.4,194.4,204.6z"/>
<path class="st2" d="M196.4,204.6c0,0.2-0.2,0.4-0.4,0.4s-0.4-0.2-0.4-0.4s0.2-0.4,0.4-0.4S196.4,204.4,196.4,204.6z"/>
<path class="st2" d="M198.3,204.6c0,0.2-0.2,0.4-0.4,0.4s-0.4-0.2-0.4-0.4s0.2-0.4,0.4-0.4S198.3,204.4,198.3,204.6z"/>
<polyline class="st6" points="192.3,200.1 193.9,201.4 195.5,200.1 "/>
<polyline class="st6" points="199.9,201.4 198.3,200.1 196.7,201.4 "/>
<rect x="193.8" y="205.6" class="st7" width="0.3" height="1.8"/>
<rect x="195.8" y="205.6" class="st7" width="0.3" height="1.8"/>
<rect x="197.7" y="205.6" class="st7" width="0.3" height="1.8"/>
<rect x="223.7" y="139.8" class="st9" width="33.7" height="22.4"/>
<g>
	<rect x="230" y="186.6" class="st5" width="12" height="12"/>
	<path class="st2" d="M236.9,189.1c0,0.6-0.5,1.1-1.1,1.1s-1.1-0.5-1.1-1.1s0.5-1.1,1.1-1.1S236.9,188.4,236.9,189.1z"/>
	<rect x="235.5" y="190.6" class="st10" width="0.9" height="6.8"/>
	<polyline class="st11" points="235.6,190.9 234.5,194.9 237.6,194.8 236.5,190.9 	"/>
	<line class="st12" x1="233.5" y1="192.9" x2="235.4" y2="190.9"/>
	<line class="st12" x1="236.6" y1="190.9" x2="238.4" y2="192.9"/>
</g>
<g>
	<rect x="191.6" y="157.4" class="st5" width="11.8" height="11.8"/>
	<polyline class="st8" points="202.1,159.1 200.3,159.1 200.3,160.9 198.4,160.9 198.4,162.8 196.4,162.8 196.4,164.6 194.5,164.6 
		194.5,166.6 192.6,166.6 	"/>
</g>
<g>
	<rect x="334.2" y="20.9" class="st5" width="11.8" height="11.8"/>
	<polyline class="st8" points="344.7,22.5 342.8,22.5 342.8,24.4 341,24.4 341,26.2 338.9,26.2 338.9,28 337,28 337,30 335.2,30 	
		"/>
</g>
<rect x="5.4" y="70.8" class="st1" width="2.5" height="2.3"/>
<rect x="5.4" y="77.7" class="st1" width="2.5" height="2.3"/>
<rect x="5.4" y="84.7" class="st1" width="2.5" height="2.3"/>
<rect x="5.4" y="91.3" class="st1" width="2.5" height="2.3"/>
<rect x="5.4" y="98.3" class="st1" width="2.5" height="2.3"/>
<rect x="5.4" y="105.2" class="st1" width="2.5" height="2.3"/>
<rect x="5.4" y="111.8" class="st1" width="2.5" height="2.3"/>
<rect x="71.6" y="65" class="st1" width="1.2" height="40.4"/>
<polyline class="st1" points="72.1,105.2 64.6,105.2 64.6,103.9 72.1,103.9 "/>
<polyline class="st1" points="72.1,91.3 64.6,91.3 64.6,90.2 72.1,90.2 "/>
<polygon class="st1" points="41.9,122.2 42,63 44.3,63 44.2,122.2 "/>
<rect x="183.4" y="21.8" class="st0" width="4.8" height="93.7"/>
<rect x="74.6" y="30.4" class="st3" width="23.4" height="39"/>
<rect x="129.1" y="31.1" class="st3" width="43.5" height="210.9"/>
<rect x="93.5" y="31.8" class="st3" width="35.8" height="210.3"/>
<rect x="43.9" y="65" class="st3" width="54.8" height="151"/>
<rect x="72.6" y="12.6" class="st3" width="94.7" height="25.2"/>
<rect x="173" y="213.9" class="st3" width="100.8" height="28.1"/>
<rect x="195.5" y="21.8" class="st0" width="4.8" height="93.7"/>
<rect x="206.7" y="21.8" class="st0" width="4.8" height="93.2"/>
<rect x="233" y="21.8" class="st0" width="4.8" height="93.5"/>
<rect x="245.1" y="21.8" class="st0" width="4.8" height="93.5"/>
<rect x="257.3" y="38" class="st0" width="4.8" height="76.7"/>
<rect x="281.2" y="38" class="st0" width="4.8" height="76.9"/>
<rect x="292.4" y="38" class="st0" width="4.8" height="76.9"/>
<polygon class="st0" points="309.4,114.6 304.6,114.6 303.7,38 308.6,38 "/>
<polygon class="st0" points="339.7,114.8 334.8,114.8 334,59.2 338.8,59.2 "/>
<polygon class="st0" points="363.7,114.1 358.9,114.1 358,59.2 362.9,59.2 "/>
<polygon class="st0" points="351.7,114.6 346.9,114.6 346,59.2 350.9,59.2 "/>
<rect x="369.9" y="124.3" class="st1" width="5" height="4.9"/>
<rect x="369.9" y="80.9" class="st1" width="5" height="4.9"/>
<rect x="359.5" y="124.7" class="st0" width="4.8" height="106.7"/>
<rect x="349.7" y="124.7" class="st0" width="4.8" height="106.7"/>
<rect x="339.7" y="124.7" class="st0" width="4.8" height="106.7"/>
<polyline class="st0" points="328.6,163.6 328.6,124.3 333.4,124.3 333.4,163.6 "/>
<rect x="311.2" y="175.9" class="st0" width="4.8" height="39.2"/>
<polyline class="st0" points="311.2,163.8 311.2,124.6 316,124.6 316,163.8 "/>
<rect x="300.9" y="124.7" class="st0" width="4.8" height="90.2"/>
<rect x="291.1" y="124.7" class="st0" width="4.8" height="90.2"/>
<rect x="281.2" y="124.7" class="st0" width="4.8" height="90.2"/>
<rect x="6.7" y="65" class="st3" width="49.6" height="55.4"/>
<g class="st13">
	<path class="st1" d="M184.1,102.3v-1H182v-0.6l1.8-2.8h1.1v2.8h0.6v0.7h-0.7v1L184.1,102.3L184.1,102.3z M184.1,98.6l-1.4,2.1h1.4
		V98.6z"/>
	<path class="st1" d="M187.7,97.8c1.3,0,1.8,1.2,1.8,2.3c0,1.1-0.5,2.3-1.8,2.3s-1.8-1.2-1.8-2.3C185.9,98.9,186.4,97.8,187.7,97.8z
		 M187.7,98.4c-0.7,0-1,0.8-1,1.6s0.3,1.6,1,1.6s1-0.8,1-1.6S188.4,98.4,187.7,98.4z"/>
	<path class="st1" d="M191,102.3v-3.5l-0.7,0.8l-0.5-0.5l1.3-1.3h0.7v4.5H191z"/>
</g>
<g class="st13">
	<path class="st1" d="M369.4,102.6v-1h-2.1V101l1.8-2.8h1.1v2.8h0.6v0.7h-0.6v1L369.4,102.6L369.4,102.6z M369.4,98.8l-1.4,2.1h1.4
		V98.8z"/>
	<path class="st1" d="M372.3,102.6v-3.5l-0.7,0.8l-0.5-0.5l1.3-1.3h0.7v4.5H372.3z"/>
	<path class="st1" d="M375.8,98.1c0.6,0,1,0.2,1.3,0.5l-0.4,0.6c-0.2-0.2-0.5-0.4-0.9-0.4c-0.7,0-1.2,0.7-1.2,1.5v0.1
		c0.2-0.3,0.7-0.6,1.2-0.6c0.8,0,1.5,0.5,1.5,1.4c0,0.8-0.6,1.5-1.6,1.5c-1.3,0-1.8-1.1-1.8-2.3C373.8,99.1,374.5,98.1,375.8,98.1z
		 M375.6,100.3c-0.4,0-0.8,0.2-1,0.5c0,0.5,0.3,1,1,1c0.6,0,0.9-0.4,0.9-0.8C376.5,100.7,376.1,100.3,375.6,100.3z"/>
</g>
<line class="st14" x1="195.3" y1="100.4" x2="364.8" y2="100.4"/>
<g class="st13">
	<path class="st1" d="M279.5,142.8v-1h-2.1v-0.6l1.8-2.8h1.1v2.8h0.6v0.7h-0.6v1L279.5,142.8L279.5,142.8z M279.5,138.9l-1.4,2.1
		h1.4V138.9z"/>
	<path class="st1" d="M281.4,142.8v-0.6c1.7-1.3,2.4-1.9,2.4-2.5c0-0.5-0.4-0.7-0.8-0.7c-0.5,0-0.9,0.2-1.2,0.5l-0.5-0.5
		c0.4-0.5,1-0.7,1.6-0.7c0.9,0,1.6,0.5,1.6,1.4c0,0.8-0.8,1.6-2,2.5h2v0.7L281.4,142.8L281.4,142.8z"/>
	<path class="st1" d="M287.3,142.8v-1h-2.1v-0.6l1.8-2.8h1.1v2.8h0.6v0.7h-0.6v1L287.3,142.8L287.3,142.8z M287.3,138.9l-1.4,2.1
		h1.4V138.9z"/>
</g>
<g class="st13">
	<path class="st1" d="M358.8,142.9v-1h-2.1v-0.6l1.8-2.8h1.1v2.8h0.6v0.7h-0.6v1L358.8,142.9L358.8,142.9z M358.8,139.1l-1.4,2.1
		h1.4V139.1z"/>
	<path class="st1" d="M361.7,142.9v-3.5l-0.7,0.8l-0.5-0.5l1.3-1.3h0.7v4.5H361.7z"/>
	<path class="st1" d="M363.7,142.9l1.7-3.8h-2.3v-0.7h3.2v0.5l-1.7,3.9h-0.9L363.7,142.9L363.7,142.9z"/>
</g>
<line class="st14" x1="290.7" y1="140.9" x2="355.2" y2="140.9"/>
</svg>
