<?xml version="1.0" encoding="utf-8"?>
<!-- Generator: Adobe Illustrator 28.3.0, SVG Export Plug-In . SVG Version: 6.00 Build 0)  -->
<svg version="1.1" id="Layer_1" xmlns="http://www.w3.org/2000/svg" xmlns:xlink="http://www.w3.org/1999/xlink" x="0px" y="0px"
	 viewBox="0 0 391.4 263" style="enable-background:new 0 0 391.4 263;" xml:space="preserve">
<style type="text/css">
	.st0{fill:#6E6F72;}
	.st1{fill:#D2D3D4;}
	.st2{fill:#231F20;}
	.st3{fill:#FFFFFF;}
	.st4{fill:none;stroke:#FFFFFF;stroke-width:0.79;stroke-linecap:round;stroke-linejoin:round;}
	.st5{fill:#595A5C;stroke:#595A5C;stroke-width:2;stroke-linecap:round;stroke-linejoin:round;}
	.st6{fill:none;stroke:#FFFFFF;stroke-width:0.65;stroke-linecap:round;stroke-linejoin:round;}
	.st7{fill:none;stroke:#FFFFFF;stroke-width:0.46;stroke-linecap:round;stroke-linejoin:round;}
	.st8{fill:#595A5C;stroke:#FFFFFF;stroke-linecap:round;stroke-linejoin:round;}
	.st9{fill:#FFFFFF;stroke:#FFFFFF;stroke-width:0.73;stroke-linecap:round;stroke-linejoin:round;}
	.st10{fill:#FFFFFF;stroke:#FFFFFF;stroke-linecap:round;stroke-linejoin:round;}
	.st11{fill:none;stroke:#FFFFFF;stroke-linecap:round;stroke-linejoin:round;}
	.st12{fill:none;stroke:#231F20;stroke-width:0.5;stroke-miterlimit:10;}
</style>
<rect x="217.7" y="229.2" class="st0" width="16.5" height="19.2"/>
<polyline class="st1" points="243.6,76.5 243.6,29.2 248.4,29.2 248.4,76.5 "/>
<polyline class="st1" points="194,89.3 194,29.1 198.8,29.1 198.8,89.3 "/>
<rect x="144.5" y="43.7" class="st1" width="4.8" height="77.3"/>
<rect x="94.8" y="28.7" class="st1" width="4.8" height="92.3"/>
<rect x="94.6" y="151.2" class="st1" width="4.8" height="55.2"/>
<polyline class="st1" points="44.9,206.4 44.9,151.2 49.7,151.2 49.7,206.4 "/>
<rect x="73.2" y="16.5" class="st2" width="70.2" height="2.3"/>
<rect x="150.3" y="16.5" class="st2" width="70.2" height="2.3"/>
<rect x="94.8" y="44" class="st2" width="4.9" height="5"/>
<rect x="144.4" y="44" class="st2" width="5" height="5"/>
<rect x="194.2" y="44.3" class="st2" width="5" height="5"/>
<rect x="243.4" y="44.3" class="st2" width="5" height="5"/>
<rect x="94.7" y="87.7" class="st2" width="4.9" height="4.9"/>
<rect x="144.3" y="87.7" class="st2" width="5" height="4.9"/>
<rect x="194" y="88" class="st2" width="5" height="4.9"/>
<rect x="94.7" y="130.9" class="st2" width="4.9" height="4.9"/>
<rect x="144.5" y="131.2" class="st2" width="5" height="4.9"/>
<rect x="44.9" y="174.1" class="st2" width="4.9" height="4.9"/>
<rect x="94.7" y="174.4" class="st2" width="4.9" height="4.9"/>
<rect x="141" y="16.5" class="st2" width="2.3" height="21.2"/>
<rect x="150.3" y="16.5" class="st2" width="2.3" height="21.2"/>
<rect x="141" y="35.4" class="st2" width="11.2" height="2.3"/>
<rect x="65.4" y="16.5" class="st2" width="2.2" height="2.3"/>
<rect x="58.3" y="16.5" class="st2" width="2.2" height="2.3"/>
<rect x="51.2" y="16.5" class="st2" width="2.2" height="2.3"/>
<rect x="44" y="16.5" class="st2" width="2.3" height="28"/>
<rect x="21.1" y="68.9" class="st2" width="26.2" height="2.3"/>
<rect x="44" y="44" class="st2" width="6.3" height="7.4"/>
<rect x="44.9" y="87.7" class="st2" width="4.9" height="4.9"/>
<rect x="20.6" y="126.8" class="st2" width="27.2" height="2.3"/>
<rect x="45.9" y="131.2" class="st2" width="4.9" height="4.9"/>
<rect x="19.8" y="127.7" class="st2" width="2.3" height="11.2"/>
<rect x="45.9" y="126.8" class="st2" width="2.3" height="9.2"/>
<rect x="15.6" y="222.4" class="st2" width="30.1" height="2.3"/>
<rect x="45.3" y="218.3" class="st2" width="7.4" height="6.3"/>
<rect x="15.6" y="136.7" class="st2" width="4.2" height="2.3"/>
<rect x="15.6" y="143.8" class="st2" width="2.6" height="2.3"/>
<rect x="15.6" y="150.6" class="st2" width="2.6" height="2.3"/>
<rect x="15.6" y="157.6" class="st2" width="2.6" height="2.3"/>
<rect x="15.6" y="164.3" class="st2" width="2.6" height="2.3"/>
<rect x="15.6" y="171.3" class="st2" width="2.6" height="2.3"/>
<rect x="15.6" y="178.1" class="st2" width="2.6" height="2.3"/>
<rect x="15.6" y="184.8" class="st2" width="2.6" height="2.3"/>
<rect x="15.6" y="191.6" class="st2" width="2.6" height="2.3"/>
<rect x="15.6" y="200.2" class="st2" width="2.6" height="2.3"/>
<rect x="15.6" y="207" class="st2" width="2.6" height="2.3"/>
<rect x="15.6" y="213.7" class="st2" width="2.6" height="2.3"/>
<rect x="100.6" y="248.3" class="st2" width="135.2" height="2.3"/>
<rect x="65.2" y="218.3" class="st2" width="19.2" height="2.3"/>
<rect x="90.4" y="218.3" class="st2" width="12.5" height="13"/>
<rect x="65" y="218.3" class="st2" width="2.3" height="32.2"/>
<rect x="100.6" y="219.4" class="st2" width="2.3" height="31.2"/>
<rect x="90.4" y="219.5" class="st2" width="2.3" height="31.2"/>
<rect x="65.2" y="248.3" class="st2" width="26.2" height="2.3"/>
<rect x="373.5" y="47.7" class="st2" width="3.2" height="2.3"/>
<rect x="373.5" y="54.5" class="st2" width="3.2" height="2.3"/>
<rect x="373.5" y="61.5" class="st2" width="3.2" height="2.3"/>
<rect x="373.5" y="68.2" class="st2" width="3.2" height="2.3"/>
<rect x="373.5" y="75.2" class="st2" width="3.2" height="2.3"/>
<rect x="373.5" y="82" class="st2" width="3.2" height="2.3"/>
<rect x="373.5" y="88.7" class="st2" width="3.2" height="2.3"/>
<rect x="373.5" y="95.5" class="st2" width="3.2" height="2.3"/>
<rect x="373.5" y="103.2" class="st2" width="3.2" height="2.3"/>
<rect x="373.5" y="110.9" class="st2" width="3.2" height="2.3"/>
<rect x="373.5" y="117.5" class="st2" width="3.2" height="2.3"/>
<rect x="226.4" y="16.5" class="st2" width="2.3" height="2.3"/>
<rect x="233" y="16.5" class="st2" width="2.3" height="2.3"/>
<rect x="240" y="16.5" class="st2" width="2.3" height="2.3"/>
<rect x="246.9" y="16.5" class="st2" width="2.3" height="2.3"/>
<rect x="253.9" y="16.5" class="st2" width="2.3" height="2.3"/>
<rect x="260.6" y="16.5" class="st2" width="2.3" height="2.3"/>
<rect x="267.4" y="16.5" class="st2" width="2.3" height="2.3"/>
<rect x="274" y="16.5" class="st2" width="2.3" height="2.3"/>
<rect x="282.7" y="16.5" class="st2" width="2.3" height="2.3"/>
<rect x="289.5" y="16.5" class="st2" width="2.3" height="21.2"/>
<rect x="299.6" y="16.5" class="st2" width="2.3" height="21.2"/>
<rect x="300.7" y="16.5" class="st2" width="26.2" height="2.3"/>
<rect x="324.7" y="17.4" class="st2" width="2.3" height="31.2"/>
<rect x="289.5" y="33.9" class="st2" width="12.4" height="14.7"/>
<rect x="309.2" y="46.6" class="st2" width="40.2" height="2.3"/>
<rect x="340.9" y="40.1" class="st2" width="36.2" height="2.3"/>
<rect x="340.9" y="41.3" class="st2" width="8.5" height="5.3"/>
<rect x="343.7" y="87.4" class="st2" width="5" height="4.9"/>
<rect x="243.3" y="87.2" class="st2" width="5" height="4.9"/>
<rect x="293" y="87.5" class="st2" width="5" height="4.9"/>
<rect x="193.9" y="130.9" class="st2" width="5" height="4.9"/>
<rect x="243.7" y="131.2" class="st2" width="5" height="4.9"/>
<rect x="294.3" y="130.7" class="st2" width="5" height="4.9"/>
<rect x="344" y="131" class="st2" width="5" height="4.1"/>
<rect x="295.3" y="173.9" class="st2" width="5" height="4.9"/>
<rect x="345" y="174.2" class="st2" width="5" height="4.9"/>
<rect x="295.3" y="217.1" class="st2" width="5" height="4.9"/>
<rect x="346" y="213.5" class="st2" width="8" height="7.9"/>
<rect x="301.3" y="248.2" class="st2" width="52.8" height="2.3"/>
<rect x="351.8" y="213.5" class="st2" width="2.3" height="36.2"/>
<rect x="283.5" y="247.7" class="st2" width="2.3" height="3.2"/>
<rect x="276.7" y="247.7" class="st2" width="2.3" height="3.2"/>
<rect x="270" y="247.7" class="st2" width="2.3" height="3.2"/>
<rect x="263.2" y="247.7" class="st2" width="2.3" height="3.2"/>
<rect x="254.6" y="247.7" class="st2" width="2.3" height="3.2"/>
<rect x="247.8" y="247.7" class="st2" width="2.3" height="3.2"/>
<rect x="241" y="247.7" class="st2" width="2.3" height="3.2"/>
<rect x="290.8" y="228.5" class="st2" width="2.3" height="22.4"/>
<rect x="301.3" y="229" class="st2" width="2.3" height="21.4"/>
<rect x="291.2" y="228.5" class="st2" width="12.4" height="2.3"/>
<rect x="355.8" y="136.7" class="st2" width="21.4" height="2.3"/>
<rect x="356.3" y="126.3" class="st2" width="21.1" height="2.3"/>
<rect x="355.8" y="126.2" class="st2" width="2.3" height="12.4"/>
<rect x="374" y="143.1" class="st2" width="3.2" height="2.3"/>
<rect x="374" y="149.8" class="st2" width="3.2" height="2.3"/>
<rect x="374" y="156.8" class="st2" width="3.2" height="2.3"/>
<rect x="374" y="163.6" class="st2" width="3.2" height="2.3"/>
<rect x="374" y="170.6" class="st2" width="3.2" height="2.3"/>
<rect x="374" y="177.3" class="st2" width="3.2" height="2.3"/>
<rect x="374" y="184.1" class="st2" width="3.2" height="2.3"/>
<rect x="345" y="193.3" class="st2" width="32.1" height="2.3"/>
<rect x="313.3" y="134.5" class="st2" width="42.4" height="1.2"/>
<rect x="272.8" y="134.5" class="st2" width="27.4" height="1.2"/>
<rect x="246.5" y="135" class="st2" width="18.4" height="1.2"/>
<rect x="293.7" y="147.8" class="st2" width="52.2" height="1.1"/>
<rect x="345" y="135" class="st2" width="1.1" height="59.4"/>
<rect x="243.4" y="87.5" class="st2" width="52.4" height="1.2"/>
<rect x="243.7" y="88.1" class="st2" width="1.2" height="47.4"/>
<rect x="197.5" y="102.9" class="st2" width="67.4" height="1.2"/>
<rect x="293.7" y="69" class="st2" width="1.2" height="66.4"/>
<rect x="293.6" y="68.8" class="st2" width="32.4" height="1.2"/>
<rect x="296.9" y="66.6" class="st3" width="4.7" height="4.7"/>
<rect x="325" y="47.7" class="st2" width="1.2" height="22.4"/>
<rect x="342.8" y="140.7" class="st3" width="4.7" height="4.7"/>
<polygon class="st2" points="294.7,222.1 293.7,148.9 294.9,148.9 295.9,222.1 "/>
<rect x="292.5" y="151" class="st3" width="4.7" height="4.7"/>
<rect x="293.5" y="211.2" class="st3" width="4.7" height="4.7"/>
<rect x="146.4" y="144.9" class="st2" width="100.4" height="1.1"/>
<rect x="196.5" y="168.4" class="st2" width="50.4" height="1.1"/>
<rect x="246" y="136.1" class="st2" width="1.1" height="33.4"/>
<rect x="147" y="219" class="st2" width="101.4" height="1.1"/>
<rect x="146.4" y="144.8" class="st2" width="1.1" height="75.4"/>
<rect x="148.2" y="143.2" class="st3" width="9.9" height="3.5"/>
<rect x="185.3" y="143.6" class="st3" width="9.9" height="3.5"/>
<rect x="172.8" y="143.6" class="st3" width="9.9" height="3.5"/>
<rect x="160.5" y="143.2" class="st3" width="9.9" height="3.5"/>
<rect x="196.5" y="145.7" class="st2" width="1.1" height="23.4"/>
<rect x="196.5" y="183.3" class="st2" width="1.1" height="36.4"/>
<polyline class="st2" points="197.6,202.7 147.2,202.7 147.2,201.6 197.6,201.6 "/>
<rect x="231.3" y="145" class="st2" width="1.1" height="24.4"/>
<polyline class="st2" points="179.3,201.9 179.3,219.4 178,219.4 178,201.9 "/>
<polyline class="st2" points="161.5,202.5 161.5,219.9 160.3,219.9 160.3,202.5 "/>
<rect x="157" y="156.2" class="st2" width="1.1" height="31"/>
<rect x="145" y="185" class="st3" width="4.2" height="12.1"/>
<rect x="184.7" y="156.2" class="st2" width="1.1" height="30.4"/>
<rect x="157" y="186.1" class="st2" width="28.8" height="1.1"/>
<polyline class="st2" points="241,212.3 197.5,212.3 197.5,211.2 241,211.2 "/>
<polyline class="st2" points="239.7,219.8 239.7,183.4 240.8,183.4 240.8,219.8 "/>
<polyline class="st2" points="248,184 196.5,184 196.5,182.8 248,182.8 "/>
<polyline class="st2" points="246.5,220.2 246.5,183.7 247.7,183.7 247.7,220.2 "/>
<rect x="244.4" y="186.6" class="st3" width="4.2" height="12.1"/>
<rect x="246.3" y="203.6" class="st3" width="4.2" height="12.1"/>
<rect x="221.8" y="181.6" class="st3" width="4.7" height="4.7"/>
<rect x="219.2" y="183.7" class="st2" width="1.1" height="10.4"/>
<rect x="219.8" y="193.1" class="st2" width="10.4" height="1.1"/>
<rect x="197.6" y="103.8" class="st2" width="1.2" height="41.4"/>
<rect x="244.7" y="119.3" class="st2" width="19.4" height="1.2"/>
<rect x="263.7" y="87.5" class="st2" width="1.2" height="47.4"/>
<rect x="273.3" y="88.3" class="st2" width="1.2" height="47.4"/>
<rect x="274" y="102.6" class="st2" width="19.4" height="1.2"/>
<rect x="274" y="119.3" class="st2" width="19.4" height="1.2"/>
<rect x="261.7" y="89.8" class="st3" width="4.7" height="4.7"/>
<rect x="261.3" y="104.6" class="st3" width="4.7" height="4.7"/>
<rect x="261.7" y="122.2" class="st3" width="4.7" height="4.7"/>
<rect x="271.8" y="95.4" class="st3" width="4.7" height="4.7"/>
<rect x="271" y="112" class="st3" width="4.7" height="4.7"/>
<rect x="271" y="128.4" class="st3" width="4.7" height="4.7"/>
<rect x="298.5" y="220.9" class="st2" width="54.4" height="1.1"/>
<rect x="82.7" y="28.7" class="st1" width="4.8" height="92.3"/>
<rect x="70.4" y="28.7" class="st1" width="4.8" height="92.3"/>
<rect x="106.8" y="28.7" class="st1" width="4.8" height="92.3"/>
<rect x="119.4" y="28.7" class="st1" width="4.8" height="92.3"/>
<rect x="132.2" y="43.7" class="st1" width="4.8" height="77.3"/>
<rect x="156.7" y="43.7" class="st1" width="4.8" height="77.3"/>
<rect x="168.9" y="28.7" class="st1" width="4.8" height="92.3"/>
<polyline class="st1" points="180.9,121.1 180.9,28.8 185.8,28.8 185.8,121.1 "/>
<polyline class="st1" points="206,93 206,28.7 210.9,28.7 210.9,93 "/>
<polyline class="st1" points="218,76 218,28.7 223,28.7 223,76 "/>
<polyline class="st1" points="230.7,76 230.7,28.7 235.5,28.7 235.5,76 "/>
<polyline class="st1" points="254.8,76.8 254.8,29.5 259.7,29.5 259.7,76.8 "/>
<polyline class="st1" points="265.7,76.8 265.7,29.5 270.5,29.5 270.5,76.8 "/>
<rect x="35.4" y="151.4" class="st1" width="4.8" height="55.3"/>
<rect x="65" y="151.6" class="st1" width="4.8" height="55.3"/>
<rect x="74.8" y="151.6" class="st1" width="4.8" height="55.3"/>
<rect x="114.4" y="151.2" class="st1" width="4.8" height="56.3"/>
<rect x="124" y="151.2" class="st1" width="4.8" height="56.3"/>
<rect x="104.8" y="151.2" class="st1" width="4.8" height="56.3"/>
<rect x="84.7" y="151.6" class="st1" width="4.8" height="55.3"/>
<rect x="55" y="151.6" class="st1" width="4.8" height="55.3"/>
<rect x="346.6" y="195.4" class="st2" width="0.5" height="18.8"/>
<rect x="146.3" y="227.9" class="st2" width="88.4" height="1.1"/>
<polyline class="st2" points="216.6,250.6 216.6,219.2 217.7,219.2 217.7,250.6 "/>
<polyline class="st2" points="175.7,249.8 175.7,219.4 176.9,219.4 176.9,249.8 "/>
<rect x="174" y="221.7" class="st3" width="4.7" height="4.7"/>
<rect x="232.2" y="217.9" class="st3" width="4.7" height="4.7"/>
<rect x="227.2" y="224.1" class="st3" width="6.4" height="4.7"/>
<rect x="149.2" y="226.4" class="st3" width="6.4" height="4.7"/>
<rect x="176.8" y="226.1" class="st3" width="39.5" height="4.7"/>
<rect x="47.4" y="50.9" class="st2" width="0.5" height="75.8"/>
<polyline class="st2" points="147.3,228.8 147.3,249.2 146.2,249.2 146.2,228.8 "/>
<polyline class="st2" points="235,228.2 235,248.6 233.9,248.6 233.9,228.2 "/>
<polyline class="st4" points="176,165.3 174,165.3 174,167.2 172.2,167.2 172.2,169 170.2,169 170.2,170.9 168.3,170.9 168.3,172.8 
	166.5,172.8 "/>
<rect x="181.9" y="204.9" class="st5" width="11.9" height="11.9"/>
<rect x="183.8" y="209.2" class="st4" width="8.1" height="5.9"/>
<path class="st3" d="M186.3,210.8c0,0.2-0.2,0.4-0.5,0.4s-0.5-0.2-0.5-0.4s0.2-0.4,0.5-0.4S186.3,210.6,186.3,210.8z"/>
<path class="st3" d="M188.3,210.9c0,0.2-0.2,0.4-0.5,0.4s-0.5-0.2-0.5-0.4s0.2-0.4,0.5-0.4S188.3,210.6,188.3,210.9z"/>
<path class="st3" d="M190.2,210.9c0,0.2-0.2,0.4-0.5,0.4s-0.5-0.2-0.5-0.4s0.2-0.4,0.5-0.4S190.2,210.6,190.2,210.9z"/>
<polyline class="st6" points="184.2,206.4 185.8,207.7 187.3,206.4 "/>
<polyline class="st6" points="191.8,207.6 190.2,206.4 188.6,207.6 "/>
<rect x="185.7" y="211.9" class="st7" width="0.3" height="1.8"/>
<rect x="187.7" y="211.9" class="st7" width="0.3" height="1.8"/>
<rect x="189.6" y="211.9" class="st7" width="0.3" height="1.8"/>
<rect x="72.4" y="228.6" class="st5" width="11.8" height="11.8"/>
<polyline class="st8" points="82.9,230.2 81.2,230.2 81.2,232.1 79.3,232.1 79.3,233.9 77.2,233.9 77.2,235.8 75.4,235.8 
	75.4,237.7 73.4,237.7 "/>
<rect x="163.9" y="204.9" class="st5" width="11.9" height="11.9"/>
<rect x="165.8" y="209.2" class="st4" width="8.1" height="5.9"/>
<path class="st3" d="M168.2,210.8c0,0.2-0.2,0.4-0.5,0.4s-0.5-0.2-0.5-0.4s0.2-0.4,0.5-0.4C168,210.4,168.2,210.6,168.2,210.8z"/>
<path class="st3" d="M170.3,210.9c0,0.2-0.2,0.4-0.5,0.4s-0.5-0.2-0.5-0.4s0.2-0.4,0.5-0.4S170.3,210.6,170.3,210.9z"/>
<path class="st3" d="M172,210.9c0,0.2-0.2,0.4-0.5,0.4s-0.5-0.2-0.5-0.4s0.2-0.4,0.5-0.4S172,210.6,172,210.9z"/>
<polyline class="st6" points="166,206.4 167.7,207.7 169.3,206.4 "/>
<polyline class="st6" points="173.7,207.6 172,206.4 170.6,207.6 "/>
<rect x="167.7" y="211.9" class="st7" width="0.3" height="1.8"/>
<rect x="169.6" y="211.9" class="st7" width="0.3" height="1.8"/>
<rect x="171.5" y="211.9" class="st7" width="0.3" height="1.8"/>
<polygon class="st2" points="19.9,129.1 20,68.9 22.3,68.9 22.1,129.1 "/>
<rect x="197.5" y="146" class="st0" width="48.4" height="22.4"/>
<rect x="202.8" y="192.8" class="st5" width="12" height="12"/>
<path class="st3" d="M209.7,195.3c0,0.6-0.5,1.1-1.1,1.1s-1.1-0.5-1.1-1.1s0.5-1.1,1.1-1.1S209.7,194.7,209.7,195.3z"/>
<rect x="208.3" y="196.9" class="st9" width="0.9" height="6.8"/>
<polyline class="st10" points="208.4,197.1 207.3,201.1 210.4,201 209.3,197.1 "/>
<line class="st11" x1="206.3" y1="199.2" x2="208.2" y2="197.2"/>
<line class="st11" x1="209.4" y1="197.2" x2="211.2" y2="199.1"/>
<rect x="165.4" y="163.7" class="st5" width="11.8" height="11.8"/>
<polyline class="st8" points="176,165.3 174,165.3 174,167.2 172.2,167.2 172.2,169 170.2,169 170.2,170.9 168.3,170.9 168.3,172.8 
	166.5,172.8 "/>
<rect x="308" y="27.1" class="st5" width="11.8" height="11.8"/>
<polyline class="st8" points="318.5,28.7 316.7,28.7 316.7,30.6 314.8,30.6 314.8,32.5 312.7,32.5 312.7,34.3 310.9,34.3 
	310.9,36.2 309,36.2 "/>
<rect x="198.8" y="104.1" class="st0" width="47.1" height="43.1"/>
<rect x="244.9" y="88.6" class="st0" width="18.8" height="46.3"/>
<rect x="302.9" y="222.4" class="st0" width="48.8" height="26.4"/>
<rect x="346.3" y="138.6" class="st0" width="27.5" height="54.9"/>
<rect x="346.3" y="135.5" class="st0" width="9.5" height="12.4"/>
<path class="st2" d="M312.9,179.3c0.2,0.3,0.6,0.5,1.1,0.5c0.6,0,0.9-0.3,0.9-0.7c0-0.5-0.4-0.7-1-0.7c-0.2,0-0.4,0-0.4,0v-0.5
	c0.1,0,0.3,0,0.4,0c0.5,0,0.9-0.2,0.9-0.7c0-0.4-0.4-0.7-0.9-0.7c-0.4,0-0.8,0.2-1.1,0.5l-0.3-0.3c0.3-0.3,0.8-0.6,1.4-0.6
	c0.8,0,1.4,0.4,1.4,1.1c0,0.6-0.5,0.9-0.9,0.9c0.4,0,0.9,0.3,0.9,1s-0.5,1.2-1.4,1.2c-0.7,0-1.2-0.3-1.4-0.7L312.9,179.3z"/>
<path class="st2" d="M316.8,180.2v-3.3l-0.6,0.7l-0.3-0.3l1-1h0.4v4L316.8,180.2L316.8,180.2z"/>
<path class="st2" d="M318.5,179.4c0.2,0.2,0.4,0.4,0.9,0.4c0.8,0,1.1-0.8,1.1-1.6c0-0.1,0-0.1,0-0.2c-0.2,0.3-0.6,0.6-1.1,0.6
	c-0.7,0-1.3-0.4-1.3-1.3c0-0.7,0.5-1.3,1.4-1.3c1.1,0,1.5,1,1.5,2.1s-0.5,2.1-1.6,2.1c-0.5,0-0.9-0.2-1.1-0.5L318.5,179.4z
	 M319.5,176.6c-0.6,0-0.9,0.5-0.9,0.8c0,0.6,0.4,0.9,0.9,0.9c0.4,0,0.8-0.2,1-0.6C320.5,177.2,320.2,176.6,319.5,176.6z"/>
<path class="st2" d="M321.8,180.2v-4h1.4c1.2,0,2.1,0.9,2.1,2s-0.8,2-2.1,2H321.8z M322.3,179.8h0.9c1,0,1.5-0.7,1.5-1.6
	s-0.5-1.6-1.5-1.6h-0.9V179.8z"/>
<path class="st2" d="M310,185.4c0-1.2,0.9-2.1,2-2.1c0.7,0,1.2,0.3,1.5,0.8l-0.4,0.2c-0.2-0.3-0.6-0.6-1.1-0.6
	c-0.9,0-1.5,0.7-1.5,1.6s0.7,1.6,1.5,1.6c0.5,0,0.9-0.2,1.1-0.6l0.4,0.2c-0.3,0.5-0.8,0.8-1.5,0.8C310.9,187.5,310,186.7,310,185.4z
	"/>
<path class="st2" d="M314.2,187.4v-4h0.5v3.6h1.9v0.4H314.2z"/>
<path class="st2" d="M321.3,187.4l-0.4-0.9h-2l-0.4,0.9h-0.6l1.6-4h0.6l1.6,4H321.3z M320,183.9l-0.9,2.2h1.7L320,183.9z"/>
<path class="st2" d="M323,186.5c0.3,0.3,0.7,0.6,1.3,0.6c0.7,0,0.9-0.4,0.9-0.7c0-0.5-0.5-0.6-1-0.8c-0.6-0.2-1.4-0.3-1.4-1.1
	c0-0.7,0.6-1.1,1.4-1.1c0.6,0,1.1,0.2,1.4,0.6l-0.3,0.4c-0.3-0.3-0.7-0.5-1.2-0.5s-0.8,0.3-0.8,0.6c0,0.4,0.5,0.5,1,0.7
	c0.7,0.2,1.4,0.4,1.4,1.2c0,0.6-0.4,1.2-1.5,1.2c-0.7,0-1.2-0.3-1.5-0.6L323,186.5z"/>
<path class="st2" d="M326.5,186.5c0.3,0.3,0.7,0.6,1.3,0.6c0.7,0,0.9-0.4,0.9-0.7c0-0.5-0.5-0.6-1-0.8c-0.6-0.2-1.4-0.3-1.4-1.1
	c0-0.7,0.6-1.1,1.4-1.1c0.6,0,1.1,0.2,1.4,0.6l-0.3,0.4c-0.3-0.3-0.7-0.5-1.2-0.5s-0.8,0.3-0.8,0.6c0,0.4,0.5,0.5,1,0.7
	c0.7,0.2,1.4,0.4,1.4,1.2c0,0.6-0.4,1.2-1.5,1.2c-0.7,0-1.2-0.3-1.5-0.6L326.5,186.5z"/>
<path class="st2" d="M312.9,194.6l-1-1.6h-0.8v1.6h-0.5v-4h1.6c0.7,0,1.3,0.5,1.3,1.2s-0.5,1.1-1,1.2l1.1,1.6H312.9L312.9,194.6z
	 M312,191.1h-1v1.5h1c0.5,0,0.8-0.3,0.8-0.8C312.9,191.4,312.6,191.1,312,191.1z"/>
<path class="st2" d="M316,190.6c1.2,0,2,0.9,2,2.1s-0.8,2.1-2,2.1s-2-0.9-2-2.1S314.9,190.6,316,190.6z M316,191
	c-0.9,0-1.5,0.7-1.5,1.6s0.6,1.6,1.5,1.6s1.5-0.7,1.5-1.6S317,191,316,191z"/>
<path class="st2" d="M320.7,190.6c1.2,0,2,0.9,2,2.1s-0.8,2.1-2,2.1s-2-0.9-2-2.1S319.5,190.6,320.7,190.6z M320.7,191
	c-0.9,0-1.5,0.7-1.5,1.6s0.6,1.6,1.5,1.6s1.5-0.7,1.5-1.6C322,191.7,321.6,191,320.7,191z"/>
<path class="st2" d="M326.8,194.6v-3.3l-1.4,3.3h-0.2l-1.4-3.3v3.3h-0.5v-4h0.7l1.2,3l1.2-3h0.7v4H326.8z"/>
<path class="st2" d="M110,235.1v-4h2.6v0.4h-2.1v1.3h2.1v0.4h-2.1v1.4h2.1v0.4H110V235.1z"/>
<path class="st2" d="M116.8,235.1v-3.3l-1.4,3.3h-0.2l-1.4-3.3v3.3h-0.5v-4h0.7l1.2,3l1.2-3h0.7v4H116.8z"/>
<path class="st2" d="M118.2,235.1v-4h2.6v0.4h-2.1v1.3h2.1v0.4h-2.1v1.4h2.1v0.4h-2.6V235.1z"/>
<path class="st2" d="M124,235.1l-1-1.6h-0.8v1.6h-0.5v-4h1.6c0.7,0,1.3,0.5,1.3,1.2s-0.5,1.1-1,1.2l1.1,1.6H124L124,235.1z
	 M123.2,231.5h-1v1.5h1c0.5,0,0.8-0.3,0.8-0.8C124,231.8,123.7,231.5,123.2,231.5z"/>
<path class="st2" d="M125.3,235.1v-4h0.5v4H125.3z"/>
<path class="st2" d="M127.7,235.1v-3.6h-1.3v-0.4h3v0.4h-1.3v3.6H127.7z"/>
<path class="st2" d="M130.2,231.1h0.5v2.4c0,0.7,0.4,1.2,1.1,1.2s1.1-0.5,1.1-1.2v-2.4h0.5v2.4c0,1-0.5,1.6-1.6,1.6
	s-1.6-0.6-1.6-1.6V231.1z"/>
<path class="st2" d="M134.4,234.1c0.3,0.3,0.7,0.6,1.3,0.6c0.7,0,0.9-0.4,0.9-0.7c0-0.5-0.5-0.6-1-0.8c-0.6-0.2-1.4-0.3-1.4-1.1
	c0-0.7,0.6-1.1,1.4-1.1c0.6,0,1.1,0.2,1.4,0.6l-0.3,0.4c-0.3-0.3-0.7-0.5-1.2-0.5s-0.8,0.3-0.8,0.6c0,0.4,0.5,0.5,1,0.7
	c0.7,0.2,1.4,0.4,1.4,1.2c0,0.6-0.4,1.2-1.5,1.2c-0.7,0-1.2-0.3-1.5-0.6L134.4,234.1z"/>
<path class="st2" d="M112.2,241.3c0.3,0.3,0.7,0.6,1.3,0.6c0.7,0,0.9-0.4,0.9-0.7c0-0.5-0.5-0.6-1-0.8c-0.6-0.2-1.4-0.3-1.4-1.1
	c0-0.7,0.6-1.1,1.4-1.1c0.6,0,1.1,0.2,1.4,0.6l-0.3,0.4c-0.3-0.3-0.7-0.5-1.2-0.5s-0.8,0.3-0.8,0.6c0,0.4,0.5,0.5,1,0.7
	c0.7,0.2,1.4,0.4,1.4,1.2c0,0.6-0.4,1.2-1.5,1.2c-0.7,0-1.2-0.3-1.5-0.6L112.2,241.3z"/>
<path class="st2" d="M117.5,238.2c1.2,0,2,0.9,2,2.1s-0.8,2.1-2,2.1s-2-0.9-2-2.1S116.3,238.2,117.5,238.2z M117.5,238.7
	c-0.9,0-1.5,0.7-1.5,1.6s0.6,1.6,1.5,1.6s1.5-0.7,1.5-1.6C118.9,239.3,118.4,238.7,117.5,238.7z"/>
<path class="st2" d="M120,240.3c0-1.2,0.9-2.1,2-2.1c0.7,0,1.2,0.3,1.5,0.8l-0.4,0.2c-0.2-0.3-0.6-0.6-1.1-0.6
	c-0.9,0-1.5,0.7-1.5,1.6s0.7,1.6,1.5,1.6c0.5,0,0.9-0.2,1.1-0.6l0.4,0.2c-0.3,0.5-0.8,0.8-1.5,0.8C121,242.4,120,241.5,120,240.3z"
	/>
<path class="st2" d="M124.3,242.3v-4h0.5v4H124.3z"/>
<path class="st2" d="M125.7,242.3v-4h2.6v0.4h-2.1v1.3h2.1v0.4h-2.1v1.4h2.1v0.4h-2.6C125.7,242.2,125.7,242.3,125.7,242.3z"/>
<path class="st2" d="M130,242.3v-3.6h-1.2v-0.4h3v0.4h-1.3v3.6H130z"/>
<path class="st2" d="M133.7,242.3v-1.7l-1.6-2.3h0.6l1.2,1.9l1.2-1.9h0.6l-1.6,2.3v1.7H133.7z"/>
<polyline class="st1" points="276.6,76.8 276.6,29.5 281.4,29.5 281.4,76.8 "/>
<line class="st12" x1="142.3" y1="237.6" x2="159" y2="238.4"/>
<circle class="st2" cx="161.5" cy="238.4" r="2.4"/>
<rect x="274" y="88.8" class="st0" width="20.2" height="45.7"/>
<rect x="265" y="83.4" class="st3" width="7.8" height="7.8"/>
<path class="st2" d="M28.5,99c1.1,0,1.8,0.8,1.8,1.9s-0.7,1.9-1.8,1.9s-1.8-0.8-1.8-1.9C26.6,99.8,27.4,99,28.5,99z M28.5,99.4
	c-0.8,0-1.3,0.6-1.3,1.5c0,0.8,0.5,1.5,1.3,1.5s1.3-0.6,1.3-1.5S29.3,99.4,28.5,99.4z"/>
<path class="st2" d="M31,102.7v-3.6h1.4c0.7,0,1.1,0.5,1.1,1.1s-0.4,1.1-1.1,1.1h-1v1.4H31z M32.4,99.5h-0.9v1.4h0.9
	c0.4,0,0.7-0.3,0.7-0.7C33.1,99.7,32.8,99.5,32.4,99.5z"/>
<path class="st2" d="M34.1,102.7v-3.6h2.4v0.4h-1.9v1.2h1.9v0.4h-1.9v1.2h1.9v0.4H34.1L34.1,102.7z"/>
<path class="st2" d="M39.8,102.7l-2.1-2.9v2.9h-0.4v-3.6h0.5l2.1,2.8v-2.8h0.4v3.6H39.8z"/>
<path class="st2" d="M31.8,109.1v-3.2h-1.1v-0.4h2.7v0.4h-1.1v3.2H31.8z"/>
<path class="st2" d="M36.1,105.5c1.1,0,1.8,0.8,1.8,1.9s-0.7,1.9-1.8,1.9s-1.8-0.8-1.8-1.9S35,105.5,36.1,105.5z M36.1,105.9
	c-0.8,0-1.3,0.6-1.3,1.5c0,0.8,0.5,1.5,1.3,1.5s1.3-0.6,1.3-1.5C37.4,106.5,36.9,105.9,36.1,105.9z"/>
<path class="st2" d="M24.6,115.6V112h1.6c0.6,0,1,0.4,1,0.9s-0.3,0.8-0.6,0.8c0.4,0.1,0.7,0.5,0.7,0.9c0,0.6-0.4,1-1,1
	C26.3,115.6,24.6,115.6,24.6,115.6z M25.1,113.6h1.1c0.4,0,0.6-0.2,0.6-0.6c0-0.3-0.2-0.6-0.6-0.6h-1.1V113.6z M25.1,115.2h1.1
	c0.4,0,0.7-0.2,0.7-0.6c0-0.3-0.2-0.6-0.7-0.6h-1.1V115.2z"/>
<path class="st2" d="M28.1,115.6V112h2.4v0.4h-1.9v1.2h1.9v0.4h-1.9v1.2h1.9v0.4H28.1L28.1,115.6z"/>
<path class="st2" d="M31.3,115.6V112h0.4v3.2h1.7v0.4H31.3L31.3,115.6z"/>
<path class="st2" d="M36,112c1.1,0,1.8,0.8,1.8,1.9s-0.7,1.9-1.8,1.9s-1.8-0.8-1.8-1.9C34.1,112.8,35,112,36,112z M36,112.4
	c-0.8,0-1.3,0.6-1.3,1.5c0,0.8,0.5,1.5,1.3,1.5s1.3-0.6,1.3-1.5C37.4,113,36.8,112.4,36,112.4z"/>
<path class="st2" d="M41.7,115.6l-0.8-2.9l-0.8,2.9h-0.5l-1-3.6h0.5l0.8,3l0.8-3h0.4l0.8,3l0.8-3h0.5l-1,3.6H41.7z"/>
<path class="st2" d="M273.8,72.8c0.2,0.3,0.6,0.5,1,0.5c0.5,0,0.8-0.2,0.8-0.6s-0.3-0.5-0.8-0.5c-0.2,0-0.4,0-0.4,0v-0.6
	c0.1,0,0.3,0,0.4,0c0.4,0,0.8-0.2,0.8-0.5s-0.3-0.5-0.8-0.5c-0.4,0-0.7,0.1-1,0.4l-0.3-0.4c0.3-0.3,0.7-0.6,1.4-0.6
	c0.8,0,1.4,0.4,1.4,1c0,0.5-0.4,0.8-0.8,0.9c0.4,0,0.9,0.3,0.9,0.9s-0.5,1.1-1.4,1.1c-0.7,0-1.2-0.3-1.4-0.6L273.8,72.8z"/>
<path class="st2" d="M276.9,73.8v-0.5c1.5-1.1,2-1.6,2-2.1c0-0.4-0.3-0.6-0.7-0.6c-0.4,0-0.8,0.2-1,0.5l-0.4-0.4
	c0.3-0.4,0.9-0.6,1.4-0.6c0.7,0,1.4,0.4,1.4,1.2c0,0.7-0.6,1.3-1.6,2.1h1.7V74h-2.8V73.8z"/>
<path class="st2" d="M281,71.9c-0.4-0.1-0.8-0.4-0.8-0.9c0-0.7,0.7-1,1.4-1c0.7,0,1.4,0.3,1.4,1c0,0.5-0.4,0.8-0.8,0.9
	c0.5,0.2,0.8,0.5,0.8,1c0,0.7-0.7,1-1.4,1c-0.8,0-1.4-0.4-1.4-1C280.2,72.4,280.5,72,281,71.9z M281.6,72.2c-0.2,0-0.8,0.2-0.8,0.6
	c0,0.3,0.3,0.5,0.8,0.5c0.4,0,0.8-0.2,0.8-0.5C282.4,72.4,281.8,72.2,281.6,72.2z M281.6,70.6c-0.4,0-0.7,0.2-0.7,0.5
	c0,0.4,0.5,0.5,0.7,0.5s0.7-0.2,0.7-0.5C282.3,70.8,282,70.6,281.6,70.6z"/>
<path class="st2" d="M70.3,73c0.2,0.3,0.6,0.5,1,0.5c0.5,0,0.8-0.2,0.8-0.6s-0.3-0.5-0.8-0.5c-0.2,0-0.4,0-0.4,0v-0.6
	c0.1,0,0.3,0,0.4,0c0.4,0,0.8-0.2,0.8-0.5s-0.3-0.5-0.8-0.5c-0.4,0-0.7,0.1-1,0.4L70,70.8c0.3-0.3,0.7-0.6,1.4-0.6
	c0.8,0,1.4,0.4,1.4,1c0,0.5-0.4,0.8-0.8,0.9c0.4,0,0.9,0.3,0.9,0.9s-0.5,1.1-1.4,1.1c-0.7,0-1.2-0.3-1.4-0.6L70.3,73z"/>
<path class="st2" d="M74,74v-2.9l-0.6,0.6L73,71.3l1.1-1.1h0.6V74C74.8,74,74,74,74,74z"/>
<path class="st2" d="M76.2,74v-2.9l-0.6,0.6l-0.4-0.4l1.1-1.1h0.6V74C76.9,74,76.2,74,76.2,74z"/>
<line class="st12" x1="84.2" y1="71.8" x2="271.6" y2="71.8"/>
<path class="st2" d="M119.6,161.9c0.2,0.3,0.6,0.5,1,0.5c0.5,0,0.8-0.2,0.8-0.6c0-0.4-0.3-0.5-0.8-0.5c-0.2,0-0.4,0-0.4,0v-0.6
	c0.1,0,0.3,0,0.4,0c0.4,0,0.8-0.2,0.8-0.5s-0.3-0.5-0.8-0.5c-0.4,0-0.7,0.1-1,0.4l-0.3-0.4c0.3-0.3,0.7-0.6,1.4-0.6
	c0.8,0,1.4,0.4,1.4,1c0,0.5-0.4,0.8-0.8,0.9c0.4,0,0.9,0.3,0.9,0.9c0,0.6-0.5,1.1-1.4,1.1c-0.7,0-1.2-0.3-1.4-0.6L119.6,161.9z"/>
<path class="st2" d="M124,159c1.1,0,1.5,1,1.5,1.9s-0.5,1.9-1.5,1.9s-1.5-1-1.5-1.9S123,159,124,159z M124,159.6
	c-0.6,0-0.8,0.6-0.8,1.4s0.2,1.4,0.8,1.4s0.8-0.6,0.8-1.4S124.7,159.6,124,159.6z"/>
<path class="st2" d="M126.9,162.9V160l-0.6,0.6l-0.4-0.4l1.1-1.1h0.6v3.8L126.9,162.9L126.9,162.9z"/>
<path class="st2" d="M38.6,162.1c0.2,0.3,0.6,0.5,1,0.5c0.5,0,0.8-0.2,0.8-0.6c0-0.4-0.3-0.5-0.8-0.5c-0.2,0-0.4,0-0.4,0v-0.6
	c0.1,0,0.3,0,0.4,0c0.4,0,0.8-0.2,0.8-0.5s-0.3-0.5-0.8-0.5c-0.4,0-0.7,0.1-1,0.4l-0.3-0.4c0.3-0.3,0.7-0.6,1.4-0.6
	c0.8,0,1.4,0.4,1.4,1c0,0.5-0.4,0.8-0.8,0.9c0.4,0,0.9,0.3,0.9,0.9c0,0.6-0.5,1.1-1.4,1.1c-0.7,0-1.2-0.3-1.4-0.6L38.6,162.1z"/>
<path class="st2" d="M42.4,163v-2.9l-0.6,0.6l-0.4-0.4l1.1-1.1h0.6v3.8L42.4,163L42.4,163z"/>
<path class="st2" d="M45.2,159.2c1.1,0,1.5,1,1.5,1.9s-0.5,1.9-1.5,1.9c-1.1,0-1.5-1-1.5-1.9S44.2,159.2,45.2,159.2z M45.2,159.8
	c-0.6,0-0.8,0.6-0.8,1.4s0.2,1.4,0.8,1.4s0.8-0.6,0.8-1.4S45.8,159.8,45.2,159.8z"/>
<line class="st12" x1="50.3" y1="160.9" x2="115.7" y2="160.9"/>
</svg>
