<?xml version="1.0" encoding="utf-8"?>
<!-- Generator: Adobe Illustrator 28.3.0, SVG Export Plug-In . SVG Version: 6.00 Build 0)  -->
<svg version="1.1" id="Layer_1" xmlns="http://www.w3.org/2000/svg" xmlns:xlink="http://www.w3.org/1999/xlink" x="0px" y="0px"
	 viewBox="0 0 392.2 260" style="enable-background:new 0 0 392.2 260;" xml:space="preserve">
<style type="text/css">
	.st0{fill:#D2D3D4;}
	.st1{fill:#010101;}
	.st2{fill:#FFFFFF;}
	.st3{fill:none;}
	.st4{fill:none;stroke:#FFFFFF;stroke-width:0.7882;stroke-linecap:round;stroke-linejoin:round;stroke-miterlimit:10;}
	.st5{fill:#595A5C;stroke:#595A5C;stroke-width:2.0045;stroke-linecap:round;stroke-linejoin:round;stroke-miterlimit:10;}
	.st6{fill:none;stroke:#FFFFFF;stroke-width:0.7943;stroke-linecap:round;stroke-linejoin:round;stroke-miterlimit:10;}
	.st7{fill:none;stroke:#FFFFFF;stroke-width:0.6513;stroke-linecap:round;stroke-linejoin:round;stroke-miterlimit:10;}
	.st8{fill:none;stroke:#FFFFFF;stroke-width:0.4599;stroke-linecap:round;stroke-linejoin:round;stroke-miterlimit:10;}
	.st9{fill:#595A5C;stroke:#FFFFFF;stroke-linecap:round;stroke-linejoin:round;stroke-miterlimit:10;}
	
		.st10{opacity:0.5;fill:#010101;stroke:#010101;stroke-width:2.3562;stroke-linecap:round;stroke-linejoin:round;stroke-miterlimit:10;enable-background:new    ;}
	.st11{fill:#FFFFFF;stroke:#FFFFFF;stroke-width:0.8278;stroke-linecap:round;stroke-linejoin:round;stroke-miterlimit:10;}
	.st12{fill:none;stroke:#FFFFFF;stroke-width:1.0022;stroke-linecap:round;stroke-linejoin:round;stroke-miterlimit:10;}
	.st13{fill:none;stroke:#010101;stroke-miterlimit:10;}
	
		.st14{opacity:0.5;fill:#010101;stroke:#010101;stroke-width:1.067;stroke-linecap:round;stroke-linejoin:round;stroke-miterlimit:10;enable-background:new    ;}
	
		.st15{opacity:0.5;fill:#010101;stroke:#010101;stroke-width:1.6124;stroke-linecap:round;stroke-linejoin:round;stroke-miterlimit:10;enable-background:new    ;}
	.st16{fill:#595A5C;stroke:#595A5C;stroke-width:0.2937;stroke-linecap:round;stroke-linejoin:round;stroke-miterlimit:10;}
	.st17{fill:none;stroke:#FFFFFF;stroke-width:0.2902;stroke-miterlimit:10;}
	.st18{enable-background:new    ;}
	.st19{fill:#231F20;}
	.st20{fill:none;stroke:#231F20;stroke-width:0.5;stroke-miterlimit:10;}
</style>
<rect x="97.6" y="145.6" class="st0" width="4.8" height="56"/>
<rect x="298.3" y="145.4" class="st0" width="4.6" height="30"/>
<rect x="296" y="55.9" class="st0" width="4.8" height="59.4"/>
<rect x="246.3" y="55.9" class="st0" width="4.6" height="58.9"/>
<rect x="153" y="13.1" class="st1" width="141.2" height="2.3"/>
<rect x="97.5" y="40.6" class="st1" width="5" height="4.9"/>
<rect x="147.1" y="40.6" class="st1" width="5" height="4.9"/>
<rect x="196.9" y="40.9" class="st1" width="5" height="4.9"/>
<rect x="246.1" y="40.9" class="st1" width="5" height="4.9"/>
<rect x="97.4" y="84.3" class="st1" width="5" height="5"/>
<rect x="147" y="84.3" class="st1" width="5" height="5"/>
<rect x="196.8" y="84.6" class="st1" width="5" height="5"/>
<rect x="97.4" y="127.5" class="st1" width="5" height="5"/>
<rect x="147.2" y="127.8" class="st1" width="5" height="5"/>
<rect x="48.6" y="170.7" class="st1" width="4.9" height="5"/>
<rect x="97.4" y="171" class="st1" width="5" height="5"/>
<rect x="143.8" y="25.1" class="st1" width="2.3" height="9.2"/>
<rect x="153" y="13.1" class="st1" width="2.3" height="21.2"/>
<rect x="143.8" y="32" class="st1" width="11.2" height="2.3"/>
<rect x="46.8" y="25.1" class="st1" width="2.3" height="16"/>
<rect x="9.9" y="65.5" class="st1" width="39.2" height="2.3"/>
<rect x="46.8" y="40.6" class="st1" width="6.3" height="7.4"/>
<rect x="48.6" y="84.3" class="st1" width="4.9" height="5"/>
<rect x="9.3" y="123.4" class="st1" width="39.5" height="2.3"/>
<rect x="48.6" y="127.8" class="st1" width="4.9" height="5"/>
<rect x="48" y="214.9" class="st1" width="7.4" height="6.3"/>
<rect x="103.2" y="244.9" class="st1" width="135.2" height="2.3"/>
<rect x="67.9" y="214.9" class="st1" width="19.2" height="2.3"/>
<rect x="93" y="214.9" class="st1" width="12.5" height="13"/>
<rect x="67.7" y="214.9" class="st1" width="2.3" height="32.2"/>
<rect x="103.2" y="216" class="st1" width="2.3" height="31.2"/>
<rect x="93" y="216.1" class="st1" width="2.3" height="31.2"/>
<rect x="67.9" y="244.9" class="st1" width="26.2" height="2.3"/>
<rect x="292.2" y="13.1" class="st1" width="2.3" height="21.2"/>
<rect x="302.3" y="13.1" class="st1" width="2.3" height="21.2"/>
<rect x="303.4" y="13.1" class="st1" width="26.2" height="2.3"/>
<rect x="327.4" y="14" class="st1" width="2.3" height="31.2"/>
<rect x="292.2" y="30.5" class="st1" width="12.4" height="14.7"/>
<rect x="311.9" y="43.2" class="st1" width="40.2" height="2.3"/>
<rect x="343.6" y="36.7" class="st1" width="25.2" height="2.3"/>
<rect x="343.6" y="37.9" class="st1" width="8.5" height="5.3"/>
<rect x="347.4" y="84" class="st1" width="5" height="5"/>
<rect x="246" y="83.8" class="st1" width="5" height="5"/>
<rect x="295.8" y="84.1" class="st1" width="5" height="5"/>
<rect x="196.6" y="127.5" class="st1" width="5" height="5"/>
<rect x="246.4" y="127.8" class="st1" width="5" height="5"/>
<rect x="297" y="127.3" class="st1" width="5" height="5"/>
<rect x="346.8" y="127.6" class="st1" width="5" height="4.1"/>
<rect x="298" y="170.5" class="st1" width="5" height="5"/>
<rect x="347.8" y="170.8" class="st1" width="5" height="5"/>
<rect x="298" y="213.7" class="st1" width="5" height="5"/>
<rect x="348.8" y="210.1" class="st1" width="8" height="8"/>
<rect x="354.4" y="210.1" class="st1" width="2.3" height="26.2"/>
<rect x="286.1" y="244.3" class="st1" width="2.3" height="3.2"/>
<rect x="279.4" y="244.3" class="st1" width="2.3" height="3.2"/>
<rect x="272.6" y="244.3" class="st1" width="2.3" height="3.2"/>
<rect x="265.9" y="244.3" class="st1" width="2.3" height="3.2"/>
<rect x="257.3" y="244.3" class="st1" width="2.3" height="3.2"/>
<rect x="250.5" y="244.3" class="st1" width="2.3" height="3.2"/>
<rect x="243.8" y="244.3" class="st1" width="2.3" height="3.2"/>
<rect x="293.5" y="225.1" class="st1" width="2.3" height="22.4"/>
<rect x="304" y="225.6" class="st1" width="2.3" height="11.4"/>
<rect x="293.9" y="225.1" class="st1" width="12.4" height="2.3"/>
<rect x="358.5" y="133.3" class="st1" width="21.4" height="2.3"/>
<rect x="359" y="122.9" class="st1" width="6.1" height="2.3"/>
<rect x="358.4" y="122.8" class="st1" width="2.3" height="12.4"/>
<rect x="347.8" y="189.9" class="st1" width="32.1" height="2.3"/>
<rect x="269.1" y="81.7" class="st2" width="4.7" height="4.7"/>
<rect x="200.1" y="141.5" class="st1" width="49.4" height="1.1"/>
<rect x="199.2" y="165" class="st1" width="50.4" height="1.1"/>
<rect x="248.6" y="141.7" class="st1" width="1.1" height="24.4"/>
<line class="st3" x1="199.1" y1="142" x2="200.3" y2="142"/>
<rect x="149.6" y="215.6" class="st1" width="100.4" height="1.1"/>
<rect x="149.1" y="141.4" class="st1" width="1.1" height="75.4"/>
<rect x="199.1" y="141.3" class="st1" width="1.1" height="24.4"/>
<rect x="199.2" y="179.9" class="st1" width="1.1" height="36.4"/>
<polyline class="st1" points="200.3,199.3 149.9,199.3 149.9,198.2 200.3,198.2 "/>
<rect x="233.9" y="141.6" class="st1" width="1.1" height="24.4"/>
<polyline class="st1" points="182,198.5 182,216 180.8,216 180.8,198.5 "/>
<polyline class="st1" points="164.2,199.1 164.2,216.5 163,216.5 163,199.1 "/>
<rect x="159.8" y="152.8" class="st1" width="1.1" height="31"/>
<rect x="147.7" y="181.6" class="st2" width="4.2" height="12.1"/>
<rect x="187.4" y="152.8" class="st1" width="1.1" height="30.4"/>
<rect x="159.8" y="182.7" class="st1" width="28.8" height="1.1"/>
<polyline class="st1" points="243.7,208.9 200.2,208.9 200.2,207.8 243.7,207.8 "/>
<polyline class="st1" points="242.4,216.4 242.4,180 243.5,180 243.5,216.4 "/>
<polyline class="st1" points="250.6,180.6 199.2,180.6 199.2,179.4 250.6,179.4 "/>
<polyline class="st1" points="249.2,216.8 249.2,180.3 250.4,180.3 250.4,216.8 "/>
<rect x="247.1" y="183.2" class="st2" width="4.2" height="12.1"/>
<rect x="249" y="200.2" class="st2" width="4.2" height="12.1"/>
<rect x="197.8" y="116.5" class="st2" width="6.3" height="6.3"/>
<rect x="264.4" y="86.4" class="st2" width="4.7" height="4.7"/>
<rect x="264" y="101.2" class="st2" width="4.7" height="4.7"/>
<rect x="264.4" y="118.8" class="st2" width="4.7" height="4.7"/>
<rect x="274.4" y="92" class="st2" width="4.7" height="4.7"/>
<rect x="273.8" y="108.6" class="st2" width="4.7" height="4.7"/>
<rect x="273.8" y="125" class="st2" width="4.7" height="4.7"/>
<rect x="349.3" y="192" class="st1" width="0.5" height="18.8"/>
<rect x="149" y="224.5" class="st1" width="30.4" height="1.1"/>
<polyline class="st1" points="178.4,246.4 178.4,216 179.6,216 179.6,246.4 "/>
<rect x="176.6" y="218.3" class="st2" width="4.7" height="4.7"/>
<rect x="217.5" y="218.3" class="st2" width="4.7" height="4.7"/>
<rect x="234.9" y="214.5" class="st2" width="4.7" height="4.7"/>
<polyline class="st1" points="150,225.4 150,245.8 148.9,245.8 148.9,225.4 "/>
<polyline class="st4" points="178.6,161.9 176.8,161.9 176.8,163.8 174.9,163.8 174.9,165.6 172.9,165.6 172.9,167.5 171,167.5 
	171,169.4 169.1,169.4 "/>
<rect x="184.6" y="201.5" class="st5" width="11.9" height="11.9"/>
<rect x="186.5" y="205.8" class="st6" width="8.1" height="5.9"/>
<path class="st2" d="M189,207.4c0,0.2-0.2,0.5-0.5,0.5s-0.5-0.2-0.5-0.5c0-0.2,0.2-0.5,0.5-0.5C188.8,207,189,207.2,189,207.4z"/>
<path class="st2" d="M191,207.5c0,0.2-0.2,0.4-0.5,0.4s-0.5-0.2-0.5-0.4s0.2-0.5,0.5-0.5S191,207.2,191,207.5z"/>
<path class="st2" d="M192.9,207.5c0,0.2-0.2,0.4-0.5,0.4s-0.5-0.2-0.5-0.4s0.2-0.5,0.5-0.5S192.9,207.2,192.9,207.5z"/>
<polyline class="st7" points="186.9,203 188.5,204.3 190,203 "/>
<polyline class="st7" points="194.5,204.2 192.9,203 191.3,204.2 "/>
<rect x="188.4" y="208.5" class="st8" width="0.3" height="1.8"/>
<rect x="190.4" y="208.5" class="st8" width="0.3" height="1.8"/>
<rect x="192.3" y="208.5" class="st8" width="0.3" height="1.8"/>
<rect x="75.2" y="225.2" class="st5" width="11.8" height="11.8"/>
<polyline class="st9" points="85.7,226.8 83.9,226.8 83.9,228.7 82,228.7 82,230.6 79.9,230.6 79.9,232.4 78.1,232.4 78.1,234.3 
	76.2,234.3 "/>
<rect x="166.6" y="201.5" class="st5" width="11.9" height="11.9"/>
<rect x="168.5" y="205.8" class="st6" width="8.1" height="5.9"/>
<path class="st2" d="M170.9,207.4c0,0.2-0.2,0.5-0.5,0.5s-0.5-0.2-0.5-0.5c0-0.2,0.2-0.5,0.5-0.5S170.9,207.2,170.9,207.4z"/>
<path class="st2" d="M173,207.5c0,0.2-0.2,0.4-0.5,0.4s-0.5-0.2-0.5-0.4s0.2-0.5,0.5-0.5S173,207.2,173,207.5z"/>
<path class="st2" d="M174.8,207.5c0,0.2-0.2,0.4-0.5,0.4s-0.5-0.2-0.5-0.4s0.2-0.5,0.5-0.5S174.8,207.2,174.8,207.5z"/>
<polyline class="st7" points="168.8,203 170.4,204.3 172,203 "/>
<polyline class="st7" points="176.4,204.2 174.8,203 173.2,204.2 "/>
<rect x="170.4" y="208.5" class="st8" width="0.3" height="1.8"/>
<rect x="172.3" y="208.5" class="st8" width="0.3" height="1.8"/>
<rect x="174.2" y="208.5" class="st8" width="0.3" height="1.8"/>
<rect x="200.2" y="142.6" class="st10" width="48.2" height="22.4"/>
<rect x="168.1" y="160.3" class="st5" width="11.8" height="11.8"/>
<polyline class="st9" points="178.6,161.9 176.8,161.9 176.8,163.8 174.9,163.8 174.9,165.6 172.9,165.6 172.9,167.5 171,167.5 
	171,169.4 169.1,169.4 "/>
<rect x="310.7" y="23.7" class="st5" width="11.8" height="11.8"/>
<polyline class="st9" points="321.2,25.3 319.3,25.3 319.3,27.2 317.5,27.2 317.5,29.1 315.4,29.1 315.4,30.9 313.6,30.9 
	313.6,32.8 311.7,32.8 "/>
<rect x="49.6" y="219.9" class="st1" width="18.8" height="0.5"/>
<rect x="204.1" y="188.3" class="st5" width="12" height="12"/>
<path class="st2" d="M211,190.8c0,0.6-0.5,1.1-1.1,1.1s-1.1-0.5-1.1-1.1s0.5-1.1,1.1-1.1S211,190.2,211,190.8z"/>
<rect x="209.5" y="192.7" class="st11" width="1.2" height="6.3"/>
<line class="st12" x1="207.6" y1="194.7" x2="209.5" y2="192.7"/>
<line class="st12" x1="210.7" y1="192.7" x2="212.5" y2="194.6"/>
<rect x="222.6" y="177.6" class="st2" width="6.4" height="4.7"/>
<polyline class="st1" points="249.4,198.5 243,198.5 243,197.4 249.4,197.4 "/>
<rect x="252.1" y="195.6" class="st2" width="4.7" height="4.7"/>
<rect x="257.9" y="55.1" class="st0" width="4.8" height="59.5"/>
<rect x="270.2" y="55.1" class="st0" width="4.2" height="59.7"/>
<rect x="309.6" y="55.1" class="st0" width="4.8" height="59.3"/>
<rect x="283" y="55.9" class="st0" width="4.8" height="59.4"/>
<rect x="323" y="145.4" class="st0" width="4.8" height="54.5"/>
<rect x="310.7" y="145.4" class="st0" width="4.8" height="54.8"/>
<rect x="285.4" y="145.7" class="st0" width="4.8" height="55.8"/>
<rect x="273" y="145.1" class="st0" width="4.8" height="56.1"/>
<rect x="83.3" y="146.1" class="st0" width="4.8" height="56"/>
<rect x="110.1" y="146.1" class="st0" width="4.8" height="56"/>
<rect x="49.1" y="40" class="st1" width="244.4" height="0.7"/>
<rect x="143.2" y="31.4" class="st1" width="12.4" height="9.1"/>
<rect x="102.4" y="67.8" class="st13" width="76.1" height="59.5"/>
<path class="st1" d="M127.2,97.1c1.2,0,2,0.9,2,2.1s-0.8,2.1-2,2.1s-2-0.9-2-2.1S126,97.1,127.2,97.1z M127.2,97.6
	c-0.9,0-1.5,0.7-1.5,1.6s0.6,1.6,1.5,1.6c0.9,0,1.5-0.7,1.5-1.6C128.7,98.2,128.1,97.6,127.2,97.6z"/>
<path class="st1" d="M130,101.2v-4h1.6c0.8,0,1.3,0.6,1.3,1.2c0,0.7-0.5,1.2-1.3,1.2h-1.1v1.6L130,101.2L130,101.2z M131.5,97.6h-1
	v1.5h1c0.5,0,0.8-0.3,0.8-0.8C132.3,97.9,132,97.6,131.5,97.6z"/>
<path class="st1" d="M133.5,101.2v-4h2.6v0.4H134v1.3h2.1v0.4H134v1.4h2.1v0.4L133.5,101.2L133.5,101.2z"/>
<path class="st1" d="M139.8,101.2l-2.3-3.2v3.2H137v-4h0.5l2.3,3.2v-3.2h0.5v4H139.8z"/>
<path class="st1" d="M143.7,101.2v-3.6h-1.3v-0.4h3v0.4h-1.3v3.6H143.7z"/>
<path class="st1" d="M147.8,97.1c1.2,0,2,0.9,2,2.1s-0.8,2.1-2,2.1s-2-0.9-2-2.1S146.6,97.1,147.8,97.1z M147.8,97.6
	c-0.9,0-1.5,0.7-1.5,1.6s0.6,1.6,1.5,1.6s1.5-0.7,1.5-1.6C149.3,98.2,148.7,97.6,147.8,97.6z"/>
<path class="st1" d="M116.4,108.4v-4h2.6v0.4h-2.1v1.3h2.1v0.4h-2.1v1.8L116.4,108.4L116.4,108.4z"/>
<path class="st1" d="M119.7,108.4v-4h0.5v3.6h1.9v0.4H119.7z"/>
<path class="st1" d="M124.4,104.3c1.2,0,2,0.9,2,2.1s-0.8,2.1-2,2.1s-2-0.9-2-2.1S123.2,104.3,124.4,104.3z M124.4,104.8
	c-0.9,0-1.5,0.7-1.5,1.6s0.6,1.6,1.5,1.6s1.5-0.7,1.5-1.6C125.9,105.4,125.3,104.8,124.4,104.8z"/>
<path class="st1" d="M129,104.3c1.2,0,2,0.9,2,2.1s-0.8,2.1-2,2.1s-2-0.9-2-2.1S127.8,104.3,129,104.3z M129,104.8
	c-0.9,0-1.5,0.7-1.5,1.6s0.6,1.6,1.5,1.6s1.5-0.7,1.5-1.6C130.5,105.4,129.9,104.8,129,104.8z"/>
<path class="st1" d="M134.1,108.4l-1-1.6h-0.8v1.6h-0.5v-4h1.6c0.7,0,1.3,0.5,1.3,1.2s-0.5,1.1-1,1.2l1.1,1.6L134.1,108.4
	L134.1,108.4z M133.3,104.8h-1v1.5h1c0.5,0,0.8-0.3,0.8-0.8C134.1,105.1,133.8,104.8,133.3,104.8z"/>
<path class="st1" d="M137,108.4v-4h1.8c0.7,0,1.1,0.4,1.1,1c0,0.5-0.3,0.8-0.7,0.9c0.4,0.1,0.8,0.5,0.8,1c0,0.6-0.4,1.1-1.2,1.1H137
	z M137.5,106.1h1.2c0.4,0,0.7-0.3,0.7-0.6c0-0.4-0.2-0.6-0.7-0.6h-1.2V106.1z M137.5,107.9h1.2c0.5,0,0.7-0.3,0.7-0.7
	c0-0.4-0.3-0.7-0.7-0.7h-1.2V107.9z"/>
<path class="st1" d="M140.7,108.4v-4h2.6v0.4h-2.1v1.3h2.1v0.4h-2.1v1.4h2.1v0.4L140.7,108.4L140.7,108.4z"/>
<path class="st1" d="M144.1,108.4v-4h0.5v3.6h1.9v0.4H144.1z"/>
<path class="st1" d="M148.8,104.3c1.2,0,2,0.9,2,2.1s-0.8,2.1-2,2.1s-2-0.9-2-2.1S147.6,104.3,148.8,104.3z M148.8,104.8
	c-0.9,0-1.5,0.7-1.5,1.6s0.6,1.6,1.5,1.6s1.5-0.7,1.5-1.6C150.3,105.4,149.7,104.8,148.8,104.8z"/>
<path class="st1" d="M154.5,108.4l-0.9-3.2l-0.9,3.2h-0.5l-1.1-4h0.6l0.9,3.3l0.9-3.3h0.4l0.9,3.3l0.9-3.3h0.6l-1.1,4H154.5z"/>
<path class="st1" d="M16.9,85c1.2,0,2,0.9,2,2.1s-0.8,2.1-2,2.1s-2-0.9-2-2.1S15.7,85,16.9,85z M16.9,85.5c-0.9,0-1.5,0.7-1.5,1.6
	s0.6,1.6,1.5,1.6s1.5-0.7,1.5-1.6C18.3,86.2,17.8,85.5,16.9,85.5z"/>
<path class="st1" d="M19.6,89.1v-4h1.6c0.8,0,1.3,0.6,1.3,1.2c0,0.7-0.5,1.2-1.3,1.2h-1.1v1.6L19.6,89.1L19.6,89.1z M21.2,85.5h-1
	V87h1c0.5,0,0.8-0.3,0.8-0.8C22,85.8,21.7,85.5,21.2,85.5z"/>
<path class="st1" d="M23.2,89.1v-4h2.6v0.4h-2.1v1.3h2.1v0.4h-2.1v1.4h2.1V89L23.2,89.1L23.2,89.1z"/>
<path class="st1" d="M29.4,89.1l-2.3-3.2v3.2h-0.5v-4h0.5l2.3,3.2v-3.2h0.5v4H29.4z"/>
<path class="st1" d="M33.4,89.1v-3.6h-1.3v-0.4h3v0.4h-1.3v3.6H33.4z"/>
<path class="st1" d="M37.4,85c1.2,0,2,0.9,2,2.1s-0.8,2.1-2,2.1s-2-0.9-2-2.1S36.3,85,37.4,85z M37.4,85.5c-0.9,0-1.5,0.7-1.5,1.6
	s0.6,1.6,1.5,1.6s1.5-0.7,1.5-1.6S38.3,85.5,37.4,85.5z"/>
<path class="st1" d="M17.9,96.3v-4h2.6v0.4h-2.1V94h2.1v0.4h-2.1v1.8L17.9,96.3L17.9,96.3z"/>
<path class="st1" d="M23,92.2c1.2,0,2,0.9,2,2.1s-0.8,2.1-2,2.1s-2-0.9-2-2.1S21.8,92.2,23,92.2z M23,92.7c-0.9,0-1.5,0.7-1.5,1.6
	s0.6,1.6,1.5,1.6s1.5-0.7,1.5-1.6C24.5,93.4,23.9,92.7,23,92.7z"/>
<path class="st1" d="M26.7,96.3v-1.7l-1.6-2.3h0.6l1.2,1.9l1.2-1.9h0.6l-1.6,2.3v1.7H26.7z"/>
<path class="st1" d="M29.3,96.3v-4h2.6v0.4h-2.1V94h2.1v0.4h-2.1v1.4h2.1v0.4L29.3,96.3L29.3,96.3z"/>
<path class="st1" d="M35,96.3l-1-1.6h-0.8v1.6h-0.5v-4h1.6c0.7,0,1.3,0.5,1.3,1.2s-0.5,1.1-1,1.2l1.1,1.6L35,96.3L35,96.3z
	 M34.2,92.7h-1v1.5h1c0.5,0,0.8-0.3,0.8-0.8C35,93,34.7,92.7,34.2,92.7z"/>
<path class="st1" d="M18.2,103.5v-4H20c0.7,0,1.1,0.4,1.1,1c0,0.5-0.3,0.8-0.7,0.9c0.4,0.1,0.8,0.5,0.8,1c0,0.6-0.4,1.1-1.2,1.1
	H18.2z M18.7,101.2h1.2c0.4,0,0.7-0.3,0.7-0.6c0-0.4-0.2-0.6-0.7-0.6h-1.2V101.2z M18.7,103h1.2c0.5,0,0.7-0.3,0.7-0.7
	c0-0.4-0.3-0.7-0.7-0.7h-1.2V103z"/>
<path class="st1" d="M22,103.5v-4h2.6v0.4h-2.1v1.3h2.1v0.4h-2.1v1.4h2.1v0.4L22,103.5L22,103.5z"/>
<path class="st1" d="M25.4,103.5v-4h0.5v3.6h1.9v0.4H25.4z"/>
<path class="st1" d="M30.1,99.4c1.2,0,2,0.9,2,2.1s-0.8,2.1-2,2.1s-2-0.9-2-2.1S28.9,99.4,30.1,99.4z M30.1,99.9
	c-0.9,0-1.5,0.7-1.5,1.6s0.6,1.6,1.5,1.6s1.5-0.7,1.5-1.6S31,99.9,30.1,99.9z"/>
<path class="st1" d="M35.8,103.5l-0.9-3.2l-0.9,3.2h-0.5l-1.1-4H33l0.9,3.3l0.9-3.3h0.4l0.9,3.3l0.9-3.3h0.6l-1.1,4H35.8z"/>
<rect x="9.5" y="65.6" class="st1" width="0.7" height="59.4"/>
<rect x="352.2" y="39.1" class="st1" width="0.7" height="152.4"/>
<rect x="352.2" y="122.8" class="st1" width="8.6" height="12.8"/>
<rect x="377.7" y="133.4" class="st1" width="2.3" height="58.1"/>
<path class="st1" d="M371.7,150.3c0,1.2-0.9,2-2.1,2s-2.1-0.8-2.1-2s0.9-2,2.1-2S371.7,149.1,371.7,150.3z M371.3,150.3
	c0-0.9-0.7-1.5-1.6-1.5s-1.6,0.6-1.6,1.5s0.7,1.5,1.6,1.5C370.6,151.7,371.3,151.2,371.3,150.3z"/>
<path class="st1" d="M367.7,153h4v1.6c0,0.8-0.6,1.3-1.2,1.3c-0.7,0-1.2-0.5-1.2-1.3v-1.1h-1.6L367.7,153L367.7,153z M371.2,154.6
	v-1h-1.5v1c0,0.5,0.3,0.8,0.8,0.8C370.9,155.4,371.2,155.1,371.2,154.6z"/>
<path class="st1" d="M367.7,156.6h4v2.6h-0.4v-2.1H370v2.1h-0.4v-2.1h-1.4v2.1h-0.4L367.7,156.6L367.7,156.6z"/>
<path class="st1" d="M367.7,162.8l3.2-2.3h-3.2V160h4v0.5l-3.2,2.3h3.2v0.5h-4V162.8z"/>
<path class="st1" d="M367.7,166.8h3.6v-1.3h0.4v3h-0.4v-1.3h-3.6V166.8z"/>
<path class="st1" d="M371.7,170.8c0,1.2-0.9,2-2.1,2s-2.1-0.8-2.1-2s0.9-2,2.1-2S371.7,169.7,371.7,170.8z M371.3,170.8
	c0-0.9-0.7-1.5-1.6-1.5s-1.6,0.6-1.6,1.5s0.7,1.5,1.6,1.5S371.3,171.7,371.3,170.8z"/>
<path class="st1" d="M360.5,139.5h4v2.6H364V140h-1.3v2.1h-0.4V140h-1.8L360.5,139.5L360.5,139.5z"/>
<path class="st1" d="M360.5,142.8h4v0.5h-3.6v1.9h-0.4V142.8z"/>
<path class="st1" d="M364.5,147.5c0,1.2-0.9,2-2.1,2s-2.1-0.8-2.1-2s0.9-2,2.1-2S364.5,146.3,364.5,147.5z M364.1,147.5
	c0-0.9-0.7-1.5-1.6-1.5s-1.6,0.6-1.6,1.5s0.7,1.5,1.6,1.5C363.4,148.9,364.1,148.3,364.1,147.5z"/>
<path class="st1" d="M364.5,152c0,1.2-0.9,2-2.1,2s-2.1-0.8-2.1-2s0.9-2,2.1-2S364.5,150.9,364.5,152z M364.1,152
	c0-0.9-0.7-1.5-1.6-1.5s-1.6,0.6-1.6,1.5s0.7,1.5,1.6,1.5S364.1,152.9,364.1,152z"/>
<path class="st1" d="M360.5,157.1l1.6-1v-0.8h-1.6v-0.5h4v1.6c0,0.7-0.5,1.3-1.2,1.3s-1.1-0.5-1.2-1l-1.6,1.1L360.5,157.1
	L360.5,157.1z M364,156.4v-1h-1.5v1c0,0.5,0.3,0.8,0.8,0.8C363.7,157.2,364,156.8,364,156.4z"/>
<path class="st1" d="M360.5,160h4v1.8c0,0.7-0.4,1.1-1,1.1c-0.5,0-0.8-0.3-0.9-0.7c-0.1,0.4-0.5,0.8-1,0.8c-0.6,0-1.1-0.4-1.1-1.2
	V160z M360.9,160.5v1.2c0,0.5,0.3,0.7,0.7,0.7s0.7-0.3,0.7-0.7v-1.2H360.9z M362.7,160.5v1.2c0,0.5,0.3,0.7,0.6,0.7
	c0.4,0,0.6-0.2,0.6-0.7v-1.2H362.7z"/>
<path class="st1" d="M360.5,163.8h4v2.6H364v-2.1h-1.3v2.1h-0.4v-2.1h-1.4v2.1h-0.4L360.5,163.8L360.5,163.8z"/>
<path class="st1" d="M360.5,167.2h4v0.5h-3.6v1.9h-0.4V167.2z"/>
<path class="st1" d="M364.5,171.9c0,1.2-0.9,2-2.1,2s-2.1-0.8-2.1-2s0.9-2,2.1-2S364.5,170.7,364.5,171.9z M364.1,171.9
	c0-0.9-0.7-1.5-1.6-1.5s-1.6,0.6-1.6,1.5s0.7,1.5,1.6,1.5C363.4,173.3,364.1,172.8,364.1,171.9z"/>
<path class="st1" d="M360.5,177.6l3.2-0.9l-3.2-0.9v-0.5l4-1.1v0.6l-3.3,0.9l3.3,0.9v0.4l-3.3,0.9l3.3,0.9v0.6l-4-1.1V177.6z"/>
<path class="st1" d="M188.8,25.6c1.2,0,2,0.9,2,2.1s-0.8,2.1-2,2.1s-2-0.9-2-2.1S187.6,25.6,188.8,25.6z M188.8,26.1
	c-0.9,0-1.5,0.7-1.5,1.6s0.6,1.6,1.5,1.6s1.5-0.7,1.5-1.6S189.7,26.1,188.8,26.1z"/>
<path class="st1" d="M191.6,29.7v-4h1.6c0.8,0,1.3,0.6,1.3,1.2c0,0.7-0.5,1.2-1.3,1.2h-1.1v1.6C192.1,29.7,191.6,29.7,191.6,29.7z
	 M193.1,26.2h-1v1.5h1c0.5,0,0.8-0.3,0.8-0.8C193.9,26.5,193.6,26.2,193.1,26.2z"/>
<path class="st1" d="M195.1,29.7v-4h2.6v0.4h-2.1v1.3h2.1v0.4h-2.1v1.4h2.1v0.4h-2.6V29.7z"/>
<path class="st1" d="M201.3,29.7l-2.3-3.2v3.2h-0.5v-4h0.5l2.3,3.2v-3.2h0.5v4H201.3z"/>
<path class="st1" d="M205.3,29.7v-3.6H204v-0.4h3v0.4h-1.3v3.6H205.3z"/>
<path class="st1" d="M209.4,25.6c1.2,0,2,0.9,2,2.1s-0.8,2.1-2,2.1s-2-0.9-2-2.1S208.2,25.6,209.4,25.6z M209.4,26.1
	c-0.9,0-1.5,0.7-1.5,1.6s0.6,1.6,1.5,1.6s1.5-0.7,1.5-1.6S210.3,26.1,209.4,26.1z"/>
<path class="st1" d="M213.7,29.7v-4h2.6v0.4h-2.1v1.3h2.1v0.4h-2.1v1.8h-0.5V29.7z"/>
<path class="st1" d="M217,29.7v-4h0.5v3.6h1.9v0.4H217z"/>
<path class="st1" d="M221.7,25.6c1.2,0,2,0.9,2,2.1s-0.8,2.1-2,2.1s-2-0.9-2-2.1S220.5,25.6,221.7,25.6z M221.7,26.1
	c-0.9,0-1.5,0.7-1.5,1.6s0.6,1.6,1.5,1.6s1.5-0.7,1.5-1.6S222.6,26.1,221.7,26.1z"/>
<path class="st1" d="M226.3,25.6c1.2,0,2,0.9,2,2.1s-0.8,2.1-2,2.1s-2-0.9-2-2.1S225.1,25.6,226.3,25.6z M226.3,26.1
	c-0.9,0-1.5,0.7-1.5,1.6s0.6,1.6,1.5,1.6s1.5-0.7,1.5-1.6C227.7,26.8,227.2,26.1,226.3,26.1z"/>
<path class="st1" d="M231.4,29.7l-1-1.6h-0.8v1.6H229v-4h1.6c0.7,0,1.3,0.5,1.3,1.2s-0.5,1.1-1,1.2l1.1,1.6
	C232,29.7,231.4,29.7,231.4,29.7z M230.6,26.2h-1v1.5h1c0.5,0,0.8-0.3,0.8-0.8C231.4,26.5,231.1,26.2,230.6,26.2z"/>
<path class="st1" d="M234.2,29.7v-4h1.8c0.7,0,1.1,0.4,1.1,1c0,0.5-0.3,0.8-0.7,0.9c0.4,0.1,0.8,0.5,0.8,1c0,0.6-0.4,1.1-1.2,1.1
	H234.2z M234.7,27.4h1.2c0.4,0,0.7-0.3,0.7-0.6c0-0.4-0.2-0.6-0.7-0.6h-1.2V27.4z M234.7,29.3h1.2c0.5,0,0.7-0.3,0.7-0.7
	s-0.3-0.7-0.7-0.7h-1.2V29.3z"/>
<path class="st1" d="M238,29.7v-4h2.6v0.4h-2.1v1.3h2.1v0.4h-2.1v1.4h2.1v0.4H238V29.7z"/>
<path class="st1" d="M241.4,29.7v-4h0.5v3.6h1.9v0.4H241.4z"/>
<path class="st1" d="M246.1,25.6c1.2,0,2,0.9,2,2.1s-0.8,2.1-2,2.1s-2-0.9-2-2.1S244.9,25.6,246.1,25.6z M246.1,26.1
	c-0.9,0-1.5,0.7-1.5,1.6s0.6,1.6,1.5,1.6s1.5-0.7,1.5-1.6S247,26.1,246.1,26.1z"/>
<path class="st1" d="M251.8,29.7l-0.9-3.2l-0.9,3.2h-0.5l-1.1-4h0.6l0.9,3.3l0.9-3.3h0.4l0.9,3.3l0.9-3.3h0.6l-1.1,4H251.8z"/>
<polygon class="st1" points="49,41.1 49,215.5 48.3,215.5 48.3,38.1 "/>
<rect x="220.2" y="180.5" class="st1" width="1.1" height="9.4"/>
<rect x="220.2" y="189.2" class="st1" width="9.4" height="1.1"/>
<rect x="293.5" y="218.3" class="st1" width="12.8" height="14.7"/>
<rect x="301.5" y="218" class="st1" width="54.4" height="0.7"/>
<rect x="46.8" y="176" class="st2" width="6.4" height="6.4"/>
<rect x="149.9" y="199.3" class="st14" width="13.2" height="16.8"/>
<rect x="149.9" y="226.6" class="st15" width="28.5" height="17.7"/>
<path class="st16" d="M64.2,207.5h-12c-0.5,0-0.9-0.4-0.9-0.9V191c0-0.5,0.4-0.9,0.9-0.9h12c0.5,0,0.9,0.4,0.9,0.9v15.6
	C65.2,207.1,64.7,207.5,64.2,207.5z"/>
<circle class="st2" cx="61.1" cy="197.7" r="0.5"/>
<circle class="st2" cx="62.8" cy="197.7" r="0.5"/>
<circle class="st2" cx="59.3" cy="197.7" r="0.5"/>
<circle class="st2" cx="61.1" cy="199.3" r="0.5"/>
<circle class="st2" cx="62.8" cy="199.3" r="0.5"/>
<circle class="st2" cx="59.3" cy="199.3" r="0.5"/>
<circle class="st2" cx="61" cy="200.8" r="0.5"/>
<circle class="st2" cx="62.8" cy="200.9" r="0.5"/>
<circle class="st2" cx="59.3" cy="200.8" r="0.5"/>
<rect x="52.8" y="192" class="st2" width="5.2" height="9.4"/>
<rect x="52.8" y="202.6" class="st2" width="11" height="1.4"/>
<circle class="st17" cx="61.1" cy="194.1" r="2.1"/>
<g class="st18">
	<path class="st2" d="M60.3,194.8l0.2-0.3c0.1,0.1,0.2,0.1,0.3,0.2c0.1,0,0.2,0.1,0.3,0.1s0.2,0,0.2-0.1s0.1-0.1,0.1-0.2
		s0-0.1-0.1-0.1c0,0-0.1-0.1-0.2-0.1c-0.1,0-0.2-0.1-0.2-0.1c-0.1,0-0.2-0.1-0.2-0.1c-0.1,0-0.1-0.1-0.2-0.2c0-0.1-0.1-0.1-0.1-0.2
		s0-0.3,0.1-0.3s0.2-0.1,0.4-0.2v-0.4h0.3v0.4c0.1,0,0.2,0,0.3,0.1c0.1,0,0.2,0.1,0.2,0.2l-0.2,0.2c-0.1-0.1-0.1-0.1-0.2-0.1
		c-0.1,0-0.2,0-0.3,0s-0.2,0-0.2,0.1c-0.1,0-0.1,0.1-0.1,0.2c0,0,0,0.1,0.1,0.1c0,0,0.1,0.1,0.2,0.1c0.1,0,0.2,0.1,0.2,0.1
		c0.1,0,0.2,0.1,0.2,0.1c0.1,0,0.1,0.1,0.2,0.2s0.1,0.2,0.1,0.3s0,0.3-0.1,0.4s-0.2,0.2-0.4,0.2v0.5h-0.3v-0.5c-0.1,0-0.2,0-0.3-0.1
		S60.4,194.8,60.3,194.8z"/>
</g>
<path class="st19" d="M80.2,191.8v-0.6c1.6-1.2,2.3-1.8,2.3-2.4c0-0.4-0.4-0.6-0.8-0.6c-0.5,0-0.9,0.2-1.1,0.5l-0.4-0.5
	c0.4-0.4,1-0.7,1.6-0.7c0.8,0,1.5,0.5,1.5,1.3s-0.7,1.5-1.8,2.3h1.9v0.7H80.2L80.2,191.8z"/>
<path class="st19" d="M84.9,191.8v-3.3l-0.7,0.7l-0.4-0.4l1.2-1.2h0.6v4.2H84.9L84.9,191.8z"/>
<path class="st19" d="M86.4,191.8v-0.6c1.6-1.2,2.3-1.8,2.3-2.4c0-0.4-0.4-0.6-0.8-0.6c-0.5,0-0.9,0.2-1.1,0.5l-0.4-0.5
	c0.4-0.4,1-0.7,1.6-0.7c0.8,0,1.5,0.5,1.5,1.3s-0.7,1.5-1.8,2.3h1.9v0.7H86.4L86.4,191.8z"/>
<line class="st20" x1="92.1" y1="189.6" x2="106" y2="189.6"/>
<path class="st19" d="M107.8,191.8v-0.6c1.6-1.2,2.3-1.8,2.3-2.4c0-0.4-0.4-0.6-0.8-0.6c-0.5,0-0.9,0.2-1.1,0.5l-0.4-0.5
	c0.4-0.4,1-0.7,1.6-0.7c0.8,0,1.5,0.5,1.5,1.3s-0.7,1.5-1.8,2.3h1.9v0.7H107.8L107.8,191.8z"/>
<path class="st19" d="M112.5,191.8v-3.3l-0.7,0.7l-0.4-0.4l1.2-1.2h0.6v4.2H112.5L112.5,191.8z"/>
<path class="st19" d="M115.9,191.8v-1h-2v-0.6l1.7-2.7h1v2.6h0.6v0.7h-0.6v1H115.9z M115.9,188.3l-1.3,2h1.3V188.3z"/>
<path class="st19" d="M269.8,190.7v-0.6c1.6-1.2,2.3-1.8,2.3-2.4c0-0.4-0.4-0.6-0.8-0.6c-0.5,0-0.9,0.2-1.1,0.5l-0.4-0.5
	c0.4-0.4,1-0.7,1.6-0.7c0.8,0,1.5,0.5,1.5,1.3s-0.7,1.5-1.8,2.3h1.9v0.7H269.8L269.8,190.7z"/>
<path class="st19" d="M275.2,186.4c1.2,0,1.7,1.1,1.7,2.2s-0.5,2.2-1.7,2.2s-1.7-1.1-1.7-2.2C273.6,187.6,274.1,186.4,275.2,186.4z
	 M275.2,187.1c-0.7,0-0.9,0.7-0.9,1.5s0.2,1.5,0.9,1.5c0.7,0,0.9-0.7,0.9-1.5C276.2,187.8,275.9,187.1,275.2,187.1z"/>
<path class="st19" d="M278.4,190.7v-3.3l-0.7,0.7l-0.4-0.4l1.2-1.2h0.6v4.2H278.4L278.4,190.7z"/>
<line class="st20" x1="281.1" y1="188.5" x2="319" y2="188.5"/>
<path class="st19" d="M320.9,190.7v-0.6c1.6-1.2,2.3-1.8,2.3-2.4c0-0.4-0.4-0.6-0.8-0.6c-0.5,0-0.9,0.2-1.1,0.5l-0.4-0.5
	c0.4-0.4,1-0.7,1.6-0.7c0.8,0,1.5,0.5,1.5,1.3s-0.7,1.5-1.8,2.3h1.9v0.7H320.9L320.9,190.7z"/>
<path class="st19" d="M326.3,186.4c1.2,0,1.7,1.1,1.7,2.2s-0.5,2.2-1.7,2.2s-1.7-1.1-1.7-2.2C324.6,187.6,325.1,186.4,326.3,186.4z
	 M326.3,187.1c-0.7,0-0.9,0.7-0.9,1.5s0.2,1.5,0.9,1.5s0.9-0.7,0.9-1.5S326.9,187.1,326.3,187.1z"/>
<path class="st19" d="M329,189.6c0.3,0.3,0.7,0.5,1.1,0.5c0.5,0,0.9-0.3,0.9-0.7c0-0.5-0.3-0.8-0.8-0.8c-0.4,0-0.7,0.1-0.9,0.4
	l-0.5-0.2v-2.4h2.8v0.7h-2v1.2c0.2-0.2,0.6-0.4,1-0.4c0.7,0,1.3,0.5,1.3,1.4s-0.7,1.4-1.6,1.4c-0.7,0-1.2-0.2-1.6-0.7L329,189.6z"/>
<path class="st19" d="M244.4,98.9v-0.6c1.6-1.2,2.3-1.8,2.3-2.4c0-0.4-0.4-0.6-0.8-0.6c-0.5,0-0.9,0.2-1.1,0.5l-0.4-0.5
	c0.4-0.4,1-0.7,1.6-0.7c0.8,0,1.5,0.5,1.5,1.3s-0.7,1.5-1.8,2.3h1.9v0.7L244.4,98.9L244.4,98.9z"/>
<path class="st19" d="M249.1,98.9v-3.3l-0.7,0.7l-0.4-0.4l1.2-1.2h0.6v4.2L249.1,98.9L249.1,98.9z"/>
<path class="st19" d="M251.5,98.9v-3.3l-0.7,0.7l-0.4-0.4l1.2-1.2h0.6v4.2L251.5,98.9L251.5,98.9z"/>
<line class="st20" x1="253.7" y1="96.7" x2="304.9" y2="96.7"/>
<path class="st19" d="M306.7,98.9v-0.6c1.6-1.2,2.3-1.8,2.3-2.4c0-0.4-0.4-0.6-0.8-0.6c-0.5,0-0.9,0.2-1.1,0.5l-0.4-0.5
	c0.4-0.4,1-0.7,1.6-0.7c0.8,0,1.5,0.5,1.5,1.3s-0.7,1.5-1.8,2.3h1.9v0.7L306.7,98.9L306.7,98.9z"/>
<path class="st19" d="M312.1,94.6c1.2,0,1.7,1.1,1.7,2.2s-0.5,2.2-1.7,2.2s-1.7-1.1-1.7-2.2S310.9,94.6,312.1,94.6z M312.1,95.2
	c-0.7,0-0.9,0.7-0.9,1.5s0.2,1.5,0.9,1.5c0.7,0,0.9-0.7,0.9-1.5C313.1,96,312.8,95.2,312.1,95.2z"/>
<path class="st19" d="M316.2,94.6c0.5,0,0.9,0.2,1.2,0.5l-0.3,0.6c-0.2-0.2-0.5-0.4-0.9-0.4c-0.7,0-1.1,0.7-1.1,1.4v0.1
	c0.2-0.3,0.6-0.6,1.1-0.6c0.8,0,1.4,0.5,1.4,1.4c0,0.8-0.6,1.4-1.6,1.4c-1.2,0-1.7-1-1.7-2.2C314.3,95.5,315,94.6,316.2,94.6z
	 M316,96.8c-0.4,0-0.7,0.2-0.9,0.5c0,0.5,0.3,1,0.9,1s0.8-0.4,0.8-0.7C316.9,97,316.5,96.8,316,96.8z"/>
</svg>
