<?xml version="1.0" encoding="utf-8"?>
<!-- Generator: Adobe Illustrator 28.3.0, SVG Export Plug-In . SVG Version: 6.00 Build 0)  -->
<svg version="1.1" id="Layer_1" xmlns="http://www.w3.org/2000/svg" xmlns:xlink="http://www.w3.org/1999/xlink" x="0px" y="0px"
	 viewBox="0 0 377.5 247" style="enable-background:new 0 0 377.5 247;" xml:space="preserve">
<style type="text/css">
	
		.st0{opacity:0.5;stroke:#000000;stroke-width:2.347;stroke-linecap:round;stroke-linejoin:round;stroke-miterlimit:10;enable-background:new    ;}
	.st1{fill:#FFFFFF;}
	.st2{fill:none;}
	.st3{fill:none;stroke:#FFFFFF;stroke-width:0.7882;stroke-linecap:round;stroke-linejoin:round;stroke-miterlimit:10;}
	.st4{fill:#58595B;stroke:#58595B;stroke-width:2.0045;stroke-linecap:round;stroke-linejoin:round;stroke-miterlimit:10;}
	.st5{fill:none;stroke:#FFFFFF;stroke-width:0.7943;stroke-linecap:round;stroke-linejoin:round;stroke-miterlimit:10;}
	.st6{fill:none;stroke:#FFFFFF;stroke-width:0.6513;stroke-linecap:round;stroke-linejoin:round;stroke-miterlimit:10;}
	.st7{fill:none;stroke:#FFFFFF;stroke-width:0.4599;stroke-linecap:round;stroke-linejoin:round;stroke-miterlimit:10;}
	.st8{fill:#58595B;stroke:#FFFFFF;stroke-linecap:round;stroke-linejoin:round;stroke-miterlimit:10;}
	.st9{fill:#FFFFFF;stroke:#FFFFFF;stroke-width:0.8278;stroke-linecap:round;stroke-linejoin:round;stroke-miterlimit:10;}
	.st10{fill:none;stroke:#FFFFFF;stroke-width:1.0022;stroke-linecap:round;stroke-linejoin:round;stroke-miterlimit:10;}
	
		.st11{opacity:0.5;stroke:#000000;stroke-width:1.067;stroke-linecap:round;stroke-linejoin:round;stroke-miterlimit:10;enable-background:new    ;}
	
		.st12{opacity:0.5;stroke:#000000;stroke-width:3.6029;stroke-linecap:round;stroke-linejoin:round;stroke-miterlimit:10;enable-background:new    ;}
	.st13{fill:none;stroke:#000000;stroke-miterlimit:10;}
	.st14{font-family:'ProximaNova-Semibold';}
	.st15{font-size:9px;}
	.st16{fill:#58595B;}
	.st17{fill:none;stroke:#58595B;stroke-width:1.5861;stroke-linecap:round;stroke-linejoin:round;stroke-miterlimit:10;}
	.st18{fill:none;stroke:#FFFFFF;stroke-width:1.6982;stroke-linecap:round;stroke-linejoin:round;stroke-miterlimit:10;}
	.st19{fill:none;stroke:#FFFFFF;stroke-width:0.3889;stroke-linecap:round;stroke-linejoin:round;stroke-miterlimit:10;}
	.st20{fill:none;stroke:#FFFFFF;stroke-width:0.3151;stroke-linecap:round;stroke-linejoin:round;stroke-miterlimit:10;}
	.st21{fill:none;stroke:#58595B;stroke-width:1.8485;stroke-linecap:round;stroke-linejoin:round;stroke-miterlimit:10;}
	.st22{font-family:'ProximaNova-Regular';}
	.st23{font-size:5.3336px;}
	.st24{fill:#58595B;stroke:#58595B;stroke-width:2;stroke-linecap:round;stroke-linejoin:round;}
	.st25{fill:#FFFFFF;stroke:#FFFFFF;stroke-width:0.73;stroke-linecap:round;stroke-linejoin:round;}
	.st26{fill:#FFFFFF;stroke:#FFFFFF;stroke-linecap:round;stroke-linejoin:round;}
	.st27{fill:none;stroke:#FFFFFF;stroke-linecap:round;stroke-linejoin:round;}
	.st28{font-size:6.2534px;}
	.st29{font-size:4.5244px;}
</style>
<rect x="193.8" y="133.1" class="st0" width="47.9" height="22.4"/>
<rect x="146.1" y="3.6" width="141.2" height="2.3"/>
<rect x="90.6" y="31.1" width="5" height="4.9"/>
<rect x="140.2" y="31.1" width="5" height="4.9"/>
<rect x="190" y="31.4" width="5" height="4.9"/>
<rect x="239.2" y="31.4" width="5" height="4.9"/>
<rect x="90.5" y="74.8" width="5" height="5"/>
<rect x="140.1" y="74.8" width="5" height="5"/>
<rect x="189.9" y="75.1" width="5" height="5"/>
<rect x="90.5" y="118" width="5" height="5"/>
<rect x="140.3" y="118.3" width="5" height="5"/>
<rect x="41.7" y="161.2" width="4.9" height="5"/>
<rect x="90.5" y="161.5" width="5" height="5"/>
<rect x="136.9" y="15.6" width="2.3" height="9.2"/>
<rect x="146.1" y="3.6" width="2.3" height="21.2"/>
<rect x="136.9" y="22.5" width="11.2" height="2.3"/>
<rect x="39.9" y="15.6" width="2.3" height="16"/>
<rect x="3" y="56" width="39.2" height="2.3"/>
<rect x="39.9" y="31.1" width="6.3" height="7.4"/>
<rect x="41.7" y="74.8" width="4.9" height="5"/>
<rect x="2.4" y="113.9" width="39.5" height="2.3"/>
<rect x="41.7" y="118.3" width="4.9" height="5"/>
<rect x="41.1" y="205.4" width="7.4" height="6.3"/>
<rect x="96.3" y="235.4" width="135.2" height="2.3"/>
<rect x="61" y="205.4" width="19.2" height="2.3"/>
<rect x="86.1" y="205.4" width="12.5" height="13"/>
<rect x="60.8" y="205.4" width="2.3" height="32.2"/>
<rect x="96.3" y="206.5" width="2.3" height="31.2"/>
<rect x="86.1" y="206.6" width="2.3" height="31.2"/>
<rect x="61" y="235.4" width="26.2" height="2.3"/>
<rect x="285.3" y="3.6" width="2.3" height="21.2"/>
<rect x="295.4" y="3.6" width="2.3" height="21.2"/>
<rect x="296.5" y="3.6" width="26.2" height="2.3"/>
<rect x="320.5" y="4.5" width="2.3" height="31.2"/>
<rect x="285.3" y="21" width="12.4" height="14.7"/>
<rect x="305" y="33.7" width="40.2" height="2.3"/>
<rect x="336.7" y="27.2" width="25.2" height="2.3"/>
<rect x="336.7" y="28.4" width="8.5" height="5.3"/>
<rect x="340.5" y="74.5" width="5" height="5"/>
<rect x="239.1" y="74.3" width="5" height="5"/>
<rect x="288.9" y="74.6" width="5" height="5"/>
<rect x="189.7" y="118" width="5" height="5"/>
<rect x="239.5" y="118.3" width="5" height="5"/>
<rect x="290.1" y="117.8" width="5" height="5"/>
<rect x="339.9" y="118.1" width="5" height="4.1"/>
<rect x="291.1" y="161" width="5" height="5"/>
<rect x="340.9" y="161.3" width="5" height="5"/>
<rect x="291.1" y="204.2" width="5" height="5"/>
<rect x="341.9" y="200.6" width="8" height="8"/>
<rect x="347.5" y="200.6" width="2.3" height="26.2"/>
<rect x="279.2" y="236.3" width="2.3" height="1.7"/>
<rect x="272.5" y="236.3" width="2.3" height="1.7"/>
<rect x="265.7" y="236.3" width="2.3" height="1.7"/>
<rect x="259" y="236.3" width="2.3" height="1.7"/>
<rect x="251.4" y="236.3" width="2.3" height="1.7"/>
<rect x="243.6" y="236.3" width="2.3" height="1.7"/>
<rect x="236.9" y="236.3" width="2.3" height="1.7"/>
<rect x="286.6" y="215.6" width="2.3" height="22.4"/>
<rect x="297.1" y="216.1" width="2.3" height="11.4"/>
<rect x="287" y="215.6" width="12.4" height="2.3"/>
<rect x="351.6" y="123.8" width="21.4" height="2.3"/>
<rect x="352.1" y="113.4" width="6.1" height="2.3"/>
<rect x="351.5" y="113.3" width="2.3" height="12.4"/>
<rect x="340.9" y="180.4" width="32.1" height="2.3"/>
<rect x="262.2" y="72.2" class="st1" width="4.7" height="4.7"/>
<rect x="193.2" y="132" width="49.4" height="1.1"/>
<rect x="192.3" y="155.5" width="50.4" height="1.1"/>
<rect x="241.7" y="132.2" width="1.1" height="24.4"/>
<line class="st2" x1="192.2" y1="132.5" x2="193.4" y2="132.5"/>
<rect x="142.7" y="206.1" width="100.4" height="1.1"/>
<rect x="142.2" y="143.9" width="1.1" height="63.4"/>
<rect x="192.2" y="131.8" width="1.1" height="24.4"/>
<rect x="192.3" y="170.4" width="1.1" height="36.4"/>
<polyline points="193.4,189.8 143,189.8 143,188.7 193.4,188.7 "/>
<polyline points="175.1,189 175.1,206.5 173.9,206.5 173.9,189 "/>
<polyline points="157.3,189.6 157.3,207 156.1,207 156.1,189.6 "/>
<rect x="152.9" y="143.3" width="1.1" height="31"/>
<rect x="140.8" y="172.1" class="st1" width="4.2" height="12.1"/>
<rect x="180.5" y="143.3" width="1.1" height="30.4"/>
<rect x="152.9" y="173.2" width="28.8" height="1.1"/>
<polyline points="236.8,199.4 193.3,199.4 193.3,198.3 236.8,198.3 "/>
<polyline points="235.5,206.9 235.5,170.5 236.6,170.5 236.6,206.9 "/>
<polyline points="243.7,171.1 192.3,171.1 192.3,169.9 243.7,169.9 "/>
<polyline points="242.3,207.3 242.3,170.8 243.5,170.8 243.5,207.3 "/>
<rect x="240.2" y="173.7" class="st1" width="4.2" height="12.1"/>
<rect x="242.1" y="190.7" class="st1" width="4.2" height="12.1"/>
<rect x="190.9" y="107" class="st1" width="6.3" height="6.3"/>
<rect x="257.5" y="76.9" class="st1" width="4.7" height="4.7"/>
<rect x="257.1" y="91.7" class="st1" width="4.7" height="4.7"/>
<rect x="257.5" y="109.3" class="st1" width="4.7" height="4.7"/>
<rect x="267.5" y="82.5" class="st1" width="4.7" height="4.7"/>
<rect x="266.9" y="99.1" class="st1" width="4.7" height="4.7"/>
<rect x="266.9" y="115.5" class="st1" width="4.7" height="4.7"/>
<rect x="342.4" y="182.5" width="0.5" height="18.8"/>
<rect x="142.1" y="215" width="145.4" height="1.1"/>
<polyline points="171.5,236.9 171.5,206.5 172.7,206.5 172.7,236.9 "/>
<rect x="169.7" y="208.8" class="st1" width="4.7" height="4.7"/>
<rect x="210.6" y="208.8" class="st1" width="4.7" height="4.7"/>
<rect x="228" y="205" class="st1" width="4.7" height="4.7"/>
<polyline points="143.1,215.9 143.1,236.3 142,236.3 142,215.9 "/>
<polyline class="st3" points="171.7,152.4 169.9,152.4 169.9,154.3 168,154.3 168,156.1 166,156.1 166,158 164.1,158 164.1,159.9 
	162.2,159.9 "/>
<rect x="177.7" y="192" class="st4" width="11.9" height="11.9"/>
<rect x="179.6" y="196.3" class="st5" width="8.1" height="5.9"/>
<path class="st1" d="M182.1,197.9c0,0.2-0.2,0.5-0.5,0.5s-0.5-0.2-0.5-0.5c0-0.2,0.2-0.5,0.5-0.5
	C181.9,197.5,182.1,197.7,182.1,197.9z"/>
<path class="st1" d="M184.1,198c0,0.2-0.2,0.4-0.5,0.4s-0.5-0.2-0.5-0.4s0.2-0.5,0.5-0.5S184.1,197.7,184.1,198z"/>
<path class="st1" d="M186,198c0,0.2-0.2,0.4-0.5,0.4s-0.5-0.2-0.5-0.4s0.2-0.5,0.5-0.5S186,197.7,186,198z"/>
<polyline class="st6" points="180,193.5 181.6,194.8 183.1,193.5 "/>
<polyline class="st6" points="187.6,194.7 186,193.5 184.4,194.7 "/>
<rect x="181.5" y="199" class="st7" width="0.3" height="1.8"/>
<rect x="183.5" y="199" class="st7" width="0.3" height="1.8"/>
<rect x="185.4" y="199" class="st7" width="0.3" height="1.8"/>
<g>
	<rect x="68.3" y="215.7" class="st4" width="11.8" height="11.8"/>
	<polyline class="st8" points="78.8,217.3 77,217.3 77,219.2 75.1,219.2 75.1,221.1 73,221.1 73,222.9 71.2,222.9 71.2,224.8 
		69.3,224.8 	"/>
</g>
<rect x="159.7" y="192" class="st4" width="11.9" height="11.9"/>
<rect x="161.6" y="196.3" class="st5" width="8.1" height="5.9"/>
<path class="st1" d="M164,197.9c0,0.2-0.2,0.5-0.5,0.5s-0.5-0.2-0.5-0.5c0-0.2,0.2-0.5,0.5-0.5S164,197.7,164,197.9z"/>
<path class="st1" d="M166.1,198c0,0.2-0.2,0.4-0.5,0.4s-0.5-0.2-0.5-0.4s0.2-0.5,0.5-0.5S166.1,197.7,166.1,198z"/>
<path class="st1" d="M167.9,198c0,0.2-0.2,0.4-0.5,0.4s-0.5-0.2-0.5-0.4s0.2-0.5,0.5-0.5S167.9,197.7,167.9,198z"/>
<polyline class="st6" points="161.9,193.5 163.5,194.8 165.1,193.5 "/>
<polyline class="st6" points="169.5,194.7 167.9,193.5 166.3,194.7 "/>
<rect x="163.5" y="199" class="st7" width="0.3" height="1.8"/>
<rect x="165.4" y="199" class="st7" width="0.3" height="1.8"/>
<rect x="167.3" y="199" class="st7" width="0.3" height="1.8"/>
<g>
	<rect x="161.2" y="150.8" class="st4" width="11.8" height="11.8"/>
	<polyline class="st8" points="171.7,152.4 169.9,152.4 169.9,154.3 168,154.3 168,156.1 166,156.1 166,158 164.1,158 164.1,159.9 
		162.2,159.9 	"/>
</g>
<g>
	<rect x="303.8" y="14.2" class="st4" width="11.8" height="11.8"/>
	<polyline class="st8" points="314.3,15.8 312.4,15.8 312.4,17.7 310.6,17.7 310.6,19.6 308.5,19.6 308.5,21.4 306.7,21.4 
		306.7,23.3 304.8,23.3 	"/>
</g>
<rect x="42.7" y="210.4" width="18.8" height="0.5"/>
<rect x="197.2" y="178.8" class="st4" width="12" height="12"/>
<path class="st1" d="M204.1,181.3c0,0.6-0.5,1.1-1.1,1.1s-1.1-0.5-1.1-1.1s0.5-1.1,1.1-1.1S204.1,180.7,204.1,181.3z"/>
<rect x="202.6" y="183.2" class="st9" width="1.2" height="6.3"/>
<line class="st10" x1="200.7" y1="185.2" x2="202.6" y2="183.2"/>
<line class="st10" x1="203.8" y1="183.2" x2="205.6" y2="185.1"/>
<rect x="221.7" y="168.1" class="st1" width="6.4" height="4.7"/>
<polyline points="242.5,189 236.1,189 236.1,187.9 242.5,187.9 "/>
<rect x="245.2" y="186.1" class="st1" width="4.7" height="4.7"/>
<rect x="42.2" y="30.5" width="244.4" height="0.7"/>
<rect x="136.3" y="21.9" width="12.4" height="9.1"/>
<rect x="2.6" y="56.1" width="0.7" height="59.4"/>
<rect x="345.3" y="29.6" width="0.7" height="152.4"/>
<rect x="345.3" y="113.3" width="8.6" height="12.8"/>
<rect x="370.8" y="123.9" width="2.3" height="58.1"/>
<polygon points="42.1,31.6 42.1,206 41.4,206 41.4,28.6 "/>
<rect x="213.6" y="170.9" width="1.1" height="28.4"/>
<rect x="286.6" y="208.8" width="12.8" height="14.7"/>
<rect x="294.6" y="208.5" width="54.4" height="0.7"/>
<rect x="39.9" y="166.5" class="st1" width="6.4" height="6.4"/>
<rect x="143" y="189.8" class="st11" width="13.2" height="16.8"/>
<rect x="143" y="217.1" class="st12" width="142.3" height="17.7"/>
<line class="st13" x1="142.2" y1="143.9" x2="42.1" y2="143.9"/>
<text transform="matrix(1 0 0 1 73.2504 180.1581)" class="st14 st15">ACCESS </text>
<text transform="matrix(1 0 0 1 69.2504 190.1581)" class="st14 st15">SERVICES</text>
<rect x="0.5" y="79.3" class="st1" width="5.6" height="9.5"/>
<rect x="0.7" y="90.4" class="st1" width="5.6" height="9.5"/>
<rect y="101.7" class="st1" width="5.6" height="9.5"/>
<rect x="38.7" y="79.8" class="st1" width="7.9" height="33.6"/>
<rect x="214.1" y="51.3" class="st16" width="9.5" height="9.5"/>
<rect x="214.1" y="51.3" class="st17" width="9.5" height="9.5"/>
<rect x="215.8" y="53" class="st1" width="6.2" height="4.1"/>
<rect x="215.8" y="53" class="st18" width="6.2" height="4.1"/>
<rect x="217.2" y="59.7" class="st1" width="3.2" height="0.5"/>
<rect x="217.2" y="59.7" class="st19" width="3.2" height="0.5"/>
<rect x="218" y="58.5" class="st1" width="1.6" height="0.6"/>
<rect x="218" y="58.5" class="st20" width="1.6" height="0.6"/>
<rect x="216.3" y="53.4" class="st16" width="5.2" height="3.2"/>
<rect x="216.3" y="53.4" class="st21" width="5.2" height="3.2"/>
<rect x="260.9" y="50.9" class="st16" width="9.5" height="9.5"/>
<rect x="260.9" y="50.9" class="st17" width="9.5" height="9.5"/>
<rect x="262.6" y="52.6" class="st1" width="6.2" height="4.1"/>
<rect x="262.6" y="52.6" class="st18" width="6.2" height="4.1"/>
<rect x="264" y="59.3" class="st1" width="3.2" height="0.5"/>
<rect x="264" y="59.3" class="st19" width="3.2" height="0.5"/>
<rect x="264.8" y="58" class="st1" width="1.6" height="0.6"/>
<rect x="264.8" y="58" class="st20" width="1.6" height="0.6"/>
<rect x="263.1" y="53" class="st16" width="5.2" height="3.2"/>
<rect x="263.1" y="53" class="st21" width="5.2" height="3.2"/>
<text transform="matrix(1 0 0 1 250.8734 14.0341)" class="st22 st23">CURRENT </text>
<text transform="matrix(1 0 0 1 255.7734 19.9341)" class="st22 st23">PRINT </text>
<text transform="matrix(1 0 0 1 249.1734 25.9341)" class="st22 st23">JOURNALS</text>
<g>
	<rect x="218.9" y="178.8" class="st24" width="12" height="12"/>
	<path class="st1" d="M225.8,181.3c0,0.6-0.5,1.1-1.1,1.1s-1.1-0.5-1.1-1.1s0.5-1.1,1.1-1.1S225.8,180.7,225.8,181.3z"/>
	<rect x="224.4" y="182.9" class="st25" width="0.9" height="6.8"/>
	<polyline class="st26" points="224.5,183.1 223.4,187.1 226.5,187 225.4,183.1 	"/>
	<line class="st27" x1="222.4" y1="185.2" x2="224.3" y2="183.2"/>
	<line class="st27" x1="225.5" y1="183.2" x2="227.3" y2="185.1"/>
</g>
<text transform="matrix(1 0 0 1 10.1472 95.1727)" class="st22 st28">COLLEGE AVE</text>
<text transform="matrix(1 0 0 1 14.9472 102.0727)" class="st22 st28">ENTRANCE</text>
<text transform="matrix(1 0 0 1 71.1475 58.0399)" class="st22 st28">STUDY SPACE</text>
<text transform="matrix(1 0 0 1 178.4977 19.0666)" class="st22 st23">REFERENCE</text>
<rect x="200.4" y="167.4" class="st1" width="6.4" height="4.7"/>
<text transform="matrix(1 0 0 1 134.7608 87.2081)" class="st22 st29">PUBLIC</text>
<text transform="matrix(1 0 0 1 133.3608 92.2081)" class="st22 st29">PRINTER</text>
</svg>
