<?xml version="1.0" encoding="utf-8"?>
<!-- Generator: Adobe Illustrator 28.3.0, SVG Export Plug-In . SVG Version: 6.00 Build 0)  -->
<svg version="1.1" id="Layer_1" xmlns="http://www.w3.org/2000/svg" xmlns:xlink="http://www.w3.org/1999/xlink" x="0px" y="0px"
	 viewBox="0 0 413.1 253" style="enable-background:new 0 0 413.1 253;" xml:space="preserve">
<style type="text/css">
	.st0{fill:#58595B;}
	.st1{fill:#D1D3D4;}
	.st2{fill:#231F20;}
	.st3{fill:#FFFFFF;}
	.st4{fill:none;stroke:#FFFFFF;stroke-width:0.79;stroke-linecap:round;stroke-linejoin:round;}
	.st5{fill:#58595B;stroke:#58595B;stroke-width:2;stroke-linecap:round;stroke-linejoin:round;}
	.st6{fill:none;stroke:#FFFFFF;stroke-width:0.65;stroke-linecap:round;stroke-linejoin:round;}
	.st7{fill:none;stroke:#FFFFFF;stroke-width:0.46;stroke-linecap:round;stroke-linejoin:round;}
	.st8{fill:#58595B;stroke:#FFFFFF;stroke-linecap:round;stroke-linejoin:round;}
	.st9{fill:#FFFFFF;stroke:#FFFFFF;stroke-width:0.73;stroke-linecap:round;stroke-linejoin:round;}
	.st10{fill:#FFFFFF;stroke:#FFFFFF;stroke-linecap:round;stroke-linejoin:round;}
	.st11{fill:none;stroke:#FFFFFF;stroke-linecap:round;stroke-linejoin:round;}
	.st12{fill:#FFFFFF;stroke:#FFFFFF;stroke-width:0.83;stroke-linecap:round;stroke-linejoin:round;}
	.st13{enable-background:new    ;}
	.st14{fill:#595A5C;}
	.st15{fill:none;stroke:#595A5C;stroke-width:1.88;stroke-linecap:round;stroke-linejoin:round;}
	.st16{fill:none;stroke:#FFFFFF;stroke-width:0.63;stroke-linecap:round;stroke-linejoin:round;}
	.st17{fill:none;stroke:#FFFFFF;stroke-width:1.31;stroke-linecap:round;stroke-linejoin:round;}
	.st18{fill:none;stroke:#FFFFFF;stroke-width:0.49;stroke-linecap:round;stroke-linejoin:round;}
	.st19{fill:none;stroke:#231F20;stroke-width:0.5;stroke-miterlimit:10;}
</style>
<rect x="266.7" y="194.2" class="st0" width="15.4" height="17"/>
<rect x="223.4" y="138.2" class="st0" width="49" height="22.4"/>
<rect x="71.9" y="141.4" class="st1" width="4.8" height="56"/>
<rect x="120.8" y="141.2" class="st1" width="4.8" height="56"/>
<rect x="321.5" y="141.1" class="st1" width="4.8" height="73.7"/>
<rect x="319.2" y="51.5" class="st1" width="4.8" height="59.3"/>
<rect x="369.7" y="50.8" class="st1" width="4.8" height="59.3"/>
<rect x="269.5" y="36.7" class="st1" width="4.8" height="73.7"/>
<rect x="220" y="22.8" class="st1" width="4.8" height="87.4"/>
<rect x="170.2" y="36.7" class="st1" width="4.8" height="47.8"/>
<rect x="70.9" y="79.4" class="st1" width="4.8" height="30.9"/>
<rect x="120.7" y="22.8" class="st1" width="4.8" height="87.6"/>
<rect x="99.1" y="8.8" class="st2" width="70.2" height="2.3"/>
<rect x="176.2" y="8.8" class="st2" width="70.2" height="2.3"/>
<rect x="120.7" y="36.2" class="st2" width="4.9" height="5"/>
<rect x="170.3" y="36.2" class="st2" width="4.9" height="5"/>
<rect x="220.1" y="36.5" class="st2" width="4.9" height="5"/>
<rect x="269.3" y="36.5" class="st2" width="5" height="5"/>
<rect x="120.6" y="79.9" class="st2" width="4.9" height="4.9"/>
<rect x="170.1" y="79.9" class="st2" width="4.9" height="4.9"/>
<rect x="219.9" y="80.2" class="st2" width="4.9" height="4.9"/>
<rect x="120.6" y="123.2" class="st2" width="4.9" height="4.9"/>
<rect x="170.4" y="123.4" class="st2" width="4.9" height="4.9"/>
<rect x="71.8" y="166.4" class="st2" width="4.9" height="4.9"/>
<rect x="120.6" y="166.6" class="st2" width="4.9" height="4.9"/>
<rect x="167" y="8.8" class="st2" width="2.3" height="21.2"/>
<rect x="176.2" y="8.8" class="st2" width="2.3" height="21.2"/>
<rect x="167" y="27.6" class="st2" width="11.2" height="2.3"/>
<rect x="91.3" y="8.8" class="st2" width="2.2" height="2.3"/>
<rect x="84.1" y="8.8" class="st2" width="2.2" height="2.3"/>
<rect x="77.1" y="8.8" class="st2" width="2.2" height="2.3"/>
<rect x="70" y="8.8" class="st2" width="2.3" height="28"/>
<rect x="5.1" y="61.2" class="st2" width="71.2" height="2.3"/>
<rect x="70" y="36.2" class="st2" width="6.3" height="7.4"/>
<rect x="70.8" y="79.9" class="st2" width="4.9" height="4.9"/>
<rect x="4.5" y="119.1" class="st2" width="43.5" height="2.3"/>
<rect x="71.8" y="123.4" class="st2" width="4.9" height="4.9"/>
<rect x="45.7" y="119.9" class="st2" width="2.3" height="11.2"/>
<rect x="41.5" y="214.6" class="st2" width="30.1" height="2.3"/>
<rect x="71.2" y="210.6" class="st2" width="7.4" height="6.3"/>
<rect x="41.5" y="128.9" class="st2" width="4.2" height="2.3"/>
<rect x="41.5" y="136.1" class="st2" width="2.5" height="2.3"/>
<rect x="41.5" y="142.9" class="st2" width="2.5" height="2.3"/>
<rect x="41.5" y="149.9" class="st2" width="2.5" height="2.3"/>
<rect x="41.5" y="156.6" class="st2" width="2.5" height="2.3"/>
<rect x="41.5" y="163.6" class="st2" width="2.5" height="2.3"/>
<rect x="41.5" y="170.4" class="st2" width="2.5" height="2.3"/>
<rect x="41.5" y="177.1" class="st2" width="2.5" height="2.3"/>
<rect x="41.5" y="183.9" class="st2" width="2.5" height="2.3"/>
<rect x="41.5" y="192.4" class="st2" width="2.5" height="2.3"/>
<rect x="41.5" y="199.2" class="st2" width="2.5" height="2.3"/>
<rect x="41.5" y="205.9" class="st2" width="2.5" height="2.3"/>
<rect x="126.4" y="240.6" class="st2" width="142.2" height="2.3"/>
<rect x="91.1" y="210.6" class="st2" width="19.2" height="2.3"/>
<rect x="116.2" y="210.6" class="st2" width="12.5" height="13"/>
<rect x="90.9" y="210.6" class="st2" width="2.3" height="32.2"/>
<rect x="126.4" y="211.6" class="st2" width="2.3" height="31.2"/>
<rect x="116.2" y="211.8" class="st2" width="2.3" height="31.2"/>
<rect x="91.1" y="240.6" class="st2" width="26.2" height="2.3"/>
<rect x="399.4" y="40" class="st2" width="3.2" height="2.3"/>
<rect x="399.4" y="46.8" class="st2" width="3.2" height="2.3"/>
<rect x="399.4" y="53.8" class="st2" width="3.2" height="2.3"/>
<rect x="399.4" y="60.5" class="st2" width="3.2" height="2.3"/>
<rect x="399.4" y="67.4" class="st2" width="3.2" height="2.3"/>
<rect x="399.4" y="74.2" class="st2" width="3.2" height="2.3"/>
<rect x="399.4" y="80.9" class="st2" width="3.2" height="2.3"/>
<rect x="399.4" y="87.8" class="st2" width="3.2" height="2.3"/>
<rect x="399.4" y="95.4" class="st2" width="3.2" height="2.3"/>
<rect x="399.4" y="103.2" class="st2" width="3.2" height="2.3"/>
<rect x="399.4" y="109.8" class="st2" width="3.2" height="2.3"/>
<rect x="252.2" y="8.8" class="st2" width="2.3" height="2.3"/>
<rect x="259" y="8.8" class="st2" width="2.3" height="2.3"/>
<rect x="266" y="8.8" class="st2" width="2.3" height="2.3"/>
<rect x="272.7" y="8.8" class="st2" width="2.3" height="2.3"/>
<rect x="279.7" y="8.8" class="st2" width="2.3" height="2.3"/>
<rect x="286.5" y="8.8" class="st2" width="2.3" height="2.3"/>
<rect x="293.2" y="8.8" class="st2" width="2.3" height="2.3"/>
<rect x="300" y="8.8" class="st2" width="2.3" height="2.3"/>
<rect x="308.6" y="8.8" class="st2" width="2.3" height="2.3"/>
<rect x="315.4" y="8.8" class="st2" width="2.3" height="21.2"/>
<rect x="325.5" y="8.8" class="st2" width="2.3" height="21.2"/>
<rect x="326.6" y="8.8" class="st2" width="26.2" height="2.3"/>
<rect x="350.6" y="9.7" class="st2" width="2.3" height="31.2"/>
<rect x="315.4" y="26.1" class="st2" width="12.4" height="14.7"/>
<rect x="335.1" y="38.8" class="st2" width="40.2" height="2.3"/>
<rect x="366.8" y="32.4" class="st2" width="36.2" height="2.3"/>
<rect x="366.8" y="33.5" class="st2" width="8.5" height="5.3"/>
<rect x="369.6" y="79.7" class="st2" width="5" height="4.9"/>
<rect x="269.1" y="79.4" class="st2" width="5" height="4.9"/>
<rect x="319" y="79.8" class="st2" width="5" height="4.9"/>
<rect x="219.8" y="123.2" class="st2" width="4.9" height="4.9"/>
<rect x="269.6" y="123.4" class="st2" width="5" height="4.9"/>
<rect x="320.2" y="122.9" class="st2" width="5" height="4.9"/>
<rect x="370" y="123.2" class="st2" width="5" height="4.1"/>
<rect x="321.2" y="166.1" class="st2" width="5" height="4.9"/>
<rect x="371" y="166.4" class="st2" width="5" height="4.9"/>
<rect x="321.2" y="209.4" class="st2" width="5" height="4.9"/>
<rect x="372" y="205.8" class="st2" width="8" height="7.9"/>
<rect x="327.1" y="240.4" class="st2" width="52.8" height="2.3"/>
<rect x="377.6" y="205.8" class="st2" width="2.3" height="36.2"/>
<rect x="309.3" y="239.9" class="st2" width="2.3" height="3.2"/>
<rect x="302.6" y="239.9" class="st2" width="2.3" height="3.2"/>
<rect x="295.8" y="239.9" class="st2" width="2.3" height="3.2"/>
<rect x="289.1" y="239.9" class="st2" width="2.3" height="3.2"/>
<rect x="280.5" y="239.9" class="st2" width="2.3" height="3.2"/>
<rect x="273.7" y="239.9" class="st2" width="2.3" height="3.2"/>
<rect x="316.7" y="220.8" class="st2" width="2.3" height="22.4"/>
<rect x="327.1" y="221.2" class="st2" width="2.3" height="21.4"/>
<rect x="317.1" y="220.8" class="st2" width="12.4" height="2.3"/>
<rect x="381.6" y="128.9" class="st2" width="21.4" height="2.3"/>
<rect x="382.2" y="118.6" class="st2" width="21.1" height="2.3"/>
<rect x="381.6" y="118.4" class="st2" width="2.3" height="12.4"/>
<rect x="400" y="135.4" class="st2" width="3.2" height="2.3"/>
<rect x="400" y="142.1" class="st2" width="3.2" height="2.3"/>
<rect x="400" y="149.1" class="st2" width="3.2" height="2.3"/>
<rect x="400" y="155.9" class="st2" width="3.2" height="2.3"/>
<rect x="400" y="162.9" class="st2" width="3.2" height="2.3"/>
<rect x="400" y="169.6" class="st2" width="3.2" height="2.3"/>
<rect x="400" y="176.4" class="st2" width="3.2" height="2.3"/>
<rect x="371" y="185.6" class="st2" width="32.1" height="2.3"/>
<rect x="292.3" y="77.4" class="st3" width="4.7" height="4.7"/>
<rect x="172.3" y="137.1" class="st2" width="100.4" height="1.1"/>
<rect x="222.4" y="160.6" class="st2" width="50.4" height="1.1"/>
<rect x="271.8" y="128.3" class="st2" width="1.1" height="33.4"/>
<rect x="172.8" y="211.2" class="st2" width="109.4" height="1.1"/>
<rect x="172.3" y="137.1" class="st2" width="1.1" height="75.4"/>
<rect x="174.1" y="135.4" class="st3" width="9.9" height="3.5"/>
<rect x="211.2" y="135.9" class="st3" width="9.9" height="3.5"/>
<rect x="198.7" y="135.9" class="st3" width="9.9" height="3.5"/>
<rect x="186.4" y="135.4" class="st3" width="9.9" height="3.5"/>
<rect x="222.3" y="136.9" class="st2" width="1.1" height="24.4"/>
<rect x="222.3" y="175.6" class="st2" width="1.1" height="36.4"/>
<polyline class="st2" points="223.5,194.9 173.1,194.9 173.1,193.9 223.5,193.9 "/>
<polyline class="st2" points="205.2,194.1 205.2,211.6 204,211.6 204,194.1 "/>
<polyline class="st2" points="187.4,194.8 187.4,212.1 186.2,212.1 186.2,194.8 "/>
<rect x="182.9" y="148.4" class="st2" width="1.1" height="31"/>
<rect x="170.9" y="177.2" class="st3" width="4.2" height="12.1"/>
<rect x="210.6" y="148.4" class="st2" width="1.1" height="30.4"/>
<rect x="183" y="178.4" class="st2" width="28.8" height="1.1"/>
<polyline class="st2" points="266.9,204.6 223.4,204.6 223.4,203.4 266.9,203.4 "/>
<polyline class="st2" points="265.5,212.1 265.5,175.6 266.7,175.6 266.7,212.1 "/>
<polyline class="st2" points="273.9,176.2 222.4,176.2 222.4,175.1 273.9,175.1 "/>
<polyline class="st2" points="272.4,193.4 272.4,175.9 273.6,175.9 273.6,193.4 "/>
<rect x="221" y="112.2" class="st3" width="6.3" height="6.3"/>
<rect x="269.5" y="129.8" class="st3" width="4.7" height="4.7"/>
<rect x="287.6" y="82.1" class="st3" width="4.7" height="4.7"/>
<rect x="287.2" y="96.8" class="st3" width="4.7" height="4.7"/>
<rect x="287.6" y="114.4" class="st3" width="4.7" height="4.7"/>
<rect x="297.6" y="87.7" class="st3" width="4.7" height="4.7"/>
<rect x="297" y="104.2" class="st3" width="4.7" height="4.7"/>
<rect x="297" y="120.7" class="st3" width="4.7" height="4.7"/>
<rect x="372.5" y="187.6" class="st2" width="0.5" height="18.8"/>
<rect x="172.2" y="220.1" class="st2" width="96.4" height="1.1"/>
<polyline class="st2" points="242.4,242.9 242.4,211.4 243.6,211.4 243.6,242.9 "/>
<polyline class="st2" points="201.6,242.1 201.6,211.6 202.8,211.6 202.8,242.1 "/>
<rect x="199.8" y="213.9" class="st3" width="4.7" height="4.7"/>
<rect x="240.6" y="213.9" class="st3" width="4.7" height="4.7"/>
<rect x="258" y="210.1" class="st3" width="4.7" height="4.7"/>
<rect x="259.6" y="218.6" class="st3" width="6.4" height="4.7"/>
<rect x="174.1" y="218.9" class="st3" width="6.4" height="4.7"/>
<rect x="73.5" y="42.5" class="st2" width="0.5" height="18.8"/>
<polyline class="st2" points="173.2,221.1 173.2,241.4 172.1,241.4 172.1,221.1 "/>
<polyline class="st2" points="269,220.4 269,240.9 267.8,240.9 267.8,220.4 "/>
<polyline class="st4" points="201.8,157.6 200,157.6 200,159.4 198.1,159.4 198.1,161.2 196.1,161.2 196.1,163.1 194.2,163.1 
	194.2,165.1 192.3,165.1 "/>
<rect x="207.8" y="197.1" class="st5" width="11.9" height="11.9"/>
<rect x="209.7" y="201.4" class="st4" width="8.1" height="5.9"/>
<path class="st3" d="M212.2,203.1c0,0.2-0.2,0.4-0.4,0.4s-0.4-0.2-0.4-0.4s0.2-0.4,0.4-0.4S212.2,202.9,212.2,203.1z"/>
<path class="st3" d="M214.2,203.1c0,0.2-0.2,0.4-0.4,0.4s-0.4-0.2-0.4-0.4s0.2-0.4,0.4-0.4S214.2,202.9,214.2,203.1z"/>
<path class="st3" d="M216.1,203.1c0,0.2-0.2,0.4-0.4,0.4s-0.4-0.2-0.4-0.4s0.2-0.4,0.4-0.4S216.1,202.9,216.1,203.1z"/>
<polyline class="st6" points="210.1,198.6 211.6,199.9 213.2,198.6 "/>
<polyline class="st6" points="217.7,199.9 216.1,198.6 214.5,199.9 "/>
<rect x="211.6" y="204.1" class="st7" width="0.3" height="1.8"/>
<rect x="213.6" y="204.1" class="st7" width="0.3" height="1.8"/>
<rect x="215.5" y="204.1" class="st7" width="0.3" height="1.8"/>
<g>
	<rect x="98.4" y="220.9" class="st5" width="11.8" height="11.8"/>
	<polyline class="st8" points="108.9,222.4 107,222.4 107,224.4 105.2,224.4 105.2,226.1 103.1,226.1 103.1,228.1 101.3,228.1 
		101.3,229.9 99.4,229.9 	"/>
</g>
<rect x="189.8" y="197.1" class="st5" width="11.9" height="11.9"/>
<rect x="191.7" y="201.4" class="st4" width="8.1" height="5.9"/>
<path class="st3" d="M194.1,203.1c0,0.2-0.2,0.4-0.4,0.4s-0.4-0.2-0.4-0.4s0.2-0.4,0.4-0.4S194.1,202.9,194.1,203.1z"/>
<path class="st3" d="M196.1,203.1c0,0.2-0.2,0.4-0.4,0.4s-0.4-0.2-0.4-0.4s0.2-0.4,0.4-0.4S196.1,202.9,196.1,203.1z"/>
<path class="st3" d="M198,203.1c0,0.2-0.2,0.4-0.4,0.4s-0.4-0.2-0.4-0.4s0.2-0.4,0.4-0.4S198,202.9,198,203.1z"/>
<polyline class="st6" points="192,198.6 193.6,199.9 195.2,198.6 "/>
<polyline class="st6" points="199.6,199.9 198,198.6 196.4,199.9 "/>
<rect x="193.5" y="204.1" class="st7" width="0.3" height="1.8"/>
<rect x="195.5" y="204.1" class="st7" width="0.3" height="1.8"/>
<rect x="197.4" y="204.1" class="st7" width="0.3" height="1.8"/>
<g>
	<rect x="227.7" y="184.1" class="st5" width="12" height="12"/>
	<path class="st3" d="M234.6,186.6c0,0.6-0.5,1.1-1.1,1.1s-1.1-0.5-1.1-1.1s0.5-1.1,1.1-1.1S234.6,185.9,234.6,186.6z"/>
	<rect x="233.2" y="188.1" class="st9" width="0.9" height="6.8"/>
	<polyline class="st10" points="233.3,188.4 232.2,192.4 235.3,192.2 234.2,188.4 	"/>
	<line class="st11" x1="231.2" y1="190.4" x2="233.1" y2="188.4"/>
	<line class="st11" x1="234.3" y1="188.4" x2="236.1" y2="190.4"/>
</g>
<g>
	<rect x="191.3" y="155.9" class="st5" width="11.8" height="11.8"/>
	<polyline class="st8" points="201.8,157.6 200,157.6 200,159.4 198.1,159.4 198.1,161.2 196.1,161.2 196.1,163.1 194.2,163.1 
		194.2,165.1 192.3,165.1 	"/>
</g>
<g>
	<rect x="333.9" y="19.4" class="st5" width="11.8" height="11.8"/>
	<polyline class="st8" points="344.4,21 342.5,21 342.5,22.9 340.7,22.9 340.7,24.8 338.6,24.8 338.6,26.5 336.7,26.5 336.7,28.5 
		334.9,28.5 	"/>
</g>
<rect x="5.1" y="69.3" class="st2" width="2.5" height="2.3"/>
<rect x="5.1" y="76.2" class="st2" width="2.5" height="2.3"/>
<rect x="5.1" y="83.2" class="st2" width="2.5" height="2.3"/>
<rect x="5.1" y="89.8" class="st2" width="2.5" height="2.3"/>
<rect x="5.1" y="96.8" class="st2" width="2.5" height="2.3"/>
<rect x="5.1" y="103.7" class="st2" width="2.5" height="2.3"/>
<rect x="5.1" y="110.3" class="st2" width="2.5" height="2.3"/>
<rect x="71.8" y="215.6" class="st2" width="18.8" height="0.5"/>
<rect x="206.5" y="218.6" class="st3" width="6.4" height="4.7"/>
<rect x="249" y="183.4" class="st5" width="12" height="12"/>
<path class="st3" d="M255.9,186.1c0,0.6-0.5,1.1-1.1,1.1s-1.1-0.5-1.1-1.1s0.5-1.1,1.1-1.1S255.9,185.4,255.9,186.1z"/>
<rect x="254.4" y="187.9" class="st12" width="1.2" height="6.3"/>
<line class="st11" x1="252.5" y1="189.9" x2="254.4" y2="187.9"/>
<line class="st11" x1="255.6" y1="187.9" x2="257.4" y2="189.8"/>
<polyline class="st2" points="243.8,203.6 243.8,176.1 244.9,176.1 244.9,203.6 "/>
<rect x="236.5" y="172.8" class="st3" width="6.4" height="4.7"/>
<rect x="245.8" y="173.2" class="st3" width="6.4" height="4.7"/>
<polyline class="st2" points="282.6,194.1 272.2,194.1 272.2,193.1 282.6,193.1 "/>
<polyline class="st2" points="281.7,212.4 281.7,192.9 282.9,192.9 282.9,212.4 "/>
<rect x="109.1" y="36.7" class="st1" width="4.8" height="73.7"/>
<rect x="96.7" y="36.7" class="st1" width="4.8" height="73.7"/>
<rect x="84.3" y="79.4" class="st1" width="4.8" height="30.9"/>
<rect x="58" y="79.4" class="st1" width="4.8" height="30.9"/>
<rect x="133.4" y="22.8" class="st1" width="4.8" height="87.6"/>
<rect x="144.9" y="22.8" class="st1" width="4.8" height="87.6"/>
<rect x="157.5" y="36.3" class="st1" width="4.8" height="73.7"/>
<rect x="183.2" y="22.8" class="st1" width="4.8" height="87.6"/>
<rect x="195" y="22.8" class="st1" width="4.8" height="87.4"/>
<rect x="208" y="22.8" class="st1" width="4.2" height="87.6"/>
<rect x="233.2" y="22.8" class="st1" width="4.8" height="87.4"/>
<rect x="245.6" y="36.7" class="st1" width="4.8" height="73.7"/>
<rect x="257.4" y="36.7" class="st1" width="4.8" height="73.7"/>
<rect x="281.1" y="36.5" class="st1" width="4.8" height="73.7"/>
<rect x="293.5" y="36.8" class="st1" width="4.8" height="73.7"/>
<rect x="358.3" y="50.8" class="st1" width="4.8" height="59.3"/>
<rect x="346.2" y="50.8" class="st1" width="4.8" height="59.3"/>
<rect x="333.8" y="50.8" class="st1" width="4.8" height="59.3"/>
<rect x="306.2" y="51.5" class="st1" width="4.8" height="59.3"/>
<rect x="357.3" y="141.1" class="st1" width="4.8" height="84.2"/>
<rect x="346.3" y="141.1" class="st1" width="4.8" height="84.2"/>
<rect x="334.9" y="141.1" class="st1" width="4.8" height="83.7"/>
<rect x="310.6" y="141.4" class="st1" width="4.8" height="73.7"/>
<rect x="300.7" y="141.1" class="st1" width="4.8" height="73.7"/>
<rect x="291.3" y="140.8" class="st1" width="4.8" height="43.3"/>
<rect x="281.2" y="140.8" class="st1" width="4.8" height="27.3"/>
<rect x="157.9" y="141.2" class="st1" width="4.8" height="56.5"/>
<rect x="145.8" y="141.2" class="st1" width="4.8" height="56.5"/>
<rect x="60.2" y="141.4" class="st1" width="4.8" height="56"/>
<rect x="83.5" y="141.2" class="st1" width="4.8" height="56"/>
<rect x="94.6" y="141.4" class="st1" width="4.8" height="56"/>
<rect x="106.5" y="141.8" class="st1" width="4.8" height="56"/>
<rect x="133.3" y="141.8" class="st1" width="4.8" height="56"/>
<rect x="173.4" y="195.1" class="st0" width="12.8" height="16.3"/>
<rect x="266.7" y="176.1" class="st0" width="5.7" height="19.3"/>
<g class="st13">
	<path class="st2" d="M247.1,217.8c0.3,0.3,0.6,0.5,1.1,0.5s0.9-0.4,0.9-0.9s-0.4-0.9-0.9-0.9c-0.4,0-0.7,0.1-0.9,0.4l-0.4-0.1v-2.2
		h2.4v0.4h-1.9v1.4c0.2-0.2,0.5-0.4,0.9-0.4c0.7,0,1.3,0.5,1.3,1.3s-0.6,1.3-1.4,1.3c-0.7,0-1.1-0.2-1.4-0.6L247.1,217.8z"/>
	<path class="st2" d="M250.4,217.8c0.2,0.3,0.6,0.5,1.1,0.5c0.6,0,0.9-0.3,0.9-0.7c0-0.5-0.4-0.7-1-0.7c-0.2,0-0.4,0-0.4,0v-0.5
		c0.1,0,0.3,0,0.4,0c0.5,0,0.9-0.2,0.9-0.7c0-0.4-0.4-0.7-0.9-0.7c-0.4,0-0.8,0.2-1.1,0.5l-0.3-0.3c0.3-0.3,0.7-0.6,1.4-0.6
		c0.8,0,1.4,0.4,1.4,1.1c0,0.6-0.5,0.9-0.9,0.9c0.4,0,0.9,0.3,0.9,1s-0.5,1.2-1.4,1.2c-0.7,0-1.2-0.3-1.4-0.7L250.4,217.8z"/>
	<path class="st2" d="M254,217.8c0.3,0.3,0.6,0.5,1.1,0.5s0.9-0.4,0.9-0.9s-0.4-0.9-0.9-0.9c-0.4,0-0.7,0.1-0.9,0.4l-0.4-0.1v-2.2
		h2.4v0.4h-1.9v1.4c0.2-0.2,0.5-0.4,0.9-0.4c0.7,0,1.3,0.5,1.3,1.3s-0.6,1.3-1.4,1.3c-0.7,0-1.1-0.2-1.4-0.6L254,217.8z"/>
</g>
<g class="st13">
	<path class="st2" d="M220.7,217.8c0.3,0.3,0.6,0.5,1.1,0.5s0.9-0.4,0.9-0.9s-0.4-0.9-0.9-0.9c-0.4,0-0.7,0.1-0.9,0.4l-0.4-0.1v-2.2
		h2.4v0.4H221v1.4c0.2-0.2,0.5-0.4,0.9-0.4c0.7,0,1.3,0.5,1.3,1.3s-0.6,1.3-1.4,1.3c-0.7,0-1.1-0.2-1.4-0.6L220.7,217.8z"/>
	<path class="st2" d="M224,217.8c0.2,0.3,0.6,0.5,1.1,0.5c0.6,0,0.9-0.3,0.9-0.7c0-0.5-0.4-0.7-1-0.7c-0.2,0-0.4,0-0.4,0v-0.5
		c0.1,0,0.3,0,0.4,0c0.5,0,0.9-0.2,0.9-0.7c0-0.4-0.4-0.7-0.9-0.7c-0.4,0-0.8,0.2-1.1,0.5l-0.3-0.3c0.3-0.3,0.8-0.6,1.4-0.6
		c0.8,0,1.4,0.4,1.4,1.1c0,0.6-0.5,0.9-0.9,0.9c0.4,0,0.9,0.3,0.9,1s-0.5,1.2-1.4,1.2c-0.7,0-1.2-0.3-1.4-0.7L224,217.8z"/>
	<path class="st2" d="M227.6,217.9c0.2,0.2,0.4,0.4,0.9,0.4c0.8,0,1.1-0.8,1.1-1.6c0-0.1,0-0.1,0-0.2c-0.2,0.3-0.6,0.6-1.1,0.6
		c-0.7,0-1.3-0.4-1.3-1.3c0-0.7,0.5-1.3,1.4-1.3c1.1,0,1.5,1,1.5,2.1s-0.5,2.1-1.6,2.1c-0.5,0-0.9-0.2-1.1-0.5L227.6,217.9z
		 M228.6,215.1c-0.6,0-0.9,0.5-0.9,0.8c0,0.6,0.4,0.9,0.9,0.9c0.4,0,0.8-0.2,1-0.6C229.5,215.6,229.3,215.1,228.6,215.1z"/>
</g>
<g class="st13">
	<path class="st2" d="M184.8,217.8c0.3,0.3,0.6,0.5,1.1,0.5s0.9-0.4,0.9-0.9s-0.4-0.9-0.9-0.9c-0.4,0-0.7,0.1-0.9,0.4l-0.4-0.1v-2.2
		h2.4v0.4h-1.9v1.4c0.2-0.2,0.5-0.4,0.9-0.4c0.7,0,1.3,0.5,1.3,1.3s-0.6,1.3-1.4,1.3c-0.7,0-1.1-0.2-1.4-0.6L184.8,217.8z"/>
	<path class="st2" d="M189.7,218.6v-1h-1.9v-0.4l1.7-2.6h0.7v2.5h0.6v0.4h-0.6v1h-0.5V218.6z M189.7,215.1l-1.4,2.1h1.4V215.1z"/>
	<path class="st2" d="M191.4,217.8c0.2,0.3,0.6,0.5,1.1,0.5c0.6,0,0.9-0.3,0.9-0.7c0-0.5-0.4-0.7-1-0.7c-0.2,0-0.4,0-0.4,0v-0.5
		c0.1,0,0.3,0,0.4,0c0.5,0,0.9-0.2,0.9-0.7c0-0.4-0.4-0.7-0.9-0.7c-0.4,0-0.8,0.2-1.1,0.5l-0.3-0.3c0.3-0.3,0.8-0.6,1.4-0.6
		c0.8,0,1.4,0.4,1.4,1.1c0,0.6-0.5,0.9-0.9,0.9c0.4,0,0.9,0.3,0.9,1s-0.5,1.2-1.4,1.2c-0.7,0-1.2-0.3-1.4-0.7L191.4,217.8z"/>
</g>
<g>
	<rect x="219.4" y="225.1" class="st14" width="11.2" height="11.2"/>
	<rect x="219.4" y="225.1" class="st15" width="11.2" height="11.2"/>
	<path class="st3" d="M221.6,227.2c0,0.6-0.4,1-1,1s-1-0.4-1-1s0.4-1,1-1S221.6,226.8,221.6,227.2"/>
	<rect x="222.3" y="230.1" class="st3" width="5.5" height="0.8"/>
	<rect x="222.3" y="230.1" class="st16" width="5.5" height="0.8"/>
	<path class="st3" d="M230.4,227.4c0,0.6-0.4,1-1,1s-1-0.4-1-1s0.4-1,1-1S230.4,226.8,230.4,227.4"/>
	<polyline class="st17" points="229.4,229.4 229.4,232.6 227.6,232.6 227.6,234.9 	"/>
	<polyline class="st17" points="220.7,229.2 220.7,232.6 222.5,232.6 222.5,234.9 	"/>
	<rect x="224.6" y="231.9" class="st3" width="0.7" height="3.3"/>
	<rect x="224.6" y="231.9" class="st18" width="0.7" height="3.3"/>
</g>
<g>
	<rect x="247" y="224.9" class="st14" width="11.2" height="11.2"/>
	<rect x="247" y="224.9" class="st15" width="11.2" height="11.2"/>
	<path class="st3" d="M249.2,227.2c0,0.6-0.4,1-1,1s-1-0.4-1-1s0.4-1,1-1S249.2,226.6,249.2,227.2"/>
	<rect x="249.9" y="230.1" class="st3" width="5.5" height="0.8"/>
	<rect x="249.9" y="230.1" class="st16" width="5.5" height="0.8"/>
	<path class="st3" d="M258,227.2c0,0.6-0.4,1-1,1s-1-0.4-1-1s0.4-1,1-1S258,226.6,258,227.2"/>
	<polyline class="st17" points="257,229.2 257,232.6 255.2,232.6 255.2,234.9 	"/>
	<polyline class="st17" points="248.3,229.1 248.3,232.4 250.1,232.4 250.1,234.8 	"/>
	<rect x="252.2" y="231.9" class="st3" width="0.7" height="3.3"/>
	<rect x="252.2" y="231.9" class="st18" width="0.7" height="3.3"/>
</g>
<g>
	<rect x="184.1" y="224.9" class="st14" width="11.2" height="11.2"/>
	<rect x="184.1" y="224.9" class="st15" width="11.2" height="11.2"/>
	<path class="st3" d="M186.4,227.1c0,0.6-0.4,1-1,1s-1-0.4-1-1s0.4-1,1-1S186.4,226.6,186.4,227.1"/>
	<rect x="187.1" y="230.1" class="st3" width="5.5" height="0.8"/>
	<rect x="187.1" y="230.1" class="st16" width="5.5" height="0.8"/>
	<path class="st3" d="M195.2,227.1c0,0.6-0.4,1-1,1s-1-0.4-1-1s0.4-1,1-1S195.2,226.6,195.2,227.1"/>
	<polyline class="st17" points="194.2,229.1 194.2,232.4 192.3,232.4 192.3,234.8 	"/>
	<polyline class="st17" points="185.4,229.1 185.4,232.4 187.3,232.4 187.3,234.6 	"/>
	<rect x="189.4" y="231.9" class="st3" width="0.7" height="3.3"/>
	<rect x="189.4" y="231.9" class="st18" width="0.7" height="3.3"/>
</g>
<g class="st13">
	<path class="st2" d="M53.7,98.6c0.3,0.3,0.6,0.5,1.1,0.5s0.8-0.3,0.8-0.7c0-0.4-0.3-0.7-0.8-0.7c-0.4,0-0.6,0.1-0.9,0.4l-0.5-0.3
		v-2.3h2.7V96h-2v1.2c0.2-0.2,0.5-0.4,0.9-0.4c0.7,0,1.3,0.5,1.3,1.3c0,0.9-0.6,1.4-1.6,1.4c-0.7,0-1.2-0.2-1.5-0.6L53.7,98.6z"/>
	<path class="st2" d="M57.2,98.4c0.3,0.3,0.7,0.5,1.1,0.5c0.5,0,0.9-0.2,0.9-0.6s-0.3-0.6-0.9-0.6c-0.2,0-0.4,0-0.5,0v-0.6
		c0.1,0,0.3,0,0.5,0c0.5,0,0.8-0.2,0.8-0.5c0-0.4-0.4-0.6-0.8-0.6c-0.4,0-0.8,0.2-1.1,0.5L56.8,96c0.3-0.4,0.8-0.6,1.5-0.6
		c0.9,0,1.5,0.4,1.5,1.1c0,0.5-0.5,0.9-0.9,0.9c0.4,0,1,0.4,1,1c0,0.7-0.6,1.2-1.6,1.2c-0.7,0-1.3-0.3-1.6-0.7L57.2,98.4z"/>
	<path class="st2" d="M62.3,99.6v-0.9h-2v-0.6l1.7-2.6h1v2.6h0.5v0.6H63v0.9H62.3z M62.3,96.1L61,98h1.3V96.1z"/>
</g>
<g class="st13">
	<path class="st2" d="M366.2,98.6c0.3,0.3,0.6,0.5,1.1,0.5s0.8-0.3,0.8-0.7c0-0.4-0.3-0.7-0.8-0.7c-0.4,0-0.6,0.1-0.9,0.4l-0.5-0.1
		v-2.3h2.7v0.6h-2v1.2c0.2-0.2,0.5-0.4,0.9-0.4c0.7,0,1.3,0.5,1.3,1.3c0,0.9-0.6,1.4-1.6,1.4c-0.7,0-1.2-0.2-1.5-0.6L366.2,98.6z"/>
	<path class="st2" d="M371,95.3c1.2,0,1.7,1.1,1.7,2.1s-0.5,2.1-1.7,2.1s-1.7-1.1-1.7-2.1S369.9,95.3,371,95.3z M371,96.1
		c-0.7,0-0.9,0.7-0.9,1.5s0.2,1.5,0.9,1.5s0.9-0.7,0.9-1.5S371.7,96.1,371,96.1z"/>
	<path class="st2" d="M373.7,98.7c0.2,0.2,0.5,0.4,0.8,0.4c0.7,0,1.1-0.7,1.1-1.4v-0.1c-0.2,0.3-0.6,0.6-1.1,0.6
		c-0.7,0-1.4-0.5-1.4-1.3s0.6-1.4,1.5-1.4c1.2,0,1.7,1,1.7,2.1c0,1.2-0.6,2.1-1.8,2.1c-0.5,0-0.9-0.2-1.2-0.5L373.7,98.7z
		 M374.7,96.1c-0.5,0-0.8,0.4-0.8,0.7c0,0.5,0.4,0.7,0.8,0.7s0.7-0.2,0.9-0.5C375.6,96.6,375.4,96.1,374.7,96.1z"/>
</g>
<line class="st19" x1="66.1" y1="97.4" x2="151.3" y2="97.4"/>
<g class="st13">
	<path class="st2" d="M153.8,98.6c0.3,0.3,0.6,0.5,1.1,0.5s0.8-0.3,0.8-0.7c0-0.4-0.3-0.7-0.8-0.7c-0.4,0-0.6,0.1-0.9,0.4l-0.5-0.1
		v-2.3h2.7v0.6h-2v1.2c0.2-0.2,0.5-0.4,0.9-0.4c0.7,0,1.3,0.5,1.3,1.3c0,0.9-0.6,1.4-1.6,1.4c-0.7,0-1.2-0.2-1.5-0.6L153.8,98.6z"/>
	<path class="st2" d="M157.1,99.6V99c1.6-1.2,2.2-1.7,2.2-2.3c0-0.4-0.4-0.6-0.7-0.6c-0.5,0-0.9,0.2-1.1,0.5l-0.4-0.5
		c0.4-0.4,0.9-0.7,1.5-0.7c0.8,0,1.5,0.5,1.5,1.3s-0.7,1.4-1.8,2.3h1.8v0.6C160.1,99.6,157.1,99.6,157.1,99.6z"/>
	<path class="st2" d="M162.5,95.3c0.5,0,0.9,0.2,1.2,0.5l-0.3,0.5c-0.2-0.2-0.5-0.4-0.8-0.4c-0.7,0-1.1,0.6-1.1,1.4v0.1
		c0.2-0.3,0.6-0.6,1.1-0.6c0.7,0,1.4,0.5,1.4,1.3s-0.6,1.4-1.5,1.4c-1.2,0-1.7-1-1.7-2.1C160.7,96.3,161.3,95.3,162.5,95.3z
		 M162.4,97.6c-0.4,0-0.7,0.2-0.9,0.5c0,0.4,0.3,1,0.9,1c0.5,0,0.8-0.4,0.8-0.7C163.2,97.8,162.8,97.6,162.4,97.6z"/>
</g>
<g class="st13">
	<path class="st2" d="M179.2,98.8c0.3,0.3,0.6,0.5,1.1,0.5s0.8-0.3,0.8-0.7c0-0.4-0.3-0.7-0.8-0.7c-0.4,0-0.6,0.1-0.9,0.4l-0.5-0.1
		v-2.3h2.7v0.6h-2v1.2c0.2-0.2,0.5-0.4,0.9-0.4c0.7,0,1.3,0.5,1.3,1.3c0,0.9-0.6,1.4-1.6,1.4c-0.7,0-1.2-0.2-1.5-0.6L179.2,98.8z"/>
	<path class="st2" d="M182.4,99.8v-0.6c1.6-1.2,2.2-1.7,2.2-2.3c0-0.4-0.4-0.6-0.7-0.6c-0.5,0-0.9,0.2-1.1,0.5l-0.4-0.5
		c0.4-0.4,0.9-0.7,1.5-0.7c0.8,0,1.5,0.5,1.5,1.3s-0.7,1.4-1.8,2.3h1.8v0.6C185.4,99.8,182.4,99.8,182.4,99.8z"/>
	<path class="st2" d="M187.9,99.8v-0.9h-2v-0.6l1.7-2.6h1v2.6h0.5v0.6h-0.5v0.9H187.9z M187.9,96.3l-1.3,1.9h1.3V96.3z"/>
</g>
<line class="st19" x1="190.6" y1="97.4" x2="363.5" y2="97.4"/>
<g class="st13">
	<path class="st2" d="M55.8,154.4c0.3,0.3,0.6,0.5,1.1,0.5s0.8-0.3,0.8-0.7s-0.3-0.7-0.8-0.7c-0.4,0-0.6,0.1-0.9,0.4l-0.5-0.1v-2.3
		h2.7v0.6h-2v1.2c0.2-0.2,0.5-0.4,0.9-0.4c0.7,0,1.3,0.5,1.3,1.3c0,0.9-0.6,1.4-1.6,1.4c-0.7,0-1.2-0.2-1.5-0.6L55.8,154.4z"/>
	<path class="st2" d="M59.3,154.4c0.3,0.3,0.7,0.5,1.1,0.5c0.5,0,0.9-0.2,0.9-0.6c0-0.4-0.3-0.6-0.9-0.6c-0.2,0-0.4,0-0.5,0V153
		c0.1,0,0.3,0,0.5,0c0.5,0,0.8-0.2,0.8-0.5c0-0.4-0.4-0.6-0.8-0.6c-0.4,0-0.8,0.2-1.1,0.5l-0.4-0.5c0.3-0.4,0.8-0.6,1.5-0.6
		c0.9,0,1.5,0.4,1.5,1.1c0,0.5-0.5,0.9-0.9,0.9c0.4,0,1,0.4,1,1c0,0.7-0.6,1.2-1.6,1.2c-0.7,0-1.3-0.3-1.6-0.7L59.3,154.4z"/>
	<path class="st2" d="M63,154.4c0.3,0.3,0.6,0.5,1.1,0.5s0.8-0.3,0.8-0.7s-0.3-0.7-0.8-0.7c-0.4,0-0.6,0.1-0.9,0.4l-0.5-0.1v-2.3
		h2.8v0.6h-2v1.2c0.2-0.2,0.5-0.4,0.9-0.4c0.7,0,1.3,0.5,1.3,1.3c0,0.9-0.6,1.4-1.6,1.4c-0.7,0-1.2-0.2-1.5-0.6L63,154.4z"/>
</g>
<line class="st19" x1="68.2" y1="153.4" x2="153.4" y2="153.4"/>
<g class="st13">
	<path class="st2" d="M155.9,154.4c0.3,0.3,0.6,0.5,1.1,0.5s0.8-0.3,0.8-0.7s-0.3-0.7-0.8-0.7c-0.4,0-0.6,0.1-0.9,0.4l-0.5-0.1v-2.3
		h2.7v0.6h-2v1.2c0.2-0.2,0.5-0.4,0.9-0.4c0.7,0,1.3,0.5,1.3,1.3c0,0.9-0.6,1.4-1.6,1.4c-0.7,0-1.2-0.2-1.5-0.6L155.9,154.4z"/>
	<path class="st2" d="M161,155.4v-0.9h-2v-0.6l1.7-2.6h1v2.6h0.5v0.6h-0.5v0.9H161z M161,151.9l-1.3,1.9h1.3V151.9z"/>
	<path class="st2" d="M163,154.4c0.3,0.3,0.7,0.5,1.1,0.5c0.5,0,0.9-0.2,0.9-0.6c0-0.4-0.3-0.6-0.9-0.6c-0.2,0-0.4,0-0.5,0V153
		c0.1,0,0.3,0,0.5,0c0.5,0,0.8-0.2,0.8-0.5c0-0.4-0.4-0.6-0.8-0.6c-0.4,0-0.8,0.2-1.1,0.5l-0.4-0.5c0.3-0.4,0.8-0.6,1.5-0.6
		c0.9,0,1.5,0.4,1.5,1.1c0,0.5-0.5,0.9-0.9,0.9c0.4,0,1,0.4,1,1c0,0.7-0.6,1.2-1.6,1.2c-0.7,0-1.3-0.3-1.6-0.7L163,154.4z"/>
</g>
<g class="st13">
	<path class="st2" d="M276.4,154.1c0.3,0.3,0.6,0.5,1.1,0.5s0.8-0.3,0.8-0.7s-0.3-0.7-0.8-0.7c-0.4,0-0.6,0.1-0.9,0.4l-0.5-0.1v-2.3
		h2.7v0.6h-2v1.2c0.2-0.2,0.5-0.4,0.9-0.4c0.7,0,1.3,0.5,1.3,1.3c0,0.9-0.6,1.4-1.6,1.4c-0.7,0-1.2-0.2-1.5-0.6L276.4,154.1z"/>
	<path class="st2" d="M281.3,151.1c1.2,0,1.7,1.1,1.7,2.1s-0.5,2.1-1.7,2.1s-1.7-1.1-1.7-2.1S280.1,151.1,281.3,151.1z M281.3,151.6
		c-0.7,0-0.9,0.7-0.9,1.5s0.2,1.5,0.9,1.5s0.9-0.7,0.9-1.5C282.2,152.4,282,151.6,281.3,151.6z"/>
	<path class="st2" d="M284.4,155.2V152l-0.7,0.7l-0.4-0.4l1.2-1.2h0.6v4.1L284.4,155.2L284.4,155.2z"/>
</g>
<line class="st19" x1="289.8" y1="153.1" x2="353.4" y2="153.1"/>
<g class="st13">
	<path class="st2" d="M355.7,154.1c0.3,0.3,0.6,0.5,1.1,0.5s0.8-0.3,0.8-0.7s-0.3-0.7-0.8-0.7c-0.4,0-0.6,0.1-0.9,0.4l-0.5-0.1v-2.3
		h2.7v0.6h-2v1.2c0.2-0.2,0.5-0.4,0.9-0.4c0.7,0,1.3,0.5,1.3,1.3c0,0.9-0.6,1.4-1.6,1.4c-0.7,0-1.2-0.2-1.5-0.6L355.7,154.1z"/>
	<path class="st2" d="M360.6,151.1c1.2,0,1.7,1.1,1.7,2.1s-0.5,2.1-1.7,2.1s-1.7-1.1-1.7-2.1S359.4,151.1,360.6,151.1z M360.6,151.6
		c-0.7,0-0.9,0.7-0.9,1.5s0.2,1.5,0.9,1.5s0.9-0.7,0.9-1.5C361.5,152.4,361.2,151.6,360.6,151.6z"/>
	<path class="st2" d="M363.7,153.1c-0.5-0.1-0.9-0.5-0.9-1c0-0.8,0.8-1.1,1.5-1.1s1.5,0.3,1.5,1.1c0,0.5-0.4,0.8-0.9,1
		c0.5,0.2,0.9,0.5,0.9,1.1c0,0.7-0.7,1.1-1.6,1.1c-0.8,0-1.6-0.4-1.6-1.1C362.7,153.6,363.2,153.2,363.7,153.1z M364.3,153.4
		c-0.3,0-0.9,0.2-0.9,0.6c0,0.4,0.4,0.6,0.9,0.6s0.8-0.2,0.8-0.6C365.2,153.6,364.6,153.4,364.3,153.4z M364.3,151.6
		c-0.5,0-0.8,0.2-0.8,0.5c0,0.4,0.5,0.5,0.8,0.6c0.3,0,0.8-0.2,0.8-0.6C365.1,151.9,364.7,151.6,364.3,151.6z"/>
</g>
</svg>
