<svg id="Layer_1" data-name="Layer 1" xmlns="http://www.w3.org/2000/svg" viewBox="0 0 494.1733 96.0626">
  <g>
    <path id="fullLogo" d="M57.0174,86.985s3.9819-1.7,6.1641-8.2832a16.3342,16.3342,0,0,1,1.4205,8.1368c-1.7631.3959-7.5846.1464-7.5846.1464" style="fill: #a60f2d"/>
    <path id="fullLogo-2" data-name="fullLogo" d="M78.4063,49.3319s2.4285,13.2332-6.1741,13.6857c-8.3.4324-12.2086-12.049-12.2086-12.049S62.03,75.3592,73.6659,73.7525c13.1-1.8064,4.74-24.4206,4.74-24.4206" style="fill: #a60f2d"/>
    <path id="fullLogo-3" data-name="fullLogo" d="M15.2141,83.837a.0332.0332,0,0,1,.0133-.0033c9.7-2.2088,17.1353-13.5292,19.3142-18.0734l1.3872-2.8775.8349,3.0805a34.1325,34.1325,0,0,1,.9448,8.05c0,.499-.0133,1.008-.04,1.5236,3.3465.1264,5.735-.5522,7.222-2.0958,2.1324-2.2022,2.771-6.377,1.9793-12.7574-.3925-3.0539-1.52-7.9107-2.5215-12.1987-.5123-2.1922-.9947-4.2646-1.2874-5.7317-1.87-9.3743.4524-15.1959,2.7278-18.426a15.4436,15.4436,0,0,1,1.1643-1.4437A44.9893,44.9893,0,0,0,28.8,34.4538l4.085,4.737,1.67-1.5635a27.0328,27.0328,0,0,1,.4457,11.3038,47.2061,47.2061,0,0,0-4.6838-5.928L31.4245,41.14l-3.6825-4.278-.4258-.479A40.4329,40.4329,0,0,0,21.325,47.687l3.21,2.9407,1.8695,1.6932.6287-1.803a14.2,14.2,0,0,1,.2994,12.5047,22.8371,22.8371,0,0,0-2.8409-5.459L25.39,54.6l-4.78-4.3245C15.64,65.8,9,70.83,9,70.83a104.6386,104.6386,0,0,0,11.184-2.638,32.6354,32.6354,0,0,1-4.97,15.6449" style="fill: #a60f2d"/>
    <path id="fullLogo-4" data-name="fullLogo" d="M87.7378,27.8252l-11.4768.4857a12.3249,12.3249,0,0,1-.6121,4.0152c1.0712,4.6838.326,7.2253.326,7.2253-1.9194-4.4676-3.38-5.7084-3.38-5.7084-10.542-4.6805-16.4633,5.9047-15.8279,12.7342.5156,5.612,2.5548,13.06,4.1416,24.7465,1.3373,9.8334-3.6426,14.0848-9.371,15.06-.1231.0166-.2495.04-.3759.0665a.3909.3909,0,0,0-.09.0067,19.7409,19.7409,0,0,1-2.9574.1464.4084.4084,0,0,0-.11-.01c-.1164,0-.2262-.0167-.3426-.0167-.4458-.0266-.8849-.0731-1.3206-.1264-4.4577-.6154-14.4375-2.4284-24.7466-2.6779,6.0644-3.54,10.8081-9.67,13.4561-14.0116a34.2107,34.2107,0,0,1,.2761,4.288c0,.805-.0266,1.6533-.11,2.5182l-.1,1.1843,1.1876.1c4.7437.4125,8.1069-.4923,10.3058-2.7578,2.6879-2.801,3.5162-7.4682,2.6047-14.7068-.3925-3.1736-1.5468-8.097-2.5548-12.4382-.5023-2.1722-.978-4.2347-1.2674-5.6585-1.7066-8.5526.3326-13.7455,2.3452-16.593A12.2939,12.2939,0,0,1,53.86,21.0456c.04-.0067.08-.0166.1231-.0233L57.9016,9h1.2308L56.5011,20.5533c.6087-.1065,1.2275-.203,1.8529-.2994L61.7371,9.6021h1.2176L60.7391,19.9179c3.5029-.4491,7.3019-.7984,11.5134-1.1078a5.0242,5.0242,0,0,1,2.0691,2.159l11.0443-3.3965.4092,1.191-10.5586,4.095c.0831.2162.1663.4424.2328.672l11.5433-1.4338.193,1.2375L75.9849,25.57c.04.21.0732.4191.11.6287l11.65.3759ZM54.4852,32.9847a16.4233,16.4233,0,0,1,9.95-2.5881c.9348.07,1.7265-.1762.7185-.7085-2.7644-1.4571-9.208-.9614-11.4867.5921A7.2973,7.2973,0,0,0,50.72,37.3093a13.4612,13.4612,0,0,1,3.7657-4.3246" style="fill: #a60f2d"/>
    <rect id="fullLogo-5" data-name="fullLogo" x="100.6957" y="24.6184" width="1.7026" height="60.2283" style="fill: #4d4d4d"/>
    <path id="fullLogo-6" data-name="fullLogo" d="M131.6255,65.9971l-.88-2.4258h-6.14l-.9019,2.4258h-3.478l5.5391-14.32h3.8217l5.5171,14.32Zm-3.9507-11.2715-2.2324,6.1621h4.4653Z" style="fill: #4d4d4d"/>
    <path id="fullLogo-7" data-name="fullLogo" d="M135.7031,60.8018a5.26,5.26,0,0,1,5.4961-5.4322A4.825,4.825,0,0,1,145.3,57.2378l-1.7817,1.6743a2.5154,2.5154,0,0,0-2.19-1.1162,3.024,3.024,0,0,0,0,6.0332,2.6176,2.6176,0,0,0,2.19-1.1172L145.3,64.3652a4.78,4.78,0,0,1-4.1006,1.89A5.2655,5.2655,0,0,1,135.7031,60.8018Z" style="fill: #4d4d4d"/>
    <path id="fullLogo-8" data-name="fullLogo" d="M153.3071,65.9971V64.9238a4.2922,4.2922,0,0,1-3.2846,1.3311,3.4545,3.4545,0,0,1-3.607-3.4356,3.3177,3.3177,0,0,1,3.607-3.3486,4.2632,4.2632,0,0,1,3.2846,1.2666V59.3418c0-1.0522-.9018-1.7393-2.2759-1.7393a4.3634,4.3634,0,0,0-3.0268,1.2237l-1.0308-1.8247a6.8038,6.8038,0,0,1,4.53-1.6319c2.3613,0,4.53.9449,4.53,3.9292v6.6983Zm0-2.49v-1.288a2.7258,2.7258,0,0,0-2.19-.9024c-1.0733,0-1.9536.5586-1.9536,1.5674,0,.9668.88,1.5244,1.9536,1.5244A2.7283,2.7283,0,0,0,153.3071,63.5068Z" style="fill: #4d4d4d"/>
    <path id="fullLogo-9" data-name="fullLogo" d="M165.8657,65.9971V64.666a4.027,4.027,0,0,1-3.1992,1.5889c-2.6191,0-4.5942-1.9756-4.5942-5.4317,0-3.3925,1.9536-5.4536,4.5942-5.4536a3.9944,3.9944,0,0,1,3.1992,1.5889V51.6772h2.7481v14.32Zm0-3.35V58.9766a2.967,2.967,0,0,0-2.3618-1.1807c-1.5459,0-2.6191,1.2236-2.6191,3.0273a2.7005,2.7005,0,0,0,2.6191,3.0059A2.9663,2.9663,0,0,0,165.8657,62.6475Z" style="fill: #4d4d4d"/>
    <path id="fullLogo-10" data-name="fullLogo" d="M170.6523,60.8018A5.2778,5.2778,0,0,1,176.02,55.37c3.0918,0,5.1958,2.3189,5.1958,5.7115v.6005h-7.7075a2.7939,2.7939,0,0,0,2.9839,2.4043,4.4137,4.4137,0,0,0,2.7695-1.03l1.2027,1.7607a6.4659,6.4659,0,0,1-4.2725,1.4385A5.252,5.252,0,0,1,170.6523,60.8018Zm5.3672-3.2637a2.4921,2.4921,0,0,0-2.5547,2.2969h5.1094A2.4013,2.4013,0,0,0,176.02,57.5381Z" style="fill: #4d4d4d"/>
    <path id="fullLogo-11" data-name="fullLogo" d="M196.0493,65.9971V59.4492c0-.9668-.4292-1.6533-1.5454-1.6533a2.7525,2.7525,0,0,0-2.147,1.2021v6.9991h-2.748V59.4492c0-.9668-.43-1.6533-1.5459-1.6533a2.7826,2.7826,0,0,0-2.147,1.2236v6.9776H183.19v-10.37h2.7265V56.98a4.5351,4.5351,0,0,1,3.3921-1.61,2.7442,2.7442,0,0,1,2.877,1.89,4.4,4.4,0,0,1,3.5639-1.89c1.9107,0,3.0484,1.0093,3.0484,3.1343v7.4932Z" style="fill: #4d4d4d"/>
    <path id="fullLogo-12" data-name="fullLogo" d="M201.2007,52.8794a1.6319,1.6319,0,1,1,1.6318,1.6318A1.6449,1.6449,0,0,1,201.2007,52.8794Zm.2793,13.1177v-10.37h2.7265v10.37Z" style="fill: #4d4d4d"/>
    <path id="fullLogo-13" data-name="fullLogo" d="M206.2456,60.8018a5.26,5.26,0,0,1,5.4961-5.4322,4.825,4.825,0,0,1,4.1006,1.8682l-1.7818,1.6743a2.5152,2.5152,0,0,0-2.19-1.1162,3.024,3.024,0,0,0,0,6.0332,2.6175,2.6175,0,0,0,2.19-1.1172l1.7818,1.6533a4.78,4.78,0,0,1-4.1006,1.89A5.2655,5.2655,0,0,1,206.2456,60.8018Z" style="fill: #4d4d4d"/>
    <path id="fullLogo-14" data-name="fullLogo" d="M222.2168,63.9785,223.87,61.66a6.2791,6.2791,0,0,0,4.5513,1.9326c1.6748,0,2.4907-.7735,2.4907-1.5889,0-2.5332-8.2441-.7949-8.2441-6.1831,0-2.3833,2.061-4.3584,5.4316-4.3584a7.9662,7.9662,0,0,1,5.582,1.9966l-1.6962,2.2329a6.1521,6.1521,0,0,0-4.1651-1.5674c-1.31,0-2.04.58-2.04,1.4385,0,2.2759,8.2226.7515,8.2226,6.0972,0,2.6191-1.8677,4.5947-5.7319,4.5947A8.1635,8.1635,0,0,1,222.2168,63.9785Z" style="fill: #4d4d4d"/>
    <path id="fullLogo-15" data-name="fullLogo" d="M242.998,65.9971v-1.31a4.8547,4.8547,0,0,1-3.65,1.5674c-2.2758,0-3.3491-1.2451-3.3491-3.2637V55.6274h2.7266V61.918a1.6674,1.6674,0,0,0,1.9106,1.9111,3.0513,3.0513,0,0,0,2.3618-1.1816v-7.02h2.7266v10.37Z" style="fill: #4d4d4d"/>
    <path id="fullLogo-16" data-name="fullLogo" d="M247.7632,60.8018a5.26,5.26,0,0,1,5.4961-5.4322,4.825,4.825,0,0,1,4.1006,1.8682l-1.7818,1.6743a2.5152,2.5152,0,0,0-2.19-1.1162,3.024,3.024,0,0,0,0,6.0332,2.6175,2.6175,0,0,0,2.19-1.1172l1.7818,1.6533a4.78,4.78,0,0,1-4.1006,1.89A5.2655,5.2655,0,0,1,247.7632,60.8018Z" style="fill: #4d4d4d"/>
    <path id="fullLogo-17" data-name="fullLogo" d="M258.4756,60.8018a5.26,5.26,0,0,1,5.4961-5.4322,4.825,4.825,0,0,1,4.1006,1.8682l-1.7818,1.6743a2.5152,2.5152,0,0,0-2.19-1.1162,3.024,3.024,0,0,0,0,6.0332,2.6175,2.6175,0,0,0,2.19-1.1172l1.7818,1.6533a4.78,4.78,0,0,1-4.1006,1.89A5.2655,5.2655,0,0,1,258.4756,60.8018Z" style="fill: #4d4d4d"/>
    <path id="fullLogo-18" data-name="fullLogo" d="M269.188,60.8018a5.2777,5.2777,0,0,1,5.3672-5.4322c3.0918,0,5.1958,2.3189,5.1958,5.7115v.6005h-7.7075a2.794,2.794,0,0,0,2.9843,2.4043,4.4139,4.4139,0,0,0,2.7691-1.03L279,64.8164a6.4656,6.4656,0,0,1-4.2724,1.4385A5.252,5.252,0,0,1,269.188,60.8018Zm5.3672-3.2637a2.492,2.492,0,0,0-2.5547,2.2969H277.11A2.4013,2.4013,0,0,0,274.5552,57.5381Z" style="fill: #4d4d4d"/>
    <path id="fullLogo-19" data-name="fullLogo" d="M280.8232,64.6445l1.1812-1.9111a5.9314,5.9314,0,0,0,3.585,1.417c1.1811,0,1.7392-.4717,1.7392-1.1162,0-1.7178-6.1616-.3223-6.1616-4.4014,0-1.7388,1.5244-3.2632,4.251-3.2632a6.6276,6.6276,0,0,1,4.1865,1.417l-1.0952,1.8677a4.3763,4.3763,0,0,0-3.07-1.2022c-.9878,0-1.6319.4512-1.6319,1.03,0,1.5459,6.14.2578,6.14,4.4444,0,1.89-1.61,3.3281-4.4869,3.3281A6.9829,6.9829,0,0,1,280.8232,64.6445Z" style="fill: #4d4d4d"/>
    <path id="fullLogo-20" data-name="fullLogo" d="M291.063,64.6445l1.1811-1.9111a5.9314,5.9314,0,0,0,3.585,1.417c1.1812,0,1.7393-.4717,1.7393-1.1162,0-1.7178-6.1617-.3223-6.1617-4.4014,0-1.7388,1.5245-3.2632,4.251-3.2632a6.6272,6.6272,0,0,1,4.1865,1.417l-1.0952,1.8677a4.3761,4.3761,0,0,0-3.07-1.2022c-.9878,0-1.6318.4512-1.6318,1.03,0,1.5459,6.14.2578,6.14,4.4444,0,1.89-1.61,3.3281-4.4868,3.3281A6.9827,6.9827,0,0,1,291.063,64.6445Z" style="fill: #4d4d4d"/>
    <path id="fullLogo-21" data-name="fullLogo" d="M313.9263,65.9971V64.9238a4.2924,4.2924,0,0,1-3.2847,1.3311,3.4545,3.4545,0,0,1-3.6069-3.4356,3.3176,3.3176,0,0,1,3.6069-3.3486,4.2635,4.2635,0,0,1,3.2847,1.2666V59.3418c0-1.0522-.9019-1.7393-2.2759-1.7393a4.3637,4.3637,0,0,0-3.0269,1.2237l-1.0307-1.8247a6.8036,6.8036,0,0,1,4.53-1.6319c2.3614,0,4.53.9449,4.53,3.9292v6.6983Zm0-2.49v-1.288a2.726,2.726,0,0,0-2.19-.9024c-1.0732,0-1.9536.5586-1.9536,1.5674,0,.9668.88,1.5244,1.9536,1.5244A2.7285,2.7285,0,0,0,313.9263,63.5068Z" style="fill: #4d4d4d"/>
    <path id="fullLogo-22" data-name="fullLogo" d="M326.3564,65.9971V59.7285a1.6825,1.6825,0,0,0-1.9106-1.9326A2.9531,2.9531,0,0,0,322.084,59.02v6.9776h-2.7266v-10.37h2.7266V56.98a4.7476,4.7476,0,0,1,3.6284-1.61,3.0165,3.0165,0,0,1,3.3706,3.3062v7.3213Z" style="fill: #4d4d4d"/>
    <path id="fullLogo-23" data-name="fullLogo" d="M338.915,65.9971V64.666a4.0263,4.0263,0,0,1-3.1992,1.5889c-2.6191,0-4.5942-1.9756-4.5942-5.4317,0-3.3925,1.9536-5.4536,4.5942-5.4536a3.9944,3.9944,0,0,1,3.1992,1.5889V51.6772h2.7481v14.32Zm0-3.35V58.9766a2.9668,2.9668,0,0,0-2.3618-1.1807c-1.5459,0-2.6191,1.2236-2.6191,3.0273a2.7005,2.7005,0,0,0,2.6191,3.0059A2.9661,2.9661,0,0,0,338.915,62.6475Z" style="fill: #4d4d4d"/>
    <path id="fullLogo-24" data-name="fullLogo" d="M349.24,58.8477a7.2762,7.2762,0,0,1,7.6216-7.4068,6.5554,6.5554,0,0,1,5.99,3.4995l-2.6192,1.2881a3.8809,3.8809,0,0,0-3.3706-2.0825,4.707,4.707,0,0,0,0,9.4038,3.84,3.84,0,0,0,3.3706-2.083l2.6192,1.2666a6.5947,6.5947,0,0,1-5.99,3.5215A7.2763,7.2763,0,0,1,349.24,58.8477Z" style="fill: #4d4d4d"/>
    <path id="fullLogo-25" data-name="fullLogo" d="M370.8369,65.9971V64.9238a4.2922,4.2922,0,0,1-3.2847,1.3311,3.4545,3.4545,0,0,1-3.6069-3.4356,3.3176,3.3176,0,0,1,3.6069-3.3486,4.2633,4.2633,0,0,1,3.2847,1.2666V59.3418c0-1.0522-.9018-1.7393-2.2759-1.7393a4.3634,4.3634,0,0,0-3.0268,1.2237l-1.0308-1.8247a6.8038,6.8038,0,0,1,4.53-1.6319c2.3613,0,4.53.9449,4.53,3.9292v6.6983Zm0-2.49v-1.288a2.7259,2.7259,0,0,0-2.19-.9024c-1.0733,0-1.9536.5586-1.9536,1.5674,0,.9668.88,1.5244,1.9536,1.5244A2.7284,2.7284,0,0,0,370.8369,63.5068Z" style="fill: #4d4d4d"/>
    <path id="fullLogo-26" data-name="fullLogo" d="M376.2681,65.9971v-10.37h2.7265v1.417a4.4565,4.4565,0,0,1,3.3062-1.6748v2.6626a3.6209,3.6209,0,0,0-.7515-.0644,3.4718,3.4718,0,0,0-2.5547,1.1806v6.8487Z" style="fill: #4d4d4d"/>
    <path id="fullLogo-27" data-name="fullLogo" d="M383.3306,60.8018a5.2777,5.2777,0,0,1,5.3672-5.4322c3.0918,0,5.1958,2.3189,5.1958,5.7115v.6005H386.186a2.7942,2.7942,0,0,0,2.9844,2.4043,4.4139,4.4139,0,0,0,2.7691-1.03l1.2026,1.7607a6.4659,6.4659,0,0,1-4.2725,1.4385A5.252,5.252,0,0,1,383.3306,60.8018Zm5.3672-3.2637a2.492,2.492,0,0,0-2.5547,2.2969h5.1093A2.4012,2.4012,0,0,0,388.6978,57.5381Z" style="fill: #4d4d4d"/>
    <path id="fullLogo-28" data-name="fullLogo" d="M395.2021,60.8018a5.2778,5.2778,0,0,1,5.3672-5.4322c3.0918,0,5.1958,2.3189,5.1958,5.7115v.6005h-7.7075a2.7939,2.7939,0,0,0,2.9839,2.4043,4.4137,4.4137,0,0,0,2.7695-1.03l1.2027,1.7607a6.4659,6.4659,0,0,1-4.2725,1.4385A5.252,5.252,0,0,1,395.2021,60.8018Zm5.3672-3.2637a2.4921,2.4921,0,0,0-2.5547,2.2969h5.1094A2.4013,2.4013,0,0,0,400.5693,57.5381Z" style="fill: #4d4d4d"/>
    <path id="fullLogo-29" data-name="fullLogo" d="M407.7388,65.9971v-10.37h2.7265v1.417a4.4565,4.4565,0,0,1,3.3062-1.6748v2.6626a3.6209,3.6209,0,0,0-.7515-.0644,3.4719,3.4719,0,0,0-2.5547,1.1806v6.8487Z" style="fill: #4d4d4d"/>
    <path id="fullLogo-30" data-name="fullLogo" d="M420.34,58.8477a7.2762,7.2762,0,0,1,7.6216-7.4068,6.5554,6.5554,0,0,1,5.99,3.4995l-2.6192,1.2881a3.8809,3.8809,0,0,0-3.3706-2.0825,4.707,4.707,0,0,0,0,9.4038,3.84,3.84,0,0,0,3.3706-2.083l2.6192,1.2666a6.5947,6.5947,0,0,1-5.99,3.5215A7.2763,7.2763,0,0,1,420.34,58.8477Z" style="fill: #4d4d4d"/>
    <path id="fullLogo-31" data-name="fullLogo" d="M435.0464,60.8018a5.2775,5.2775,0,0,1,5.3672-5.4322c3.0908,0,5.1953,2.3189,5.1953,5.7115v.6005h-7.708a2.7948,2.7948,0,0,0,2.9844,2.4043,4.412,4.412,0,0,0,2.77-1.03l1.2021,1.7607a6.4647,6.4647,0,0,1-4.2724,1.4385A5.2515,5.2515,0,0,1,435.0464,60.8018Zm5.3672-3.2637a2.4927,2.4927,0,0,0-2.5557,2.2969h5.11A2.4023,2.4023,0,0,0,440.4136,57.5381Z" style="fill: #4d4d4d"/>
    <path id="fullLogo-32" data-name="fullLogo" d="M454.5815,65.9971V59.7285a1.6828,1.6828,0,0,0-1.9111-1.9326,2.9537,2.9537,0,0,0-2.3613,1.2236v6.9776h-2.7266v-10.37h2.7266V56.98a4.749,4.749,0,0,1,3.6279-1.61,3.0164,3.0164,0,0,1,3.3711,3.3062v7.3213Z" style="fill: #4d4d4d"/>
    <path id="fullLogo-33" data-name="fullLogo" d="M460.5493,63.4209v-5.41h-1.7178V55.6274h1.7178V52.7935h2.7481v2.8339h2.1035v2.3833h-2.1035v4.68c0,.6446.3427,1.1387.9443,1.1387a1.4873,1.4873,0,0,0,.9443-.3008l.58,2.0606a3.3657,3.3657,0,0,1-2.2764.666C461.58,66.2549,460.5493,65.2676,460.5493,63.4209Z" style="fill: #4d4d4d"/>
    <path id="fullLogo-34" data-name="fullLogo" d="M466.603,60.8018A5.2775,5.2775,0,0,1,471.97,55.37c3.0908,0,5.1953,2.3189,5.1953,5.7115v.6005h-7.708a2.7948,2.7948,0,0,0,2.9844,2.4043,4.4116,4.4116,0,0,0,2.77-1.03l1.2022,1.7607a6.4649,6.4649,0,0,1-4.2725,1.4385A5.2515,5.2515,0,0,1,466.603,60.8018Zm5.3672-3.2637a2.4926,2.4926,0,0,0-2.5556,2.2969h5.11A2.4023,2.4023,0,0,0,471.97,57.5381Z" style="fill: #4d4d4d"/>
    <path id="fullLogo-35" data-name="fullLogo" d="M479.14,65.9971v-10.37h2.7266v1.417a4.4584,4.4584,0,0,1,3.3066-1.6748v2.6626a3.6278,3.6278,0,0,0-.7519-.0644,3.4726,3.4726,0,0,0-2.5547,1.1806v6.8487Z" style="fill: #4d4d4d"/>
    <path id="fullLogo-36" data-name="fullLogo" d="M125.8638,44.41l-1.27-4.8047-1.26,4.8047h-1.2207l-1.8653-6.5137h1.2793l1.27,5.0195,1.3476-5.0195h.9082l1.3477,5.0195,1.26-5.0195H128.94L127.0845,44.41Z" style="fill: #4d4d4d"/>
    <path id="fullLogo-37" data-name="fullLogo" d="M135.7681,44.41l-.4785-1.25h-2.9883l-.4785,1.25h-1.2989l2.5586-6.5137h1.4258l2.5586,6.5137Zm-1.9727-5.3614-1.1719,3.1055h2.3438Z" style="fill: #4d4d4d"/>
    <path id="fullLogo-38" data-name="fullLogo" d="M139.2085,43.4922l.6348-.8789a2.81,2.81,0,0,0,2.06.8984c.9375,0,1.3086-.459,1.3086-.8887,0-1.3671-3.7988-.5175-3.7988-2.92,0-1.0742.9472-1.9043,2.373-1.9043a3.3894,3.3894,0,0,1,2.4414.9082l-.6543.85a2.6477,2.6477,0,0,0-1.8847-.7421c-.6739,0-1.1036.3222-1.1036.81,0,1.2109,3.7891.459,3.7891,2.8906,0,1.084-.7617,2.0117-2.52,2.0117A3.4849,3.4849,0,0,1,139.2085,43.4922Z" style="fill: #4d4d4d"/>
    <path id="fullLogo-39" data-name="fullLogo" d="M151.9077,44.41V41.5684H148.519V44.41h-1.1425V37.8965h1.1425v2.666h3.3887v-2.666H153.05V44.41Z" style="fill: #4d4d4d"/>
    <path id="fullLogo-40" data-name="fullLogo" d="M156.3833,44.41V37.8965h1.1426V44.41Z" style="fill: #4d4d4d"/>
    <path id="fullLogo-41" data-name="fullLogo" d="M165.4028,44.41l-3.3984-4.6485V44.41h-1.1426V37.8965h1.1719l3.33,4.5215V37.8965h1.1425V44.41Z" style="fill: #4d4d4d"/>
    <path id="fullLogo-42" data-name="fullLogo" d="M169.5464,41.1582a3.2854,3.2854,0,0,1,3.418-3.3691,3.062,3.062,0,0,1,2.6269,1.3574l-.9375.5273a2.0738,2.0738,0,0,0-1.6894-.8691,2.3612,2.3612,0,0,0,0,4.7168,2.3878,2.3878,0,0,0,1.5429-.586V41.92H172.564V40.9141H175.65v2.4414a3.5331,3.5331,0,0,1-2.6855,1.1816A3.2934,3.2934,0,0,1,169.5464,41.1582Z" style="fill: #4d4d4d"/>
    <path id="fullLogo-43" data-name="fullLogo" d="M180.2915,44.41V38.9023h-1.9727V37.8965h5.0879v1.0058h-1.9726V44.41Z" style="fill: #4d4d4d"/>
    <path id="fullLogo-44" data-name="fullLogo" d="M185.7837,41.1582a3.33,3.33,0,1,1,3.33,3.3691A3.2314,3.2314,0,0,1,185.7837,41.1582Zm5.4883,0a2.1663,2.1663,0,1,0-2.1582,2.3535A2.1633,2.1633,0,0,0,191.272,41.1582Z" style="fill: #4d4d4d"/>
    <path id="fullLogo-45" data-name="fullLogo" d="M200.0342,44.41l-3.3985-4.6485V44.41h-1.1425V37.8965h1.1718l3.33,4.5215V37.8965h1.1426V44.41Z" style="fill: #4d4d4d"/>
    <path id="fullLogo-46" data-name="fullLogo" d="M208.51,43.4922l.6347-.8789a2.81,2.81,0,0,0,2.0606.8984c.9375,0,1.3086-.459,1.3086-.8887,0-1.3671-3.7989-.5175-3.7989-2.92,0-1.0742.9473-1.9043,2.3731-1.9043a3.39,3.39,0,0,1,2.4414.9082l-.6543.85a2.648,2.648,0,0,0-1.8848-.7421c-.6738,0-1.1035.3222-1.1035.81,0,1.2109,3.7891.459,3.7891,2.8906,0,1.084-.7617,2.0117-2.52,2.0117A3.4847,3.4847,0,0,1,208.51,43.4922Z" style="fill: #4d4d4d"/>
    <path id="fullLogo-47" data-name="fullLogo" d="M218.1333,44.41V38.9023h-1.9727V37.8965h5.0879v1.0058h-1.9726V44.41Z" style="fill: #4d4d4d"/>
    <path id="fullLogo-48" data-name="fullLogo" d="M228.0889,44.41l-.4785-1.25h-2.9883l-.4785,1.25h-1.2989l2.5586-6.5137h1.4258l2.5586,6.5137Zm-1.9727-5.3614-1.1719,3.1055h2.3438Z" style="fill: #4d4d4d"/>
    <path id="fullLogo-49" data-name="fullLogo" d="M232.9653,44.41V38.9023h-1.9726V37.8965h5.0879v1.0058h-1.9727V44.41Z" style="fill: #4d4d4d"/>
    <path id="fullLogo-50" data-name="fullLogo" d="M238.9946,44.41V37.8965h4.4629v1.0058h-3.32v1.69h3.252v1.0059h-3.252v1.8066h3.32V44.41Z" style="fill: #4d4d4d"/>
    <path id="fullLogo-51" data-name="fullLogo" d="M251.0361,41.8418V37.8965h1.1524v3.9062a1.6656,1.6656,0,1,0,3.33,0V37.8965h1.1523V41.832a2.82,2.82,0,0,1-5.6348.01Z" style="fill: #4d4d4d"/>
    <path id="fullLogo-52" data-name="fullLogo" d="M264.5449,44.41l-3.3984-4.6485V44.41h-1.1426V37.8965h1.1719l3.33,4.5215V37.8965h1.1425V44.41Z" style="fill: #4d4d4d"/>
    <path id="fullLogo-53" data-name="fullLogo" d="M268.981,44.41V37.8965h1.1425V44.41Z" style="fill: #4d4d4d"/>
    <path id="fullLogo-54" data-name="fullLogo" d="M275.335,44.41l-2.5586-6.5137h1.2988l1.9727,5.2734,1.9726-5.2734h1.2988L276.7607,44.41Z" style="fill: #4d4d4d"/>
    <path id="fullLogo-55" data-name="fullLogo" d="M281.9785,44.41V37.8965h4.4629v1.0058h-3.32v1.69h3.2519v1.0059h-3.2519v1.8066h3.32V44.41Z" style="fill: #4d4d4d"/>
    <path id="fullLogo-56" data-name="fullLogo" d="M293.2812,44.41l-1.4453-2.4317h-1.1328V44.41h-1.1426V37.8965h2.8614a1.9773,1.9773,0,0,1,2.1289,2.041,1.8266,1.8266,0,0,1-1.543,1.9141L294.6,44.41Zm.0977-4.4727a1.027,1.027,0,0,0-1.1133-1.0352h-1.5625v2.07h1.5625A1.027,1.027,0,0,0,293.3789,39.9375Z" style="fill: #4d4d4d"/>
    <path id="fullLogo-57" data-name="fullLogo" d="M297.22,43.4922l.6348-.8789a2.81,2.81,0,0,0,2.06.8984c.9375,0,1.3086-.459,1.3086-.8887,0-1.3671-3.7988-.5175-3.7988-2.92,0-1.0742.9473-1.9043,2.373-1.9043a3.3892,3.3892,0,0,1,2.4414.9082l-.6543.85a2.6477,2.6477,0,0,0-1.8847-.7421c-.6738,0-1.1035.3222-1.1035.81,0,1.2109,3.789.459,3.789,2.8906,0,1.084-.7617,2.0117-2.5195,2.0117A3.4849,3.4849,0,0,1,297.22,43.4922Z" style="fill: #4d4d4d"/>
    <path id="fullLogo-58" data-name="fullLogo" d="M305.3882,44.41V37.8965h1.1426V44.41Z" style="fill: #4d4d4d"/>
    <path id="fullLogo-59" data-name="fullLogo" d="M311.4194,44.41V38.9023h-1.9726V37.8965h5.0879v1.0058H312.562V44.41Z" style="fill: #4d4d4d"/>
    <path id="fullLogo-60" data-name="fullLogo" d="M319.2944,44.41V41.7051l-2.5293-3.8086h1.3086l1.7969,2.793,1.7773-2.793h1.3086l-2.5195,3.8086V44.41Z" style="fill: #4d4d4d"/>
  </g>
</svg>
