<?xml version="1.0" encoding="utf-8"?>
<!-- Generator: Adobe Illustrator 25.3.1, SVG Export Plug-In . SVG Version: 6.00 Build 0)  -->
<svg version="1.1" id="Layer_1" xmlns="http://www.w3.org/2000/svg" xmlns:xlink="http://www.w3.org/1999/xlink" x="0px" y="0px"
	 viewBox="0 0 359.4 78.8" style="enable-background:new 0 0 359.4 78.8;" xml:space="preserve">
<style type="text/css">
	.st0{fill:#FFFFFF;}
</style>
<path class="st0" d="M57.2,71.3c0,0,3.3-1.4,5.1-6.9c1,2.1,1.4,4.4,1.2,6.7C62.1,71.5,57.2,71.3,57.2,71.3"/>
<path class="st0" d="M75,40.1c0,0,2,11-5.1,11.4c-6.9,0.4-10.1-10-10.1-10s1.6,20.2,11.3,18.9C81.9,58.9,75,40.1,75,40.1"/>
<path class="st0" d="M22.6,68.7L22.6,68.7c8-1.8,14.2-11.2,16-15l1.2-2.4l0.7,2.6c0.5,2.2,0.8,4.4,0.8,6.7c0,0.4,0,0.8,0,1.3
	c2.8,0.1,4.8-0.5,6-1.7c1.8-1.8,2.3-5.3,1.6-10.6c-0.3-2.5-1.3-6.6-2.1-10.1c-0.4-1.8-0.8-3.5-1.1-4.8C44.2,26.9,46.1,22,48,19.3
	c0.3-0.4,0.6-0.8,0.9-1.2c-5.7,1.9-10.9,5.2-15.1,9.6l3.4,3.9l1.4-1.3c0.8,3.1,0.9,6.3,0.4,9.4c-1.2-1.7-2.5-3.4-3.9-4.9l0.9-1.5
	L33,29.7l-0.4-0.4c-2.1,2.8-3.8,6-5,9.4l2.7,2.5l1.6,1.4l0.5-1.5c1.7,3.2,1.8,7.1,0.3,10.4c-0.6-1.6-1.4-3.1-2.4-4.5l0.7-2.5l-4-3.5
	C22.9,53.8,17.4,58,17.4,58c3.1-0.6,6.2-1.3,9.3-2.3C26.4,60.3,25,64.8,22.6,68.7"/>
<path class="st0" d="M82.7,22.3l-9.5,0.4c0,1.1-0.2,2.2-0.5,3.3c0.9,3.9,0.3,6,0.3,6c-1.6-3.7-2.8-4.7-2.8-4.7
	c-8.7-3.9-13.7,4.9-13.2,10.6c0.4,4.7,2.1,10.8,3.4,20.6c1.1,8.2-3,11.7-7.8,12.5l-0.3,0.1h-0.1C51.5,71,50.7,71,49.8,71h-0.4
	c-0.4,0-0.7-0.1-1.1-0.1c-3.7-0.5-12-2-20.6-2.2c5-2.9,9-8,11.2-11.6c0.1,1.2,0.2,2.4,0.2,3.6c0,0.7,0,1.4-0.1,2.1l-0.1,1l1,0.1
	c3.9,0.3,6.7-0.4,8.6-2.3c2.2-2.3,2.9-6.2,2.2-12.2c-0.3-2.6-1.3-6.7-2.1-10.3c-0.4-1.8-0.8-3.5-1.1-4.7c-1.4-7.1,0.3-11.4,1.9-13.8
	c1.2-1.8,3-3.1,5.1-3.9h0.1l3.3-10h1l-2.2,9.6c0.5-0.1,1-0.2,1.5-0.2l2.8-8.8h1l-1.8,8.5c2.9-0.4,6.1-0.7,9.6-0.9
	c0.7,0.4,1.3,1,1.7,1.8l9.2-2.8l0.3,1l-8.8,3.4c0.1,0.2,0.1,0.4,0.2,0.6l9.6-1.2l0.2,1L73,20.4c0,0.2,0.1,0.4,0.1,0.5l9.7,0.3
	L82.7,22.3z M55.1,26.5c2.4-1.6,5.3-2.3,8.2-2.1c0.8,0.1,1.4-0.1,0.6-0.6c-2.3-1.2-7.6-0.8-9.5,0.5c-1.9,1.3-2.8,3.6-2.5,5.8
	C52.7,28.7,53.8,27.5,55.1,26.5"/>
<rect x="93.5" y="19.6" class="st0" width="1.4" height="50"/>
<path class="st0" d="M114.2,59l-6.4-16.4h4l4.6,12.7l4.5-12.7h4L118.6,59H114.2z"/>
<path class="st0" d="M137.9,59l-1-2.8h-7.1l-1.1,2.8h-4l6.4-16.4h4.4l6.3,16.4H137.9z M133.3,46.1l-2.6,7.1h5.1L133.3,46.1z"/>
<path class="st0" d="M156,59l-7.8-10.7V59h-3.5V42.6h3.6l7.6,10.3V42.6h3.5V59H156z"/>
<path class="st0" d="M163.1,50.8c0-5.1,3.8-8.5,8.8-8.5c2.9-0.1,5.5,1.5,6.9,4l-3,1.5c-0.8-1.4-2.2-2.4-3.9-2.4
	c-3,0.2-5.3,2.7-5.1,5.7c0.2,2.8,2.4,5,5.1,5.1c1.6,0,3.1-0.9,3.9-2.4l3,1.5c-1.3,2.5-4,4.1-6.9,4C166.9,59.3,163.1,55.8,163.1,50.8
	z"/>
<path class="st0" d="M181.2,50.8c0-4.7,3.8-8.6,8.5-8.7s8.6,3.8,8.7,8.5c0,4.7-3.8,8.6-8.5,8.7c0,0-0.1,0-0.1,0
	c-4.5,0.2-8.4-3.3-8.6-7.8C181.2,51.2,181.2,51,181.2,50.8z M194.8,50.8c0-3.1-2-5.4-5-5.4c-3,0-5,2.3-5,5.4s1.9,5.4,5,5.4
	C192.9,56.2,194.8,53.8,194.8,50.8L194.8,50.8z"/>
<path class="st0" d="M202.1,52.4v-9.9h3.6v9.8c-0.2,2,1.3,3.7,3.2,3.9c0.2,0,0.4,0,0.6,0c2.5,0,3.8-1.6,3.8-3.9v-9.8h3.6v9.9
	c0,4.1-2.4,6.9-7.4,6.9C204.6,59.3,202.1,56.5,202.1,52.4z"/>
<path class="st0" d="M226.1,59l-6.4-16.4h4l4.6,12.7l4.5-12.7h4L230.5,59H226.1z"/>
<path class="st0" d="M239.6,59V42.6h11.6v3.1H243v3.5h8v3.1h-8v3.7h8.1V59H239.6z"/>
<path class="st0" d="M264.5,59l-3.2-5.8h-2.6V59h-3.5V42.6h7.7c3.4,0,5.5,2.2,5.5,5.3c0.1,2.3-1.4,4.3-3.6,4.9l3.7,6.3H264.5z
	 M264.8,47.9c0-1.2-1-2.2-2.2-2.2c-0.1,0-0.2,0-0.2,0h-3.7v4.4h3.7c1.2,0.1,2.3-0.8,2.5-2C264.8,48,264.8,47.9,264.8,47.9
	L264.8,47.9z"/>
<path class="st0" d="M113.6,35.5l-1.3-4.9l-1.3,4.9h-1.2l-1.9-6.6h1.3l1.3,5.1l1.4-5.1h0.9l1.4,5.1l1.3-5.1h1.3l-1.9,6.6H113.6z"/>
<path class="st0" d="M123.6,35.5l-0.5-1.3h-3l-0.4,1.3h-1.3l2.6-6.6h1.4l2.6,6.6H123.6z M121.6,30.1l-1.2,3.1h2.4L121.6,30.1z"/>
<path class="st0" d="M127,34.6l0.6-0.9c0.5,0.6,1.3,0.9,2.1,0.9c0.9,0,1.3-0.5,1.3-0.9c0-1.4-3.8-0.5-3.8-3c0-1.1,1-1.9,2.4-1.9
	c0.9,0,1.8,0.3,2.5,0.9l-0.7,0.8c-0.5-0.5-1.2-0.8-1.9-0.7c-0.7,0-1.1,0.3-1.1,0.8c0,1.2,3.8,0.5,3.8,2.9c0,1.1-0.8,2-2.5,2
	C128.7,35.6,127.7,35.3,127,34.6z"/>
<path class="st0" d="M139.9,35.5v-2.9h-3.4v2.9h-1.2v-6.6h1.2v2.7h3.4v-2.7h1.2v6.6H139.9z"/>
<path class="st0" d="M144.4,35.5v-6.6h1.2v6.6H144.4z"/>
<path class="st0" d="M153.5,35.5l-3.4-4.7v4.7H149v-6.6h1.2l3.4,4.6v-4.6h1.2v6.6H153.5z"/>
<path class="st0" d="M157.7,32.2c-0.1-1.8,1.4-3.3,3.2-3.4c0.1,0,0.2,0,0.3,0c1.1,0,2.1,0.5,2.6,1.4l-0.9,0.5
	c-0.4-0.6-1-0.9-1.7-0.9c-1.3,0.1-2.3,1.2-2.2,2.5c0.1,1.2,1,2.2,2.2,2.2c0.6,0,1.1-0.2,1.6-0.6V33h-2v-1h3.1v2.5
	c-0.7,0.8-1.7,1.2-2.7,1.2c-1.8,0.1-3.4-1.3-3.5-3.1C157.7,32.4,157.7,32.3,157.7,32.2z"/>
<path class="st0" d="M168.6,35.5v-5.6h-2v-1h5.1v1h-2v5.6H168.6z"/>
<path class="st0" d="M174.2,32.2c0-1.9,1.5-3.3,3.4-3.3c1.9,0,3.3,1.5,3.3,3.4c0,1.8-1.5,3.3-3.4,3.3c-1.8,0-3.3-1.4-3.4-3.2
	C174.2,32.3,174.2,32.3,174.2,32.2z M179.7,32.2c-0.1-1.2-1.2-2.1-2.4-2c-1.2,0.1-2.1,1.2-2,2.4c0.1,1.1,1,2,2.2,2
	c1.2,0,2.2-1,2.2-2.2C179.7,32.3,179.7,32.3,179.7,32.2L179.7,32.2z"/>
<path class="st0" d="M188.6,35.5l-3.4-4.7v4.7H184v-6.6h1.2l3.4,4.6v-4.6h1.2v6.6H188.6z"/>
<path class="st0" d="M197.1,34.6l0.6-0.9c0.5,0.6,1.3,0.9,2.1,0.9c1,0,1.3-0.5,1.3-0.9c0-1.4-3.8-0.5-3.8-3c0-1.1,1-1.9,2.4-1.9
	c0.9,0,1.8,0.3,2.5,0.9l-0.7,0.8c-0.5-0.5-1.2-0.8-1.9-0.7c-0.7,0-1.1,0.3-1.1,0.8c0,1.2,3.8,0.5,3.8,2.9c0,1.1-0.8,2-2.5,2
	C198.8,35.6,197.8,35.3,197.1,34.6z"/>
<path class="st0" d="M206.9,35.5v-5.6h-2v-1h5.1v1h-2v5.6H206.9z"/>
<path class="st0" d="M216.9,35.5l-0.5-1.3h-3l-0.5,1.3h-1.3l2.6-6.6h1.4l2.6,6.6H216.9z M214.9,30.1l-1.2,3.1h2.4L214.9,30.1z"/>
<path class="st0" d="M221.9,35.5v-5.6h-2v-1h5.1v1h-2v5.6H221.9z"/>
<path class="st0" d="M228,35.5v-6.6h4.5v1h-3.4v1.7h3.3v1.1h-3.3v1.8h3.4v1L228,35.5z"/>
<path class="st0" d="M240.1,32.9v-4h1.2v3.9c0,0.9,0.8,1.7,1.7,1.7c0.9,0,1.7-0.8,1.7-1.7v-3.9h1.2v4c0,1.6-0.9,2.7-2.8,2.7
	C241.1,35.6,240.1,34.5,240.1,32.9z"/>
<path class="st0" d="M253.8,35.5l-3.4-4.7v4.7h-1.2v-6.6h1.2l3.4,4.6v-4.6h1.2v6.6H253.8z"/>
<path class="st0" d="M258.3,35.5v-6.6h1.1v6.6H258.3z"/>
<path class="st0" d="M264.7,35.5l-2.6-6.6h1.3l2,5.3l2-5.3h1.3l-2.6,6.6H264.7z"/>
<path class="st0" d="M271.4,35.5v-6.6h4.5v1h-3.4v1.7h3.3v1.1h-3.3v1.8h3.4v1L271.4,35.5z"/>
<path class="st0" d="M282.8,35.5l-1.5-2.5h-1.1v2.5h-1.2v-6.6h2.9c1.1-0.1,2.1,0.7,2.1,1.8c0,0.1,0,0.1,0,0.2
	c0.1,0.9-0.6,1.8-1.6,1.9l1.6,2.6H282.8z M282.9,31c0-0.6-0.4-1-1-1c0,0-0.1,0-0.1,0h-1.6V32h1.6c0.6,0.1,1.1-0.4,1.1-0.9
	C282.9,31.1,282.9,31,282.9,31z"/>
<path class="st0" d="M286.8,34.6l0.6-0.9c0.5,0.6,1.3,0.9,2.1,0.9c0.9,0,1.3-0.5,1.3-0.9c0-1.4-3.8-0.5-3.8-3c0-1.1,1-1.9,2.4-1.9
	c0.9,0,1.8,0.3,2.5,0.9l-0.7,0.8c-0.5-0.5-1.2-0.8-1.9-0.7c-0.7,0-1.1,0.3-1.1,0.8c0,1.2,3.8,0.5,3.8,2.9c0,1.1-0.8,2-2.5,2
	C288.5,35.6,287.5,35.3,286.8,34.6z"/>
<path class="st0" d="M295.1,35.5v-6.6h1.2v6.6H295.1z"/>
<path class="st0" d="M301.2,35.5v-5.6h-2v-1h5.1v1h-2v5.6H301.2z"/>
<path class="st0" d="M309.1,35.5v-2.7l-2.6-3.8h1.3l1.8,2.8l1.8-2.8h1.3l-2.5,3.8v2.7L309.1,35.5z"/>
</svg>
